G04*
G04 #@! TF.GenerationSoftware,Altium Limited,Altium Designer,18.1.9 (240)*
G04*
G04 Layer_Color=8388736*
%FSLAX24Y24*%
%MOIN*%
G70*
G01*
G75*
%ADD14C,0.0100*%
%ADD15C,0.0060*%
%ADD26O,0.0513X0.0316*%
%ADD27R,0.0513X0.0316*%
%ADD28R,0.0867X0.1064*%
%ADD29R,0.0513X0.0474*%
%ADD30R,0.0474X0.0513*%
%ADD31O,0.0690X0.0178*%
%ADD32R,0.0690X0.0178*%
%ADD33R,0.0178X0.0690*%
%ADD34R,0.0470X0.0352*%
%ADD35O,0.0470X0.0352*%
%ADD36C,0.0671*%
%ADD37R,0.0671X0.0671*%
%ADD38C,0.1655*%
D14*
X27559Y0D02*
Y17717D01*
X0D02*
X27559D01*
X0Y0D02*
X27559D01*
X0D02*
Y17717D01*
X-900Y600D02*
X-700Y0D01*
X-500Y600D01*
X-700Y17717D02*
X-500Y17117D01*
X-900D02*
X-700Y17717D01*
Y0D02*
Y7189D01*
Y10208D02*
Y17717D01*
X-800Y0D02*
X-150D01*
X-800Y17717D02*
X-150D01*
X0Y-700D02*
X600Y-500D01*
X0Y-700D02*
X600Y-900D01*
X26959D02*
X27559Y-700D01*
X26959Y-500D02*
X27559Y-700D01*
X0D02*
X12110D01*
X15129D02*
X27559D01*
X0Y-800D02*
Y-150D01*
X27559Y-800D02*
Y-150D01*
D15*
X-340Y7649D02*
X-940D01*
X-640Y7349D01*
Y7749D01*
X-940Y8348D02*
Y7949D01*
X-640D01*
X-740Y8148D01*
Y8248D01*
X-640Y8348D01*
X-440D01*
X-340Y8248D01*
Y8048D01*
X-440Y7949D01*
X-340Y8548D02*
X-440D01*
Y8648D01*
X-340D01*
Y8548D01*
X-840Y9048D02*
X-940Y9148D01*
Y9348D01*
X-840Y9448D01*
X-440D01*
X-340Y9348D01*
Y9148D01*
X-440Y9048D01*
X-840D01*
Y9648D02*
X-940Y9748D01*
Y9948D01*
X-840Y10048D01*
X-440D01*
X-340Y9948D01*
Y9748D01*
X-440Y9648D01*
X-840D01*
X12270Y-460D02*
X12670D01*
Y-560D01*
X12270Y-960D01*
Y-1060D01*
X12870Y-560D02*
X12970Y-460D01*
X13170D01*
X13270Y-560D01*
Y-960D01*
X13170Y-1060D01*
X12970D01*
X12870Y-960D01*
Y-560D01*
X13470Y-1060D02*
Y-960D01*
X13570D01*
Y-1060D01*
X13470D01*
X13969Y-560D02*
X14069Y-460D01*
X14269D01*
X14369Y-560D01*
Y-960D01*
X14269Y-1060D01*
X14069D01*
X13969Y-960D01*
Y-560D01*
X14569D02*
X14669Y-460D01*
X14869D01*
X14969Y-560D01*
Y-960D01*
X14869Y-1060D01*
X14669D01*
X14569Y-960D01*
Y-560D01*
D26*
X17174Y12507D02*
D03*
Y13255D02*
D03*
X16150Y12507D02*
D03*
Y12881D02*
D03*
X17174Y6686D02*
D03*
Y7434D02*
D03*
X16150Y6686D02*
D03*
Y7060D02*
D03*
X17174Y9596D02*
D03*
Y10344D02*
D03*
X16150Y9596D02*
D03*
Y9970D02*
D03*
D27*
Y13255D02*
D03*
Y7434D02*
D03*
Y10344D02*
D03*
D28*
X13150Y13720D02*
D03*
X10350D02*
D03*
X23550Y12180D02*
D03*
X20750D02*
D03*
X23550Y8584D02*
D03*
X20750D02*
D03*
X23550Y4988D02*
D03*
X20750D02*
D03*
D29*
X25285Y5283D02*
D03*
X24615D02*
D03*
X25285Y6141D02*
D03*
X24615D02*
D03*
Y6998D02*
D03*
X25285D02*
D03*
Y9348D02*
D03*
X24615D02*
D03*
X25285Y10222D02*
D03*
X24615D02*
D03*
X25285Y11095D02*
D03*
X24615D02*
D03*
Y11968D02*
D03*
X25285D02*
D03*
D30*
X24600Y7848D02*
D03*
Y8518D02*
D03*
X25300Y7848D02*
D03*
Y8518D02*
D03*
X19600Y6794D02*
D03*
Y7464D02*
D03*
X18750Y6794D02*
D03*
Y7464D02*
D03*
X17900Y6794D02*
D03*
Y7464D02*
D03*
X15350Y6794D02*
D03*
Y7464D02*
D03*
X19600Y10374D02*
D03*
Y9705D02*
D03*
X18750D02*
D03*
Y10374D02*
D03*
X17900Y9705D02*
D03*
Y10374D02*
D03*
X15350Y9705D02*
D03*
Y10374D02*
D03*
X19600Y13285D02*
D03*
Y12615D02*
D03*
X18750Y13285D02*
D03*
Y12615D02*
D03*
X17950Y13285D02*
D03*
Y12615D02*
D03*
X15350Y13285D02*
D03*
Y12615D02*
D03*
X14400Y12615D02*
D03*
Y13285D02*
D03*
X14230Y4553D02*
D03*
Y3884D02*
D03*
X12410Y4553D02*
D03*
Y3884D02*
D03*
X13320D02*
D03*
Y4553D02*
D03*
X16050D02*
D03*
Y3884D02*
D03*
X19600Y4553D02*
D03*
Y3884D02*
D03*
X11500Y4553D02*
D03*
Y3884D02*
D03*
X9100Y7481D02*
D03*
Y8150D02*
D03*
X9058Y10082D02*
D03*
Y10751D02*
D03*
X8233Y3884D02*
D03*
Y4553D02*
D03*
X7400Y4535D02*
D03*
Y3865D02*
D03*
X6488Y4553D02*
D03*
Y3884D02*
D03*
X5615Y4553D02*
D03*
Y3884D02*
D03*
X4743Y4553D02*
D03*
Y3884D02*
D03*
X3871Y4553D02*
D03*
Y3884D02*
D03*
X9100Y12615D02*
D03*
Y13285D02*
D03*
X8228D02*
D03*
Y12615D02*
D03*
X7357Y13285D02*
D03*
Y12615D02*
D03*
X6485Y13285D02*
D03*
Y12615D02*
D03*
X5614Y13285D02*
D03*
Y12615D02*
D03*
X4742Y13285D02*
D03*
Y12615D02*
D03*
X3871Y13285D02*
D03*
Y12615D02*
D03*
X18750Y3884D02*
D03*
Y4553D02*
D03*
X15140Y3884D02*
D03*
Y4553D02*
D03*
D31*
X3893Y10082D02*
D03*
D32*
Y9885D02*
D03*
Y9688D02*
D03*
Y9491D02*
D03*
Y9294D02*
D03*
Y9098D02*
D03*
Y8901D02*
D03*
Y8704D02*
D03*
Y8507D02*
D03*
Y8310D02*
D03*
Y8113D02*
D03*
Y7917D02*
D03*
Y7720D02*
D03*
Y7523D02*
D03*
Y7326D02*
D03*
Y7129D02*
D03*
X8204D02*
D03*
Y7326D02*
D03*
Y7523D02*
D03*
Y7720D02*
D03*
Y7917D02*
D03*
Y8113D02*
D03*
Y8310D02*
D03*
Y8507D02*
D03*
Y8704D02*
D03*
Y8901D02*
D03*
Y9098D02*
D03*
Y9294D02*
D03*
Y9491D02*
D03*
Y9688D02*
D03*
Y9885D02*
D03*
Y10082D02*
D03*
D33*
X4572Y6450D02*
D03*
X4769D02*
D03*
X4966D02*
D03*
X5163D02*
D03*
X5359D02*
D03*
X5556D02*
D03*
X5753D02*
D03*
X5950D02*
D03*
X6147D02*
D03*
X6344D02*
D03*
X6541D02*
D03*
X6737D02*
D03*
X6934D02*
D03*
X7131D02*
D03*
X7328D02*
D03*
X7525D02*
D03*
Y10761D02*
D03*
X7328D02*
D03*
X7131D02*
D03*
X6934D02*
D03*
X6737D02*
D03*
X6541D02*
D03*
X6344D02*
D03*
X6147D02*
D03*
X5950D02*
D03*
X5753D02*
D03*
X5556D02*
D03*
X5359D02*
D03*
X5163D02*
D03*
X4966D02*
D03*
X4769D02*
D03*
X4572D02*
D03*
D34*
X17900Y3775D02*
D03*
D35*
Y4149D02*
D03*
Y4523D02*
D03*
X16880Y3775D02*
D03*
Y4523D02*
D03*
D36*
X10300Y4088D02*
D03*
Y5088D02*
D03*
Y6088D02*
D03*
Y7088D02*
D03*
Y8088D02*
D03*
Y9088D02*
D03*
Y10088D02*
D03*
X2650Y5100D02*
D03*
Y7100D02*
D03*
Y8100D02*
D03*
Y9100D02*
D03*
Y10100D02*
D03*
Y11100D02*
D03*
Y12100D02*
D03*
Y13100D02*
D03*
Y6100D02*
D03*
X13500Y10100D02*
D03*
X12500Y9100D02*
D03*
X13500D02*
D03*
X12500Y8100D02*
D03*
X13500D02*
D03*
X12500Y7100D02*
D03*
X13500D02*
D03*
D37*
X10300Y11088D02*
D03*
X2650Y4100D02*
D03*
X12500Y10100D02*
D03*
D38*
X1969Y1969D02*
D03*
Y15748D02*
D03*
X25591Y1969D02*
D03*
Y15748D02*
D03*
M02*
