G04*
G04 #@! TF.GenerationSoftware,Altium Limited,Altium Designer,18.1.9 (240)*
G04*
G04 Layer_Color=16711935*
%FSLAX24Y24*%
%MOIN*%
G70*
G01*
G75*
%ADD14C,0.0100*%
%ADD15C,0.0060*%
%ADD36C,0.0671*%
%ADD37R,0.0671X0.0671*%
%ADD38C,0.1655*%
D14*
X27559Y0D02*
Y17717D01*
X0D02*
X27559D01*
X0Y0D02*
X27559D01*
X0D02*
Y17717D01*
X-900Y600D02*
X-700Y0D01*
X-500Y600D01*
X-700Y17717D02*
X-500Y17117D01*
X-900D02*
X-700Y17717D01*
Y0D02*
Y7189D01*
Y10208D02*
Y17717D01*
X-800Y0D02*
X-150D01*
X-800Y17717D02*
X-150D01*
X0Y-700D02*
X600Y-500D01*
X0Y-700D02*
X600Y-900D01*
X26959D02*
X27559Y-700D01*
X26959Y-500D02*
X27559Y-700D01*
X0D02*
X12110D01*
X15129D02*
X27559D01*
X0Y-800D02*
Y-150D01*
X27559Y-800D02*
Y-150D01*
D15*
X-340Y7649D02*
X-940D01*
X-640Y7349D01*
Y7749D01*
X-940Y8348D02*
Y7949D01*
X-640D01*
X-740Y8148D01*
Y8248D01*
X-640Y8348D01*
X-440D01*
X-340Y8248D01*
Y8048D01*
X-440Y7949D01*
X-340Y8548D02*
X-440D01*
Y8648D01*
X-340D01*
Y8548D01*
X-840Y9048D02*
X-940Y9148D01*
Y9348D01*
X-840Y9448D01*
X-440D01*
X-340Y9348D01*
Y9148D01*
X-440Y9048D01*
X-840D01*
Y9648D02*
X-940Y9748D01*
Y9948D01*
X-840Y10048D01*
X-440D01*
X-340Y9948D01*
Y9748D01*
X-440Y9648D01*
X-840D01*
X12270Y-460D02*
X12670D01*
Y-560D01*
X12270Y-960D01*
Y-1060D01*
X12870Y-560D02*
X12970Y-460D01*
X13170D01*
X13270Y-560D01*
Y-960D01*
X13170Y-1060D01*
X12970D01*
X12870Y-960D01*
Y-560D01*
X13470Y-1060D02*
Y-960D01*
X13570D01*
Y-1060D01*
X13470D01*
X13969Y-560D02*
X14069Y-460D01*
X14269D01*
X14369Y-560D01*
Y-960D01*
X14269Y-1060D01*
X14069D01*
X13969Y-960D01*
Y-560D01*
X14569D02*
X14669Y-460D01*
X14869D01*
X14969Y-560D01*
Y-960D01*
X14869Y-1060D01*
X14669D01*
X14569Y-960D01*
Y-560D01*
D36*
X10300Y4088D02*
D03*
Y5088D02*
D03*
Y6088D02*
D03*
Y7088D02*
D03*
Y8088D02*
D03*
Y9088D02*
D03*
Y10088D02*
D03*
X2650Y5100D02*
D03*
Y7100D02*
D03*
Y8100D02*
D03*
Y9100D02*
D03*
Y10100D02*
D03*
Y11100D02*
D03*
Y12100D02*
D03*
Y13100D02*
D03*
Y6100D02*
D03*
X13500Y10100D02*
D03*
X12500Y9100D02*
D03*
X13500D02*
D03*
X12500Y8100D02*
D03*
X13500D02*
D03*
X12500Y7100D02*
D03*
X13500D02*
D03*
D37*
X10300Y11088D02*
D03*
X2650Y4100D02*
D03*
X12500Y10100D02*
D03*
D38*
X1969Y1969D02*
D03*
Y15748D02*
D03*
X25591Y1969D02*
D03*
Y15748D02*
D03*
M02*
