M48
;Layer_Color=9474304
;FILE_FORMAT=2:4
INCH,LZ
;TYPE=PLATED
T1F00S00C0.0120
T3F00S00C0.0354
T4F00S00C0.0394
T5F00S00C0.1220
;TYPE=NON_PLATED
T6F00S00C0.0197
%
T01
X025081Y002128
X02196Y00172
X02146
Y002944
X02196
X020857Y003268
X020093Y00485
X020306Y007431
X020874
Y008157
X020306
X019738Y008174
X01917
X018602
X018034
X017466Y008157
X016899
Y007431
X017466
X018034Y007447
X018602
X01917
X019738
Y0089
X01917
X018602
X018034
X017466Y008884
X016899
Y00961
X017466
X018034Y009627
X018602
X01917
X019738
X020306Y00961
X020874
Y008884
X020306
X02376Y008635
X0236Y009661
X02395Y007457
X02455Y007593
X02414Y005233
X019868Y00172
X01909
X01824Y003268
X01735Y00375
X01579Y00295
X01541Y00172
X014753Y00175
Y002267
X014027
Y00175
X0133
Y002267
X01316Y00295
X013375Y004528
Y006028
X012945Y00575
X0121Y005811
X0115Y005924
X01175Y00665
X0123
Y0072
X01217Y008208
X011653
Y008935
X01217
X01215Y00975
Y01055
X013383Y01025
X0139
X01389Y009836
Y008
X015144Y006205
X011547Y004886
X011674Y004247
X011157
Y003521
X011674
X0104Y00365
X010067Y00522
X00955
Y005947
X010067
Y006673
X00955
Y0074
X010067
X00985Y00815
X0092Y00939
X009277Y0099
X00825Y0107
X0065Y009066
X005983
Y008339
X0065
X005017Y008285
Y007635
Y006985
Y006335
Y005685
Y005035
Y004385
Y003735
X004141Y003735
Y004385
Y005035
Y005685
Y006335
X004141Y006985
X004141Y007635
X004141Y008285
X003459Y008339
X003047Y008595
X002667Y009521
Y010038
X001941
Y009521
X0022Y005998
X002612Y006254
X003044
X00305Y0068
X003044Y0046
X003456Y00435
X002606
X002144Y0041
X003408Y002679
Y002162
X004135
Y002679
X004861
Y002162
X005588
Y002679
X006306Y002147
X00695Y002157
X0065Y003773
X005983
Y004499
X0065
X007243Y00522
X00776
X008407
X008924
Y005947
X008407
X00776
X007243
Y006673
X00776
X008407
X008924
Y0074
X008407
X00776
X007243
X007334Y013049
Y013649
X007664Y01368
X007328Y015253
X008035Y015444
X00635Y01585
X00575Y015715
Y015115
X0039Y015415
X002979Y01507
X002794Y015626
X0029Y016819
X003085Y019294
X004352Y020717
X004869
X005402
X005919
Y021443
X005402
X004869
X004352
Y02217
X004869
X005402
X005919
Y022896
X005402
X004869
X004352
X003085Y023294
X00715Y0208
Y0203
X007243Y019306
X0068Y01765
X00835Y0178
X009023Y020385
X009023Y020985
X005402Y0128
X00446Y0117
X003496Y013048
X00288
X009965Y013092
X00955Y0124
X0112Y01255
X01165Y012
X01115Y0111
X013383Y010977
X0139
X013472Y012
X01315Y01225
X01505Y0133
X015275Y0139
X017731Y014075
X018445Y0137
X01885Y01375
X01944Y014075
X020048Y013756
X020031Y014435
X020283Y013289
X018332Y01325
X01745Y015253
X017134Y01503
X017643Y016256
Y016819
X016074Y01685
X015362Y01705
X012795Y0171
X012278
Y017827
X012795
X013038Y020388
X012521
X013681Y020389
X01635Y01915
X018465Y021056
Y021606
X020007Y020194
X021711
Y0212
X02175Y0217
X02095Y02215
X022877Y021115
X023394
X023435Y020694
X023452Y019151
Y018634
X022726
Y019151
X021999
Y018634
X021273
Y019151
X02285Y017012
X0231Y01395
X02372Y014023
Y013506
X024447
Y014023
X02445Y012774
Y012174
X02395Y011454
X0189Y015622
X0107Y01585
X01015Y015819
Y01507
X01015Y01405
X010727Y013672
X0092Y01865
X00975Y020194
T03
X0006Y00445
Y00545
Y00645
Y00745
Y00845
X0016
Y00745
Y00645
Y00545
Y00445
Y01185
X0006
Y01285
X0016
Y01385
X0006
Y01485
X0016
Y01585
X0006
Y0176
Y0186
Y0196
Y0206
X01245Y0156
Y0146
Y0136
X01345
Y0146
Y0156
X01805Y023
X01905
X02005
X02105
X02205
X02305
X024417Y0207
Y0197
T04
X008728Y02165
Y022437
Y023225
X0105
Y022437
Y02165
T05
X024606Y000984
X000984
Y022638
X024606
T06
X02355Y015713
Y017287
M30
