G04*
G04 #@! TF.GenerationSoftware,Altium Limited,Altium Designer,18.1.9 (240)*
G04*
G04 Layer_Color=8421504*
%FSLAX24Y24*%
%MOIN*%
G70*
G01*
G75*
%ADD14C,0.0100*%
%ADD17C,0.0200*%
%ADD18C,0.0060*%
%ADD20C,0.0050*%
%ADD23R,0.0394X0.0709*%
%ADD24R,0.0386X0.0366*%
%ADD25R,0.0394X0.0327*%
%ADD26R,0.0366X0.0386*%
%ADD27O,0.0236X0.0709*%
%ADD28R,0.0579X0.0457*%
%ADD29R,0.0748X0.0945*%
%ADD30R,0.0433X0.0236*%
%ADD31R,0.0394X0.0787*%
%ADD32R,0.0787X0.0394*%
%ADD33R,0.0610X0.0157*%
%ADD34R,0.0748X0.0709*%
%ADD35R,0.0236X0.0433*%
%ADD36R,0.1024X0.0709*%
%ADD37R,0.0394X0.0492*%
%ADD38R,0.0457X0.0579*%
%ADD39R,0.0492X0.0276*%
%ADD40C,0.0591*%
%ADD41R,0.0087X0.0787*%
%ADD42R,0.0787X0.0087*%
%ADD43O,0.0787X0.0087*%
%ADD44O,0.0709X0.0110*%
%ADD45O,0.0110X0.0709*%
%ADD46R,0.0315X0.0315*%
%ADD47O,0.0335X0.0138*%
%ADD48R,0.0335X0.0138*%
D14*
X-1300Y31496D02*
X-1100Y30896D01*
X-1500D02*
X-1300Y31496D01*
X-1500Y600D02*
X-1300Y0D01*
X-1100Y600D01*
X-1300Y17098D02*
Y31496D01*
Y0D02*
Y14078D01*
X-1400Y31496D02*
X-200D01*
X-1400Y0D02*
X-200D01*
X0Y-1250D02*
X600Y-1050D01*
X0Y-1250D02*
X600Y-1450D01*
X38770D02*
X39370Y-1250D01*
X38770Y-1050D02*
X39370Y-1250D01*
X0D02*
X17766D01*
X21285D02*
X39370D01*
X0Y-1350D02*
Y-200D01*
X39370Y-1350D02*
Y-200D01*
D17*
X0Y0D02*
X39370D01*
Y31496D01*
X0Y0D02*
Y31496D01*
X39370D01*
D18*
X-1440Y14238D02*
X-1540Y14338D01*
Y14538D01*
X-1440Y14638D01*
X-1340D01*
X-1240Y14538D01*
X-1140Y14638D01*
X-1040D01*
X-940Y14538D01*
Y14338D01*
X-1040Y14238D01*
X-1140D01*
X-1240Y14338D01*
X-1340Y14238D01*
X-1440D01*
X-1240Y14338D02*
Y14538D01*
X-1440Y14838D02*
X-1540Y14938D01*
Y15138D01*
X-1440Y15238D01*
X-1040D01*
X-940Y15138D01*
Y14938D01*
X-1040Y14838D01*
X-1440D01*
X-940Y15438D02*
X-1040D01*
Y15538D01*
X-940D01*
Y15438D01*
X-1440Y15938D02*
X-1540Y16038D01*
Y16238D01*
X-1440Y16338D01*
X-1040D01*
X-940Y16238D01*
Y16038D01*
X-1040Y15938D01*
X-1440D01*
Y16538D02*
X-1540Y16638D01*
Y16838D01*
X-1440Y16938D01*
X-1040D01*
X-940Y16838D01*
Y16638D01*
X-1040Y16538D01*
X-1440D01*
X17926Y-1610D02*
X18125D01*
X18026D01*
Y-1010D01*
X17926Y-1110D01*
X18425D02*
X18525Y-1010D01*
X18725D01*
X18825Y-1110D01*
Y-1510D01*
X18725Y-1610D01*
X18525D01*
X18425Y-1510D01*
Y-1110D01*
X19025D02*
X19125Y-1010D01*
X19325D01*
X19425Y-1110D01*
Y-1510D01*
X19325Y-1610D01*
X19125D01*
X19025Y-1510D01*
Y-1110D01*
X19625Y-1610D02*
Y-1510D01*
X19725D01*
Y-1610D01*
X19625D01*
X20125Y-1110D02*
X20225Y-1010D01*
X20425D01*
X20525Y-1110D01*
Y-1510D01*
X20425Y-1610D01*
X20225D01*
X20125Y-1510D01*
Y-1110D01*
X20725D02*
X20825Y-1010D01*
X21025D01*
X21125Y-1110D01*
Y-1510D01*
X21025Y-1610D01*
X20825D01*
X20725Y-1510D01*
Y-1110D01*
D20*
X38562Y27372D02*
Y27552D01*
X38122Y27372D02*
Y27552D01*
Y27372D02*
X38562D01*
X38122Y27552D02*
X38562D01*
Y25148D02*
Y25328D01*
X38122Y25148D02*
Y25328D01*
Y25148D02*
X38562D01*
X38122Y25328D02*
X38562D01*
Y22822D02*
Y23002D01*
X38122Y22822D02*
Y23002D01*
Y22822D02*
X38562D01*
X38122Y23002D02*
X38562D01*
Y20598D02*
Y20778D01*
X38122Y20598D02*
Y20778D01*
Y20598D02*
X38562D01*
X38122Y20778D02*
X38562D01*
D23*
X25438Y11950D02*
D03*
X24454D02*
D03*
D24*
X37108Y13903D02*
D03*
Y13297D02*
D03*
X37958Y13900D02*
D03*
Y13294D02*
D03*
X29644Y24185D02*
D03*
Y23579D02*
D03*
X34467Y13050D02*
D03*
Y13656D02*
D03*
Y15008D02*
D03*
Y15614D02*
D03*
X31450Y4522D02*
D03*
Y3915D02*
D03*
X32250Y3915D02*
D03*
Y4522D02*
D03*
X35300Y7156D02*
D03*
Y6550D02*
D03*
X31000Y11637D02*
D03*
Y12244D02*
D03*
X30104Y11637D02*
D03*
Y12244D02*
D03*
X29272Y11637D02*
D03*
Y12244D02*
D03*
X13700Y13403D02*
D03*
Y12797D02*
D03*
X12069Y22085D02*
D03*
Y22691D02*
D03*
X12880Y22085D02*
D03*
Y22691D02*
D03*
X14500Y22085D02*
D03*
Y22691D02*
D03*
X13690Y22085D02*
D03*
Y22691D02*
D03*
X10491Y10953D02*
D03*
Y10347D02*
D03*
X11457Y10953D02*
D03*
Y10347D02*
D03*
X13391Y10953D02*
D03*
Y10347D02*
D03*
X12424Y10953D02*
D03*
Y10347D02*
D03*
X18550Y21000D02*
D03*
Y21606D02*
D03*
X17600Y21000D02*
D03*
Y21606D02*
D03*
X16400Y13303D02*
D03*
Y12697D02*
D03*
X29606Y22474D02*
D03*
Y21868D02*
D03*
X28604Y22474D02*
D03*
Y21868D02*
D03*
X28100Y4472D02*
D03*
Y3865D02*
D03*
X27100Y3865D02*
D03*
Y4472D02*
D03*
X35300Y4522D02*
D03*
Y3915D02*
D03*
X36300Y3915D02*
D03*
Y4522D02*
D03*
X32100Y16997D02*
D03*
Y17603D02*
D03*
X25100Y14453D02*
D03*
Y13847D02*
D03*
X32100Y14046D02*
D03*
Y14652D02*
D03*
X32300Y9930D02*
D03*
Y10536D02*
D03*
X27950Y9930D02*
D03*
Y10536D02*
D03*
X24450Y10044D02*
D03*
Y10650D02*
D03*
X25500Y10044D02*
D03*
Y10650D02*
D03*
X35044Y24185D02*
D03*
Y23579D02*
D03*
X32322Y23594D02*
D03*
Y24200D02*
D03*
X35483Y14992D02*
D03*
Y15599D02*
D03*
X35502Y13637D02*
D03*
Y13030D02*
D03*
X35483Y16867D02*
D03*
Y17474D02*
D03*
X26600Y21868D02*
D03*
Y22474D02*
D03*
D25*
X30165Y25147D02*
D03*
X31094D02*
D03*
D26*
X32547D02*
D03*
X31941D02*
D03*
X25464Y19400D02*
D03*
X26071D02*
D03*
X27250Y5600D02*
D03*
X27856D02*
D03*
X31600Y6506D02*
D03*
X32206D02*
D03*
X31597Y7317D02*
D03*
X32203D02*
D03*
X33544Y5600D02*
D03*
X34150D02*
D03*
X4997Y10050D02*
D03*
X5603D02*
D03*
X4997Y10980D02*
D03*
X5603D02*
D03*
X4997Y11910D02*
D03*
X5603D02*
D03*
X4997Y12840D02*
D03*
X5603D02*
D03*
X4997Y13770D02*
D03*
X5603D02*
D03*
X4997Y14700D02*
D03*
X5603D02*
D03*
X4997Y15630D02*
D03*
X5603D02*
D03*
X4997Y16560D02*
D03*
X5603D02*
D03*
X4997Y17490D02*
D03*
X5603D02*
D03*
X4997Y18420D02*
D03*
X5603D02*
D03*
X4997Y19350D02*
D03*
X5603D02*
D03*
X4997Y20280D02*
D03*
X5603D02*
D03*
X4997Y21210D02*
D03*
X5603D02*
D03*
X4997Y22140D02*
D03*
X5603D02*
D03*
X4997Y23067D02*
D03*
X5603D02*
D03*
X4997Y24000D02*
D03*
X5603D02*
D03*
X7253D02*
D03*
X6647D02*
D03*
X6647Y23070D02*
D03*
X7253D02*
D03*
X7253Y22140D02*
D03*
X6647D02*
D03*
X6647Y21210D02*
D03*
X7253D02*
D03*
X7253Y20280D02*
D03*
X6647D02*
D03*
X6647Y19350D02*
D03*
X7253D02*
D03*
X7253Y18420D02*
D03*
X6647D02*
D03*
X6647Y17490D02*
D03*
X7253D02*
D03*
X7253Y16560D02*
D03*
X6647D02*
D03*
X6647Y15630D02*
D03*
X7253D02*
D03*
X7253Y14700D02*
D03*
X6647D02*
D03*
X6647Y13770D02*
D03*
X7253D02*
D03*
X7253Y12840D02*
D03*
X6647D02*
D03*
X6647Y11910D02*
D03*
X7253D02*
D03*
X7253Y10980D02*
D03*
X6647D02*
D03*
X6647Y10050D02*
D03*
X7253D02*
D03*
X35694Y25797D02*
D03*
X35087D02*
D03*
X35694Y26572D02*
D03*
X35087D02*
D03*
X35694Y27347D02*
D03*
X35087D02*
D03*
X38447Y7224D02*
D03*
X37841D02*
D03*
X38447Y8218D02*
D03*
X37841D02*
D03*
X12150Y13494D02*
D03*
X12756D02*
D03*
X12756Y12694D02*
D03*
X12150D02*
D03*
X10481D02*
D03*
X11087D02*
D03*
X10481Y13494D02*
D03*
X11087D02*
D03*
X17944Y15100D02*
D03*
X18550D02*
D03*
X17944Y16050D02*
D03*
X18550D02*
D03*
X17944Y17909D02*
D03*
X18550D02*
D03*
X17944Y17046D02*
D03*
X18550D02*
D03*
X17944Y18800D02*
D03*
X18550D02*
D03*
X10447Y22150D02*
D03*
X11053D02*
D03*
X10447Y23050D02*
D03*
X11053D02*
D03*
X10447Y23950D02*
D03*
X11053D02*
D03*
X2600Y23117D02*
D03*
X1994D02*
D03*
X31694Y19347D02*
D03*
X32300D02*
D03*
X37255Y17000D02*
D03*
X37861D02*
D03*
X27736Y19400D02*
D03*
X27130D02*
D03*
X647Y23117D02*
D03*
X1253D02*
D03*
X16550Y21010D02*
D03*
X15944D02*
D03*
X30407Y9033D02*
D03*
X29801D02*
D03*
D27*
X34394Y22420D02*
D03*
X33894D02*
D03*
X33394D02*
D03*
X32894D02*
D03*
X32394D02*
D03*
X31894D02*
D03*
X31394D02*
D03*
X30894D02*
D03*
X34394Y20373D02*
D03*
X33894D02*
D03*
X32394D02*
D03*
X31894D02*
D03*
X31394D02*
D03*
X30894D02*
D03*
X33394D02*
D03*
X32894D02*
D03*
D28*
X34467Y17601D02*
D03*
Y16900D02*
D03*
D29*
X30907Y10270D02*
D03*
X29293D02*
D03*
D30*
X34351Y6569D02*
D03*
Y6943D02*
D03*
Y7317D02*
D03*
X33249D02*
D03*
Y6569D02*
D03*
X34351Y3988D02*
D03*
Y4362D02*
D03*
Y4736D02*
D03*
X33249D02*
D03*
Y3988D02*
D03*
X30101Y3938D02*
D03*
Y4312D02*
D03*
Y4686D02*
D03*
X28999D02*
D03*
Y3938D02*
D03*
D31*
X17346Y7878D02*
D03*
X17846D02*
D03*
X9850Y1000D02*
D03*
X10350D02*
D03*
X10850D02*
D03*
X11350D02*
D03*
X11850D02*
D03*
X12350D02*
D03*
X12850D02*
D03*
X13350D02*
D03*
X13850D02*
D03*
X14350D02*
D03*
X14850D02*
D03*
X15350D02*
D03*
X15850D02*
D03*
X9850Y7878D02*
D03*
X10350D02*
D03*
X10850D02*
D03*
X11350D02*
D03*
X11850D02*
D03*
X12350D02*
D03*
X12850D02*
D03*
X13350D02*
D03*
X13850D02*
D03*
X14350D02*
D03*
X14850D02*
D03*
X15350D02*
D03*
X15850D02*
D03*
X17846Y1000D02*
D03*
X17346D02*
D03*
D32*
X9153Y1689D02*
D03*
Y2189D02*
D03*
Y2689D02*
D03*
Y3189D02*
D03*
Y3689D02*
D03*
Y4189D02*
D03*
Y4689D02*
D03*
Y5189D02*
D03*
Y5689D02*
D03*
Y6189D02*
D03*
Y6689D02*
D03*
Y7189D02*
D03*
X16700Y27150D02*
D03*
Y31150D02*
D03*
Y30650D02*
D03*
Y30150D02*
D03*
Y29650D02*
D03*
Y29150D02*
D03*
Y28650D02*
D03*
Y28150D02*
D03*
Y27650D02*
D03*
X21228Y27150D02*
D03*
Y27650D02*
D03*
Y28150D02*
D03*
Y28650D02*
D03*
Y29150D02*
D03*
Y29650D02*
D03*
Y30150D02*
D03*
Y30650D02*
D03*
Y31150D02*
D03*
D33*
X37285Y26094D02*
D03*
Y26350D02*
D03*
Y25838D02*
D03*
Y26862D02*
D03*
Y26606D02*
D03*
Y21544D02*
D03*
Y21800D02*
D03*
Y21288D02*
D03*
Y22312D02*
D03*
Y22056D02*
D03*
D34*
X38368Y27944D02*
D03*
Y24756D02*
D03*
Y23394D02*
D03*
Y20206D02*
D03*
D35*
X37882Y15851D02*
D03*
X37508D02*
D03*
X37134D02*
D03*
Y14749D02*
D03*
X37882D02*
D03*
D36*
X15000Y11869D02*
D03*
Y13050D02*
D03*
D37*
X37958Y11139D02*
D03*
Y12300D02*
D03*
X30000Y7481D02*
D03*
Y6319D02*
D03*
X36300Y7411D02*
D03*
Y6250D02*
D03*
X26100Y5031D02*
D03*
Y3869D02*
D03*
D38*
X31750Y30293D02*
D03*
X31050D02*
D03*
D39*
X34136Y23535D02*
D03*
Y24283D02*
D03*
X33152Y23909D02*
D03*
X31436Y23535D02*
D03*
Y24283D02*
D03*
X30452Y23909D02*
D03*
D40*
X38750Y6162D02*
D03*
X37569D02*
D03*
X38750Y3800D02*
D03*
X37569D02*
D03*
D41*
X11822Y19900D02*
D03*
X12019D02*
D03*
X12216D02*
D03*
X12413D02*
D03*
X12609D02*
D03*
X12806D02*
D03*
X13003D02*
D03*
X13200D02*
D03*
X13397D02*
D03*
X13594D02*
D03*
X13791D02*
D03*
X13987D02*
D03*
X14184D02*
D03*
X14381D02*
D03*
X14578D02*
D03*
X14775D02*
D03*
Y15176D02*
D03*
X14578D02*
D03*
X14381D02*
D03*
X14184D02*
D03*
X13987D02*
D03*
X13791D02*
D03*
X13594D02*
D03*
X13397D02*
D03*
X13200D02*
D03*
X13003D02*
D03*
X12806D02*
D03*
X12609D02*
D03*
X12413D02*
D03*
X12216D02*
D03*
X12019D02*
D03*
X11822D02*
D03*
D42*
X15661Y19014D02*
D03*
Y18817D02*
D03*
Y18620D02*
D03*
Y18424D02*
D03*
Y18227D02*
D03*
Y18030D02*
D03*
Y17833D02*
D03*
Y17636D02*
D03*
Y17439D02*
D03*
Y17243D02*
D03*
Y17046D02*
D03*
Y16849D02*
D03*
Y16652D02*
D03*
Y16455D02*
D03*
Y16258D02*
D03*
Y16061D02*
D03*
X10936D02*
D03*
Y16258D02*
D03*
Y16455D02*
D03*
Y16652D02*
D03*
Y16849D02*
D03*
Y17046D02*
D03*
Y17243D02*
D03*
Y17439D02*
D03*
Y17636D02*
D03*
Y17833D02*
D03*
Y18030D02*
D03*
Y18227D02*
D03*
Y18424D02*
D03*
Y18620D02*
D03*
Y18817D02*
D03*
D43*
Y19014D02*
D03*
D44*
X26424Y14248D02*
D03*
Y14444D02*
D03*
Y14641D02*
D03*
Y14838D02*
D03*
Y15035D02*
D03*
Y15232D02*
D03*
Y15429D02*
D03*
Y15626D02*
D03*
Y15822D02*
D03*
Y16019D02*
D03*
Y16216D02*
D03*
Y16413D02*
D03*
Y16610D02*
D03*
Y16807D02*
D03*
Y17003D02*
D03*
Y17200D02*
D03*
X30794D02*
D03*
Y17003D02*
D03*
Y16807D02*
D03*
Y16610D02*
D03*
Y16413D02*
D03*
Y16216D02*
D03*
Y16019D02*
D03*
Y15822D02*
D03*
Y15626D02*
D03*
Y15429D02*
D03*
Y15232D02*
D03*
Y15035D02*
D03*
Y14838D02*
D03*
Y14641D02*
D03*
Y14444D02*
D03*
Y14248D02*
D03*
D45*
X27133Y17909D02*
D03*
X27330D02*
D03*
X27527D02*
D03*
X27724D02*
D03*
X27920D02*
D03*
X28117D02*
D03*
X28314D02*
D03*
X28511D02*
D03*
X28708D02*
D03*
X28905D02*
D03*
X29101D02*
D03*
X29298D02*
D03*
X29495D02*
D03*
X29692D02*
D03*
X29889D02*
D03*
X30086D02*
D03*
Y13539D02*
D03*
X29889D02*
D03*
X29692D02*
D03*
X29495D02*
D03*
X29298D02*
D03*
X29101D02*
D03*
X28905D02*
D03*
X28708D02*
D03*
X28511D02*
D03*
X28314D02*
D03*
X28117D02*
D03*
X27920D02*
D03*
X27724D02*
D03*
X27527D02*
D03*
X27330D02*
D03*
X27133D02*
D03*
D46*
X17840Y27650D02*
D03*
X18260D02*
D03*
X18680D02*
D03*
X19100D02*
D03*
X19520D02*
D03*
X19940D02*
D03*
D47*
X4050Y13294D02*
D03*
Y13550D02*
D03*
Y13806D02*
D03*
X3184Y13294D02*
D03*
Y13550D02*
D03*
Y15600D02*
D03*
Y15344D02*
D03*
X4050Y15856D02*
D03*
Y15600D02*
D03*
Y15344D02*
D03*
X3184Y17550D02*
D03*
Y17294D02*
D03*
X4050Y17806D02*
D03*
Y17550D02*
D03*
Y17294D02*
D03*
X3184Y19619D02*
D03*
Y19363D02*
D03*
X4050Y19875D02*
D03*
Y19619D02*
D03*
Y19363D02*
D03*
X3150Y21850D02*
D03*
Y21594D02*
D03*
X4016Y22106D02*
D03*
Y21850D02*
D03*
Y21594D02*
D03*
D48*
X3184Y13806D02*
D03*
Y15856D02*
D03*
Y17806D02*
D03*
Y19875D02*
D03*
X3150Y22106D02*
D03*
M02*
