G04*
G04 #@! TF.GenerationSoftware,Altium Limited,Altium Designer,18.1.9 (240)*
G04*
G04 Layer_Physical_Order=2*
G04 Layer_Color=16711680*
%FSLAX24Y24*%
%MOIN*%
G70*
G01*
G75*
%ADD12C,0.0100*%
%ADD17C,0.0200*%
%ADD22C,0.0050*%
%ADD41C,0.0591*%
%ADD47R,0.0335X0.0138*%
%ADD48O,0.0335X0.0138*%
%ADD86C,0.0300*%
%ADD87C,0.0150*%
%ADD88R,0.0591X0.0591*%
%ADD89R,0.0591X0.0591*%
%ADD90C,0.0472*%
%ADD91C,0.0197*%
%ADD92R,0.0591X0.0315*%
%ADD93C,0.1378*%
%ADD94C,0.0240*%
%ADD95R,0.0394X0.0492*%
%ADD96C,0.0400*%
%ADD97C,0.0394*%
G36*
X25591Y12D02*
X25555Y-24D01*
X12771Y-0D01*
X12759Y50D01*
X12774Y71D01*
X12800Y133D01*
X12809Y200D01*
X12805Y4976D01*
X12796Y5043D01*
X12770Y5106D01*
X12729Y5160D01*
X12676Y5201D01*
X12613Y5227D01*
X12546Y5235D01*
X12479Y5226D01*
X12417Y5200D01*
X12363Y5159D01*
X12322Y5106D01*
X12296Y5043D01*
X12287Y4976D01*
X12291Y200D01*
X12300Y133D01*
X12326Y70D01*
X12341Y50D01*
X12320Y0D01*
X-0Y0D01*
X-0Y10162D01*
X50Y10194D01*
X100Y10188D01*
X4650D01*
X4650Y10188D01*
X4718Y10197D01*
X4781Y10223D01*
X4835Y10265D01*
X5859Y11288D01*
X10966D01*
X10985Y11238D01*
X10661Y10914D01*
X8250D01*
X8168Y10898D01*
X8099Y10851D01*
X8052Y10782D01*
X8036Y10700D01*
X8052Y10618D01*
X8099Y10549D01*
X8168Y10502D01*
X8250Y10486D01*
X10750D01*
X10832Y10502D01*
X10901Y10549D01*
X11301Y10949D01*
X11348Y11018D01*
X11364Y11100D01*
X11348Y11182D01*
X11311Y11238D01*
X11330Y11288D01*
X11691D01*
X12288Y10691D01*
Y10450D01*
X12291Y10426D01*
Y7807D01*
X12300Y7740D01*
X12326Y7678D01*
X12367Y7624D01*
X12420Y7583D01*
X12483Y7557D01*
X12550Y7548D01*
X12617Y7557D01*
X12680Y7583D01*
X12733Y7624D01*
X12774Y7678D01*
X12800Y7740D01*
X12809Y7807D01*
Y10426D01*
X12812Y10450D01*
Y10800D01*
X12812Y10800D01*
X12803Y10868D01*
X12777Y10931D01*
X12735Y10985D01*
X12735Y10985D01*
X11985Y11735D01*
X11985Y11736D01*
X12002Y11786D01*
X12211D01*
X12649Y11349D01*
X12718Y11302D01*
X12800Y11286D01*
X13500D01*
X13582Y11302D01*
X13651Y11349D01*
X15201Y12899D01*
X15248Y12968D01*
X15264Y13050D01*
Y13300D01*
X15248Y13382D01*
X15201Y13451D01*
X14914Y13739D01*
Y16161D01*
X15514Y16761D01*
X15560Y16830D01*
X15576Y16912D01*
Y17050D01*
X15560Y17132D01*
X15514Y17201D01*
X15444Y17248D01*
X15362Y17264D01*
X15280Y17248D01*
X15211Y17201D01*
X15164Y17132D01*
X15148Y17050D01*
Y17001D01*
X14549Y16401D01*
X14502Y16332D01*
X14486Y16250D01*
Y13650D01*
X14502Y13568D01*
X14549Y13499D01*
X14836Y13211D01*
Y13139D01*
X13703Y12006D01*
X13650Y12024D01*
X13641Y12070D01*
X13601Y12130D01*
X13584Y12142D01*
Y12354D01*
X14329Y13099D01*
X14329Y13099D01*
X14354Y13135D01*
X14362Y13178D01*
X14362Y13178D01*
Y14350D01*
X14354Y14393D01*
X14329Y14429D01*
X14329Y14429D01*
X14079Y14679D01*
X14043Y14704D01*
X14000Y14712D01*
X14000Y14712D01*
X13788D01*
X13760Y14779D01*
X13703Y14853D01*
X13629Y14910D01*
X13543Y14946D01*
X13450Y14958D01*
X13357Y14946D01*
X13271Y14910D01*
X13197Y14853D01*
X13140Y14779D01*
X13104Y14693D01*
X13092Y14600D01*
X13104Y14507D01*
X13140Y14421D01*
X13197Y14347D01*
X13271Y14290D01*
X13337Y14262D01*
X13327Y14212D01*
X12639D01*
X12622Y14233D01*
X12628Y14281D01*
X12636Y14295D01*
X12703Y14347D01*
X12760Y14421D01*
X12796Y14507D01*
X12808Y14600D01*
X12796Y14693D01*
X12760Y14779D01*
X12703Y14853D01*
X12629Y14910D01*
X12543Y14946D01*
X12450Y14958D01*
X12357Y14946D01*
X12271Y14910D01*
X12197Y14853D01*
X12140Y14779D01*
X12112Y14713D01*
X12062Y14723D01*
Y15477D01*
X12112Y15487D01*
X12140Y15421D01*
X12197Y15347D01*
X12271Y15290D01*
X12357Y15254D01*
X12450Y15242D01*
X12543Y15254D01*
X12629Y15290D01*
X12703Y15347D01*
X12760Y15421D01*
X12796Y15507D01*
X12808Y15600D01*
X13294Y16085D01*
X13340Y16061D01*
X13338Y16050D01*
X13338Y16050D01*
Y15938D01*
X13271Y15910D01*
X13197Y15853D01*
X13140Y15779D01*
X13104Y15693D01*
X13092Y15600D01*
X13104Y15507D01*
X13140Y15421D01*
X13197Y15347D01*
X13271Y15290D01*
X13357Y15254D01*
X13450Y15242D01*
X13543Y15254D01*
X13629Y15290D01*
X13703Y15347D01*
X13760Y15421D01*
X13796Y15507D01*
X13808Y15600D01*
X13796Y15693D01*
X13760Y15779D01*
X13703Y15853D01*
X13629Y15910D01*
X13562Y15938D01*
Y16004D01*
X15729Y18171D01*
X15729Y18171D01*
X15754Y18207D01*
X15762Y18250D01*
X15762Y18250D01*
Y19304D01*
X16796Y20338D01*
X18750D01*
X18750Y20338D01*
X18793Y20346D01*
X18829Y20371D01*
X20709Y22250D01*
X20710Y22250D01*
X20750Y22221D01*
X20736Y22150D01*
X20752Y22068D01*
X20799Y21999D01*
X20868Y21952D01*
X20950Y21936D01*
X23511D01*
X24202Y21245D01*
Y21055D01*
X24061D01*
Y20345D01*
X24772D01*
Y21055D01*
X24631D01*
Y21333D01*
X24614Y21415D01*
X24568Y21485D01*
X23751Y22301D01*
X23682Y22348D01*
X23600Y22364D01*
X21997D01*
X21982Y22414D01*
X21992Y22421D01*
X22129Y22558D01*
X22129Y22558D01*
X22154Y22595D01*
X22162Y22638D01*
X22162Y22638D01*
Y22662D01*
X22229Y22690D01*
X22303Y22747D01*
X22360Y22821D01*
X22396Y22907D01*
X22408Y23000D01*
X22396Y23093D01*
X22360Y23179D01*
X22303Y23253D01*
X22229Y23310D01*
X22143Y23346D01*
X22050Y23358D01*
X21957Y23346D01*
X21871Y23310D01*
X21797Y23253D01*
X21740Y23179D01*
X21704Y23093D01*
X21692Y23000D01*
X21704Y22907D01*
X21740Y22821D01*
X21797Y22747D01*
X21865Y22694D01*
X21874Y22649D01*
X21875Y22639D01*
X21851Y22612D01*
X21173D01*
X21163Y22662D01*
X21229Y22690D01*
X21303Y22747D01*
X21360Y22821D01*
X21396Y22907D01*
X21408Y23000D01*
X21396Y23093D01*
X21360Y23179D01*
X21303Y23253D01*
X21229Y23310D01*
X21143Y23346D01*
X21050Y23358D01*
X20957Y23346D01*
X20871Y23310D01*
X20797Y23253D01*
X20740Y23179D01*
X20704Y23093D01*
X20692Y23000D01*
X20703Y22912D01*
X18554Y20762D01*
X16600D01*
X16557Y20754D01*
X16521Y20729D01*
X16521Y20729D01*
X15321Y19529D01*
X15296Y19493D01*
X15288Y19450D01*
X15288Y19450D01*
Y18396D01*
X12742Y15851D01*
X12703Y15853D01*
X12629Y15910D01*
X12543Y15946D01*
X12450Y15958D01*
X12357Y15946D01*
X12271Y15910D01*
X12197Y15853D01*
X12140Y15779D01*
X12112Y15713D01*
X12062Y15723D01*
Y16600D01*
X12054Y16643D01*
X12029Y16679D01*
X12029Y16679D01*
X10829Y17879D01*
X10793Y17904D01*
X10750Y17912D01*
X10750Y17912D01*
X9546D01*
X8312Y19146D01*
Y20506D01*
X8312Y20506D01*
X8304Y20548D01*
X8279Y20585D01*
X8279Y20585D01*
X7985Y20879D01*
X7948Y20904D01*
X7906Y20912D01*
X7906Y20912D01*
X7292D01*
X7280Y20930D01*
X7220Y20970D01*
X7150Y20984D01*
X7080Y20970D01*
X7020Y20930D01*
X6980Y20870D01*
X6966Y20800D01*
X6980Y20730D01*
X7020Y20670D01*
X7080Y20630D01*
X7150Y20616D01*
X7220Y20630D01*
X7280Y20670D01*
X7292Y20688D01*
X7859D01*
X8088Y20459D01*
Y20236D01*
X8042Y20217D01*
X7879Y20379D01*
X7843Y20404D01*
X7800Y20412D01*
X7800Y20412D01*
X7292D01*
X7280Y20430D01*
X7220Y20470D01*
X7150Y20484D01*
X7080Y20470D01*
X7020Y20430D01*
X6980Y20370D01*
X6966Y20300D01*
X6980Y20230D01*
X7020Y20170D01*
X7080Y20130D01*
X7150Y20116D01*
X7220Y20130D01*
X7280Y20170D01*
X7292Y20188D01*
X7754D01*
X7922Y20019D01*
Y18908D01*
X7922Y18908D01*
X7931Y18865D01*
X7955Y18829D01*
X9289Y17496D01*
X9289Y17496D01*
X9325Y17471D01*
X9368Y17463D01*
X9368Y17463D01*
X10591D01*
X11630Y16423D01*
Y15233D01*
X11630Y15233D01*
X11638Y15194D01*
Y13400D01*
X11638Y13400D01*
X11646Y13357D01*
X11671Y13321D01*
X11876Y13115D01*
X11876Y13115D01*
X11912Y13091D01*
X11955Y13083D01*
X11955Y13083D01*
X13050D01*
X13050Y13083D01*
X13093Y13091D01*
X13129Y13115D01*
X13259Y13245D01*
X13671D01*
X13690Y13199D01*
X13071Y12579D01*
X13046Y12543D01*
X13038Y12500D01*
X13038Y12500D01*
Y12392D01*
X13020Y12380D01*
X12980Y12320D01*
X12966Y12250D01*
X12980Y12180D01*
X13020Y12120D01*
X13080Y12080D01*
X13150Y12066D01*
X13220Y12080D01*
X13280Y12120D01*
X13313Y12087D01*
X13302Y12070D01*
X13288Y12000D01*
X13302Y11930D01*
X13342Y11870D01*
X13401Y11830D01*
X13448Y11821D01*
X13465Y11768D01*
X13411Y11714D01*
X12889D01*
X12451Y12151D01*
X12382Y12198D01*
X12300Y12214D01*
X9733D01*
X9712Y12264D01*
X9748Y12318D01*
X9764Y12400D01*
Y13150D01*
X10072Y13458D01*
X10727D01*
X10809Y13474D01*
X10879Y13521D01*
X10896Y13547D01*
X10972Y13547D01*
X10986Y13503D01*
Y12550D01*
X11002Y12468D01*
X11049Y12399D01*
X11118Y12352D01*
X11200Y12336D01*
X11282Y12352D01*
X11351Y12399D01*
X11398Y12468D01*
X11414Y12550D01*
Y15350D01*
X11398Y15432D01*
X11351Y15501D01*
X10957Y15896D01*
Y16337D01*
X10443D01*
Y15725D01*
X10531D01*
X10549Y15699D01*
X10986Y15261D01*
Y14204D01*
X10972Y14160D01*
X10936Y14160D01*
X10458D01*
Y13886D01*
X9983D01*
X9901Y13870D01*
X9832Y13824D01*
X9399Y13390D01*
X9352Y13321D01*
X9336Y13239D01*
Y12400D01*
X9352Y12318D01*
X9388Y12264D01*
X9367Y12214D01*
X7039D01*
X6714Y12539D01*
Y13715D01*
X6908Y13909D01*
X6955Y13978D01*
X6971Y14060D01*
Y15172D01*
X6955Y15254D01*
X6908Y15324D01*
X6587Y15645D01*
X6607Y15695D01*
X6607D01*
Y16307D01*
X6564D01*
Y16411D01*
X6951Y16799D01*
X6998Y16868D01*
X7014Y16950D01*
Y17650D01*
X6998Y17732D01*
X6951Y17801D01*
X6908Y17830D01*
X6923Y17880D01*
X7967D01*
X8047Y17800D01*
X7177Y16930D01*
X7131Y16860D01*
X7114Y16778D01*
Y15253D01*
X7131Y15171D01*
X7177Y15101D01*
X7246Y15055D01*
X7328Y15039D01*
X7410Y15055D01*
X7480Y15101D01*
X7526Y15171D01*
X7542Y15253D01*
Y16690D01*
X8501Y17649D01*
X8501Y17649D01*
X8548Y17718D01*
X8564Y17800D01*
X8548Y17882D01*
X8501Y17951D01*
X8207Y18246D01*
X8137Y18292D01*
X8056Y18309D01*
X4676D01*
X4594Y18292D01*
X4525Y18246D01*
X3128Y16850D01*
X3074Y16866D01*
X3070Y16889D01*
X3030Y16948D01*
X2970Y16988D01*
X2959Y16990D01*
X2234Y17715D01*
X2181Y17751D01*
X2119Y17763D01*
X955D01*
Y17955D01*
X245D01*
Y17245D01*
X955D01*
Y17437D01*
X2051D01*
X2728Y16760D01*
X2730Y16748D01*
X2770Y16689D01*
X2830Y16649D01*
X2900Y16635D01*
X2970Y16649D01*
X2986Y16659D01*
X3036Y16633D01*
Y15430D01*
X2872Y15266D01*
X2803D01*
X2565Y15503D01*
X2512Y15539D01*
X2450Y15551D01*
X1130D01*
X955Y15725D01*
Y16205D01*
X245D01*
Y15495D01*
X725D01*
X947Y15272D01*
X1000Y15237D01*
X1062Y15225D01*
X1062Y15225D01*
X2382D01*
X2652Y14955D01*
X2705Y14920D01*
X2767Y14907D01*
X2839D01*
X3059Y14688D01*
X3128Y14642D01*
X3210Y14625D01*
X3972D01*
X4636Y13961D01*
Y12179D01*
X4309Y11851D01*
X4262Y11782D01*
X4246Y11700D01*
X4262Y11618D01*
X4309Y11549D01*
X4378Y11502D01*
X4460Y11486D01*
X4542Y11502D01*
X4611Y11549D01*
X5001Y11939D01*
X5048Y12008D01*
X5064Y12090D01*
Y14050D01*
X5048Y14132D01*
X5001Y14201D01*
X4212Y14991D01*
X4143Y15037D01*
X4061Y15053D01*
X3336D01*
X3315Y15103D01*
X3401Y15190D01*
X3448Y15260D01*
X3464Y15342D01*
Y16580D01*
X4765Y17880D01*
X6677D01*
X6692Y17830D01*
X6649Y17801D01*
X6602Y17732D01*
X6586Y17650D01*
Y17039D01*
X6199Y16651D01*
X6152Y16582D01*
X6136Y16500D01*
Y16307D01*
X6093D01*
Y15695D01*
X6136D01*
Y15579D01*
X6152Y15497D01*
X6199Y15428D01*
X6543Y15084D01*
Y14149D01*
X6349Y13955D01*
X6302Y13885D01*
X6286Y13804D01*
Y12450D01*
X6302Y12368D01*
X6349Y12299D01*
X6785Y11862D01*
X6766Y11812D01*
X5750D01*
X5750Y11812D01*
X5682Y11803D01*
X5619Y11777D01*
X5565Y11735D01*
X5565Y11735D01*
X4541Y10712D01*
X100D01*
X50Y10706D01*
X0Y10738D01*
Y23594D01*
X25591D01*
X25591Y12D01*
D02*
G37*
%LPC*%
G36*
X10500Y23524D02*
X10423Y23513D01*
X10351Y23484D01*
X10289Y23436D01*
X10241Y23374D01*
X10211Y23302D01*
X10201Y23225D01*
X10211Y23147D01*
X10241Y23075D01*
X10289Y23014D01*
X10351Y22966D01*
X10423Y22936D01*
X10500Y22926D01*
X10577Y22936D01*
X10649Y22966D01*
X10711Y23014D01*
X10759Y23075D01*
X10789Y23147D01*
X10799Y23225D01*
X10789Y23302D01*
X10759Y23374D01*
X10711Y23436D01*
X10649Y23484D01*
X10577Y23513D01*
X10500Y23524D01*
D02*
G37*
G36*
X8728D02*
X8651Y23513D01*
X8579Y23484D01*
X8517Y23436D01*
X8470Y23374D01*
X8440Y23302D01*
X8430Y23225D01*
X8440Y23147D01*
X8470Y23075D01*
X8517Y23014D01*
X8579Y22966D01*
X8651Y22936D01*
X8728Y22926D01*
X8806Y22936D01*
X8878Y22966D01*
X8940Y23014D01*
X8987Y23075D01*
X9017Y23147D01*
X9027Y23225D01*
X9017Y23302D01*
X8987Y23374D01*
X8940Y23436D01*
X8878Y23484D01*
X8806Y23513D01*
X8728Y23524D01*
D02*
G37*
G36*
X23405Y23355D02*
X22695D01*
Y22645D01*
X23405D01*
Y23355D01*
D02*
G37*
G36*
X19050Y23358D02*
X18957Y23346D01*
X18871Y23310D01*
X18797Y23253D01*
X18740Y23179D01*
X18704Y23093D01*
X18692Y23000D01*
X18698Y22951D01*
X17567Y21820D01*
X13206D01*
X13124Y21803D01*
X13054Y21757D01*
X11706Y20409D01*
X9750D01*
X9668Y20392D01*
X9599Y20346D01*
X9552Y20276D01*
X9536Y20194D01*
Y19289D01*
X9049Y18801D01*
X9002Y18732D01*
X8986Y18650D01*
X9002Y18568D01*
X9049Y18499D01*
X9118Y18452D01*
X9200Y18436D01*
X9282Y18452D01*
X9351Y18499D01*
X9901Y19049D01*
X9948Y19118D01*
X9964Y19200D01*
Y19980D01*
X11794D01*
X11876Y19997D01*
X11946Y20043D01*
X13294Y21391D01*
X17656D01*
X17737Y21408D01*
X17807Y21454D01*
X19001Y22648D01*
X19050Y22642D01*
X19143Y22654D01*
X19229Y22690D01*
X19303Y22747D01*
X19360Y22821D01*
X19396Y22907D01*
X19408Y23000D01*
X19396Y23093D01*
X19360Y23179D01*
X19303Y23253D01*
X19229Y23310D01*
X19143Y23346D01*
X19050Y23358D01*
D02*
G37*
G36*
X18050D02*
X17957Y23346D01*
X17871Y23310D01*
X17797Y23253D01*
X17740Y23179D01*
X17704Y23093D01*
X17692Y23000D01*
X17704Y22907D01*
X17740Y22821D01*
X17797Y22747D01*
X17871Y22690D01*
X17957Y22654D01*
X18050Y22642D01*
X18143Y22654D01*
X18229Y22690D01*
X18303Y22747D01*
X18360Y22821D01*
X18396Y22907D01*
X18408Y23000D01*
X18396Y23093D01*
X18360Y23179D01*
X18303Y23253D01*
X18229Y23310D01*
X18143Y23346D01*
X18050Y23358D01*
D02*
G37*
G36*
X10500Y22736D02*
X10423Y22726D01*
X10351Y22696D01*
X10289Y22649D01*
X10241Y22587D01*
X10211Y22515D01*
X10201Y22437D01*
X10211Y22360D01*
X10241Y22288D01*
X10289Y22226D01*
X10351Y22179D01*
X10423Y22149D01*
X10500Y22139D01*
X10577Y22149D01*
X10649Y22179D01*
X10711Y22226D01*
X10759Y22288D01*
X10789Y22360D01*
X10799Y22437D01*
X10789Y22515D01*
X10759Y22587D01*
X10711Y22649D01*
X10649Y22696D01*
X10577Y22726D01*
X10500Y22736D01*
D02*
G37*
G36*
X8728D02*
X8651Y22726D01*
X8579Y22696D01*
X8517Y22649D01*
X8470Y22587D01*
X8440Y22515D01*
X8430Y22437D01*
X8440Y22360D01*
X8470Y22288D01*
X8517Y22226D01*
X8579Y22179D01*
X8651Y22149D01*
X8728Y22139D01*
X8806Y22149D01*
X8878Y22179D01*
X8940Y22226D01*
X8987Y22288D01*
X9017Y22360D01*
X9027Y22437D01*
X9017Y22515D01*
X8987Y22587D01*
X8940Y22649D01*
X8878Y22696D01*
X8806Y22726D01*
X8728Y22736D01*
D02*
G37*
G36*
X21750Y21884D02*
X21680Y21870D01*
X21632Y21838D01*
X21512D01*
X21460Y21827D01*
X21415Y21797D01*
X21415Y21797D01*
X19993Y20375D01*
X19937Y20364D01*
X19877Y20324D01*
X19837Y20265D01*
X19823Y20194D01*
X19837Y20124D01*
X19877Y20065D01*
X19937Y20025D01*
X20007Y20011D01*
X20077Y20025D01*
X20137Y20065D01*
X20176Y20124D01*
X20187Y20181D01*
X21569Y21562D01*
X21632D01*
X21680Y21530D01*
X21750Y21516D01*
X21820Y21530D01*
X21880Y21570D01*
X21920Y21630D01*
X21934Y21700D01*
X21920Y21770D01*
X21880Y21830D01*
X21820Y21870D01*
X21750Y21884D01*
D02*
G37*
G36*
X10500Y21949D02*
X10423Y21939D01*
X10351Y21909D01*
X10289Y21861D01*
X10241Y21799D01*
X10211Y21727D01*
X10201Y21650D01*
X10211Y21573D01*
X10241Y21501D01*
X10289Y21439D01*
X10351Y21391D01*
X10423Y21361D01*
X10500Y21351D01*
X10577Y21361D01*
X10649Y21391D01*
X10711Y21439D01*
X10759Y21501D01*
X10789Y21573D01*
X10799Y21650D01*
X10789Y21727D01*
X10759Y21799D01*
X10711Y21861D01*
X10649Y21909D01*
X10577Y21939D01*
X10500Y21949D01*
D02*
G37*
G36*
X8728D02*
X8651Y21939D01*
X8579Y21909D01*
X8517Y21861D01*
X8470Y21799D01*
X8440Y21727D01*
X8430Y21650D01*
X8440Y21573D01*
X8470Y21501D01*
X8517Y21439D01*
X8579Y21391D01*
X8651Y21361D01*
X8728Y21351D01*
X8806Y21361D01*
X8878Y21391D01*
X8940Y21439D01*
X8987Y21501D01*
X9017Y21573D01*
X9027Y21650D01*
X9017Y21727D01*
X8987Y21799D01*
X8940Y21861D01*
X8878Y21909D01*
X8806Y21939D01*
X8728Y21949D01*
D02*
G37*
G36*
X600Y19958D02*
X507Y19946D01*
X421Y19910D01*
X347Y19853D01*
X290Y19779D01*
X254Y19693D01*
X242Y19600D01*
X254Y19507D01*
X290Y19421D01*
X347Y19347D01*
X421Y19290D01*
X507Y19254D01*
X600Y19242D01*
X693Y19254D01*
X779Y19290D01*
X853Y19347D01*
X910Y19421D01*
X946Y19507D01*
X958Y19600D01*
X946Y19693D01*
X910Y19779D01*
X853Y19853D01*
X779Y19910D01*
X693Y19946D01*
X600Y19958D01*
D02*
G37*
G36*
Y18958D02*
X507Y18946D01*
X421Y18910D01*
X347Y18853D01*
X290Y18779D01*
X254Y18693D01*
X242Y18600D01*
X254Y18507D01*
X290Y18421D01*
X347Y18347D01*
X421Y18290D01*
X507Y18254D01*
X600Y18242D01*
X693Y18254D01*
X779Y18290D01*
X853Y18347D01*
X910Y18421D01*
X946Y18507D01*
X958Y18600D01*
X946Y18693D01*
X910Y18779D01*
X853Y18853D01*
X779Y18910D01*
X693Y18946D01*
X600Y18958D01*
D02*
G37*
G36*
X24752Y17830D02*
X24042D01*
Y17395D01*
X24752D01*
Y17830D01*
D02*
G37*
G36*
X23550Y17449D02*
X23489Y17437D01*
X23436Y17402D01*
X23401Y17349D01*
X23389Y17287D01*
X23401Y17226D01*
X23436Y17173D01*
X23489Y17138D01*
X23550Y17126D01*
X23612Y17138D01*
X23665Y17173D01*
X23700Y17226D01*
X23712Y17287D01*
X23700Y17349D01*
X23665Y17402D01*
X23612Y17437D01*
X23550Y17449D01*
D02*
G37*
G36*
X16350Y19334D02*
X16280Y19320D01*
X16220Y19280D01*
X16180Y19220D01*
X16166Y19150D01*
X16180Y19080D01*
X16220Y19020D01*
X16238Y19008D01*
Y17012D01*
X16188Y16990D01*
X16144Y17020D01*
X16074Y17034D01*
X16004Y17020D01*
X15944Y16980D01*
X15904Y16920D01*
X15890Y16850D01*
X15904Y16780D01*
X15944Y16720D01*
X15962Y16708D01*
Y6520D01*
X15758Y6317D01*
X15285D01*
X15273Y6334D01*
X15214Y6374D01*
X15144Y6388D01*
X15073Y6374D01*
X15014Y6334D01*
X14974Y6275D01*
X14960Y6205D01*
X14974Y6134D01*
X15014Y6075D01*
X15073Y6035D01*
X15144Y6021D01*
X15214Y6035D01*
X15273Y6075D01*
X15285Y6093D01*
X15805D01*
X15805Y6093D01*
X15848Y6101D01*
X15884Y6125D01*
X16153Y6394D01*
X16153Y6394D01*
X16177Y6431D01*
X16186Y6474D01*
X16186Y6474D01*
Y16656D01*
X16188Y16657D01*
X16238Y16631D01*
Y6485D01*
X16238Y6485D01*
X16246Y6442D01*
X16271Y6406D01*
X16551Y6125D01*
X16551Y6125D01*
X16587Y6101D01*
X16630Y6093D01*
X19792D01*
X19981Y5904D01*
Y4992D01*
X19964Y4980D01*
X19924Y4920D01*
X19910Y4850D01*
X19924Y4780D01*
X19964Y4720D01*
X20023Y4680D01*
X20093Y4666D01*
X20164Y4680D01*
X20223Y4720D01*
X20263Y4780D01*
X20277Y4850D01*
X20263Y4920D01*
X20223Y4980D01*
X20206Y4992D01*
Y5950D01*
X20197Y5993D01*
X20173Y6029D01*
X20173Y6029D01*
X19918Y6284D01*
X19882Y6308D01*
X19839Y6317D01*
X19839Y6317D01*
X16677D01*
X16462Y6531D01*
Y19008D01*
X16480Y19020D01*
X16520Y19080D01*
X16534Y19150D01*
X16520Y19220D01*
X16480Y19280D01*
X16420Y19320D01*
X16350Y19334D01*
D02*
G37*
G36*
X23550Y15874D02*
X23489Y15862D01*
X23436Y15827D01*
X23401Y15774D01*
X23389Y15713D01*
X23401Y15651D01*
X23436Y15598D01*
X23489Y15563D01*
X23550Y15551D01*
X23612Y15563D01*
X23665Y15598D01*
X23700Y15651D01*
X23712Y15713D01*
X23700Y15774D01*
X23665Y15827D01*
X23612Y15862D01*
X23550Y15874D01*
D02*
G37*
G36*
X17450Y15436D02*
X17380Y15422D01*
X17320Y15383D01*
X17280Y15323D01*
X17266Y15253D01*
X17275Y15212D01*
X17230Y15182D01*
X17204Y15199D01*
X17134Y15213D01*
X17064Y15199D01*
X17004Y15159D01*
X16964Y15100D01*
X16950Y15030D01*
X16964Y14959D01*
X17004Y14900D01*
X17064Y14860D01*
X17134Y14846D01*
X17155Y14850D01*
X18269Y13736D01*
X18262Y13700D01*
X18276Y13630D01*
X18315Y13570D01*
X18375Y13530D01*
X18445Y13516D01*
X18515Y13530D01*
X18575Y13570D01*
X18615Y13630D01*
X18628Y13699D01*
X18629Y13700D01*
X18672Y13702D01*
Y13702D01*
X18672D01*
X18680Y13680D01*
X18693Y13661D01*
X18720Y13620D01*
X18780Y13580D01*
X18850Y13566D01*
X18920Y13580D01*
X18980Y13620D01*
X19020Y13680D01*
X19034Y13750D01*
X19020Y13820D01*
X18980Y13880D01*
X18952Y13899D01*
X18929Y13932D01*
X17629Y15232D01*
X17634Y15253D01*
X17620Y15323D01*
X17580Y15383D01*
X17520Y15422D01*
X17450Y15436D01*
D02*
G37*
G36*
X24752Y15605D02*
X24042D01*
Y15170D01*
X24752D01*
Y15605D01*
D02*
G37*
G36*
X600Y15208D02*
X507Y15196D01*
X421Y15160D01*
X347Y15103D01*
X290Y15029D01*
X254Y14943D01*
X242Y14850D01*
X254Y14757D01*
X290Y14671D01*
X347Y14597D01*
X421Y14540D01*
X507Y14504D01*
X600Y14492D01*
X693Y14504D01*
X779Y14540D01*
X853Y14597D01*
X910Y14671D01*
X946Y14757D01*
X958Y14850D01*
X946Y14943D01*
X910Y15029D01*
X853Y15103D01*
X779Y15160D01*
X693Y15196D01*
X600Y15208D01*
D02*
G37*
G36*
Y14208D02*
X507Y14196D01*
X421Y14160D01*
X347Y14103D01*
X290Y14029D01*
X254Y13943D01*
X242Y13850D01*
X254Y13757D01*
X290Y13671D01*
X347Y13597D01*
X421Y13540D01*
X507Y13504D01*
X600Y13492D01*
X693Y13504D01*
X779Y13540D01*
X853Y13597D01*
X910Y13671D01*
X946Y13757D01*
X958Y13850D01*
X946Y13943D01*
X910Y14029D01*
X853Y14103D01*
X779Y14160D01*
X693Y14196D01*
X600Y14208D01*
D02*
G37*
G36*
Y13208D02*
X507Y13196D01*
X421Y13160D01*
X347Y13103D01*
X290Y13029D01*
X254Y12943D01*
X242Y12850D01*
X254Y12757D01*
X290Y12671D01*
X347Y12597D01*
X421Y12540D01*
X507Y12504D01*
X600Y12492D01*
X693Y12504D01*
X779Y12540D01*
X853Y12597D01*
X910Y12671D01*
X946Y12757D01*
X958Y12850D01*
X946Y12943D01*
X910Y13029D01*
X853Y13103D01*
X779Y13160D01*
X693Y13196D01*
X600Y13208D01*
D02*
G37*
G36*
X1600Y12208D02*
X1507Y12196D01*
X1421Y12160D01*
X1347Y12103D01*
X1290Y12029D01*
X1254Y11943D01*
X1242Y11850D01*
X1254Y11757D01*
X1290Y11671D01*
X1347Y11597D01*
X1421Y11540D01*
X1507Y11504D01*
X1600Y11492D01*
X1693Y11504D01*
X1779Y11540D01*
X1853Y11597D01*
X1910Y11671D01*
X1946Y11757D01*
X1958Y11850D01*
X1946Y11943D01*
X1910Y12029D01*
X1853Y12103D01*
X1779Y12160D01*
X1693Y12196D01*
X1600Y12208D01*
D02*
G37*
G36*
X600D02*
X507Y12196D01*
X421Y12160D01*
X347Y12103D01*
X290Y12029D01*
X254Y11943D01*
X242Y11850D01*
X254Y11757D01*
X290Y11671D01*
X347Y11597D01*
X421Y11540D01*
X507Y11504D01*
X600Y11492D01*
X693Y11504D01*
X779Y11540D01*
X853Y11597D01*
X910Y11671D01*
X946Y11757D01*
X958Y11850D01*
X946Y11943D01*
X910Y12029D01*
X853Y12103D01*
X779Y12160D01*
X693Y12196D01*
X600Y12208D01*
D02*
G37*
G36*
X9277Y10114D02*
X9195Y10098D01*
X9125Y10051D01*
X9049Y9975D01*
X9002Y9905D01*
X8986Y9823D01*
Y9390D01*
X9002Y9308D01*
X9049Y9239D01*
X9118Y9192D01*
X9200Y9176D01*
X9282Y9192D01*
X9351Y9239D01*
X9398Y9308D01*
X9414Y9390D01*
Y9735D01*
X9428Y9749D01*
X9475Y9818D01*
X9491Y9900D01*
X9475Y9982D01*
X9428Y10051D01*
X9359Y10098D01*
X9277Y10114D01*
D02*
G37*
G36*
X3047Y8779D02*
X2977Y8765D01*
X2918Y8725D01*
X2878Y8666D01*
X2864Y8595D01*
X2878Y8525D01*
X2918Y8466D01*
X2977Y8426D01*
X2995Y8422D01*
X3002Y8417D01*
X3029Y8365D01*
X3024Y8339D01*
X3034Y8289D01*
X3062Y8246D01*
X3105Y8218D01*
X3155Y8208D01*
X3332D01*
X3389Y8170D01*
X3459Y8156D01*
X3529Y8170D01*
X3589Y8210D01*
X3629Y8269D01*
X3643Y8339D01*
X3629Y8410D01*
X3589Y8469D01*
X3529Y8509D01*
X3481Y8519D01*
Y8724D01*
X3178D01*
X3177Y8725D01*
X3118Y8765D01*
X3047Y8779D01*
D02*
G37*
G36*
X4141Y8468D02*
X4070Y8454D01*
X4011Y8415D01*
X3971Y8355D01*
X3957Y8285D01*
X3971Y8215D01*
X4011Y8155D01*
X4070Y8115D01*
X4141Y8101D01*
X4211Y8115D01*
X4220Y8122D01*
X4937D01*
X4947Y8115D01*
X5017Y8101D01*
X5088Y8115D01*
X5147Y8155D01*
X5187Y8215D01*
X5201Y8285D01*
X5187Y8355D01*
X5147Y8415D01*
X5088Y8454D01*
X5017Y8468D01*
X4947Y8454D01*
X4937Y8448D01*
X4220D01*
X4211Y8454D01*
X4141Y8468D01*
D02*
G37*
G36*
X600Y8808D02*
X507Y8796D01*
X421Y8760D01*
X347Y8703D01*
X290Y8629D01*
X254Y8543D01*
X242Y8450D01*
X254Y8357D01*
X290Y8271D01*
X347Y8197D01*
X421Y8140D01*
X507Y8104D01*
X600Y8092D01*
X693Y8104D01*
X779Y8140D01*
X853Y8197D01*
X910Y8271D01*
X946Y8357D01*
X958Y8450D01*
X946Y8543D01*
X910Y8629D01*
X853Y8703D01*
X779Y8760D01*
X693Y8796D01*
X600Y8808D01*
D02*
G37*
G36*
X2486Y8727D02*
X2289D01*
X2239Y8717D01*
X2196Y8688D01*
X2167Y8646D01*
X2157Y8595D01*
X2167Y8545D01*
X2196Y8502D01*
X2203Y8497D01*
Y8437D01*
X2196Y8432D01*
X2167Y8390D01*
X2157Y8339D01*
X2167Y8289D01*
X2196Y8246D01*
X2203Y8242D01*
Y8181D01*
X2196Y8176D01*
X2167Y8134D01*
X2157Y8084D01*
X2167Y8033D01*
X2196Y7991D01*
X2239Y7962D01*
X2289Y7952D01*
X2486D01*
X2536Y7962D01*
X2579Y7991D01*
X2607Y8033D01*
X2617Y8084D01*
X2607Y8134D01*
X2579Y8176D01*
X2571Y8181D01*
Y8242D01*
X2579Y8246D01*
X2607Y8289D01*
X2617Y8339D01*
X2607Y8390D01*
X2579Y8432D01*
X2571Y8437D01*
Y8497D01*
X2579Y8502D01*
X2607Y8545D01*
X2617Y8595D01*
X2607Y8646D01*
X2579Y8688D01*
X2536Y8717D01*
X2486Y8727D01*
D02*
G37*
G36*
X4141Y7818D02*
X4070Y7804D01*
X4011Y7765D01*
X3971Y7705D01*
X3957Y7635D01*
X3971Y7565D01*
X4011Y7505D01*
X4070Y7465D01*
X4141Y7451D01*
X4211Y7465D01*
X4220Y7472D01*
X4937D01*
X4947Y7465D01*
X5017Y7451D01*
X5088Y7465D01*
X5147Y7505D01*
X5187Y7565D01*
X5201Y7635D01*
X5187Y7705D01*
X5147Y7765D01*
X5088Y7804D01*
X5017Y7818D01*
X4947Y7804D01*
X4937Y7798D01*
X4220D01*
X4211Y7804D01*
X4141Y7818D01*
D02*
G37*
G36*
X5017Y7168D02*
X4947Y7154D01*
X4937Y7148D01*
X4220D01*
X4211Y7154D01*
X4141Y7168D01*
X4070Y7154D01*
X4011Y7115D01*
X3971Y7055D01*
X3957Y6985D01*
X3971Y6915D01*
X4011Y6855D01*
X4070Y6815D01*
X4141Y6801D01*
X4211Y6815D01*
X4220Y6822D01*
X4937D01*
X4947Y6815D01*
X5017Y6801D01*
X5088Y6815D01*
X5147Y6855D01*
X5187Y6915D01*
X5201Y6985D01*
X5187Y7055D01*
X5147Y7115D01*
X5088Y7154D01*
X5017Y7168D01*
D02*
G37*
G36*
X1600Y7808D02*
X1507Y7796D01*
X1421Y7760D01*
X1347Y7703D01*
X1290Y7629D01*
X1254Y7543D01*
X1242Y7450D01*
X1254Y7357D01*
X1290Y7271D01*
X1347Y7197D01*
X1421Y7140D01*
X1507Y7104D01*
X1600Y7092D01*
X1693Y7104D01*
X1779Y7140D01*
X1853Y7197D01*
X1910Y7271D01*
X1946Y7357D01*
X1958Y7450D01*
X1946Y7543D01*
X1910Y7629D01*
X1853Y7703D01*
X1779Y7760D01*
X1693Y7796D01*
X1600Y7808D01*
D02*
G37*
G36*
X600D02*
X507Y7796D01*
X421Y7760D01*
X347Y7703D01*
X290Y7629D01*
X254Y7543D01*
X242Y7450D01*
X254Y7357D01*
X290Y7271D01*
X347Y7197D01*
X421Y7140D01*
X507Y7104D01*
X600Y7092D01*
X693Y7104D01*
X779Y7140D01*
X853Y7197D01*
X910Y7271D01*
X946Y7357D01*
X958Y7450D01*
X946Y7543D01*
X910Y7629D01*
X853Y7703D01*
X779Y7760D01*
X693Y7796D01*
X600Y7808D01*
D02*
G37*
G36*
X5017Y6518D02*
X4947Y6504D01*
X4937Y6498D01*
X4220D01*
X4211Y6504D01*
X4141Y6518D01*
X4070Y6504D01*
X4011Y6465D01*
X3971Y6405D01*
X3957Y6335D01*
X3971Y6265D01*
X4011Y6205D01*
X4070Y6165D01*
X4141Y6151D01*
X4211Y6165D01*
X4220Y6172D01*
X4937D01*
X4947Y6165D01*
X5017Y6151D01*
X5088Y6165D01*
X5147Y6205D01*
X5187Y6265D01*
X5201Y6335D01*
X5187Y6405D01*
X5147Y6465D01*
X5088Y6504D01*
X5017Y6518D01*
D02*
G37*
G36*
X12300Y7384D02*
X12230Y7370D01*
X12171Y7330D01*
X12131Y7270D01*
X12117Y7200D01*
X12131Y7130D01*
X12171Y7070D01*
X12188Y7058D01*
Y6792D01*
X12171Y6780D01*
X12131Y6720D01*
X12117Y6650D01*
X12131Y6580D01*
X12171Y6520D01*
X12230Y6480D01*
X12300Y6466D01*
X12371Y6480D01*
X12430Y6520D01*
X12470Y6580D01*
X12484Y6650D01*
X12470Y6720D01*
X12430Y6780D01*
X12413Y6792D01*
Y7058D01*
X12430Y7070D01*
X12470Y7130D01*
X12484Y7200D01*
X12470Y7270D01*
X12430Y7330D01*
X12371Y7370D01*
X12300Y7384D01*
D02*
G37*
G36*
X1600Y6808D02*
X1507Y6796D01*
X1421Y6760D01*
X1347Y6703D01*
X1290Y6629D01*
X1254Y6543D01*
X1242Y6450D01*
X1254Y6357D01*
X1290Y6271D01*
X1347Y6197D01*
X1421Y6140D01*
X1507Y6104D01*
X1600Y6092D01*
X1693Y6104D01*
X1779Y6140D01*
X1853Y6197D01*
X1910Y6271D01*
X1946Y6357D01*
X1958Y6450D01*
X1946Y6543D01*
X1910Y6629D01*
X1853Y6703D01*
X1779Y6760D01*
X1693Y6796D01*
X1600Y6808D01*
D02*
G37*
G36*
X600D02*
X507Y6796D01*
X421Y6760D01*
X347Y6703D01*
X290Y6629D01*
X254Y6543D01*
X242Y6450D01*
X254Y6357D01*
X290Y6271D01*
X347Y6197D01*
X421Y6140D01*
X507Y6104D01*
X600Y6092D01*
X693Y6104D01*
X779Y6140D01*
X853Y6197D01*
X910Y6271D01*
X946Y6357D01*
X958Y6450D01*
X946Y6543D01*
X910Y6629D01*
X853Y6703D01*
X779Y6760D01*
X693Y6796D01*
X600Y6808D01*
D02*
G37*
G36*
X3050Y6984D02*
X2980Y6970D01*
X2920Y6930D01*
X2880Y6870D01*
X2866Y6800D01*
X2880Y6730D01*
X2920Y6670D01*
X2969Y6638D01*
X2971Y6635D01*
X3026Y6580D01*
Y6434D01*
X2974Y6423D01*
X2914Y6383D01*
X2875Y6324D01*
X2861Y6254D01*
X2875Y6183D01*
X2914Y6124D01*
X2974Y6084D01*
X3044Y6070D01*
X3114Y6084D01*
X3171Y6122D01*
X3352D01*
X3402Y6132D01*
X3445Y6161D01*
X3473Y6203D01*
X3483Y6254D01*
X3473Y6304D01*
X3455Y6331D01*
X3476Y6379D01*
X3478Y6381D01*
X3481D01*
Y6638D01*
X3284D01*
X3209Y6714D01*
X3220Y6730D01*
X3234Y6800D01*
X3220Y6870D01*
X3180Y6930D01*
X3120Y6970D01*
X3050Y6984D01*
D02*
G37*
G36*
X2486Y6641D02*
X2289D01*
X2239Y6631D01*
X2196Y6602D01*
X2167Y6560D01*
X2157Y6510D01*
X2167Y6459D01*
X2196Y6417D01*
X2203Y6412D01*
Y6352D01*
X2196Y6347D01*
X2167Y6304D01*
X2157Y6254D01*
X2163Y6225D01*
X2135Y6168D01*
X2130Y6167D01*
X2070Y6128D01*
X2030Y6068D01*
X2016Y5998D01*
X2030Y5928D01*
X2070Y5868D01*
X2130Y5828D01*
X2200Y5814D01*
X2270Y5828D01*
X2327Y5866D01*
X2486D01*
X2536Y5876D01*
X2579Y5905D01*
X2607Y5947D01*
X2617Y5998D01*
X2612Y6023D01*
X2641Y6073D01*
X2648Y6077D01*
X2682Y6084D01*
X2742Y6124D01*
X2781Y6183D01*
X2795Y6254D01*
X2781Y6324D01*
X2742Y6383D01*
X2682Y6423D01*
X2648Y6430D01*
X2641Y6435D01*
X2612Y6484D01*
X2617Y6510D01*
X2607Y6560D01*
X2579Y6602D01*
X2536Y6631D01*
X2486Y6641D01*
D02*
G37*
G36*
X12100Y5995D02*
X12030Y5981D01*
X11970Y5941D01*
X11930Y5881D01*
X11916Y5811D01*
X11930Y5741D01*
X11970Y5681D01*
X12030Y5641D01*
X12100Y5627D01*
X12170Y5641D01*
X12230Y5681D01*
X12242Y5699D01*
X12772D01*
X12776Y5680D01*
X12816Y5620D01*
X12875Y5580D01*
X12945Y5566D01*
X13016Y5580D01*
X13075Y5620D01*
X13115Y5680D01*
X13129Y5750D01*
X13115Y5820D01*
X13075Y5880D01*
X13016Y5920D01*
X12945Y5934D01*
X12889Y5922D01*
X12884Y5923D01*
X12884Y5923D01*
X12242D01*
X12230Y5941D01*
X12170Y5981D01*
X12100Y5995D01*
D02*
G37*
G36*
X4141Y5868D02*
X4070Y5854D01*
X4011Y5815D01*
X3971Y5755D01*
X3957Y5685D01*
X3971Y5615D01*
X4011Y5555D01*
X4070Y5515D01*
X4141Y5501D01*
X4211Y5515D01*
X4220Y5522D01*
X4937D01*
X4947Y5515D01*
X5017Y5501D01*
X5088Y5515D01*
X5147Y5555D01*
X5187Y5615D01*
X5201Y5685D01*
X5187Y5755D01*
X5147Y5815D01*
X5088Y5854D01*
X5017Y5868D01*
X4947Y5854D01*
X4937Y5848D01*
X4220D01*
X4211Y5854D01*
X4141Y5868D01*
D02*
G37*
G36*
X1600Y5808D02*
X1507Y5796D01*
X1421Y5760D01*
X1347Y5703D01*
X1290Y5629D01*
X1254Y5543D01*
X1242Y5450D01*
X1254Y5357D01*
X1290Y5271D01*
X1347Y5197D01*
X1421Y5140D01*
X1507Y5104D01*
X1600Y5092D01*
X1693Y5104D01*
X1779Y5140D01*
X1853Y5197D01*
X1910Y5271D01*
X1946Y5357D01*
X1958Y5450D01*
X1946Y5543D01*
X1910Y5629D01*
X1853Y5703D01*
X1779Y5760D01*
X1693Y5796D01*
X1600Y5808D01*
D02*
G37*
G36*
X600D02*
X507Y5796D01*
X421Y5760D01*
X347Y5703D01*
X290Y5629D01*
X254Y5543D01*
X242Y5450D01*
X254Y5357D01*
X290Y5271D01*
X347Y5197D01*
X421Y5140D01*
X507Y5104D01*
X600Y5092D01*
X693Y5104D01*
X779Y5140D01*
X853Y5197D01*
X910Y5271D01*
X946Y5357D01*
X958Y5450D01*
X946Y5543D01*
X910Y5629D01*
X853Y5703D01*
X779Y5760D01*
X693Y5796D01*
X600Y5808D01*
D02*
G37*
G36*
X4141Y5218D02*
X4070Y5204D01*
X4011Y5165D01*
X3971Y5105D01*
X3957Y5035D01*
X3971Y4965D01*
X4011Y4905D01*
X4070Y4865D01*
X4141Y4851D01*
X4211Y4865D01*
X4220Y4872D01*
X4937D01*
X4947Y4865D01*
X5017Y4851D01*
X5088Y4865D01*
X5147Y4905D01*
X5187Y4965D01*
X5201Y5035D01*
X5187Y5105D01*
X5147Y5165D01*
X5088Y5204D01*
X5017Y5218D01*
X4947Y5204D01*
X4937Y5198D01*
X4220D01*
X4211Y5204D01*
X4141Y5218D01*
D02*
G37*
G36*
X5017Y4568D02*
X4947Y4554D01*
X4937Y4548D01*
X4220D01*
X4211Y4554D01*
X4141Y4568D01*
X4070Y4554D01*
X4011Y4515D01*
X3971Y4455D01*
X3957Y4385D01*
X3971Y4315D01*
X4011Y4255D01*
X4070Y4215D01*
X4141Y4201D01*
X4211Y4215D01*
X4220Y4222D01*
X4937D01*
X4947Y4215D01*
X5017Y4201D01*
X5088Y4215D01*
X5147Y4255D01*
X5187Y4315D01*
X5201Y4385D01*
X5187Y4455D01*
X5147Y4515D01*
X5088Y4554D01*
X5017Y4568D01*
D02*
G37*
G36*
X3044Y4784D02*
X2974Y4770D01*
X2914Y4730D01*
X2875Y4670D01*
X2861Y4600D01*
X2875Y4530D01*
X2914Y4470D01*
X2974Y4430D01*
X2992Y4427D01*
X2997Y4424D01*
X3027Y4369D01*
X3024Y4350D01*
X3034Y4300D01*
X3062Y4257D01*
X3105Y4229D01*
X3155Y4219D01*
X3329D01*
X3386Y4180D01*
X3456Y4166D01*
X3526Y4180D01*
X3586Y4220D01*
X3625Y4280D01*
X3639Y4350D01*
X3625Y4420D01*
X3586Y4480D01*
X3526Y4520D01*
X3481Y4529D01*
Y4735D01*
X3166D01*
X3114Y4770D01*
X3044Y4784D01*
D02*
G37*
G36*
X600Y4808D02*
X507Y4796D01*
X421Y4760D01*
X347Y4703D01*
X290Y4629D01*
X254Y4543D01*
X242Y4450D01*
X254Y4357D01*
X290Y4271D01*
X347Y4197D01*
X421Y4140D01*
X507Y4104D01*
X600Y4092D01*
X693Y4104D01*
X779Y4140D01*
X853Y4197D01*
X910Y4271D01*
X946Y4357D01*
X958Y4450D01*
X946Y4543D01*
X910Y4629D01*
X853Y4703D01*
X779Y4760D01*
X693Y4796D01*
X600Y4808D01*
D02*
G37*
G36*
X1955Y4805D02*
X1245D01*
Y4095D01*
X1912D01*
X1955Y4095D01*
X1970Y4051D01*
X1975Y4030D01*
X2014Y3970D01*
X2074Y3930D01*
X2144Y3916D01*
X2214Y3930D01*
X2269Y3967D01*
X2289Y3963D01*
X2486D01*
X2536Y3973D01*
X2579Y4001D01*
X2607Y4044D01*
X2617Y4094D01*
X2612Y4118D01*
X2641Y4170D01*
X2647Y4175D01*
X2676Y4180D01*
X2736Y4220D01*
X2775Y4280D01*
X2789Y4350D01*
X2775Y4420D01*
X2736Y4480D01*
X2676Y4520D01*
X2647Y4525D01*
X2641Y4530D01*
X2612Y4582D01*
X2617Y4606D01*
X2607Y4656D01*
X2579Y4699D01*
X2536Y4727D01*
X2486Y4737D01*
X2289D01*
X2239Y4727D01*
X2196Y4699D01*
X2167Y4656D01*
X2157Y4606D01*
X2167Y4556D01*
X2196Y4513D01*
X2203Y4508D01*
Y4448D01*
X2196Y4443D01*
X2167Y4400D01*
X2157Y4350D01*
X2161Y4331D01*
X2158Y4322D01*
X2125Y4280D01*
X2124Y4280D01*
X2074Y4270D01*
X2014Y4230D01*
X2005Y4216D01*
X1955Y4231D01*
Y4805D01*
D02*
G37*
G36*
X5017Y3918D02*
X4947Y3904D01*
X4937Y3898D01*
X4220D01*
X4211Y3904D01*
X4141Y3918D01*
X4070Y3904D01*
X4011Y3865D01*
X3971Y3805D01*
X3957Y3735D01*
X3971Y3665D01*
X4011Y3605D01*
X4070Y3565D01*
X4141Y3551D01*
X4211Y3565D01*
X4220Y3572D01*
X4937D01*
X4947Y3565D01*
X5017Y3551D01*
X5088Y3565D01*
X5147Y3605D01*
X5187Y3665D01*
X5201Y3735D01*
X5187Y3805D01*
X5147Y3865D01*
X5088Y3904D01*
X5017Y3918D01*
D02*
G37*
%LPD*%
D12*
X18850Y13750D02*
Y13853D01*
X17450Y15253D02*
X18850Y13853D01*
X13472Y12000D02*
Y12400D01*
X13150Y12250D02*
Y12500D01*
X14050Y13400D01*
Y13950D01*
X13900Y14100D02*
X14050Y13950D01*
X12550Y14100D02*
X13900D01*
X12450Y14200D02*
X12550Y14100D01*
X12450Y14200D02*
Y14600D01*
X14250Y13178D02*
Y14350D01*
X14000Y14600D02*
X14250Y14350D01*
X13450Y14600D02*
X14000D01*
X20093Y4850D02*
Y5950D01*
X19839Y6205D02*
X20093Y5950D01*
X16630Y6205D02*
X19839D01*
X16350Y6485D02*
X16630Y6205D01*
X16350Y6485D02*
Y19150D01*
X16074Y6474D02*
Y16850D01*
X15805Y6205D02*
X16074Y6474D01*
X15144Y6205D02*
X15805D01*
X15650Y18250D02*
Y19350D01*
X13450Y16050D02*
X15650Y18250D01*
X13450Y15600D02*
Y16050D01*
X15650Y19350D02*
X16750Y20450D01*
X16600Y20650D02*
X18600D01*
X15400Y19450D02*
X16600Y20650D01*
X15400Y18350D02*
Y19450D01*
X18600Y20650D02*
X20950Y23000D01*
X21050D01*
X22050Y22638D02*
Y23000D01*
X21912Y22500D02*
X22050Y22638D01*
X20800Y22500D02*
X21912D01*
X18750Y20450D02*
X20800Y22500D01*
X9500Y17800D02*
X10750D01*
X8200Y19100D02*
X9500Y17800D01*
X8200Y19100D02*
Y20506D01*
X9368Y17575D02*
X10637D01*
X8035Y18908D02*
X9368Y17575D01*
X8035Y18908D02*
Y20065D01*
X7800Y20300D02*
X8035Y20065D01*
X7150Y20300D02*
X7800D01*
X7906Y20800D02*
X8200Y20506D01*
X7150Y20800D02*
X7906D01*
X11950Y14100D02*
Y16600D01*
X10750Y17800D02*
X11950Y16600D01*
X11742Y15233D02*
Y16470D01*
X10637Y17575D02*
X11742Y16470D01*
Y15233D02*
X11750Y15225D01*
X11955Y13195D02*
X13050D01*
X13450Y13595D01*
Y13600D01*
X11750Y13400D02*
X11955Y13195D01*
X11750Y13400D02*
Y15225D01*
X11950Y14100D02*
X12450Y13600D01*
X18437Y13700D02*
X18450Y13713D01*
X18437Y13700D02*
X18445D01*
X17134Y15030D02*
X18450Y13713D01*
X12300Y6650D02*
Y7200D01*
X12100Y5811D02*
X12884D01*
X12945Y5750D01*
X3050Y6714D02*
X3250Y6514D01*
X3050Y6714D02*
Y6800D01*
X3044Y6254D02*
X3250D01*
X2387Y5998D02*
X2406D01*
X2200D02*
X2387D01*
X3253Y4350D02*
X3456D01*
X3250D02*
X3253D01*
X3044Y4600D02*
X3250D01*
X2400Y4350D02*
X2606D01*
X2144Y4100D02*
X2350D01*
X2406Y6254D02*
X2612D01*
X3047Y8595D02*
X3253D01*
Y8339D02*
X3459D01*
X16750Y20450D02*
X18750D01*
X12450Y15600D02*
X12650D01*
X15400Y18350D01*
X13472Y12400D02*
X14250Y13178D01*
D17*
X2767Y15070D02*
X2979D01*
X2450Y15388D02*
X2767Y15070D01*
X1062Y15388D02*
X2450D01*
X600Y15850D02*
X1062Y15388D01*
X4141Y7635D02*
X5017D01*
X4141Y6985D02*
X5017D01*
X4141Y3735D02*
X5017D01*
X4141Y5035D02*
X5017D01*
X4141Y4385D02*
X5017D01*
X4141Y5685D02*
X5017D01*
X4141Y6335D02*
X5017D01*
X5017Y8285D02*
X5017Y8285D01*
X4141Y8285D02*
X5017D01*
X2119Y17600D02*
X2900Y16819D01*
X600Y17600D02*
X2119D01*
X0Y23622D02*
X25591D01*
Y0D02*
Y23622D01*
X0Y0D02*
X25591D01*
X0D02*
Y23622D01*
D22*
X24171Y15478D02*
X24611D01*
X24171Y15298D02*
X24611D01*
X24171D02*
Y15478D01*
X24611Y15298D02*
Y15478D01*
X24171Y17702D02*
X24611D01*
X24171Y17522D02*
X24611D01*
X24171D02*
Y17702D01*
X24611Y17522D02*
Y17702D01*
D41*
X600Y20600D02*
D03*
Y19600D02*
D03*
Y18600D02*
D03*
X22050Y23000D02*
D03*
X21050D02*
D03*
X20050D02*
D03*
X19050D02*
D03*
X18050D02*
D03*
X600Y8450D02*
D03*
X1600D02*
D03*
X600Y7450D02*
D03*
X1600D02*
D03*
X600Y6450D02*
D03*
X1600D02*
D03*
X600Y5450D02*
D03*
X1600D02*
D03*
X600Y4450D02*
D03*
X1600Y11850D02*
D03*
X600D02*
D03*
X1600Y12850D02*
D03*
X600D02*
D03*
X1600Y13850D02*
D03*
X600D02*
D03*
X1600Y14850D02*
D03*
X600D02*
D03*
X1600Y15850D02*
D03*
X24417Y19700D02*
D03*
X12450Y13600D02*
D03*
X13450Y14600D02*
D03*
X12450D02*
D03*
X13450Y15600D02*
D03*
X12450D02*
D03*
D47*
X3253Y4606D02*
D03*
Y6510D02*
D03*
Y8595D02*
D03*
D48*
Y4350D02*
D03*
Y4094D02*
D03*
X2387Y4606D02*
D03*
Y4350D02*
D03*
Y4094D02*
D03*
X3253Y6254D02*
D03*
Y5998D02*
D03*
X2387Y6510D02*
D03*
Y6254D02*
D03*
Y5998D02*
D03*
X3253Y8339D02*
D03*
Y8084D02*
D03*
X2387Y8595D02*
D03*
Y8339D02*
D03*
Y8084D02*
D03*
D86*
X10750Y10700D02*
X11150Y11100D01*
X8250Y10700D02*
X10750D01*
X9750Y19200D02*
Y20194D01*
X9200Y18650D02*
X9750Y19200D01*
X7328Y16778D02*
X8350Y17800D01*
X8056Y18094D02*
X8350Y17800D01*
X7328Y15253D02*
Y16778D01*
X20950Y22150D02*
X23600D01*
X24417Y21333D01*
X14700Y13650D02*
Y16250D01*
Y13650D02*
X15050Y13300D01*
X14700Y16250D02*
X15362Y16912D01*
X6350Y15850D02*
Y16001D01*
Y15579D02*
Y15850D01*
X15050Y13050D02*
Y13300D01*
X13500Y11500D02*
X15050Y13050D01*
X12800Y11500D02*
X13500D01*
X9983Y13672D02*
X10727D01*
X9200Y9823D02*
X9277Y9900D01*
X9200Y9390D02*
Y9823D01*
X11200Y12550D02*
Y15350D01*
X10700Y15850D02*
X11200Y15350D01*
X6500Y12450D02*
X6950Y12000D01*
X6500Y12450D02*
Y13804D01*
X6757Y14060D01*
X9550Y13239D02*
X9983Y13672D01*
X9550Y12400D02*
Y13239D01*
X6350Y15579D02*
X6757Y15172D01*
Y14060D02*
Y15172D01*
X6950Y12000D02*
X11650D01*
X15362Y16912D02*
Y17050D01*
X24417Y20700D02*
Y21333D01*
X17656Y21606D02*
X19050Y23000D01*
X9750Y20194D02*
X11794D01*
X13206Y21606D01*
X17656D01*
X12300Y12000D02*
X12800Y11500D01*
X11650Y12000D02*
X12300D01*
X6350Y16001D02*
Y16500D01*
X6800Y16950D01*
Y17650D01*
X4676Y18094D02*
X8056D01*
X3250Y16669D02*
X4676Y18094D01*
X2979Y15070D02*
X3210Y14839D01*
X4061D01*
X4850Y14050D01*
Y12090D02*
Y14050D01*
X4460Y11700D02*
X4850Y12090D01*
X3250Y15342D02*
Y16669D01*
X2979Y15070D02*
X3250Y15342D01*
D87*
X21512Y21700D02*
X21750D01*
X20007Y20194D02*
X21512Y21700D01*
D88*
X600Y17600D02*
D03*
X1600Y4450D02*
D03*
X600Y15850D02*
D03*
X24417Y20700D02*
D03*
X13450Y13600D02*
D03*
D89*
X23050Y23000D02*
D03*
D90*
X8728Y21650D02*
D03*
Y22437D02*
D03*
Y23225D02*
D03*
X10500D02*
D03*
Y22437D02*
D03*
Y21650D02*
D03*
D91*
X23550Y17287D02*
D03*
Y15713D02*
D03*
D92*
X24397Y15388D02*
D03*
Y17612D02*
D03*
D93*
X24606Y22638D02*
D03*
X984D02*
D03*
X24606Y984D02*
D03*
X984D02*
D03*
D94*
X21711Y20194D02*
D03*
Y21200D02*
D03*
X13383Y10977D02*
D03*
Y10250D02*
D03*
X13900D02*
D03*
Y10977D02*
D03*
X11653Y8935D02*
D03*
Y8208D02*
D03*
X12170D02*
D03*
Y8935D02*
D03*
X5983Y4499D02*
D03*
Y3773D02*
D03*
X6500D02*
D03*
Y4499D02*
D03*
X5983Y9066D02*
D03*
Y8339D02*
D03*
X6500D02*
D03*
Y9066D02*
D03*
X8924Y7400D02*
D03*
Y6673D02*
D03*
Y5947D02*
D03*
Y5220D02*
D03*
X8407D02*
D03*
Y5947D02*
D03*
Y6673D02*
D03*
Y7400D02*
D03*
X7760D02*
D03*
Y6673D02*
D03*
Y5947D02*
D03*
Y5220D02*
D03*
X7243D02*
D03*
Y5947D02*
D03*
Y6673D02*
D03*
Y7400D02*
D03*
X2667Y10038D02*
D03*
X1941D02*
D03*
Y9521D02*
D03*
X2667D02*
D03*
X11674Y3521D02*
D03*
Y4247D02*
D03*
X11157D02*
D03*
Y3521D02*
D03*
X13038Y20388D02*
D03*
X12521D02*
D03*
X12795Y17100D02*
D03*
Y17827D02*
D03*
X12278D02*
D03*
Y17100D02*
D03*
X9550Y5220D02*
D03*
Y5947D02*
D03*
Y6673D02*
D03*
Y7400D02*
D03*
X10067D02*
D03*
Y6673D02*
D03*
Y5947D02*
D03*
Y5220D02*
D03*
X20306Y7431D02*
D03*
Y8157D02*
D03*
Y8884D02*
D03*
Y9610D02*
D03*
X20874D02*
D03*
Y8884D02*
D03*
Y8157D02*
D03*
Y7431D02*
D03*
X19170Y7447D02*
D03*
Y8174D02*
D03*
Y8900D02*
D03*
Y9627D02*
D03*
X19738D02*
D03*
Y8900D02*
D03*
Y8174D02*
D03*
Y7447D02*
D03*
X18034D02*
D03*
Y8174D02*
D03*
Y8900D02*
D03*
Y9627D02*
D03*
X18602D02*
D03*
Y8900D02*
D03*
Y8174D02*
D03*
Y7447D02*
D03*
X16899Y7431D02*
D03*
Y8157D02*
D03*
Y8884D02*
D03*
Y9610D02*
D03*
X17466D02*
D03*
Y8884D02*
D03*
Y8157D02*
D03*
Y7431D02*
D03*
X5402Y20717D02*
D03*
Y21443D02*
D03*
Y22170D02*
D03*
Y22896D02*
D03*
X5919D02*
D03*
Y22170D02*
D03*
Y21443D02*
D03*
Y20717D02*
D03*
X4352D02*
D03*
Y21443D02*
D03*
Y22170D02*
D03*
Y22896D02*
D03*
X4869D02*
D03*
Y22170D02*
D03*
Y21443D02*
D03*
Y20717D02*
D03*
X23720Y14023D02*
D03*
X24447D02*
D03*
Y13506D02*
D03*
X23720D02*
D03*
X23452Y18634D02*
D03*
X22726D02*
D03*
X21999D02*
D03*
X21273D02*
D03*
Y19151D02*
D03*
X21999D02*
D03*
X22726D02*
D03*
X23452D02*
D03*
X14753Y1750D02*
D03*
X14027D02*
D03*
X13300D02*
D03*
Y2267D02*
D03*
X14027D02*
D03*
X14753D02*
D03*
X3408Y2162D02*
D03*
X4135D02*
D03*
X4861D02*
D03*
X5588D02*
D03*
Y2679D02*
D03*
X4861D02*
D03*
X4135D02*
D03*
X3408D02*
D03*
X12150Y10550D02*
D03*
X11150Y11100D02*
D03*
X13472Y12000D02*
D03*
X13150Y12250D02*
D03*
X8350Y17800D02*
D03*
X20950Y22150D02*
D03*
X6350Y15850D02*
D03*
X18445Y13700D02*
D03*
X18850Y13750D02*
D03*
X18332Y13250D02*
D03*
X23600Y9661D02*
D03*
X12300Y7200D02*
D03*
Y6650D02*
D03*
X12945Y5750D02*
D03*
X12100Y5811D02*
D03*
X17350Y3750D02*
D03*
X8250Y10700D02*
D03*
X9277Y9900D02*
D03*
X9200Y9390D02*
D03*
X12150Y9750D02*
D03*
X11200Y12550D02*
D03*
X5750Y15115D02*
D03*
X4141Y7635D02*
D03*
X4141Y6985D02*
D03*
X3050Y6800D02*
D03*
X3044Y6254D02*
D03*
X3456Y4350D02*
D03*
X3044Y4600D02*
D03*
X2606Y4350D02*
D03*
X2144Y4100D02*
D03*
X2612Y6254D02*
D03*
X3047Y8595D02*
D03*
X3459Y8339D02*
D03*
X2200Y5998D02*
D03*
X5017Y8285D02*
D03*
Y7635D02*
D03*
Y6985D02*
D03*
Y6335D02*
D03*
Y5685D02*
D03*
Y5035D02*
D03*
Y4385D02*
D03*
Y3735D02*
D03*
X4141Y8285D02*
D03*
X4141Y6335D02*
D03*
Y5685D02*
D03*
Y5035D02*
D03*
Y4385D02*
D03*
Y3735D02*
D03*
X9965Y13092D02*
D03*
X10150Y14050D02*
D03*
X9550Y12400D02*
D03*
X10150Y15819D02*
D03*
X15362Y17050D02*
D03*
X16074Y16850D02*
D03*
X23394Y21115D02*
D03*
X23435Y20694D02*
D03*
X6800Y17650D02*
D03*
X2900Y16819D02*
D03*
X4460Y11700D02*
D03*
X2979Y15070D02*
D03*
X9200Y18650D02*
D03*
X9750Y20194D02*
D03*
X7328Y15253D02*
D03*
X5750Y15715D02*
D03*
X8035Y15444D02*
D03*
X21750Y21700D02*
D03*
X20007Y20194D02*
D03*
X15050Y13300D02*
D03*
X17731Y14075D02*
D03*
X17134Y15030D02*
D03*
X17450Y15253D02*
D03*
X16350Y19150D02*
D03*
X20093Y4850D02*
D03*
X15144Y6205D02*
D03*
X15275Y13900D02*
D03*
X9850Y8150D02*
D03*
X11750Y6650D02*
D03*
X11500Y5924D02*
D03*
X11547Y4886D02*
D03*
X10400Y3650D02*
D03*
X5402Y12800D02*
D03*
X6950Y2157D02*
D03*
X6306Y2147D02*
D03*
X17643Y16819D02*
D03*
Y16256D02*
D03*
X18900Y15622D02*
D03*
X19440Y14075D02*
D03*
X13890Y9836D02*
D03*
Y8000D02*
D03*
X13375Y6028D02*
D03*
Y4528D02*
D03*
X13160Y2950D02*
D03*
X15790D02*
D03*
X15410Y1720D02*
D03*
X21960Y2944D02*
D03*
X21460D02*
D03*
X18240Y3268D02*
D03*
X20857D02*
D03*
X19090Y1720D02*
D03*
X19868D02*
D03*
X21960D02*
D03*
X21460D02*
D03*
X25081Y2128D02*
D03*
X24140Y5233D02*
D03*
X23950Y7457D02*
D03*
X24550Y7593D02*
D03*
X23760Y8635D02*
D03*
X23950Y11454D02*
D03*
X23100Y13950D02*
D03*
X24450Y12774D02*
D03*
Y12174D02*
D03*
X20283Y13289D02*
D03*
X20031Y14435D02*
D03*
X20048Y13756D02*
D03*
X22850Y17012D02*
D03*
X22877Y21115D02*
D03*
X18465Y21056D02*
D03*
Y21606D02*
D03*
X13681Y20389D02*
D03*
X9023Y20985D02*
D03*
X9023Y20385D02*
D03*
X3085Y23294D02*
D03*
X7243Y19306D02*
D03*
X3085Y19294D02*
D03*
X3496Y13048D02*
D03*
X2880D02*
D03*
X2794Y15626D02*
D03*
X3900Y15415D02*
D03*
X10700Y15850D02*
D03*
X10727Y13672D02*
D03*
X10150Y15070D02*
D03*
X7334Y13049D02*
D03*
Y13649D02*
D03*
X7664Y13680D02*
D03*
X11650Y12000D02*
D03*
X7150Y20800D02*
D03*
Y20300D02*
D03*
D95*
X6350Y16001D02*
D03*
Y14839D02*
D03*
X10700Y16031D02*
D03*
Y14869D02*
D03*
X10715Y12692D02*
D03*
Y13854D02*
D03*
D96*
X100Y10450D02*
X4650D01*
X5750Y11550D01*
X11800D01*
X12550Y10800D01*
Y10450D02*
Y10800D01*
D97*
Y7807D02*
Y10450D01*
X12546Y4976D02*
X12550Y200D01*
M02*
