G04*
G04 #@! TF.GenerationSoftware,Altium Limited,Altium Designer,18.1.9 (240)*
G04*
G04 Layer_Physical_Order=2*
G04 Layer_Color=16711680*
%FSLAX24Y24*%
%MOIN*%
G70*
G01*
G75*
%ADD14C,0.0100*%
%ADD17C,0.0200*%
%ADD18C,0.0060*%
%ADD20C,0.0050*%
%ADD40C,0.0591*%
%ADD81C,0.0300*%
%ADD82R,0.0591X0.0591*%
%ADD83R,0.0591X0.0591*%
%ADD84R,0.0591X0.0315*%
%ADD85C,0.0197*%
%ADD86C,0.0472*%
%ADD87C,0.1378*%
%ADD88C,0.0220*%
G36*
X39250Y150D02*
X39254Y146D01*
X39235Y100D01*
X100D01*
Y11300D01*
Y31400D01*
X39250D01*
Y150D01*
D02*
G37*
%LPC*%
G36*
X29692Y31070D02*
X29615Y31060D01*
X29543Y31030D01*
X29481Y30983D01*
X29433Y30921D01*
X29403Y30849D01*
X29393Y30772D01*
X29403Y30694D01*
X29433Y30622D01*
X29481Y30560D01*
X29543Y30513D01*
X29615Y30483D01*
X29692Y30473D01*
X29769Y30483D01*
X29841Y30513D01*
X29903Y30560D01*
X29951Y30622D01*
X29981Y30694D01*
X29991Y30772D01*
X29981Y30849D01*
X29951Y30921D01*
X29903Y30983D01*
X29841Y31030D01*
X29769Y31060D01*
X29692Y31070D01*
D02*
G37*
G36*
X28905D02*
X28827Y31060D01*
X28755Y31030D01*
X28693Y30983D01*
X28646Y30921D01*
X28616Y30849D01*
X28606Y30772D01*
X28616Y30694D01*
X28646Y30622D01*
X28693Y30560D01*
X28755Y30513D01*
X28827Y30483D01*
X28905Y30473D01*
X28982Y30483D01*
X29054Y30513D01*
X29116Y30560D01*
X29163Y30622D01*
X29193Y30694D01*
X29203Y30772D01*
X29193Y30849D01*
X29163Y30921D01*
X29116Y30983D01*
X29054Y31030D01*
X28982Y31060D01*
X28905Y31070D01*
D02*
G37*
G36*
X28117D02*
X28040Y31060D01*
X27968Y31030D01*
X27906Y30983D01*
X27858Y30921D01*
X27829Y30849D01*
X27818Y30772D01*
X27829Y30694D01*
X27858Y30622D01*
X27906Y30560D01*
X27968Y30513D01*
X28040Y30483D01*
X28117Y30473D01*
X28195Y30483D01*
X28267Y30513D01*
X28329Y30560D01*
X28376Y30622D01*
X28406Y30694D01*
X28416Y30772D01*
X28406Y30849D01*
X28376Y30921D01*
X28329Y30983D01*
X28267Y31030D01*
X28195Y31060D01*
X28117Y31070D01*
D02*
G37*
G36*
X33505Y30674D02*
X32795D01*
Y29964D01*
X33505D01*
Y30674D01*
D02*
G37*
G36*
X29692Y29299D02*
X29615Y29289D01*
X29543Y29259D01*
X29481Y29211D01*
X29433Y29149D01*
X29403Y29077D01*
X29393Y29000D01*
X29403Y28923D01*
X29433Y28851D01*
X29481Y28789D01*
X29543Y28741D01*
X29615Y28711D01*
X29692Y28701D01*
X29769Y28711D01*
X29841Y28741D01*
X29903Y28789D01*
X29951Y28851D01*
X29981Y28923D01*
X29991Y29000D01*
X29981Y29077D01*
X29951Y29149D01*
X29903Y29211D01*
X29841Y29259D01*
X29769Y29289D01*
X29692Y29299D01*
D02*
G37*
G36*
X28905D02*
X28827Y29289D01*
X28755Y29259D01*
X28693Y29211D01*
X28646Y29149D01*
X28616Y29077D01*
X28606Y29000D01*
X28616Y28923D01*
X28646Y28851D01*
X28693Y28789D01*
X28755Y28741D01*
X28827Y28711D01*
X28905Y28701D01*
X28982Y28711D01*
X29054Y28741D01*
X29116Y28789D01*
X29163Y28851D01*
X29193Y28923D01*
X29203Y29000D01*
X29193Y29077D01*
X29163Y29149D01*
X29116Y29211D01*
X29054Y29259D01*
X28982Y29289D01*
X28905Y29299D01*
D02*
G37*
G36*
X28117D02*
X28040Y29289D01*
X27968Y29259D01*
X27906Y29211D01*
X27858Y29149D01*
X27829Y29077D01*
X27818Y29000D01*
X27829Y28923D01*
X27858Y28851D01*
X27906Y28789D01*
X27968Y28741D01*
X28040Y28711D01*
X28117Y28701D01*
X28195Y28711D01*
X28267Y28741D01*
X28329Y28789D01*
X28376Y28851D01*
X28406Y28923D01*
X28416Y29000D01*
X28406Y29077D01*
X28376Y29149D01*
X28329Y29211D01*
X28267Y29259D01*
X28195Y29289D01*
X28117Y29299D01*
D02*
G37*
G36*
X38703Y27680D02*
X37993D01*
Y27245D01*
X38703D01*
Y27680D01*
D02*
G37*
G36*
X37501Y27299D02*
X37440Y27287D01*
X37387Y27252D01*
X37352Y27199D01*
X37340Y27137D01*
X37352Y27076D01*
X37387Y27023D01*
X37440Y26988D01*
X37501Y26976D01*
X37563Y26988D01*
X37616Y27023D01*
X37651Y27076D01*
X37663Y27137D01*
X37651Y27199D01*
X37616Y27252D01*
X37563Y27287D01*
X37501Y27299D01*
D02*
G37*
G36*
X1150Y27508D02*
X1057Y27496D01*
X971Y27460D01*
X897Y27403D01*
X840Y27329D01*
X804Y27243D01*
X792Y27150D01*
X804Y27057D01*
X840Y26971D01*
X897Y26897D01*
X971Y26840D01*
X1057Y26804D01*
X1150Y26792D01*
X1243Y26804D01*
X1329Y26840D01*
X1403Y26897D01*
X1460Y26971D01*
X1496Y27057D01*
X1508Y27150D01*
X1496Y27243D01*
X1460Y27329D01*
X1403Y27403D01*
X1329Y27460D01*
X1243Y27496D01*
X1150Y27508D01*
D02*
G37*
G36*
Y26508D02*
X1057Y26496D01*
X971Y26460D01*
X897Y26403D01*
X840Y26329D01*
X804Y26243D01*
X792Y26150D01*
X804Y26057D01*
X840Y25971D01*
X897Y25897D01*
X971Y25840D01*
X1057Y25804D01*
X1150Y25792D01*
X1243Y25804D01*
X1329Y25840D01*
X1403Y25897D01*
X1460Y25971D01*
X1496Y26057D01*
X1508Y26150D01*
X1496Y26243D01*
X1460Y26329D01*
X1403Y26403D01*
X1329Y26460D01*
X1243Y26496D01*
X1150Y26508D01*
D02*
G37*
G36*
X37501Y25724D02*
X37440Y25712D01*
X37387Y25677D01*
X37352Y25624D01*
X37340Y25563D01*
X37352Y25501D01*
X37387Y25448D01*
X37440Y25413D01*
X37501Y25401D01*
X37563Y25413D01*
X37616Y25448D01*
X37651Y25501D01*
X37663Y25563D01*
X37651Y25624D01*
X37616Y25677D01*
X37563Y25712D01*
X37501Y25724D01*
D02*
G37*
G36*
X38703Y25455D02*
X37993D01*
Y25020D01*
X38703D01*
Y25455D01*
D02*
G37*
G36*
X23500Y27864D02*
X21250D01*
X21168Y27848D01*
X21099Y27801D01*
X21052Y27732D01*
X21036Y27650D01*
X21052Y27568D01*
X21099Y27499D01*
X21168Y27452D01*
X21250Y27436D01*
X23411D01*
X23686Y27161D01*
Y24932D01*
X23640Y24913D01*
X23351Y25201D01*
X23282Y25248D01*
X23200Y25264D01*
X19950D01*
X19868Y25248D01*
X19799Y25201D01*
X19299Y24701D01*
X19252Y24632D01*
X19236Y24550D01*
Y21000D01*
X19252Y20918D01*
X19299Y20849D01*
X19368Y20802D01*
X19450Y20786D01*
X19532Y20802D01*
X19601Y20849D01*
X19648Y20918D01*
X19664Y21000D01*
Y24461D01*
X20039Y24836D01*
X20482D01*
X20497Y24786D01*
X20477Y24773D01*
X20440Y24716D01*
X20427Y24650D01*
X20440Y24584D01*
X20477Y24527D01*
X20488Y24520D01*
Y24196D01*
X19771Y23479D01*
X19746Y23443D01*
X19738Y23400D01*
X19738Y23400D01*
X19738Y12200D01*
X19738Y12200D01*
X19746Y12157D01*
X19771Y12121D01*
X20095Y11797D01*
Y11245D01*
X20805D01*
Y11955D01*
X20253D01*
X19962Y12246D01*
X19962Y23354D01*
X20439Y23830D01*
X20485Y23806D01*
X20477Y23764D01*
X20490Y23698D01*
X20527Y23642D01*
X20584Y23604D01*
X20650Y23591D01*
X20662Y23593D01*
X20788Y23468D01*
Y20355D01*
X20095D01*
Y19645D01*
X20788D01*
Y19225D01*
X20738Y19208D01*
X20703Y19253D01*
X20629Y19310D01*
X20543Y19346D01*
X20450Y19358D01*
X20357Y19346D01*
X20271Y19310D01*
X20197Y19253D01*
X20140Y19179D01*
X20104Y19093D01*
X20092Y19000D01*
X20104Y18907D01*
X20140Y18821D01*
X20197Y18747D01*
X20271Y18690D01*
X20357Y18654D01*
X20450Y18642D01*
X20543Y18654D01*
X20629Y18690D01*
X20703Y18747D01*
X20738Y18792D01*
X20788Y18775D01*
Y18225D01*
X20738Y18208D01*
X20703Y18253D01*
X20629Y18310D01*
X20543Y18346D01*
X20450Y18358D01*
X20357Y18346D01*
X20271Y18310D01*
X20197Y18253D01*
X20140Y18179D01*
X20104Y18093D01*
X20092Y18000D01*
X20104Y17907D01*
X20140Y17821D01*
X20197Y17747D01*
X20271Y17690D01*
X20357Y17654D01*
X20450Y17642D01*
X20543Y17654D01*
X20629Y17690D01*
X20703Y17747D01*
X20738Y17792D01*
X20788Y17775D01*
Y17225D01*
X20738Y17208D01*
X20703Y17253D01*
X20629Y17310D01*
X20543Y17346D01*
X20450Y17358D01*
X20357Y17346D01*
X20271Y17310D01*
X20197Y17253D01*
X20140Y17179D01*
X20104Y17093D01*
X20092Y17000D01*
X20104Y16907D01*
X20140Y16821D01*
X20197Y16747D01*
X20271Y16690D01*
X20357Y16654D01*
X20450Y16642D01*
X20543Y16654D01*
X20629Y16690D01*
X20703Y16747D01*
X20738Y16792D01*
X20788Y16775D01*
Y16225D01*
X20738Y16208D01*
X20703Y16253D01*
X20629Y16310D01*
X20543Y16346D01*
X20450Y16358D01*
X20357Y16346D01*
X20271Y16310D01*
X20197Y16253D01*
X20140Y16179D01*
X20104Y16093D01*
X20092Y16000D01*
X20104Y15907D01*
X20140Y15821D01*
X20197Y15747D01*
X20271Y15690D01*
X20357Y15654D01*
X20450Y15642D01*
X20543Y15654D01*
X20629Y15690D01*
X20703Y15747D01*
X20738Y15792D01*
X20788Y15775D01*
Y15225D01*
X20738Y15208D01*
X20703Y15253D01*
X20629Y15310D01*
X20543Y15346D01*
X20450Y15358D01*
X20357Y15346D01*
X20271Y15310D01*
X20197Y15253D01*
X20140Y15179D01*
X20104Y15093D01*
X20092Y15000D01*
X20104Y14907D01*
X20140Y14821D01*
X20197Y14747D01*
X20271Y14690D01*
X20357Y14654D01*
X20450Y14642D01*
X20543Y14654D01*
X20629Y14690D01*
X20703Y14747D01*
X20738Y14792D01*
X20788Y14775D01*
Y12150D01*
X20788Y12150D01*
X20796Y12107D01*
X20821Y12071D01*
X21132Y11760D01*
X21104Y11693D01*
X21092Y11600D01*
X21104Y11507D01*
X21140Y11421D01*
X21197Y11347D01*
X21271Y11290D01*
X21357Y11254D01*
X21450Y11242D01*
X21543Y11254D01*
X21629Y11290D01*
X21703Y11347D01*
X21760Y11421D01*
X21796Y11507D01*
X21808Y11600D01*
X21796Y11693D01*
X21760Y11779D01*
X21703Y11853D01*
X21629Y11910D01*
X21543Y11946D01*
X21450Y11958D01*
X21357Y11946D01*
X21290Y11918D01*
X21012Y12196D01*
Y23514D01*
X21004Y23557D01*
X20979Y23594D01*
X20979Y23594D01*
X20821Y23752D01*
X20823Y23764D01*
X20810Y23831D01*
X20773Y23887D01*
X20716Y23924D01*
X20650Y23938D01*
X20609Y23929D01*
X20584Y23975D01*
X20679Y24071D01*
X20679Y24071D01*
X20704Y24107D01*
X20712Y24150D01*
Y24520D01*
X20723Y24527D01*
X20760Y24584D01*
X20773Y24650D01*
X20760Y24716D01*
X20723Y24773D01*
X20703Y24786D01*
X20718Y24836D01*
X23111D01*
X23749Y24199D01*
X23818Y24152D01*
X23900Y24136D01*
X24428D01*
X24686Y23878D01*
Y23422D01*
X24545D01*
Y22711D01*
X25255D01*
Y23422D01*
X25114D01*
Y23966D01*
X25098Y24048D01*
X25051Y24118D01*
X24668Y24501D01*
X24598Y24548D01*
X24516Y24564D01*
X24114D01*
Y27250D01*
X24098Y27332D01*
X24051Y27401D01*
X23651Y27801D01*
X23582Y27848D01*
X23500Y27864D01*
D02*
G37*
G36*
X1505Y25505D02*
X795D01*
Y24795D01*
X1505D01*
Y25505D01*
D02*
G37*
G36*
X34550Y27564D02*
X34244D01*
X34162Y27548D01*
X34093Y27501D01*
X31549Y24957D01*
X31502Y24888D01*
X31486Y24806D01*
Y24739D01*
X29647Y22900D01*
X26886D01*
X26804Y22884D01*
X26735Y22837D01*
X26049Y22151D01*
X26002Y22082D01*
X25986Y22000D01*
Y20200D01*
X26002Y20118D01*
X26049Y20049D01*
X26502Y19596D01*
X26571Y19549D01*
X26653Y19533D01*
X27130D01*
X27212Y19549D01*
X27281Y19596D01*
X27328Y19665D01*
X27344Y19747D01*
X27328Y19829D01*
X27281Y19898D01*
X27212Y19945D01*
X27130Y19961D01*
X26742D01*
X26414Y20289D01*
Y20376D01*
X26464Y20403D01*
X26484Y20390D01*
X26550Y20377D01*
X26616Y20390D01*
X26673Y20427D01*
X26680Y20438D01*
X28904D01*
X29188Y20154D01*
Y18730D01*
X29177Y18723D01*
X29140Y18666D01*
X29127Y18600D01*
X29140Y18534D01*
X29177Y18477D01*
X29200Y18462D01*
X29185Y18412D01*
X28696D01*
X28129Y18979D01*
X28093Y19004D01*
X28050Y19012D01*
X28050Y19012D01*
X27930D01*
X27923Y19023D01*
X27866Y19060D01*
X27800Y19073D01*
X27734Y19060D01*
X27677Y19023D01*
X27663Y19001D01*
X27625Y18974D01*
X27599Y18988D01*
X27566Y19010D01*
X27500Y19023D01*
X27434Y19010D01*
X27377Y18973D01*
X27340Y18916D01*
X27327Y18850D01*
X27340Y18784D01*
X27377Y18727D01*
X27388Y18720D01*
Y18661D01*
X27388Y18661D01*
X27389Y18657D01*
X27361Y18616D01*
X27334Y18610D01*
X27277Y18573D01*
X27270Y18562D01*
X23888D01*
X23866Y18588D01*
X23885Y18638D01*
X25950D01*
X25950Y18638D01*
X25993Y18646D01*
X26029Y18671D01*
X26054Y18707D01*
X26062Y18750D01*
X26054Y18793D01*
X26029Y18829D01*
X25762Y19096D01*
Y22554D01*
X26596Y23388D01*
X27070D01*
X27077Y23377D01*
X27134Y23340D01*
X27200Y23327D01*
X27266Y23340D01*
X27323Y23377D01*
X27360Y23434D01*
X27373Y23500D01*
X27360Y23566D01*
X27323Y23623D01*
X27266Y23660D01*
X27200Y23673D01*
X27134Y23660D01*
X27077Y23623D01*
X27070Y23612D01*
X26550D01*
X26507Y23604D01*
X26471Y23579D01*
X26471Y23579D01*
X25571Y22679D01*
X25546Y22643D01*
X25538Y22600D01*
X25538Y22600D01*
Y19050D01*
X25538Y19050D01*
X25546Y19007D01*
X25571Y18971D01*
X25633Y18908D01*
X25614Y18862D01*
X23650D01*
X23650Y18862D01*
X23607Y18854D01*
X23571Y18829D01*
X23571Y18829D01*
X23371Y18629D01*
X23346Y18593D01*
X23338Y18550D01*
X23338Y18550D01*
Y17656D01*
X23338Y17656D01*
X23346Y17613D01*
X23371Y17577D01*
X24227Y16721D01*
X24227Y16721D01*
X24263Y16696D01*
X24306Y16688D01*
X24306Y16688D01*
X27254D01*
X28767Y15174D01*
X28766Y15161D01*
X28712Y15121D01*
X28700Y15123D01*
X28688Y15121D01*
X27209Y16599D01*
X27173Y16624D01*
X27130Y16632D01*
X27130Y16632D01*
X24303D01*
X24260Y16624D01*
X24223Y16599D01*
X24223Y16599D01*
X24156Y16532D01*
X24131Y16527D01*
X24094Y16503D01*
X24070Y16467D01*
X24062Y16424D01*
Y16209D01*
X24062Y16209D01*
X24070Y16166D01*
X24094Y16130D01*
X24227Y15997D01*
X24240Y15934D01*
X24277Y15877D01*
X24334Y15840D01*
X24400Y15827D01*
X24466Y15840D01*
X24523Y15877D01*
X24560Y15934D01*
X24573Y16000D01*
X24560Y16066D01*
X24523Y16122D01*
X24516Y16134D01*
Y16141D01*
X24561Y16188D01*
X26804D01*
X28179Y14812D01*
X28177Y14800D01*
X28179Y14788D01*
X28139Y14734D01*
X28126Y14733D01*
X27129Y15729D01*
X27093Y15754D01*
X27050Y15762D01*
X27050Y15762D01*
X23946D01*
X22522Y17186D01*
Y19590D01*
X22522Y19590D01*
X22514Y19633D01*
X22489Y19669D01*
X22489Y19669D01*
X22079Y20079D01*
X22043Y20104D01*
X22000Y20112D01*
X22000Y20112D01*
X21788D01*
X21760Y20179D01*
X21703Y20253D01*
X21629Y20310D01*
X21543Y20346D01*
X21450Y20358D01*
X21357Y20346D01*
X21271Y20310D01*
X21197Y20253D01*
X21140Y20179D01*
X21104Y20093D01*
X21092Y20000D01*
X21104Y19907D01*
X21140Y19821D01*
X21197Y19747D01*
X21271Y19690D01*
X21357Y19654D01*
X21450Y19642D01*
X21543Y19654D01*
X21629Y19690D01*
X21703Y19747D01*
X21760Y19821D01*
X21788Y19888D01*
X21954D01*
X22298Y19544D01*
Y17140D01*
X22298Y17140D01*
X22306Y17097D01*
X22331Y17061D01*
X23821Y15571D01*
X23821Y15571D01*
X23857Y15546D01*
X23900Y15538D01*
X27004D01*
X28029Y14512D01*
X28027Y14500D01*
X28040Y14434D01*
X28077Y14377D01*
X28098Y14364D01*
X28087Y14311D01*
X28084Y14310D01*
X28027Y14273D01*
X27990Y14216D01*
X27977Y14150D01*
X27990Y14084D01*
X28027Y14027D01*
X28084Y13990D01*
X28150Y13977D01*
X28216Y13990D01*
X28273Y14027D01*
X28280Y14038D01*
X28800D01*
X28800Y14038D01*
X28843Y14046D01*
X28879Y14071D01*
X29229Y14421D01*
X29229Y14421D01*
X29254Y14457D01*
X29262Y14500D01*
X29262Y14500D01*
Y14950D01*
X29262Y14950D01*
X29254Y14993D01*
X29229Y15029D01*
X29229Y15029D01*
X27379Y16879D01*
X27343Y16904D01*
X27300Y16912D01*
X27300Y16912D01*
X24353D01*
X23562Y17703D01*
Y18335D01*
X23612Y18350D01*
X23627Y18327D01*
X23684Y18290D01*
X23750Y18277D01*
X23784Y18284D01*
X23814Y18239D01*
X23800Y18216D01*
X23786Y18150D01*
X23800Y18084D01*
X23837Y18027D01*
X23893Y17990D01*
X23960Y17977D01*
X24026Y17990D01*
X24082Y18027D01*
X24089Y18038D01*
X24970D01*
X24977Y18027D01*
X25034Y17990D01*
X25100Y17977D01*
X25166Y17990D01*
X25223Y18027D01*
X25260Y18084D01*
X25273Y18150D01*
X25260Y18216D01*
X25223Y18273D01*
X25200Y18288D01*
X25215Y18338D01*
X27270D01*
X27277Y18327D01*
X27334Y18290D01*
X27400Y18277D01*
X27466Y18290D01*
X27523Y18327D01*
X27560Y18384D01*
X27573Y18450D01*
X27604Y18488D01*
X27925D01*
X28442Y17971D01*
X28442Y17971D01*
X28478Y17946D01*
X28521Y17938D01*
X29560D01*
X29560Y17938D01*
X29603Y17946D01*
X29639Y17971D01*
X34879Y23211D01*
X34904Y23247D01*
X34912Y23290D01*
X34912Y23290D01*
Y26344D01*
X34912Y26344D01*
X34904Y26387D01*
X34879Y26423D01*
X34879Y26423D01*
X34743Y26560D01*
X34745Y26572D01*
X34732Y26638D01*
X34694Y26694D01*
X34638Y26732D01*
X34572Y26745D01*
X34506Y26732D01*
X34449Y26694D01*
X34412Y26638D01*
X34399Y26572D01*
X34412Y26506D01*
X34449Y26449D01*
X34506Y26412D01*
X34572Y26399D01*
X34584Y26401D01*
X34688Y26297D01*
Y25977D01*
X34644Y25953D01*
X34638Y25957D01*
X34572Y25970D01*
X34506Y25957D01*
X34449Y25919D01*
X34412Y25863D01*
X34399Y25797D01*
X34412Y25731D01*
X34449Y25674D01*
X34460Y25667D01*
Y23418D01*
X29462Y18421D01*
X29434Y18425D01*
X29422Y18477D01*
X29423Y18477D01*
X29460Y18534D01*
X29473Y18600D01*
X29460Y18666D01*
X29423Y18723D01*
X29412Y18730D01*
Y20200D01*
X29412Y20200D01*
X29404Y20243D01*
X29379Y20279D01*
X29379Y20279D01*
X29029Y20629D01*
X28993Y20654D01*
X28950Y20662D01*
X28950Y20662D01*
X26680D01*
X26673Y20673D01*
X26616Y20710D01*
X26550Y20723D01*
X26484Y20710D01*
X26464Y20697D01*
X26414Y20724D01*
Y21911D01*
X26975Y22472D01*
X29736D01*
X29818Y22488D01*
X29887Y22535D01*
X31851Y24499D01*
X31898Y24568D01*
X31914Y24650D01*
Y24717D01*
X34333Y27136D01*
X34550D01*
X34632Y27152D01*
X34701Y27199D01*
X34748Y27268D01*
X34764Y27350D01*
X34748Y27432D01*
X34701Y27501D01*
X34632Y27548D01*
X34550Y27564D01*
D02*
G37*
G36*
X23900Y23425D02*
X23807Y23413D01*
X23721Y23377D01*
X23647Y23320D01*
X23590Y23246D01*
X23554Y23160D01*
X23542Y23067D01*
X23554Y22974D01*
X23590Y22888D01*
X23647Y22813D01*
X23721Y22756D01*
X23807Y22721D01*
X23900Y22708D01*
X23993Y22721D01*
X24079Y22756D01*
X24153Y22813D01*
X24210Y22888D01*
X24246Y22974D01*
X24258Y23067D01*
X24246Y23160D01*
X24210Y23246D01*
X24153Y23320D01*
X24079Y23377D01*
X23993Y23413D01*
X23900Y23425D01*
D02*
G37*
G36*
X38703Y23130D02*
X37993D01*
Y22695D01*
X38703D01*
Y23130D01*
D02*
G37*
G36*
X37501Y22749D02*
X37440Y22737D01*
X37387Y22702D01*
X37352Y22649D01*
X37340Y22587D01*
X37352Y22526D01*
X37387Y22473D01*
X37440Y22438D01*
X37501Y22426D01*
X37563Y22438D01*
X37616Y22473D01*
X37651Y22526D01*
X37663Y22587D01*
X37651Y22649D01*
X37616Y22702D01*
X37563Y22737D01*
X37501Y22749D01*
D02*
G37*
G36*
X22900Y23281D02*
X22818Y23265D01*
X22749Y23218D01*
X22702Y23149D01*
X22686Y23067D01*
Y22067D01*
X22702Y21985D01*
X22749Y21915D01*
X22818Y21869D01*
X22900Y21853D01*
X22982Y21869D01*
X23051Y21915D01*
X23098Y21985D01*
X23114Y22067D01*
Y23067D01*
X23098Y23149D01*
X23051Y23218D01*
X22982Y23265D01*
X22900Y23281D01*
D02*
G37*
G36*
X24900Y22425D02*
X24807Y22413D01*
X24721Y22377D01*
X24647Y22320D01*
X24590Y22246D01*
X24554Y22160D01*
X24542Y22067D01*
X24554Y21974D01*
X24590Y21888D01*
X24647Y21813D01*
X24721Y21756D01*
X24807Y21721D01*
X24900Y21708D01*
X24993Y21721D01*
X25079Y21756D01*
X25153Y21813D01*
X25210Y21888D01*
X25246Y21974D01*
X25258Y22067D01*
X25246Y22160D01*
X25210Y22246D01*
X25153Y22320D01*
X25079Y22377D01*
X24993Y22413D01*
X24900Y22425D01*
D02*
G37*
G36*
X23900D02*
X23807Y22413D01*
X23721Y22377D01*
X23647Y22320D01*
X23590Y22246D01*
X23554Y22160D01*
X23542Y22067D01*
X23554Y21974D01*
X23590Y21888D01*
X23647Y21813D01*
X23721Y21756D01*
X23807Y21721D01*
X23900Y21708D01*
X23993Y21721D01*
X24079Y21756D01*
X24153Y21813D01*
X24210Y21888D01*
X24246Y21974D01*
X24258Y22067D01*
X24246Y22160D01*
X24210Y22246D01*
X24153Y22320D01*
X24079Y22377D01*
X23993Y22413D01*
X23900Y22425D01*
D02*
G37*
G36*
X37501Y21174D02*
X37440Y21162D01*
X37387Y21127D01*
X37352Y21074D01*
X37340Y21013D01*
X37352Y20951D01*
X37387Y20898D01*
X37440Y20863D01*
X37501Y20851D01*
X37563Y20863D01*
X37616Y20898D01*
X37651Y20951D01*
X37663Y21013D01*
X37651Y21074D01*
X37616Y21127D01*
X37563Y21162D01*
X37501Y21174D01*
D02*
G37*
G36*
X36300Y22464D02*
X36218Y22448D01*
X36149Y22401D01*
X36102Y22332D01*
X36086Y22250D01*
Y21050D01*
X36102Y20968D01*
X36149Y20899D01*
X36218Y20852D01*
X36300Y20836D01*
X36382Y20852D01*
X36451Y20899D01*
X36498Y20968D01*
X36514Y21050D01*
Y22250D01*
X36498Y22332D01*
X36451Y22401D01*
X36382Y22448D01*
X36300Y22464D01*
D02*
G37*
G36*
X2050Y21458D02*
X1957Y21446D01*
X1871Y21410D01*
X1797Y21353D01*
X1740Y21279D01*
X1704Y21193D01*
X1692Y21100D01*
X1704Y21007D01*
X1740Y20921D01*
X1797Y20847D01*
X1871Y20790D01*
X1957Y20754D01*
X2050Y20742D01*
X2143Y20754D01*
X2229Y20790D01*
X2303Y20847D01*
X2360Y20921D01*
X2396Y21007D01*
X2408Y21100D01*
X2396Y21193D01*
X2360Y21279D01*
X2303Y21353D01*
X2229Y21410D01*
X2143Y21446D01*
X2050Y21458D01*
D02*
G37*
G36*
X1050D02*
X957Y21446D01*
X871Y21410D01*
X797Y21353D01*
X740Y21279D01*
X704Y21193D01*
X692Y21100D01*
X704Y21007D01*
X740Y20921D01*
X797Y20847D01*
X871Y20790D01*
X957Y20754D01*
X1050Y20742D01*
X1143Y20754D01*
X1229Y20790D01*
X1303Y20847D01*
X1360Y20921D01*
X1396Y21007D01*
X1408Y21100D01*
X1396Y21193D01*
X1360Y21279D01*
X1303Y21353D01*
X1229Y21410D01*
X1143Y21446D01*
X1050Y21458D01*
D02*
G37*
G36*
X38703Y20905D02*
X37993D01*
Y20470D01*
X38703D01*
Y20905D01*
D02*
G37*
G36*
X2050Y20458D02*
X1957Y20446D01*
X1871Y20410D01*
X1797Y20353D01*
X1740Y20279D01*
X1704Y20193D01*
X1692Y20100D01*
X1704Y20007D01*
X1740Y19921D01*
X1797Y19847D01*
X1871Y19790D01*
X1957Y19754D01*
X2050Y19742D01*
X2143Y19754D01*
X2229Y19790D01*
X2303Y19847D01*
X2360Y19921D01*
X2396Y20007D01*
X2408Y20100D01*
X2396Y20193D01*
X2360Y20279D01*
X2303Y20353D01*
X2229Y20410D01*
X2143Y20446D01*
X2050Y20458D01*
D02*
G37*
G36*
X1050D02*
X957Y20446D01*
X871Y20410D01*
X797Y20353D01*
X740Y20279D01*
X704Y20193D01*
X692Y20100D01*
X704Y20007D01*
X740Y19921D01*
X797Y19847D01*
X871Y19790D01*
X957Y19754D01*
X1050Y19742D01*
X1143Y19754D01*
X1229Y19790D01*
X1303Y19847D01*
X1360Y19921D01*
X1396Y20007D01*
X1408Y20100D01*
X1396Y20193D01*
X1360Y20279D01*
X1303Y20353D01*
X1229Y20410D01*
X1143Y20446D01*
X1050Y20458D01*
D02*
G37*
G36*
X2050Y19458D02*
X1957Y19446D01*
X1871Y19410D01*
X1797Y19353D01*
X1740Y19279D01*
X1704Y19193D01*
X1692Y19100D01*
X1704Y19007D01*
X1740Y18921D01*
X1797Y18847D01*
X1871Y18790D01*
X1957Y18754D01*
X2050Y18742D01*
X2143Y18754D01*
X2229Y18790D01*
X2303Y18847D01*
X2360Y18921D01*
X2396Y19007D01*
X2408Y19100D01*
X2396Y19193D01*
X2360Y19279D01*
X2303Y19353D01*
X2229Y19410D01*
X2143Y19446D01*
X2050Y19458D01*
D02*
G37*
G36*
X1050D02*
X957Y19446D01*
X871Y19410D01*
X797Y19353D01*
X740Y19279D01*
X704Y19193D01*
X692Y19100D01*
X704Y19007D01*
X740Y18921D01*
X797Y18847D01*
X871Y18790D01*
X957Y18754D01*
X1050Y18742D01*
X1143Y18754D01*
X1229Y18790D01*
X1303Y18847D01*
X1360Y18921D01*
X1396Y19007D01*
X1408Y19100D01*
X1396Y19193D01*
X1360Y19279D01*
X1303Y19353D01*
X1229Y19410D01*
X1143Y19446D01*
X1050Y19458D01*
D02*
G37*
G36*
X21450Y19358D02*
X21357Y19346D01*
X21271Y19310D01*
X21197Y19253D01*
X21140Y19179D01*
X21104Y19093D01*
X21092Y19000D01*
X21104Y18907D01*
X21140Y18821D01*
X21197Y18747D01*
X21271Y18690D01*
X21357Y18654D01*
X21450Y18642D01*
X21543Y18654D01*
X21629Y18690D01*
X21703Y18747D01*
X21760Y18821D01*
X21796Y18907D01*
X21808Y19000D01*
X21796Y19093D01*
X21760Y19179D01*
X21703Y19253D01*
X21629Y19310D01*
X21543Y19346D01*
X21450Y19358D01*
D02*
G37*
G36*
X2050Y18458D02*
X1957Y18446D01*
X1871Y18410D01*
X1797Y18353D01*
X1740Y18279D01*
X1704Y18193D01*
X1692Y18100D01*
X1704Y18007D01*
X1740Y17921D01*
X1797Y17847D01*
X1871Y17790D01*
X1957Y17754D01*
X2050Y17742D01*
X2143Y17754D01*
X2229Y17790D01*
X2303Y17847D01*
X2360Y17921D01*
X2396Y18007D01*
X2408Y18100D01*
X2396Y18193D01*
X2360Y18279D01*
X2303Y18353D01*
X2229Y18410D01*
X2143Y18446D01*
X2050Y18458D01*
D02*
G37*
G36*
X1050D02*
X957Y18446D01*
X871Y18410D01*
X797Y18353D01*
X740Y18279D01*
X704Y18193D01*
X692Y18100D01*
X704Y18007D01*
X740Y17921D01*
X797Y17847D01*
X871Y17790D01*
X957Y17754D01*
X1050Y17742D01*
X1143Y17754D01*
X1229Y17790D01*
X1303Y17847D01*
X1360Y17921D01*
X1396Y18007D01*
X1408Y18100D01*
X1396Y18193D01*
X1360Y18279D01*
X1303Y18353D01*
X1229Y18410D01*
X1143Y18446D01*
X1050Y18458D01*
D02*
G37*
G36*
X21450Y18358D02*
X21357Y18346D01*
X21271Y18310D01*
X21197Y18253D01*
X21140Y18179D01*
X21104Y18093D01*
X21092Y18000D01*
X21104Y17907D01*
X21140Y17821D01*
X21197Y17747D01*
X21271Y17690D01*
X21357Y17654D01*
X21450Y17642D01*
X21543Y17654D01*
X21629Y17690D01*
X21703Y17747D01*
X21760Y17821D01*
X21796Y17907D01*
X21808Y18000D01*
X21796Y18093D01*
X21760Y18179D01*
X21703Y18253D01*
X21629Y18310D01*
X21543Y18346D01*
X21450Y18358D01*
D02*
G37*
G36*
X2050Y17458D02*
X1957Y17446D01*
X1871Y17410D01*
X1797Y17353D01*
X1740Y17279D01*
X1704Y17193D01*
X1692Y17100D01*
X1704Y17007D01*
X1740Y16921D01*
X1797Y16847D01*
X1871Y16790D01*
X1957Y16754D01*
X2050Y16742D01*
X2143Y16754D01*
X2229Y16790D01*
X2303Y16847D01*
X2360Y16921D01*
X2396Y17007D01*
X2408Y17100D01*
X2396Y17193D01*
X2360Y17279D01*
X2303Y17353D01*
X2229Y17410D01*
X2143Y17446D01*
X2050Y17458D01*
D02*
G37*
G36*
X1050D02*
X957Y17446D01*
X871Y17410D01*
X797Y17353D01*
X740Y17279D01*
X704Y17193D01*
X692Y17100D01*
X704Y17007D01*
X740Y16921D01*
X797Y16847D01*
X871Y16790D01*
X957Y16754D01*
X1050Y16742D01*
X1143Y16754D01*
X1229Y16790D01*
X1303Y16847D01*
X1360Y16921D01*
X1396Y17007D01*
X1408Y17100D01*
X1396Y17193D01*
X1360Y17279D01*
X1303Y17353D01*
X1229Y17410D01*
X1143Y17446D01*
X1050Y17458D01*
D02*
G37*
G36*
X21450Y17358D02*
X21357Y17346D01*
X21271Y17310D01*
X21197Y17253D01*
X21140Y17179D01*
X21104Y17093D01*
X21092Y17000D01*
X21104Y16907D01*
X21140Y16821D01*
X21197Y16747D01*
X21271Y16690D01*
X21357Y16654D01*
X21450Y16642D01*
X21543Y16654D01*
X21629Y16690D01*
X21703Y16747D01*
X21760Y16821D01*
X21796Y16907D01*
X21808Y17000D01*
X21796Y17093D01*
X21760Y17179D01*
X21703Y17253D01*
X21629Y17310D01*
X21543Y17346D01*
X21450Y17358D01*
D02*
G37*
G36*
X2050Y16458D02*
X1957Y16446D01*
X1871Y16410D01*
X1797Y16353D01*
X1740Y16279D01*
X1704Y16193D01*
X1692Y16100D01*
X1704Y16007D01*
X1740Y15921D01*
X1797Y15847D01*
X1871Y15790D01*
X1957Y15754D01*
X2050Y15742D01*
X2143Y15754D01*
X2229Y15790D01*
X2303Y15847D01*
X2360Y15921D01*
X2396Y16007D01*
X2408Y16100D01*
X2396Y16193D01*
X2360Y16279D01*
X2303Y16353D01*
X2229Y16410D01*
X2143Y16446D01*
X2050Y16458D01*
D02*
G37*
G36*
X1050D02*
X957Y16446D01*
X871Y16410D01*
X797Y16353D01*
X740Y16279D01*
X704Y16193D01*
X692Y16100D01*
X704Y16007D01*
X740Y15921D01*
X797Y15847D01*
X871Y15790D01*
X957Y15754D01*
X1050Y15742D01*
X1143Y15754D01*
X1229Y15790D01*
X1303Y15847D01*
X1360Y15921D01*
X1396Y16007D01*
X1408Y16100D01*
X1396Y16193D01*
X1360Y16279D01*
X1303Y16353D01*
X1229Y16410D01*
X1143Y16446D01*
X1050Y16458D01*
D02*
G37*
G36*
X21450Y16358D02*
X21357Y16346D01*
X21271Y16310D01*
X21197Y16253D01*
X21140Y16179D01*
X21104Y16093D01*
X21092Y16000D01*
X21104Y15907D01*
X21140Y15821D01*
X21197Y15747D01*
X21271Y15690D01*
X21357Y15654D01*
X21450Y15642D01*
X21543Y15654D01*
X21629Y15690D01*
X21703Y15747D01*
X21760Y15821D01*
X21796Y15907D01*
X21808Y16000D01*
X21796Y16093D01*
X21760Y16179D01*
X21703Y16253D01*
X21629Y16310D01*
X21543Y16346D01*
X21450Y16358D01*
D02*
G37*
G36*
X2050Y15458D02*
X1957Y15446D01*
X1871Y15410D01*
X1797Y15353D01*
X1740Y15279D01*
X1704Y15193D01*
X1692Y15100D01*
X1704Y15007D01*
X1740Y14921D01*
X1797Y14847D01*
X1871Y14790D01*
X1957Y14754D01*
X2050Y14742D01*
X2143Y14754D01*
X2229Y14790D01*
X2303Y14847D01*
X2360Y14921D01*
X2396Y15007D01*
X2408Y15100D01*
X2396Y15193D01*
X2360Y15279D01*
X2303Y15353D01*
X2229Y15410D01*
X2143Y15446D01*
X2050Y15458D01*
D02*
G37*
G36*
X1050D02*
X957Y15446D01*
X871Y15410D01*
X797Y15353D01*
X740Y15279D01*
X704Y15193D01*
X692Y15100D01*
X704Y15007D01*
X740Y14921D01*
X797Y14847D01*
X871Y14790D01*
X957Y14754D01*
X1050Y14742D01*
X1143Y14754D01*
X1229Y14790D01*
X1303Y14847D01*
X1360Y14921D01*
X1396Y15007D01*
X1408Y15100D01*
X1396Y15193D01*
X1360Y15279D01*
X1303Y15353D01*
X1229Y15410D01*
X1143Y15446D01*
X1050Y15458D01*
D02*
G37*
G36*
X21450Y15358D02*
X21357Y15346D01*
X21271Y15310D01*
X21197Y15253D01*
X21140Y15179D01*
X21104Y15093D01*
X21092Y15000D01*
X21104Y14907D01*
X21140Y14821D01*
X21197Y14747D01*
X21271Y14690D01*
X21357Y14654D01*
X21450Y14642D01*
X21543Y14654D01*
X21629Y14690D01*
X21703Y14747D01*
X21760Y14821D01*
X21796Y14907D01*
X21808Y15000D01*
X21796Y15093D01*
X21760Y15179D01*
X21703Y15253D01*
X21629Y15310D01*
X21543Y15346D01*
X21450Y15358D01*
D02*
G37*
G36*
X2050Y14458D02*
X1957Y14446D01*
X1871Y14410D01*
X1797Y14353D01*
X1740Y14279D01*
X1704Y14193D01*
X1692Y14100D01*
X1704Y14007D01*
X1740Y13921D01*
X1797Y13847D01*
X1871Y13790D01*
X1957Y13754D01*
X2050Y13742D01*
X2143Y13754D01*
X2229Y13790D01*
X2303Y13847D01*
X2360Y13921D01*
X2396Y14007D01*
X2408Y14100D01*
X2396Y14193D01*
X2360Y14279D01*
X2303Y14353D01*
X2229Y14410D01*
X2143Y14446D01*
X2050Y14458D01*
D02*
G37*
G36*
X1050D02*
X957Y14446D01*
X871Y14410D01*
X797Y14353D01*
X740Y14279D01*
X704Y14193D01*
X692Y14100D01*
X704Y14007D01*
X740Y13921D01*
X797Y13847D01*
X871Y13790D01*
X957Y13754D01*
X1050Y13742D01*
X1143Y13754D01*
X1229Y13790D01*
X1303Y13847D01*
X1360Y13921D01*
X1396Y14007D01*
X1408Y14100D01*
X1396Y14193D01*
X1360Y14279D01*
X1303Y14353D01*
X1229Y14410D01*
X1143Y14446D01*
X1050Y14458D01*
D02*
G37*
G36*
X31350Y14273D02*
X31284Y14260D01*
X31227Y14223D01*
X31190Y14166D01*
X31177Y14100D01*
X31190Y14034D01*
X31203Y14014D01*
X30295Y13107D01*
X30241Y13124D01*
X30208Y13173D01*
X30152Y13210D01*
X30086Y13223D01*
X30019Y13210D01*
X29963Y13173D01*
X29926Y13116D01*
X29912Y13050D01*
X29915Y13038D01*
X28389Y11512D01*
X27580D01*
X27573Y11523D01*
X27516Y11560D01*
X27450Y11573D01*
X27384Y11560D01*
X27327Y11523D01*
X27290Y11466D01*
X27277Y11400D01*
X27290Y11334D01*
X27327Y11277D01*
X27373Y11247D01*
X27387Y11204D01*
X27389Y11188D01*
X27374Y11168D01*
X27334Y11160D01*
X27277Y11123D01*
X27240Y11066D01*
X27227Y11000D01*
X27240Y10934D01*
X27277Y10877D01*
X27334Y10840D01*
X27400Y10827D01*
X27466Y10840D01*
X27523Y10877D01*
X27560Y10934D01*
X27573Y11000D01*
X27571Y11012D01*
X27646Y11088D01*
X28547D01*
X28547Y11088D01*
X28590Y11096D01*
X28626Y11121D01*
X30385Y12880D01*
X30385Y12880D01*
X30385Y12880D01*
X31429Y13924D01*
X31429Y13924D01*
X31454Y13960D01*
X31455Y13965D01*
X31473Y13977D01*
X31510Y14034D01*
X31523Y14100D01*
X31510Y14166D01*
X31473Y14223D01*
X31416Y14260D01*
X31350Y14273D01*
D02*
G37*
G36*
X2050Y13458D02*
X1957Y13446D01*
X1871Y13410D01*
X1797Y13353D01*
X1740Y13279D01*
X1704Y13193D01*
X1692Y13100D01*
X1704Y13007D01*
X1740Y12921D01*
X1797Y12847D01*
X1871Y12790D01*
X1957Y12754D01*
X2050Y12742D01*
X2143Y12754D01*
X2229Y12790D01*
X2303Y12847D01*
X2360Y12921D01*
X2396Y13007D01*
X2408Y13100D01*
X2396Y13193D01*
X2360Y13279D01*
X2303Y13353D01*
X2229Y13410D01*
X2143Y13446D01*
X2050Y13458D01*
D02*
G37*
G36*
X1050D02*
X957Y13446D01*
X871Y13410D01*
X797Y13353D01*
X740Y13279D01*
X704Y13193D01*
X692Y13100D01*
X704Y13007D01*
X740Y12921D01*
X797Y12847D01*
X871Y12790D01*
X957Y12754D01*
X1050Y12742D01*
X1143Y12754D01*
X1229Y12790D01*
X1303Y12847D01*
X1360Y12921D01*
X1396Y13007D01*
X1408Y13100D01*
X1396Y13193D01*
X1360Y13279D01*
X1303Y13353D01*
X1229Y13410D01*
X1143Y13446D01*
X1050Y13458D01*
D02*
G37*
G36*
X18200Y24963D02*
X8050D01*
X7988Y24951D01*
X7935Y24915D01*
X7899Y24862D01*
X7887Y24800D01*
Y11400D01*
X7899Y11338D01*
X7935Y11285D01*
X7988Y11249D01*
X8050Y11237D01*
X18200D01*
X18262Y11249D01*
X18315Y11285D01*
X18365Y11335D01*
X18401Y11388D01*
X18413Y11450D01*
Y20032D01*
X19065Y20685D01*
X19101Y20738D01*
X19113Y20800D01*
Y24050D01*
X19101Y24112D01*
X19065Y24165D01*
X18315Y24915D01*
X18262Y24951D01*
X18200Y24963D01*
D02*
G37*
G36*
X21450Y10958D02*
X21357Y10946D01*
X21271Y10910D01*
X21197Y10853D01*
X21140Y10779D01*
X21104Y10693D01*
X21092Y10600D01*
X21104Y10507D01*
X21140Y10421D01*
X21197Y10347D01*
X21271Y10290D01*
X21357Y10254D01*
X21450Y10242D01*
X21543Y10254D01*
X21629Y10290D01*
X21703Y10347D01*
X21760Y10421D01*
X21796Y10507D01*
X21808Y10600D01*
X21796Y10693D01*
X21760Y10779D01*
X21703Y10853D01*
X21629Y10910D01*
X21543Y10946D01*
X21450Y10958D01*
D02*
G37*
G36*
X20450D02*
X20357Y10946D01*
X20271Y10910D01*
X20197Y10853D01*
X20140Y10779D01*
X20104Y10693D01*
X20092Y10600D01*
X20104Y10507D01*
X20140Y10421D01*
X20197Y10347D01*
X20271Y10290D01*
X20357Y10254D01*
X20450Y10242D01*
X20543Y10254D01*
X20629Y10290D01*
X20703Y10347D01*
X20760Y10421D01*
X20796Y10507D01*
X20808Y10600D01*
X20796Y10693D01*
X20760Y10779D01*
X20703Y10853D01*
X20629Y10910D01*
X20543Y10946D01*
X20450Y10958D01*
D02*
G37*
G36*
X21450Y9958D02*
X21357Y9946D01*
X21271Y9910D01*
X21197Y9853D01*
X21140Y9779D01*
X21104Y9693D01*
X21092Y9600D01*
X21104Y9507D01*
X21140Y9421D01*
X21197Y9347D01*
X21271Y9290D01*
X21357Y9254D01*
X21450Y9242D01*
X21543Y9254D01*
X21629Y9290D01*
X21703Y9347D01*
X21760Y9421D01*
X21796Y9507D01*
X21808Y9600D01*
X21796Y9693D01*
X21760Y9779D01*
X21703Y9853D01*
X21629Y9910D01*
X21543Y9946D01*
X21450Y9958D01*
D02*
G37*
G36*
X20450D02*
X20357Y9946D01*
X20271Y9910D01*
X20197Y9853D01*
X20140Y9779D01*
X20104Y9693D01*
X20092Y9600D01*
X20104Y9507D01*
X20140Y9421D01*
X20197Y9347D01*
X20271Y9290D01*
X20357Y9254D01*
X20450Y9242D01*
X20543Y9254D01*
X20629Y9290D01*
X20703Y9347D01*
X20760Y9421D01*
X20796Y9507D01*
X20808Y9600D01*
X20796Y9693D01*
X20760Y9779D01*
X20703Y9853D01*
X20629Y9910D01*
X20543Y9946D01*
X20450Y9958D01*
D02*
G37*
G36*
X38900Y9464D02*
X37255D01*
X37173Y9448D01*
X37103Y9401D01*
X37057Y9332D01*
X37041Y9250D01*
X37057Y9168D01*
X37103Y9099D01*
X37173Y9052D01*
X37255Y9036D01*
X38900D01*
X38982Y9052D01*
X39051Y9099D01*
X39098Y9168D01*
X39114Y9250D01*
X39098Y9332D01*
X39051Y9401D01*
X38982Y9448D01*
X38900Y9464D01*
D02*
G37*
G36*
X21450Y8958D02*
X21357Y8946D01*
X21271Y8910D01*
X21197Y8853D01*
X21140Y8779D01*
X21104Y8693D01*
X21092Y8600D01*
X21104Y8507D01*
X21140Y8421D01*
X21197Y8347D01*
X21271Y8290D01*
X21357Y8254D01*
X21450Y8242D01*
X21543Y8254D01*
X21629Y8290D01*
X21703Y8347D01*
X21760Y8421D01*
X21796Y8507D01*
X21808Y8600D01*
X21796Y8693D01*
X21760Y8779D01*
X21703Y8853D01*
X21629Y8910D01*
X21543Y8946D01*
X21450Y8958D01*
D02*
G37*
G36*
X20450D02*
X20357Y8946D01*
X20271Y8910D01*
X20197Y8853D01*
X20140Y8779D01*
X20104Y8693D01*
X20092Y8600D01*
X20104Y8507D01*
X20140Y8421D01*
X20197Y8347D01*
X20271Y8290D01*
X20357Y8254D01*
X20450Y8242D01*
X20543Y8254D01*
X20629Y8290D01*
X20703Y8347D01*
X20760Y8421D01*
X20796Y8507D01*
X20808Y8600D01*
X20796Y8693D01*
X20760Y8779D01*
X20703Y8853D01*
X20629Y8910D01*
X20543Y8946D01*
X20450Y8958D01*
D02*
G37*
G36*
X21450Y7958D02*
X21357Y7946D01*
X21271Y7910D01*
X21197Y7853D01*
X21140Y7779D01*
X21104Y7693D01*
X21092Y7600D01*
X21104Y7507D01*
X21140Y7421D01*
X21197Y7347D01*
X21271Y7290D01*
X21357Y7254D01*
X21450Y7242D01*
X21543Y7254D01*
X21629Y7290D01*
X21703Y7347D01*
X21760Y7421D01*
X21796Y7507D01*
X21808Y7600D01*
X21796Y7693D01*
X21760Y7779D01*
X21703Y7853D01*
X21629Y7910D01*
X21543Y7946D01*
X21450Y7958D01*
D02*
G37*
G36*
X20450D02*
X20357Y7946D01*
X20271Y7910D01*
X20197Y7853D01*
X20140Y7779D01*
X20104Y7693D01*
X20092Y7600D01*
X20104Y7507D01*
X20140Y7421D01*
X20197Y7347D01*
X20271Y7290D01*
X20357Y7254D01*
X20450Y7242D01*
X20543Y7254D01*
X20629Y7290D01*
X20703Y7347D01*
X20760Y7421D01*
X20796Y7507D01*
X20808Y7600D01*
X20796Y7693D01*
X20760Y7779D01*
X20703Y7853D01*
X20629Y7910D01*
X20543Y7946D01*
X20450Y7958D01*
D02*
G37*
G36*
X14047Y11167D02*
X13747D01*
X13665Y11151D01*
X13595Y11105D01*
X13549Y11035D01*
X13533Y10953D01*
X13549Y10871D01*
X13595Y10802D01*
X13665Y10755D01*
X13747Y10739D01*
X13958D01*
Y7385D01*
X13974Y7303D01*
X14020Y7234D01*
X15077Y6177D01*
X15147Y6131D01*
X15228Y6114D01*
X22341D01*
X22423Y6131D01*
X22492Y6177D01*
X22539Y6247D01*
X22555Y6328D01*
X22539Y6410D01*
X22492Y6480D01*
X22423Y6526D01*
X22341Y6543D01*
X15317D01*
X14386Y7474D01*
Y10828D01*
X14370Y10910D01*
X14323Y10980D01*
X14198Y11105D01*
X14129Y11151D01*
X14047Y11167D01*
D02*
G37*
G36*
X11950Y11164D02*
X11868Y11148D01*
X11799Y11101D01*
X11752Y11032D01*
X11736Y10950D01*
Y10100D01*
X11752Y10018D01*
X11799Y9949D01*
X12199Y9549D01*
X12268Y9502D01*
X12350Y9486D01*
X12911D01*
X13236Y9161D01*
Y7200D01*
X13252Y7118D01*
X13299Y7049D01*
X14899Y5449D01*
X14968Y5402D01*
X15050Y5386D01*
X24200D01*
X24282Y5402D01*
X24351Y5449D01*
X25027Y6124D01*
X25750D01*
X25832Y6141D01*
X25901Y6187D01*
X25948Y6257D01*
X25964Y6339D01*
X25948Y6421D01*
X25901Y6490D01*
X25832Y6536D01*
X25750Y6553D01*
X24939D01*
X24857Y6536D01*
X24787Y6490D01*
X24111Y5814D01*
X15139D01*
X13664Y7289D01*
Y9250D01*
X13648Y9332D01*
X13601Y9401D01*
X13151Y9851D01*
X13082Y9898D01*
X13000Y9914D01*
X12439D01*
X12164Y10189D01*
Y10950D01*
X12148Y11032D01*
X12101Y11101D01*
X12032Y11148D01*
X11950Y11164D01*
D02*
G37*
G36*
X33455Y2355D02*
X32745D01*
Y1645D01*
X33455D01*
Y2355D01*
D02*
G37*
G36*
X22055D02*
X21345D01*
Y1645D01*
X22055D01*
Y2355D01*
D02*
G37*
G36*
X32100Y2358D02*
X32007Y2346D01*
X31921Y2310D01*
X31847Y2253D01*
X31790Y2179D01*
X31754Y2093D01*
X31742Y2000D01*
X31754Y1907D01*
X31790Y1821D01*
X31847Y1747D01*
X31921Y1690D01*
X32007Y1654D01*
X32100Y1642D01*
X32193Y1654D01*
X32279Y1690D01*
X32353Y1747D01*
X32410Y1821D01*
X32446Y1907D01*
X32458Y2000D01*
X32446Y2093D01*
X32410Y2179D01*
X32353Y2253D01*
X32279Y2310D01*
X32193Y2346D01*
X32100Y2358D01*
D02*
G37*
G36*
X31400Y11914D02*
X31318Y11898D01*
X31249Y11851D01*
X30949Y11551D01*
X30902Y11482D01*
X30886Y11400D01*
Y2284D01*
X30847Y2253D01*
X30790Y2179D01*
X30754Y2093D01*
X30742Y2000D01*
X30754Y1907D01*
X30790Y1821D01*
X30847Y1747D01*
X30921Y1690D01*
X31007Y1654D01*
X31100Y1642D01*
X31193Y1654D01*
X31279Y1690D01*
X31353Y1747D01*
X31410Y1821D01*
X31446Y1907D01*
X31458Y2000D01*
X31446Y2093D01*
X31410Y2179D01*
X31353Y2253D01*
X31314Y2284D01*
Y11311D01*
X31551Y11549D01*
X31598Y11618D01*
X31614Y11700D01*
X31598Y11782D01*
X31551Y11851D01*
X31482Y11898D01*
X31400Y11914D01*
D02*
G37*
G36*
X30015Y2879D02*
X28515D01*
X28433Y2862D01*
X28363Y2816D01*
X28239Y2692D01*
X28193Y2623D01*
X28177Y2541D01*
Y1094D01*
X27697Y614D01*
X25950D01*
X25868Y598D01*
X25799Y551D01*
X25752Y482D01*
X25736Y400D01*
X25752Y318D01*
X25799Y249D01*
X25868Y202D01*
X25950Y186D01*
X27785D01*
X27867Y202D01*
X27937Y249D01*
X28542Y854D01*
X28589Y923D01*
X28605Y1005D01*
Y2450D01*
X29886D01*
Y2284D01*
X29847Y2253D01*
X29790Y2179D01*
X29754Y2093D01*
X29742Y2000D01*
X29754Y1907D01*
X29790Y1821D01*
X29847Y1747D01*
X29921Y1690D01*
X30007Y1654D01*
X30100Y1642D01*
X30193Y1654D01*
X30279Y1690D01*
X30353Y1747D01*
X30410Y1821D01*
X30446Y1907D01*
X30458Y2000D01*
X30446Y2093D01*
X30410Y2179D01*
X30353Y2253D01*
X30314Y2284D01*
Y2579D01*
X30298Y2661D01*
X30251Y2731D01*
X30166Y2816D01*
X30097Y2862D01*
X30015Y2879D01*
D02*
G37*
G36*
X29100Y2358D02*
X29007Y2346D01*
X28921Y2310D01*
X28847Y2253D01*
X28790Y2179D01*
X28754Y2093D01*
X28742Y2000D01*
X28754Y1907D01*
X28790Y1821D01*
X28847Y1747D01*
X28921Y1690D01*
X29007Y1654D01*
X29100Y1642D01*
X29193Y1654D01*
X29279Y1690D01*
X29353Y1747D01*
X29410Y1821D01*
X29446Y1907D01*
X29458Y2000D01*
X29446Y2093D01*
X29410Y2179D01*
X29353Y2253D01*
X29279Y2310D01*
X29193Y2346D01*
X29100Y2358D01*
D02*
G37*
G36*
X26700D02*
X26607Y2346D01*
X26521Y2310D01*
X26447Y2253D01*
X26390Y2179D01*
X26354Y2093D01*
X26342Y2000D01*
X26354Y1907D01*
X26390Y1821D01*
X26447Y1747D01*
X26521Y1690D01*
X26607Y1654D01*
X26700Y1642D01*
X26793Y1654D01*
X26879Y1690D01*
X26953Y1747D01*
X27010Y1821D01*
X27046Y1907D01*
X27058Y2000D01*
X27046Y2093D01*
X27010Y2179D01*
X26953Y2253D01*
X26879Y2310D01*
X26793Y2346D01*
X26700Y2358D01*
D02*
G37*
G36*
X25700D02*
X25607Y2346D01*
X25521Y2310D01*
X25447Y2253D01*
X25390Y2179D01*
X25354Y2093D01*
X25342Y2000D01*
X25354Y1907D01*
X25390Y1821D01*
X25447Y1747D01*
X25521Y1690D01*
X25607Y1654D01*
X25700Y1642D01*
X25793Y1654D01*
X25879Y1690D01*
X25953Y1747D01*
X26010Y1821D01*
X26046Y1907D01*
X26058Y2000D01*
X26046Y2093D01*
X26010Y2179D01*
X25953Y2253D01*
X25879Y2310D01*
X25793Y2346D01*
X25700Y2358D01*
D02*
G37*
G36*
X23700D02*
X23607Y2346D01*
X23521Y2310D01*
X23447Y2253D01*
X23390Y2179D01*
X23354Y2093D01*
X23342Y2000D01*
X23354Y1907D01*
X23390Y1821D01*
X23447Y1747D01*
X23521Y1690D01*
X23607Y1654D01*
X23700Y1642D01*
X23793Y1654D01*
X23879Y1690D01*
X23953Y1747D01*
X24010Y1821D01*
X24046Y1907D01*
X24058Y2000D01*
X24046Y2093D01*
X24010Y2179D01*
X23953Y2253D01*
X23879Y2310D01*
X23793Y2346D01*
X23700Y2358D01*
D02*
G37*
G36*
X22700D02*
X22607Y2346D01*
X22521Y2310D01*
X22447Y2253D01*
X22390Y2179D01*
X22354Y2093D01*
X22342Y2000D01*
X22354Y1907D01*
X22390Y1821D01*
X22447Y1747D01*
X22521Y1690D01*
X22607Y1654D01*
X22700Y1642D01*
X22793Y1654D01*
X22879Y1690D01*
X22953Y1747D01*
X23010Y1821D01*
X23046Y1907D01*
X23058Y2000D01*
X23046Y2093D01*
X23010Y2179D01*
X22953Y2253D01*
X22879Y2310D01*
X22793Y2346D01*
X22700Y2358D01*
D02*
G37*
G36*
X29100Y1358D02*
X29007Y1346D01*
X28921Y1310D01*
X28847Y1253D01*
X28790Y1179D01*
X28754Y1093D01*
X28742Y1000D01*
X28754Y907D01*
X28790Y821D01*
X28847Y747D01*
X28921Y690D01*
X29007Y654D01*
X29100Y642D01*
X29193Y654D01*
X29279Y690D01*
X29353Y747D01*
X29410Y821D01*
X29446Y907D01*
X29458Y1000D01*
X29446Y1093D01*
X29410Y1179D01*
X29353Y1253D01*
X29279Y1310D01*
X29193Y1346D01*
X29100Y1358D01*
D02*
G37*
%LPD*%
G36*
X18787Y23982D02*
Y20868D01*
X18135Y20215D01*
X18099Y20162D01*
X18087Y20100D01*
Y11563D01*
X8213D01*
Y24637D01*
X18132D01*
X18787Y23982D01*
D02*
G37*
%LPC*%
G36*
X13098Y20764D02*
X12650D01*
X12568Y20748D01*
X12499Y20701D01*
X12324Y20526D01*
X12277Y20457D01*
X12261Y20375D01*
Y15900D01*
X12277Y15818D01*
X12324Y15749D01*
X12393Y15702D01*
X12475Y15686D01*
X12557Y15702D01*
X12626Y15749D01*
X12673Y15818D01*
X12689Y15900D01*
Y20286D01*
X12739Y20336D01*
X13098D01*
X13180Y20352D01*
X13250Y20399D01*
X13296Y20468D01*
X13313Y20550D01*
X13296Y20632D01*
X13250Y20701D01*
X13180Y20748D01*
X13098Y20764D01*
D02*
G37*
G36*
X13701Y19308D02*
X13619Y19292D01*
X13549Y19246D01*
X13503Y19176D01*
X13486Y19094D01*
Y16415D01*
X13074Y16003D01*
X13028Y15933D01*
X13011Y15851D01*
X13028Y15769D01*
X13074Y15700D01*
X13144Y15653D01*
X13226Y15637D01*
X13308Y15653D01*
X13377Y15700D01*
X13852Y16175D01*
X13898Y16244D01*
X13915Y16326D01*
Y19094D01*
X13898Y19176D01*
X13852Y19246D01*
X13782Y19292D01*
X13701Y19308D01*
D02*
G37*
%LPD*%
D14*
X27561Y18600D02*
X27971D01*
X27500Y18661D02*
X27561Y18600D01*
X27500Y18661D02*
Y18850D01*
X27971Y18600D02*
X28521Y18050D01*
X30306Y12959D02*
X31350Y14003D01*
Y14100D01*
X27050Y15650D02*
X28200Y14500D01*
X23900Y15650D02*
X27050D01*
X22410Y17140D02*
X23900Y15650D01*
X25650Y22600D02*
X26550Y23500D01*
X25650Y19050D02*
Y22600D01*
Y19050D02*
X25950Y18750D01*
X28547Y11200D02*
X30306Y12959D01*
X27600Y11200D02*
X28547D01*
X27400Y11000D02*
X27600Y11200D01*
X34572Y26572D02*
X34800Y26344D01*
Y23290D02*
Y26344D01*
X29560Y18050D02*
X34800Y23290D01*
X34572Y23372D02*
Y25797D01*
X29500Y18300D02*
X34572Y23372D01*
X28650Y18300D02*
X29500D01*
X28050Y18900D02*
X28650Y18300D01*
X27800Y18900D02*
X28050D01*
X28521Y18050D02*
X29560D01*
X29300Y18600D02*
Y20200D01*
X28950Y20550D02*
X29300Y20200D01*
X26550Y20550D02*
X28950D01*
X23650Y18750D02*
X25950D01*
X23450Y18550D02*
X23650Y18750D01*
X23450Y17656D02*
Y18550D01*
X26550Y23500D02*
X27200D01*
X24306Y16800D02*
X27300D01*
X23450Y17656D02*
X24306Y16800D01*
X27300D02*
X29150Y14950D01*
Y14500D02*
Y14950D01*
X28800Y14150D02*
X29150Y14500D01*
X28150Y14150D02*
X28800D01*
X27397Y18450D02*
X27400Y18447D01*
X23750Y18450D02*
X27397D01*
X23960Y18150D02*
X25100D01*
X20600Y24150D02*
Y24650D01*
X19850Y23400D02*
X20600Y24150D01*
X19850Y23400D02*
X19850Y12200D01*
X20650Y23764D02*
X20900Y23514D01*
Y12150D02*
Y23514D01*
X19850Y12200D02*
X20450Y11600D01*
X21450Y20000D02*
X22000D01*
X22410Y19590D01*
Y17140D02*
Y19590D01*
X20900Y12150D02*
X21450Y11600D01*
X24394Y16300D02*
X26850D01*
X24303Y16520D02*
X27130D01*
X24206Y16424D02*
X24303Y16520D01*
X24174Y16424D02*
X24206D01*
X26850Y16300D02*
X28350Y14800D01*
X24174Y16209D02*
Y16424D01*
X27130Y16520D02*
X28700Y14950D01*
X24383Y16000D02*
X24400D01*
X24174Y16209D02*
X24383Y16000D01*
X30306Y12959D02*
Y12959D01*
X28436Y11400D02*
X30086Y13050D01*
X27450Y11400D02*
X28436D01*
X-1300Y31496D02*
X-1100Y30896D01*
X-1500D02*
X-1300Y31496D01*
X-1500Y600D02*
X-1300Y0D01*
X-1100Y600D01*
X-1300Y17098D02*
Y31496D01*
Y0D02*
Y14078D01*
X-1400Y31496D02*
X-200D01*
X-1400Y0D02*
X-200D01*
X0Y-1250D02*
X600Y-1050D01*
X0Y-1250D02*
X600Y-1450D01*
X38770D02*
X39370Y-1250D01*
X38770Y-1050D02*
X39370Y-1250D01*
X0D02*
X17766D01*
X21285D02*
X39370D01*
X0Y-1350D02*
Y-200D01*
X39370Y-1350D02*
Y-200D01*
D17*
X18200Y11400D02*
X18250Y11450D01*
X8050Y11400D02*
X18200D01*
Y24800D02*
X18950Y24050D01*
Y20800D02*
Y24050D01*
X18250Y20100D02*
X18950Y20800D01*
X8050Y24800D02*
X18200D01*
X18250Y11450D02*
Y20100D01*
X8050Y11400D02*
Y24800D01*
X0Y0D02*
X39370D01*
Y31496D01*
X0Y0D02*
Y31496D01*
X39370D01*
D18*
X-1440Y14238D02*
X-1540Y14338D01*
Y14538D01*
X-1440Y14638D01*
X-1340D01*
X-1240Y14538D01*
X-1140Y14638D01*
X-1040D01*
X-940Y14538D01*
Y14338D01*
X-1040Y14238D01*
X-1140D01*
X-1240Y14338D01*
X-1340Y14238D01*
X-1440D01*
X-1240Y14338D02*
Y14538D01*
X-1440Y14838D02*
X-1540Y14938D01*
Y15138D01*
X-1440Y15238D01*
X-1040D01*
X-940Y15138D01*
Y14938D01*
X-1040Y14838D01*
X-1440D01*
X-940Y15438D02*
X-1040D01*
Y15538D01*
X-940D01*
Y15438D01*
X-1440Y15938D02*
X-1540Y16038D01*
Y16238D01*
X-1440Y16338D01*
X-1040D01*
X-940Y16238D01*
Y16038D01*
X-1040Y15938D01*
X-1440D01*
Y16538D02*
X-1540Y16638D01*
Y16838D01*
X-1440Y16938D01*
X-1040D01*
X-940Y16838D01*
Y16638D01*
X-1040Y16538D01*
X-1440D01*
X17926Y-1610D02*
X18125D01*
X18026D01*
Y-1010D01*
X17926Y-1110D01*
X18425D02*
X18525Y-1010D01*
X18725D01*
X18825Y-1110D01*
Y-1510D01*
X18725Y-1610D01*
X18525D01*
X18425Y-1510D01*
Y-1110D01*
X19025D02*
X19125Y-1010D01*
X19325D01*
X19425Y-1110D01*
Y-1510D01*
X19325Y-1610D01*
X19125D01*
X19025Y-1510D01*
Y-1110D01*
X19625Y-1610D02*
Y-1510D01*
X19725D01*
Y-1610D01*
X19625D01*
X20125Y-1110D02*
X20225Y-1010D01*
X20425D01*
X20525Y-1110D01*
Y-1510D01*
X20425Y-1610D01*
X20225D01*
X20125Y-1510D01*
Y-1110D01*
X20725D02*
X20825Y-1010D01*
X21025D01*
X21125Y-1110D01*
Y-1510D01*
X21025Y-1610D01*
X20825D01*
X20725Y-1510D01*
Y-1110D01*
D20*
X38562Y27372D02*
Y27552D01*
X38122Y27372D02*
Y27552D01*
Y27372D02*
X38562D01*
X38122Y27552D02*
X38562D01*
Y25148D02*
Y25328D01*
X38122Y25148D02*
Y25328D01*
Y25148D02*
X38562D01*
X38122Y25328D02*
X38562D01*
Y22822D02*
Y23002D01*
X38122Y22822D02*
Y23002D01*
Y22822D02*
X38562D01*
X38122Y23002D02*
X38562D01*
Y20598D02*
Y20778D01*
X38122Y20598D02*
Y20778D01*
Y20598D02*
X38562D01*
X38122Y20778D02*
X38562D01*
D40*
X26700Y2000D02*
D03*
X25700D02*
D03*
X24700D02*
D03*
X23700D02*
D03*
X22700D02*
D03*
X33100Y1000D02*
D03*
X32100Y2000D02*
D03*
Y1000D02*
D03*
X31100Y2000D02*
D03*
Y1000D02*
D03*
X30100Y2000D02*
D03*
Y1000D02*
D03*
X29100Y2000D02*
D03*
Y1000D02*
D03*
X1050Y21100D02*
D03*
X2050D02*
D03*
X1050Y20100D02*
D03*
X2050D02*
D03*
X1050Y19100D02*
D03*
X2050D02*
D03*
X1050Y18100D02*
D03*
X2050D02*
D03*
X1050Y17100D02*
D03*
X2050D02*
D03*
X1050Y16100D02*
D03*
X2050D02*
D03*
X1050Y15100D02*
D03*
X2050D02*
D03*
X1050Y14100D02*
D03*
X2050D02*
D03*
X1050Y13100D02*
D03*
X2050D02*
D03*
X1050Y12100D02*
D03*
X22900Y22067D02*
D03*
Y23067D02*
D03*
X23900Y22067D02*
D03*
Y23067D02*
D03*
X24900Y22067D02*
D03*
X34150Y30319D02*
D03*
X21450Y11600D02*
D03*
X20450Y10600D02*
D03*
X21450D02*
D03*
X20450Y9600D02*
D03*
X21450D02*
D03*
X20450Y8600D02*
D03*
X21450D02*
D03*
X20450Y7600D02*
D03*
X21450D02*
D03*
Y20000D02*
D03*
X20450Y19000D02*
D03*
X21450D02*
D03*
X20450Y18000D02*
D03*
X21450D02*
D03*
X20450Y17000D02*
D03*
X21450D02*
D03*
X20450Y16000D02*
D03*
X21450D02*
D03*
X20450Y15000D02*
D03*
X21450D02*
D03*
X1150Y26150D02*
D03*
Y27150D02*
D03*
Y28150D02*
D03*
D81*
X24900Y23067D02*
Y23966D01*
X24516Y24350D02*
X24900Y23966D01*
X23900Y24350D02*
X24516D01*
X19450Y24550D02*
X19950Y25050D01*
X23200D01*
X19450Y21000D02*
Y24550D01*
X23200Y25050D02*
X23900Y24350D01*
X22900Y22067D02*
Y23067D01*
X13000Y9700D02*
X13450Y9250D01*
Y7200D02*
Y9250D01*
Y7200D02*
X15050Y5600D01*
X11950Y10100D02*
Y10950D01*
Y10100D02*
X12350Y9700D01*
X13000D01*
X15050Y5600D02*
X24200D01*
X12650Y20550D02*
X13098D01*
X12475Y20375D02*
X12650Y20550D01*
X12475Y15900D02*
Y20375D01*
X14172Y7385D02*
X15228Y6328D01*
X14172Y7385D02*
Y10828D01*
X24939Y6339D02*
X25750D01*
X24200Y5600D02*
X24939Y6339D01*
X15228Y6328D02*
X22341D01*
X26886Y22686D02*
X27602D01*
X26200Y22000D02*
X26886Y22686D01*
X26200Y20200D02*
Y22000D01*
X26653Y19747D02*
X27130D01*
X26200Y20200D02*
X26653Y19747D01*
X28515Y2665D02*
X30015D01*
X28391Y2541D02*
X28515Y2665D01*
X28391Y1005D02*
Y2541D01*
X27785Y400D02*
X28391Y1005D01*
X25950Y400D02*
X27785D01*
X30100Y2000D02*
Y2579D01*
X30015Y2665D02*
X30100Y2579D01*
X31100Y11400D02*
X31400Y11700D01*
X31100Y2000D02*
Y11400D01*
X31700Y24806D02*
X34244Y27350D01*
X31700Y24650D02*
Y24806D01*
X34244Y27350D02*
X34550D01*
X29736Y22686D02*
X31700Y24650D01*
X27602Y22686D02*
X29736D01*
X23900Y24350D02*
Y27250D01*
X23500Y27650D02*
X23900Y27250D01*
X21250Y27650D02*
X23500D01*
X36300Y21050D02*
Y22250D01*
X37255Y9250D02*
X38900D01*
X13747Y10953D02*
X14047D01*
X14172Y10828D01*
X13226Y15851D02*
X13701Y16326D01*
Y19094D01*
D82*
X21700Y2000D02*
D03*
X33100D02*
D03*
X24900Y23067D02*
D03*
X33150Y30319D02*
D03*
D83*
X2050Y12100D02*
D03*
X20450Y11600D02*
D03*
Y20000D02*
D03*
X1150Y25150D02*
D03*
D84*
X38348Y27462D02*
D03*
Y25238D02*
D03*
Y22912D02*
D03*
Y20688D02*
D03*
D85*
X37501Y25563D02*
D03*
Y27137D02*
D03*
Y21013D02*
D03*
Y22587D02*
D03*
D86*
X28117Y30772D02*
D03*
X28905D02*
D03*
X29692D02*
D03*
Y29000D02*
D03*
X28905D02*
D03*
X28117D02*
D03*
D87*
X1231Y30269D02*
D03*
Y1231D02*
D03*
X38169D02*
D03*
Y30319D02*
D03*
D88*
X24975Y10044D02*
D03*
X17700Y13934D02*
D03*
X18950D02*
D03*
X17700Y13171D02*
D03*
X18950D02*
D03*
X23850Y8094D02*
D03*
X25100D02*
D03*
X23850Y7331D02*
D03*
X25100D02*
D03*
X34113Y10407D02*
D03*
X35363D02*
D03*
X34113Y9643D02*
D03*
X35363D02*
D03*
X33750Y19290D02*
D03*
X35000D02*
D03*
X33750Y18527D02*
D03*
X35000D02*
D03*
X7042Y29064D02*
D03*
X8292D02*
D03*
X7042Y28300D02*
D03*
X8292D02*
D03*
X27200Y26964D02*
D03*
X28450D02*
D03*
X27200Y26200D02*
D03*
X28450D02*
D03*
X3450Y10800D02*
D03*
X2684D02*
D03*
X6800Y7250D02*
D03*
X5550D02*
D03*
X6800Y8014D02*
D03*
X5550D02*
D03*
X10692Y15179D02*
D03*
X10368D02*
D03*
X10350Y20103D02*
D03*
X10000Y20100D02*
D03*
X14184Y23964D02*
D03*
X13242D02*
D03*
X12300D02*
D03*
X15000Y16500D02*
D03*
X16700Y31150D02*
D03*
X17850Y15100D02*
D03*
X18700D02*
D03*
X19450Y21000D02*
D03*
X18075Y21606D02*
D03*
X14585Y19300D02*
D03*
X37285Y26862D02*
D03*
Y22312D02*
D03*
X3184Y13294D02*
D03*
Y15344D02*
D03*
Y17294D02*
D03*
Y19363D02*
D03*
X3150Y21594D02*
D03*
X2600Y23117D02*
D03*
X16700Y27150D02*
D03*
X21228D02*
D03*
X27500Y18850D02*
D03*
X27700Y17300D02*
D03*
X27400Y18450D02*
D03*
X31350Y14100D02*
D03*
X25100Y14444D02*
D03*
X32100Y16997D02*
D03*
Y14046D02*
D03*
X32300Y9930D02*
D03*
X29700Y11637D02*
D03*
X27950Y9930D02*
D03*
X27250Y5600D02*
D03*
X26600Y3869D02*
D03*
X27600D02*
D03*
X30000Y7481D02*
D03*
X30101Y3938D02*
D03*
X33249Y4736D02*
D03*
X31850Y4522D02*
D03*
X31600Y6943D02*
D03*
X34351D02*
D03*
X35300Y7156D02*
D03*
X35800Y3915D02*
D03*
X38750Y3800D02*
D03*
X38447Y7224D02*
D03*
X37958Y11139D02*
D03*
X37500Y13294D02*
D03*
X37508Y15851D02*
D03*
X37255Y17000D02*
D03*
X34467Y16900D02*
D03*
X31694Y19347D02*
D03*
X30894Y20373D02*
D03*
X27736Y19400D02*
D03*
X29105Y21868D02*
D03*
X9153Y1550D02*
D03*
X17350Y700D02*
D03*
X17850D02*
D03*
X15850D02*
D03*
X17840Y8200D02*
D03*
X17346D02*
D03*
X15850D02*
D03*
X13401Y10200D02*
D03*
X10501D02*
D03*
X6500Y10040D02*
D03*
X6500Y10970D02*
D03*
X6500Y11900D02*
D03*
X6500Y12830D02*
D03*
X6500Y13760D02*
D03*
X6500Y14690D02*
D03*
X6500Y15620D02*
D03*
X6500Y16550D02*
D03*
X6500Y17480D02*
D03*
X6500Y18410D02*
D03*
X6500Y19340D02*
D03*
X6500Y20270D02*
D03*
X6500Y21200D02*
D03*
Y22150D02*
D03*
Y23050D02*
D03*
Y24000D02*
D03*
X22341Y6328D02*
D03*
X25750Y6339D02*
D03*
X25950Y400D02*
D03*
X31400Y11700D02*
D03*
X34550Y27350D02*
D03*
X31700Y24650D02*
D03*
X27602Y22686D02*
D03*
X27130Y19747D02*
D03*
X21250Y27650D02*
D03*
X36300Y21050D02*
D03*
Y22250D02*
D03*
X27200Y23500D02*
D03*
X27800Y18900D02*
D03*
X34572Y26572D02*
D03*
Y25797D02*
D03*
X25100Y18150D02*
D03*
X23750Y18450D02*
D03*
X23960Y18150D02*
D03*
X38900Y9250D02*
D03*
X37255D02*
D03*
X13747Y10953D02*
D03*
X11950Y10950D02*
D03*
X20650Y23764D02*
D03*
X20600Y24650D02*
D03*
X26550Y20550D02*
D03*
X29300Y18600D02*
D03*
X24394Y16300D02*
D03*
X24400Y16000D02*
D03*
X30086Y13050D02*
D03*
X27450Y11400D02*
D03*
X27400Y11000D02*
D03*
X13701Y19094D02*
D03*
X13098Y20550D02*
D03*
X28350Y14800D02*
D03*
X28150Y14150D02*
D03*
X28700Y14950D02*
D03*
X28200Y14500D02*
D03*
X13226Y15851D02*
D03*
X12475Y15900D02*
D03*
M02*
