G04*
G04 #@! TF.GenerationSoftware,Altium Limited,Altium Designer,18.1.9 (240)*
G04*
G04 Layer_Physical_Order=1*
G04 Layer_Color=255*
%FSLAX24Y24*%
%MOIN*%
G70*
G01*
G75*
%ADD14C,0.0100*%
%ADD17C,0.0200*%
%ADD18C,0.0060*%
%ADD20C,0.0050*%
%ADD23R,0.0394X0.0709*%
%ADD24R,0.0386X0.0366*%
%ADD25R,0.0394X0.0327*%
%ADD26R,0.0366X0.0386*%
%ADD27O,0.0236X0.0709*%
%ADD28R,0.0579X0.0457*%
%ADD29R,0.0748X0.0945*%
%ADD30R,0.0433X0.0236*%
%ADD31R,0.0394X0.0787*%
%ADD32R,0.0787X0.0394*%
%ADD33R,0.0610X0.0157*%
%ADD34R,0.0748X0.0709*%
%ADD35R,0.0236X0.0433*%
%ADD36R,0.1024X0.0709*%
%ADD37R,0.0394X0.0492*%
%ADD38R,0.0457X0.0579*%
%ADD39R,0.0492X0.0276*%
%ADD40C,0.0591*%
%ADD41R,0.0087X0.0787*%
%ADD42R,0.0787X0.0087*%
%ADD43O,0.0787X0.0087*%
%ADD44O,0.0709X0.0110*%
%ADD45O,0.0110X0.0709*%
%ADD46R,0.0315X0.0315*%
%ADD47O,0.0335X0.0138*%
%ADD48R,0.0335X0.0138*%
%ADD81C,0.0300*%
%ADD82R,0.0591X0.0591*%
%ADD83R,0.0591X0.0591*%
%ADD84R,0.0591X0.0315*%
%ADD85C,0.0197*%
%ADD86C,0.0472*%
%ADD87C,0.1378*%
%ADD88C,0.0220*%
G36*
X17386Y28631D02*
Y26350D01*
X20238D01*
Y24044D01*
X20238Y24044D01*
X20246Y24001D01*
X20271Y23964D01*
X20478Y23757D01*
X20490Y23698D01*
X20527Y23642D01*
X20584Y23604D01*
X20650Y23591D01*
X20716Y23604D01*
X20773Y23642D01*
X20810Y23698D01*
X20823Y23764D01*
X20810Y23831D01*
X20773Y23887D01*
X20716Y23924D01*
X20650Y23938D01*
X20621Y23932D01*
X20462Y24090D01*
Y24478D01*
X20512Y24504D01*
X20534Y24490D01*
X20600Y24477D01*
X20666Y24490D01*
X20723Y24527D01*
X20760Y24584D01*
X20773Y24650D01*
X20760Y24716D01*
X20723Y24773D01*
X20712Y24780D01*
Y27450D01*
X20774D01*
Y27393D01*
X21619D01*
Y21978D01*
X21569Y21957D01*
X20549Y22977D01*
X20513Y23002D01*
X20470Y23010D01*
X20470Y23010D01*
X19699D01*
X19050Y23659D01*
Y24100D01*
X18250Y24900D01*
X17809D01*
X16112Y26596D01*
Y27400D01*
X16246D01*
Y27393D01*
X17150D01*
Y26374D01*
X17076Y26300D01*
X17114Y26262D01*
X17327D01*
X17336Y28631D01*
X17386Y28631D01*
D02*
G37*
G36*
X39250Y150D02*
X39254Y146D01*
X39235Y100D01*
X100D01*
Y11300D01*
Y31400D01*
X17150D01*
Y30907D01*
X16246D01*
Y30393D01*
Y29893D01*
Y29762D01*
X16150D01*
X16107Y29754D01*
X16071Y29729D01*
X16071Y29729D01*
X15671Y29329D01*
X15646Y29293D01*
X15638Y29250D01*
X15638Y29250D01*
Y26450D01*
X15638Y26450D01*
X15646Y26407D01*
X15671Y26371D01*
X17095Y24946D01*
X17076Y24900D01*
X16882D01*
X15253Y26529D01*
X15217Y26554D01*
X15174Y26562D01*
X15174Y26562D01*
X1896D01*
X1468Y26990D01*
X1496Y27057D01*
X1508Y27150D01*
X1496Y27243D01*
X1460Y27329D01*
X1403Y27403D01*
X1329Y27460D01*
X1243Y27496D01*
X1150Y27508D01*
X1057Y27496D01*
X971Y27460D01*
X897Y27403D01*
X840Y27329D01*
X804Y27243D01*
X792Y27150D01*
X804Y27057D01*
X840Y26971D01*
X897Y26897D01*
X971Y26840D01*
X1057Y26804D01*
X1150Y26792D01*
X1243Y26804D01*
X1310Y26832D01*
X1771Y26371D01*
X1771Y26371D01*
X1807Y26346D01*
X1850Y26338D01*
X15127D01*
X16519Y24946D01*
X16500Y24900D01*
X16409D01*
X15079Y26229D01*
X15043Y26254D01*
X15000Y26262D01*
X15000Y26262D01*
X1488D01*
X1460Y26329D01*
X1403Y26403D01*
X1329Y26460D01*
X1243Y26496D01*
X1150Y26508D01*
X1057Y26496D01*
X971Y26460D01*
X897Y26403D01*
X840Y26329D01*
X804Y26243D01*
X792Y26150D01*
X804Y26057D01*
X840Y25971D01*
X897Y25897D01*
X971Y25840D01*
X1057Y25804D01*
X1150Y25792D01*
X1243Y25804D01*
X1329Y25840D01*
X1403Y25897D01*
X1460Y25971D01*
X1488Y26038D01*
X14954D01*
X16045Y24946D01*
X16026Y24900D01*
X15859D01*
X14841Y25917D01*
X14805Y25942D01*
X14762Y25950D01*
X14762Y25950D01*
X1838D01*
X1795Y25942D01*
X1759Y25917D01*
X1759Y25917D01*
X1347Y25505D01*
X795D01*
Y24795D01*
X1505D01*
Y25347D01*
X1885Y25726D01*
X14715D01*
X15495Y24946D01*
X15476Y24900D01*
X8050D01*
X7950Y24800D01*
Y24662D01*
X4444D01*
X4401Y24654D01*
X4365Y24629D01*
X4365Y24629D01*
X3521Y23785D01*
X3496Y23749D01*
X3488Y23706D01*
X3488Y23706D01*
Y22600D01*
X3038D01*
X2950Y22512D01*
X946D01*
X759Y22700D01*
Y22864D01*
X2237D01*
Y23370D01*
X2106D01*
Y23556D01*
X2097Y23599D01*
X2073Y23636D01*
X2073Y23636D01*
X1932Y23776D01*
X1896Y23800D01*
X1853Y23809D01*
X1853Y23809D01*
X552D01*
X509Y23800D01*
X473Y23776D01*
X473Y23776D01*
X274Y23578D01*
X250Y23541D01*
X242Y23498D01*
X242Y23498D01*
Y9946D01*
X242Y9946D01*
X250Y9903D01*
X274Y9867D01*
X1021Y9121D01*
X1021Y9121D01*
X1057Y9096D01*
X1100Y9088D01*
X8600D01*
X8600Y9088D01*
X8643Y9096D01*
X8679Y9121D01*
X10029Y10471D01*
X10029Y10471D01*
X10054Y10507D01*
X10062Y10550D01*
Y11300D01*
X10267D01*
Y11196D01*
X10238D01*
Y10710D01*
X10743D01*
Y10739D01*
X11204D01*
Y10710D01*
X11710D01*
Y10736D01*
X11950D01*
X12032Y10752D01*
X12101Y10799D01*
X12121Y10828D01*
X12171Y10813D01*
Y10710D01*
X12677D01*
Y10739D01*
X13138D01*
Y10710D01*
X13643D01*
Y10739D01*
X13747D01*
X13829Y10755D01*
X13898Y10802D01*
X13945Y10871D01*
X13961Y10953D01*
X13945Y11035D01*
X13898Y11105D01*
X13829Y11174D01*
Y11300D01*
X17476D01*
X17495Y11254D01*
X16654Y10412D01*
X14700D01*
X14700Y10412D01*
X14657Y10404D01*
X14621Y10379D01*
X13254Y9012D01*
X9150D01*
X9150Y9012D01*
X9107Y9004D01*
X9071Y8979D01*
X9071Y8979D01*
X8271Y8179D01*
X8246Y8143D01*
X8238Y8100D01*
X8238Y8100D01*
Y7043D01*
X8238Y7043D01*
X8246Y7000D01*
X8271Y6964D01*
X8625Y6610D01*
X8625Y6610D01*
X8661Y6585D01*
X8699Y6578D01*
Y6432D01*
Y5932D01*
Y5432D01*
Y4932D01*
Y4432D01*
Y3932D01*
Y3432D01*
Y2932D01*
Y2432D01*
Y1932D01*
X9550D01*
Y1400D01*
X9593D01*
Y546D01*
X15607D01*
Y903D01*
X15628Y910D01*
X15657Y911D01*
X15699Y849D01*
X15768Y802D01*
X15850Y786D01*
X17846D01*
X17928Y802D01*
X17997Y849D01*
X18044Y918D01*
X18060Y1000D01*
X18044Y1082D01*
X17997Y1151D01*
X17928Y1198D01*
X17846Y1214D01*
X15850D01*
X15768Y1198D01*
X15699Y1151D01*
X15657Y1089D01*
X15628Y1090D01*
X15607Y1097D01*
Y1400D01*
X19150D01*
X19100Y1450D01*
Y1586D01*
X20211D01*
X20536Y1261D01*
Y800D01*
X20552Y718D01*
X20599Y649D01*
X20999Y249D01*
X21068Y202D01*
X21150Y186D01*
X25950D01*
X26032Y202D01*
X26101Y249D01*
X26148Y318D01*
X26164Y400D01*
X26148Y482D01*
X26101Y551D01*
X26032Y598D01*
X25950Y614D01*
X21239D01*
X20964Y889D01*
Y1350D01*
X20948Y1432D01*
X20901Y1501D01*
X20451Y1951D01*
X20382Y1998D01*
X20300Y2014D01*
X19100D01*
Y7138D01*
X19326D01*
X19326Y7138D01*
X19369Y7146D01*
X19405Y7171D01*
X20222Y7988D01*
X20327D01*
X20337Y7938D01*
X20271Y7910D01*
X20197Y7853D01*
X20140Y7779D01*
X20104Y7693D01*
X20092Y7600D01*
X20104Y7507D01*
X20140Y7421D01*
X20197Y7347D01*
X20271Y7290D01*
X20357Y7254D01*
X20450Y7242D01*
X20543Y7254D01*
X20610Y7282D01*
X20688Y7204D01*
Y3900D01*
X20688Y3900D01*
X20696Y3857D01*
X20721Y3821D01*
X22382Y2160D01*
X22354Y2093D01*
X22342Y2000D01*
X22354Y1907D01*
X22390Y1821D01*
X22447Y1747D01*
X22521Y1690D01*
X22607Y1654D01*
X22700Y1642D01*
X22793Y1654D01*
X22879Y1690D01*
X22953Y1747D01*
X23010Y1821D01*
X23046Y1907D01*
X23058Y2000D01*
X23046Y2093D01*
X23010Y2179D01*
X22969Y2234D01*
X22993Y2284D01*
X23407D01*
X23431Y2234D01*
X23390Y2179D01*
X23354Y2093D01*
X23342Y2000D01*
X23354Y1907D01*
X23390Y1821D01*
X23447Y1747D01*
X23521Y1690D01*
X23607Y1654D01*
X23700Y1642D01*
X23793Y1654D01*
X23879Y1690D01*
X23953Y1747D01*
X24010Y1821D01*
X24046Y1907D01*
X24058Y2000D01*
X24046Y2093D01*
X24010Y2179D01*
X23953Y2253D01*
X23879Y2310D01*
X23812Y2338D01*
Y2350D01*
X23812Y2350D01*
X23804Y2393D01*
X23779Y2429D01*
X23779Y2429D01*
X23579Y2629D01*
X23543Y2654D01*
X23500Y2662D01*
X23500Y2662D01*
X23438D01*
X23300Y2800D01*
X22459D01*
X21212Y4046D01*
Y7204D01*
X21290Y7282D01*
X21357Y7254D01*
X21450Y7242D01*
X21543Y7254D01*
X21629Y7290D01*
X21703Y7347D01*
X21760Y7421D01*
X21796Y7507D01*
X21808Y7600D01*
X21796Y7693D01*
X21760Y7779D01*
X21703Y7853D01*
X21629Y7910D01*
X21543Y7946D01*
X21450Y7958D01*
X21357Y7946D01*
X21271Y7910D01*
X21197Y7853D01*
X21142Y7782D01*
X21136Y7781D01*
X21092Y7803D01*
Y8397D01*
X21136Y8419D01*
X21142Y8418D01*
X21197Y8347D01*
X21271Y8290D01*
X21357Y8254D01*
X21450Y8242D01*
X21543Y8254D01*
X21629Y8290D01*
X21703Y8347D01*
X21760Y8421D01*
X21788Y8488D01*
X26850D01*
X26850Y8488D01*
X26893Y8496D01*
X26929Y8521D01*
X27179Y8771D01*
X27179Y8771D01*
X27204Y8807D01*
X27212Y8850D01*
Y10654D01*
X27388Y10829D01*
X27400Y10827D01*
X27466Y10840D01*
X27523Y10877D01*
X27560Y10934D01*
X27573Y11000D01*
X27560Y11066D01*
X27523Y11123D01*
X27477Y11153D01*
X27463Y11196D01*
X27461Y11212D01*
X27476Y11232D01*
X27516Y11240D01*
X27573Y11277D01*
X27610Y11334D01*
X27623Y11400D01*
X27610Y11466D01*
X27573Y11523D01*
X27516Y11560D01*
X27450Y11573D01*
X27384Y11560D01*
X27327Y11523D01*
X27290Y11466D01*
X27277Y11400D01*
X27279Y11388D01*
X26771Y10879D01*
X26746Y10843D01*
X26738Y10800D01*
X26738Y10800D01*
Y9046D01*
X26654Y8962D01*
X22530D01*
X22312Y9180D01*
Y10616D01*
X22304Y10659D01*
X22279Y10695D01*
X22279Y10695D01*
X21845Y11129D01*
X21809Y11154D01*
X21766Y11162D01*
X21766Y11162D01*
X20900D01*
X20900Y11162D01*
X20857Y11154D01*
X20821Y11129D01*
X20821Y11129D01*
X20610Y10918D01*
X20543Y10946D01*
X20450Y10958D01*
X20357Y10946D01*
X20271Y10910D01*
X20197Y10853D01*
X20140Y10779D01*
X20104Y10693D01*
X20092Y10600D01*
X20104Y10507D01*
X20140Y10421D01*
X20197Y10347D01*
X20271Y10290D01*
X20357Y10254D01*
X20450Y10242D01*
X20543Y10254D01*
X20610Y10282D01*
X20743Y10148D01*
Y9877D01*
X20693Y9861D01*
X20629Y9910D01*
X20543Y9946D01*
X20450Y9958D01*
X20357Y9946D01*
X20290Y9918D01*
X20229Y9979D01*
X20193Y10004D01*
X20150Y10012D01*
X20150Y10012D01*
X16941D01*
X16921Y10062D01*
X18159Y11300D01*
X18250D01*
X18350Y11400D01*
Y11491D01*
X19863Y13005D01*
X22417D01*
X22417Y13005D01*
X22460Y13013D01*
X22496Y13038D01*
X24578Y15120D01*
X25983D01*
X25996Y15105D01*
X26015Y15070D01*
X26008Y15035D01*
X26017Y14990D01*
X26042Y14952D01*
Y14921D01*
X26017Y14883D01*
X26008Y14838D01*
X26017Y14793D01*
X26042Y14755D01*
Y14724D01*
X26017Y14686D01*
X26008Y14641D01*
X26015Y14607D01*
X25996Y14572D01*
X25983Y14557D01*
X25143D01*
X25143Y14557D01*
X25100Y14565D01*
X25057Y14557D01*
X25021Y14532D01*
X24996Y14496D01*
X24988Y14453D01*
X24996Y14410D01*
X25021Y14374D01*
X25029Y14365D01*
X25029Y14365D01*
X25066Y14341D01*
X25109Y14332D01*
X25300D01*
Y14090D01*
X24847D01*
Y13604D01*
X25353D01*
Y13735D01*
X25597D01*
X25597Y13735D01*
X25640Y13743D01*
X25676Y13768D01*
X26044Y14135D01*
X26099D01*
X26125Y14130D01*
X26724D01*
X26727Y14131D01*
X26777Y14098D01*
Y13850D01*
X27006D01*
X27016Y13838D01*
Y13240D01*
X27025Y13195D01*
X27050Y13157D01*
X27088Y13131D01*
X27133Y13122D01*
X27178Y13131D01*
X27216Y13157D01*
X27247D01*
X27285Y13131D01*
X27330Y13122D01*
X27365Y13129D01*
X27400Y13110D01*
X27415Y13098D01*
Y12978D01*
X27299Y12862D01*
X24656D01*
X24613Y12854D01*
X24577Y12829D01*
X24577Y12829D01*
X24375Y12627D01*
X24350Y12591D01*
X24342Y12548D01*
X24342Y12548D01*
Y12364D01*
X24197D01*
Y11536D01*
X24342D01*
Y10893D01*
X24197D01*
Y10407D01*
X24703D01*
Y10893D01*
X24566D01*
Y11536D01*
X24711D01*
Y12364D01*
X24566D01*
Y12501D01*
X24703Y12638D01*
X27345D01*
X27345Y12638D01*
X27388Y12646D01*
X27424Y12671D01*
X27561Y12808D01*
X27611Y12787D01*
Y12153D01*
X27520Y12062D01*
X25695D01*
Y12364D01*
X25181D01*
Y11536D01*
X25388D01*
Y10893D01*
X25247D01*
Y10407D01*
X25753D01*
Y10893D01*
X25612D01*
Y11536D01*
X25695D01*
Y11838D01*
X27567D01*
X27567Y11838D01*
X27610Y11846D01*
X27646Y11871D01*
X27758Y11983D01*
X27808Y11962D01*
Y10780D01*
X27697D01*
Y10293D01*
X28203D01*
Y10424D01*
X28344D01*
X28578Y10190D01*
X28578Y10190D01*
X28615Y10166D01*
X28658Y10157D01*
X28658Y10157D01*
X28859D01*
Y9737D01*
X29181D01*
Y9257D01*
X29181Y9257D01*
X29189Y9214D01*
X29214Y9178D01*
X29437Y8954D01*
X29437Y8954D01*
X29474Y8930D01*
X29517Y8921D01*
X29558Y8893D01*
Y8780D01*
X30044D01*
Y9286D01*
X29558D01*
Y9216D01*
X29511Y9197D01*
X29405Y9304D01*
Y9737D01*
X29727D01*
Y10802D01*
X28859D01*
Y10382D01*
X28704D01*
X28470Y10616D01*
X28434Y10640D01*
X28391Y10649D01*
X28391Y10649D01*
X28203D01*
Y10780D01*
X28033D01*
Y11565D01*
X28083Y11586D01*
X28648Y11021D01*
X28648Y11021D01*
X28684Y10996D01*
X28727Y10988D01*
X28727Y10988D01*
X30654D01*
X30789Y10852D01*
X30782Y10802D01*
X30473D01*
Y9737D01*
X30795D01*
Y9287D01*
X30700Y9192D01*
X30650Y9213D01*
Y9286D01*
X30164D01*
Y8780D01*
X30650D01*
Y8921D01*
X30700D01*
X30700Y8921D01*
X30742Y8930D01*
X30779Y8954D01*
X30986Y9162D01*
X31011Y9198D01*
X31019Y9241D01*
X31019Y9241D01*
Y9737D01*
X31341D01*
Y10157D01*
X31570D01*
X31570Y10157D01*
X31612Y10166D01*
X31649Y10190D01*
X31816Y10357D01*
X32047D01*
Y10293D01*
X32553D01*
Y10780D01*
X32047D01*
Y10582D01*
X31770D01*
X31770Y10582D01*
X31727Y10573D01*
X31690Y10549D01*
X31690Y10549D01*
X31523Y10382D01*
X31341D01*
Y10802D01*
X31019D01*
Y10893D01*
X31061Y10938D01*
X36254D01*
X37728Y9463D01*
Y8471D01*
X37597D01*
Y7965D01*
X37728D01*
Y7477D01*
X37597D01*
Y6971D01*
X37728D01*
Y6671D01*
X37728Y6671D01*
X37737Y6628D01*
X37761Y6591D01*
X38270Y6083D01*
X38270Y6083D01*
X38306Y6059D01*
X38349Y6050D01*
X38412D01*
X38440Y5983D01*
X38497Y5909D01*
X38571Y5852D01*
X38657Y5816D01*
X38750Y5804D01*
X38843Y5816D01*
X38929Y5852D01*
X39003Y5909D01*
X39060Y5983D01*
X39096Y6069D01*
X39108Y6162D01*
X39096Y6255D01*
X39060Y6341D01*
X39003Y6416D01*
X38929Y6473D01*
X38843Y6508D01*
X38750Y6521D01*
X38657Y6508D01*
X38571Y6473D01*
X38497Y6416D01*
X38440Y6341D01*
X38428Y6313D01*
X38369Y6301D01*
X37953Y6717D01*
Y6971D01*
X38084D01*
Y7477D01*
X37953D01*
Y7965D01*
X38084D01*
Y8471D01*
X37953D01*
Y9509D01*
X37953Y9509D01*
X37944Y9552D01*
X37920Y9589D01*
X37920Y9589D01*
X36379Y11129D01*
X36343Y11154D01*
X36300Y11162D01*
X36300Y11162D01*
X31023D01*
X30846Y11339D01*
X30838Y11344D01*
X30853Y11394D01*
X31253D01*
Y11423D01*
X36400D01*
X36482Y11439D01*
X36551Y11486D01*
X37151Y12086D01*
X37701D01*
Y11994D01*
X38215D01*
X38233Y11951D01*
Y8471D01*
X38204D01*
Y7965D01*
X38690D01*
Y8471D01*
X38661D01*
Y9140D01*
X38711Y9155D01*
X38749Y9099D01*
X38818Y9052D01*
X38900Y9036D01*
X38982Y9052D01*
X39051Y9099D01*
X39098Y9168D01*
X39114Y9250D01*
Y16497D01*
X39098Y16579D01*
X39051Y16648D01*
X38548Y17151D01*
X38479Y17198D01*
X38397Y17214D01*
X38104D01*
Y17253D01*
X38075D01*
Y17989D01*
X38059Y18071D01*
X38013Y18140D01*
X36514Y19639D01*
Y21050D01*
X36498Y21132D01*
X36451Y21201D01*
X36382Y21248D01*
X36300Y21264D01*
X36218Y21248D01*
X36149Y21201D01*
X36102Y21132D01*
X36086Y21050D01*
Y19550D01*
X36102Y19468D01*
X36149Y19399D01*
X37647Y17900D01*
Y17253D01*
X37618D01*
Y16747D01*
X37647D01*
Y16564D01*
X37285D01*
X37203Y16548D01*
X37133Y16501D01*
X36983Y16351D01*
X36936Y16281D01*
X36920Y16199D01*
Y15851D01*
X36936Y15769D01*
X36956Y15740D01*
Y15575D01*
X37312D01*
Y15740D01*
X37332Y15769D01*
X37348Y15851D01*
Y16111D01*
X37373Y16136D01*
X37623D01*
X37647Y16111D01*
Y15872D01*
X37663Y15790D01*
X37704Y15729D01*
Y15575D01*
X38060D01*
Y15740D01*
X38080Y15769D01*
X38096Y15851D01*
X38080Y15933D01*
X38075Y15940D01*
Y16200D01*
Y16747D01*
X38104D01*
Y16786D01*
X38308D01*
X38686Y16408D01*
Y13933D01*
X38636Y13918D01*
X38598Y13975D01*
X38521Y14051D01*
X38452Y14098D01*
X38370Y14114D01*
X38211D01*
Y14143D01*
X38096D01*
Y14749D01*
X38080Y14831D01*
X38060Y14860D01*
Y15025D01*
X37704D01*
Y14860D01*
X37684Y14831D01*
X37668Y14749D01*
Y13976D01*
X37684Y13894D01*
X37705Y13863D01*
Y13657D01*
X38211D01*
X38233Y13616D01*
Y12649D01*
X38215Y12606D01*
X37701D01*
Y12514D01*
X37239D01*
X35965Y13788D01*
X35895Y13835D01*
X35813Y13851D01*
X35755D01*
Y13880D01*
X35698D01*
Y14749D01*
X35736D01*
Y14778D01*
X36042D01*
X36124Y14794D01*
X36194Y14841D01*
X36251Y14899D01*
X36298Y14968D01*
X36314Y15050D01*
Y16698D01*
X36298Y16780D01*
X36251Y16849D01*
X36100Y17000D01*
X36031Y17047D01*
X35949Y17063D01*
X35736D01*
Y17110D01*
X35231D01*
Y16624D01*
X35736D01*
Y16635D01*
X35860D01*
X35886Y16609D01*
Y15206D01*
X35736D01*
Y15235D01*
X35231D01*
Y14749D01*
X35269D01*
Y13880D01*
X35249D01*
Y13394D01*
X35754D01*
X36804Y12344D01*
X36311Y11851D01*
X31889D01*
X31870Y11898D01*
X32851Y12879D01*
X32898Y12949D01*
X32914Y13030D01*
Y14500D01*
X32898Y14582D01*
X32851Y14651D01*
X32699Y14803D01*
X32630Y14850D01*
X32548Y14866D01*
X32353D01*
Y14895D01*
X31847D01*
Y14753D01*
X31236D01*
X31223Y14768D01*
X31204Y14803D01*
X31211Y14838D01*
X31202Y14883D01*
X31177Y14921D01*
Y14952D01*
X31202Y14990D01*
X31211Y15035D01*
X31202Y15080D01*
X31177Y15118D01*
Y15149D01*
X31202Y15187D01*
X31211Y15232D01*
X31202Y15277D01*
X31177Y15315D01*
Y15346D01*
X31202Y15384D01*
X31211Y15429D01*
X31204Y15463D01*
X31223Y15498D01*
X31236Y15513D01*
X32928D01*
X33513Y14929D01*
X33513Y14929D01*
X33549Y14905D01*
X33592Y14896D01*
X33592Y14896D01*
X34214D01*
Y14765D01*
X34720D01*
Y15063D01*
X34766Y15082D01*
X34838Y15010D01*
Y13296D01*
X34766Y13225D01*
X34720Y13244D01*
Y13293D01*
X34214D01*
Y12807D01*
X34720D01*
Y12902D01*
X34750Y12938D01*
X34793Y12946D01*
X34829Y12971D01*
X35029Y13171D01*
X35029Y13171D01*
X35054Y13207D01*
X35062Y13250D01*
X35062Y13250D01*
Y15057D01*
X35062Y15057D01*
X35054Y15100D01*
X35029Y15136D01*
X34765Y15401D01*
X34728Y15425D01*
X34720Y15427D01*
Y15486D01*
X35231D01*
Y15355D01*
X35736D01*
Y15842D01*
X35231D01*
Y15711D01*
X34720D01*
Y15858D01*
X34214D01*
Y15434D01*
X33619D01*
X33151Y15902D01*
X33114Y15926D01*
X33071Y15935D01*
X33071Y15935D01*
X31236D01*
X31223Y15950D01*
X31204Y15985D01*
X31211Y16019D01*
X31202Y16064D01*
X31177Y16102D01*
Y16133D01*
X31202Y16171D01*
X31211Y16216D01*
X31204Y16251D01*
X31223Y16286D01*
X31236Y16301D01*
X32413D01*
X32413Y16301D01*
X32456Y16309D01*
X32492Y16334D01*
X32779Y16621D01*
X32779Y16621D01*
X32804Y16657D01*
X32812Y16700D01*
X32812Y16700D01*
Y17900D01*
X32804Y17943D01*
X32779Y17979D01*
X32779Y17979D01*
X32029Y18729D01*
X31993Y18754D01*
X31950Y18762D01*
X31950Y18762D01*
X29356D01*
X29300Y18773D01*
X29234Y18760D01*
X29177Y18723D01*
X29140Y18666D01*
X29127Y18600D01*
X29140Y18534D01*
X29177Y18477D01*
X29234Y18440D01*
X29300Y18427D01*
X29366Y18440D01*
X29423Y18477D01*
X29460Y18534D01*
X29461Y18538D01*
X31904D01*
X32588Y17854D01*
Y16746D01*
X32366Y16525D01*
X31236D01*
X31223Y16540D01*
X31204Y16575D01*
X31211Y16610D01*
X31202Y16655D01*
X31177Y16693D01*
Y16724D01*
X31202Y16762D01*
X31211Y16807D01*
X31204Y16841D01*
X31223Y16876D01*
X31236Y16891D01*
X32067D01*
X32100Y16885D01*
X32143Y16893D01*
X32179Y16918D01*
X32204Y16954D01*
X32212Y16997D01*
X32204Y17040D01*
X32179Y17076D01*
X32173Y17083D01*
X32136Y17107D01*
X32093Y17116D01*
X32093Y17116D01*
X31900D01*
Y17360D01*
X32353D01*
Y17846D01*
X31847D01*
Y17715D01*
X31503D01*
X31460Y17707D01*
X31424Y17682D01*
X31424Y17682D01*
X31371Y17629D01*
X31346Y17593D01*
X31338Y17550D01*
X31338Y17550D01*
Y17397D01*
X31254Y17312D01*
X31120D01*
X31094Y17318D01*
X30495D01*
X30450Y17356D01*
Y17421D01*
X27754Y17435D01*
Y17498D01*
X27768Y17501D01*
X27807Y17527D01*
X27837D01*
X27875Y17501D01*
X27920Y17492D01*
X27965Y17501D01*
X28003Y17527D01*
X28034D01*
X28072Y17501D01*
X28117Y17492D01*
X28162Y17501D01*
X28200Y17527D01*
X28231D01*
X28269Y17501D01*
X28314Y17492D01*
X28359Y17501D01*
X28397Y17527D01*
X28428D01*
X28466Y17501D01*
X28511Y17492D01*
X28556Y17501D01*
X28574Y17513D01*
X28609Y17523D01*
X28645Y17513D01*
X28663Y17501D01*
X28708Y17492D01*
X28753Y17501D01*
X28791Y17527D01*
X28822D01*
X28860Y17501D01*
X28905Y17492D01*
X28950Y17501D01*
X28988Y17527D01*
X29018D01*
X29057Y17501D01*
X29101Y17492D01*
X29146Y17501D01*
X29184Y17527D01*
X29215D01*
X29253Y17501D01*
X29298Y17492D01*
X29343Y17501D01*
X29381Y17527D01*
X29412D01*
X29450Y17501D01*
X29495Y17492D01*
X29540Y17501D01*
X29578Y17527D01*
X29609D01*
X29647Y17501D01*
X29692Y17492D01*
X29737Y17501D01*
X29775Y17527D01*
X29806D01*
X29844Y17501D01*
X29889Y17492D01*
X29934Y17501D01*
X29972Y17527D01*
X30003D01*
X30041Y17501D01*
X30086Y17492D01*
X30131Y17501D01*
X30169Y17527D01*
X30194Y17565D01*
X30203Y17610D01*
Y18208D01*
X30194Y18253D01*
X30169Y18291D01*
X30131Y18317D01*
X30086Y18326D01*
X30041Y18317D01*
X30003Y18291D01*
X29972D01*
X29934Y18317D01*
X29889Y18326D01*
X29844Y18317D01*
X29806Y18291D01*
X29775D01*
X29737Y18317D01*
X29692Y18326D01*
X29647Y18317D01*
X29609Y18291D01*
X29578D01*
X29540Y18317D01*
X29495Y18326D01*
X29450Y18317D01*
X29412Y18291D01*
X29381D01*
X29343Y18317D01*
X29298Y18326D01*
X29253Y18317D01*
X29215Y18291D01*
X29184D01*
X29146Y18317D01*
X29101Y18326D01*
X29057Y18317D01*
X29018Y18291D01*
X28988D01*
X28950Y18317D01*
X28905Y18326D01*
X28860Y18317D01*
X28822Y18291D01*
X28791D01*
X28753Y18317D01*
X28708Y18326D01*
X28663Y18317D01*
X28645Y18305D01*
X28609Y18295D01*
X28574Y18305D01*
X28556Y18317D01*
X28511Y18326D01*
X28476Y18319D01*
X28441Y18338D01*
X28426Y18350D01*
Y18524D01*
X28804Y18902D01*
X30364D01*
X30364Y18902D01*
X30407Y18911D01*
X30443Y18935D01*
X31196Y19688D01*
X31756D01*
X31756Y19688D01*
X31799Y19696D01*
X31836Y19721D01*
X31973Y19858D01*
X31997Y19894D01*
X32006Y19937D01*
X32040Y19969D01*
X32282D01*
Y19890D01*
X32221Y19829D01*
X32196Y19793D01*
X32188Y19750D01*
X32188Y19750D01*
Y19600D01*
X32057D01*
Y19094D01*
X32543D01*
Y19600D01*
X32412D01*
Y19704D01*
X32473Y19764D01*
X32473Y19764D01*
X32497Y19801D01*
X32506Y19844D01*
X32506Y19844D01*
Y19969D01*
X32824D01*
X32894Y19955D01*
X32963Y19969D01*
X33324D01*
X33394Y19955D01*
X33463Y19969D01*
X33824D01*
X33894Y19955D01*
X33963Y19969D01*
X34324D01*
X34394Y19955D01*
X34463Y19969D01*
X34483D01*
X34600Y20086D01*
Y21432D01*
X36920D01*
Y21149D01*
X37342D01*
X37369Y21099D01*
X37352Y21074D01*
X37340Y21013D01*
X37352Y20951D01*
X37387Y20898D01*
X37440Y20863D01*
X37501Y20851D01*
X37563Y20863D01*
X37616Y20898D01*
X37651Y20951D01*
X37663Y21013D01*
X37651Y21074D01*
X37634Y21099D01*
X37650Y21149D01*
D01*
X37686Y21183D01*
X37692Y21185D01*
X37729Y21209D01*
X37889Y21369D01*
X37889Y21369D01*
X37913Y21406D01*
X37922Y21449D01*
Y22935D01*
X37924Y22943D01*
X37979Y22958D01*
X37993Y22945D01*
Y22695D01*
X38703D01*
Y22980D01*
X38802D01*
Y23809D01*
X37972D01*
X37933Y23809D01*
X37922Y23854D01*
Y24296D01*
X37933Y24341D01*
X37972Y24341D01*
X38802D01*
Y25170D01*
X38703D01*
Y25455D01*
X37993D01*
Y25205D01*
X37979Y25192D01*
X37924Y25207D01*
X37922Y25215D01*
Y25949D01*
X37922Y25949D01*
X37922Y25949D01*
Y25983D01*
X37961Y26009D01*
X38008Y26079D01*
X38024Y26161D01*
Y27245D01*
X38703D01*
Y27530D01*
X38802D01*
Y28359D01*
X37933D01*
Y27540D01*
X37891Y27512D01*
X35951Y29451D01*
X35882Y29498D01*
X35800Y29514D01*
X33639D01*
X33364Y29789D01*
Y29964D01*
X33505D01*
Y30674D01*
X32795D01*
Y30507D01*
X32039D01*
Y30642D01*
X30761D01*
Y30414D01*
X29565D01*
X29485Y30494D01*
X29518Y30532D01*
X29543Y30513D01*
X29615Y30483D01*
X29692Y30473D01*
X29769Y30483D01*
X29841Y30513D01*
X29903Y30560D01*
X29951Y30622D01*
X29981Y30694D01*
X29991Y30772D01*
X29981Y30849D01*
X29951Y30921D01*
X29903Y30983D01*
X29841Y31030D01*
X29769Y31060D01*
X29692Y31070D01*
X29615Y31060D01*
X29543Y31030D01*
X29481Y30983D01*
X29433Y30921D01*
X29403Y30849D01*
X29393Y30772D01*
X29403Y30694D01*
X29433Y30622D01*
X29452Y30598D01*
X29415Y30565D01*
X29203Y30776D01*
X29193Y30849D01*
X29163Y30921D01*
X29116Y30983D01*
X29054Y31030D01*
X28982Y31060D01*
X28905Y31070D01*
X28827Y31060D01*
X28755Y31030D01*
X28693Y30983D01*
X28646Y30921D01*
X28616Y30849D01*
X28606Y30772D01*
X28616Y30694D01*
X28646Y30622D01*
X28693Y30560D01*
X28755Y30513D01*
X28827Y30483D01*
X28900Y30473D01*
X29325Y30049D01*
X29394Y30002D01*
X29476Y29986D01*
X30761D01*
Y29943D01*
X31338D01*
Y29986D01*
X31462D01*
Y29943D01*
X32039D01*
Y30078D01*
X32795D01*
Y29964D01*
X32936D01*
Y29700D01*
X32952Y29618D01*
X32999Y29549D01*
X33399Y29149D01*
X33468Y29102D01*
X33550Y29086D01*
X35711D01*
X37461Y27336D01*
X37447Y27288D01*
X37440Y27287D01*
X37387Y27252D01*
X37352Y27199D01*
X37340Y27137D01*
X37352Y27076D01*
X37387Y27023D01*
X37440Y26988D01*
X37501Y26976D01*
X37546Y26985D01*
X37596Y26954D01*
Y26745D01*
X36920D01*
Y26462D01*
X36368D01*
X36322Y26509D01*
Y26651D01*
X35937Y27036D01*
Y27600D01*
X35451D01*
Y27600D01*
X35438Y27588D01*
X35330Y27590D01*
Y27600D01*
X34844D01*
Y27561D01*
X34566D01*
X34550Y27564D01*
X34468Y27548D01*
X34399Y27501D01*
X34352Y27432D01*
X34336Y27350D01*
X34352Y27268D01*
X34399Y27199D01*
X34402Y27195D01*
X34471Y27149D01*
X34553Y27133D01*
X34844D01*
Y26684D01*
X34701D01*
X34694Y26694D01*
X34638Y26732D01*
X34572Y26745D01*
X34506Y26732D01*
X34449Y26694D01*
X34412Y26638D01*
X34399Y26572D01*
X34412Y26506D01*
X34449Y26449D01*
X34506Y26412D01*
X34572Y26399D01*
X34638Y26412D01*
X34694Y26449D01*
X34701Y26460D01*
X34844D01*
Y25909D01*
X34701D01*
X34694Y25919D01*
X34638Y25957D01*
X34572Y25970D01*
X34506Y25957D01*
X34449Y25919D01*
X34412Y25863D01*
X34399Y25797D01*
X34412Y25731D01*
X34449Y25674D01*
X34506Y25637D01*
X34572Y25624D01*
X34638Y25637D01*
X34694Y25674D01*
X34701Y25685D01*
X34844D01*
Y25544D01*
X35937D01*
Y25556D01*
X36070Y25689D01*
X36090Y25693D01*
X36126Y25718D01*
X36391Y25982D01*
X36920D01*
Y25699D01*
X37342D01*
X37369Y25649D01*
X37352Y25624D01*
X37340Y25563D01*
X37352Y25501D01*
X37387Y25448D01*
X37440Y25413D01*
X37501Y25401D01*
X37563Y25413D01*
X37616Y25448D01*
X37621Y25457D01*
X37689Y25470D01*
X37698Y25464D01*
Y22686D01*
X37689Y22680D01*
X37621Y22693D01*
X37616Y22702D01*
X37563Y22737D01*
X37501Y22749D01*
X37440Y22737D01*
X37387Y22702D01*
X37352Y22649D01*
X37340Y22587D01*
X37352Y22526D01*
X37387Y22473D01*
X37440Y22438D01*
X37501Y22426D01*
X37563Y22438D01*
X37616Y22473D01*
X37621Y22482D01*
X37689Y22494D01*
X37698Y22489D01*
Y22200D01*
X37650Y22195D01*
Y22195D01*
X36920D01*
Y21912D01*
X34600D01*
Y22879D01*
X35323D01*
X35332Y22888D01*
X35444D01*
X35444Y22888D01*
X35487Y22896D01*
X35523Y22921D01*
X35729Y23127D01*
X35729Y23127D01*
X35754Y23163D01*
X35762Y23206D01*
Y24135D01*
X35762Y24135D01*
X35754Y24178D01*
X35729Y24214D01*
X35729Y24214D01*
X35679Y24264D01*
X35643Y24289D01*
X35600Y24297D01*
X35600Y24297D01*
X35428D01*
X35225Y24500D01*
X33264D01*
Y25048D01*
X33264Y25048D01*
X33255Y25091D01*
X33231Y25128D01*
X33231Y25128D01*
X33132Y25226D01*
X33096Y25250D01*
X33053Y25259D01*
X33053Y25259D01*
X32790D01*
Y25400D01*
X32704D01*
X32659Y25416D01*
X32650Y25459D01*
X32626Y25495D01*
X32392Y25729D01*
X32356Y25754D01*
X32313Y25762D01*
X32313Y25762D01*
X31597D01*
X31597Y25762D01*
X31554Y25754D01*
X31518Y25729D01*
X31518Y25729D01*
X31158Y25370D01*
X30837D01*
Y24923D01*
X31150D01*
Y24481D01*
X31130D01*
Y24086D01*
X31150D01*
Y23733D01*
X31130D01*
Y23421D01*
X30712Y23004D01*
Y22771D01*
X30662Y22766D01*
X30650Y22822D01*
Y22533D01*
X29859D01*
Y22717D01*
X29353D01*
Y22586D01*
X28857D01*
Y22717D01*
X28351D01*
Y22231D01*
X28857D01*
Y22362D01*
X29353D01*
Y22231D01*
X29859D01*
Y22308D01*
X30650D01*
Y19969D01*
X30825D01*
X30844Y19923D01*
X30233Y19312D01*
X28717D01*
X28717Y19312D01*
X28674Y19304D01*
X28638Y19279D01*
X28638Y19279D01*
X28038Y18679D01*
X28023Y18657D01*
X27976Y18645D01*
X27963Y18645D01*
X27912Y18696D01*
Y18770D01*
X27923Y18777D01*
X27960Y18834D01*
X27973Y18900D01*
X27960Y18966D01*
X27923Y19023D01*
X27866Y19060D01*
X27800Y19073D01*
X27734Y19060D01*
X27677Y19023D01*
X27663Y19001D01*
X27625Y18974D01*
X27599Y18988D01*
X27566Y19010D01*
X27500Y19023D01*
X27434Y19010D01*
X27377Y18973D01*
X27340Y18916D01*
X27327Y18850D01*
X27340Y18784D01*
X27377Y18727D01*
X27388Y18720D01*
Y18671D01*
X27388Y18671D01*
X27350Y18613D01*
X27334Y18610D01*
X27295Y18584D01*
X27245Y18607D01*
Y19147D01*
X27373D01*
Y19653D01*
X27344D01*
Y19747D01*
X27328Y19829D01*
X27281Y19898D01*
X27212Y19945D01*
X27150Y19957D01*
Y19962D01*
X26811D01*
X26766Y20007D01*
Y20101D01*
X28197Y21532D01*
X28197Y21532D01*
X28221Y21568D01*
X28229Y21611D01*
X28229Y21611D01*
Y23156D01*
X29146Y24073D01*
X29391D01*
Y23942D01*
X29897D01*
Y24428D01*
X29391D01*
Y24297D01*
X29100D01*
X29057Y24289D01*
X29021Y24264D01*
X29021Y24264D01*
X28038Y23282D01*
X28014Y23245D01*
X28005Y23202D01*
X28005Y23202D01*
Y21657D01*
X26574Y20227D01*
X26550Y20190D01*
X26542Y20147D01*
X26542Y20147D01*
Y19512D01*
X26314D01*
Y19653D01*
X25827D01*
Y19147D01*
X26314D01*
Y19288D01*
X26542D01*
Y17946D01*
X26542Y17946D01*
X26550Y17903D01*
X26574Y17867D01*
X26777Y17665D01*
Y17358D01*
X26727Y17317D01*
X26724Y17318D01*
X26125D01*
X26099Y17312D01*
X25980D01*
X25240Y18053D01*
X25260Y18084D01*
X25273Y18150D01*
X25260Y18216D01*
X25223Y18273D01*
X25166Y18310D01*
X25100Y18323D01*
X25034Y18310D01*
X24977Y18273D01*
X24962Y18250D01*
X24912Y18265D01*
Y19200D01*
X24912Y19200D01*
X24904Y19243D01*
X24879Y19279D01*
X24879Y19279D01*
X22062Y22096D01*
Y29400D01*
X22054Y29443D01*
X22029Y29479D01*
X22029Y29479D01*
X21779Y29729D01*
X21743Y29754D01*
X21700Y29762D01*
X21681Y29805D01*
Y30393D01*
Y30893D01*
Y31400D01*
X39250D01*
Y150D01*
D02*
G37*
G36*
X7950Y24062D02*
X7496D01*
Y24253D01*
X7010D01*
Y23747D01*
X7071D01*
X7092Y23697D01*
X7042Y23648D01*
X5811D01*
X5762Y23697D01*
X5782Y23747D01*
X5846D01*
Y24253D01*
X5360D01*
Y23747D01*
X5491D01*
Y23697D01*
X5491Y23697D01*
X5500Y23654D01*
X5524Y23618D01*
X5685Y23456D01*
X5685Y23456D01*
X5722Y23432D01*
X5765Y23423D01*
X5765Y23423D01*
X7089D01*
X7089Y23423D01*
X7132Y23432D01*
X7168Y23456D01*
X7332Y23621D01*
X7357Y23657D01*
X7365Y23700D01*
X7365Y23747D01*
X7496D01*
Y23838D01*
X7950D01*
Y23182D01*
X7496D01*
Y23323D01*
X7010D01*
Y22817D01*
X7074D01*
X7095Y22767D01*
X7042Y22714D01*
X5811D01*
X5762Y22764D01*
X5782Y22814D01*
X5846D01*
Y23320D01*
X5360D01*
Y22814D01*
X5491D01*
Y22764D01*
X5491Y22764D01*
X5500Y22721D01*
X5524Y22684D01*
X5685Y22523D01*
X5685Y22523D01*
X5722Y22499D01*
X5765Y22490D01*
X5765Y22490D01*
X7089D01*
X7089Y22490D01*
X7132Y22499D01*
X7168Y22523D01*
X7332Y22687D01*
X7357Y22724D01*
X7365Y22767D01*
X7365Y22767D01*
Y22817D01*
X7496D01*
Y22958D01*
X7950D01*
Y22252D01*
X7496D01*
Y22393D01*
X7010D01*
Y21887D01*
X7071D01*
X7092Y21837D01*
X7042Y21788D01*
X5811D01*
X5762Y21837D01*
X5782Y21887D01*
X5846D01*
Y22393D01*
X5360D01*
Y21887D01*
X5491D01*
Y21837D01*
X5491Y21837D01*
X5500Y21794D01*
X5524Y21758D01*
X5685Y21596D01*
X5685Y21596D01*
X5722Y21572D01*
X5765Y21563D01*
X5765Y21563D01*
X7089D01*
X7089Y21563D01*
X7132Y21572D01*
X7168Y21596D01*
X7332Y21761D01*
X7357Y21797D01*
X7365Y21840D01*
X7365Y21887D01*
X7496D01*
Y22028D01*
X7950D01*
Y21349D01*
X7938Y21338D01*
X7900Y21316D01*
X7870Y21322D01*
X7870Y21322D01*
X7496D01*
Y21463D01*
X7010D01*
Y20957D01*
X7081D01*
X7102Y20907D01*
X7042Y20848D01*
X5811D01*
X5752Y20907D01*
X5772Y20957D01*
X5846D01*
Y21463D01*
X5360D01*
Y20957D01*
X5491D01*
Y20897D01*
X5491Y20897D01*
X5500Y20854D01*
X5524Y20818D01*
X5685Y20656D01*
X5685Y20656D01*
X5722Y20632D01*
X5765Y20623D01*
X5765Y20623D01*
X7089D01*
X7089Y20623D01*
X7132Y20632D01*
X7168Y20656D01*
X7332Y20821D01*
X7357Y20857D01*
X7365Y20900D01*
X7365Y20900D01*
Y20957D01*
X7496D01*
Y21098D01*
X7824D01*
X7950Y20971D01*
Y20254D01*
X7904Y20235D01*
X7779Y20359D01*
X7743Y20384D01*
X7700Y20392D01*
X7700Y20392D01*
X7496D01*
Y20533D01*
X7010D01*
Y20027D01*
X7071D01*
X7092Y19977D01*
X7042Y19928D01*
X5811D01*
X5762Y19977D01*
X5782Y20027D01*
X5846D01*
Y20533D01*
X5360D01*
Y20027D01*
X5491D01*
Y19977D01*
X5491Y19977D01*
X5500Y19934D01*
X5524Y19898D01*
X5685Y19736D01*
X5685Y19736D01*
X5722Y19712D01*
X5765Y19703D01*
X5765Y19703D01*
X7089D01*
X7089Y19703D01*
X7132Y19712D01*
X7168Y19736D01*
X7332Y19901D01*
X7357Y19937D01*
X7365Y19980D01*
X7365Y20027D01*
X7496D01*
Y20168D01*
X7654D01*
X7950Y19871D01*
Y19424D01*
X7904Y19405D01*
X7879Y19429D01*
X7843Y19454D01*
X7800Y19462D01*
X7800Y19462D01*
X7496D01*
Y19603D01*
X7010D01*
Y19097D01*
X7071D01*
X7092Y19047D01*
X7042Y18998D01*
X5811D01*
X5762Y19047D01*
X5782Y19097D01*
X5846D01*
Y19603D01*
X5360D01*
Y19097D01*
X5491D01*
Y19047D01*
X5491Y19047D01*
X5500Y19004D01*
X5524Y18968D01*
X5685Y18806D01*
X5685Y18806D01*
X5722Y18782D01*
X5765Y18773D01*
X5765Y18773D01*
X7089D01*
X7089Y18773D01*
X7132Y18782D01*
X7168Y18806D01*
X7332Y18971D01*
X7357Y19007D01*
X7365Y19050D01*
X7365Y19097D01*
X7496D01*
Y19238D01*
X7754D01*
X7888Y19104D01*
Y18650D01*
X7888Y18650D01*
X7896Y18607D01*
X7918Y18574D01*
X7915Y18562D01*
X7892Y18528D01*
X7873Y18532D01*
X7873Y18532D01*
X7496D01*
Y18673D01*
X7010D01*
Y18167D01*
X7071D01*
X7092Y18117D01*
X7042Y18068D01*
X5811D01*
X5762Y18117D01*
X5782Y18167D01*
X5846D01*
Y18673D01*
X5360D01*
Y18167D01*
X5491D01*
Y18117D01*
X5491Y18117D01*
X5500Y18074D01*
X5524Y18038D01*
X5685Y17876D01*
X5685Y17876D01*
X5722Y17852D01*
X5765Y17843D01*
X5765Y17843D01*
X7089D01*
X7089Y17843D01*
X7132Y17852D01*
X7168Y17876D01*
X7332Y18041D01*
X7357Y18077D01*
X7365Y18120D01*
X7365Y18167D01*
X7496D01*
Y18308D01*
X7827D01*
X7950Y18185D01*
Y17602D01*
X7496D01*
Y17743D01*
X7010D01*
Y17237D01*
X7071D01*
X7092Y17187D01*
X7042Y17138D01*
X5811D01*
X5762Y17187D01*
X5782Y17237D01*
X5846D01*
Y17743D01*
X5360D01*
Y17237D01*
X5491D01*
Y17187D01*
X5491Y17187D01*
X5500Y17144D01*
X5524Y17108D01*
X5685Y16946D01*
X5685Y16946D01*
X5722Y16922D01*
X5765Y16913D01*
X5765Y16913D01*
X7089D01*
X7089Y16913D01*
X7132Y16922D01*
X7168Y16946D01*
X7332Y17111D01*
X7357Y17147D01*
X7365Y17190D01*
X7365Y17237D01*
X7496D01*
Y17378D01*
X7950D01*
Y16672D01*
X7496D01*
Y16813D01*
X7010D01*
Y16307D01*
X7071D01*
X7092Y16257D01*
X7042Y16208D01*
X5811D01*
X5762Y16257D01*
X5782Y16307D01*
X5846D01*
Y16813D01*
X5360D01*
Y16307D01*
X5491D01*
Y16257D01*
X5491Y16257D01*
X5500Y16214D01*
X5524Y16178D01*
X5685Y16016D01*
X5685Y16016D01*
X5722Y15992D01*
X5765Y15983D01*
X5765Y15983D01*
X7089D01*
X7089Y15983D01*
X7132Y15992D01*
X7168Y16016D01*
X7332Y16181D01*
X7357Y16217D01*
X7365Y16260D01*
X7365Y16307D01*
X7496D01*
Y16448D01*
X7950D01*
Y15859D01*
X7834Y15742D01*
X7496D01*
Y15883D01*
X7010D01*
Y15377D01*
X7071D01*
X7092Y15327D01*
X7042Y15278D01*
X5811D01*
X5762Y15327D01*
X5782Y15377D01*
X5846D01*
Y15883D01*
X5360D01*
Y15377D01*
X5491D01*
Y15327D01*
X5491Y15327D01*
X5500Y15284D01*
X5524Y15248D01*
X5685Y15086D01*
X5685Y15086D01*
X5722Y15062D01*
X5765Y15053D01*
X5765Y15053D01*
X7089D01*
X7089Y15053D01*
X7132Y15062D01*
X7168Y15086D01*
X7332Y15251D01*
X7357Y15287D01*
X7365Y15330D01*
X7365Y15377D01*
X7496D01*
Y15518D01*
X7880D01*
X7880Y15518D01*
X7900Y15522D01*
X7950Y15489D01*
Y14812D01*
X7496D01*
Y14953D01*
X7010D01*
Y14447D01*
X7071D01*
X7092Y14397D01*
X7042Y14348D01*
X5811D01*
X5762Y14397D01*
X5782Y14447D01*
X5846D01*
Y14953D01*
X5360D01*
Y14447D01*
X5491D01*
Y14397D01*
X5491Y14397D01*
X5500Y14354D01*
X5524Y14318D01*
X5685Y14156D01*
X5685Y14156D01*
X5722Y14132D01*
X5765Y14123D01*
X5765Y14123D01*
X7089D01*
X7089Y14123D01*
X7132Y14132D01*
X7168Y14156D01*
X7332Y14321D01*
X7357Y14357D01*
X7365Y14400D01*
X7365Y14447D01*
X7496D01*
Y14588D01*
X7950D01*
Y13959D01*
X7874Y13882D01*
X7496D01*
Y14023D01*
X7010D01*
Y13517D01*
X7071D01*
X7092Y13467D01*
X7042Y13418D01*
X5811D01*
X5762Y13467D01*
X5782Y13517D01*
X5846D01*
Y14023D01*
X5360D01*
Y13517D01*
X5491D01*
Y13467D01*
X5491Y13467D01*
X5500Y13424D01*
X5524Y13388D01*
X5685Y13226D01*
X5685Y13226D01*
X5722Y13202D01*
X5765Y13193D01*
X5765Y13193D01*
X7089D01*
X7089Y13193D01*
X7132Y13202D01*
X7168Y13226D01*
X7332Y13391D01*
X7357Y13427D01*
X7365Y13470D01*
X7365Y13517D01*
X7496D01*
Y13658D01*
X7920D01*
X7920Y13658D01*
X7950Y13633D01*
Y12952D01*
X7496D01*
Y13093D01*
X7010D01*
Y12587D01*
X7071D01*
X7092Y12537D01*
X7042Y12488D01*
X5811D01*
X5762Y12537D01*
X5782Y12587D01*
X5846D01*
Y13093D01*
X5360D01*
Y12587D01*
X5491D01*
Y12537D01*
X5491Y12537D01*
X5500Y12494D01*
X5524Y12458D01*
X5685Y12296D01*
X5685Y12296D01*
X5722Y12272D01*
X5765Y12263D01*
X5765Y12263D01*
X7089D01*
X7089Y12263D01*
X7132Y12272D01*
X7168Y12296D01*
X7332Y12461D01*
X7357Y12497D01*
X7365Y12540D01*
X7365Y12587D01*
X7496D01*
Y12728D01*
X7950D01*
Y12022D01*
X7496D01*
Y12163D01*
X7010D01*
Y11657D01*
X7071D01*
X7092Y11607D01*
X7042Y11558D01*
X5811D01*
X5762Y11607D01*
X5782Y11657D01*
X5846D01*
Y12163D01*
X5360D01*
Y11657D01*
X5491D01*
Y11607D01*
X5491Y11607D01*
X5500Y11564D01*
X5524Y11528D01*
X5685Y11366D01*
X5685Y11366D01*
X5722Y11342D01*
X5765Y11333D01*
X5765Y11333D01*
X7089D01*
X7089Y11333D01*
X7132Y11342D01*
X7168Y11366D01*
X7332Y11531D01*
X7357Y11567D01*
X7365Y11610D01*
X7365Y11657D01*
X7496D01*
Y11798D01*
X7950D01*
Y11350D01*
X8000Y11300D01*
X8676D01*
X8695Y11254D01*
X8534Y11092D01*
X7496D01*
Y11233D01*
X7010D01*
Y10727D01*
X7071D01*
X7092Y10677D01*
X7042Y10628D01*
X5811D01*
X5762Y10677D01*
X5782Y10727D01*
X5846D01*
Y11233D01*
X5360D01*
Y10727D01*
X5491D01*
Y10677D01*
X5491Y10677D01*
X5500Y10634D01*
X5524Y10598D01*
X5685Y10436D01*
X5685Y10436D01*
X5722Y10412D01*
X5765Y10403D01*
X5765Y10403D01*
X7089D01*
X7089Y10403D01*
X7132Y10412D01*
X7168Y10436D01*
X7332Y10601D01*
X7357Y10637D01*
X7365Y10680D01*
X7365Y10727D01*
X7496D01*
Y10868D01*
X8580D01*
X8580Y10868D01*
X8623Y10876D01*
X8659Y10901D01*
X9059Y11300D01*
X9488D01*
Y11196D01*
X8454Y10162D01*
X7496D01*
Y10303D01*
X7010D01*
Y9797D01*
X7071D01*
X7092Y9747D01*
X7042Y9698D01*
X5811D01*
X5762Y9747D01*
X5782Y9797D01*
X5846D01*
Y10303D01*
X5360D01*
Y9797D01*
X5491D01*
Y9747D01*
X5491Y9747D01*
X5500Y9704D01*
X5524Y9668D01*
X5685Y9506D01*
X5685Y9506D01*
X5722Y9482D01*
X5765Y9473D01*
X5765Y9473D01*
X7089D01*
X7089Y9473D01*
X7132Y9482D01*
X7168Y9506D01*
X7332Y9671D01*
X7357Y9707D01*
X7365Y9750D01*
X7365Y9797D01*
X7496D01*
Y9938D01*
X8500D01*
X8500Y9938D01*
X8543Y9946D01*
X8579Y9971D01*
X9679Y11071D01*
X9704Y11107D01*
X9712Y11150D01*
X9712Y11150D01*
Y11300D01*
X9838D01*
Y10596D01*
X8554Y9312D01*
X1146D01*
X466Y9993D01*
Y22523D01*
X614D01*
X919Y22218D01*
X1189D01*
X1209Y22168D01*
X971Y21929D01*
X946Y21893D01*
X938Y21850D01*
X938Y21850D01*
Y21438D01*
X871Y21410D01*
X797Y21353D01*
X740Y21279D01*
X704Y21193D01*
X692Y21100D01*
X704Y21007D01*
X740Y20921D01*
X797Y20847D01*
X871Y20790D01*
X957Y20754D01*
X1050Y20742D01*
X1143Y20754D01*
X1229Y20790D01*
X1303Y20847D01*
X1360Y20921D01*
X1396Y21007D01*
X1408Y21100D01*
X1396Y21193D01*
X1360Y21279D01*
X1303Y21353D01*
X1229Y21410D01*
X1162Y21438D01*
Y21804D01*
X1352Y21994D01*
X2177D01*
X2192Y21944D01*
X2171Y21929D01*
X2171Y21929D01*
X1971Y21729D01*
X1946Y21693D01*
X1938Y21650D01*
X1938Y21650D01*
Y21438D01*
X1871Y21410D01*
X1797Y21353D01*
X1740Y21279D01*
X1704Y21193D01*
X1692Y21100D01*
X1704Y21007D01*
X1740Y20921D01*
X1741Y20920D01*
X1708Y20880D01*
X1650Y20907D01*
X1697Y20860D01*
X1697Y20860D01*
X1697Y20834D01*
Y20712D01*
X1550D01*
X1550Y20712D01*
X1507Y20704D01*
X1471Y20679D01*
X1471Y20679D01*
X1210Y20418D01*
X1143Y20446D01*
X1050Y20458D01*
X957Y20446D01*
X871Y20410D01*
X797Y20353D01*
X740Y20279D01*
X704Y20193D01*
X692Y20100D01*
X704Y20007D01*
X740Y19921D01*
X797Y19847D01*
X871Y19790D01*
X957Y19754D01*
X1050Y19742D01*
X1143Y19754D01*
X1229Y19790D01*
X1303Y19847D01*
X1360Y19921D01*
X1396Y20007D01*
X1408Y20100D01*
X1396Y20193D01*
X1368Y20260D01*
X1596Y20488D01*
X1697D01*
Y20141D01*
X1692Y20100D01*
X1697Y20059D01*
Y19637D01*
X1689Y19636D01*
X1653Y19611D01*
X1653Y19611D01*
X1370Y19328D01*
X1320Y19332D01*
X1303Y19353D01*
X1229Y19410D01*
X1143Y19446D01*
X1050Y19458D01*
X957Y19446D01*
X871Y19410D01*
X797Y19353D01*
X740Y19279D01*
X704Y19193D01*
X692Y19100D01*
X704Y19007D01*
X740Y18921D01*
X797Y18847D01*
X871Y18790D01*
X957Y18754D01*
X1050Y18742D01*
X1143Y18754D01*
X1229Y18790D01*
X1303Y18847D01*
X1360Y18921D01*
X1396Y19007D01*
X1401Y19042D01*
X1651Y19292D01*
X1697Y19273D01*
Y19141D01*
X1692Y19100D01*
X1697Y19059D01*
Y18612D01*
X1450D01*
X1407Y18604D01*
X1371Y18579D01*
X1371Y18579D01*
X1210Y18418D01*
X1143Y18446D01*
X1050Y18458D01*
X957Y18446D01*
X871Y18410D01*
X797Y18353D01*
X740Y18279D01*
X704Y18193D01*
X692Y18100D01*
X704Y18007D01*
X740Y17921D01*
X797Y17847D01*
X871Y17790D01*
X957Y17754D01*
X1050Y17742D01*
X1143Y17754D01*
X1229Y17790D01*
X1303Y17847D01*
X1360Y17921D01*
X1396Y18007D01*
X1408Y18100D01*
X1396Y18193D01*
X1368Y18260D01*
X1496Y18388D01*
X1697D01*
Y18141D01*
X1692Y18100D01*
X1697Y18059D01*
Y17592D01*
X1687Y17585D01*
X1687Y17585D01*
X1402Y17300D01*
X1339Y17307D01*
X1303Y17353D01*
X1229Y17410D01*
X1143Y17446D01*
X1050Y17458D01*
X957Y17446D01*
X871Y17410D01*
X797Y17353D01*
X740Y17279D01*
X704Y17193D01*
X692Y17100D01*
X704Y17007D01*
X740Y16921D01*
X797Y16847D01*
X871Y16790D01*
X957Y16754D01*
X1050Y16742D01*
X1143Y16754D01*
X1229Y16790D01*
X1303Y16847D01*
X1360Y16921D01*
X1391Y16994D01*
X1404Y16996D01*
X1440Y17021D01*
X1651Y17232D01*
X1697Y17213D01*
Y17141D01*
X1692Y17100D01*
X1697Y17059D01*
Y16617D01*
X1455D01*
X1455Y16617D01*
X1412Y16609D01*
X1376Y16585D01*
X1376Y16585D01*
X1210Y16418D01*
X1143Y16446D01*
X1050Y16458D01*
X957Y16446D01*
X871Y16410D01*
X797Y16353D01*
X740Y16279D01*
X704Y16193D01*
X692Y16100D01*
X704Y16007D01*
X740Y15921D01*
X797Y15847D01*
X871Y15790D01*
X957Y15754D01*
X1050Y15742D01*
X1143Y15754D01*
X1229Y15790D01*
X1303Y15847D01*
X1360Y15921D01*
X1396Y16007D01*
X1408Y16100D01*
X1396Y16193D01*
X1368Y16260D01*
X1502Y16393D01*
X1697D01*
Y16141D01*
X1692Y16100D01*
X1697Y16059D01*
Y15534D01*
X1416Y15253D01*
X1367Y15263D01*
X1360Y15279D01*
X1303Y15353D01*
X1229Y15410D01*
X1143Y15446D01*
X1050Y15458D01*
X957Y15446D01*
X871Y15410D01*
X797Y15353D01*
X740Y15279D01*
X704Y15193D01*
X692Y15100D01*
X704Y15007D01*
X740Y14921D01*
X797Y14847D01*
X871Y14790D01*
X957Y14754D01*
X1050Y14742D01*
X1143Y14754D01*
X1229Y14790D01*
X1303Y14847D01*
X1360Y14921D01*
X1388Y14988D01*
X1421D01*
X1421Y14988D01*
X1464Y14996D01*
X1501Y15021D01*
X1651Y15171D01*
X1697Y15152D01*
Y15141D01*
X1692Y15100D01*
X1697Y15059D01*
Y14662D01*
X1500D01*
X1500Y14662D01*
X1457Y14654D01*
X1421Y14629D01*
X1421Y14629D01*
X1210Y14418D01*
X1143Y14446D01*
X1050Y14458D01*
X957Y14446D01*
X871Y14410D01*
X797Y14353D01*
X740Y14279D01*
X704Y14193D01*
X692Y14100D01*
X704Y14007D01*
X740Y13921D01*
X797Y13847D01*
X871Y13790D01*
X957Y13754D01*
X1050Y13742D01*
X1143Y13754D01*
X1229Y13790D01*
X1303Y13847D01*
X1360Y13921D01*
X1396Y14007D01*
X1408Y14100D01*
X1396Y14193D01*
X1368Y14260D01*
X1546Y14438D01*
X1697D01*
Y14141D01*
X1692Y14100D01*
X1697Y14059D01*
Y13629D01*
X1382Y13313D01*
X1332Y13317D01*
X1303Y13353D01*
X1229Y13410D01*
X1143Y13446D01*
X1050Y13458D01*
X957Y13446D01*
X871Y13410D01*
X797Y13353D01*
X740Y13279D01*
X704Y13193D01*
X692Y13100D01*
X704Y13007D01*
X740Y12921D01*
X797Y12847D01*
X871Y12790D01*
X957Y12754D01*
X1050Y12742D01*
X1143Y12754D01*
X1229Y12790D01*
X1303Y12847D01*
X1360Y12921D01*
X1396Y13007D01*
X1397Y13015D01*
X1406Y13021D01*
X1717Y13331D01*
X1754Y13298D01*
X1740Y13279D01*
X1704Y13193D01*
X1692Y13100D01*
X1704Y13007D01*
X1740Y12921D01*
X1797Y12847D01*
X1871Y12790D01*
X1957Y12754D01*
X2050Y12742D01*
X2143Y12754D01*
X2170Y12765D01*
X2321Y12614D01*
X2321Y12614D01*
X2357Y12590D01*
X2400Y12582D01*
X2400Y12582D01*
X3626D01*
X3626Y12582D01*
X3669Y12590D01*
X3706Y12614D01*
X3892Y12800D01*
X3938Y12781D01*
Y10550D01*
X3938Y10550D01*
X3946Y10507D01*
X3971Y10471D01*
X4471Y9971D01*
X4471Y9971D01*
X4507Y9946D01*
X4550Y9938D01*
X4550Y9938D01*
X4754D01*
Y9797D01*
X5240D01*
Y10303D01*
X4754D01*
Y10727D01*
X5240D01*
Y11233D01*
X4754D01*
Y11657D01*
X5240D01*
Y12163D01*
X4754D01*
Y12469D01*
X4872Y12587D01*
X5240D01*
Y13093D01*
X5109D01*
Y13238D01*
X5109Y13238D01*
X5100Y13281D01*
X5076Y13318D01*
X4923Y13471D01*
X4942Y13517D01*
X5240D01*
Y14023D01*
X5109D01*
Y14103D01*
X5109Y14103D01*
X5100Y14146D01*
X5076Y14182D01*
X5076Y14182D01*
X4862Y14397D01*
X4882Y14447D01*
X5240D01*
Y14953D01*
X4843D01*
Y15377D01*
X5240D01*
Y15883D01*
X4843D01*
Y16307D01*
X5240D01*
Y16813D01*
X4843D01*
Y17205D01*
X4857Y17237D01*
X5240D01*
Y17743D01*
X4902D01*
Y17890D01*
X4945Y17898D01*
X4981Y17922D01*
X5076Y18018D01*
X5076Y18018D01*
X5100Y18054D01*
X5109Y18097D01*
X5109Y18097D01*
Y18167D01*
X5240D01*
Y18673D01*
X4754D01*
X4750Y18721D01*
Y18737D01*
X4800Y18788D01*
X4800Y18788D01*
X4843Y18796D01*
X4880Y18820D01*
X5076Y19017D01*
X5076Y19017D01*
X5100Y19053D01*
X5109Y19096D01*
X5156Y19097D01*
X5240D01*
Y19603D01*
X4820D01*
X4808Y19653D01*
X5076Y19921D01*
X5076Y19921D01*
X5100Y19957D01*
X5109Y20000D01*
X5147Y20027D01*
X5240D01*
Y20533D01*
X4754D01*
Y20957D01*
X5240D01*
Y21463D01*
X4754D01*
Y21738D01*
X4903Y21887D01*
X5240D01*
Y22393D01*
X4754D01*
Y22587D01*
X4747D01*
X4726Y22637D01*
X4903Y22814D01*
X5240D01*
Y23320D01*
X4878D01*
X4859Y23366D01*
X5076Y23583D01*
X5076Y23583D01*
X5100Y23620D01*
X5109Y23663D01*
Y23747D01*
X5240D01*
Y24253D01*
X4754D01*
Y23747D01*
X4855D01*
X4873Y23697D01*
X4211Y23035D01*
X4186Y22999D01*
X4178Y22956D01*
X4178Y22956D01*
Y22646D01*
X4167Y22600D01*
X3712D01*
Y23659D01*
X4491Y24438D01*
X7950D01*
Y24062D01*
D02*
G37*
G36*
X16000Y24441D02*
Y24406D01*
X16950Y23456D01*
X16968Y23474D01*
X17007Y23434D01*
Y21224D01*
X16793D01*
Y21263D01*
X16307D01*
Y20757D01*
X16307D01*
X16290Y20714D01*
X16204D01*
X16187Y20757D01*
X16187D01*
Y21263D01*
X15701D01*
Y21122D01*
X14842D01*
X14799Y21113D01*
X14763Y21089D01*
X14763Y21089D01*
X14231Y20558D01*
X14188Y20585D01*
X14202Y20654D01*
Y21099D01*
X14339Y21236D01*
X14944D01*
X15026Y21252D01*
X15095Y21299D01*
X15301Y21505D01*
X15348Y21574D01*
X15364Y21656D01*
Y22550D01*
X15348Y22632D01*
X15301Y22701D01*
X15160Y22842D01*
X15091Y22889D01*
X15009Y22905D01*
X14753D01*
Y22934D01*
X14247D01*
Y22905D01*
X13943D01*
Y22934D01*
X13437D01*
Y22905D01*
X13132D01*
Y22934D01*
X12627D01*
Y22905D01*
X12322D01*
Y22934D01*
X11816D01*
Y22448D01*
X12322D01*
Y22477D01*
X12627D01*
Y22448D01*
X13132D01*
Y22477D01*
X13437D01*
Y22448D01*
X13943D01*
Y22477D01*
X14247D01*
Y22448D01*
X14753D01*
Y22477D01*
X14920D01*
X14936Y22461D01*
Y21745D01*
X14855Y21664D01*
X14250D01*
X14168Y21648D01*
X14099Y21601D01*
X13836Y21339D01*
X13790Y21269D01*
X13773Y21187D01*
Y20654D01*
X13790Y20572D01*
X13836Y20503D01*
X13875Y20477D01*
Y20354D01*
X13706D01*
Y21497D01*
X13769Y21560D01*
X13769Y21560D01*
X13793Y21597D01*
X13802Y21640D01*
Y21842D01*
X13943D01*
Y21871D01*
X14247D01*
Y21842D01*
X14753D01*
Y22328D01*
X14247D01*
Y22299D01*
X13943D01*
Y22328D01*
X13437D01*
Y21842D01*
X13578D01*
Y21686D01*
X13514Y21623D01*
X13490Y21587D01*
X13482Y21544D01*
X13482Y21544D01*
Y20545D01*
X13432Y20524D01*
X13326Y20629D01*
X13290Y20654D01*
X13247Y20662D01*
X13247Y20662D01*
X13228D01*
X13221Y20673D01*
X13165Y20710D01*
X13098Y20723D01*
X13086Y20721D01*
X12992Y20815D01*
Y21842D01*
X13132D01*
Y22328D01*
X12627D01*
Y22299D01*
X12322D01*
Y22328D01*
X11816D01*
Y21842D01*
X12322D01*
Y21871D01*
X12627D01*
Y21842D01*
X12767D01*
Y20769D01*
X12767Y20769D01*
X12776Y20726D01*
X12800Y20690D01*
X12841Y20649D01*
Y20599D01*
X12727Y20486D01*
X12703Y20449D01*
X12694Y20406D01*
X12694Y20406D01*
Y20354D01*
X12525D01*
Y20761D01*
X12525Y20761D01*
X12516Y20804D01*
X12492Y20841D01*
X12492Y20841D01*
X12303Y21029D01*
X12267Y21054D01*
X12224Y21062D01*
X12224Y21062D01*
X11196D01*
X11165Y21093D01*
Y21897D01*
X11296D01*
Y22403D01*
X11165D01*
Y22797D01*
X11296D01*
Y23303D01*
X10982D01*
X10974Y23353D01*
X11001Y23371D01*
X11132Y23503D01*
X11132Y23503D01*
X11157Y23539D01*
X11165Y23582D01*
X11165Y23582D01*
Y23697D01*
X11296D01*
Y24203D01*
X10810D01*
Y23697D01*
X10941D01*
Y23628D01*
X10875Y23562D01*
X10550D01*
X10550Y23562D01*
X10507Y23554D01*
X10471Y23529D01*
X10471Y23529D01*
X10368Y23426D01*
X10343Y23390D01*
X10335Y23347D01*
X10319Y23303D01*
X10204D01*
Y22797D01*
X10335D01*
Y22403D01*
X10204D01*
Y21897D01*
X10335D01*
Y20934D01*
X10335Y20934D01*
X10343Y20891D01*
X10368Y20855D01*
X10551Y20671D01*
X10551Y20671D01*
X10588Y20646D01*
X10631Y20638D01*
X11654D01*
X11888Y20404D01*
X11867Y20354D01*
X11719D01*
Y19488D01*
X11683Y19453D01*
X11350Y19454D01*
Y19152D01*
X11300Y19117D01*
X11287Y19119D01*
X10971D01*
X10936Y19126D01*
X9719D01*
X9562Y19283D01*
Y22800D01*
X9562Y22800D01*
X9554Y22843D01*
X9529Y22879D01*
X9529Y22879D01*
X8379Y24029D01*
X8343Y24054D01*
X8300Y24062D01*
X8300Y24062D01*
X8150D01*
Y24438D01*
X8993D01*
X9560Y23871D01*
X9560Y23871D01*
X9597Y23846D01*
X9640Y23838D01*
X9640Y23838D01*
X10204D01*
Y23697D01*
X10690D01*
Y24203D01*
X10204D01*
Y24062D01*
X9686D01*
X9119Y24629D01*
X9117Y24691D01*
X9124Y24700D01*
X15741D01*
X16000Y24441D01*
D02*
G37*
G36*
X3805Y21314D02*
X3864D01*
X3883Y21268D01*
X3215Y20600D01*
X2659D01*
X2579Y20679D01*
X2543Y20704D01*
X2500Y20712D01*
X2500Y20712D01*
X2173D01*
X2163Y20762D01*
X2229Y20790D01*
X2303Y20847D01*
X2360Y20921D01*
X2396Y21007D01*
X2408Y21100D01*
X2396Y21193D01*
X2360Y21279D01*
X2303Y21353D01*
X2229Y21410D01*
X2162Y21438D01*
Y21604D01*
X2296Y21738D01*
X2987D01*
X3001Y21729D01*
X3052Y21719D01*
X3248D01*
X3299Y21729D01*
X3313Y21738D01*
X3381D01*
X3805Y21314D01*
D02*
G37*
G36*
X18850Y22141D02*
Y21250D01*
X18803Y21243D01*
X18803Y21243D01*
X18297D01*
Y21224D01*
X17853D01*
Y21243D01*
X17347D01*
Y21224D01*
X17231D01*
Y23481D01*
X17231Y23481D01*
X17247Y23500D01*
X17491D01*
X18850Y22141D01*
D02*
G37*
G36*
X23604Y18537D02*
X23590Y18516D01*
X23577Y18450D01*
X23590Y18384D01*
X23627Y18327D01*
X23684Y18290D01*
X23750Y18277D01*
X23784Y18284D01*
X23814Y18239D01*
X23800Y18216D01*
X23786Y18150D01*
X23788Y18142D01*
X23776Y18128D01*
X23744Y18106D01*
X23713Y18112D01*
X23713Y18112D01*
X21788D01*
X21760Y18179D01*
X21703Y18253D01*
X21629Y18310D01*
X21543Y18346D01*
X21450Y18358D01*
X21357Y18346D01*
X21271Y18310D01*
X21207Y18261D01*
X21157Y18277D01*
Y18723D01*
X21207Y18739D01*
X21271Y18690D01*
X21357Y18654D01*
X21450Y18642D01*
X21543Y18654D01*
X21629Y18690D01*
X21703Y18747D01*
X21760Y18821D01*
X21796Y18907D01*
X21808Y19000D01*
X21796Y19093D01*
X21760Y19179D01*
X21703Y19253D01*
X21629Y19310D01*
X21543Y19346D01*
X21450Y19358D01*
X21357Y19346D01*
X21271Y19310D01*
X21197Y19253D01*
X21140Y19179D01*
X21111Y19111D01*
X21074Y19104D01*
X21037Y19079D01*
X21037Y19079D01*
X20965Y19007D01*
X20941Y18971D01*
X20933Y18928D01*
X20933Y18928D01*
Y17832D01*
X20933Y17832D01*
X20941Y17789D01*
X20965Y17753D01*
X21298Y17421D01*
X21298Y17421D01*
X21334Y17396D01*
X21347Y17394D01*
X21352Y17372D01*
X21349Y17342D01*
X21271Y17310D01*
X21197Y17253D01*
X21140Y17179D01*
X21104Y17093D01*
X21092Y17000D01*
X21104Y16907D01*
X21140Y16821D01*
X21197Y16747D01*
X21271Y16690D01*
X21357Y16654D01*
X21450Y16642D01*
X21543Y16654D01*
X21629Y16690D01*
X21703Y16747D01*
X21760Y16821D01*
X21788Y16888D01*
X23642D01*
X24222Y16308D01*
X24220Y16300D01*
X24234Y16234D01*
X24271Y16178D01*
X24278Y16166D01*
Y16159D01*
X24232Y16112D01*
X21788D01*
X21760Y16179D01*
X21703Y16253D01*
X21629Y16310D01*
X21543Y16346D01*
X21450Y16358D01*
X21357Y16346D01*
X21271Y16310D01*
X21197Y16253D01*
X21140Y16179D01*
X21104Y16093D01*
X21092Y16000D01*
X21104Y15907D01*
X21140Y15821D01*
X21197Y15747D01*
X21271Y15690D01*
X21357Y15654D01*
X21450Y15642D01*
X21543Y15654D01*
X21629Y15690D01*
X21703Y15747D01*
X21760Y15821D01*
X21788Y15888D01*
X24270D01*
X24277Y15877D01*
X24334Y15840D01*
X24400Y15827D01*
X24466Y15840D01*
X24523Y15877D01*
X24560Y15934D01*
X24573Y16000D01*
X24560Y16066D01*
X24523Y16123D01*
X24516Y16127D01*
Y16163D01*
X24521Y16184D01*
X24554Y16234D01*
X24567Y16300D01*
X24554Y16366D01*
X24516Y16423D01*
X24460Y16460D01*
X24394Y16473D01*
X24377Y16470D01*
X23768Y17079D01*
X23732Y17104D01*
X23689Y17112D01*
X23689Y17112D01*
X21788D01*
X21760Y17179D01*
X21703Y17253D01*
X21629Y17310D01*
X21563Y17338D01*
X21573Y17388D01*
X23913D01*
X25513Y15788D01*
X25493Y15738D01*
X23076D01*
X23033Y15729D01*
X22996Y15705D01*
X22996Y15705D01*
X22404Y15112D01*
X21788D01*
X21760Y15179D01*
X21703Y15253D01*
X21629Y15310D01*
X21543Y15346D01*
X21450Y15358D01*
X21357Y15346D01*
X21271Y15310D01*
X21197Y15253D01*
X21140Y15179D01*
X21104Y15093D01*
X21092Y15000D01*
X21104Y14907D01*
X21140Y14821D01*
X21197Y14747D01*
X21271Y14690D01*
X21357Y14654D01*
X21450Y14642D01*
X21543Y14654D01*
X21629Y14690D01*
X21703Y14747D01*
X21760Y14821D01*
X21788Y14888D01*
X22450D01*
X22450Y14888D01*
X22493Y14896D01*
X22529Y14921D01*
X23122Y15513D01*
X24249D01*
X24270Y15463D01*
X22222Y13415D01*
X19703D01*
X19660Y13407D01*
X19624Y13382D01*
X19624Y13382D01*
X18396Y12155D01*
X18350Y12174D01*
Y15797D01*
X18793D01*
Y15938D01*
X19354D01*
X20132Y15160D01*
X20104Y15093D01*
X20092Y15000D01*
X20104Y14907D01*
X20140Y14821D01*
X20197Y14747D01*
X20271Y14690D01*
X20357Y14654D01*
X20450Y14642D01*
X20543Y14654D01*
X20629Y14690D01*
X20703Y14747D01*
X20760Y14821D01*
X20796Y14907D01*
X20808Y15000D01*
X20796Y15093D01*
X20760Y15179D01*
X20703Y15253D01*
X20629Y15310D01*
X20543Y15346D01*
X20450Y15358D01*
X20357Y15346D01*
X20290Y15318D01*
X19479Y16129D01*
X19443Y16154D01*
X19400Y16162D01*
X19400Y16162D01*
X18793D01*
Y16303D01*
X18764Y16332D01*
Y16388D01*
X19904D01*
X20132Y16160D01*
X20104Y16093D01*
X20092Y16000D01*
X20104Y15907D01*
X20140Y15821D01*
X20197Y15747D01*
X20271Y15690D01*
X20357Y15654D01*
X20450Y15642D01*
X20543Y15654D01*
X20629Y15690D01*
X20703Y15747D01*
X20760Y15821D01*
X20796Y15907D01*
X20808Y16000D01*
X20796Y16093D01*
X20760Y16179D01*
X20703Y16253D01*
X20629Y16310D01*
X20543Y16346D01*
X20450Y16358D01*
X20357Y16346D01*
X20290Y16318D01*
X20029Y16579D01*
X19993Y16604D01*
X19950Y16612D01*
X19950Y16612D01*
X18350D01*
Y16793D01*
X18793D01*
Y16934D01*
X20100D01*
X20104Y16907D01*
X20140Y16821D01*
X20197Y16747D01*
X20271Y16690D01*
X20357Y16654D01*
X20450Y16642D01*
X20543Y16654D01*
X20629Y16690D01*
X20703Y16747D01*
X20760Y16821D01*
X20796Y16907D01*
X20808Y17000D01*
X20796Y17093D01*
X20760Y17179D01*
X20703Y17253D01*
X20629Y17310D01*
X20543Y17346D01*
X20450Y17358D01*
X20357Y17346D01*
X20271Y17310D01*
X20197Y17253D01*
X20140Y17179D01*
X20131Y17158D01*
X18793D01*
Y17299D01*
X18350D01*
Y17656D01*
X18793D01*
Y17797D01*
X19350D01*
X19350Y17797D01*
X19393Y17805D01*
X19429Y17830D01*
X19487Y17888D01*
X20112D01*
X20140Y17821D01*
X20197Y17747D01*
X20271Y17690D01*
X20357Y17654D01*
X20450Y17642D01*
X20543Y17654D01*
X20629Y17690D01*
X20703Y17747D01*
X20760Y17821D01*
X20796Y17907D01*
X20808Y18000D01*
X20796Y18093D01*
X20760Y18179D01*
X20703Y18253D01*
X20629Y18310D01*
X20543Y18346D01*
X20450Y18358D01*
X20357Y18346D01*
X20271Y18310D01*
X20197Y18253D01*
X20140Y18179D01*
X20112Y18112D01*
X19441D01*
X19441Y18112D01*
X19398Y18104D01*
X19362Y18079D01*
X19362Y18079D01*
X19304Y18021D01*
X18793D01*
Y18162D01*
X18350D01*
Y18547D01*
X18793D01*
Y18688D01*
X19333D01*
X19333Y18688D01*
X19376Y18696D01*
X19412Y18721D01*
X19579Y18888D01*
X20112D01*
X20140Y18821D01*
X20197Y18747D01*
X20271Y18690D01*
X20357Y18654D01*
X20450Y18642D01*
X20543Y18654D01*
X20629Y18690D01*
X20703Y18747D01*
X20760Y18821D01*
X20796Y18907D01*
X20808Y19000D01*
X20796Y19093D01*
X20760Y19179D01*
X20703Y19253D01*
X20629Y19310D01*
X20543Y19346D01*
X20450Y19358D01*
X20357Y19346D01*
X20271Y19310D01*
X20197Y19253D01*
X20140Y19179D01*
X20112Y19112D01*
X19533D01*
X19533Y19112D01*
X19490Y19104D01*
X19453Y19079D01*
X19453Y19079D01*
X19286Y18912D01*
X18793D01*
Y19053D01*
X18350D01*
Y19388D01*
X19950D01*
X19950Y19388D01*
X19993Y19396D01*
X20029Y19421D01*
X20253Y19645D01*
X20805D01*
Y20355D01*
X20095D01*
Y19803D01*
X19904Y19612D01*
X18350D01*
Y20064D01*
X19050Y20764D01*
Y20786D01*
X19400D01*
X19482Y20802D01*
X19551Y20849D01*
X19569Y20875D01*
X19573Y20877D01*
X19610Y20934D01*
X19623Y21000D01*
X19610Y21066D01*
X19573Y21123D01*
X19569Y21125D01*
X19551Y21151D01*
X19482Y21198D01*
X19400Y21214D01*
X19050D01*
Y22016D01*
X20126D01*
X23604Y18537D01*
D02*
G37*
G36*
X15295Y20546D02*
X15286Y20500D01*
X15302Y20418D01*
X15349Y20349D01*
X15418Y20302D01*
X15500Y20286D01*
X17100D01*
X17182Y20302D01*
X17251Y20349D01*
X17340Y20437D01*
X17386Y20418D01*
Y19950D01*
X17395Y19904D01*
X16618Y19126D01*
X15661D01*
X15618Y19118D01*
X15617Y19117D01*
X15207D01*
Y19353D01*
X15300Y19446D01*
X14887Y19447D01*
Y19900D01*
X14878Y19943D01*
X14854Y19979D01*
X14818Y20004D01*
X14775Y20012D01*
X14740Y20005D01*
X14710Y20020D01*
X14690Y20036D01*
Y20393D01*
X14985Y20688D01*
X15154D01*
X15295Y20546D01*
D02*
G37*
G36*
X16825Y16966D02*
X16861Y16942D01*
X16904Y16934D01*
X16904Y16934D01*
X17701D01*
Y16793D01*
X18150D01*
Y16612D01*
X17446D01*
X17327Y16731D01*
X17291Y16756D01*
X17248Y16764D01*
X17248Y16764D01*
X16114D01*
Y16952D01*
X15791D01*
X15764Y17002D01*
X15764Y17003D01*
X15773Y17046D01*
X15766Y17080D01*
X15781Y17110D01*
X15796Y17130D01*
X16661D01*
X16825Y16966D01*
D02*
G37*
G36*
X11350Y15923D02*
X11350Y15621D01*
X11382Y15589D01*
X11390Y15598D01*
X11390Y15598D01*
X11446Y15654D01*
X11679D01*
X11719Y15629D01*
Y15219D01*
X11718Y15219D01*
X11710Y15176D01*
Y14646D01*
X11676Y14612D01*
X10250D01*
X10250Y14612D01*
X10207Y14604D01*
X10171Y14579D01*
X9871Y14279D01*
X9846Y14243D01*
X9838Y14200D01*
X9712D01*
Y15204D01*
X10458Y15949D01*
X10936D01*
X10979Y15958D01*
X10980Y15958D01*
X11315D01*
X11350Y15923D01*
D02*
G37*
G36*
X32486Y14411D02*
Y13119D01*
X31247Y11880D01*
X30747D01*
Y11415D01*
X30747Y11394D01*
X30706Y11372D01*
X28936D01*
X28426Y11882D01*
Y13098D01*
X28441Y13110D01*
X28476Y13129D01*
X28511Y13122D01*
X28556Y13131D01*
X28594Y13157D01*
X28625D01*
X28663Y13131D01*
X28708Y13122D01*
X28753Y13131D01*
X28791Y13157D01*
X28822D01*
X28860Y13131D01*
X28905Y13122D01*
X28950Y13131D01*
X28988Y13157D01*
X29018D01*
X29057Y13131D01*
X29101Y13122D01*
X29146Y13131D01*
X29184Y13157D01*
X29210Y13195D01*
X29219Y13240D01*
Y13838D01*
X29229Y13850D01*
X29368D01*
X29378Y13838D01*
Y13240D01*
X29383Y13213D01*
Y12896D01*
X29193Y12706D01*
X29168Y12670D01*
X29160Y12627D01*
X29160Y12627D01*
Y12487D01*
X29019D01*
Y12000D01*
X29525D01*
Y12131D01*
X29851D01*
Y12000D01*
X30357D01*
Y12131D01*
X30747D01*
Y12000D01*
X31253D01*
Y12487D01*
X30747D01*
Y12356D01*
X30357D01*
Y12487D01*
X29851D01*
Y12356D01*
X29525D01*
Y12487D01*
X29384D01*
Y12580D01*
X29574Y12771D01*
X29574Y12771D01*
X29599Y12807D01*
X29607Y12850D01*
X29607Y12850D01*
Y13098D01*
X29622Y13110D01*
X29657Y13129D01*
X29692Y13122D01*
X29737Y13131D01*
X29775Y13157D01*
X29806D01*
X29844Y13131D01*
X29876Y13125D01*
X29904Y13099D01*
X29918Y13077D01*
X29912Y13050D01*
X29926Y12984D01*
X29963Y12927D01*
X30019Y12890D01*
X30086Y12877D01*
X30152Y12890D01*
X30208Y12927D01*
X30246Y12984D01*
X30259Y13050D01*
X30246Y13116D01*
X30208Y13173D01*
X30198Y13180D01*
Y13213D01*
X30203Y13240D01*
Y13838D01*
X30213Y13850D01*
X30375D01*
X30450Y13925D01*
Y14100D01*
X30489Y14131D01*
X30495Y14130D01*
X31094D01*
X31120Y14135D01*
X31148D01*
X31177Y14100D01*
X31190Y14034D01*
X31227Y13977D01*
X31284Y13940D01*
X31350Y13927D01*
X31416Y13940D01*
X31473Y13977D01*
X31510Y14034D01*
X31523Y14100D01*
X31510Y14166D01*
X31473Y14223D01*
X31454Y14235D01*
X31454Y14238D01*
X31429Y14274D01*
X31421Y14282D01*
X31442Y14332D01*
X31655D01*
X32021Y13966D01*
X32057Y13942D01*
X32100Y13934D01*
X32143Y13942D01*
X32179Y13966D01*
X32204Y14003D01*
X32212Y14046D01*
X32204Y14089D01*
X32179Y14125D01*
X31942Y14363D01*
X31961Y14409D01*
X32353D01*
Y14438D01*
X32459D01*
X32486Y14411D01*
D02*
G37*
G36*
X16371Y15971D02*
X16371Y15971D01*
X16407Y15946D01*
X16450Y15938D01*
X16450Y15938D01*
X17701D01*
Y15797D01*
X18150D01*
Y11909D01*
X17741Y11500D01*
X16664D01*
Y12365D01*
X16664Y12365D01*
X16664D01*
Y12443D01*
X16653Y12454D01*
Y12940D01*
X16147D01*
Y12454D01*
X16186D01*
Y12083D01*
X15572D01*
Y12283D01*
X14428D01*
Y12083D01*
X14270D01*
X13914Y12439D01*
Y12554D01*
X13953D01*
Y13040D01*
X13447D01*
Y12802D01*
X13046Y12401D01*
X12999Y12420D01*
Y12947D01*
X12999D01*
Y13241D01*
Y13747D01*
Y14041D01*
X13279Y14321D01*
X13279Y14321D01*
X13304Y14357D01*
X13312Y14400D01*
Y14722D01*
X13438D01*
X13485Y14720D01*
X13494Y14677D01*
X13518Y14640D01*
X13588Y14571D01*
Y13646D01*
X13447D01*
Y13160D01*
X13953D01*
Y13646D01*
X13812D01*
Y14617D01*
X13804Y14660D01*
X13796Y14672D01*
X13822Y14722D01*
X13831D01*
X13879Y14720D01*
X13887Y14677D01*
X13912Y14640D01*
X14888Y13664D01*
Y13464D01*
X14428D01*
Y12636D01*
X15572D01*
Y13464D01*
X15112D01*
Y13711D01*
X15112Y13711D01*
X15104Y13754D01*
X15079Y13790D01*
X15079Y13790D01*
X14587Y14282D01*
X14608Y14332D01*
X15212D01*
X16147Y13397D01*
Y13060D01*
X16653D01*
Y13546D01*
X16316D01*
X15338Y14524D01*
X15302Y14548D01*
X15259Y14557D01*
X15259Y14557D01*
X15106D01*
X15087Y14603D01*
X15472Y14988D01*
X17850D01*
X17893Y14996D01*
X17929Y15021D01*
X17954Y15057D01*
X17962Y15100D01*
X17954Y15143D01*
X17929Y15179D01*
X17893Y15204D01*
X17850Y15212D01*
X15426D01*
X15383Y15204D01*
X15347Y15179D01*
X15347Y15179D01*
X14928Y14761D01*
X14878Y14781D01*
Y15132D01*
X14878Y15133D01*
X14887Y15176D01*
Y15654D01*
X15207D01*
Y15949D01*
X16158D01*
X16201Y15958D01*
X16237Y15982D01*
X16258Y16013D01*
X16273Y16020D01*
X16314Y16027D01*
X16371Y15971D01*
D02*
G37*
G36*
X20126Y9747D02*
X20104Y9693D01*
X20092Y9600D01*
X20104Y9507D01*
X20140Y9421D01*
X20197Y9347D01*
X20271Y9290D01*
X20357Y9254D01*
X20450Y9242D01*
X20543Y9254D01*
X20629Y9290D01*
X20693Y9339D01*
X20743Y9323D01*
Y8996D01*
X20645Y8898D01*
X20629Y8910D01*
X20543Y8946D01*
X20450Y8958D01*
X20357Y8946D01*
X20271Y8910D01*
X20197Y8853D01*
X20140Y8779D01*
X20104Y8693D01*
X20092Y8600D01*
X20104Y8507D01*
X20140Y8421D01*
X20197Y8347D01*
X20271Y8290D01*
X20337Y8262D01*
X20327Y8212D01*
X20176D01*
X20176Y8212D01*
X20133Y8204D01*
X20097Y8179D01*
X20097Y8179D01*
X19280Y7362D01*
X15572D01*
Y7424D01*
X15607D01*
Y7781D01*
X15628Y7788D01*
X15657Y7789D01*
X15699Y7727D01*
X15768Y7680D01*
X15850Y7664D01*
X17846D01*
X17928Y7680D01*
X17997Y7727D01*
X18044Y7796D01*
X18060Y7878D01*
X18044Y7960D01*
X17997Y8029D01*
X17928Y8076D01*
X17846Y8092D01*
X15850D01*
X15768Y8076D01*
X15699Y8029D01*
X15657Y7967D01*
X15628Y7968D01*
X15607Y7975D01*
Y8332D01*
X14462D01*
Y9254D01*
X14996Y9788D01*
X20094D01*
X20126Y9747D01*
D02*
G37*
%LPC*%
G36*
X28117Y31070D02*
X28040Y31060D01*
X27968Y31030D01*
X27910Y30986D01*
X27672D01*
X27590Y30969D01*
X27520Y30923D01*
X27249Y30651D01*
X27202Y30582D01*
X27186Y30500D01*
Y28758D01*
X27202Y28676D01*
X27249Y28606D01*
X27606Y28249D01*
X27676Y28202D01*
X27758Y28186D01*
X33461D01*
X33636Y28011D01*
Y25350D01*
X33652Y25268D01*
X33699Y25199D01*
X34049Y24849D01*
X34118Y24802D01*
X34200Y24786D01*
X35911D01*
X36086Y24611D01*
Y22250D01*
Y22200D01*
X36102Y22118D01*
X36149Y22049D01*
X36218Y22002D01*
X36300Y21986D01*
X36382Y22002D01*
X36451Y22049D01*
X36498Y22118D01*
X36514Y22200D01*
Y22250D01*
Y24700D01*
X36498Y24782D01*
X36451Y24851D01*
X36151Y25151D01*
X36082Y25198D01*
X36000Y25214D01*
X34289D01*
X34064Y25439D01*
Y28100D01*
X34048Y28182D01*
X34001Y28251D01*
X33701Y28551D01*
X33632Y28598D01*
X33550Y28614D01*
X27846D01*
X27614Y28846D01*
Y30411D01*
X27760Y30558D01*
X27910D01*
X27968Y30513D01*
X28040Y30483D01*
X28117Y30473D01*
X28195Y30483D01*
X28267Y30513D01*
X28329Y30560D01*
X28376Y30622D01*
X28406Y30694D01*
X28416Y30772D01*
X28406Y30849D01*
X28376Y30921D01*
X28329Y30983D01*
X28267Y31030D01*
X28195Y31060D01*
X28117Y31070D01*
D02*
G37*
G36*
X29692Y29299D02*
X29615Y29289D01*
X29543Y29259D01*
X29481Y29211D01*
X29433Y29149D01*
X29403Y29077D01*
X29393Y29000D01*
X29403Y28923D01*
X29433Y28851D01*
X29481Y28789D01*
X29543Y28741D01*
X29615Y28711D01*
X29692Y28701D01*
X29769Y28711D01*
X29841Y28741D01*
X29903Y28789D01*
X29951Y28851D01*
X29981Y28923D01*
X29991Y29000D01*
X29981Y29077D01*
X29951Y29149D01*
X29903Y29211D01*
X29841Y29259D01*
X29769Y29289D01*
X29692Y29299D01*
D02*
G37*
G36*
X28905D02*
X28827Y29289D01*
X28755Y29259D01*
X28693Y29211D01*
X28646Y29149D01*
X28616Y29077D01*
X28606Y29000D01*
X28616Y28923D01*
X28646Y28851D01*
X28693Y28789D01*
X28755Y28741D01*
X28827Y28711D01*
X28905Y28701D01*
X28982Y28711D01*
X29054Y28741D01*
X29116Y28789D01*
X29163Y28851D01*
X29193Y28923D01*
X29203Y29000D01*
X29193Y29077D01*
X29163Y29149D01*
X29116Y29211D01*
X29054Y29259D01*
X28982Y29289D01*
X28905Y29299D01*
D02*
G37*
G36*
X28117D02*
X28040Y29289D01*
X27968Y29259D01*
X27906Y29211D01*
X27858Y29149D01*
X27829Y29077D01*
X27818Y29000D01*
X27829Y28923D01*
X27858Y28851D01*
X27906Y28789D01*
X27968Y28741D01*
X28040Y28711D01*
X28117Y28701D01*
X28195Y28711D01*
X28267Y28741D01*
X28329Y28789D01*
X28376Y28851D01*
X28406Y28923D01*
X28416Y29000D01*
X28406Y29077D01*
X28376Y29149D01*
X28329Y29211D01*
X28267Y29259D01*
X28195Y29289D01*
X28117Y29299D01*
D02*
G37*
G36*
X30421Y25370D02*
X29908D01*
Y25259D01*
X29497D01*
X29497Y25259D01*
X29454Y25250D01*
X29418Y25226D01*
X29418Y25226D01*
X27804Y23612D01*
X27330D01*
X27323Y23623D01*
X27266Y23660D01*
X27200Y23673D01*
X27134Y23660D01*
X27077Y23623D01*
X27040Y23566D01*
X27027Y23500D01*
X27040Y23434D01*
X27077Y23377D01*
X27134Y23340D01*
X27173Y23332D01*
X27179Y23331D01*
X27175Y23291D01*
X27175D01*
X27175Y23291D01*
X27129Y23281D01*
X25255D01*
Y23422D01*
X24545D01*
Y22711D01*
X24686D01*
Y22350D01*
X24647Y22320D01*
X24590Y22246D01*
X24554Y22160D01*
X24542Y22067D01*
X24554Y21974D01*
X24590Y21888D01*
X24647Y21813D01*
X24721Y21756D01*
X24807Y21721D01*
X24900Y21708D01*
X24993Y21721D01*
X25079Y21756D01*
X25153Y21813D01*
X25210Y21888D01*
X25246Y21974D01*
X25258Y22067D01*
X25246Y22160D01*
X25210Y22246D01*
X25153Y22320D01*
X25114Y22350D01*
Y22711D01*
X25255D01*
Y22853D01*
X27345D01*
X27388Y22809D01*
Y22686D01*
X27404Y22604D01*
X27451Y22535D01*
X27520Y22488D01*
X27602Y22472D01*
X27684Y22488D01*
X27754Y22535D01*
X27800Y22604D01*
X27816Y22686D01*
Y22898D01*
X27800Y22980D01*
X27754Y23049D01*
X27585Y23218D01*
X27515Y23265D01*
X27433Y23281D01*
X27271D01*
X27225Y23291D01*
X27225Y23291D01*
X27225D01*
X27221Y23331D01*
X27227Y23332D01*
X27266Y23340D01*
X27323Y23377D01*
X27330Y23388D01*
X27850D01*
X27850Y23388D01*
X27893Y23396D01*
X27929Y23421D01*
X29543Y25035D01*
X29908D01*
Y24923D01*
X30421D01*
Y25370D01*
D02*
G37*
G36*
X30758Y24107D02*
X30146D01*
Y24069D01*
X30145Y24022D01*
X30102Y24013D01*
X30066Y23989D01*
X29933Y23856D01*
X29897Y23822D01*
X29391D01*
Y23336D01*
X29897D01*
Y23470D01*
X29922Y23475D01*
X29958Y23499D01*
X30079Y23621D01*
X30079Y23621D01*
X30104Y23657D01*
X30108Y23681D01*
X30140Y23707D01*
X30160Y23712D01*
X30758D01*
Y24107D01*
D02*
G37*
G36*
X23900Y23425D02*
X23807Y23413D01*
X23721Y23377D01*
X23647Y23320D01*
X23590Y23246D01*
X23554Y23160D01*
X23542Y23067D01*
X23554Y22974D01*
X23582Y22907D01*
X23371Y22696D01*
X23346Y22660D01*
X23338Y22617D01*
X23338Y22617D01*
Y20947D01*
X23338Y20947D01*
X23346Y20904D01*
X23371Y20868D01*
X24918Y19321D01*
X24918Y19321D01*
X24954Y19296D01*
X24997Y19288D01*
X25221D01*
Y19147D01*
X25707D01*
Y19653D01*
X25221D01*
Y19512D01*
X25044D01*
X23562Y20994D01*
Y21841D01*
X23612Y21858D01*
X23647Y21813D01*
X23721Y21756D01*
X23788Y21729D01*
Y21650D01*
X23788Y21650D01*
X23796Y21607D01*
X23821Y21571D01*
X24183Y21209D01*
X24183Y21209D01*
X24219Y21185D01*
X24262Y21176D01*
X24262Y21176D01*
X26020D01*
X26020Y21176D01*
X26063Y21185D01*
X26100Y21209D01*
X26516Y21625D01*
X26853D01*
Y22111D01*
X26347D01*
Y21774D01*
X25974Y21400D01*
X24308D01*
X24026Y21682D01*
X24034Y21738D01*
X24079Y21756D01*
X24153Y21813D01*
X24210Y21888D01*
X24246Y21974D01*
X24258Y22067D01*
X24246Y22160D01*
X24210Y22246D01*
X24153Y22320D01*
X24079Y22377D01*
X23993Y22413D01*
X23900Y22425D01*
X23807Y22413D01*
X23721Y22377D01*
X23647Y22320D01*
X23612Y22275D01*
X23562Y22292D01*
Y22570D01*
X23740Y22748D01*
X23807Y22721D01*
X23900Y22708D01*
X23993Y22721D01*
X24079Y22756D01*
X24153Y22813D01*
X24210Y22888D01*
X24246Y22974D01*
X24258Y23067D01*
X24246Y23160D01*
X24210Y23246D01*
X24153Y23320D01*
X24079Y23377D01*
X23993Y23413D01*
X23900Y23425D01*
D02*
G37*
G36*
X29606Y22082D02*
X28604D01*
X28522Y22066D01*
X28453Y22019D01*
X28406Y21950D01*
X28390Y21868D01*
X28406Y21786D01*
X28453Y21717D01*
X28522Y21670D01*
X28604Y21654D01*
X29606D01*
X29688Y21670D01*
X29758Y21717D01*
X29804Y21786D01*
X29820Y21868D01*
X29804Y21950D01*
X29758Y22019D01*
X29688Y22066D01*
X29606Y22082D01*
D02*
G37*
G36*
X26853Y22717D02*
X26347D01*
Y22231D01*
X26559D01*
X26572Y22223D01*
X26654Y22206D01*
X26736Y22223D01*
X26748Y22231D01*
X26853D01*
Y22280D01*
X26903Y22300D01*
X26938Y22265D01*
Y21046D01*
X26604Y20713D01*
X26550Y20723D01*
X26484Y20710D01*
X26427Y20673D01*
X26390Y20616D01*
X26377Y20550D01*
X26390Y20484D01*
X26427Y20427D01*
X26484Y20390D01*
X26550Y20377D01*
X26616Y20390D01*
X26673Y20427D01*
X26710Y20484D01*
X26715Y20506D01*
X27129Y20921D01*
X27129Y20921D01*
X27154Y20957D01*
X27162Y21000D01*
X27162Y21000D01*
Y22312D01*
X27154Y22355D01*
X27129Y22391D01*
X27129Y22391D01*
X26967Y22554D01*
X26930Y22578D01*
X26888Y22586D01*
X26853Y22619D01*
Y22717D01*
D02*
G37*
G36*
X38703Y20905D02*
X37993D01*
Y20620D01*
X37933D01*
Y19791D01*
X38802D01*
Y20620D01*
X38703D01*
Y20905D01*
D02*
G37*
G36*
X34816Y17889D02*
X34118D01*
Y17312D01*
X34816D01*
Y17489D01*
X34953D01*
X35047Y17394D01*
X35047Y17394D01*
X35083Y17370D01*
X35126Y17362D01*
X35126Y17362D01*
X35231D01*
Y17231D01*
X35736D01*
Y17717D01*
X35231D01*
Y17586D01*
X35173D01*
X35079Y17680D01*
X35042Y17704D01*
X34999Y17713D01*
X34999Y17713D01*
X34816D01*
Y17889D01*
D02*
G37*
G36*
X34720Y13899D02*
X34214D01*
Y13768D01*
X34113D01*
X34113Y13768D01*
X34070Y13760D01*
X34033Y13736D01*
X34033Y13736D01*
X33871Y13573D01*
X33846Y13537D01*
X33838Y13494D01*
X33838Y13494D01*
Y12570D01*
X33838Y12570D01*
X33846Y12527D01*
X33871Y12491D01*
X34091Y12271D01*
X34091Y12271D01*
X34127Y12246D01*
X34170Y12238D01*
X34170Y12238D01*
X35263D01*
X35263Y12238D01*
X35306Y12246D01*
X35342Y12271D01*
X35563Y12491D01*
X35563Y12491D01*
X35587Y12527D01*
X35596Y12570D01*
X35596Y12570D01*
Y12787D01*
X35755D01*
Y13274D01*
X35249D01*
Y12787D01*
X35371D01*
Y12617D01*
X35217Y12462D01*
X34217D01*
X34062Y12617D01*
Y13447D01*
X34159Y13544D01*
X34214D01*
Y13413D01*
X34720D01*
Y13899D01*
D02*
G37*
G36*
X37312Y15025D02*
X36956D01*
Y14472D01*
X37022D01*
Y14146D01*
X36855D01*
Y13660D01*
X37361D01*
Y14146D01*
X37246D01*
Y14472D01*
X37312D01*
Y15025D01*
D02*
G37*
G36*
X37958Y13508D02*
X37161D01*
X37079Y13492D01*
X37010Y13445D01*
X36963Y13376D01*
X36947Y13294D01*
X36963Y13212D01*
X37010Y13142D01*
X37079Y13096D01*
X37161Y13080D01*
X37958D01*
X38040Y13096D01*
X38109Y13142D01*
X38156Y13212D01*
X38172Y13294D01*
X38156Y13376D01*
X38109Y13445D01*
X38040Y13492D01*
X37958Y13508D01*
D02*
G37*
G36*
X20805Y11955D02*
X20095D01*
Y11245D01*
X20805D01*
Y11955D01*
D02*
G37*
G36*
X21450Y11958D02*
X21357Y11946D01*
X21271Y11910D01*
X21197Y11853D01*
X21140Y11779D01*
X21104Y11693D01*
X21092Y11600D01*
X21104Y11507D01*
X21140Y11421D01*
X21197Y11347D01*
X21271Y11290D01*
X21357Y11254D01*
X21450Y11242D01*
X21543Y11254D01*
X21629Y11290D01*
X21703Y11347D01*
X21760Y11421D01*
X21796Y11507D01*
X21808Y11600D01*
X21796Y11693D01*
X21760Y11779D01*
X21703Y11853D01*
X21629Y11910D01*
X21543Y11946D01*
X21450Y11958D01*
D02*
G37*
G36*
X13391Y10561D02*
X10491D01*
X10409Y10545D01*
X10339Y10498D01*
X10293Y10429D01*
X10276Y10347D01*
X10293Y10265D01*
X10339Y10195D01*
X10409Y10149D01*
X10491Y10133D01*
X13391D01*
X13472Y10149D01*
X13542Y10195D01*
X13588Y10265D01*
X13605Y10347D01*
X13588Y10429D01*
X13542Y10498D01*
X13472Y10545D01*
X13391Y10561D01*
D02*
G37*
G36*
X25500Y10258D02*
X24450D01*
X24368Y10242D01*
X24299Y10195D01*
X24252Y10126D01*
X24236Y10044D01*
X24252Y9962D01*
X24299Y9892D01*
X24368Y9846D01*
X24450Y9830D01*
X25500D01*
X25582Y9846D01*
X25651Y9892D01*
X25698Y9962D01*
X25714Y10044D01*
X25698Y10126D01*
X25651Y10195D01*
X25582Y10242D01*
X25500Y10258D01*
D02*
G37*
G36*
X37255Y9464D02*
X37058D01*
X36976Y9448D01*
X36907Y9401D01*
X36149Y8643D01*
X36102Y8574D01*
X36086Y8492D01*
Y7717D01*
X36043D01*
Y7588D01*
X35974D01*
X35892Y7572D01*
X35823Y7525D01*
X35649Y7351D01*
X35602Y7282D01*
X35586Y7200D01*
Y6829D01*
X35553Y6793D01*
X35047D01*
X35014Y6829D01*
Y7156D01*
X34998Y7238D01*
X34951Y7308D01*
X34791Y7468D01*
X34721Y7515D01*
X34639Y7531D01*
X34351D01*
X34269Y7515D01*
X34240Y7495D01*
X34075D01*
Y7495D01*
X34062Y7483D01*
X33525Y7489D01*
Y7495D01*
X32972D01*
Y7429D01*
X32446D01*
Y7570D01*
X31960D01*
Y7064D01*
X32446D01*
Y7205D01*
X32972D01*
Y6783D01*
X32269D01*
X32187Y6767D01*
X32176Y6759D01*
X31963D01*
Y6253D01*
X31963Y6253D01*
X31963D01*
X31942Y6212D01*
X31894Y6164D01*
X30461D01*
X30257Y6379D01*
Y6625D01*
X29743D01*
Y6553D01*
X25750D01*
X25668Y6536D01*
X25599Y6490D01*
X25552Y6421D01*
X25536Y6339D01*
X25552Y6257D01*
X25599Y6187D01*
X25668Y6141D01*
X25750Y6124D01*
X29437D01*
X29456Y6079D01*
X29451Y6073D01*
X29430Y6040D01*
X29408Y6008D01*
X29408Y6005D01*
X29407Y6003D01*
X29400Y5964D01*
X29392Y5926D01*
Y4864D01*
X29111D01*
Y4951D01*
X29111Y4951D01*
X29102Y4994D01*
X29078Y5030D01*
X28429Y5679D01*
X28393Y5704D01*
X28350Y5712D01*
X28350Y5712D01*
X28099D01*
Y5853D01*
X27613D01*
Y5347D01*
X28099D01*
Y5488D01*
X28304D01*
X28877Y4914D01*
X28863Y4864D01*
X28722D01*
Y4373D01*
X28676Y4354D01*
X28407Y4623D01*
X28353Y4659D01*
Y4715D01*
X27847D01*
Y4686D01*
X27353D01*
Y4715D01*
X27314D01*
Y4750D01*
X27298Y4832D01*
X27251Y4901D01*
X26971Y5182D01*
X26901Y5229D01*
X26819Y5245D01*
X26357D01*
Y5337D01*
X25843D01*
Y5245D01*
X25589D01*
X24354Y6480D01*
X24284Y6526D01*
X24202Y6543D01*
X22341D01*
X22259Y6526D01*
X22189Y6480D01*
X22143Y6410D01*
X22127Y6328D01*
X22143Y6247D01*
X22189Y6177D01*
X22259Y6131D01*
X22341Y6114D01*
X24114D01*
X25197Y5031D01*
X24949Y4782D01*
X24902Y4713D01*
X24886Y4631D01*
Y3650D01*
X24902Y3568D01*
X24949Y3499D01*
X25499Y2949D01*
X25568Y2902D01*
X25650Y2886D01*
X27582D01*
X27686Y2782D01*
Y1700D01*
X27702Y1618D01*
X27749Y1549D01*
X28449Y849D01*
X28518Y802D01*
X28600Y786D01*
X28816D01*
X28847Y747D01*
X28921Y690D01*
X28983Y664D01*
X28973Y614D01*
X26889D01*
X25914Y1589D01*
Y1716D01*
X25953Y1747D01*
X26010Y1821D01*
X26046Y1907D01*
X26058Y2000D01*
X26046Y2093D01*
X26010Y2179D01*
X25953Y2253D01*
X25879Y2310D01*
X25793Y2346D01*
X25700Y2358D01*
X25607Y2346D01*
X25521Y2310D01*
X25447Y2253D01*
X25390Y2179D01*
X25354Y2093D01*
X25342Y2000D01*
X25354Y1907D01*
X25390Y1821D01*
X25447Y1747D01*
X25486Y1716D01*
Y1500D01*
X25502Y1418D01*
X25549Y1349D01*
X26649Y249D01*
X26718Y202D01*
X26800Y186D01*
X34001D01*
X34083Y202D01*
X34153Y249D01*
X34351Y447D01*
X34398Y517D01*
X34414Y599D01*
Y1550D01*
X34398Y1632D01*
X34351Y1701D01*
X34313Y1740D01*
X34332Y1786D01*
X35900D01*
X35982Y1802D01*
X36051Y1849D01*
X37101Y2899D01*
X37148Y2968D01*
X37164Y3050D01*
Y3770D01*
X37214Y3773D01*
X37223Y3707D01*
X37259Y3621D01*
X37316Y3547D01*
X37390Y3490D01*
X37476Y3454D01*
X37569Y3442D01*
X37662Y3454D01*
X37748Y3490D01*
X37822Y3547D01*
X37879Y3621D01*
X37915Y3707D01*
X37927Y3800D01*
X37915Y3893D01*
X37879Y3979D01*
X37822Y4053D01*
X37748Y4110D01*
X37662Y4146D01*
X37569Y4158D01*
X37476Y4146D01*
X37390Y4110D01*
X37316Y4053D01*
X37259Y3979D01*
X37223Y3893D01*
X37214Y3827D01*
X37164Y3830D01*
Y6132D01*
X37214Y6135D01*
X37223Y6069D01*
X37259Y5983D01*
X37316Y5909D01*
X37390Y5852D01*
X37476Y5816D01*
X37569Y5804D01*
X37662Y5816D01*
X37748Y5852D01*
X37822Y5909D01*
X37879Y5983D01*
X37915Y6069D01*
X37927Y6162D01*
X37915Y6255D01*
X37879Y6341D01*
X37822Y6416D01*
X37748Y6473D01*
X37662Y6508D01*
X37569Y6521D01*
X37476Y6508D01*
X37390Y6473D01*
X37316Y6416D01*
X37259Y6341D01*
X37223Y6255D01*
X37214Y6189D01*
X37164Y6192D01*
Y7124D01*
X37148Y7206D01*
X37101Y7275D01*
X36814Y7563D01*
X36745Y7609D01*
X36663Y7626D01*
X36557D01*
Y7717D01*
X36514D01*
Y8403D01*
X37147Y9036D01*
X37255D01*
X37337Y9052D01*
X37406Y9099D01*
X37453Y9168D01*
X37469Y9250D01*
X37453Y9332D01*
X37406Y9401D01*
X37337Y9448D01*
X37255Y9464D01*
D02*
G37*
G36*
X31597Y7531D02*
X31515Y7515D01*
X31445Y7468D01*
X31399Y7399D01*
X31383Y7317D01*
Y6509D01*
X31399Y6427D01*
X31445Y6358D01*
X31449Y6355D01*
X31518Y6308D01*
X31600Y6292D01*
X31682Y6308D01*
X31751Y6355D01*
X31798Y6424D01*
X31814Y6506D01*
X31811Y6522D01*
Y7317D01*
X31795Y7399D01*
X31748Y7468D01*
X31679Y7515D01*
X31597Y7531D01*
D02*
G37*
G36*
X22055Y2355D02*
X21345D01*
Y1645D01*
X22055D01*
Y2355D01*
D02*
G37*
G36*
X26700Y2358D02*
X26607Y2346D01*
X26521Y2310D01*
X26447Y2253D01*
X26390Y2179D01*
X26354Y2093D01*
X26342Y2000D01*
X26354Y1907D01*
X26390Y1821D01*
X26447Y1747D01*
X26521Y1690D01*
X26607Y1654D01*
X26700Y1642D01*
X26793Y1654D01*
X26879Y1690D01*
X26953Y1747D01*
X27010Y1821D01*
X27046Y1907D01*
X27058Y2000D01*
X27046Y2093D01*
X27010Y2179D01*
X26953Y2253D01*
X26879Y2310D01*
X26793Y2346D01*
X26700Y2358D01*
D02*
G37*
%LPD*%
G36*
X36736Y7035D02*
Y3139D01*
X35811Y2214D01*
X33455D01*
Y2355D01*
X32745D01*
Y2214D01*
X32384D01*
X32353Y2253D01*
X32279Y2310D01*
X32193Y2346D01*
X32100Y2358D01*
X32007Y2346D01*
X31921Y2310D01*
X31847Y2253D01*
X31790Y2179D01*
X31754Y2093D01*
X31742Y2000D01*
X31754Y1907D01*
X31790Y1821D01*
X31847Y1747D01*
X31921Y1690D01*
X32007Y1654D01*
X32100Y1642D01*
X32193Y1654D01*
X32279Y1690D01*
X32353Y1747D01*
X32384Y1786D01*
X32745D01*
Y1645D01*
X33455D01*
Y1786D01*
X33661D01*
X33986Y1461D01*
Y688D01*
X33912Y614D01*
X29227D01*
X29217Y664D01*
X29279Y690D01*
X29353Y747D01*
X29410Y821D01*
X29446Y907D01*
X29458Y1000D01*
X29446Y1093D01*
X29410Y1179D01*
X29353Y1253D01*
X29279Y1310D01*
X29193Y1346D01*
X29100Y1358D01*
X29007Y1346D01*
X28921Y1310D01*
X28847Y1253D01*
X28816Y1214D01*
X28689D01*
X28114Y1789D01*
Y2870D01*
X28098Y2952D01*
X28051Y3022D01*
X27822Y3251D01*
X27752Y3298D01*
X27670Y3314D01*
X25739D01*
X25314Y3739D01*
Y4542D01*
X25589Y4817D01*
X25843D01*
Y4725D01*
X26357D01*
Y4817D01*
X26731D01*
X26847Y4700D01*
Y4229D01*
X27353D01*
Y4258D01*
X27847D01*
Y4229D01*
X28196D01*
X28638Y3787D01*
X28707Y3740D01*
X28789Y3724D01*
X28999D01*
X29081Y3740D01*
X29095Y3750D01*
X29392D01*
Y3695D01*
X28949Y3251D01*
X28902Y3182D01*
X28886Y3100D01*
Y2284D01*
X28847Y2253D01*
X28790Y2179D01*
X28754Y2093D01*
X28742Y2000D01*
X28754Y1907D01*
X28790Y1821D01*
X28847Y1747D01*
X28921Y1690D01*
X29007Y1654D01*
X29100Y1642D01*
X29193Y1654D01*
X29279Y1690D01*
X29353Y1747D01*
X29410Y1821D01*
X29446Y1907D01*
X29458Y2000D01*
X29446Y2093D01*
X29410Y2179D01*
X29353Y2253D01*
X29314Y2284D01*
Y3011D01*
X29758Y3455D01*
X29804Y3524D01*
X29820Y3606D01*
Y3750D01*
X30357D01*
Y4093D01*
X30368Y4115D01*
X30424Y4128D01*
X30715Y3836D01*
X30715Y3836D01*
X30751Y3812D01*
X30794Y3803D01*
X30794Y3803D01*
X31197D01*
Y3672D01*
X31703D01*
Y3803D01*
X31997D01*
Y3672D01*
X32097D01*
X32138Y3650D01*
X32146Y3607D01*
X32171Y3571D01*
X32371Y3371D01*
X32371Y3371D01*
X32407Y3346D01*
X32450Y3338D01*
X32450Y3338D01*
X34151D01*
X34151Y3338D01*
X34194Y3346D01*
X34230Y3371D01*
X34430Y3571D01*
X34430Y3571D01*
X34455Y3607D01*
X34463Y3650D01*
X34463Y3650D01*
Y3810D01*
X34628D01*
Y4166D01*
X34628D01*
Y4184D01*
X34628D01*
Y4250D01*
X34751D01*
X34751Y4250D01*
X34794Y4259D01*
X34830Y4283D01*
X34957Y4410D01*
X35047D01*
Y4279D01*
X35553D01*
Y4410D01*
X36047D01*
Y4279D01*
X36553D01*
Y4765D01*
X36412D01*
Y5944D01*
X36557D01*
Y6556D01*
X36043D01*
Y5944D01*
X36188D01*
Y4765D01*
X36047D01*
Y4634D01*
X35553D01*
Y4765D01*
X35047D01*
Y4634D01*
X34911D01*
X34868Y4625D01*
X34831Y4601D01*
X34831Y4601D01*
X34705Y4474D01*
X34628D01*
Y4540D01*
X34628D01*
Y4558D01*
X34628D01*
Y4914D01*
X34463D01*
Y5399D01*
X34455Y5442D01*
X34430Y5478D01*
X34430Y5478D01*
X34393Y5516D01*
Y5853D01*
X33907D01*
Y5347D01*
X34239D01*
Y4996D01*
X32998Y4953D01*
X32962Y4988D01*
Y5304D01*
X33146Y5488D01*
X33301D01*
Y5347D01*
X33787D01*
Y5853D01*
X33301D01*
Y5712D01*
X33100D01*
X33057Y5704D01*
X33021Y5679D01*
X33021Y5679D01*
X32771Y5429D01*
X32746Y5393D01*
X32738Y5350D01*
X32738Y5350D01*
Y4088D01*
X32738Y4088D01*
X32746Y4045D01*
X32771Y4009D01*
X32871Y3909D01*
X32871Y3909D01*
X32907Y3885D01*
X32950Y3876D01*
X32972D01*
Y3810D01*
X33525D01*
Y3885D01*
X34075D01*
Y3810D01*
X34239D01*
Y3696D01*
X34105Y3562D01*
X32496D01*
X32433Y3626D01*
X32452Y3672D01*
X32503D01*
Y4158D01*
X31997D01*
Y4028D01*
X31703D01*
Y4158D01*
X31197D01*
Y4028D01*
X30841D01*
X30477Y4392D01*
X30440Y4416D01*
X30398Y4424D01*
X30388Y4445D01*
X30378Y4490D01*
Y4508D01*
X30378D01*
Y4864D01*
X29820D01*
Y5840D01*
X29970Y5997D01*
X30029Y5997D01*
X30214Y5803D01*
X30216Y5801D01*
X30218Y5799D01*
X30250Y5777D01*
X30282Y5754D01*
X30285Y5754D01*
X30287Y5752D01*
X30326Y5745D01*
X30364Y5736D01*
X30367Y5736D01*
X30369Y5736D01*
X31983D01*
X32065Y5752D01*
X32134Y5799D01*
X32358Y6022D01*
X32404Y6091D01*
X32420Y6173D01*
Y6253D01*
X32449D01*
Y6355D01*
X32972D01*
Y6300D01*
X32972D01*
X32972Y6284D01*
X33000Y6257D01*
X33017Y6273D01*
X33035Y6292D01*
X33072Y6328D01*
X34639D01*
Y6355D01*
X35047D01*
Y6307D01*
X35553D01*
Y6336D01*
X35681D01*
X35763Y6352D01*
X35833Y6399D01*
X35951Y6518D01*
X35998Y6587D01*
X36014Y6669D01*
Y7067D01*
X36043Y7105D01*
X36557D01*
Y7144D01*
X36607Y7164D01*
X36736Y7035D01*
D02*
G37*
%LPC*%
G36*
X32250Y4736D02*
X31450D01*
X31368Y4719D01*
X31299Y4673D01*
X31252Y4604D01*
X31236Y4522D01*
X31252Y4440D01*
X31299Y4370D01*
X31368Y4324D01*
X31450Y4308D01*
X32250D01*
X32250Y4308D01*
X32332Y4324D01*
X32401Y4370D01*
X32448Y4440D01*
X32464Y4522D01*
X32448Y4604D01*
X32401Y4673D01*
X32332Y4719D01*
X32250Y4736D01*
D02*
G37*
G36*
X36300Y4129D02*
X35300D01*
X35218Y4113D01*
X35149Y4067D01*
X35102Y3997D01*
X35086Y3915D01*
X35102Y3833D01*
X35149Y3764D01*
X35218Y3718D01*
X35300Y3701D01*
X36300D01*
X36300Y3701D01*
X36382Y3718D01*
X36451Y3764D01*
X36498Y3833D01*
X36514Y3915D01*
X36498Y3997D01*
X36451Y4067D01*
X36382Y4113D01*
X36300Y4129D01*
D02*
G37*
G36*
X28096Y4083D02*
X26100D01*
X26018Y4067D01*
X25949Y4021D01*
X25902Y3951D01*
X25886Y3869D01*
X25902Y3787D01*
X25949Y3718D01*
X26018Y3671D01*
X26100Y3655D01*
X28080D01*
X28100Y3651D01*
X28182Y3668D01*
X28251Y3714D01*
X28298Y3783D01*
X28314Y3865D01*
X28298Y3947D01*
X28251Y4017D01*
X28247Y4021D01*
X28178Y4067D01*
X28096Y4083D01*
D02*
G37*
G36*
X31100Y2358D02*
X31007Y2346D01*
X30921Y2310D01*
X30847Y2253D01*
X30816Y2214D01*
X30384D01*
X30353Y2253D01*
X30279Y2310D01*
X30193Y2346D01*
X30100Y2358D01*
X30007Y2346D01*
X29921Y2310D01*
X29847Y2253D01*
X29790Y2179D01*
X29754Y2093D01*
X29742Y2000D01*
X29754Y1907D01*
X29790Y1821D01*
X29847Y1747D01*
X29921Y1690D01*
X30007Y1654D01*
X30100Y1642D01*
X30193Y1654D01*
X30279Y1690D01*
X30353Y1747D01*
X30384Y1786D01*
X30816D01*
X30847Y1747D01*
X30921Y1690D01*
X31007Y1654D01*
X31100Y1642D01*
X31193Y1654D01*
X31279Y1690D01*
X31353Y1747D01*
X31410Y1821D01*
X31446Y1907D01*
X31458Y2000D01*
X31446Y2093D01*
X31410Y2179D01*
X31353Y2253D01*
X31279Y2310D01*
X31193Y2346D01*
X31100Y2358D01*
D02*
G37*
G36*
X33100Y1214D02*
X30100D01*
X30018Y1198D01*
X29949Y1151D01*
X29902Y1082D01*
X29886Y1000D01*
X29902Y918D01*
X29949Y849D01*
X30018Y802D01*
X30100Y786D01*
X33100D01*
X33182Y802D01*
X33251Y849D01*
X33298Y918D01*
X33314Y1000D01*
X33298Y1082D01*
X33251Y1151D01*
X33182Y1198D01*
X33100Y1214D01*
D02*
G37*
G36*
X2050Y12212D02*
X1050D01*
X1007Y12204D01*
X971Y12179D01*
X946Y12143D01*
X938Y12100D01*
X946Y12057D01*
X971Y12021D01*
X1007Y11996D01*
X1050Y11988D01*
X2050D01*
X2093Y11996D01*
X2129Y12021D01*
X2154Y12057D01*
X2162Y12100D01*
X2154Y12143D01*
X2129Y12179D01*
X2093Y12204D01*
X2050Y12212D01*
D02*
G37*
G36*
X18550Y21820D02*
X17600D01*
X17518Y21804D01*
X17449Y21758D01*
X17402Y21688D01*
X17386Y21606D01*
X17402Y21524D01*
X17449Y21455D01*
X17518Y21408D01*
X17600Y21392D01*
X18550D01*
X18632Y21408D01*
X18701Y21455D01*
X18748Y21524D01*
X18764Y21606D01*
X18748Y21688D01*
X18701Y21758D01*
X18632Y21804D01*
X18550Y21820D01*
D02*
G37*
G36*
X21450Y20358D02*
X21357Y20346D01*
X21271Y20310D01*
X21197Y20253D01*
X21140Y20179D01*
X21104Y20093D01*
X21092Y20000D01*
X21104Y19907D01*
X21140Y19821D01*
X21197Y19747D01*
X21271Y19690D01*
X21357Y19654D01*
X21450Y19642D01*
X21543Y19654D01*
X21629Y19690D01*
X21703Y19747D01*
X21760Y19821D01*
X21796Y19907D01*
X21808Y20000D01*
X21796Y20093D01*
X21760Y20179D01*
X21703Y20253D01*
X21629Y20310D01*
X21543Y20346D01*
X21450Y20358D01*
D02*
G37*
G36*
X30104Y11851D02*
X29272D01*
X29190Y11835D01*
X29120Y11789D01*
X29074Y11719D01*
X29058Y11637D01*
X29074Y11555D01*
X29120Y11486D01*
X29190Y11439D01*
X29272Y11423D01*
X30104D01*
X30186Y11439D01*
X30255Y11486D01*
X30302Y11555D01*
X30318Y11637D01*
X30302Y11719D01*
X30255Y11789D01*
X30186Y11835D01*
X30104Y11851D01*
D02*
G37*
%LPD*%
D14*
X27345Y12750D02*
X27527Y12932D01*
X24656Y12750D02*
X27345D01*
X24454Y12548D02*
X24656Y12750D01*
X24454Y11950D02*
Y12548D01*
X27527Y12932D02*
Y13539D01*
X24450Y10650D02*
X24454Y10654D01*
Y11950D01*
X25500Y10650D02*
Y11888D01*
X25438Y11950D02*
X25500Y11888D01*
Y11950D02*
X27567D01*
X28117Y21611D02*
Y23202D01*
X26654Y20147D02*
X28117Y21611D01*
X26654Y19400D02*
Y20147D01*
X24997Y19400D02*
X25464D01*
X23450Y20947D02*
X24997Y19400D01*
X23450Y20947D02*
Y22617D01*
X23900Y23067D01*
X26654Y17946D02*
Y19400D01*
X26071D02*
X26654D01*
X37841Y6671D02*
Y8218D01*
X29497Y25147D02*
X30165D01*
X27850Y23500D02*
X29497Y25147D01*
X27200Y23500D02*
X27850D01*
X25100Y14453D02*
X25109Y14444D01*
X15426Y15100D02*
X17119D01*
X14585Y19300D02*
X14670D01*
X14500D02*
X14585D01*
X17119Y15100D02*
X17850D01*
X18550Y21010D02*
X18900Y21000D01*
X18540Y21010D02*
X18550Y21010D01*
X17590Y21010D02*
X17610D01*
X18550Y21010D02*
X18550D01*
X17119Y21010D02*
Y23481D01*
X14762Y25838D02*
X17119Y23481D01*
X14670Y19300D02*
X14775Y19405D01*
X14381Y19419D02*
X14500Y19300D01*
X14775Y19405D02*
Y19900D01*
X14381Y19419D02*
Y19900D01*
X15000Y16947D02*
X15099Y17046D01*
X15000Y16161D02*
Y16947D01*
Y16161D02*
X15100Y16061D01*
X15661D01*
X15099Y17046D02*
X15661D01*
Y16061D02*
X16158D01*
X14930Y14604D02*
X15426Y15100D01*
X14698Y14604D02*
X14930D01*
X14578Y14724D02*
X14698Y14604D01*
X14578Y14724D02*
Y15176D01*
X1050Y12100D02*
X2050D01*
X27724Y17909D02*
Y18447D01*
X27500Y18671D02*
X27724Y18447D01*
X27500Y18671D02*
Y18850D01*
X27800Y18650D02*
Y18900D01*
Y18650D02*
X27920Y18530D01*
Y17909D02*
Y18530D01*
X25109Y14444D02*
X26424D01*
X27550Y17300D02*
X27700D01*
X27330Y17520D02*
X27550Y17300D01*
X27330Y17520D02*
Y17909D01*
X30245Y17046D02*
X30400Y17200D01*
X30200Y17000D02*
X30245Y17046D01*
X27133Y17909D02*
Y19188D01*
Y17400D02*
Y17909D01*
X27487Y17046D02*
X30245D01*
X27133Y17400D02*
X27487Y17046D01*
X27400Y18450D02*
X27527Y18323D01*
X32093Y17003D02*
X32100Y16997D01*
X30794Y17003D02*
X32093D01*
X31701Y14444D02*
X32100Y14046D01*
X30794Y14444D02*
X31701D01*
X31350Y14100D02*
Y14195D01*
X31298Y14248D02*
X31350Y14195D01*
X37108Y13953D02*
X37134Y13979D01*
Y14749D01*
X3012Y22400D02*
X3150Y22262D01*
X900Y22400D02*
X3012D01*
X647Y22653D02*
X900Y22400D01*
X2250Y21850D02*
X3150D01*
X2050Y21650D02*
X2250Y21850D01*
X2050Y21100D02*
Y21650D01*
X1306Y22106D02*
X3150D01*
X1050Y21850D02*
X1306Y22106D01*
X1050Y21100D02*
Y21850D01*
X3600Y23706D02*
X4444Y24550D01*
X3600Y22062D02*
Y23706D01*
X3388Y21850D02*
X3600Y22062D01*
X2500Y20600D02*
X3184Y19916D01*
X1550Y20600D02*
X2500D01*
X1050Y20100D02*
X1550Y20600D01*
X3184Y19916D02*
Y20410D01*
Y19875D02*
Y19916D01*
X1732Y19532D02*
X2412D01*
X2534Y20100D02*
X2684Y19950D01*
X2781Y19619D02*
X3184D01*
X2684Y19716D02*
X2781Y19619D01*
X2684Y19716D02*
Y19950D01*
X2050Y20100D02*
X2534D01*
X4810Y21210D02*
X4997D01*
X4500Y20900D02*
X4810Y21210D01*
X4500Y19500D02*
Y20900D01*
X4631Y21314D02*
Y21774D01*
X4340Y21023D02*
X4631Y21314D01*
X4340Y19740D02*
Y21023D01*
X4453Y21403D02*
Y22246D01*
X3589Y20539D02*
X4453Y21403D01*
X3589Y19758D02*
Y20539D01*
X3450Y19619D02*
X3589Y19758D01*
X4687Y19384D02*
Y19691D01*
X4997Y20000D01*
X4219Y19619D02*
X4340Y19740D01*
X4363Y19363D02*
X4500Y19500D01*
X4050Y19363D02*
X4363D01*
X3184Y17881D02*
X4687Y19384D01*
X4800Y18900D02*
X4997Y19096D01*
X3450Y17550D02*
X3612Y17711D01*
X4500Y18900D02*
X4800D01*
X3612Y18012D02*
X4500Y18900D01*
X3612Y17711D02*
Y18012D01*
X4997Y19096D02*
Y19350D01*
X4400Y17870D02*
X4532Y18002D01*
X4400Y17700D02*
Y17870D01*
X4250Y17550D02*
X4400Y17700D01*
X4532Y18002D02*
X4902D01*
X4997Y18097D02*
Y18420D01*
X4902Y18002D02*
X4997Y18097D01*
X4050Y16967D02*
Y17294D01*
X3833Y16750D02*
X4050Y16967D01*
X2400Y16750D02*
X3833D01*
X1871Y15550D02*
X2288D01*
X1421Y15100D02*
X1871Y15550D01*
X1050Y15100D02*
X1421D01*
X2288Y15550D02*
X2838Y15000D01*
X3368D01*
X2802Y15589D02*
X3489D01*
X3650Y15750D02*
Y16000D01*
X3489Y15589D02*
X3650Y15750D01*
X4720Y15630D02*
X4997D01*
X4200Y16150D02*
X4720Y15630D01*
X3800Y16150D02*
X4200D01*
X3650Y16000D02*
X3800Y16150D01*
X4687Y14700D02*
X4997D01*
X4500Y14887D02*
X4687Y14700D01*
X4500Y14887D02*
Y15450D01*
X4350Y15600D02*
X4500Y15450D01*
X4050Y15600D02*
X4350D01*
X3773Y15589D02*
Y15589D01*
X3631Y15448D02*
X3773Y15589D01*
X3631Y15263D02*
Y15448D01*
X3368Y15000D02*
X3631Y15263D01*
X4050Y15050D02*
Y15344D01*
X3700Y14700D02*
X4050Y15050D01*
X2791Y14700D02*
X3700D01*
X4997Y13770D02*
Y14103D01*
X4050Y15050D02*
X4997Y14103D01*
X3818Y14046D02*
X4251D01*
X3671Y13898D02*
X3818Y14046D01*
X3671Y13708D02*
Y13898D01*
X3513Y13550D02*
X3671Y13708D01*
X2877Y12973D02*
X3470D01*
X2300Y13550D02*
X2877Y12973D01*
X1776Y13550D02*
X2300D01*
X1327Y13100D02*
X1776Y13550D01*
X1050Y13100D02*
X1327D01*
X3140Y13814D02*
X3192D01*
X2692Y14550D02*
X3192Y14050D01*
X1500Y14550D02*
X2692D01*
X1050Y14100D02*
X1500Y14550D01*
X3192Y13866D02*
Y14050D01*
Y13814D02*
X3678Y14300D01*
X4350D01*
X4520Y12049D02*
Y13776D01*
X4251Y14046D02*
X4520Y13776D01*
Y12049D02*
X4659Y11910D01*
X4350Y14300D02*
X4704Y13946D01*
Y13532D02*
Y13946D01*
Y13532D02*
X4997Y13238D01*
X3184Y13550D02*
X3513D01*
X3675Y13425D02*
X3800Y13550D01*
X3675Y13178D02*
Y13425D01*
X3470Y12973D02*
X3675Y13178D01*
X4244Y13550D02*
X4350Y13443D01*
Y11150D02*
Y13443D01*
Y11150D02*
X4520Y10980D01*
X4050Y10550D02*
Y13117D01*
Y10550D02*
X4550Y10050D01*
X4050Y13117D02*
Y13294D01*
X3626Y12694D02*
X4050Y13117D01*
X2400Y12694D02*
X3626D01*
X2050Y13044D02*
X2400Y12694D01*
X4659Y11910D02*
X4997D01*
X4520Y10980D02*
X4997D01*
X8400Y15800D02*
X9646Y17046D01*
X8400Y14990D02*
Y15800D01*
X9646Y17046D02*
X10936D01*
X9493Y17243D02*
X10936D01*
X7880Y15630D02*
X9493Y17243D01*
X7253Y15630D02*
X7880D01*
X9189Y17439D02*
X10936D01*
X8310Y16560D02*
X9189Y17439D01*
X7253Y16560D02*
X8310D01*
X7873Y18420D02*
X8150Y18143D01*
X7253Y18420D02*
X7873D01*
X8150Y17970D02*
Y18143D01*
Y17970D02*
X8287Y17833D01*
X8330Y23070D02*
X9200Y22200D01*
Y19119D02*
Y22200D01*
Y19119D02*
X9502Y18817D01*
X8900Y18990D02*
Y21617D01*
Y18990D02*
X9269Y18620D01*
X8377Y22140D02*
X8900Y21617D01*
X9450Y19236D02*
Y22800D01*
Y19236D02*
X9672Y19014D01*
X8300Y23950D02*
X9450Y22800D01*
X9672Y19014D02*
X10936D01*
X9502Y18817D02*
X10936D01*
X9269Y18620D02*
X10936D01*
X8620Y18947D02*
Y20460D01*
X7870Y21210D02*
X8620Y20460D01*
X7253Y21210D02*
X7870D01*
X8620Y18947D02*
X9144Y18424D01*
X10936D01*
X7700Y20280D02*
X8300Y19680D01*
Y18850D02*
Y19680D01*
Y18850D02*
X8923Y18227D01*
X10936D01*
X7253Y20280D02*
X7700D01*
X8287Y17833D02*
X10936D01*
X7253Y19980D02*
Y20280D01*
Y19350D02*
X7800D01*
X7253D02*
X7253D01*
X8620Y18030D02*
X10936D01*
X8000Y18650D02*
X8620Y18030D01*
X8000Y18650D02*
Y19150D01*
X8500Y10050D02*
X9600Y11150D01*
X7253Y10050D02*
X8500D01*
X9600Y11150D02*
Y15250D01*
X9400Y11800D02*
Y15367D01*
X8580Y10980D02*
X9400Y11800D01*
X7253Y10980D02*
X8580D01*
X8110Y14700D02*
X8400Y14990D01*
X8650Y15700D02*
X9799Y16849D01*
X8650Y14500D02*
Y15700D01*
X7920Y13770D02*
X8650Y14500D01*
X8900Y15600D02*
X9952Y16652D01*
X8900Y13500D02*
Y15600D01*
X8240Y12840D02*
X8900Y13500D01*
X9400Y15367D02*
X10292Y16258D01*
X7253Y15630D02*
X7253D01*
Y13770D02*
X7920D01*
X7253D02*
X7253D01*
X9799Y16849D02*
X10936D01*
X9952Y16652D02*
X10936D01*
X10105Y16455D02*
X10936D01*
X9150Y15500D02*
X10105Y16455D01*
X9150Y12460D02*
Y15500D01*
X8600Y11910D02*
X9150Y12460D01*
X7253Y10050D02*
X7253D01*
X9600Y15250D02*
X10411Y16061D01*
X7253Y11910D02*
X8600D01*
X7253D02*
X7253D01*
X354Y23498D02*
X552Y23697D01*
X354Y9946D02*
Y23498D01*
X37810Y21449D02*
Y25949D01*
X37649Y21288D02*
X37810Y21449D01*
X37699Y25838D02*
X37810Y25949D01*
X37285Y21288D02*
X37649D01*
X37810Y25949D02*
Y26161D01*
X1838Y25838D02*
X14762D01*
X1150Y25150D02*
X1838Y25838D01*
X15174Y26450D02*
X19196Y22427D01*
X1850Y26450D02*
X15174D01*
X1150Y27150D02*
X1850Y26450D01*
X17590Y21010D02*
X17600Y21000D01*
X15200Y20800D02*
X15500Y20500D01*
X14939Y20800D02*
X15200D01*
X14578Y20439D02*
X14939Y20800D01*
X14578Y19900D02*
Y20439D01*
X16664Y19014D02*
X17600Y19950D01*
X15661Y19014D02*
X16664D01*
X8350Y7043D02*
X8704Y6689D01*
X8350Y7043D02*
Y8100D01*
X8704Y6689D02*
X9153D01*
X22550Y2550D02*
X23500D01*
X21100Y4000D02*
X22550Y2550D01*
X21100Y4000D02*
Y7250D01*
X23500Y2550D02*
X23700Y2350D01*
Y2000D02*
Y2350D01*
X21100Y7250D02*
X21450Y7600D01*
X20450D02*
X20800Y7250D01*
Y3900D02*
Y7250D01*
Y3900D02*
X22700Y2000D01*
X34160Y21800D02*
X37285D01*
X34044Y21544D02*
X37285D01*
X33916Y21800D02*
X34160D01*
X33144Y21028D02*
X33916Y21800D01*
X32894Y20778D02*
X33144Y21028D01*
X33394Y20894D02*
X34044Y21544D01*
X33394Y20373D02*
Y20894D01*
X32894Y20373D02*
Y20778D01*
X29293Y18650D02*
X31950D01*
X24350Y17900D02*
Y19018D01*
Y17900D02*
X25837Y16413D01*
X20470Y22898D02*
X24350Y19018D01*
X28117Y18600D02*
X28717Y19200D01*
X28117Y17909D02*
Y18600D01*
X27527Y17909D02*
Y18323D01*
X34572Y25797D02*
X35087D01*
X34572Y26572D02*
X35087D01*
X25100Y18034D02*
Y18150D01*
X24800Y17981D02*
Y19200D01*
X25100Y18034D02*
X25934Y17200D01*
X24800Y17981D02*
X25974Y16807D01*
X23750Y18450D02*
Y18550D01*
X20172Y22128D02*
X23750Y18550D01*
X21450Y18000D02*
X23713D01*
X20223Y22427D02*
X23970Y18680D01*
Y18160D02*
Y18680D01*
X23960Y18150D02*
X23970Y18160D01*
X24550Y17967D02*
X25908Y16610D01*
X25974Y16807D02*
X26424D01*
X24550Y17967D02*
Y19100D01*
X25908Y16610D02*
X26424D01*
X25837Y16413D02*
X26424D01*
X25934Y17200D02*
X26424D01*
X26850Y9000D02*
Y10800D01*
X26700Y8850D02*
X26850Y9000D01*
X22483Y8850D02*
X26700D01*
X22200Y9133D02*
X22483Y8850D01*
X22200Y9133D02*
Y10616D01*
X21766Y11050D02*
X22200Y10616D01*
X20900Y11050D02*
X21766D01*
X21650Y10600D02*
X21950Y10300D01*
Y9100D02*
Y10300D01*
X21450Y8600D02*
X21950Y9100D01*
X37285Y25838D02*
X37699D01*
X33572Y15321D02*
X34685D01*
X33071Y15822D02*
X33572Y15321D01*
X30794Y15822D02*
X33071D01*
X34950Y13250D02*
Y15057D01*
X34750Y13050D02*
X34950Y13250D01*
X34467Y13050D02*
X34750D01*
X34685Y15321D02*
X34950Y15057D01*
X35483Y12570D02*
Y13117D01*
X35263Y12350D02*
X35483Y12570D01*
X34170Y12350D02*
X35263D01*
X34113Y13656D02*
X34467D01*
X33950Y13494D02*
X34113Y13656D01*
X33950Y12570D02*
Y13494D01*
Y12570D02*
X34170Y12350D01*
X31770Y10470D02*
X32233D01*
X31570Y10270D02*
X31770Y10470D01*
X30907Y10270D02*
X31570D01*
X30907Y9241D02*
Y10270D01*
X30700Y9033D02*
X30907Y9241D01*
X30407Y9033D02*
X30700D01*
X29517D02*
X29801D01*
X11087Y13494D02*
X11444D01*
X9950Y10550D02*
Y14200D01*
X8600Y9200D02*
X9950Y10550D01*
X1100Y9200D02*
X8600D01*
X8350Y8100D02*
X9150Y8900D01*
X9250Y8700D02*
X13400D01*
X8564Y8014D02*
X9250Y8700D01*
X8564Y7347D02*
Y8014D01*
Y7347D02*
X8722Y7189D01*
X9153D01*
X9150Y8900D02*
X13300D01*
X22417Y13117D02*
X24532Y15232D01*
X19817Y13117D02*
X22417D01*
X16800Y10100D02*
X19817Y13117D01*
X14950Y9900D02*
X20150D01*
X14350Y9300D02*
X14950Y9900D01*
X14350Y7878D02*
Y9300D01*
X20150Y9900D02*
X20450Y9600D01*
X19326Y7250D02*
X20176Y8100D01*
X14232Y7250D02*
X19326D01*
X14043Y7439D02*
X14232Y7250D01*
X20176Y8100D02*
X20750D01*
X20950Y8300D01*
X21450Y9250D02*
Y9600D01*
X20950Y8750D02*
X21450Y9250D01*
X20950Y8300D02*
Y8750D01*
X21450Y10600D02*
X21650D01*
X20450Y8600D02*
X20505D01*
X20855Y8950D01*
Y10195D01*
X25784Y16216D02*
X26424D01*
X24190Y17810D02*
X25784Y16216D01*
X24190Y17810D02*
Y18828D01*
X25694Y16019D02*
X26424D01*
X23713Y18000D02*
X25694Y16019D01*
X21700Y29650D02*
X21950Y29400D01*
Y22050D02*
Y29400D01*
Y22050D02*
X24800Y19200D01*
X21228Y29650D02*
X21700D01*
X21731Y21919D02*
Y28892D01*
Y21919D02*
X24550Y19100D01*
X20629Y23764D02*
X20650D01*
X20350Y24044D02*
X20629Y23764D01*
X20350Y24044D02*
Y28250D01*
X20600Y24650D02*
Y27950D01*
X20350Y28250D02*
X20750Y28650D01*
X20800Y28150D02*
X21228D01*
X20600Y27950D02*
X20800Y28150D01*
X20750Y28650D02*
X21228D01*
X15000Y26150D02*
X19022Y22128D01*
X20172D01*
X1150Y26150D02*
X15000D01*
X19196Y22427D02*
X20223D01*
X20318Y22700D02*
X24190Y18828D01*
X19500Y22700D02*
X20318D01*
X15750Y26450D02*
X19500Y22700D01*
X15750Y26450D02*
Y29250D01*
X16150Y29650D01*
X16700D01*
X16000Y26550D02*
Y29000D01*
X16150Y29150D01*
X16700D01*
X19652Y22898D02*
X20470D01*
X16000Y26550D02*
X19652Y22898D01*
X24389Y16300D02*
X24394D01*
X21450Y16000D02*
X24400D01*
X23076Y15626D02*
X26424D01*
X30794Y14248D02*
X31298D01*
X30086Y13050D02*
Y13539D01*
X26850Y10800D02*
X27450Y11400D01*
X13701Y19094D02*
X13845D01*
X13556D02*
X13701D01*
X12475Y15900D02*
X12600D01*
X12350D02*
X12475D01*
X13987Y19900D02*
Y20654D01*
X13226Y15851D02*
X13350D01*
X13101D02*
X13226D01*
X26654Y17946D02*
X26889Y17711D01*
X26600Y20550D02*
X27050Y21000D01*
Y22312D01*
X26888Y22474D02*
X27050Y22312D01*
X26600Y22474D02*
X26888D01*
X26889Y15163D02*
Y17711D01*
X26885Y15160D02*
X26889Y15163D01*
X26885Y15035D02*
Y15160D01*
X26424Y15035D02*
X26885D01*
X31950Y18650D02*
X32700Y17900D01*
Y16700D02*
Y17900D01*
X32413Y16413D02*
X32700Y16700D01*
X30794Y16413D02*
X32413D01*
X21667Y28957D02*
X21731Y28892D01*
X21421Y28957D02*
X21667D01*
X21228Y29150D02*
X21421Y28957D01*
X2600Y13550D02*
X3184D01*
X4050D02*
X4244D01*
X3800D02*
X4050D01*
X21045Y17832D02*
X21377Y17500D01*
X23960D01*
X25637Y15822D01*
X21450Y17000D02*
X23689D01*
X28425Y14800D02*
X28708Y14517D01*
X28350Y14800D02*
X28425D01*
X28150Y14150D02*
X28314Y13986D01*
Y13539D02*
Y13986D01*
X28905Y13539D02*
Y14695D01*
X28700Y14900D02*
X28905Y14695D01*
X28700Y14900D02*
Y14950D01*
X28511Y13539D02*
Y14339D01*
X28350Y14500D02*
X28511Y14339D01*
X28200Y14500D02*
X28350D01*
X28708Y13539D02*
Y14517D01*
X23689Y17000D02*
X24389Y16300D01*
X20450Y10600D02*
X20900Y11050D01*
X27100Y10700D02*
X27400Y11000D01*
X27100Y8850D02*
Y10700D01*
X26850Y8600D02*
X27100Y8850D01*
X21450Y8600D02*
X26850D01*
X13300Y8900D02*
X14700Y10300D01*
X16700D01*
X14800Y10100D02*
X16800D01*
X24532Y15232D02*
X26424D01*
X19703Y13303D02*
X22268D01*
X24394Y15429D01*
X26424D01*
X16700Y10300D02*
X19703Y13303D01*
X13400Y8700D02*
X14800Y10100D01*
X18550Y16050D02*
X19400D01*
X20450Y15000D01*
X21045Y18928D02*
X21117Y19000D01*
X21045Y17832D02*
Y18928D01*
X13850Y7878D02*
X14043Y7685D01*
Y7439D02*
Y7685D01*
X20450Y10600D02*
X20855Y10195D01*
X37841Y8218D02*
Y9509D01*
X36300Y11050D02*
X37841Y9509D01*
X30976Y11050D02*
X36300D01*
X30766Y11260D02*
X30976Y11050D01*
X28890Y11260D02*
X30766D01*
X28314Y11836D02*
X28890Y11260D01*
X28314Y11836D02*
Y13539D01*
X28117Y23202D02*
X29100Y24185D01*
X29644D01*
X26020Y21288D02*
X26600Y21868D01*
X24262Y21288D02*
X26020D01*
X23900Y21650D02*
X24262Y21288D01*
X23900Y21650D02*
Y22067D01*
X11822Y14600D02*
Y15176D01*
X11722Y14500D02*
X11822Y14600D01*
X10250Y14500D02*
X11722D01*
X9950Y14200D02*
X10250Y14500D01*
X354Y9946D02*
X1100Y9200D01*
X552Y23697D02*
X1853D01*
X1994Y23556D01*
Y23117D02*
Y23556D01*
X3150Y21850D02*
X3388D01*
X4444Y24550D02*
X9040D01*
X9640Y23950D01*
X10447D01*
X647Y22653D02*
Y23117D01*
X3150Y22106D02*
Y22262D01*
X4997Y23663D02*
Y24000D01*
X4290Y22956D02*
X4997Y23663D01*
X4290Y22183D02*
Y22956D01*
Y22183D02*
X4293Y22180D01*
Y21520D02*
Y22180D01*
X3184Y20410D02*
X4293Y21520D01*
X4450Y22250D02*
Y22520D01*
Y22250D02*
X4453Y22246D01*
X3184Y19619D02*
X3450D01*
X4450Y22520D02*
X4997Y23067D01*
X4631Y21774D02*
X4997Y22140D01*
X3869Y19619D02*
X4050D01*
X3350Y19100D02*
X3869Y19619D01*
X2844Y19100D02*
X3350D01*
X2412Y19532D02*
X2844Y19100D01*
X1300D02*
X1732Y19532D01*
X1050Y19100D02*
X1300D01*
X3994Y19363D02*
X4050D01*
X3331Y18700D02*
X3994Y19363D01*
X2450Y18700D02*
X3331D01*
X2050Y19100D02*
X2450Y18700D01*
X4050Y19619D02*
X4219D01*
X2684Y17550D02*
X3184D01*
X2134Y18100D02*
X2684Y17550D01*
X2050Y18100D02*
X2134D01*
X1050D02*
X1450Y18500D01*
X1877D01*
X1882Y18505D01*
X2559D01*
X3184Y17881D01*
X4997Y20000D02*
Y20280D01*
X3184Y17550D02*
X3450D01*
X3783D02*
X4050D01*
X3773Y17539D02*
X3783Y17550D01*
X3773Y17273D02*
Y17539D01*
X3497Y16997D02*
X3773Y17273D01*
X2953Y16997D02*
X3497D01*
X2450Y17500D02*
X2953Y16997D01*
X2223Y17500D02*
X2450D01*
X2218Y17505D02*
X2223Y17500D01*
X1766Y17505D02*
X2218D01*
X1361Y17100D02*
X1766Y17505D01*
X1050Y17100D02*
X1361D01*
X2050D02*
X2400Y16750D01*
X4050Y17550D02*
X4250D01*
X4050Y17294D02*
X4343D01*
X4539Y17490D01*
X4997D01*
X2291Y16100D02*
X2802Y15589D01*
X2050Y16100D02*
X2291D01*
X1050D02*
X1455Y16505D01*
X2534D01*
X3184Y15856D01*
X3888Y16560D01*
X4997D01*
X3783Y15600D02*
X4050D01*
X3773Y15589D02*
X3783Y15600D01*
X2391Y15100D02*
X2791Y14700D01*
X2050Y15100D02*
X2391D01*
X2050Y13044D02*
Y13100D01*
X4550Y10050D02*
X4997D01*
X2050Y14100D02*
X2600Y13550D01*
X4997Y12840D02*
Y13238D01*
X30104Y12244D02*
X30104Y12244D01*
X31000D01*
X30400Y17200D02*
X30794D01*
X30200Y14800D02*
Y17000D01*
Y14800D02*
X30359Y14641D01*
X30794D01*
X27133Y14381D02*
Y17400D01*
X26424Y14248D02*
X27000D01*
X27133Y14381D01*
X32203Y7317D02*
X33249D01*
X32206Y6506D02*
X32269Y6569D01*
X30794Y15626D02*
X32974D01*
X33592Y15008D01*
X34467D01*
X28314Y17909D02*
Y18571D01*
X28758Y19014D01*
X30364D01*
X31150Y19800D01*
X31756D01*
X31894Y19937D01*
Y20373D01*
X28717Y19200D02*
X30279D01*
X31394Y20314D01*
Y20373D01*
X32394Y19844D02*
Y20373D01*
X32300Y19750D02*
X32394Y19844D01*
X32300Y19347D02*
Y19750D01*
X35044Y24185D02*
X35600D01*
X35650Y24135D01*
Y23206D02*
Y24135D01*
X35444Y23000D02*
X35650Y23206D01*
X32800Y23000D02*
X35444D01*
X32394Y22594D02*
X32800Y23000D01*
X32394Y22420D02*
Y22594D01*
X32505Y23070D02*
X32885Y23450D01*
X32164Y23070D02*
X32505D01*
X31894Y22800D02*
X32164Y23070D01*
X31894Y22420D02*
Y22800D01*
X29606Y22474D02*
X29660Y22420D01*
X30894D01*
X28604Y22474D02*
X29606D01*
X21117Y19000D02*
X21450D01*
X25637Y15822D02*
X26424D01*
X21450Y15000D02*
X22450D01*
X23076Y15626D01*
X7089Y9585D02*
X7253Y9750D01*
Y10050D01*
X5603Y9747D02*
Y10050D01*
Y9747D02*
X5765Y9585D01*
X7089D01*
Y10515D02*
X7253Y10680D01*
Y10980D01*
X5603Y10677D02*
Y10980D01*
Y10677D02*
X5765Y10515D01*
X7089D01*
Y11445D02*
X7253Y11610D01*
Y11910D01*
X5603Y11607D02*
Y11910D01*
Y11607D02*
X5765Y11445D01*
X7089D01*
Y12375D02*
X7253Y12540D01*
Y12840D01*
X5603Y12537D02*
Y12840D01*
Y12537D02*
X5765Y12375D01*
X7089D01*
Y14235D02*
X7253Y14400D01*
Y14700D01*
X5603Y14397D02*
Y14700D01*
Y14397D02*
X5765Y14235D01*
X7089D01*
Y13305D02*
X7253Y13470D01*
Y13770D01*
X5603Y13467D02*
Y13770D01*
Y13467D02*
X5765Y13305D01*
X7089D01*
Y15165D02*
X7253Y15330D01*
Y15630D01*
X5603Y15327D02*
Y15630D01*
Y15327D02*
X5765Y15165D01*
X7089D01*
Y16095D02*
X7253Y16260D01*
Y16560D01*
X5603Y16257D02*
Y16560D01*
Y16257D02*
X5765Y16095D01*
X7089D01*
Y17025D02*
X7253Y17190D01*
Y17490D01*
X5603Y17187D02*
Y17490D01*
Y17187D02*
X5765Y17025D01*
X7089D01*
Y17955D02*
X7253Y18120D01*
Y18420D01*
X5603Y18117D02*
Y18420D01*
Y18117D02*
X5765Y17955D01*
X7089D01*
Y18885D02*
X7253Y19050D01*
Y19350D01*
X5603Y19047D02*
Y19350D01*
Y19047D02*
X5765Y18885D01*
X7089D01*
Y19815D02*
X7253Y19980D01*
X5603Y19977D02*
Y20280D01*
Y19977D02*
X5765Y19815D01*
X7089D01*
Y20735D02*
X7253Y20900D01*
Y21200D01*
X5603Y20897D02*
Y21200D01*
Y20897D02*
X5765Y20735D01*
X7089D01*
Y21675D02*
X7253Y21840D01*
Y22140D01*
X5603Y21837D02*
Y22140D01*
Y21837D02*
X5765Y21675D01*
X7089D01*
Y22602D02*
X7253Y22767D01*
Y23067D01*
X5603Y22764D02*
Y23067D01*
Y22764D02*
X5765Y22602D01*
X7089D01*
X5765Y23535D02*
X7089D01*
X5603Y23697D02*
X5765Y23535D01*
X5603Y23697D02*
Y24000D01*
X7253Y23700D02*
Y24000D01*
X7089Y23535D02*
X7253Y23700D01*
X1253Y23117D02*
X1994D01*
X7253Y24000D02*
X7303Y23950D01*
X8300D01*
X7253Y23070D02*
X8330D01*
X7253Y22140D02*
X8377D01*
X7800Y19350D02*
X8000Y19150D01*
X7253Y17490D02*
X8090D01*
X8236Y17636D01*
X10936D01*
X7253Y14700D02*
X8110D01*
X7253Y12840D02*
X8240D01*
X10292Y16258D02*
X10936D01*
X10411Y16061D02*
X10936D01*
X15661Y17243D02*
X16707D01*
X12730Y15770D02*
X12806Y15694D01*
X12600Y15900D02*
X12730Y15770D01*
X13098Y20550D02*
X13247D01*
X12950D02*
X13098D01*
X12880Y20769D02*
X13098Y20550D01*
X12880Y20769D02*
Y22085D01*
X12806Y19900D02*
Y20406D01*
X12950Y20550D01*
X13247D02*
X13397Y20400D01*
Y19900D02*
Y20400D01*
X13845Y19094D02*
X13987Y19236D01*
X13200Y19450D02*
X13556Y19094D01*
X13306D02*
X13556D01*
X13003Y19397D02*
X13306Y19094D01*
X13003Y19397D02*
Y19900D01*
X13987Y19236D02*
Y19900D01*
X13791Y19467D02*
Y19900D01*
X13720Y19396D02*
X13791Y19467D01*
X13480Y19396D02*
X13720D01*
X13397Y19479D02*
X13480Y19396D01*
X13397Y19479D02*
Y19900D01*
X13200Y19450D02*
Y19900D01*
X12659Y14500D02*
X12883D01*
X12474D02*
X12659D01*
X12109Y13950D02*
X12659Y14500D01*
X11900Y13950D02*
X12109D01*
X11444Y13494D02*
X11900Y13950D01*
X10481Y13494D02*
Y14036D01*
X10692Y14248D01*
X12048D01*
X12216Y14416D01*
Y15176D01*
X13397Y15804D02*
X14746D01*
X14775Y15775D01*
Y15176D02*
Y15775D01*
X12216Y15766D02*
X12350Y15900D01*
X12216Y15176D02*
Y15766D01*
X12806Y15176D02*
Y15694D01*
X12609Y15650D02*
X12730Y15770D01*
X12609Y15176D02*
Y15650D01*
X13397Y15176D02*
Y15804D01*
X13350Y15851D02*
X13397Y15804D01*
X13003Y15753D02*
X13101Y15851D01*
X13003Y15176D02*
Y15753D01*
Y14620D02*
Y15176D01*
X12883Y14500D02*
X13003Y14620D01*
X12413Y14561D02*
X12474Y14500D01*
X12413Y14561D02*
Y15176D01*
X19950Y19500D02*
X20450Y20000D01*
X17450Y19500D02*
X19950D01*
X16767Y18817D02*
X17450Y19500D01*
X15661Y18817D02*
X16767D01*
X18550Y18800D02*
X19333D01*
X19533Y19000D01*
X20450D01*
X18550Y17909D02*
X19350D01*
X19441Y18000D01*
X20450D01*
X20404Y17046D02*
X20450Y17000D01*
X18550Y17046D02*
X20404D01*
X19950Y16500D02*
X20450Y16000D01*
X17400Y16500D02*
X19950D01*
X17248Y16652D02*
X17400Y16500D01*
X15661Y16652D02*
X17248D01*
X15661Y16458D02*
Y16652D01*
X16450Y16050D02*
X17944D01*
X16242Y16258D02*
X16450Y16050D01*
X15661Y16258D02*
X16242D01*
X16707Y17243D02*
X16904Y17046D01*
X17944D01*
X17209Y17909D02*
X17944D01*
X16739Y17439D02*
X17209Y17909D01*
X15661Y17439D02*
X16739D01*
X17300Y18800D02*
X17944D01*
X16530Y18030D02*
X17300Y18800D01*
X15661Y18030D02*
X16530D01*
X14184Y19900D02*
X14188Y19904D01*
Y20356D01*
X14842Y21010D01*
X15944D01*
X13690Y21640D02*
Y22085D01*
X13594Y21544D02*
X13690Y21640D01*
X13594Y19900D02*
Y21544D01*
X10447Y22150D02*
Y23050D01*
X12413Y19986D02*
Y20761D01*
X12409Y19990D02*
Y20100D01*
Y19990D02*
X12413Y19986D01*
X12224Y20950D02*
X12413Y20761D01*
X12016Y19903D02*
Y20183D01*
Y19903D02*
X12019Y19900D01*
X12016Y20183D02*
X12019Y20186D01*
Y20431D01*
X11150Y20950D02*
X12224D01*
X11053Y21047D02*
X11150Y20950D01*
X11053Y21047D02*
Y22150D01*
Y23050D01*
X12019Y19900D02*
X12216D01*
X11053Y23582D02*
Y23950D01*
X10921Y23450D02*
X11053Y23582D01*
X10550Y23450D02*
X10921D01*
X10447Y23347D02*
X10550Y23450D01*
X10447Y23050D02*
Y23347D01*
Y20934D02*
Y22150D01*
Y20934D02*
X10631Y20750D01*
X11700D01*
X12019Y20431D01*
X10481Y10963D02*
X10491Y10953D01*
X12756Y13494D02*
Y13956D01*
X13200Y14400D01*
Y15176D01*
X14381Y14641D02*
Y15176D01*
Y14641D02*
X14578Y14444D01*
X15259D01*
X16400Y13303D01*
X13987Y15176D02*
X13991Y15172D01*
Y14720D02*
Y15172D01*
Y14720D02*
X15000Y13711D01*
Y13050D02*
Y13711D01*
X13594Y15176D02*
X13597Y15172D01*
Y14720D02*
Y15172D01*
Y14720D02*
X13700Y14617D01*
Y13403D02*
Y14617D01*
X34467Y17601D02*
X34999D01*
X35126Y17474D01*
X35483D01*
X34467Y15614D02*
X34483Y15599D01*
X35483D01*
X36300Y4522D02*
Y6250D01*
X37841Y6671D02*
X38349Y6162D01*
X38750D01*
X30101Y4312D02*
X30398D01*
X30794Y3915D01*
X31450D01*
X30101Y4312D02*
Y4686D01*
X32547Y25147D02*
Y25416D01*
X32313Y25650D02*
X32547Y25416D01*
X31597Y25650D02*
X32313D01*
X31094Y25147D02*
X31597Y25650D01*
X30145Y23909D02*
X30452D01*
X30000Y23764D02*
X30145Y23909D01*
X30000Y23700D02*
Y23764D01*
X29879Y23579D02*
X30000Y23700D01*
X29644Y23579D02*
X29879D01*
X33506Y23450D02*
X33650Y23594D01*
X32885Y23450D02*
X33506D01*
X32750Y23585D02*
X32885Y23450D01*
X33650Y23594D02*
Y23798D01*
X32322Y24200D02*
X32650D01*
X32750Y24100D01*
Y23585D02*
Y24100D01*
X33650Y23798D02*
X34136Y24283D01*
X31436Y23535D02*
X31471Y23500D01*
X31850D01*
X31944Y23594D01*
X32322D01*
X32547Y25147D02*
X33053D01*
X33152Y25048D01*
Y23909D02*
Y25048D01*
X35000Y23535D02*
X35044Y23579D01*
X34136Y23535D02*
X35000D01*
X27920Y10566D02*
X27950Y10536D01*
X27920Y10566D02*
Y13539D01*
X30907Y10270D02*
Y10893D01*
X30700Y11100D02*
X30907Y10893D01*
X28727Y11100D02*
X30700D01*
X28117Y11710D02*
X28727Y11100D01*
X28117Y11710D02*
Y13539D01*
X29293Y9257D02*
Y10270D01*
Y9257D02*
X29517Y9033D01*
X32233Y10470D02*
X32300Y10536D01*
X28658Y10270D02*
X29293D01*
X28391Y10536D02*
X28658Y10270D01*
X27950Y10536D02*
X28391D01*
X29495Y12850D02*
Y13539D01*
X29272Y12627D02*
X29495Y12850D01*
X29272Y12244D02*
Y12627D01*
Y12244D02*
X30104D01*
X27567Y11950D02*
X27724Y12107D01*
Y13539D01*
X25100Y13847D02*
X25597D01*
X25998Y14248D01*
X26424D01*
X31503Y17603D02*
X32100D01*
X31450Y17550D02*
X31503Y17603D01*
X31450Y17350D02*
Y17550D01*
X31300Y17200D02*
X31450Y17350D01*
X30794Y17200D02*
X31300D01*
X32089Y14641D02*
X32100Y14652D01*
X30794Y14641D02*
X32089D01*
X27856Y5600D02*
X28350D01*
X28999Y4951D01*
Y4686D02*
Y4951D01*
X32250Y3650D02*
Y3915D01*
Y3650D02*
X32450Y3450D01*
X34151D01*
X34351Y3650D01*
Y3988D01*
X32250Y3915D02*
X32250Y3915D01*
X31450Y3915D02*
X32250D01*
X32950Y3988D02*
X33249D01*
X32850Y4088D02*
X32950Y3988D01*
X32850Y4088D02*
Y5350D01*
X33100Y5600D01*
X33544D01*
X34150D02*
X34351Y5399D01*
Y4736D02*
Y5399D01*
X35300Y4522D02*
X35300Y4522D01*
X36300D01*
X34911Y4522D02*
X35300D01*
X34751Y4362D02*
X34911Y4522D01*
X34351Y4362D02*
X34751D01*
X35694Y25797D02*
X36047D01*
X36344Y26094D01*
X37285D01*
X35694Y26572D02*
X36100D01*
X36322Y26350D01*
X37285D01*
X35694Y26572D02*
Y27347D01*
X-1300Y31496D02*
X-1100Y30896D01*
X-1500D02*
X-1300Y31496D01*
X-1500Y600D02*
X-1300Y0D01*
X-1100Y600D01*
X-1300Y17098D02*
Y31496D01*
Y0D02*
Y14078D01*
X-1400Y31496D02*
X-200D01*
X-1400Y0D02*
X-200D01*
X0Y-1250D02*
X600Y-1050D01*
X0Y-1250D02*
X600Y-1450D01*
X38770D02*
X39370Y-1250D01*
X38770Y-1050D02*
X39370Y-1250D01*
X0D02*
X17766D01*
X21285D02*
X39370D01*
X0Y-1350D02*
Y-200D01*
X39370Y-1350D02*
Y-200D01*
D17*
X0Y0D02*
X39370D01*
Y31496D01*
X0Y0D02*
Y31496D01*
X39370D01*
D18*
X-1440Y14238D02*
X-1540Y14338D01*
Y14538D01*
X-1440Y14638D01*
X-1340D01*
X-1240Y14538D01*
X-1140Y14638D01*
X-1040D01*
X-940Y14538D01*
Y14338D01*
X-1040Y14238D01*
X-1140D01*
X-1240Y14338D01*
X-1340Y14238D01*
X-1440D01*
X-1240Y14338D02*
Y14538D01*
X-1440Y14838D02*
X-1540Y14938D01*
Y15138D01*
X-1440Y15238D01*
X-1040D01*
X-940Y15138D01*
Y14938D01*
X-1040Y14838D01*
X-1440D01*
X-940Y15438D02*
X-1040D01*
Y15538D01*
X-940D01*
Y15438D01*
X-1440Y15938D02*
X-1540Y16038D01*
Y16238D01*
X-1440Y16338D01*
X-1040D01*
X-940Y16238D01*
Y16038D01*
X-1040Y15938D01*
X-1440D01*
Y16538D02*
X-1540Y16638D01*
Y16838D01*
X-1440Y16938D01*
X-1040D01*
X-940Y16838D01*
Y16638D01*
X-1040Y16538D01*
X-1440D01*
X17926Y-1610D02*
X18125D01*
X18026D01*
Y-1010D01*
X17926Y-1110D01*
X18425D02*
X18525Y-1010D01*
X18725D01*
X18825Y-1110D01*
Y-1510D01*
X18725Y-1610D01*
X18525D01*
X18425Y-1510D01*
Y-1110D01*
X19025D02*
X19125Y-1010D01*
X19325D01*
X19425Y-1110D01*
Y-1510D01*
X19325Y-1610D01*
X19125D01*
X19025Y-1510D01*
Y-1110D01*
X19625Y-1610D02*
Y-1510D01*
X19725D01*
Y-1610D01*
X19625D01*
X20125Y-1110D02*
X20225Y-1010D01*
X20425D01*
X20525Y-1110D01*
Y-1510D01*
X20425Y-1610D01*
X20225D01*
X20125Y-1510D01*
Y-1110D01*
X20725D02*
X20825Y-1010D01*
X21025D01*
X21125Y-1110D01*
Y-1510D01*
X21025Y-1610D01*
X20825D01*
X20725Y-1510D01*
Y-1110D01*
D20*
X38562Y27372D02*
Y27552D01*
X38122Y27372D02*
Y27552D01*
Y27372D02*
X38562D01*
X38122Y27552D02*
X38562D01*
Y25148D02*
Y25328D01*
X38122Y25148D02*
Y25328D01*
Y25148D02*
X38562D01*
X38122Y25328D02*
X38562D01*
Y22822D02*
Y23002D01*
X38122Y22822D02*
Y23002D01*
Y22822D02*
X38562D01*
X38122Y23002D02*
X38562D01*
Y20598D02*
Y20778D01*
X38122Y20598D02*
Y20778D01*
Y20598D02*
X38562D01*
X38122Y20778D02*
X38562D01*
D23*
X25438Y11950D02*
D03*
X24454D02*
D03*
D24*
X37108Y13903D02*
D03*
Y13297D02*
D03*
X37958Y13900D02*
D03*
Y13294D02*
D03*
X29644Y24185D02*
D03*
Y23579D02*
D03*
X34467Y13050D02*
D03*
Y13656D02*
D03*
Y15008D02*
D03*
Y15614D02*
D03*
X31450Y4522D02*
D03*
Y3915D02*
D03*
X32250Y3915D02*
D03*
Y4522D02*
D03*
X35300Y7156D02*
D03*
Y6550D02*
D03*
X31000Y11637D02*
D03*
Y12244D02*
D03*
X30104Y11637D02*
D03*
Y12244D02*
D03*
X29272Y11637D02*
D03*
Y12244D02*
D03*
X13700Y13403D02*
D03*
Y12797D02*
D03*
X12069Y22085D02*
D03*
Y22691D02*
D03*
X12880Y22085D02*
D03*
Y22691D02*
D03*
X14500Y22085D02*
D03*
Y22691D02*
D03*
X13690Y22085D02*
D03*
Y22691D02*
D03*
X10491Y10953D02*
D03*
Y10347D02*
D03*
X11457Y10953D02*
D03*
Y10347D02*
D03*
X13391Y10953D02*
D03*
Y10347D02*
D03*
X12424Y10953D02*
D03*
Y10347D02*
D03*
X18550Y21000D02*
D03*
Y21606D02*
D03*
X17600Y21000D02*
D03*
Y21606D02*
D03*
X16400Y13303D02*
D03*
Y12697D02*
D03*
X29606Y22474D02*
D03*
Y21868D02*
D03*
X28604Y22474D02*
D03*
Y21868D02*
D03*
X28100Y4472D02*
D03*
Y3865D02*
D03*
X27100Y3865D02*
D03*
Y4472D02*
D03*
X35300Y4522D02*
D03*
Y3915D02*
D03*
X36300Y3915D02*
D03*
Y4522D02*
D03*
X32100Y16997D02*
D03*
Y17603D02*
D03*
X25100Y14453D02*
D03*
Y13847D02*
D03*
X32100Y14046D02*
D03*
Y14652D02*
D03*
X32300Y9930D02*
D03*
Y10536D02*
D03*
X27950Y9930D02*
D03*
Y10536D02*
D03*
X24450Y10044D02*
D03*
Y10650D02*
D03*
X25500Y10044D02*
D03*
Y10650D02*
D03*
X35044Y24185D02*
D03*
Y23579D02*
D03*
X32322Y23594D02*
D03*
Y24200D02*
D03*
X35483Y14992D02*
D03*
Y15599D02*
D03*
X35502Y13637D02*
D03*
Y13030D02*
D03*
X35483Y16867D02*
D03*
Y17474D02*
D03*
X26600Y21868D02*
D03*
Y22474D02*
D03*
D25*
X30165Y25147D02*
D03*
X31094D02*
D03*
D26*
X32547D02*
D03*
X31941D02*
D03*
X25464Y19400D02*
D03*
X26071D02*
D03*
X27250Y5600D02*
D03*
X27856D02*
D03*
X31600Y6506D02*
D03*
X32206D02*
D03*
X31597Y7317D02*
D03*
X32203D02*
D03*
X33544Y5600D02*
D03*
X34150D02*
D03*
X4997Y10050D02*
D03*
X5603D02*
D03*
X4997Y10980D02*
D03*
X5603D02*
D03*
X4997Y11910D02*
D03*
X5603D02*
D03*
X4997Y12840D02*
D03*
X5603D02*
D03*
X4997Y13770D02*
D03*
X5603D02*
D03*
X4997Y14700D02*
D03*
X5603D02*
D03*
X4997Y15630D02*
D03*
X5603D02*
D03*
X4997Y16560D02*
D03*
X5603D02*
D03*
X4997Y17490D02*
D03*
X5603D02*
D03*
X4997Y18420D02*
D03*
X5603D02*
D03*
X4997Y19350D02*
D03*
X5603D02*
D03*
X4997Y20280D02*
D03*
X5603D02*
D03*
X4997Y21210D02*
D03*
X5603D02*
D03*
X4997Y22140D02*
D03*
X5603D02*
D03*
X4997Y23067D02*
D03*
X5603D02*
D03*
X4997Y24000D02*
D03*
X5603D02*
D03*
X7253D02*
D03*
X6647D02*
D03*
X6647Y23070D02*
D03*
X7253D02*
D03*
X7253Y22140D02*
D03*
X6647D02*
D03*
X6647Y21210D02*
D03*
X7253D02*
D03*
X7253Y20280D02*
D03*
X6647D02*
D03*
X6647Y19350D02*
D03*
X7253D02*
D03*
X7253Y18420D02*
D03*
X6647D02*
D03*
X6647Y17490D02*
D03*
X7253D02*
D03*
X7253Y16560D02*
D03*
X6647D02*
D03*
X6647Y15630D02*
D03*
X7253D02*
D03*
X7253Y14700D02*
D03*
X6647D02*
D03*
X6647Y13770D02*
D03*
X7253D02*
D03*
X7253Y12840D02*
D03*
X6647D02*
D03*
X6647Y11910D02*
D03*
X7253D02*
D03*
X7253Y10980D02*
D03*
X6647D02*
D03*
X6647Y10050D02*
D03*
X7253D02*
D03*
X35694Y25797D02*
D03*
X35087D02*
D03*
X35694Y26572D02*
D03*
X35087D02*
D03*
X35694Y27347D02*
D03*
X35087D02*
D03*
X38447Y7224D02*
D03*
X37841D02*
D03*
X38447Y8218D02*
D03*
X37841D02*
D03*
X12150Y13494D02*
D03*
X12756D02*
D03*
X12756Y12694D02*
D03*
X12150D02*
D03*
X10481D02*
D03*
X11087D02*
D03*
X10481Y13494D02*
D03*
X11087D02*
D03*
X17944Y15100D02*
D03*
X18550D02*
D03*
X17944Y16050D02*
D03*
X18550D02*
D03*
X17944Y17909D02*
D03*
X18550D02*
D03*
X17944Y17046D02*
D03*
X18550D02*
D03*
X17944Y18800D02*
D03*
X18550D02*
D03*
X10447Y22150D02*
D03*
X11053D02*
D03*
X10447Y23050D02*
D03*
X11053D02*
D03*
X10447Y23950D02*
D03*
X11053D02*
D03*
X2600Y23117D02*
D03*
X1994D02*
D03*
X31694Y19347D02*
D03*
X32300D02*
D03*
X37255Y17000D02*
D03*
X37861D02*
D03*
X27736Y19400D02*
D03*
X27130D02*
D03*
X647Y23117D02*
D03*
X1253D02*
D03*
X16550Y21010D02*
D03*
X15944D02*
D03*
X30407Y9033D02*
D03*
X29801D02*
D03*
D27*
X34394Y22420D02*
D03*
X33894D02*
D03*
X33394D02*
D03*
X32894D02*
D03*
X32394D02*
D03*
X31894D02*
D03*
X31394D02*
D03*
X30894D02*
D03*
X34394Y20373D02*
D03*
X33894D02*
D03*
X32394D02*
D03*
X31894D02*
D03*
X31394D02*
D03*
X30894D02*
D03*
X33394D02*
D03*
X32894D02*
D03*
D28*
X34467Y17601D02*
D03*
Y16900D02*
D03*
D29*
X30907Y10270D02*
D03*
X29293D02*
D03*
D30*
X34351Y6569D02*
D03*
Y6943D02*
D03*
Y7317D02*
D03*
X33249D02*
D03*
Y6569D02*
D03*
X34351Y3988D02*
D03*
Y4362D02*
D03*
Y4736D02*
D03*
X33249D02*
D03*
Y3988D02*
D03*
X30101Y3938D02*
D03*
Y4312D02*
D03*
Y4686D02*
D03*
X28999D02*
D03*
Y3938D02*
D03*
D31*
X17346Y7878D02*
D03*
X17846D02*
D03*
X9850Y1000D02*
D03*
X10350D02*
D03*
X10850D02*
D03*
X11350D02*
D03*
X11850D02*
D03*
X12350D02*
D03*
X12850D02*
D03*
X13350D02*
D03*
X13850D02*
D03*
X14350D02*
D03*
X14850D02*
D03*
X15350D02*
D03*
X15850D02*
D03*
X9850Y7878D02*
D03*
X10350D02*
D03*
X10850D02*
D03*
X11350D02*
D03*
X11850D02*
D03*
X12350D02*
D03*
X12850D02*
D03*
X13350D02*
D03*
X13850D02*
D03*
X14350D02*
D03*
X14850D02*
D03*
X15350D02*
D03*
X15850D02*
D03*
X17846Y1000D02*
D03*
X17346D02*
D03*
D32*
X9153Y1689D02*
D03*
Y2189D02*
D03*
Y2689D02*
D03*
Y3189D02*
D03*
Y3689D02*
D03*
Y4189D02*
D03*
Y4689D02*
D03*
Y5189D02*
D03*
Y5689D02*
D03*
Y6189D02*
D03*
Y6689D02*
D03*
Y7189D02*
D03*
X16700Y27150D02*
D03*
Y31150D02*
D03*
Y30650D02*
D03*
Y30150D02*
D03*
Y29650D02*
D03*
Y29150D02*
D03*
Y28650D02*
D03*
Y28150D02*
D03*
Y27650D02*
D03*
X21228Y27150D02*
D03*
Y27650D02*
D03*
Y28150D02*
D03*
Y28650D02*
D03*
Y29150D02*
D03*
Y29650D02*
D03*
Y30150D02*
D03*
Y30650D02*
D03*
Y31150D02*
D03*
D33*
X37285Y26094D02*
D03*
Y26350D02*
D03*
Y25838D02*
D03*
Y26862D02*
D03*
Y26606D02*
D03*
Y21544D02*
D03*
Y21800D02*
D03*
Y21288D02*
D03*
Y22312D02*
D03*
Y22056D02*
D03*
D34*
X38368Y27944D02*
D03*
Y24756D02*
D03*
Y23394D02*
D03*
Y20206D02*
D03*
D35*
X37882Y15851D02*
D03*
X37508D02*
D03*
X37134D02*
D03*
Y14749D02*
D03*
X37882D02*
D03*
D36*
X15000Y11869D02*
D03*
Y13050D02*
D03*
D37*
X37958Y11139D02*
D03*
Y12300D02*
D03*
X30000Y7481D02*
D03*
Y6319D02*
D03*
X36300Y7411D02*
D03*
Y6250D02*
D03*
X26100Y5031D02*
D03*
Y3869D02*
D03*
D38*
X31750Y30293D02*
D03*
X31050D02*
D03*
D39*
X34136Y23535D02*
D03*
Y24283D02*
D03*
X33152Y23909D02*
D03*
X31436Y23535D02*
D03*
Y24283D02*
D03*
X30452Y23909D02*
D03*
D40*
X38750Y6162D02*
D03*
X37569D02*
D03*
X38750Y3800D02*
D03*
X37569D02*
D03*
X26700Y2000D02*
D03*
X25700D02*
D03*
X24700D02*
D03*
X23700D02*
D03*
X22700D02*
D03*
X33100Y1000D02*
D03*
X32100Y2000D02*
D03*
Y1000D02*
D03*
X31100Y2000D02*
D03*
Y1000D02*
D03*
X30100Y2000D02*
D03*
Y1000D02*
D03*
X29100Y2000D02*
D03*
Y1000D02*
D03*
X1050Y21100D02*
D03*
X2050D02*
D03*
X1050Y20100D02*
D03*
X2050D02*
D03*
X1050Y19100D02*
D03*
X2050D02*
D03*
X1050Y18100D02*
D03*
X2050D02*
D03*
X1050Y17100D02*
D03*
X2050D02*
D03*
X1050Y16100D02*
D03*
X2050D02*
D03*
X1050Y15100D02*
D03*
X2050D02*
D03*
X1050Y14100D02*
D03*
X2050D02*
D03*
X1050Y13100D02*
D03*
X2050D02*
D03*
X1050Y12100D02*
D03*
X22900Y22067D02*
D03*
Y23067D02*
D03*
X23900Y22067D02*
D03*
Y23067D02*
D03*
X24900Y22067D02*
D03*
X34150Y30319D02*
D03*
X21450Y11600D02*
D03*
X20450Y10600D02*
D03*
X21450D02*
D03*
X20450Y9600D02*
D03*
X21450D02*
D03*
X20450Y8600D02*
D03*
X21450D02*
D03*
X20450Y7600D02*
D03*
X21450D02*
D03*
Y20000D02*
D03*
X20450Y19000D02*
D03*
X21450D02*
D03*
X20450Y18000D02*
D03*
X21450D02*
D03*
X20450Y17000D02*
D03*
X21450D02*
D03*
X20450Y16000D02*
D03*
X21450D02*
D03*
X20450Y15000D02*
D03*
X21450D02*
D03*
X1150Y26150D02*
D03*
Y27150D02*
D03*
Y28150D02*
D03*
D41*
X11822Y19900D02*
D03*
X12019D02*
D03*
X12216D02*
D03*
X12413D02*
D03*
X12609D02*
D03*
X12806D02*
D03*
X13003D02*
D03*
X13200D02*
D03*
X13397D02*
D03*
X13594D02*
D03*
X13791D02*
D03*
X13987D02*
D03*
X14184D02*
D03*
X14381D02*
D03*
X14578D02*
D03*
X14775D02*
D03*
Y15176D02*
D03*
X14578D02*
D03*
X14381D02*
D03*
X14184D02*
D03*
X13987D02*
D03*
X13791D02*
D03*
X13594D02*
D03*
X13397D02*
D03*
X13200D02*
D03*
X13003D02*
D03*
X12806D02*
D03*
X12609D02*
D03*
X12413D02*
D03*
X12216D02*
D03*
X12019D02*
D03*
X11822D02*
D03*
D42*
X15661Y19014D02*
D03*
Y18817D02*
D03*
Y18620D02*
D03*
Y18424D02*
D03*
Y18227D02*
D03*
Y18030D02*
D03*
Y17833D02*
D03*
Y17636D02*
D03*
Y17439D02*
D03*
Y17243D02*
D03*
Y17046D02*
D03*
Y16849D02*
D03*
Y16652D02*
D03*
Y16455D02*
D03*
Y16258D02*
D03*
Y16061D02*
D03*
X10936D02*
D03*
Y16258D02*
D03*
Y16455D02*
D03*
Y16652D02*
D03*
Y16849D02*
D03*
Y17046D02*
D03*
Y17243D02*
D03*
Y17439D02*
D03*
Y17636D02*
D03*
Y17833D02*
D03*
Y18030D02*
D03*
Y18227D02*
D03*
Y18424D02*
D03*
Y18620D02*
D03*
Y18817D02*
D03*
D43*
Y19014D02*
D03*
D44*
X26424Y14248D02*
D03*
Y14444D02*
D03*
Y14641D02*
D03*
Y14838D02*
D03*
Y15035D02*
D03*
Y15232D02*
D03*
Y15429D02*
D03*
Y15626D02*
D03*
Y15822D02*
D03*
Y16019D02*
D03*
Y16216D02*
D03*
Y16413D02*
D03*
Y16610D02*
D03*
Y16807D02*
D03*
Y17003D02*
D03*
Y17200D02*
D03*
X30794D02*
D03*
Y17003D02*
D03*
Y16807D02*
D03*
Y16610D02*
D03*
Y16413D02*
D03*
Y16216D02*
D03*
Y16019D02*
D03*
Y15822D02*
D03*
Y15626D02*
D03*
Y15429D02*
D03*
Y15232D02*
D03*
Y15035D02*
D03*
Y14838D02*
D03*
Y14641D02*
D03*
Y14444D02*
D03*
Y14248D02*
D03*
D45*
X27133Y17909D02*
D03*
X27330D02*
D03*
X27527D02*
D03*
X27724D02*
D03*
X27920D02*
D03*
X28117D02*
D03*
X28314D02*
D03*
X28511D02*
D03*
X28708D02*
D03*
X28905D02*
D03*
X29101D02*
D03*
X29298D02*
D03*
X29495D02*
D03*
X29692D02*
D03*
X29889D02*
D03*
X30086D02*
D03*
Y13539D02*
D03*
X29889D02*
D03*
X29692D02*
D03*
X29495D02*
D03*
X29298D02*
D03*
X29101D02*
D03*
X28905D02*
D03*
X28708D02*
D03*
X28511D02*
D03*
X28314D02*
D03*
X28117D02*
D03*
X27920D02*
D03*
X27724D02*
D03*
X27527D02*
D03*
X27330D02*
D03*
X27133D02*
D03*
D46*
X17840Y27650D02*
D03*
X18260D02*
D03*
X18680D02*
D03*
X19100D02*
D03*
X19520D02*
D03*
X19940D02*
D03*
D47*
X4050Y13294D02*
D03*
Y13550D02*
D03*
Y13806D02*
D03*
X3184Y13294D02*
D03*
Y13550D02*
D03*
Y15600D02*
D03*
Y15344D02*
D03*
X4050Y15856D02*
D03*
Y15600D02*
D03*
Y15344D02*
D03*
X3184Y17550D02*
D03*
Y17294D02*
D03*
X4050Y17806D02*
D03*
Y17550D02*
D03*
Y17294D02*
D03*
X3184Y19619D02*
D03*
Y19363D02*
D03*
X4050Y19875D02*
D03*
Y19619D02*
D03*
Y19363D02*
D03*
X3150Y21850D02*
D03*
Y21594D02*
D03*
X4016Y22106D02*
D03*
Y21850D02*
D03*
Y21594D02*
D03*
D48*
X3184Y13806D02*
D03*
Y15856D02*
D03*
Y17806D02*
D03*
Y19875D02*
D03*
X3150Y22106D02*
D03*
D81*
X24450Y10044D02*
X25500D01*
X35813Y13637D02*
X37106Y12344D01*
X35502Y13637D02*
X35813D01*
X37063Y12300D02*
X37106Y12344D01*
X37500Y13294D02*
X37958D01*
X37161D02*
X37500D01*
X29105Y21868D02*
X29606D01*
X28604D02*
X29105D01*
X29700Y11637D02*
X30104D01*
X29272D02*
X29700D01*
X35800Y3915D02*
X36300D01*
X35300D02*
X35800D01*
X31850Y4522D02*
X32250D01*
X31450D02*
X31850D01*
X31597Y6509D02*
Y7317D01*
X27600Y3869D02*
X28096D01*
X26600D02*
X27600D01*
X26100D02*
X26600D01*
X10491Y10347D02*
X11457D01*
X18075Y21606D02*
X18550D01*
X17600D02*
X18075D01*
X31307Y11637D02*
X36400D01*
X35483Y13637D02*
Y14992D01*
X31307Y11637D02*
X32700Y13030D01*
X16550Y21010D02*
X17119D01*
X17610D02*
X18540D01*
X17119D02*
X17590D01*
X31597Y6509D02*
X31600Y6506D01*
X36300Y3915D02*
X36300Y3915D01*
X17346Y1000D02*
X17846D01*
X15850D02*
X17346D01*
Y7878D02*
X17846D01*
X15850D02*
X17346D01*
X12424Y10347D02*
X13391D01*
X11457D02*
X12424D01*
X25750Y6339D02*
X30000D01*
X30010Y6328D02*
X30369Y5950D01*
X29990Y6328D02*
X30000Y6339D01*
X30010Y6328D01*
X29606Y5926D02*
X29990Y6328D01*
X22341D02*
X24202D01*
X25500Y5031D01*
X26800Y400D02*
X34001D01*
X25700Y1500D02*
X26800Y400D01*
X25700Y1500D02*
Y2000D01*
X21150Y400D02*
X25950D01*
X20750Y800D02*
X21150Y400D01*
X20300Y1800D02*
X20750Y1350D01*
Y800D02*
Y1350D01*
X10550Y1800D02*
X20300D01*
X10350Y1600D02*
X10550Y1800D01*
X10350Y1000D02*
Y1600D01*
X34550Y27350D02*
X34553Y27347D01*
X35087D01*
X31700Y24650D02*
X31844D01*
X31600D02*
X31700D01*
X27602Y22686D02*
Y22898D01*
X27130Y19400D02*
Y19747D01*
X18900Y21000D02*
X19400D01*
X17100Y20500D02*
X17600Y21000D01*
X15500Y20500D02*
X17100D01*
X17600Y19950D02*
Y21000D01*
X38250Y12300D02*
X38300D01*
X37958D02*
X38250D01*
X36400Y11637D02*
X37063Y12300D01*
X35483Y13637D02*
X35502D01*
X31000Y11637D02*
X31307D01*
X36300Y22250D02*
Y24700D01*
Y22200D02*
Y22250D01*
Y19550D02*
X37861Y17989D01*
X36300Y19550D02*
Y21050D01*
X37861Y17000D02*
Y17989D01*
X24900Y23067D02*
X27433D01*
X27602Y22898D01*
X24900Y22067D02*
Y23067D01*
X33550Y28400D02*
X33850Y28100D01*
X27758Y28400D02*
X33550D01*
X33850Y25350D02*
Y28100D01*
X34200Y25000D02*
X36000D01*
X33850Y25350D02*
X34200Y25000D01*
X37810Y26161D02*
Y27265D01*
X37800Y27275D02*
Y27300D01*
Y27275D02*
X37810Y27265D01*
X35800Y29300D02*
X37800Y27300D01*
X30957Y30200D02*
X31050Y30293D01*
X29476Y30200D02*
X30957D01*
X28905Y30772D02*
X29476Y30200D01*
X38900Y9250D02*
Y16497D01*
X36000Y25000D02*
X36300Y24700D01*
X27400Y28758D02*
X27758Y28400D01*
X27672Y30772D02*
X28117D01*
X27400Y30500D02*
X27672Y30772D01*
X27400Y28758D02*
Y30500D01*
X32700Y13030D02*
Y14500D01*
X37882Y13976D02*
X37958Y13900D01*
X37882Y13976D02*
Y14749D01*
X38370Y13900D02*
X38447Y13823D01*
Y12447D02*
Y13823D01*
X38300Y12300D02*
X38447Y12447D01*
Y8218D02*
Y12103D01*
X38250Y12300D02*
X38447Y12103D01*
X32548Y14652D02*
X32700Y14500D01*
X37063Y12300D02*
X37958D01*
X32100Y14652D02*
X32548D01*
X13987Y20654D02*
Y21187D01*
X14250Y21450D01*
X14944D01*
X15150Y21656D01*
Y22550D01*
X25650Y3100D02*
X27670D01*
X25100Y3650D02*
X25650Y3100D01*
X25100Y3650D02*
Y4631D01*
X27670Y3100D02*
X27900Y2870D01*
Y1700D02*
Y2870D01*
X28600Y1000D02*
X29100D01*
X27900Y1700D02*
X28600Y1000D01*
X25500Y5031D02*
X26100D01*
X25100Y4631D02*
X25500Y5031D01*
X13391Y10953D02*
X13747D01*
X32250Y4522D02*
X32250Y4522D01*
X28096Y3869D02*
X28100Y3865D01*
X28789Y3938D02*
X28999D01*
X28256Y4472D02*
X28789Y3938D01*
X28100Y4472D02*
X28256D01*
X28100Y4472D02*
X28100Y4472D01*
X27100Y4472D02*
X28100D01*
X27100D02*
Y4750D01*
X26819Y5031D02*
X27100Y4750D01*
X26100Y5031D02*
X26819D01*
X11460Y10950D02*
X11950D01*
X11457Y10953D02*
X11460Y10950D01*
X15009Y22691D02*
X15150Y22550D01*
X14500Y22691D02*
X15009D01*
X38397Y17000D02*
X38900Y16497D01*
X37861Y17000D02*
X38397D01*
X26600Y22474D02*
X26654Y22420D01*
X37058Y9250D02*
X37255D01*
X36300Y8492D02*
X37058Y9250D01*
X36300Y7411D02*
Y8492D01*
X33750Y2000D02*
X35900D01*
X36950Y3050D01*
Y7124D01*
X36663Y7411D02*
X36950Y7124D01*
X36300Y7411D02*
X36663D01*
X33100Y2000D02*
X33750D01*
X34200Y1550D01*
Y599D02*
Y1550D01*
X34001Y400D02*
X34200Y599D01*
X29606Y3606D02*
Y5926D01*
X29100Y3100D02*
X29606Y3606D01*
X29100Y2000D02*
Y3100D01*
X32100Y2000D02*
X33100D01*
X32100Y1000D02*
X33100D01*
X31100D02*
X32100D01*
X30100D02*
X31100D01*
X30100Y2000D02*
X31100D01*
X35483Y14992D02*
X36042D01*
X36100Y15050D01*
Y16698D01*
X35949Y16849D02*
X36100Y16698D01*
X35502Y16849D02*
X35949D01*
X35483Y16867D02*
X35502Y16849D01*
X32206Y6173D02*
Y6506D01*
X31983Y5950D02*
X32206Y6173D01*
X30369Y5950D02*
X31983D01*
X32269Y6569D02*
X33249D01*
X12069Y22085D02*
X12880D01*
X12069Y22691D02*
X12880D01*
X13690D01*
X14500D01*
X13690Y22085D02*
X14500D01*
X13700Y12752D02*
Y12797D01*
Y12350D02*
Y12752D01*
X12424Y11476D02*
X13700Y12752D01*
X12150Y11750D02*
Y12694D01*
Y11750D02*
X12424Y11476D01*
Y10953D02*
Y11476D01*
X15000Y11869D02*
X16319D01*
X16400Y11950D01*
Y12697D01*
X14181Y11869D02*
X15000D01*
X13700Y12350D02*
X14181Y11869D01*
X10481Y10963D02*
Y12694D01*
Y13494D01*
X10491Y10953D02*
X11457D01*
X12424D02*
X13391D01*
X11087Y12694D02*
X12150D01*
X11087D02*
Y13494D01*
X12150D02*
X12150Y13494D01*
Y12694D02*
Y13494D01*
X12756Y13494D02*
X12756Y13494D01*
Y12694D02*
Y13494D01*
X31844Y24650D02*
X31941Y24747D01*
X31436Y24486D02*
X31600Y24650D01*
X31941Y24747D02*
Y25147D01*
X31436Y24283D02*
Y24486D01*
X34650Y6569D02*
X35281D01*
X34351D02*
X34650D01*
X34800Y6719D01*
Y7156D01*
X34639Y7317D02*
X34800Y7156D01*
X34351Y7317D02*
X34639D01*
X35281Y6569D02*
X35300Y6550D01*
X35681D01*
X35800Y6669D01*
Y7200D01*
X35974Y7374D01*
X36263D01*
X36300Y7411D01*
X37958Y13900D02*
X38370D01*
X37861Y16200D02*
Y17000D01*
Y15872D02*
Y16200D01*
X37711Y16350D02*
X37861Y16200D01*
X37285Y16350D02*
X37711D01*
X37134Y16199D02*
X37285Y16350D01*
X37134Y15851D02*
Y16199D01*
X37861Y15872D02*
X37882Y15851D01*
X33124Y30293D02*
X33150Y30319D01*
X31750Y30293D02*
X33124D01*
X33150Y29700D02*
Y30319D01*
Y29700D02*
X33550Y29300D01*
X35800D01*
D82*
X21700Y2000D02*
D03*
X33100D02*
D03*
X24900Y23067D02*
D03*
X33150Y30319D02*
D03*
D83*
X2050Y12100D02*
D03*
X20450Y11600D02*
D03*
Y20000D02*
D03*
X1150Y25150D02*
D03*
D84*
X38348Y27462D02*
D03*
Y25238D02*
D03*
Y22912D02*
D03*
Y20688D02*
D03*
D85*
X37501Y25563D02*
D03*
Y27137D02*
D03*
Y21013D02*
D03*
Y22587D02*
D03*
D86*
X28117Y30772D02*
D03*
X28905D02*
D03*
X29692D02*
D03*
Y29000D02*
D03*
X28905D02*
D03*
X28117D02*
D03*
D87*
X1231Y30269D02*
D03*
Y1231D02*
D03*
X38169D02*
D03*
Y30319D02*
D03*
D88*
X24975Y10044D02*
D03*
X17700Y13934D02*
D03*
X18950D02*
D03*
X17700Y13171D02*
D03*
X18950D02*
D03*
X23850Y8094D02*
D03*
X25100D02*
D03*
X23850Y7331D02*
D03*
X25100D02*
D03*
X34113Y10407D02*
D03*
X35363D02*
D03*
X34113Y9643D02*
D03*
X35363D02*
D03*
X33750Y19290D02*
D03*
X35000D02*
D03*
X33750Y18527D02*
D03*
X35000D02*
D03*
X7042Y29064D02*
D03*
X8292D02*
D03*
X7042Y28300D02*
D03*
X8292D02*
D03*
X27200Y26964D02*
D03*
X28450D02*
D03*
X27200Y26200D02*
D03*
X28450D02*
D03*
X3450Y10800D02*
D03*
X2684D02*
D03*
X6800Y7250D02*
D03*
X5550D02*
D03*
X6800Y8014D02*
D03*
X5550D02*
D03*
X10692Y15179D02*
D03*
X10368D02*
D03*
X10350Y20103D02*
D03*
X10000Y20100D02*
D03*
X14184Y23964D02*
D03*
X13242D02*
D03*
X12300D02*
D03*
X15000Y16500D02*
D03*
X16700Y31150D02*
D03*
X17850Y15100D02*
D03*
X18700D02*
D03*
X19450Y21000D02*
D03*
X18075Y21606D02*
D03*
X14585Y19300D02*
D03*
X37285Y26862D02*
D03*
Y22312D02*
D03*
X3184Y13294D02*
D03*
Y15344D02*
D03*
Y17294D02*
D03*
Y19363D02*
D03*
X3150Y21594D02*
D03*
X2600Y23117D02*
D03*
X16700Y27150D02*
D03*
X21228D02*
D03*
X27500Y18850D02*
D03*
X27700Y17300D02*
D03*
X27400Y18450D02*
D03*
X31350Y14100D02*
D03*
X25100Y14444D02*
D03*
X32100Y16997D02*
D03*
Y14046D02*
D03*
X32300Y9930D02*
D03*
X29700Y11637D02*
D03*
X27950Y9930D02*
D03*
X27250Y5600D02*
D03*
X26600Y3869D02*
D03*
X27600D02*
D03*
X30000Y7481D02*
D03*
X30101Y3938D02*
D03*
X33249Y4736D02*
D03*
X31850Y4522D02*
D03*
X31600Y6943D02*
D03*
X34351D02*
D03*
X35300Y7156D02*
D03*
X35800Y3915D02*
D03*
X38750Y3800D02*
D03*
X38447Y7224D02*
D03*
X37958Y11139D02*
D03*
X37500Y13294D02*
D03*
X37508Y15851D02*
D03*
X37255Y17000D02*
D03*
X34467Y16900D02*
D03*
X31694Y19347D02*
D03*
X30894Y20373D02*
D03*
X27736Y19400D02*
D03*
X29105Y21868D02*
D03*
X9153Y1550D02*
D03*
X17350Y700D02*
D03*
X17850D02*
D03*
X15850D02*
D03*
X17840Y8200D02*
D03*
X17346D02*
D03*
X15850D02*
D03*
X13401Y10200D02*
D03*
X10501D02*
D03*
X6500Y10040D02*
D03*
X6500Y10970D02*
D03*
X6500Y11900D02*
D03*
X6500Y12830D02*
D03*
X6500Y13760D02*
D03*
X6500Y14690D02*
D03*
X6500Y15620D02*
D03*
X6500Y16550D02*
D03*
X6500Y17480D02*
D03*
X6500Y18410D02*
D03*
X6500Y19340D02*
D03*
X6500Y20270D02*
D03*
X6500Y21200D02*
D03*
Y22150D02*
D03*
Y23050D02*
D03*
Y24000D02*
D03*
X22341Y6328D02*
D03*
X25750Y6339D02*
D03*
X25950Y400D02*
D03*
X31400Y11700D02*
D03*
X34550Y27350D02*
D03*
X31700Y24650D02*
D03*
X27602Y22686D02*
D03*
X27130Y19747D02*
D03*
X21250Y27650D02*
D03*
X36300Y21050D02*
D03*
Y22250D02*
D03*
X27200Y23500D02*
D03*
X27800Y18900D02*
D03*
X34572Y26572D02*
D03*
Y25797D02*
D03*
X25100Y18150D02*
D03*
X23750Y18450D02*
D03*
X23960Y18150D02*
D03*
X38900Y9250D02*
D03*
X37255D02*
D03*
X13747Y10953D02*
D03*
X11950Y10950D02*
D03*
X20650Y23764D02*
D03*
X20600Y24650D02*
D03*
X26550Y20550D02*
D03*
X29300Y18600D02*
D03*
X24394Y16300D02*
D03*
X24400Y16000D02*
D03*
X30086Y13050D02*
D03*
X27450Y11400D02*
D03*
X27400Y11000D02*
D03*
X13701Y19094D02*
D03*
X13098Y20550D02*
D03*
X28350Y14800D02*
D03*
X28150Y14150D02*
D03*
X28700Y14950D02*
D03*
X28200Y14500D02*
D03*
X13226Y15851D02*
D03*
X12475Y15900D02*
D03*
M02*
