G04*
G04 #@! TF.GenerationSoftware,Altium Limited,Altium Designer,18.1.9 (240)*
G04*
G04 Layer_Color=32896*
%FSLAX24Y24*%
%MOIN*%
G70*
G01*
G75*
%ADD13C,0.0100*%
%ADD17C,0.0200*%
%ADD18C,0.0060*%
%ADD20C,0.0050*%
D13*
X-1950Y31496D02*
X-1750Y30896D01*
X-2150D02*
X-1950Y31496D01*
X-2150Y600D02*
X-1950Y-0D01*
X-1750Y600D01*
X-1950Y17098D02*
Y31496D01*
Y-0D02*
Y14078D01*
X-2050Y31496D02*
X-200D01*
X-2050Y-0D02*
X-200D01*
X0Y-1750D02*
X600Y-1550D01*
X0Y-1750D02*
X600Y-1950D01*
X38770D02*
X39370Y-1750D01*
X38770Y-1550D02*
X39370Y-1750D01*
X0D02*
X17766D01*
X21285D02*
X39370D01*
X0Y-1850D02*
Y-200D01*
X39370Y-1850D02*
Y-200D01*
D17*
X0Y31496D02*
X39370D01*
X0Y-0D02*
X39370Y0D01*
X0Y0D02*
Y31496D01*
X39370Y-0D02*
X39370Y31496D01*
D18*
X-2090Y14238D02*
X-2190Y14338D01*
Y14538D01*
X-2090Y14638D01*
X-1990D01*
X-1890Y14538D01*
X-1790Y14638D01*
X-1690D01*
X-1590Y14538D01*
Y14338D01*
X-1690Y14238D01*
X-1790D01*
X-1890Y14338D01*
X-1990Y14238D01*
X-2090D01*
X-1890Y14338D02*
Y14538D01*
X-2090Y14838D02*
X-2190Y14938D01*
Y15138D01*
X-2090Y15238D01*
X-1690D01*
X-1590Y15138D01*
Y14938D01*
X-1690Y14838D01*
X-2090D01*
X-1590Y15438D02*
X-1690D01*
Y15538D01*
X-1590D01*
Y15438D01*
X-2090Y15938D02*
X-2190Y16038D01*
Y16238D01*
X-2090Y16338D01*
X-1690D01*
X-1590Y16238D01*
Y16038D01*
X-1690Y15938D01*
X-2090D01*
Y16538D02*
X-2190Y16638D01*
Y16838D01*
X-2090Y16938D01*
X-1690D01*
X-1590Y16838D01*
Y16638D01*
X-1690Y16538D01*
X-2090D01*
X17926Y-2110D02*
X18125D01*
X18026D01*
Y-1510D01*
X17926Y-1610D01*
X18425D02*
X18525Y-1510D01*
X18725D01*
X18825Y-1610D01*
Y-2010D01*
X18725Y-2110D01*
X18525D01*
X18425Y-2010D01*
Y-1610D01*
X19025D02*
X19125Y-1510D01*
X19325D01*
X19425Y-1610D01*
Y-2010D01*
X19325Y-2110D01*
X19125D01*
X19025Y-2010D01*
Y-1610D01*
X19625Y-2110D02*
Y-2010D01*
X19725D01*
Y-2110D01*
X19625D01*
X20125Y-1610D02*
X20225Y-1510D01*
X20425D01*
X20525Y-1610D01*
Y-2010D01*
X20425Y-2110D01*
X20225D01*
X20125Y-2010D01*
Y-1610D01*
X20725D02*
X20825Y-1510D01*
X21025D01*
X21125Y-1610D01*
Y-2010D01*
X21025Y-2110D01*
X20825D01*
X20725Y-2010D01*
Y-1610D01*
D20*
X38414Y19322D02*
Y19502D01*
X37974Y19322D02*
Y19502D01*
Y19322D02*
X38414D01*
X37974Y19502D02*
X38414D01*
Y17098D02*
Y17278D01*
X37974Y17098D02*
Y17278D01*
Y17098D02*
X38414D01*
X37974Y17278D02*
X38414D01*
Y24064D02*
Y24244D01*
X37974Y24064D02*
Y24244D01*
Y24064D02*
X38414D01*
X37974Y24244D02*
X38414D01*
Y21840D02*
Y22020D01*
X37974Y21840D02*
Y22020D01*
Y21840D02*
X38414D01*
X37974Y22020D02*
X38414D01*
M02*
