G04*
G04 #@! TF.GenerationSoftware,Altium Limited,Altium Designer,18.1.9 (240)*
G04*
G04 Layer_Physical_Order=2*
G04 Layer_Color=16711680*
%FSLAX24Y24*%
%MOIN*%
G70*
G01*
G75*
%ADD13C,0.0100*%
%ADD17C,0.0200*%
%ADD18C,0.0060*%
%ADD20C,0.0050*%
%ADD40C,0.0591*%
%ADD80C,0.0300*%
%ADD82R,0.0591X0.0591*%
%ADD83R,0.0591X0.0591*%
%ADD84C,0.0472*%
%ADD85R,0.0591X0.0315*%
%ADD86C,0.0197*%
%ADD87C,0.0984*%
%ADD88C,0.1378*%
%ADD89C,0.0220*%
G36*
X39250Y14102D02*
X39200Y14082D01*
X38416Y14866D01*
X38340Y14917D01*
X38250Y14935D01*
X36897D01*
X36385Y15447D01*
Y19650D01*
X36367Y19740D01*
X36316Y19816D01*
X36316Y19816D01*
X35916Y20216D01*
X35840Y20267D01*
X35750Y20285D01*
X34847D01*
X34566Y20566D01*
X34490Y20617D01*
X34400Y20635D01*
X34310Y20617D01*
X34234Y20566D01*
X33953Y20285D01*
X31800D01*
X31710Y20267D01*
X31634Y20216D01*
X31284Y19866D01*
X31233Y19790D01*
X31215Y19700D01*
Y19303D01*
X31233Y19213D01*
X31284Y19137D01*
X31360Y19086D01*
X31450Y19069D01*
X31540Y19086D01*
X31616Y19137D01*
X31667Y19213D01*
X31685Y19303D01*
Y19603D01*
X31897Y19815D01*
X34050D01*
X34140Y19833D01*
X34216Y19884D01*
X34400Y20068D01*
X34584Y19884D01*
X34660Y19833D01*
X34750Y19815D01*
X35653D01*
X35915Y19553D01*
Y15350D01*
X35933Y15260D01*
X35984Y15184D01*
X36634Y14534D01*
X36710Y14483D01*
X36800Y14465D01*
X38153D01*
X38815Y13803D01*
Y3797D01*
X37053Y2035D01*
X23373D01*
X23346Y2037D01*
X23308Y2043D01*
X23277Y2051D01*
X23255Y2060D01*
X23240Y2068D01*
X23233Y2075D01*
X23229Y2080D01*
X23227Y2085D01*
X23225Y2102D01*
Y2175D01*
X23146D01*
X23144Y2176D01*
X23142Y2175D01*
X22558D01*
X22556Y2176D01*
X22554Y2175D01*
X22475D01*
Y2102D01*
X22473Y2085D01*
X22471Y2080D01*
X22467Y2075D01*
X22460Y2068D01*
X22445Y2060D01*
X22423Y2051D01*
X22392Y2043D01*
X22354Y2037D01*
X22327Y2035D01*
X22218D01*
X22203Y2036D01*
X22182Y2039D01*
X22164Y2043D01*
X22149Y2048D01*
X22138Y2052D01*
X22129Y2057D01*
X22123Y2061D01*
X22118Y2068D01*
X22039Y2128D01*
X21948Y2166D01*
X21850Y2179D01*
X21752Y2166D01*
X21661Y2128D01*
X21582Y2068D01*
X21522Y1989D01*
X21484Y1898D01*
X21471Y1800D01*
X21484Y1702D01*
X21522Y1611D01*
X21582Y1532D01*
X21661Y1472D01*
X21752Y1434D01*
X21850Y1421D01*
X21948Y1434D01*
X22039Y1472D01*
X22118Y1532D01*
X22123Y1539D01*
X22129Y1543D01*
X22138Y1548D01*
X22149Y1552D01*
X22164Y1557D01*
X22182Y1561D01*
X22202Y1564D01*
X22223Y1565D01*
X22327D01*
X22354Y1563D01*
X22392Y1557D01*
X22423Y1549D01*
X22445Y1540D01*
X22460Y1532D01*
X22467Y1525D01*
X22471Y1520D01*
X22473Y1515D01*
X22475Y1498D01*
Y1425D01*
X22554D01*
X22556Y1424D01*
X22558Y1425D01*
X23142D01*
X23144Y1424D01*
X23146Y1425D01*
X23225D01*
Y1498D01*
X23227Y1515D01*
X23229Y1520D01*
X23233Y1525D01*
X23240Y1532D01*
X23255Y1540D01*
X23277Y1549D01*
X23308Y1557D01*
X23346Y1563D01*
X23373Y1565D01*
X37150D01*
X37240Y1583D01*
X37316Y1634D01*
X39200Y3518D01*
X39250Y3498D01*
Y100D01*
X18555D01*
X18524Y150D01*
X18534Y200D01*
Y518D01*
X18565Y529D01*
X18584Y531D01*
X18661Y472D01*
X18752Y434D01*
X18850Y421D01*
X18948Y434D01*
X19039Y472D01*
X19118Y532D01*
X19178Y611D01*
X19216Y702D01*
X19229Y800D01*
X19216Y898D01*
X19178Y989D01*
X19118Y1068D01*
X19039Y1128D01*
X18948Y1166D01*
X18850Y1179D01*
X18752Y1166D01*
X18661Y1128D01*
X18584Y1069D01*
X18565Y1071D01*
X18534Y1082D01*
Y1518D01*
X18565Y1529D01*
X18584Y1531D01*
X18661Y1472D01*
X18752Y1434D01*
X18850Y1421D01*
X18948Y1434D01*
X19039Y1472D01*
X19118Y1532D01*
X19178Y1611D01*
X19216Y1702D01*
X19229Y1800D01*
X19216Y1898D01*
X19178Y1989D01*
X19118Y2068D01*
X19039Y2128D01*
X18948Y2166D01*
X18850Y2179D01*
X18752Y2166D01*
X18661Y2128D01*
X18584Y2069D01*
X18565Y2071D01*
X18534Y2082D01*
Y5950D01*
X18520Y6020D01*
X18480Y6080D01*
X17834Y6726D01*
Y13128D01*
X17820Y13199D01*
X17780Y13258D01*
X17258Y13780D01*
X17199Y13820D01*
X17128Y13834D01*
X5650D01*
X5580Y13820D01*
X5520Y13780D01*
X5480Y13720D01*
X5466Y13650D01*
X5466Y200D01*
X5469Y189D01*
X5437Y150D01*
X100D01*
X96Y146D01*
X50Y165D01*
Y31400D01*
X39250D01*
Y14102D01*
D02*
G37*
G36*
X17466Y13052D02*
Y6650D01*
X17480Y6580D01*
X17520Y6520D01*
X18166Y5874D01*
Y2082D01*
X18135Y2071D01*
X18116Y2069D01*
X18039Y2128D01*
X17948Y2166D01*
X17850Y2179D01*
X17752Y2166D01*
X17661Y2128D01*
X17582Y2068D01*
X17577Y2061D01*
X17571Y2057D01*
X17562Y2052D01*
X17551Y2048D01*
X17536Y2043D01*
X17518Y2039D01*
X17498Y2036D01*
X17477Y2035D01*
X15569D01*
X15479Y2017D01*
X15403Y1966D01*
X15352Y1890D01*
X15334Y1800D01*
X15352Y1710D01*
X15403Y1634D01*
X15479Y1583D01*
X15569Y1565D01*
X17482D01*
X17497Y1564D01*
X17518Y1561D01*
X17536Y1557D01*
X17551Y1552D01*
X17562Y1548D01*
X17571Y1543D01*
X17577Y1539D01*
X17582Y1532D01*
X17661Y1472D01*
X17752Y1434D01*
X17850Y1421D01*
X17948Y1434D01*
X18039Y1472D01*
X18116Y1531D01*
X18135Y1529D01*
X18166Y1518D01*
Y1082D01*
X18135Y1071D01*
X18116Y1069D01*
X18039Y1128D01*
X17948Y1166D01*
X17850Y1179D01*
X17752Y1166D01*
X17661Y1128D01*
X17582Y1068D01*
X17522Y989D01*
X17484Y898D01*
X17471Y800D01*
X17484Y702D01*
X17522Y611D01*
X17582Y532D01*
X17661Y472D01*
X17752Y434D01*
X17850Y421D01*
X17948Y434D01*
X18039Y472D01*
X18116Y531D01*
X18135Y529D01*
X18166Y518D01*
Y200D01*
X18176Y150D01*
X18145Y100D01*
X5855D01*
X5824Y150D01*
X5834Y200D01*
X5834Y13466D01*
X11708D01*
X11713Y13417D01*
X11637Y13366D01*
X11586Y13290D01*
X11569Y13200D01*
Y8550D01*
X9931Y6913D01*
X9880Y6837D01*
X9862Y6747D01*
Y3250D01*
X9880Y3160D01*
X9931Y3084D01*
X10007Y3033D01*
X10097Y3015D01*
X10187Y3033D01*
X10263Y3084D01*
X10314Y3160D01*
X10331Y3250D01*
Y6650D01*
X11969Y8287D01*
X12020Y8363D01*
X12038Y8453D01*
X12038Y8453D01*
Y13200D01*
X12020Y13290D01*
X11969Y13366D01*
X11893Y13417D01*
X11899Y13466D01*
X17052D01*
X17466Y13052D01*
D02*
G37*
G36*
X22556Y1506D02*
X22553Y1533D01*
X22544Y1558D01*
X22529Y1579D01*
X22508Y1598D01*
X22481Y1614D01*
X22448Y1627D01*
X22409Y1637D01*
X22364Y1644D01*
X22313Y1649D01*
X22266Y1650D01*
X22250Y1649D01*
X22192Y1645D01*
X22167Y1641D01*
X22144Y1636D01*
X22123Y1630D01*
X22104Y1622D01*
X22087Y1614D01*
X22073Y1604D01*
X22061Y1593D01*
Y2007D01*
X22073Y1996D01*
X22087Y1986D01*
X22104Y1978D01*
X22123Y1970D01*
X22144Y1964D01*
X22167Y1959D01*
X22192Y1955D01*
X22220Y1952D01*
X22271Y1950D01*
X22313Y1951D01*
X22364Y1956D01*
X22409Y1963D01*
X22448Y1973D01*
X22481Y1986D01*
X22508Y2002D01*
X22529Y2021D01*
X22544Y2042D01*
X22553Y2067D01*
X22556Y2094D01*
Y1506D01*
D02*
G37*
G36*
X17639Y1593D02*
X17627Y1604D01*
X17613Y1614D01*
X17596Y1622D01*
X17577Y1630D01*
X17556Y1636D01*
X17533Y1641D01*
X17508Y1645D01*
X17480Y1648D01*
X17419Y1650D01*
Y1950D01*
X17450Y1951D01*
X17508Y1955D01*
X17533Y1959D01*
X17556Y1964D01*
X17577Y1970D01*
X17596Y1978D01*
X17613Y1986D01*
X17627Y1996D01*
X17639Y2007D01*
Y1593D01*
D02*
G37*
G36*
X23147Y2067D02*
X23156Y2042D01*
X23171Y2021D01*
X23192Y2002D01*
X23219Y1986D01*
X23252Y1973D01*
X23291Y1963D01*
X23336Y1956D01*
X23387Y1951D01*
X23444Y1950D01*
Y1650D01*
X23387Y1649D01*
X23336Y1644D01*
X23291Y1637D01*
X23252Y1627D01*
X23219Y1614D01*
X23192Y1598D01*
X23171Y1579D01*
X23156Y1558D01*
X23147Y1533D01*
X23144Y1506D01*
Y2094D01*
X23147Y2067D01*
D02*
G37*
%LPC*%
G36*
X36587Y30991D02*
X36505Y30980D01*
X36428Y30948D01*
X36362Y30897D01*
X36311Y30831D01*
X36279Y30754D01*
X36268Y30672D01*
X36279Y30589D01*
X36311Y30512D01*
X36362Y30446D01*
X36428Y30395D01*
X36505Y30364D01*
X36587Y30353D01*
X36670Y30364D01*
X36747Y30395D01*
X36813Y30446D01*
X36864Y30512D01*
X36895Y30589D01*
X36906Y30672D01*
X36895Y30754D01*
X36864Y30831D01*
X36813Y30897D01*
X36747Y30948D01*
X36670Y30980D01*
X36587Y30991D01*
D02*
G37*
G36*
X35800D02*
X35717Y30980D01*
X35641Y30948D01*
X35574Y30897D01*
X35524Y30831D01*
X35492Y30754D01*
X35481Y30672D01*
X35492Y30589D01*
X35524Y30512D01*
X35574Y30446D01*
X35641Y30395D01*
X35717Y30364D01*
X35800Y30353D01*
X35883Y30364D01*
X35959Y30395D01*
X36026Y30446D01*
X36076Y30512D01*
X36108Y30589D01*
X36119Y30672D01*
X36108Y30754D01*
X36076Y30831D01*
X36026Y30897D01*
X35959Y30948D01*
X35883Y30980D01*
X35800Y30991D01*
D02*
G37*
G36*
X35013D02*
X34930Y30980D01*
X34853Y30948D01*
X34787Y30897D01*
X34736Y30831D01*
X34705Y30754D01*
X34694Y30672D01*
X34705Y30589D01*
X34736Y30512D01*
X34787Y30446D01*
X34853Y30395D01*
X34930Y30364D01*
X35013Y30353D01*
X35095Y30364D01*
X35172Y30395D01*
X35238Y30446D01*
X35289Y30512D01*
X35321Y30589D01*
X35332Y30672D01*
X35321Y30754D01*
X35289Y30831D01*
X35238Y30897D01*
X35172Y30948D01*
X35095Y30980D01*
X35013Y30991D01*
D02*
G37*
G36*
X12025Y31075D02*
X11275D01*
Y30325D01*
X12025D01*
Y31075D01*
D02*
G37*
G36*
X20700Y31079D02*
X20602Y31066D01*
X20511Y31028D01*
X20432Y30968D01*
X20372Y30889D01*
X20334Y30798D01*
X20321Y30700D01*
X20334Y30602D01*
X20372Y30511D01*
X20432Y30432D01*
X20511Y30372D01*
X20602Y30334D01*
X20700Y30321D01*
X20798Y30334D01*
X20889Y30372D01*
X20968Y30432D01*
X21028Y30511D01*
X21066Y30602D01*
X21079Y30700D01*
X21066Y30798D01*
X21028Y30889D01*
X20968Y30968D01*
X20889Y31028D01*
X20798Y31066D01*
X20700Y31079D01*
D02*
G37*
G36*
X19700D02*
X19602Y31066D01*
X19511Y31028D01*
X19432Y30968D01*
X19372Y30889D01*
X19334Y30798D01*
X19321Y30700D01*
X19334Y30602D01*
X19372Y30511D01*
X19432Y30432D01*
X19511Y30372D01*
X19602Y30334D01*
X19700Y30321D01*
X19798Y30334D01*
X19889Y30372D01*
X19968Y30432D01*
X20028Y30511D01*
X20066Y30602D01*
X20079Y30700D01*
X20066Y30798D01*
X20028Y30889D01*
X19968Y30968D01*
X19889Y31028D01*
X19798Y31066D01*
X19700Y31079D01*
D02*
G37*
G36*
X16650D02*
X16552Y31066D01*
X16461Y31028D01*
X16382Y30968D01*
X16322Y30889D01*
X16284Y30798D01*
X16271Y30700D01*
X16284Y30602D01*
X16322Y30511D01*
X16382Y30432D01*
X16461Y30372D01*
X16552Y30334D01*
X16650Y30321D01*
X16748Y30334D01*
X16839Y30372D01*
X16918Y30432D01*
X16978Y30511D01*
X17016Y30602D01*
X17029Y30700D01*
X17016Y30798D01*
X16978Y30889D01*
X16918Y30968D01*
X16839Y31028D01*
X16748Y31066D01*
X16650Y31079D01*
D02*
G37*
G36*
X15650D02*
X15552Y31066D01*
X15461Y31028D01*
X15382Y30968D01*
X15322Y30889D01*
X15284Y30798D01*
X15271Y30700D01*
X15284Y30602D01*
X15322Y30511D01*
X15382Y30432D01*
X15461Y30372D01*
X15552Y30334D01*
X15650Y30321D01*
X15748Y30334D01*
X15839Y30372D01*
X15918Y30432D01*
X15978Y30511D01*
X16016Y30602D01*
X16029Y30700D01*
X16016Y30798D01*
X15978Y30889D01*
X15918Y30968D01*
X15839Y31028D01*
X15748Y31066D01*
X15650Y31079D01*
D02*
G37*
G36*
X13650D02*
X13552Y31066D01*
X13461Y31028D01*
X13382Y30968D01*
X13322Y30889D01*
X13284Y30798D01*
X13271Y30700D01*
X13284Y30602D01*
X13322Y30511D01*
X13382Y30432D01*
X13461Y30372D01*
X13552Y30334D01*
X13650Y30321D01*
X13748Y30334D01*
X13839Y30372D01*
X13918Y30432D01*
X13978Y30511D01*
X14016Y30602D01*
X14029Y30700D01*
X14016Y30798D01*
X13978Y30889D01*
X13918Y30968D01*
X13839Y31028D01*
X13748Y31066D01*
X13650Y31079D01*
D02*
G37*
G36*
X12650D02*
X12552Y31066D01*
X12461Y31028D01*
X12382Y30968D01*
X12322Y30889D01*
X12284Y30798D01*
X12271Y30700D01*
X12284Y30602D01*
X12322Y30511D01*
X12382Y30432D01*
X12461Y30372D01*
X12552Y30334D01*
X12650Y30321D01*
X12748Y30334D01*
X12839Y30372D01*
X12918Y30432D01*
X12978Y30511D01*
X13016Y30602D01*
X13029Y30700D01*
X13016Y30798D01*
X12978Y30889D01*
X12918Y30968D01*
X12839Y31028D01*
X12748Y31066D01*
X12650Y31079D01*
D02*
G37*
G36*
X38169Y31092D02*
X38018Y31077D01*
X37873Y31033D01*
X37740Y30961D01*
X37623Y30865D01*
X37526Y30748D01*
X37455Y30615D01*
X37411Y30470D01*
X37396Y30319D01*
X37411Y30168D01*
X37455Y30023D01*
X37526Y29890D01*
X37623Y29773D01*
X37740Y29676D01*
X37873Y29605D01*
X38018Y29561D01*
X38169Y29546D01*
X38320Y29561D01*
X38465Y29605D01*
X38598Y29676D01*
X38715Y29773D01*
X38811Y29890D01*
X38883Y30023D01*
X38927Y30168D01*
X38942Y30319D01*
X38927Y30470D01*
X38883Y30615D01*
X38811Y30748D01*
X38715Y30865D01*
X38598Y30961D01*
X38465Y31033D01*
X38320Y31077D01*
X38169Y31092D01*
D02*
G37*
G36*
X1181D02*
X1030Y31077D01*
X885Y31033D01*
X752Y30961D01*
X635Y30865D01*
X539Y30748D01*
X467Y30615D01*
X423Y30470D01*
X408Y30319D01*
X423Y30168D01*
X467Y30023D01*
X539Y29890D01*
X635Y29773D01*
X752Y29676D01*
X885Y29605D01*
X1030Y29561D01*
X1181Y29546D01*
X1332Y29561D01*
X1477Y29605D01*
X1610Y29676D01*
X1727Y29773D01*
X1824Y29890D01*
X1895Y30023D01*
X1939Y30168D01*
X1954Y30319D01*
X1939Y30470D01*
X1895Y30615D01*
X1824Y30748D01*
X1727Y30865D01*
X1610Y30961D01*
X1477Y31033D01*
X1332Y31077D01*
X1181Y31092D01*
D02*
G37*
G36*
X36587Y29219D02*
X36505Y29208D01*
X36428Y29176D01*
X36362Y29126D01*
X36311Y29059D01*
X36279Y28983D01*
X36268Y28900D01*
X36279Y28817D01*
X36311Y28741D01*
X36362Y28674D01*
X36428Y28624D01*
X36505Y28592D01*
X36587Y28581D01*
X36670Y28592D01*
X36747Y28624D01*
X36813Y28674D01*
X36864Y28741D01*
X36895Y28817D01*
X36906Y28900D01*
X36895Y28983D01*
X36864Y29059D01*
X36813Y29126D01*
X36747Y29176D01*
X36670Y29208D01*
X36587Y29219D01*
D02*
G37*
G36*
X35800D02*
X35717Y29208D01*
X35641Y29176D01*
X35574Y29126D01*
X35524Y29059D01*
X35492Y28983D01*
X35481Y28900D01*
X35492Y28817D01*
X35524Y28741D01*
X35574Y28674D01*
X35641Y28624D01*
X35717Y28592D01*
X35800Y28581D01*
X35883Y28592D01*
X35959Y28624D01*
X36026Y28674D01*
X36076Y28741D01*
X36108Y28817D01*
X36119Y28900D01*
X36108Y28983D01*
X36076Y29059D01*
X36026Y29126D01*
X35959Y29176D01*
X35883Y29208D01*
X35800Y29219D01*
D02*
G37*
G36*
X35013D02*
X34930Y29208D01*
X34853Y29176D01*
X34787Y29126D01*
X34736Y29059D01*
X34705Y28983D01*
X34694Y28900D01*
X34705Y28817D01*
X34736Y28741D01*
X34787Y28674D01*
X34853Y28624D01*
X34930Y28592D01*
X35013Y28581D01*
X35095Y28592D01*
X35172Y28624D01*
X35238Y28674D01*
X35289Y28741D01*
X35321Y28817D01*
X35332Y28900D01*
X35321Y28983D01*
X35289Y29059D01*
X35238Y29126D01*
X35172Y29176D01*
X35095Y29208D01*
X35013Y29219D01*
D02*
G37*
G36*
X39125Y27925D02*
X38375D01*
Y27175D01*
X39125D01*
Y27925D01*
D02*
G37*
G36*
X30867Y25011D02*
X30793Y24996D01*
X30730Y24954D01*
X30727Y24950D01*
X30725Y24949D01*
X30722Y24949D01*
X30716Y24948D01*
X25223D01*
X25220Y24948D01*
X25216Y24949D01*
X25214Y24950D01*
X25212Y24952D01*
X25149Y24994D01*
X25075Y25009D01*
X25001Y24994D01*
X24938Y24952D01*
X24896Y24889D01*
X24881Y24815D01*
X24896Y24741D01*
X24938Y24678D01*
X25001Y24636D01*
X25075Y24622D01*
X25149Y24636D01*
X25212Y24678D01*
X25214Y24681D01*
X25216Y24682D01*
X25219Y24682D01*
X25225Y24683D01*
X30721D01*
X30724Y24682D01*
X30728Y24682D01*
X30730Y24681D01*
X30730Y24680D01*
X30793Y24638D01*
X30867Y24624D01*
X30941Y24638D01*
X31004Y24680D01*
X31046Y24743D01*
X31061Y24817D01*
X31046Y24891D01*
X31004Y24954D01*
X30941Y24996D01*
X30867Y25011D01*
D02*
G37*
G36*
X21994Y31076D02*
X21992Y31075D01*
X21325D01*
Y30325D01*
X21992D01*
X21994Y30324D01*
X21996Y30325D01*
X22075D01*
Y30398D01*
X22077Y30415D01*
X22079Y30420D01*
X22083Y30425D01*
X22090Y30432D01*
X22105Y30440D01*
X22127Y30449D01*
X22158Y30457D01*
X22196Y30463D01*
X22223Y30465D01*
X27953D01*
X28365Y30053D01*
Y28250D01*
X28383Y28160D01*
X28434Y28084D01*
X29034Y27484D01*
X29110Y27433D01*
X29200Y27415D01*
X32203D01*
X32474Y27145D01*
Y25044D01*
X32492Y24954D01*
X32542Y24878D01*
X32619Y24827D01*
X32708Y24810D01*
X32798Y24827D01*
X32874Y24878D01*
X32925Y24954D01*
X32943Y25044D01*
Y27242D01*
X32925Y27331D01*
X32874Y27408D01*
X32466Y27816D01*
X32390Y27867D01*
X32300Y27885D01*
X29297D01*
X28835Y28347D01*
Y30150D01*
X28817Y30240D01*
X28766Y30316D01*
X28766Y30316D01*
X28216Y30866D01*
X28140Y30917D01*
X28050Y30935D01*
X22223D01*
X22196Y30937D01*
X22158Y30943D01*
X22127Y30951D01*
X22105Y30960D01*
X22090Y30968D01*
X22083Y30975D01*
X22079Y30980D01*
X22077Y30985D01*
X22075Y31002D01*
Y31075D01*
X21996D01*
X21994Y31076D01*
D02*
G37*
G36*
X15650Y26935D02*
X15560Y26917D01*
X15484Y26866D01*
X15046Y26428D01*
X14996Y26352D01*
X14978Y26262D01*
Y24815D01*
X14996Y24726D01*
X15046Y24650D01*
X15122Y24599D01*
X15212Y24581D01*
X15302Y24599D01*
X15378Y24650D01*
X15429Y24726D01*
X15447Y24815D01*
Y26165D01*
X15816Y26534D01*
X15867Y26610D01*
X15885Y26700D01*
X15867Y26790D01*
X15816Y26866D01*
X15740Y26917D01*
X15650Y26935D01*
D02*
G37*
G36*
X38575Y24392D02*
X37825D01*
Y23917D01*
X38575D01*
Y24392D01*
D02*
G37*
G36*
X37354Y24012D02*
X37284Y23998D01*
X37225Y23958D01*
X37185Y23899D01*
X37172Y23830D01*
X37185Y23760D01*
X37225Y23701D01*
X37284Y23662D01*
X37354Y23648D01*
X37423Y23662D01*
X37482Y23701D01*
X37522Y23760D01*
X37535Y23830D01*
X37522Y23899D01*
X37482Y23958D01*
X37423Y23998D01*
X37354Y24012D01*
D02*
G37*
G36*
X23450Y25885D02*
X23360Y25867D01*
X23284Y25816D01*
X23233Y25740D01*
X23215Y25650D01*
Y24150D01*
X23233Y24060D01*
X23284Y23984D01*
X23734Y23534D01*
X23810Y23483D01*
X23900Y23465D01*
X26193D01*
X26219Y23415D01*
X26206Y23350D01*
X26221Y23276D01*
X26243Y23243D01*
X26207Y23207D01*
X26174Y23229D01*
X26100Y23244D01*
X26026Y23229D01*
X25963Y23187D01*
X25921Y23124D01*
X25906Y23050D01*
X25921Y22976D01*
X25963Y22913D01*
X25966Y22911D01*
X25966Y22909D01*
X25967Y22906D01*
X25967Y22900D01*
Y18950D01*
X25978Y18899D01*
X26006Y18856D01*
X28217Y16645D01*
Y16598D01*
X28217Y16595D01*
X28216Y16591D01*
X28216Y16589D01*
X28213Y16587D01*
X28171Y16524D01*
X28156Y16450D01*
X28171Y16376D01*
X28213Y16313D01*
X28276Y16271D01*
X28350Y16256D01*
X28424Y16271D01*
X28487Y16313D01*
X28529Y16376D01*
X28533Y16397D01*
X28588Y16417D01*
X28650Y16405D01*
X28724Y16420D01*
X28787Y16462D01*
X28813D01*
X28876Y16420D01*
X28950Y16405D01*
X29012Y16417D01*
X29067Y16397D01*
X29071Y16376D01*
X29113Y16313D01*
X29176Y16271D01*
X29250Y16256D01*
X29317Y16270D01*
X29345Y16260D01*
X29367Y16248D01*
Y13233D01*
X29378Y13182D01*
X29406Y13139D01*
X29685Y12861D01*
X29687Y12858D01*
X29689Y12855D01*
X29690Y12853D01*
X29689Y12850D01*
X29704Y12776D01*
X29746Y12713D01*
X29809Y12671D01*
X29883Y12656D01*
X29957Y12671D01*
X30020Y12713D01*
X30062Y12776D01*
X30077Y12850D01*
X30062Y12924D01*
X30020Y12987D01*
X29957Y13029D01*
X29883Y13044D01*
X29880Y13043D01*
X29878Y13044D01*
X29876Y13046D01*
X29871Y13050D01*
X29633Y13288D01*
Y15465D01*
X29683Y15480D01*
X29684Y15478D01*
X29760Y15427D01*
X29850Y15409D01*
X30200D01*
X30290Y15427D01*
X30366Y15478D01*
X30666Y15778D01*
X30717Y15854D01*
X30735Y15944D01*
Y22471D01*
X30717Y22561D01*
X30666Y22637D01*
X30366Y22937D01*
X30290Y22988D01*
X30200Y23005D01*
X30110Y22988D01*
X30034Y22937D01*
X29584Y22487D01*
X29533Y22411D01*
X29515Y22321D01*
Y21700D01*
X29533Y21610D01*
X29584Y21534D01*
X29660Y21483D01*
X29750Y21465D01*
X29840Y21483D01*
X29916Y21534D01*
X29967Y21610D01*
X29985Y21700D01*
Y22224D01*
X30200Y22439D01*
X30265Y22374D01*
Y16041D01*
X30103Y15878D01*
X29850D01*
X29760Y15860D01*
X29684Y15810D01*
X29683Y15807D01*
X29633Y15822D01*
Y18252D01*
X29633Y18255D01*
X29634Y18259D01*
X29634Y18261D01*
X29637Y18263D01*
X29679Y18326D01*
X29694Y18400D01*
X29679Y18474D01*
X29637Y18537D01*
X29574Y18579D01*
X29500Y18594D01*
X29426Y18579D01*
X29363Y18537D01*
X29321Y18474D01*
X29306Y18400D01*
X29321Y18326D01*
X29363Y18263D01*
X29366Y18261D01*
X29366Y18259D01*
X29367Y18256D01*
X29367Y18250D01*
Y16883D01*
X29317Y16863D01*
X29243Y16937D01*
Y22655D01*
X29442Y22854D01*
X29443Y22855D01*
X29447Y22858D01*
X29456Y22866D01*
X29459Y22867D01*
X29460Y22868D01*
X29461Y22868D01*
X29461Y22868D01*
X29474Y22871D01*
X29537Y22913D01*
X29579Y22976D01*
X29594Y23050D01*
X29579Y23124D01*
X29537Y23187D01*
X29474Y23229D01*
X29400Y23244D01*
X29326Y23229D01*
X29263Y23187D01*
X29221Y23124D01*
X29206Y23050D01*
X29212Y23023D01*
X29191Y23005D01*
X29139Y23025D01*
X29129Y23074D01*
X29087Y23137D01*
X29024Y23179D01*
X28950Y23194D01*
X28876Y23179D01*
X28813Y23137D01*
X28771Y23074D01*
X28756Y23000D01*
X28771Y22926D01*
X28813Y22863D01*
X28816Y22861D01*
X28816Y22859D01*
X28817Y22856D01*
X28817Y22850D01*
Y16917D01*
X28799Y16910D01*
X28767Y16908D01*
X28744Y16944D01*
X26533Y19155D01*
Y23202D01*
X26533Y23205D01*
X26534Y23209D01*
X26534Y23211D01*
X26537Y23213D01*
X26579Y23276D01*
X26594Y23350D01*
X26581Y23415D01*
X26607Y23465D01*
X33681D01*
X33770Y23483D01*
X33847Y23534D01*
X34066Y23753D01*
X34117Y23830D01*
X34135Y23919D01*
X34117Y24009D01*
X34066Y24085D01*
X33990Y24136D01*
X33900Y24154D01*
X33810Y24136D01*
X33734Y24085D01*
X33584Y23935D01*
X23997D01*
X23685Y24247D01*
Y25650D01*
X23667Y25740D01*
X23616Y25816D01*
X23540Y25867D01*
X23450Y25885D01*
D02*
G37*
G36*
X37354Y22437D02*
X37284Y22423D01*
X37225Y22383D01*
X37185Y22324D01*
X37172Y22255D01*
X37185Y22185D01*
X37225Y22126D01*
X37284Y22087D01*
X37354Y22073D01*
X37423Y22087D01*
X37482Y22126D01*
X37522Y22185D01*
X37535Y22255D01*
X37522Y22324D01*
X37482Y22383D01*
X37423Y22423D01*
X37354Y22437D01*
D02*
G37*
G36*
X38575Y22167D02*
X37825D01*
Y21693D01*
X38575D01*
Y22167D01*
D02*
G37*
G36*
X23900Y21694D02*
X23826Y21679D01*
X23763Y21637D01*
X23721Y21574D01*
X23709Y21516D01*
X23688Y21493D01*
X23659Y21482D01*
X23600Y21494D01*
X23526Y21479D01*
X23463Y21437D01*
X23421Y21374D01*
X23406Y21300D01*
X23421Y21226D01*
X23463Y21163D01*
X23466Y21161D01*
X23466Y21159D01*
X23467Y21156D01*
X23467Y21150D01*
Y19148D01*
X23467Y19145D01*
X23466Y19141D01*
X23466Y19139D01*
X23463Y19137D01*
X23421Y19074D01*
X23406Y19000D01*
X23421Y18926D01*
X23463Y18863D01*
X23526Y18821D01*
X23600Y18806D01*
X23674Y18821D01*
X23737Y18863D01*
X23779Y18926D01*
X23794Y19000D01*
X23779Y19074D01*
X23737Y19137D01*
X23734Y19139D01*
X23734Y19141D01*
X23733Y19144D01*
X23733Y19150D01*
Y20033D01*
X23751Y20040D01*
X23783Y20042D01*
X23806Y20006D01*
X23967Y19845D01*
Y18898D01*
X23967Y18895D01*
X23966Y18891D01*
X23966Y18889D01*
X23963Y18887D01*
X23921Y18824D01*
X23906Y18750D01*
X23921Y18676D01*
X23963Y18613D01*
X24026Y18571D01*
X24100Y18556D01*
X24174Y18571D01*
X24237Y18613D01*
X24279Y18676D01*
X24294Y18750D01*
X24279Y18824D01*
X24237Y18887D01*
X24234Y18889D01*
X24234Y18891D01*
X24233Y18894D01*
X24233Y18900D01*
Y19900D01*
X24222Y19951D01*
X24194Y19994D01*
X24033Y20155D01*
Y21352D01*
X24033Y21355D01*
X24034Y21359D01*
X24034Y21361D01*
X24037Y21363D01*
X24079Y21426D01*
X24094Y21500D01*
X24079Y21574D01*
X24037Y21637D01*
X23974Y21679D01*
X23900Y21694D01*
D02*
G37*
G36*
X1150Y21257D02*
X1001Y21237D01*
X861Y21179D01*
X742Y21088D01*
X650Y20968D01*
X593Y20829D01*
X573Y20680D01*
X593Y20530D01*
X650Y20391D01*
X742Y20271D01*
X861Y20180D01*
X1001Y20122D01*
X1150Y20102D01*
X1299Y20122D01*
X1439Y20180D01*
X1558Y20271D01*
X1650Y20391D01*
X1707Y20530D01*
X1727Y20680D01*
X1707Y20829D01*
X1650Y20968D01*
X1558Y21088D01*
X1439Y21179D01*
X1299Y21237D01*
X1150Y21257D01*
D02*
G37*
G36*
X12250Y22085D02*
X12160Y22067D01*
X12084Y22016D01*
X12033Y21940D01*
X12015Y21850D01*
Y20000D01*
X12033Y19910D01*
X12084Y19834D01*
X12160Y19783D01*
X12250Y19765D01*
X12340Y19783D01*
X12416Y19834D01*
X12467Y19910D01*
X12485Y20000D01*
Y21850D01*
X12467Y21940D01*
X12416Y22016D01*
X12340Y22067D01*
X12250Y22085D01*
D02*
G37*
G36*
X16450Y24154D02*
X16360Y24136D01*
X16284Y24085D01*
X16233Y24009D01*
X16215Y23919D01*
Y20297D01*
X15753Y19835D01*
X13700D01*
X13610Y19817D01*
X13534Y19766D01*
X13483Y19690D01*
X13465Y19600D01*
X13483Y19510D01*
X13534Y19434D01*
X13610Y19383D01*
X13700Y19365D01*
X15850D01*
X15940Y19383D01*
X16016Y19434D01*
X16616Y20034D01*
X16616Y20034D01*
X16667Y20110D01*
X16685Y20200D01*
X16685Y20200D01*
Y23919D01*
X16667Y24009D01*
X16616Y24085D01*
X16540Y24136D01*
X16450Y24154D01*
D02*
G37*
G36*
X38575Y19650D02*
X37825D01*
Y19175D01*
X38575D01*
Y19650D01*
D02*
G37*
G36*
X37354Y19269D02*
X37284Y19255D01*
X37225Y19216D01*
X37185Y19157D01*
X37172Y19087D01*
X37185Y19018D01*
X37225Y18959D01*
X37284Y18919D01*
X37354Y18905D01*
X37423Y18919D01*
X37482Y18959D01*
X37522Y19018D01*
X37535Y19087D01*
X37522Y19157D01*
X37482Y19216D01*
X37423Y19255D01*
X37354Y19269D01*
D02*
G37*
G36*
X9750Y23785D02*
X9660Y23767D01*
X9584Y23716D01*
X9533Y23640D01*
X9515Y23550D01*
Y19400D01*
X9533Y19310D01*
X9584Y19234D01*
X10584Y18234D01*
X10584Y18234D01*
X10660Y18183D01*
X10750Y18165D01*
X10750Y18165D01*
X14300D01*
X14390Y18183D01*
X14466Y18234D01*
X14517Y18310D01*
X14535Y18400D01*
X14517Y18490D01*
X14466Y18566D01*
X14390Y18617D01*
X14300Y18635D01*
X10847D01*
X9985Y19497D01*
Y23550D01*
X9967Y23640D01*
X9916Y23716D01*
X9840Y23767D01*
X9750Y23785D01*
D02*
G37*
G36*
X1150Y19288D02*
X1001Y19268D01*
X861Y19211D01*
X742Y19119D01*
X650Y19000D01*
X593Y18860D01*
X573Y18711D01*
X593Y18562D01*
X650Y18422D01*
X742Y18303D01*
X861Y18211D01*
X1001Y18154D01*
X1150Y18134D01*
X1299Y18154D01*
X1439Y18211D01*
X1558Y18303D01*
X1650Y18422D01*
X1707Y18562D01*
X1727Y18711D01*
X1707Y18860D01*
X1650Y19000D01*
X1558Y19119D01*
X1439Y19211D01*
X1299Y19268D01*
X1150Y19288D01*
D02*
G37*
G36*
X20650Y18579D02*
X20552Y18566D01*
X20461Y18528D01*
X20382Y18468D01*
X20322Y18389D01*
X20284Y18298D01*
X20271Y18200D01*
X20284Y18102D01*
X20322Y18011D01*
X20382Y17932D01*
X20461Y17872D01*
X20552Y17834D01*
X20650Y17821D01*
X20748Y17834D01*
X20839Y17872D01*
X20918Y17932D01*
X20978Y18011D01*
X21016Y18102D01*
X21029Y18200D01*
X21016Y18298D01*
X20978Y18389D01*
X20918Y18468D01*
X20839Y18528D01*
X20748Y18566D01*
X20650Y18579D01*
D02*
G37*
G36*
X19650D02*
X19552Y18566D01*
X19461Y18528D01*
X19382Y18468D01*
X19322Y18389D01*
X19284Y18298D01*
X19271Y18200D01*
X19284Y18102D01*
X19322Y18011D01*
X19382Y17932D01*
X19461Y17872D01*
X19552Y17834D01*
X19650Y17821D01*
X19748Y17834D01*
X19839Y17872D01*
X19918Y17932D01*
X19978Y18011D01*
X20016Y18102D01*
X20029Y18200D01*
X20016Y18298D01*
X19978Y18389D01*
X19918Y18468D01*
X19839Y18528D01*
X19748Y18566D01*
X19650Y18579D01*
D02*
G37*
G36*
X37354Y17695D02*
X37284Y17681D01*
X37225Y17641D01*
X37185Y17582D01*
X37172Y17513D01*
X37185Y17443D01*
X37225Y17384D01*
X37284Y17345D01*
X37354Y17331D01*
X37423Y17345D01*
X37482Y17384D01*
X37522Y17443D01*
X37535Y17513D01*
X37522Y17582D01*
X37482Y17641D01*
X37423Y17681D01*
X37354Y17695D01*
D02*
G37*
G36*
X38575Y17425D02*
X37825D01*
Y16950D01*
X38575D01*
Y17425D01*
D02*
G37*
G36*
X20650Y17579D02*
X20552Y17566D01*
X20461Y17528D01*
X20382Y17468D01*
X20322Y17389D01*
X20284Y17298D01*
X20271Y17200D01*
X20284Y17102D01*
X20322Y17011D01*
X20382Y16932D01*
X20461Y16872D01*
X20552Y16834D01*
X20650Y16821D01*
X20748Y16834D01*
X20839Y16872D01*
X20918Y16932D01*
X20978Y17011D01*
X21016Y17102D01*
X21029Y17200D01*
X21016Y17298D01*
X20978Y17389D01*
X20918Y17468D01*
X20839Y17528D01*
X20748Y17566D01*
X20650Y17579D01*
D02*
G37*
G36*
X19650D02*
X19552Y17566D01*
X19461Y17528D01*
X19382Y17468D01*
X19322Y17389D01*
X19284Y17298D01*
X19271Y17200D01*
X19284Y17102D01*
X19322Y17011D01*
X19382Y16932D01*
X19461Y16872D01*
X19552Y16834D01*
X19650Y16821D01*
X19748Y16834D01*
X19839Y16872D01*
X19918Y16932D01*
X19978Y17011D01*
X20016Y17102D01*
X20029Y17200D01*
X20016Y17298D01*
X19978Y17389D01*
X19918Y17468D01*
X19839Y17528D01*
X19748Y17566D01*
X19650Y17579D01*
D02*
G37*
G36*
X1150Y17320D02*
X1001Y17300D01*
X861Y17242D01*
X742Y17151D01*
X650Y17031D01*
X593Y16892D01*
X573Y16743D01*
X593Y16593D01*
X650Y16454D01*
X742Y16334D01*
X861Y16243D01*
X1001Y16185D01*
X1150Y16165D01*
X1299Y16185D01*
X1439Y16243D01*
X1558Y16334D01*
X1650Y16454D01*
X1707Y16593D01*
X1727Y16743D01*
X1707Y16892D01*
X1650Y17031D01*
X1558Y17151D01*
X1439Y17242D01*
X1299Y17300D01*
X1150Y17320D01*
D02*
G37*
G36*
X20650Y16579D02*
X20552Y16566D01*
X20461Y16528D01*
X20382Y16468D01*
X20322Y16389D01*
X20284Y16298D01*
X20271Y16200D01*
X20284Y16102D01*
X20322Y16011D01*
X20382Y15932D01*
X20461Y15872D01*
X20552Y15834D01*
X20650Y15821D01*
X20748Y15834D01*
X20839Y15872D01*
X20918Y15932D01*
X20978Y16011D01*
X21016Y16102D01*
X21029Y16200D01*
X21016Y16298D01*
X20978Y16389D01*
X20918Y16468D01*
X20839Y16528D01*
X20748Y16566D01*
X20650Y16579D01*
D02*
G37*
G36*
X19650D02*
X19552Y16566D01*
X19461Y16528D01*
X19382Y16468D01*
X19322Y16389D01*
X19284Y16298D01*
X19271Y16200D01*
X19284Y16102D01*
X19322Y16011D01*
X19382Y15932D01*
X19461Y15872D01*
X19552Y15834D01*
X19650Y15821D01*
X19748Y15834D01*
X19839Y15872D01*
X19918Y15932D01*
X19978Y16011D01*
X20016Y16102D01*
X20029Y16200D01*
X20016Y16298D01*
X19978Y16389D01*
X19918Y16468D01*
X19839Y16528D01*
X19748Y16566D01*
X19650Y16579D01*
D02*
G37*
G36*
X3000Y15729D02*
X2902Y15716D01*
X2811Y15678D01*
X2732Y15618D01*
X2672Y15539D01*
X2634Y15448D01*
X2621Y15350D01*
X2634Y15252D01*
X2672Y15161D01*
X2732Y15082D01*
X2811Y15022D01*
X2902Y14984D01*
X3000Y14971D01*
X3098Y14984D01*
X3189Y15022D01*
X3268Y15082D01*
X3328Y15161D01*
X3366Y15252D01*
X3379Y15350D01*
X3366Y15448D01*
X3328Y15539D01*
X3268Y15618D01*
X3189Y15678D01*
X3098Y15716D01*
X3000Y15729D01*
D02*
G37*
G36*
X20650Y15579D02*
X20552Y15566D01*
X20461Y15528D01*
X20382Y15468D01*
X20322Y15389D01*
X20284Y15298D01*
X20271Y15200D01*
X20284Y15102D01*
X20322Y15011D01*
X20382Y14932D01*
X20461Y14872D01*
X20552Y14834D01*
X20650Y14821D01*
X20748Y14834D01*
X20839Y14872D01*
X20918Y14932D01*
X20978Y15011D01*
X21016Y15102D01*
X21029Y15200D01*
X21016Y15298D01*
X20978Y15389D01*
X20918Y15468D01*
X20839Y15528D01*
X20748Y15566D01*
X20650Y15579D01*
D02*
G37*
G36*
X19650D02*
X19552Y15566D01*
X19461Y15528D01*
X19382Y15468D01*
X19322Y15389D01*
X19284Y15298D01*
X19271Y15200D01*
X19284Y15102D01*
X19322Y15011D01*
X19382Y14932D01*
X19461Y14872D01*
X19552Y14834D01*
X19650Y14821D01*
X19748Y14834D01*
X19839Y14872D01*
X19918Y14932D01*
X19978Y15011D01*
X20016Y15102D01*
X20029Y15200D01*
X20016Y15298D01*
X19978Y15389D01*
X19918Y15468D01*
X19839Y15528D01*
X19748Y15566D01*
X19650Y15579D01*
D02*
G37*
G36*
X1150Y15351D02*
X1001Y15331D01*
X861Y15274D01*
X742Y15182D01*
X650Y15063D01*
X593Y14923D01*
X573Y14774D01*
X593Y14625D01*
X650Y14485D01*
X742Y14366D01*
X861Y14274D01*
X1001Y14217D01*
X1150Y14197D01*
X1299Y14217D01*
X1439Y14274D01*
X1558Y14366D01*
X1650Y14485D01*
X1707Y14625D01*
X1727Y14774D01*
X1707Y14923D01*
X1650Y15063D01*
X1558Y15182D01*
X1439Y15274D01*
X1299Y15331D01*
X1150Y15351D01*
D02*
G37*
G36*
X3000Y14729D02*
X2902Y14716D01*
X2811Y14678D01*
X2732Y14618D01*
X2672Y14539D01*
X2634Y14448D01*
X2621Y14350D01*
X2634Y14252D01*
X2672Y14161D01*
X2732Y14082D01*
X2811Y14022D01*
X2902Y13984D01*
X3000Y13971D01*
X3098Y13984D01*
X3189Y14022D01*
X3268Y14082D01*
X3328Y14161D01*
X3366Y14252D01*
X3379Y14350D01*
X3366Y14448D01*
X3328Y14539D01*
X3268Y14618D01*
X3189Y14678D01*
X3098Y14716D01*
X3000Y14729D01*
D02*
G37*
G36*
X21025Y14575D02*
X20275D01*
Y13825D01*
X21025D01*
Y14575D01*
D02*
G37*
G36*
X19650Y14579D02*
X19552Y14566D01*
X19461Y14528D01*
X19382Y14468D01*
X19322Y14389D01*
X19284Y14298D01*
X19271Y14200D01*
X19284Y14102D01*
X19322Y14011D01*
X19382Y13932D01*
X19461Y13872D01*
X19552Y13834D01*
X19650Y13821D01*
X19748Y13834D01*
X19839Y13872D01*
X19918Y13932D01*
X19978Y14011D01*
X20016Y14102D01*
X20029Y14200D01*
X20016Y14298D01*
X19978Y14389D01*
X19918Y14468D01*
X19839Y14528D01*
X19748Y14566D01*
X19650Y14579D01*
D02*
G37*
G36*
X3000Y13729D02*
X2902Y13716D01*
X2811Y13678D01*
X2732Y13618D01*
X2672Y13539D01*
X2634Y13448D01*
X2621Y13350D01*
X2634Y13252D01*
X2672Y13161D01*
X2732Y13082D01*
X2811Y13022D01*
X2902Y12984D01*
X3000Y12971D01*
X3098Y12984D01*
X3189Y13022D01*
X3268Y13082D01*
X3328Y13161D01*
X3366Y13252D01*
X3379Y13350D01*
X3366Y13448D01*
X3328Y13539D01*
X3268Y13618D01*
X3189Y13678D01*
X3098Y13716D01*
X3000Y13729D01*
D02*
G37*
G36*
X1150Y13383D02*
X1001Y13363D01*
X861Y13305D01*
X742Y13214D01*
X650Y13094D01*
X593Y12955D01*
X573Y12806D01*
X593Y12656D01*
X650Y12517D01*
X742Y12397D01*
X861Y12306D01*
X1001Y12248D01*
X1150Y12228D01*
X1299Y12248D01*
X1439Y12306D01*
X1558Y12397D01*
X1650Y12517D01*
X1707Y12656D01*
X1727Y12806D01*
X1707Y12955D01*
X1650Y13094D01*
X1558Y13214D01*
X1439Y13305D01*
X1299Y13363D01*
X1150Y13383D01*
D02*
G37*
G36*
X3000Y12729D02*
X2902Y12716D01*
X2811Y12678D01*
X2732Y12618D01*
X2672Y12539D01*
X2634Y12448D01*
X2621Y12350D01*
X2634Y12252D01*
X2672Y12161D01*
X2732Y12082D01*
X2811Y12022D01*
X2902Y11984D01*
X3000Y11971D01*
X3098Y11984D01*
X3189Y12022D01*
X3268Y12082D01*
X3328Y12161D01*
X3366Y12252D01*
X3379Y12350D01*
X3366Y12448D01*
X3328Y12539D01*
X3268Y12618D01*
X3189Y12678D01*
X3098Y12716D01*
X3000Y12729D01*
D02*
G37*
G36*
Y11729D02*
X2902Y11716D01*
X2811Y11678D01*
X2732Y11618D01*
X2672Y11539D01*
X2634Y11448D01*
X2621Y11350D01*
X2634Y11252D01*
X2672Y11161D01*
X2732Y11082D01*
X2811Y11022D01*
X2902Y10984D01*
X3000Y10971D01*
X3098Y10984D01*
X3189Y11022D01*
X3268Y11082D01*
X3328Y11161D01*
X3366Y11252D01*
X3379Y11350D01*
X3366Y11448D01*
X3328Y11539D01*
X3268Y11618D01*
X3189Y11678D01*
X3098Y11716D01*
X3000Y11729D01*
D02*
G37*
G36*
X20025Y11275D02*
X19275D01*
Y10525D01*
X20025D01*
Y11275D01*
D02*
G37*
G36*
X20650Y11279D02*
X20552Y11266D01*
X20461Y11228D01*
X20382Y11168D01*
X20322Y11089D01*
X20284Y10998D01*
X20271Y10900D01*
X20284Y10802D01*
X20322Y10711D01*
X20382Y10632D01*
X20461Y10572D01*
X20552Y10534D01*
X20650Y10521D01*
X20748Y10534D01*
X20839Y10572D01*
X20918Y10632D01*
X20978Y10711D01*
X21016Y10802D01*
X21029Y10900D01*
X21016Y10998D01*
X20978Y11089D01*
X20918Y11168D01*
X20839Y11228D01*
X20748Y11266D01*
X20650Y11279D01*
D02*
G37*
G36*
X1150Y11414D02*
X1001Y11394D01*
X861Y11337D01*
X742Y11245D01*
X650Y11126D01*
X593Y10986D01*
X573Y10837D01*
X593Y10688D01*
X650Y10548D01*
X742Y10429D01*
X861Y10337D01*
X1001Y10280D01*
X1150Y10260D01*
X1299Y10280D01*
X1439Y10337D01*
X1558Y10429D01*
X1650Y10548D01*
X1707Y10688D01*
X1727Y10837D01*
X1707Y10986D01*
X1650Y11126D01*
X1558Y11245D01*
X1439Y11337D01*
X1299Y11394D01*
X1150Y11414D01*
D02*
G37*
G36*
X3000Y10729D02*
X2902Y10716D01*
X2811Y10678D01*
X2732Y10618D01*
X2672Y10539D01*
X2634Y10448D01*
X2621Y10350D01*
X2634Y10252D01*
X2672Y10161D01*
X2732Y10082D01*
X2811Y10022D01*
X2902Y9984D01*
X3000Y9971D01*
X3098Y9984D01*
X3189Y10022D01*
X3268Y10082D01*
X3328Y10161D01*
X3366Y10252D01*
X3379Y10350D01*
X3366Y10448D01*
X3328Y10539D01*
X3268Y10618D01*
X3189Y10678D01*
X3098Y10716D01*
X3000Y10729D01*
D02*
G37*
G36*
X20650Y10279D02*
X20552Y10266D01*
X20461Y10228D01*
X20382Y10168D01*
X20322Y10089D01*
X20284Y9998D01*
X20271Y9900D01*
X20284Y9802D01*
X20322Y9711D01*
X20382Y9632D01*
X20461Y9572D01*
X20552Y9534D01*
X20650Y9521D01*
X20748Y9534D01*
X20839Y9572D01*
X20918Y9632D01*
X20978Y9711D01*
X21016Y9802D01*
X21029Y9900D01*
X21016Y9998D01*
X20978Y10089D01*
X20918Y10168D01*
X20839Y10228D01*
X20748Y10266D01*
X20650Y10279D01*
D02*
G37*
G36*
X19650D02*
X19552Y10266D01*
X19461Y10228D01*
X19382Y10168D01*
X19322Y10089D01*
X19284Y9998D01*
X19271Y9900D01*
X19284Y9802D01*
X19322Y9711D01*
X19382Y9632D01*
X19461Y9572D01*
X19552Y9534D01*
X19650Y9521D01*
X19748Y9534D01*
X19839Y9572D01*
X19918Y9632D01*
X19978Y9711D01*
X20016Y9802D01*
X20029Y9900D01*
X20016Y9998D01*
X19978Y10089D01*
X19918Y10168D01*
X19839Y10228D01*
X19748Y10266D01*
X19650Y10279D01*
D02*
G37*
G36*
X3000Y9729D02*
X2902Y9716D01*
X2811Y9678D01*
X2732Y9618D01*
X2672Y9539D01*
X2634Y9448D01*
X2621Y9350D01*
X2634Y9252D01*
X2672Y9161D01*
X2732Y9082D01*
X2811Y9022D01*
X2902Y8984D01*
X3000Y8971D01*
X3098Y8984D01*
X3189Y9022D01*
X3268Y9082D01*
X3328Y9161D01*
X3366Y9252D01*
X3379Y9350D01*
X3366Y9448D01*
X3328Y9539D01*
X3268Y9618D01*
X3189Y9678D01*
X3098Y9716D01*
X3000Y9729D01*
D02*
G37*
G36*
X20650Y9279D02*
X20552Y9266D01*
X20461Y9228D01*
X20382Y9168D01*
X20322Y9089D01*
X20284Y8998D01*
X20271Y8900D01*
X20284Y8802D01*
X20322Y8711D01*
X20382Y8632D01*
X20461Y8572D01*
X20552Y8534D01*
X20650Y8521D01*
X20748Y8534D01*
X20839Y8572D01*
X20918Y8632D01*
X20978Y8711D01*
X21016Y8802D01*
X21029Y8900D01*
X21016Y8998D01*
X20978Y9089D01*
X20918Y9168D01*
X20839Y9228D01*
X20748Y9266D01*
X20650Y9279D01*
D02*
G37*
G36*
X19650D02*
X19552Y9266D01*
X19461Y9228D01*
X19382Y9168D01*
X19322Y9089D01*
X19284Y8998D01*
X19271Y8900D01*
X19284Y8802D01*
X19322Y8711D01*
X19382Y8632D01*
X19461Y8572D01*
X19552Y8534D01*
X19650Y8521D01*
X19748Y8534D01*
X19839Y8572D01*
X19918Y8632D01*
X19978Y8711D01*
X20016Y8802D01*
X20029Y8900D01*
X20016Y8998D01*
X19978Y9089D01*
X19918Y9168D01*
X19839Y9228D01*
X19748Y9266D01*
X19650Y9279D01*
D02*
G37*
G36*
X1150Y9446D02*
X1001Y9426D01*
X861Y9368D01*
X742Y9277D01*
X650Y9157D01*
X593Y9018D01*
X573Y8868D01*
X593Y8719D01*
X650Y8580D01*
X742Y8460D01*
X861Y8369D01*
X1001Y8311D01*
X1150Y8291D01*
X1299Y8311D01*
X1439Y8369D01*
X1558Y8460D01*
X1650Y8580D01*
X1707Y8719D01*
X1727Y8868D01*
X1707Y9018D01*
X1650Y9157D01*
X1558Y9277D01*
X1439Y9368D01*
X1299Y9426D01*
X1150Y9446D01*
D02*
G37*
G36*
X3000Y8729D02*
X2902Y8716D01*
X2811Y8678D01*
X2732Y8618D01*
X2672Y8539D01*
X2634Y8448D01*
X2621Y8350D01*
X2634Y8252D01*
X2672Y8161D01*
X2732Y8082D01*
X2811Y8022D01*
X2902Y7984D01*
X3000Y7971D01*
X3098Y7984D01*
X3189Y8022D01*
X3268Y8082D01*
X3328Y8161D01*
X3366Y8252D01*
X3379Y8350D01*
X3366Y8448D01*
X3328Y8539D01*
X3268Y8618D01*
X3189Y8678D01*
X3098Y8716D01*
X3000Y8729D01*
D02*
G37*
G36*
X25450Y7844D02*
X25376Y7829D01*
X25313Y7787D01*
X25311Y7784D01*
X25309Y7784D01*
X25306Y7783D01*
X25300Y7783D01*
X24048D01*
X24045Y7783D01*
X24041Y7784D01*
X24039Y7784D01*
X24037Y7787D01*
X23974Y7829D01*
X23900Y7844D01*
X23826Y7829D01*
X23763Y7787D01*
X23721Y7724D01*
X23706Y7650D01*
X23721Y7576D01*
X23763Y7513D01*
X23826Y7471D01*
X23900Y7456D01*
X23974Y7471D01*
X24037Y7513D01*
X24039Y7516D01*
X24041Y7516D01*
X24044Y7517D01*
X24050Y7517D01*
X25302D01*
X25305Y7517D01*
X25309Y7516D01*
X25311Y7516D01*
X25313Y7513D01*
X25376Y7471D01*
X25450Y7456D01*
X25524Y7471D01*
X25587Y7513D01*
X25629Y7576D01*
X25644Y7650D01*
X25629Y7724D01*
X25587Y7787D01*
X25524Y7829D01*
X25450Y7844D01*
D02*
G37*
G36*
X20650Y8279D02*
X20552Y8266D01*
X20461Y8228D01*
X20382Y8168D01*
X20322Y8089D01*
X20284Y7998D01*
X20271Y7900D01*
X20284Y7802D01*
X20322Y7711D01*
X20382Y7632D01*
X20461Y7572D01*
X20552Y7534D01*
X20650Y7521D01*
X20748Y7534D01*
X20839Y7572D01*
X20918Y7632D01*
X20978Y7711D01*
X21016Y7802D01*
X21029Y7900D01*
X21016Y7998D01*
X20978Y8089D01*
X20918Y8168D01*
X20839Y8228D01*
X20748Y8266D01*
X20650Y8279D01*
D02*
G37*
G36*
X19650D02*
X19552Y8266D01*
X19461Y8228D01*
X19382Y8168D01*
X19322Y8089D01*
X19284Y7998D01*
X19271Y7900D01*
X19284Y7802D01*
X19322Y7711D01*
X19382Y7632D01*
X19461Y7572D01*
X19552Y7534D01*
X19650Y7521D01*
X19748Y7534D01*
X19839Y7572D01*
X19918Y7632D01*
X19978Y7711D01*
X20016Y7802D01*
X20029Y7900D01*
X20016Y7998D01*
X19978Y8089D01*
X19918Y8168D01*
X19839Y8228D01*
X19748Y8266D01*
X19650Y8279D01*
D02*
G37*
G36*
X3000Y7729D02*
X2902Y7716D01*
X2811Y7678D01*
X2732Y7618D01*
X2672Y7539D01*
X2634Y7448D01*
X2621Y7350D01*
X2634Y7252D01*
X2672Y7161D01*
X2732Y7082D01*
X2811Y7022D01*
X2902Y6984D01*
X3000Y6971D01*
X3098Y6984D01*
X3189Y7022D01*
X3268Y7082D01*
X3328Y7161D01*
X3366Y7252D01*
X3379Y7350D01*
X3366Y7448D01*
X3328Y7539D01*
X3268Y7618D01*
X3189Y7678D01*
X3098Y7716D01*
X3000Y7729D01*
D02*
G37*
G36*
X20650Y7279D02*
X20552Y7266D01*
X20461Y7228D01*
X20382Y7168D01*
X20322Y7089D01*
X20284Y6998D01*
X20271Y6900D01*
X20284Y6802D01*
X20322Y6711D01*
X20382Y6632D01*
X20461Y6572D01*
X20552Y6534D01*
X20650Y6521D01*
X20748Y6534D01*
X20839Y6572D01*
X20918Y6632D01*
X20978Y6711D01*
X21016Y6802D01*
X21029Y6900D01*
X21016Y6998D01*
X20978Y7089D01*
X20918Y7168D01*
X20839Y7228D01*
X20748Y7266D01*
X20650Y7279D01*
D02*
G37*
G36*
X19650D02*
X19552Y7266D01*
X19461Y7228D01*
X19382Y7168D01*
X19322Y7089D01*
X19284Y6998D01*
X19271Y6900D01*
X19284Y6802D01*
X19322Y6711D01*
X19382Y6632D01*
X19461Y6572D01*
X19552Y6534D01*
X19650Y6521D01*
X19748Y6534D01*
X19839Y6572D01*
X19918Y6632D01*
X19978Y6711D01*
X20016Y6802D01*
X20029Y6900D01*
X20016Y6998D01*
X19978Y7089D01*
X19918Y7168D01*
X19839Y7228D01*
X19748Y7266D01*
X19650Y7279D01*
D02*
G37*
G36*
X1150Y7477D02*
X1001Y7457D01*
X861Y7400D01*
X742Y7308D01*
X650Y7189D01*
X593Y7049D01*
X573Y6900D01*
X593Y6751D01*
X650Y6611D01*
X742Y6492D01*
X861Y6400D01*
X1001Y6343D01*
X1150Y6323D01*
X1299Y6343D01*
X1439Y6400D01*
X1558Y6492D01*
X1650Y6611D01*
X1707Y6751D01*
X1727Y6900D01*
X1707Y7049D01*
X1650Y7189D01*
X1558Y7308D01*
X1439Y7400D01*
X1299Y7457D01*
X1150Y7477D01*
D02*
G37*
G36*
X3375Y6725D02*
X2625D01*
Y5975D01*
X3375D01*
Y6725D01*
D02*
G37*
G36*
X20650Y6279D02*
X20552Y6266D01*
X20461Y6228D01*
X20382Y6168D01*
X20322Y6089D01*
X20284Y5998D01*
X20271Y5900D01*
X20284Y5802D01*
X20322Y5711D01*
X20382Y5632D01*
X20461Y5572D01*
X20552Y5534D01*
X20650Y5521D01*
X20748Y5534D01*
X20839Y5572D01*
X20918Y5632D01*
X20978Y5711D01*
X21016Y5802D01*
X21029Y5900D01*
X21016Y5998D01*
X20978Y6089D01*
X20918Y6168D01*
X20839Y6228D01*
X20748Y6266D01*
X20650Y6279D01*
D02*
G37*
G36*
X19650D02*
X19552Y6266D01*
X19461Y6228D01*
X19382Y6168D01*
X19322Y6089D01*
X19284Y5998D01*
X19271Y5900D01*
X19284Y5802D01*
X19322Y5711D01*
X19382Y5632D01*
X19461Y5572D01*
X19552Y5534D01*
X19650Y5521D01*
X19748Y5534D01*
X19839Y5572D01*
X19918Y5632D01*
X19978Y5711D01*
X20016Y5802D01*
X20029Y5900D01*
X20016Y5998D01*
X19978Y6089D01*
X19918Y6168D01*
X19839Y6228D01*
X19748Y6266D01*
X19650Y6279D01*
D02*
G37*
G36*
X29883Y6994D02*
X29809Y6979D01*
X29746Y6937D01*
X29704Y6874D01*
X29689Y6800D01*
X29704Y6726D01*
X29746Y6663D01*
X29749Y6661D01*
X29749Y6659D01*
X29750Y6656D01*
X29751Y6650D01*
Y5398D01*
X29750Y5395D01*
X29749Y5391D01*
X29749Y5389D01*
X29746Y5387D01*
X29704Y5324D01*
X29689Y5250D01*
X29704Y5176D01*
X29746Y5113D01*
X29809Y5071D01*
X29883Y5056D01*
X29957Y5071D01*
X30020Y5113D01*
X30062Y5176D01*
X30077Y5250D01*
X30062Y5324D01*
X30020Y5387D01*
X30017Y5389D01*
X30017Y5391D01*
X30016Y5394D01*
X30016Y5400D01*
Y6652D01*
X30016Y6655D01*
X30017Y6659D01*
X30017Y6661D01*
X30020Y6663D01*
X30062Y6726D01*
X30077Y6800D01*
X30062Y6874D01*
X30020Y6937D01*
X29957Y6979D01*
X29883Y6994D01*
D02*
G37*
G36*
X32390Y5444D02*
X32316Y5429D01*
X32253Y5387D01*
X32251Y5384D01*
X32249Y5384D01*
X32246Y5383D01*
X32240Y5383D01*
X30700D01*
X30649Y5372D01*
X30606Y5344D01*
X30095Y4833D01*
X29255D01*
X28744Y5344D01*
X28701Y5372D01*
X28650Y5383D01*
X26291D01*
X26288Y5383D01*
X26284Y5384D01*
X26282Y5384D01*
X26280Y5387D01*
X26217Y5429D01*
X26143Y5444D01*
X26069Y5429D01*
X26006Y5387D01*
X25964Y5324D01*
X25949Y5250D01*
X25964Y5176D01*
X26006Y5113D01*
X26069Y5071D01*
X26143Y5056D01*
X26217Y5071D01*
X26280Y5113D01*
X26282Y5116D01*
X26284Y5116D01*
X26287Y5117D01*
X26293Y5117D01*
X28595D01*
X29106Y4606D01*
X29149Y4578D01*
X29200Y4567D01*
X30150D01*
X30201Y4578D01*
X30244Y4606D01*
X30755Y5117D01*
X32242D01*
X32245Y5117D01*
X32249Y5116D01*
X32251Y5116D01*
X32253Y5113D01*
X32316Y5071D01*
X32390Y5056D01*
X32464Y5071D01*
X32527Y5113D01*
X32569Y5176D01*
X32584Y5250D01*
X32569Y5324D01*
X32527Y5387D01*
X32464Y5429D01*
X32390Y5444D01*
D02*
G37*
G36*
X1150Y5509D02*
X1001Y5489D01*
X861Y5431D01*
X742Y5340D01*
X650Y5220D01*
X593Y5081D01*
X573Y4931D01*
X593Y4782D01*
X650Y4643D01*
X742Y4523D01*
X861Y4432D01*
X1001Y4374D01*
X1150Y4354D01*
X1299Y4374D01*
X1439Y4432D01*
X1558Y4523D01*
X1650Y4643D01*
X1707Y4782D01*
X1727Y4931D01*
X1707Y5081D01*
X1650Y5220D01*
X1558Y5340D01*
X1439Y5431D01*
X1299Y5489D01*
X1150Y5509D01*
D02*
G37*
G36*
X35800Y6394D02*
X35726Y6379D01*
X35663Y6337D01*
X35621Y6274D01*
X35606Y6200D01*
X35621Y6126D01*
X35663Y6063D01*
X35666Y6061D01*
X35666Y6059D01*
X35667Y6056D01*
X35667Y6050D01*
Y3398D01*
X35667Y3395D01*
X35666Y3391D01*
X35666Y3389D01*
X35663Y3387D01*
X35621Y3324D01*
X35606Y3250D01*
X35621Y3176D01*
X35663Y3113D01*
X35726Y3071D01*
X35800Y3056D01*
X35874Y3071D01*
X35937Y3113D01*
X35979Y3176D01*
X35994Y3250D01*
X35979Y3324D01*
X35937Y3387D01*
X35934Y3389D01*
X35934Y3391D01*
X35933Y3394D01*
X35933Y3400D01*
Y6052D01*
X35933Y6055D01*
X35934Y6059D01*
X35934Y6061D01*
X35937Y6063D01*
X35979Y6126D01*
X35994Y6200D01*
X35979Y6274D01*
X35937Y6337D01*
X35874Y6379D01*
X35800Y6394D01*
D02*
G37*
G36*
X1150Y3540D02*
X1001Y3520D01*
X861Y3463D01*
X742Y3371D01*
X650Y3252D01*
X593Y3112D01*
X573Y2963D01*
X593Y2814D01*
X650Y2674D01*
X742Y2555D01*
X861Y2463D01*
X1001Y2406D01*
X1150Y2386D01*
X1299Y2406D01*
X1439Y2463D01*
X1558Y2555D01*
X1650Y2674D01*
X1707Y2814D01*
X1727Y2963D01*
X1707Y3112D01*
X1650Y3252D01*
X1558Y3371D01*
X1439Y3463D01*
X1299Y3520D01*
X1150Y3540D01*
D02*
G37*
G36*
X22853Y6135D02*
X22763Y6117D01*
X22687Y6066D01*
X22636Y5990D01*
X22619Y5900D01*
Y3900D01*
X20944Y2226D01*
X20933Y2216D01*
X20916Y2204D01*
X20900Y2194D01*
X20887Y2187D01*
X20875Y2182D01*
X20866Y2179D01*
X20859Y2177D01*
X20850Y2179D01*
X20752Y2166D01*
X20661Y2128D01*
X20582Y2068D01*
X20522Y1989D01*
X20484Y1898D01*
X20471Y1800D01*
X20484Y1702D01*
X20522Y1611D01*
X20582Y1532D01*
X20661Y1472D01*
X20752Y1434D01*
X20850Y1421D01*
X20948Y1434D01*
X21039Y1472D01*
X21118Y1532D01*
X21178Y1611D01*
X21216Y1702D01*
X21229Y1800D01*
X21227Y1809D01*
X21229Y1816D01*
X21232Y1825D01*
X21237Y1837D01*
X21244Y1850D01*
X21254Y1866D01*
X21266Y1882D01*
X21279Y1898D01*
X23019Y3637D01*
X23019Y3637D01*
X23070Y3713D01*
X23088Y3803D01*
Y5900D01*
X23070Y5990D01*
X23019Y6066D01*
X22943Y6117D01*
X22853Y6135D01*
D02*
G37*
G36*
X19850Y2179D02*
X19752Y2166D01*
X19661Y2128D01*
X19582Y2068D01*
X19522Y1989D01*
X19484Y1898D01*
X19471Y1800D01*
X19484Y1702D01*
X19522Y1611D01*
X19582Y1532D01*
X19661Y1472D01*
X19752Y1434D01*
X19850Y1421D01*
X19948Y1434D01*
X20039Y1472D01*
X20118Y1532D01*
X20178Y1611D01*
X20216Y1702D01*
X20229Y1800D01*
X20216Y1898D01*
X20178Y1989D01*
X20118Y2068D01*
X20039Y2128D01*
X19948Y2166D01*
X19850Y2179D01*
D02*
G37*
G36*
X38169Y2004D02*
X38018Y1989D01*
X37873Y1945D01*
X37740Y1874D01*
X37623Y1777D01*
X37526Y1660D01*
X37455Y1527D01*
X37411Y1382D01*
X37396Y1231D01*
X37411Y1080D01*
X37455Y935D01*
X37526Y802D01*
X37623Y685D01*
X37740Y589D01*
X37873Y517D01*
X38018Y473D01*
X38169Y458D01*
X38320Y473D01*
X38465Y517D01*
X38598Y589D01*
X38715Y685D01*
X38811Y802D01*
X38883Y935D01*
X38927Y1080D01*
X38942Y1231D01*
X38927Y1382D01*
X38883Y1527D01*
X38811Y1660D01*
X38715Y1777D01*
X38598Y1874D01*
X38465Y1945D01*
X38320Y1989D01*
X38169Y2004D01*
D02*
G37*
G36*
X1181Y1954D02*
X1030Y1939D01*
X885Y1895D01*
X752Y1824D01*
X635Y1727D01*
X539Y1610D01*
X467Y1477D01*
X423Y1332D01*
X408Y1181D01*
X423Y1030D01*
X467Y885D01*
X539Y752D01*
X635Y635D01*
X752Y539D01*
X885Y467D01*
X1030Y423D01*
X1181Y408D01*
X1332Y423D01*
X1477Y467D01*
X1610Y539D01*
X1727Y635D01*
X1824Y752D01*
X1895Y885D01*
X1939Y1030D01*
X1954Y1181D01*
X1939Y1332D01*
X1895Y1477D01*
X1824Y1610D01*
X1727Y1727D01*
X1610Y1824D01*
X1477Y1895D01*
X1332Y1939D01*
X1181Y1954D01*
D02*
G37*
%LPD*%
G36*
X30790Y24739D02*
X30784Y24744D01*
X30778Y24748D01*
X30771Y24752D01*
X30764Y24756D01*
X30755Y24759D01*
X30746Y24761D01*
X30737Y24763D01*
X30727Y24764D01*
X30716Y24765D01*
X30704Y24765D01*
X30702Y24865D01*
X30714Y24866D01*
X30735Y24868D01*
X30744Y24870D01*
X30753Y24872D01*
X30761Y24875D01*
X30769Y24879D01*
X30776Y24883D01*
X30782Y24888D01*
X30787Y24893D01*
X30790Y24739D01*
D02*
G37*
G36*
X25159Y24887D02*
X25166Y24883D01*
X25173Y24879D01*
X25180Y24875D01*
X25188Y24872D01*
X25197Y24870D01*
X25207Y24868D01*
X25217Y24866D01*
X25228Y24866D01*
X25239Y24865D01*
Y24765D01*
X25228Y24765D01*
X25207Y24763D01*
X25197Y24761D01*
X25188Y24759D01*
X25180Y24756D01*
X25173Y24752D01*
X25166Y24748D01*
X25159Y24743D01*
X25154Y24738D01*
Y24892D01*
X25159Y24887D01*
D02*
G37*
G36*
X21997Y30967D02*
X22006Y30942D01*
X22021Y30921D01*
X22042Y30902D01*
X22069Y30886D01*
X22102Y30873D01*
X22141Y30863D01*
X22186Y30856D01*
X22237Y30851D01*
X22294Y30850D01*
Y30550D01*
X22237Y30549D01*
X22186Y30544D01*
X22141Y30537D01*
X22102Y30527D01*
X22069Y30514D01*
X22042Y30498D01*
X22021Y30479D01*
X22006Y30458D01*
X21997Y30433D01*
X21994Y30406D01*
Y30994D01*
X21997Y30967D01*
D02*
G37*
G36*
X26472Y23266D02*
X26467Y23260D01*
X26463Y23253D01*
X26460Y23245D01*
X26457Y23237D01*
X26454Y23228D01*
X26452Y23218D01*
X26451Y23208D01*
X26450Y23197D01*
X26450Y23186D01*
X26350D01*
X26350Y23197D01*
X26348Y23218D01*
X26346Y23228D01*
X26343Y23237D01*
X26340Y23245D01*
X26337Y23253D01*
X26333Y23260D01*
X26328Y23266D01*
X26323Y23271D01*
X26477D01*
X26472Y23266D01*
D02*
G37*
G36*
X29434Y22945D02*
X29429Y22943D01*
X29423Y22941D01*
X29417Y22937D01*
X29410Y22933D01*
X29396Y22923D01*
X29389Y22917D01*
X29365Y22894D01*
X29266Y22937D01*
X29274Y22945D01*
X29281Y22953D01*
X29286Y22961D01*
X29291Y22969D01*
X29295Y22977D01*
X29297Y22985D01*
X29299Y22992D01*
X29299Y22999D01*
X29298Y23007D01*
X29296Y23014D01*
X29434Y22945D01*
D02*
G37*
G36*
X26172Y22966D02*
X26167Y22960D01*
X26163Y22953D01*
X26160Y22945D01*
X26157Y22937D01*
X26154Y22928D01*
X26152Y22918D01*
X26151Y22908D01*
X26150Y22897D01*
X26150Y22886D01*
X26050D01*
X26050Y22897D01*
X26048Y22918D01*
X26046Y22928D01*
X26043Y22937D01*
X26040Y22945D01*
X26037Y22953D01*
X26033Y22960D01*
X26028Y22966D01*
X26023Y22971D01*
X26177D01*
X26172Y22966D01*
D02*
G37*
G36*
X29022Y22916D02*
X29017Y22910D01*
X29013Y22903D01*
X29010Y22895D01*
X29007Y22887D01*
X29004Y22878D01*
X29002Y22868D01*
X29001Y22858D01*
X29000Y22847D01*
X29000Y22836D01*
X28900D01*
X28900Y22847D01*
X28898Y22868D01*
X28896Y22878D01*
X28893Y22887D01*
X28890Y22895D01*
X28887Y22903D01*
X28883Y22910D01*
X28878Y22916D01*
X28873Y22921D01*
X29027D01*
X29022Y22916D01*
D02*
G37*
G36*
X29572Y18316D02*
X29567Y18310D01*
X29563Y18303D01*
X29560Y18295D01*
X29557Y18287D01*
X29554Y18278D01*
X29552Y18268D01*
X29551Y18258D01*
X29550Y18247D01*
X29550Y18236D01*
X29450D01*
X29450Y18247D01*
X29448Y18268D01*
X29446Y18278D01*
X29443Y18287D01*
X29440Y18295D01*
X29437Y18303D01*
X29433Y18310D01*
X29428Y18316D01*
X29423Y18321D01*
X29577D01*
X29572Y18316D01*
D02*
G37*
G36*
X29000Y16751D02*
X29002Y16730D01*
X29004Y16721D01*
X29007Y16712D01*
X29010Y16704D01*
X29013Y16696D01*
X29017Y16689D01*
X29022Y16683D01*
X29027Y16677D01*
X28873D01*
X28878Y16683D01*
X28883Y16689D01*
X28887Y16696D01*
X28890Y16704D01*
X28893Y16712D01*
X28896Y16721D01*
X28898Y16730D01*
X28899Y16741D01*
X28900Y16751D01*
X28900Y16763D01*
X29000D01*
X29000Y16751D01*
D02*
G37*
G36*
X28700D02*
X28702Y16730D01*
X28704Y16721D01*
X28707Y16712D01*
X28710Y16704D01*
X28713Y16696D01*
X28717Y16689D01*
X28722Y16683D01*
X28727Y16677D01*
X28573D01*
X28578Y16683D01*
X28583Y16689D01*
X28587Y16696D01*
X28590Y16704D01*
X28593Y16712D01*
X28596Y16721D01*
X28598Y16730D01*
X28599Y16741D01*
X28600Y16751D01*
X28600Y16763D01*
X28700D01*
X28700Y16751D01*
D02*
G37*
G36*
X29300Y16603D02*
X29302Y16582D01*
X29304Y16572D01*
X29307Y16563D01*
X29310Y16555D01*
X29313Y16547D01*
X29317Y16540D01*
X29322Y16534D01*
X29327Y16529D01*
X29173D01*
X29178Y16534D01*
X29183Y16540D01*
X29187Y16547D01*
X29190Y16555D01*
X29193Y16563D01*
X29196Y16572D01*
X29198Y16582D01*
X29199Y16592D01*
X29200Y16603D01*
X29200Y16614D01*
X29300D01*
X29300Y16603D01*
D02*
G37*
G36*
X28400D02*
X28402Y16582D01*
X28404Y16572D01*
X28407Y16563D01*
X28410Y16555D01*
X28413Y16547D01*
X28417Y16540D01*
X28422Y16534D01*
X28427Y16529D01*
X28273D01*
X28278Y16534D01*
X28283Y16540D01*
X28287Y16547D01*
X28290Y16555D01*
X28293Y16563D01*
X28296Y16572D01*
X28298Y16582D01*
X28299Y16592D01*
X28300Y16603D01*
X28300Y16614D01*
X28400D01*
X28400Y16603D01*
D02*
G37*
G36*
X29811Y12993D02*
X29827Y12980D01*
X29835Y12975D01*
X29843Y12970D01*
X29851Y12966D01*
X29859Y12964D01*
X29867Y12962D01*
X29874Y12960D01*
X29882Y12960D01*
X29773Y12851D01*
X29773Y12859D01*
X29772Y12866D01*
X29770Y12874D01*
X29767Y12882D01*
X29763Y12890D01*
X29758Y12898D01*
X29753Y12906D01*
X29747Y12914D01*
X29740Y12922D01*
X29732Y12931D01*
X29802Y13001D01*
X29811Y12993D01*
D02*
G37*
G36*
X23972Y21416D02*
X23967Y21410D01*
X23963Y21403D01*
X23960Y21395D01*
X23957Y21387D01*
X23954Y21378D01*
X23952Y21368D01*
X23951Y21358D01*
X23950Y21347D01*
X23950Y21336D01*
X23850D01*
X23850Y21347D01*
X23848Y21368D01*
X23846Y21378D01*
X23843Y21387D01*
X23840Y21395D01*
X23837Y21403D01*
X23833Y21410D01*
X23828Y21416D01*
X23823Y21421D01*
X23977D01*
X23972Y21416D01*
D02*
G37*
G36*
X23672Y21216D02*
X23667Y21210D01*
X23663Y21203D01*
X23660Y21195D01*
X23657Y21187D01*
X23654Y21178D01*
X23652Y21168D01*
X23651Y21158D01*
X23650Y21147D01*
X23650Y21136D01*
X23550D01*
X23550Y21147D01*
X23548Y21168D01*
X23546Y21178D01*
X23543Y21187D01*
X23540Y21195D01*
X23537Y21203D01*
X23533Y21210D01*
X23528Y21216D01*
X23523Y21221D01*
X23677D01*
X23672Y21216D01*
D02*
G37*
G36*
X23650Y19153D02*
X23652Y19132D01*
X23654Y19122D01*
X23657Y19113D01*
X23660Y19105D01*
X23663Y19097D01*
X23667Y19090D01*
X23672Y19084D01*
X23677Y19079D01*
X23523D01*
X23528Y19084D01*
X23533Y19090D01*
X23537Y19097D01*
X23540Y19105D01*
X23543Y19113D01*
X23546Y19122D01*
X23548Y19132D01*
X23549Y19142D01*
X23550Y19153D01*
X23550Y19164D01*
X23650D01*
X23650Y19153D01*
D02*
G37*
G36*
X24150Y18903D02*
X24152Y18882D01*
X24154Y18872D01*
X24157Y18863D01*
X24160Y18855D01*
X24163Y18847D01*
X24167Y18840D01*
X24172Y18834D01*
X24177Y18829D01*
X24023D01*
X24028Y18834D01*
X24033Y18840D01*
X24037Y18847D01*
X24040Y18855D01*
X24043Y18863D01*
X24046Y18872D01*
X24048Y18882D01*
X24049Y18892D01*
X24050Y18903D01*
X24050Y18914D01*
X24150D01*
X24150Y18903D01*
D02*
G37*
G36*
X25371Y7573D02*
X25366Y7578D01*
X25360Y7583D01*
X25353Y7587D01*
X25345Y7590D01*
X25337Y7593D01*
X25328Y7596D01*
X25318Y7598D01*
X25308Y7599D01*
X25297Y7600D01*
X25286Y7600D01*
Y7700D01*
X25297Y7700D01*
X25318Y7702D01*
X25328Y7704D01*
X25337Y7707D01*
X25345Y7710D01*
X25353Y7713D01*
X25360Y7717D01*
X25366Y7722D01*
X25371Y7727D01*
Y7573D01*
D02*
G37*
G36*
X23984Y7722D02*
X23990Y7717D01*
X23997Y7713D01*
X24005Y7710D01*
X24013Y7707D01*
X24022Y7704D01*
X24032Y7702D01*
X24042Y7701D01*
X24053Y7700D01*
X24064Y7700D01*
Y7600D01*
X24053Y7600D01*
X24032Y7598D01*
X24022Y7596D01*
X24013Y7593D01*
X24005Y7590D01*
X23997Y7587D01*
X23990Y7583D01*
X23984Y7578D01*
X23979Y7573D01*
Y7727D01*
X23984Y7722D01*
D02*
G37*
G36*
X29955Y6716D02*
X29950Y6710D01*
X29946Y6703D01*
X29943Y6695D01*
X29940Y6687D01*
X29937Y6678D01*
X29936Y6668D01*
X29934Y6658D01*
X29933Y6647D01*
X29933Y6636D01*
X29833D01*
X29833Y6647D01*
X29831Y6668D01*
X29829Y6678D01*
X29826Y6687D01*
X29823Y6695D01*
X29820Y6703D01*
X29816Y6710D01*
X29811Y6716D01*
X29806Y6721D01*
X29960D01*
X29955Y6716D01*
D02*
G37*
G36*
X29933Y5403D02*
X29936Y5382D01*
X29937Y5372D01*
X29940Y5363D01*
X29943Y5355D01*
X29946Y5347D01*
X29950Y5340D01*
X29955Y5334D01*
X29960Y5329D01*
X29806D01*
X29811Y5334D01*
X29816Y5340D01*
X29820Y5347D01*
X29823Y5355D01*
X29826Y5363D01*
X29829Y5372D01*
X29831Y5382D01*
X29832Y5392D01*
X29833Y5403D01*
X29833Y5414D01*
X29933D01*
X29933Y5403D01*
D02*
G37*
G36*
X32311Y5173D02*
X32306Y5178D01*
X32299Y5183D01*
X32293Y5187D01*
X32285Y5190D01*
X32277Y5193D01*
X32268Y5196D01*
X32258Y5198D01*
X32248Y5199D01*
X32237Y5200D01*
X32226Y5200D01*
Y5300D01*
X32237Y5300D01*
X32258Y5302D01*
X32268Y5304D01*
X32277Y5307D01*
X32285Y5310D01*
X32293Y5313D01*
X32299Y5317D01*
X32306Y5322D01*
X32311Y5327D01*
Y5173D01*
D02*
G37*
G36*
X26227Y5322D02*
X26233Y5317D01*
X26240Y5313D01*
X26248Y5310D01*
X26256Y5307D01*
X26265Y5304D01*
X26274Y5302D01*
X26285Y5301D01*
X26295Y5300D01*
X26307Y5300D01*
Y5200D01*
X26295Y5200D01*
X26274Y5198D01*
X26265Y5196D01*
X26256Y5193D01*
X26248Y5190D01*
X26240Y5187D01*
X26233Y5183D01*
X26227Y5178D01*
X26221Y5173D01*
Y5327D01*
X26227Y5322D01*
D02*
G37*
G36*
X35872Y6116D02*
X35867Y6110D01*
X35863Y6103D01*
X35860Y6095D01*
X35857Y6087D01*
X35854Y6078D01*
X35852Y6068D01*
X35851Y6058D01*
X35850Y6047D01*
X35850Y6036D01*
X35750D01*
X35750Y6047D01*
X35748Y6068D01*
X35746Y6078D01*
X35743Y6087D01*
X35740Y6095D01*
X35737Y6103D01*
X35733Y6110D01*
X35728Y6116D01*
X35723Y6121D01*
X35877D01*
X35872Y6116D01*
D02*
G37*
G36*
X35850Y3403D02*
X35852Y3382D01*
X35854Y3372D01*
X35857Y3363D01*
X35860Y3355D01*
X35863Y3347D01*
X35867Y3340D01*
X35872Y3334D01*
X35877Y3329D01*
X35723D01*
X35728Y3334D01*
X35733Y3340D01*
X35737Y3347D01*
X35740Y3355D01*
X35743Y3363D01*
X35746Y3372D01*
X35748Y3382D01*
X35749Y3392D01*
X35750Y3403D01*
X35750Y3414D01*
X35850D01*
X35850Y3403D01*
D02*
G37*
G36*
X21261Y1999D02*
X21239Y1976D01*
X21202Y1932D01*
X21187Y1912D01*
X21174Y1892D01*
X21163Y1872D01*
X21155Y1854D01*
X21150Y1836D01*
X21146Y1819D01*
X21145Y1803D01*
X20853Y2095D01*
X20869Y2096D01*
X20886Y2100D01*
X20904Y2105D01*
X20922Y2113D01*
X20942Y2124D01*
X20962Y2137D01*
X20982Y2152D01*
X21004Y2169D01*
X21049Y2211D01*
X21261Y1999D01*
D02*
G37*
%LPC*%
G36*
X13400Y12035D02*
X12615D01*
X12526Y12017D01*
X12450Y11966D01*
X12399Y11890D01*
X12381Y11800D01*
Y8462D01*
X10537Y6619D01*
X10486Y6543D01*
X10469Y6453D01*
Y3250D01*
X10486Y3160D01*
X10537Y3084D01*
X10613Y3033D01*
X10703Y3015D01*
X10793Y3033D01*
X10869Y3084D01*
X10920Y3160D01*
X10938Y3250D01*
Y6356D01*
X12781Y8200D01*
X12832Y8276D01*
X12850Y8365D01*
Y11565D01*
X13400D01*
X13490Y11583D01*
X13566Y11634D01*
X13617Y11710D01*
X13635Y11800D01*
X13617Y11890D01*
X13566Y11966D01*
X13490Y12017D01*
X13400Y12035D01*
D02*
G37*
%LPD*%
D13*
X28950Y16599D02*
Y23000D01*
X29110Y16883D02*
X29250Y16743D01*
X29110Y16883D02*
Y22710D01*
X29450Y23050D01*
X29250Y16450D02*
Y16743D01*
X28650Y16599D02*
Y16850D01*
X28350Y16450D02*
Y16700D01*
X26100Y18950D02*
X28350Y16700D01*
X26100Y18950D02*
Y23050D01*
X26400Y19100D02*
Y23350D01*
X24100Y18750D02*
Y19900D01*
X23900Y20100D02*
X24100Y19900D01*
X23600Y19000D02*
Y21300D01*
X23900Y20100D02*
Y21500D01*
X29500Y18400D02*
Y18451D01*
Y13233D02*
Y18400D01*
X29400Y23050D02*
X29450D01*
X26400Y19100D02*
X28650Y16850D01*
X29500Y13233D02*
X29883Y12850D01*
X35800Y3250D02*
Y6200D01*
X30700Y5250D02*
X32390D01*
X30150Y4700D02*
X30700Y5250D01*
X29200Y4700D02*
X30150D01*
X28650Y5250D02*
X29200Y4700D01*
X26143Y5250D02*
X28650D01*
X30865Y24815D02*
X30867Y24817D01*
X25075Y24815D02*
X30865D01*
X29883Y5250D02*
Y6800D01*
X23900Y7650D02*
X25450D01*
X-1950Y31496D02*
X-1750Y30896D01*
X-2150D02*
X-1950Y31496D01*
X-2150Y600D02*
X-1950Y-0D01*
X-1750Y600D01*
X-1950Y17098D02*
Y31496D01*
Y-0D02*
Y14078D01*
X-2050Y31496D02*
X-200D01*
X-2050Y-0D02*
X-200D01*
X0Y-1750D02*
X600Y-1550D01*
X0Y-1750D02*
X600Y-1950D01*
X38770D02*
X39370Y-1750D01*
X38770Y-1550D02*
X39370Y-1750D01*
X0D02*
X17766D01*
X21285D02*
X39370D01*
X0Y-1850D02*
Y-200D01*
X39370Y-1850D02*
Y-200D01*
D17*
X5650Y200D02*
X5650Y13650D01*
X8550D01*
X17650Y6650D02*
Y13128D01*
X17128Y13650D02*
X17650Y13128D01*
X8550Y13650D02*
X17128D01*
X18350Y200D02*
Y5950D01*
X17650Y6650D02*
X18350Y5950D01*
X0Y31496D02*
X39370D01*
X0Y-0D02*
X39370Y0D01*
X0Y0D02*
Y31496D01*
X39370Y-0D02*
X39370Y31496D01*
D18*
X-2090Y14238D02*
X-2190Y14338D01*
Y14538D01*
X-2090Y14638D01*
X-1990D01*
X-1890Y14538D01*
X-1790Y14638D01*
X-1690D01*
X-1590Y14538D01*
Y14338D01*
X-1690Y14238D01*
X-1790D01*
X-1890Y14338D01*
X-1990Y14238D01*
X-2090D01*
X-1890Y14338D02*
Y14538D01*
X-2090Y14838D02*
X-2190Y14938D01*
Y15138D01*
X-2090Y15238D01*
X-1690D01*
X-1590Y15138D01*
Y14938D01*
X-1690Y14838D01*
X-2090D01*
X-1590Y15438D02*
X-1690D01*
Y15538D01*
X-1590D01*
Y15438D01*
X-2090Y15938D02*
X-2190Y16038D01*
Y16238D01*
X-2090Y16338D01*
X-1690D01*
X-1590Y16238D01*
Y16038D01*
X-1690Y15938D01*
X-2090D01*
Y16538D02*
X-2190Y16638D01*
Y16838D01*
X-2090Y16938D01*
X-1690D01*
X-1590Y16838D01*
Y16638D01*
X-1690Y16538D01*
X-2090D01*
X17926Y-2110D02*
X18125D01*
X18026D01*
Y-1510D01*
X17926Y-1610D01*
X18425D02*
X18525Y-1510D01*
X18725D01*
X18825Y-1610D01*
Y-2010D01*
X18725Y-2110D01*
X18525D01*
X18425Y-2010D01*
Y-1610D01*
X19025D02*
X19125Y-1510D01*
X19325D01*
X19425Y-1610D01*
Y-2010D01*
X19325Y-2110D01*
X19125D01*
X19025Y-2010D01*
Y-1610D01*
X19625Y-2110D02*
Y-2010D01*
X19725D01*
Y-2110D01*
X19625D01*
X20125Y-1610D02*
X20225Y-1510D01*
X20425D01*
X20525Y-1610D01*
Y-2010D01*
X20425Y-2110D01*
X20225D01*
X20125Y-2010D01*
Y-1610D01*
X20725D02*
X20825Y-1510D01*
X21025D01*
X21125Y-1610D01*
Y-2010D01*
X21025Y-2110D01*
X20825D01*
X20725Y-2010D01*
Y-1610D01*
D20*
X38414Y19322D02*
Y19502D01*
X37974Y19322D02*
Y19502D01*
Y19322D02*
X38414D01*
X37974Y19502D02*
X38414D01*
Y17098D02*
Y17278D01*
X37974Y17098D02*
Y17278D01*
Y17098D02*
X38414D01*
X37974Y17278D02*
X38414D01*
Y24064D02*
Y24244D01*
X37974Y24064D02*
Y24244D01*
Y24064D02*
X38414D01*
X37974Y24244D02*
X38414D01*
Y21840D02*
Y22020D01*
X37974Y21840D02*
Y22020D01*
Y21840D02*
X38414D01*
X37974Y22020D02*
X38414D01*
D40*
X16650Y30700D02*
D03*
X15650D02*
D03*
X14650D02*
D03*
X13650D02*
D03*
X12650D02*
D03*
X20700D02*
D03*
X19700D02*
D03*
X18700D02*
D03*
X20650Y10900D02*
D03*
X19650Y9900D02*
D03*
X20650D02*
D03*
X19650Y8900D02*
D03*
X20650D02*
D03*
X19650Y7900D02*
D03*
X20650D02*
D03*
X19650Y6900D02*
D03*
X20650D02*
D03*
X19650Y5900D02*
D03*
X20650D02*
D03*
X19650Y14200D02*
D03*
X20650Y15200D02*
D03*
X19650D02*
D03*
X20650Y16200D02*
D03*
X19650D02*
D03*
X20650Y17200D02*
D03*
X19650D02*
D03*
X20650Y18200D02*
D03*
X19650D02*
D03*
X22850Y800D02*
D03*
X21850Y1800D02*
D03*
Y800D02*
D03*
X20850Y1800D02*
D03*
Y800D02*
D03*
X19850Y1800D02*
D03*
Y800D02*
D03*
X18850Y1800D02*
D03*
Y800D02*
D03*
X17850Y1800D02*
D03*
Y800D02*
D03*
X38750Y28550D02*
D03*
X3000Y7350D02*
D03*
Y9350D02*
D03*
Y10350D02*
D03*
Y11350D02*
D03*
Y12350D02*
D03*
Y13350D02*
D03*
Y14350D02*
D03*
Y15350D02*
D03*
Y8350D02*
D03*
D80*
X31800Y20050D02*
X34050D01*
X31450Y19700D02*
X31800Y20050D01*
X31450Y19303D02*
Y19700D01*
X29850Y15644D02*
X30200D01*
X30500Y15944D02*
Y22471D01*
X30200Y15644D02*
X30500Y15944D01*
X30200Y22771D02*
X30500Y22471D01*
X22850Y1800D02*
X37150D01*
X39050Y3700D01*
X38250Y14700D02*
X39050Y13900D01*
Y3700D02*
Y13900D01*
X33681Y23700D02*
X33900Y23919D01*
X23900Y23700D02*
X33681D01*
X23450Y24150D02*
X23900Y23700D01*
X23450Y24150D02*
Y25650D01*
X16450Y20200D02*
Y23919D01*
X15850Y19600D02*
X16450Y20200D01*
X13700Y19600D02*
X15850D01*
X32708Y25044D02*
Y27242D01*
X32300Y27650D02*
X32708Y27242D01*
X29628Y27650D02*
X32300D01*
X29200D02*
X29628D01*
X28600Y28250D02*
X29200Y27650D01*
X28600Y28250D02*
Y30150D01*
X28050Y30700D02*
X28600Y30150D01*
X21700Y30700D02*
X28050D01*
X36800Y14700D02*
X38250D01*
X36150Y15350D02*
X36800Y14700D01*
X36150Y15350D02*
Y19650D01*
X35750Y20050D02*
X36150Y19650D01*
X34750Y20050D02*
X35750D01*
X34400Y20400D02*
X34750Y20050D01*
X34050D02*
X34400Y20400D01*
X21850Y1800D02*
X22850D01*
X15212Y26262D02*
X15650Y26700D01*
X15212Y24815D02*
Y26262D01*
X15569Y1800D02*
X17850D01*
X10750Y18400D02*
X14300D01*
X9750Y19400D02*
X10750Y18400D01*
X9750Y19400D02*
Y23550D01*
X20850Y1800D02*
X22853Y3803D01*
Y5900D01*
X29750Y22321D02*
X30200Y22771D01*
X29750Y21700D02*
Y22321D01*
X11803Y8453D02*
Y13200D01*
X10097Y6747D02*
X11803Y8453D01*
X10097Y3250D02*
Y6747D01*
X12615Y8365D02*
Y11800D01*
X10703Y6453D02*
X12615Y8365D01*
X10703Y3250D02*
Y6453D01*
X12615Y11800D02*
X13400D01*
X12250Y20000D02*
Y21850D01*
D82*
X11650Y30700D02*
D03*
X21700D02*
D03*
X22850Y1800D02*
D03*
D83*
X19650Y10900D02*
D03*
X20650Y14200D02*
D03*
X38750Y27550D02*
D03*
X3000Y6350D02*
D03*
D84*
X35013Y28900D02*
D03*
X35800D02*
D03*
X36587D02*
D03*
Y30672D02*
D03*
X35800D02*
D03*
X35013D02*
D03*
D85*
X38200Y19412D02*
D03*
Y17188D02*
D03*
Y24154D02*
D03*
Y21930D02*
D03*
D86*
X37354Y17513D02*
D03*
Y19087D02*
D03*
Y22255D02*
D03*
Y23830D02*
D03*
D87*
X1150Y4931D02*
D03*
Y6900D02*
D03*
Y8868D02*
D03*
Y10837D02*
D03*
Y12806D02*
D03*
Y14774D02*
D03*
Y16743D02*
D03*
Y18711D02*
D03*
Y20680D02*
D03*
Y2963D02*
D03*
D88*
X1181Y30319D02*
D03*
X38169D02*
D03*
Y1231D02*
D03*
X1181Y1181D02*
D03*
D89*
X6300Y14395D02*
D03*
X5850D02*
D03*
X14500Y8797D02*
D03*
Y8206D02*
D03*
X36250Y2350D02*
D03*
X17000Y12600D02*
D03*
X8800Y3453D02*
D03*
X8050D02*
D03*
X8800Y4050D02*
D03*
X8050D02*
D03*
X17200Y10900D02*
D03*
X15650Y13300D02*
D03*
X13953Y15022D02*
D03*
X12409D02*
D03*
Y15934D02*
D03*
X13953D02*
D03*
X28950Y16599D02*
D03*
X28650D02*
D03*
X37000Y18812D02*
D03*
Y23550D02*
D03*
X28111Y5755D02*
D03*
X30080Y14062D02*
D03*
X27915D02*
D03*
X25356D02*
D03*
X24450Y9220D02*
D03*
X26400Y23350D02*
D03*
X26100Y23050D02*
D03*
X24100Y18750D02*
D03*
X23600Y19000D02*
D03*
X29400Y23050D02*
D03*
X28950Y23000D02*
D03*
X29500Y18400D02*
D03*
X32757Y9220D02*
D03*
X4184Y10380D02*
D03*
X4234Y6905D02*
D03*
X24450Y11188D02*
D03*
X31064Y5755D02*
D03*
X25552Y16250D02*
D03*
X24250D02*
D03*
X37794Y3959D02*
D03*
X33450Y3934D02*
D03*
X32600D02*
D03*
X31550Y2806D02*
D03*
X30867Y3947D02*
D03*
X27718D02*
D03*
X27700Y2790D02*
D03*
X26143Y2234D02*
D03*
X25150D02*
D03*
X22247Y5900D02*
D03*
X22247Y8200D02*
D03*
X22247Y9833D02*
D03*
Y11050D02*
D03*
X17953Y11050D02*
D03*
X32757Y11188D02*
D03*
Y6661D02*
D03*
X38400Y8494D02*
D03*
X37425D02*
D03*
X36450Y7306D02*
D03*
X34653Y6858D02*
D03*
X34643Y8440D02*
D03*
X34653Y9437D02*
D03*
X35900Y12991D02*
D03*
X34653Y11387D02*
D03*
Y12500D02*
D03*
Y13350D02*
D03*
X30032Y18697D02*
D03*
X30903D02*
D03*
X27983Y16250D02*
D03*
X29850D02*
D03*
X34050Y16100D02*
D03*
X31953Y17226D02*
D03*
X33350Y26550D02*
D03*
X31547Y25044D02*
D03*
X34200Y25050D02*
D03*
X34150Y26200D02*
D03*
X31600D02*
D03*
X29628Y27150D02*
D03*
X25100Y31150D02*
D03*
Y27150D02*
D03*
X20153Y25750D02*
D03*
X25075Y24209D02*
D03*
X24163Y24209D02*
D03*
X22277Y24900D02*
D03*
X20380Y24152D02*
D03*
X21775Y23168D02*
D03*
X23814D02*
D03*
X18428Y24815D02*
D03*
X17428Y24815D02*
D03*
X16450Y25081D02*
D03*
X15062Y23218D02*
D03*
X15212Y24209D02*
D03*
X14351Y24526D02*
D03*
X12412Y24209D02*
D03*
X12343Y23212D02*
D03*
X9750Y31046D02*
D03*
Y30546D02*
D03*
Y29050D02*
D03*
X2872Y31046D02*
D03*
Y30546D02*
D03*
Y29050D02*
D03*
X9061Y22353D02*
D03*
X4200Y13850D02*
D03*
X33900Y23919D02*
D03*
X23450Y25650D02*
D03*
X31450Y19303D02*
D03*
X34400Y20400D02*
D03*
X15650Y26700D02*
D03*
X15212Y24815D02*
D03*
X14300Y5737D02*
D03*
X14534Y11500D02*
D03*
X13895Y10386D02*
D03*
X14500Y7222D02*
D03*
X15569Y1800D02*
D03*
X14300Y18400D02*
D03*
X9750Y23550D02*
D03*
X22853Y5900D02*
D03*
X29850Y15644D02*
D03*
X29750Y21700D02*
D03*
X30200Y22771D02*
D03*
X32708Y25044D02*
D03*
X29628Y27650D02*
D03*
X11803Y13200D02*
D03*
X10097Y3250D02*
D03*
X10703D02*
D03*
X12615Y11800D02*
D03*
X13400D02*
D03*
X12250Y20000D02*
D03*
Y21850D02*
D03*
X16450Y23919D02*
D03*
X13700Y19600D02*
D03*
X35800Y3250D02*
D03*
Y6200D02*
D03*
X26143Y5250D02*
D03*
X32390D02*
D03*
X25075Y24815D02*
D03*
X30867Y24817D02*
D03*
X29883Y12850D02*
D03*
Y6800D02*
D03*
Y5250D02*
D03*
X28350Y16450D02*
D03*
X29250D02*
D03*
X23900Y7650D02*
D03*
X25450D02*
D03*
X23900Y21500D02*
D03*
X23600Y21300D02*
D03*
M02*
