M48
;Layer_Color=9474304
;FILE_FORMAT=2:4
INCH,LZ
;TYPE=PLATED
T1F00S00C0.0120
T3F00S00C0.0354
T4F00S00C0.0394
T5F00S00C0.0591
T6F00S00C0.1260
;TYPE=NON_PLATED
T7F00S00C0.0197
%
T01
X03155Y002806
X030867Y003947
X0326Y003934
X03345
X03239Y00525
X032757Y006661
X034653Y006858
X034643Y00844
X034653Y009437
X032757Y00922
X031064Y005755
X029883Y00525
Y0068
X0358Y0062
X03645Y007306
X037425Y008494
X0384
X037794Y003959
X0358Y00325
X03625Y00235
X0277Y00279
X027718Y003947
X028111Y005755
X026143Y00525
Y002234
X02515
X02545Y00765
X0239
X02445Y00922
X022247Y009833
X022247Y0082
X022247Y0059
X022853
X0143Y005737
X0145Y007222
Y008206
Y008797
X015569Y0018
X010703Y00325
X010097
X0088Y003453
Y00405
X00805
Y003453
X004234Y006905
X004184Y01038
X013895Y010386
X0134Y0118
X012615
X011803Y0132
X012409Y015022
Y015934
X013953
Y015022
X0137Y0196
X01225Y02
Y02185
X012343Y023212
X012412Y024209
X00975Y02355
X009061Y022353
X0063Y014395
X00585
X0042Y01385
X01565Y0133
X017Y0126
X0172Y0109
X017953Y01105
X014534Y0115
X0143Y0184
X015062Y023218
X015212Y024209
Y024815
X014351Y024526
X01645Y025081
Y023919
X017428Y024815
X018428Y024815
X02038Y024152
X020153Y02575
X022277Y0249
X02345Y02565
X024163Y024209
X025075Y024209
Y024815
X0264Y02335
X0261Y02305
X023814Y023168
X0239Y0215
X0236Y0213
Y019
X0241Y01875
X02425Y01625
X025552
X025356Y014062
X027915
X027983Y01625
X02835Y01645
X02865Y016599
X02895
X02925Y01645
X0295Y0184
X0294Y02305
X02895Y023
X021775Y023168
X022247Y01105
X02445Y011188
X029883Y01285
X03008Y014062
X02985Y015644
Y01625
X030032Y018697
X030903
X03145Y019303
X031953Y017226
X03405Y0161
X034653Y01335
Y0125
Y011387
X032757Y011188
X0359Y012991
X037Y018812
X0344Y0204
X0339Y023919
X0342Y02505
X032708Y025044
X031547
X030867Y024817
X0302Y022771
X02975Y0217
X037Y02355
X03415Y0262
X03335Y02655
X0316Y0262
X029628Y02715
Y02765
X0251Y02715
Y03115
X01565Y0267
X00975Y02905
Y030546
Y031046
X002872
Y030546
Y02905
T03
X01785Y0008
X01885
X01985
X02085
X02185
X02285
Y0018
X02185
X02085
X01985
X01885
X01785
X01965Y0059
Y0069
Y0079
Y0089
Y0099
X02065
Y0089
Y0079
Y0069
Y0059
X003Y00635
Y00735
Y00835
Y00935
Y01035
Y01135
Y01235
Y01335
Y01435
Y01535
X01965Y0152
Y0142
X02065
Y0152
Y0162
X01965
Y0172
X02065
Y0182
X01965
Y0109
X02065
X03875Y02755
Y02855
X0217Y0307
X0207
X0197
X0187
X01665
X01565
X01465
X01365
X01265
X01165
T04
X035013Y0289
X0358
X036587
Y030672
X0358
X035013
T05
X00115Y002963
Y004931
Y0069
Y008868
Y010837
Y012806
Y014774
Y016743
Y018711
Y02068
T06
X038169Y001231
X001181Y001181
X038169Y030319
X001181
T07
X037354Y017513
Y019087
Y022255
Y02383
M30
