G04*
G04 #@! TF.GenerationSoftware,Altium Limited,Altium Designer,18.1.9 (240)*
G04*
G04 Layer_Color=2752767*
%FSLAX24Y24*%
%MOIN*%
G70*
G01*
G75*
%ADD14C,0.0100*%
%ADD17C,0.0200*%
%ADD18C,0.0060*%
%ADD20C,0.0050*%
%ADD89C,0.0020*%
%ADD90C,0.0027*%
D14*
X-1300Y31496D02*
X-1100Y30896D01*
X-1500D02*
X-1300Y31496D01*
X-1500Y600D02*
X-1300Y0D01*
X-1100Y600D01*
X-1300Y17098D02*
Y31496D01*
Y0D02*
Y14078D01*
X-1400Y31496D02*
X-200D01*
X-1400Y0D02*
X-200D01*
X0Y-1250D02*
X600Y-1050D01*
X0Y-1250D02*
X600Y-1450D01*
X38770D02*
X39370Y-1250D01*
X38770Y-1050D02*
X39370Y-1250D01*
X0D02*
X17766D01*
X21285D02*
X39370D01*
X0Y-1350D02*
Y-200D01*
X39370Y-1350D02*
Y-200D01*
D17*
X0Y0D02*
X39370D01*
Y31496D01*
X0Y0D02*
Y31496D01*
X39370D01*
D18*
X-1440Y14238D02*
X-1540Y14338D01*
Y14538D01*
X-1440Y14638D01*
X-1340D01*
X-1240Y14538D01*
X-1140Y14638D01*
X-1040D01*
X-940Y14538D01*
Y14338D01*
X-1040Y14238D01*
X-1140D01*
X-1240Y14338D01*
X-1340Y14238D01*
X-1440D01*
X-1240Y14338D02*
Y14538D01*
X-1440Y14838D02*
X-1540Y14938D01*
Y15138D01*
X-1440Y15238D01*
X-1040D01*
X-940Y15138D01*
Y14938D01*
X-1040Y14838D01*
X-1440D01*
X-940Y15438D02*
X-1040D01*
Y15538D01*
X-940D01*
Y15438D01*
X-1440Y15938D02*
X-1540Y16038D01*
Y16238D01*
X-1440Y16338D01*
X-1040D01*
X-940Y16238D01*
Y16038D01*
X-1040Y15938D01*
X-1440D01*
Y16538D02*
X-1540Y16638D01*
Y16838D01*
X-1440Y16938D01*
X-1040D01*
X-940Y16838D01*
Y16638D01*
X-1040Y16538D01*
X-1440D01*
X17926Y-1610D02*
X18125D01*
X18026D01*
Y-1010D01*
X17926Y-1110D01*
X18425D02*
X18525Y-1010D01*
X18725D01*
X18825Y-1110D01*
Y-1510D01*
X18725Y-1610D01*
X18525D01*
X18425Y-1510D01*
Y-1110D01*
X19025D02*
X19125Y-1010D01*
X19325D01*
X19425Y-1110D01*
Y-1510D01*
X19325Y-1610D01*
X19125D01*
X19025Y-1510D01*
Y-1110D01*
X19625Y-1610D02*
Y-1510D01*
X19725D01*
Y-1610D01*
X19625D01*
X20125Y-1110D02*
X20225Y-1010D01*
X20425D01*
X20525Y-1110D01*
Y-1510D01*
X20425Y-1610D01*
X20225D01*
X20125Y-1510D01*
Y-1110D01*
X20725D02*
X20825Y-1010D01*
X21025D01*
X21125Y-1110D01*
Y-1510D01*
X21025Y-1610D01*
X20825D01*
X20725Y-1510D01*
Y-1110D01*
D20*
X38562Y27372D02*
Y27552D01*
X38122Y27372D02*
Y27552D01*
Y27372D02*
X38562D01*
X38122Y27552D02*
X38562D01*
Y25148D02*
Y25328D01*
X38122Y25148D02*
Y25328D01*
Y25148D02*
X38562D01*
X38122Y25328D02*
X38562D01*
Y22822D02*
Y23002D01*
X38122Y22822D02*
Y23002D01*
Y22822D02*
X38562D01*
X38122Y23002D02*
X38562D01*
Y20598D02*
Y20778D01*
X38122Y20598D02*
Y20778D01*
Y20598D02*
X38562D01*
X38122Y20778D02*
X38562D01*
D89*
X26620Y1920D02*
Y2080D01*
X26780D01*
Y1920D01*
X26620D01*
X25620D02*
Y2080D01*
X25780D01*
Y1920D01*
X25620D01*
X24620D02*
Y2080D01*
X24780D01*
Y1920D01*
X24620D01*
X23620D02*
Y2080D01*
X23780D01*
Y1920D01*
X23620D01*
X22620D02*
Y2080D01*
X22780D01*
Y1920D01*
X22620D01*
X21620D02*
Y2080D01*
X21780D01*
Y1920D01*
X21620D01*
X33020D02*
Y2080D01*
X33180D01*
Y1920D01*
X33020D01*
Y920D02*
Y1080D01*
X33180D01*
Y920D01*
X33020D01*
X32020Y1920D02*
Y2080D01*
X32180D01*
Y1920D01*
X32020D01*
Y920D02*
Y1080D01*
X32180D01*
Y920D01*
X32020D01*
X31020Y1920D02*
Y2080D01*
X31180D01*
Y1920D01*
X31020D01*
Y920D02*
Y1080D01*
X31180D01*
Y920D01*
X31020D01*
X30020Y1920D02*
Y2080D01*
X30180D01*
Y1920D01*
X30020D01*
Y920D02*
Y1080D01*
X30180D01*
Y920D01*
X30020D01*
X29020Y1920D02*
Y2080D01*
X29180D01*
Y1920D01*
X29020D01*
Y920D02*
Y1080D01*
X29180D01*
Y920D01*
X29020D01*
X970Y21020D02*
Y21180D01*
X1130D01*
Y21020D01*
X970D01*
X1970D02*
Y21180D01*
X2130D01*
Y21020D01*
X1970D01*
X970Y20020D02*
Y20180D01*
X1130D01*
Y20020D01*
X970D01*
X1970D02*
Y20180D01*
X2130D01*
Y20020D01*
X1970D01*
X970Y19020D02*
Y19180D01*
X1130D01*
Y19020D01*
X970D01*
X1970D02*
Y19180D01*
X2130D01*
Y19020D01*
X1970D01*
X970Y18020D02*
Y18180D01*
X1130D01*
Y18020D01*
X970D01*
X1970D02*
Y18180D01*
X2130D01*
Y18020D01*
X1970D01*
X970Y17020D02*
Y17180D01*
X1130D01*
Y17020D01*
X970D01*
X1970D02*
Y17180D01*
X2130D01*
Y17020D01*
X1970D01*
X970Y16020D02*
Y16180D01*
X1130D01*
Y16020D01*
X970D01*
X1970D02*
Y16180D01*
X2130D01*
Y16020D01*
X1970D01*
X970Y15020D02*
Y15180D01*
X1130D01*
Y15020D01*
X970D01*
X1970D02*
Y15180D01*
X2130D01*
Y15020D01*
X1970D01*
X970Y14020D02*
Y14180D01*
X1130D01*
Y14020D01*
X970D01*
X1970D02*
Y14180D01*
X2130D01*
Y14020D01*
X1970D01*
X970Y13020D02*
Y13180D01*
X1130D01*
Y13020D01*
X970D01*
X1970D02*
Y13180D01*
X2130D01*
Y13020D01*
X1970D01*
X970Y12020D02*
Y12180D01*
X1130D01*
Y12020D01*
X970D01*
X1970D02*
Y12180D01*
X2130D01*
Y12020D01*
X1970D01*
X22820Y21987D02*
Y22147D01*
X22980D01*
Y21987D01*
X22820D01*
Y22987D02*
Y23147D01*
X22980D01*
Y22987D01*
X22820D01*
X23820Y21987D02*
Y22147D01*
X23980D01*
Y21987D01*
X23820D01*
Y22987D02*
Y23147D01*
X23980D01*
Y22987D01*
X23820D01*
X24820Y21987D02*
Y22147D01*
X24980D01*
Y21987D01*
X24820D01*
Y22987D02*
Y23147D01*
X24980D01*
Y22987D01*
X24820D01*
X34070Y30239D02*
Y30399D01*
X34230D01*
Y30239D01*
X34070D01*
X33070D02*
Y30399D01*
X33230D01*
Y30239D01*
X33070D01*
X37501Y25483D02*
X37421Y25643D01*
X37581D01*
X37501Y25483D01*
Y27057D02*
X37421Y27217D01*
X37581D01*
X37501Y27057D01*
Y20933D02*
X37421Y21093D01*
X37581D01*
X37501Y20933D01*
Y22507D02*
X37421Y22667D01*
X37581D01*
X37501Y22507D01*
X20370Y11520D02*
Y11680D01*
X20530D01*
Y11520D01*
X20370D01*
X21370D02*
Y11680D01*
X21530D01*
Y11520D01*
X21370D01*
X20370Y10520D02*
Y10680D01*
X20530D01*
Y10520D01*
X20370D01*
X21370D02*
Y10680D01*
X21530D01*
Y10520D01*
X21370D01*
X20370Y9520D02*
Y9680D01*
X20530D01*
Y9520D01*
X20370D01*
X21370D02*
Y9680D01*
X21530D01*
Y9520D01*
X21370D01*
X20370Y8520D02*
Y8680D01*
X20530D01*
Y8520D01*
X20370D01*
X21370D02*
Y8680D01*
X21530D01*
Y8520D01*
X21370D01*
X20370Y7520D02*
Y7680D01*
X20530D01*
Y7520D01*
X20370D01*
X21370D02*
Y7680D01*
X21530D01*
Y7520D01*
X21370D01*
X20370Y19920D02*
Y20080D01*
X20530D01*
Y19920D01*
X20370D01*
X21370D02*
Y20080D01*
X21530D01*
Y19920D01*
X21370D01*
X20370Y18920D02*
Y19080D01*
X20530D01*
Y18920D01*
X20370D01*
X21370D02*
Y19080D01*
X21530D01*
Y18920D01*
X21370D01*
X20370Y17920D02*
Y18080D01*
X20530D01*
Y17920D01*
X20370D01*
X21370D02*
Y18080D01*
X21530D01*
Y17920D01*
X21370D01*
X20370Y16920D02*
Y17080D01*
X20530D01*
Y16920D01*
X20370D01*
X21370D02*
Y17080D01*
X21530D01*
Y16920D01*
X21370D01*
X20370Y15920D02*
Y16080D01*
X20530D01*
Y15920D01*
X20370D01*
X21370D02*
Y16080D01*
X21530D01*
Y15920D01*
X21370D01*
X20370Y14920D02*
Y15080D01*
X20530D01*
Y14920D01*
X20370D01*
X21370D02*
Y15080D01*
X21530D01*
Y14920D01*
X21370D01*
X1070Y25070D02*
Y25230D01*
X1230D01*
Y25070D01*
X1070D01*
Y26070D02*
Y26230D01*
X1230D01*
Y26070D01*
X1070D01*
Y27070D02*
Y27230D01*
X1230D01*
Y27070D01*
X1070D01*
Y28070D02*
Y28230D01*
X1230D01*
Y28070D01*
X1070D01*
X28117Y30692D02*
X28157Y30732D01*
X28197D01*
X28157Y30772D01*
X28197Y30812D01*
X28157D01*
X28117Y30852D01*
X28077Y30812D01*
X28037D01*
X28077Y30772D01*
X28037Y30732D01*
X28077D01*
X28117Y30692D01*
X28905D02*
X28945Y30732D01*
X28985D01*
X28945Y30772D01*
X28985Y30812D01*
X28945D01*
X28905Y30852D01*
X28865Y30812D01*
X28825D01*
X28865Y30772D01*
X28825Y30732D01*
X28865D01*
X28905Y30692D01*
X29692D02*
X29732Y30732D01*
X29772D01*
X29732Y30772D01*
X29772Y30812D01*
X29732D01*
X29692Y30852D01*
X29652Y30812D01*
X29612D01*
X29652Y30772D01*
X29612Y30732D01*
X29652D01*
X29692Y30692D01*
Y28920D02*
X29732Y28960D01*
X29772D01*
X29732Y29000D01*
X29772Y29040D01*
X29732D01*
X29692Y29080D01*
X29652Y29040D01*
X29612D01*
X29652Y29000D01*
X29612Y28960D01*
X29652D01*
X29692Y28920D01*
X28905D02*
X28945Y28960D01*
X28985D01*
X28945Y29000D01*
X28985Y29040D01*
X28945D01*
X28905Y29080D01*
X28865Y29040D01*
X28825D01*
X28865Y29000D01*
X28825Y28960D01*
X28865D01*
X28905Y28920D01*
X28117D02*
X28157Y28960D01*
X28197D01*
X28157Y29000D01*
X28197Y29040D01*
X28157D01*
X28117Y29080D01*
X28077Y29040D01*
X28037D01*
X28077Y29000D01*
X28037Y28960D01*
X28077D01*
X28117Y28920D01*
X1151Y30189D02*
X1191Y30269D01*
X1151Y30349D01*
X1231Y30309D01*
X1311Y30349D01*
X1271Y30269D01*
X1311Y30189D01*
X1231Y30229D01*
X1151Y30189D01*
Y1151D02*
X1191Y1231D01*
X1151Y1311D01*
X1231Y1271D01*
X1311Y1311D01*
X1271Y1231D01*
X1311Y1151D01*
X1231Y1191D01*
X1151Y1151D01*
X38089D02*
X38129Y1231D01*
X38089Y1311D01*
X38169Y1271D01*
X38249Y1311D01*
X38209Y1231D01*
X38249Y1151D01*
X38169Y1191D01*
X38089Y1151D01*
Y30239D02*
X38129Y30319D01*
X38089Y30399D01*
X38169Y30359D01*
X38249Y30399D01*
X38209Y30319D01*
X38249Y30239D01*
X38169Y30279D01*
X38089Y30239D01*
X24935Y10004D02*
Y9964D01*
X25015D01*
Y10004D01*
X25055D01*
Y10084D01*
X25015D01*
Y10124D01*
X24935D01*
Y10084D01*
X24895D01*
Y10004D01*
X24935D01*
X17660Y13894D02*
Y13854D01*
X17740D01*
Y13894D01*
X17780D01*
Y13974D01*
X17740D01*
Y14014D01*
X17660D01*
Y13974D01*
X17620D01*
Y13894D01*
X17660D01*
X18910D02*
Y13854D01*
X18990D01*
Y13894D01*
X19030D01*
Y13974D01*
X18990D01*
Y14014D01*
X18910D01*
Y13974D01*
X18870D01*
Y13894D01*
X18910D01*
X17660Y13131D02*
Y13091D01*
X17740D01*
Y13131D01*
X17780D01*
Y13211D01*
X17740D01*
Y13251D01*
X17660D01*
Y13211D01*
X17620D01*
Y13131D01*
X17660D01*
X18910D02*
Y13091D01*
X18990D01*
Y13131D01*
X19030D01*
Y13211D01*
X18990D01*
Y13251D01*
X18910D01*
Y13211D01*
X18870D01*
Y13131D01*
X18910D01*
X23810Y8054D02*
Y8014D01*
X23890D01*
Y8054D01*
X23930D01*
Y8134D01*
X23890D01*
Y8174D01*
X23810D01*
Y8134D01*
X23770D01*
Y8054D01*
X23810D01*
X25060D02*
Y8014D01*
X25140D01*
Y8054D01*
X25180D01*
Y8134D01*
X25140D01*
Y8174D01*
X25060D01*
Y8134D01*
X25020D01*
Y8054D01*
X25060D01*
X23810Y7291D02*
Y7251D01*
X23890D01*
Y7291D01*
X23930D01*
Y7371D01*
X23890D01*
Y7411D01*
X23810D01*
Y7371D01*
X23770D01*
Y7291D01*
X23810D01*
X25060D02*
Y7251D01*
X25140D01*
Y7291D01*
X25180D01*
Y7371D01*
X25140D01*
Y7411D01*
X25060D01*
Y7371D01*
X25020D01*
Y7291D01*
X25060D01*
X34073Y10367D02*
Y10327D01*
X34153D01*
Y10367D01*
X34193D01*
Y10447D01*
X34153D01*
Y10487D01*
X34073D01*
Y10447D01*
X34033D01*
Y10367D01*
X34073D01*
X35323D02*
Y10327D01*
X35403D01*
Y10367D01*
X35443D01*
Y10447D01*
X35403D01*
Y10487D01*
X35323D01*
Y10447D01*
X35283D01*
Y10367D01*
X35323D01*
X34073Y9603D02*
Y9563D01*
X34153D01*
Y9603D01*
X34193D01*
Y9683D01*
X34153D01*
Y9723D01*
X34073D01*
Y9683D01*
X34033D01*
Y9603D01*
X34073D01*
X35323D02*
Y9563D01*
X35403D01*
Y9603D01*
X35443D01*
Y9683D01*
X35403D01*
Y9723D01*
X35323D01*
Y9683D01*
X35283D01*
Y9603D01*
X35323D01*
X33710Y19250D02*
Y19210D01*
X33790D01*
Y19250D01*
X33830D01*
Y19330D01*
X33790D01*
Y19370D01*
X33710D01*
Y19330D01*
X33670D01*
Y19250D01*
X33710D01*
X34960D02*
Y19210D01*
X35040D01*
Y19250D01*
X35080D01*
Y19330D01*
X35040D01*
Y19370D01*
X34960D01*
Y19330D01*
X34920D01*
Y19250D01*
X34960D01*
X33710Y18487D02*
Y18447D01*
X33790D01*
Y18487D01*
X33830D01*
Y18567D01*
X33790D01*
Y18607D01*
X33710D01*
Y18567D01*
X33670D01*
Y18487D01*
X33710D01*
X34960D02*
Y18447D01*
X35040D01*
Y18487D01*
X35080D01*
Y18567D01*
X35040D01*
Y18607D01*
X34960D01*
Y18567D01*
X34920D01*
Y18487D01*
X34960D01*
X7002Y29024D02*
Y28984D01*
X7082D01*
Y29024D01*
X7122D01*
Y29104D01*
X7082D01*
Y29144D01*
X7002D01*
Y29104D01*
X6962D01*
Y29024D01*
X7002D01*
X8252D02*
Y28984D01*
X8332D01*
Y29024D01*
X8372D01*
Y29104D01*
X8332D01*
Y29144D01*
X8252D01*
Y29104D01*
X8212D01*
Y29024D01*
X8252D01*
X7002Y28260D02*
Y28220D01*
X7082D01*
Y28260D01*
X7122D01*
Y28340D01*
X7082D01*
Y28380D01*
X7002D01*
Y28340D01*
X6962D01*
Y28260D01*
X7002D01*
X8252D02*
Y28220D01*
X8332D01*
Y28260D01*
X8372D01*
Y28340D01*
X8332D01*
Y28380D01*
X8252D01*
Y28340D01*
X8212D01*
Y28260D01*
X8252D01*
X27160Y26924D02*
Y26884D01*
X27240D01*
Y26924D01*
X27280D01*
Y27004D01*
X27240D01*
Y27044D01*
X27160D01*
Y27004D01*
X27120D01*
Y26924D01*
X27160D01*
X28410D02*
Y26884D01*
X28490D01*
Y26924D01*
X28530D01*
Y27004D01*
X28490D01*
Y27044D01*
X28410D01*
Y27004D01*
X28370D01*
Y26924D01*
X28410D01*
X27160Y26160D02*
Y26120D01*
X27240D01*
Y26160D01*
X27280D01*
Y26240D01*
X27240D01*
Y26280D01*
X27160D01*
Y26240D01*
X27120D01*
Y26160D01*
X27160D01*
X28410D02*
Y26120D01*
X28490D01*
Y26160D01*
X28530D01*
Y26240D01*
X28490D01*
Y26280D01*
X28410D01*
Y26240D01*
X28370D01*
Y26160D01*
X28410D01*
X3410Y10760D02*
Y10720D01*
X3490D01*
Y10760D01*
X3530D01*
Y10840D01*
X3490D01*
Y10880D01*
X3410D01*
Y10840D01*
X3370D01*
Y10760D01*
X3410D01*
X2644D02*
Y10720D01*
X2724D01*
Y10760D01*
X2764D01*
Y10840D01*
X2724D01*
Y10880D01*
X2644D01*
Y10840D01*
X2604D01*
Y10760D01*
X2644D01*
X6760Y7210D02*
Y7170D01*
X6840D01*
Y7210D01*
X6880D01*
Y7290D01*
X6840D01*
Y7330D01*
X6760D01*
Y7290D01*
X6720D01*
Y7210D01*
X6760D01*
X5510D02*
Y7170D01*
X5590D01*
Y7210D01*
X5630D01*
Y7290D01*
X5590D01*
Y7330D01*
X5510D01*
Y7290D01*
X5470D01*
Y7210D01*
X5510D01*
X6760Y7974D02*
Y7934D01*
X6840D01*
Y7974D01*
X6880D01*
Y8054D01*
X6840D01*
Y8094D01*
X6760D01*
Y8054D01*
X6720D01*
Y7974D01*
X6760D01*
X5510D02*
Y7934D01*
X5590D01*
Y7974D01*
X5630D01*
Y8054D01*
X5590D01*
Y8094D01*
X5510D01*
Y8054D01*
X5470D01*
Y7974D01*
X5510D01*
X10652Y15139D02*
Y15099D01*
X10732D01*
Y15139D01*
X10772D01*
Y15219D01*
X10732D01*
Y15259D01*
X10652D01*
Y15219D01*
X10612D01*
Y15139D01*
X10652D01*
X10328D02*
Y15099D01*
X10408D01*
Y15139D01*
X10448D01*
Y15219D01*
X10408D01*
Y15259D01*
X10328D01*
Y15219D01*
X10288D01*
Y15139D01*
X10328D01*
X10310Y20063D02*
Y20023D01*
X10390D01*
Y20063D01*
X10430D01*
Y20143D01*
X10390D01*
Y20183D01*
X10310D01*
Y20143D01*
X10270D01*
Y20063D01*
X10310D01*
X9960Y20060D02*
Y20020D01*
X10040D01*
Y20060D01*
X10080D01*
Y20140D01*
X10040D01*
Y20180D01*
X9960D01*
Y20140D01*
X9920D01*
Y20060D01*
X9960D01*
X14144Y23924D02*
Y23884D01*
X14224D01*
Y23924D01*
X14264D01*
Y24004D01*
X14224D01*
Y24044D01*
X14144D01*
Y24004D01*
X14104D01*
Y23924D01*
X14144D01*
X13202D02*
Y23884D01*
X13282D01*
Y23924D01*
X13322D01*
Y24004D01*
X13282D01*
Y24044D01*
X13202D01*
Y24004D01*
X13162D01*
Y23924D01*
X13202D01*
X12260D02*
Y23884D01*
X12340D01*
Y23924D01*
X12380D01*
Y24004D01*
X12340D01*
Y24044D01*
X12260D01*
Y24004D01*
X12220D01*
Y23924D01*
X12260D01*
X14960Y16460D02*
Y16420D01*
X15040D01*
Y16460D01*
X15080D01*
Y16540D01*
X15040D01*
Y16580D01*
X14960D01*
Y16540D01*
X14920D01*
Y16460D01*
X14960D01*
X16660Y31110D02*
Y31070D01*
X16740D01*
Y31110D01*
X16780D01*
Y31190D01*
X16740D01*
Y31230D01*
X16660D01*
Y31190D01*
X16620D01*
Y31110D01*
X16660D01*
X17810Y15060D02*
Y15020D01*
X17890D01*
Y15060D01*
X17930D01*
Y15140D01*
X17890D01*
Y15180D01*
X17810D01*
Y15140D01*
X17770D01*
Y15060D01*
X17810D01*
X18660D02*
Y15020D01*
X18740D01*
Y15060D01*
X18780D01*
Y15140D01*
X18740D01*
Y15180D01*
X18660D01*
Y15140D01*
X18620D01*
Y15060D01*
X18660D01*
X19410Y20960D02*
Y20920D01*
X19490D01*
Y20960D01*
X19530D01*
Y21040D01*
X19490D01*
Y21080D01*
X19410D01*
Y21040D01*
X19370D01*
Y20960D01*
X19410D01*
X18035Y21566D02*
Y21526D01*
X18115D01*
Y21566D01*
X18155D01*
Y21646D01*
X18115D01*
Y21686D01*
X18035D01*
Y21646D01*
X17995D01*
Y21566D01*
X18035D01*
X14545Y19260D02*
Y19220D01*
X14625D01*
Y19260D01*
X14665D01*
Y19340D01*
X14625D01*
Y19380D01*
X14545D01*
Y19340D01*
X14505D01*
Y19260D01*
X14545D01*
X37245Y26822D02*
Y26782D01*
X37325D01*
Y26822D01*
X37365D01*
Y26902D01*
X37325D01*
Y26942D01*
X37245D01*
Y26902D01*
X37205D01*
Y26822D01*
X37245D01*
Y22272D02*
Y22232D01*
X37325D01*
Y22272D01*
X37365D01*
Y22352D01*
X37325D01*
Y22392D01*
X37245D01*
Y22352D01*
X37205D01*
Y22272D01*
X37245D01*
X3144Y13254D02*
Y13214D01*
X3224D01*
Y13254D01*
X3264D01*
Y13334D01*
X3224D01*
Y13374D01*
X3144D01*
Y13334D01*
X3104D01*
Y13254D01*
X3144D01*
Y15304D02*
Y15264D01*
X3224D01*
Y15304D01*
X3264D01*
Y15384D01*
X3224D01*
Y15424D01*
X3144D01*
Y15384D01*
X3104D01*
Y15304D01*
X3144D01*
Y17254D02*
Y17214D01*
X3224D01*
Y17254D01*
X3264D01*
Y17334D01*
X3224D01*
Y17374D01*
X3144D01*
Y17334D01*
X3104D01*
Y17254D01*
X3144D01*
Y19323D02*
Y19283D01*
X3224D01*
Y19323D01*
X3264D01*
Y19403D01*
X3224D01*
Y19443D01*
X3144D01*
Y19403D01*
X3104D01*
Y19323D01*
X3144D01*
X3110Y21554D02*
Y21514D01*
X3190D01*
Y21554D01*
X3230D01*
Y21634D01*
X3190D01*
Y21674D01*
X3110D01*
Y21634D01*
X3070D01*
Y21554D01*
X3110D01*
X2560Y23077D02*
Y23037D01*
X2640D01*
Y23077D01*
X2680D01*
Y23157D01*
X2640D01*
Y23197D01*
X2560D01*
Y23157D01*
X2520D01*
Y23077D01*
X2560D01*
X16660Y27110D02*
Y27070D01*
X16740D01*
Y27110D01*
X16780D01*
Y27190D01*
X16740D01*
Y27230D01*
X16660D01*
Y27190D01*
X16620D01*
Y27110D01*
X16660D01*
X21188D02*
Y27070D01*
X21268D01*
Y27110D01*
X21308D01*
Y27190D01*
X21268D01*
Y27230D01*
X21188D01*
Y27190D01*
X21148D01*
Y27110D01*
X21188D01*
X27460Y18810D02*
Y18770D01*
X27540D01*
Y18810D01*
X27580D01*
Y18890D01*
X27540D01*
Y18930D01*
X27460D01*
Y18890D01*
X27420D01*
Y18810D01*
X27460D01*
X27660Y17260D02*
Y17220D01*
X27740D01*
Y17260D01*
X27780D01*
Y17340D01*
X27740D01*
Y17380D01*
X27660D01*
Y17340D01*
X27620D01*
Y17260D01*
X27660D01*
X27360Y18410D02*
Y18370D01*
X27440D01*
Y18410D01*
X27480D01*
Y18490D01*
X27440D01*
Y18530D01*
X27360D01*
Y18490D01*
X27320D01*
Y18410D01*
X27360D01*
X31310Y14060D02*
Y14020D01*
X31390D01*
Y14060D01*
X31430D01*
Y14140D01*
X31390D01*
Y14180D01*
X31310D01*
Y14140D01*
X31270D01*
Y14060D01*
X31310D01*
X25060Y14404D02*
Y14364D01*
X25140D01*
Y14404D01*
X25180D01*
Y14484D01*
X25140D01*
Y14524D01*
X25060D01*
Y14484D01*
X25020D01*
Y14404D01*
X25060D01*
X32060Y16957D02*
Y16917D01*
X32140D01*
Y16957D01*
X32180D01*
Y17037D01*
X32140D01*
Y17077D01*
X32060D01*
Y17037D01*
X32020D01*
Y16957D01*
X32060D01*
Y14006D02*
Y13966D01*
X32140D01*
Y14006D01*
X32180D01*
Y14086D01*
X32140D01*
Y14126D01*
X32060D01*
Y14086D01*
X32020D01*
Y14006D01*
X32060D01*
X32260Y9890D02*
Y9850D01*
X32340D01*
Y9890D01*
X32380D01*
Y9970D01*
X32340D01*
Y10010D01*
X32260D01*
Y9970D01*
X32220D01*
Y9890D01*
X32260D01*
X29660Y11597D02*
Y11557D01*
X29740D01*
Y11597D01*
X29780D01*
Y11677D01*
X29740D01*
Y11717D01*
X29660D01*
Y11677D01*
X29620D01*
Y11597D01*
X29660D01*
X27910Y9890D02*
Y9850D01*
X27990D01*
Y9890D01*
X28030D01*
Y9970D01*
X27990D01*
Y10010D01*
X27910D01*
Y9970D01*
X27870D01*
Y9890D01*
X27910D01*
X27210Y5560D02*
Y5520D01*
X27290D01*
Y5560D01*
X27330D01*
Y5640D01*
X27290D01*
Y5680D01*
X27210D01*
Y5640D01*
X27170D01*
Y5560D01*
X27210D01*
X26560Y3829D02*
Y3789D01*
X26640D01*
Y3829D01*
X26680D01*
Y3909D01*
X26640D01*
Y3949D01*
X26560D01*
Y3909D01*
X26520D01*
Y3829D01*
X26560D01*
X27560D02*
Y3789D01*
X27640D01*
Y3829D01*
X27680D01*
Y3909D01*
X27640D01*
Y3949D01*
X27560D01*
Y3909D01*
X27520D01*
Y3829D01*
X27560D01*
X29960Y7441D02*
Y7401D01*
X30040D01*
Y7441D01*
X30080D01*
Y7521D01*
X30040D01*
Y7561D01*
X29960D01*
Y7521D01*
X29920D01*
Y7441D01*
X29960D01*
X30061Y3898D02*
Y3858D01*
X30141D01*
Y3898D01*
X30181D01*
Y3978D01*
X30141D01*
Y4018D01*
X30061D01*
Y3978D01*
X30021D01*
Y3898D01*
X30061D01*
X33209Y4696D02*
Y4656D01*
X33289D01*
Y4696D01*
X33329D01*
Y4776D01*
X33289D01*
Y4816D01*
X33209D01*
Y4776D01*
X33169D01*
Y4696D01*
X33209D01*
X31810Y4482D02*
Y4442D01*
X31890D01*
Y4482D01*
X31930D01*
Y4562D01*
X31890D01*
Y4602D01*
X31810D01*
Y4562D01*
X31770D01*
Y4482D01*
X31810D01*
X31560Y6903D02*
Y6863D01*
X31640D01*
Y6903D01*
X31680D01*
Y6983D01*
X31640D01*
Y7023D01*
X31560D01*
Y6983D01*
X31520D01*
Y6903D01*
X31560D01*
X34311D02*
Y6863D01*
X34391D01*
Y6903D01*
X34431D01*
Y6983D01*
X34391D01*
Y7023D01*
X34311D01*
Y6983D01*
X34271D01*
Y6903D01*
X34311D01*
X35260Y7116D02*
Y7076D01*
X35340D01*
Y7116D01*
X35380D01*
Y7196D01*
X35340D01*
Y7236D01*
X35260D01*
Y7196D01*
X35220D01*
Y7116D01*
X35260D01*
X35760Y3875D02*
Y3835D01*
X35840D01*
Y3875D01*
X35880D01*
Y3955D01*
X35840D01*
Y3995D01*
X35760D01*
Y3955D01*
X35720D01*
Y3875D01*
X35760D01*
X38710Y3760D02*
Y3720D01*
X38790D01*
Y3760D01*
X38830D01*
Y3840D01*
X38790D01*
Y3880D01*
X38710D01*
Y3840D01*
X38670D01*
Y3760D01*
X38710D01*
X38407Y7184D02*
Y7144D01*
X38487D01*
Y7184D01*
X38527D01*
Y7264D01*
X38487D01*
Y7304D01*
X38407D01*
Y7264D01*
X38367D01*
Y7184D01*
X38407D01*
X37918Y11099D02*
Y11059D01*
X37998D01*
Y11099D01*
X38038D01*
Y11179D01*
X37998D01*
Y11219D01*
X37918D01*
Y11179D01*
X37878D01*
Y11099D01*
X37918D01*
X37460Y13254D02*
Y13214D01*
X37540D01*
Y13254D01*
X37580D01*
Y13334D01*
X37540D01*
Y13374D01*
X37460D01*
Y13334D01*
X37420D01*
Y13254D01*
X37460D01*
X37468Y15811D02*
Y15771D01*
X37548D01*
Y15811D01*
X37588D01*
Y15891D01*
X37548D01*
Y15931D01*
X37468D01*
Y15891D01*
X37428D01*
Y15811D01*
X37468D01*
X37215Y16960D02*
Y16920D01*
X37295D01*
Y16960D01*
X37335D01*
Y17040D01*
X37295D01*
Y17080D01*
X37215D01*
Y17040D01*
X37175D01*
Y16960D01*
X37215D01*
X34427Y16860D02*
Y16820D01*
X34507D01*
Y16860D01*
X34547D01*
Y16940D01*
X34507D01*
Y16980D01*
X34427D01*
Y16940D01*
X34387D01*
Y16860D01*
X34427D01*
X31654Y19307D02*
Y19267D01*
X31734D01*
Y19307D01*
X31774D01*
Y19387D01*
X31734D01*
Y19427D01*
X31654D01*
Y19387D01*
X31614D01*
Y19307D01*
X31654D01*
X30854Y20333D02*
Y20293D01*
X30934D01*
Y20333D01*
X30974D01*
Y20413D01*
X30934D01*
Y20453D01*
X30854D01*
Y20413D01*
X30814D01*
Y20333D01*
X30854D01*
X27696Y19360D02*
Y19320D01*
X27776D01*
Y19360D01*
X27816D01*
Y19440D01*
X27776D01*
Y19480D01*
X27696D01*
Y19440D01*
X27656D01*
Y19360D01*
X27696D01*
X29065Y21828D02*
Y21788D01*
X29145D01*
Y21828D01*
X29185D01*
Y21908D01*
X29145D01*
Y21948D01*
X29065D01*
Y21908D01*
X29025D01*
Y21828D01*
X29065D01*
X9113Y1510D02*
Y1470D01*
X9193D01*
Y1510D01*
X9233D01*
Y1590D01*
X9193D01*
Y1630D01*
X9113D01*
Y1590D01*
X9073D01*
Y1510D01*
X9113D01*
X17310Y660D02*
Y620D01*
X17390D01*
Y660D01*
X17430D01*
Y740D01*
X17390D01*
Y780D01*
X17310D01*
Y740D01*
X17270D01*
Y660D01*
X17310D01*
X17810D02*
Y620D01*
X17890D01*
Y660D01*
X17930D01*
Y740D01*
X17890D01*
Y780D01*
X17810D01*
Y740D01*
X17770D01*
Y660D01*
X17810D01*
X15810D02*
Y620D01*
X15890D01*
Y660D01*
X15930D01*
Y740D01*
X15890D01*
Y780D01*
X15810D01*
Y740D01*
X15770D01*
Y660D01*
X15810D01*
X17800Y8160D02*
Y8120D01*
X17880D01*
Y8160D01*
X17920D01*
Y8240D01*
X17880D01*
Y8280D01*
X17800D01*
Y8240D01*
X17760D01*
Y8160D01*
X17800D01*
X17306D02*
Y8120D01*
X17386D01*
Y8160D01*
X17426D01*
Y8240D01*
X17386D01*
Y8280D01*
X17306D01*
Y8240D01*
X17266D01*
Y8160D01*
X17306D01*
X15810D02*
Y8120D01*
X15890D01*
Y8160D01*
X15930D01*
Y8240D01*
X15890D01*
Y8280D01*
X15810D01*
Y8240D01*
X15770D01*
Y8160D01*
X15810D01*
X13361Y10160D02*
Y10120D01*
X13441D01*
Y10160D01*
X13481D01*
Y10240D01*
X13441D01*
Y10280D01*
X13361D01*
Y10240D01*
X13321D01*
Y10160D01*
X13361D01*
X10461D02*
Y10120D01*
X10541D01*
Y10160D01*
X10581D01*
Y10240D01*
X10541D01*
Y10280D01*
X10461D01*
Y10240D01*
X10421D01*
Y10160D01*
X10461D01*
X6460Y10000D02*
Y9960D01*
X6540D01*
Y10000D01*
X6580D01*
Y10080D01*
X6540D01*
Y10120D01*
X6460D01*
Y10080D01*
X6420D01*
Y10000D01*
X6460D01*
X6460Y10930D02*
Y10890D01*
X6540D01*
Y10930D01*
X6580D01*
Y11010D01*
X6540D01*
Y11050D01*
X6460D01*
Y11010D01*
X6420D01*
Y10930D01*
X6460D01*
X6460Y11860D02*
Y11820D01*
X6540D01*
Y11860D01*
X6580D01*
Y11940D01*
X6540D01*
Y11980D01*
X6460D01*
Y11940D01*
X6420D01*
Y11860D01*
X6460D01*
X6460Y12790D02*
Y12750D01*
X6540D01*
Y12790D01*
X6580D01*
Y12870D01*
X6540D01*
Y12910D01*
X6460D01*
Y12870D01*
X6420D01*
Y12790D01*
X6460D01*
X6460Y13720D02*
Y13680D01*
X6540D01*
Y13720D01*
X6580D01*
Y13800D01*
X6540D01*
Y13840D01*
X6460D01*
Y13800D01*
X6420D01*
Y13720D01*
X6460D01*
X6460Y14650D02*
Y14610D01*
X6540D01*
Y14650D01*
X6580D01*
Y14730D01*
X6540D01*
Y14770D01*
X6460D01*
Y14730D01*
X6420D01*
Y14650D01*
X6460D01*
X6460Y15580D02*
Y15540D01*
X6540D01*
Y15580D01*
X6580D01*
Y15660D01*
X6540D01*
Y15700D01*
X6460D01*
Y15660D01*
X6420D01*
Y15580D01*
X6460D01*
X6460Y16510D02*
Y16470D01*
X6540D01*
Y16510D01*
X6580D01*
Y16590D01*
X6540D01*
Y16630D01*
X6460D01*
Y16590D01*
X6420D01*
Y16510D01*
X6460D01*
X6460Y17440D02*
Y17400D01*
X6540D01*
Y17440D01*
X6580D01*
Y17520D01*
X6540D01*
Y17560D01*
X6460D01*
Y17520D01*
X6420D01*
Y17440D01*
X6460D01*
X6460Y18370D02*
Y18330D01*
X6540D01*
Y18370D01*
X6580D01*
Y18450D01*
X6540D01*
Y18490D01*
X6460D01*
Y18450D01*
X6420D01*
Y18370D01*
X6460D01*
X6460Y19300D02*
Y19260D01*
X6540D01*
Y19300D01*
X6580D01*
Y19380D01*
X6540D01*
Y19420D01*
X6460D01*
Y19380D01*
X6420D01*
Y19300D01*
X6460D01*
X6460Y20230D02*
Y20190D01*
X6540D01*
Y20230D01*
X6580D01*
Y20310D01*
X6540D01*
Y20350D01*
X6460D01*
Y20310D01*
X6420D01*
Y20230D01*
X6460D01*
X6460Y21160D02*
Y21120D01*
X6540D01*
Y21160D01*
X6580D01*
Y21240D01*
X6540D01*
Y21280D01*
X6460D01*
Y21240D01*
X6420D01*
Y21160D01*
X6460D01*
Y22110D02*
Y22070D01*
X6540D01*
Y22110D01*
X6580D01*
Y22190D01*
X6540D01*
Y22230D01*
X6460D01*
Y22190D01*
X6420D01*
Y22110D01*
X6460D01*
Y23010D02*
Y22970D01*
X6540D01*
Y23010D01*
X6580D01*
Y23090D01*
X6540D01*
Y23130D01*
X6460D01*
Y23090D01*
X6420D01*
Y23010D01*
X6460D01*
Y23960D02*
Y23920D01*
X6540D01*
Y23960D01*
X6580D01*
Y24040D01*
X6540D01*
Y24080D01*
X6460D01*
Y24040D01*
X6420D01*
Y23960D01*
X6460D01*
X22301Y6288D02*
Y6248D01*
X22381D01*
Y6288D01*
X22421D01*
Y6368D01*
X22381D01*
Y6408D01*
X22301D01*
Y6368D01*
X22261D01*
Y6288D01*
X22301D01*
X25710Y6299D02*
Y6259D01*
X25790D01*
Y6299D01*
X25830D01*
Y6379D01*
X25790D01*
Y6419D01*
X25710D01*
Y6379D01*
X25670D01*
Y6299D01*
X25710D01*
X25910Y360D02*
Y320D01*
X25990D01*
Y360D01*
X26030D01*
Y440D01*
X25990D01*
Y480D01*
X25910D01*
Y440D01*
X25870D01*
Y360D01*
X25910D01*
X31360Y11660D02*
Y11620D01*
X31440D01*
Y11660D01*
X31480D01*
Y11740D01*
X31440D01*
Y11780D01*
X31360D01*
Y11740D01*
X31320D01*
Y11660D01*
X31360D01*
X34510Y27310D02*
Y27270D01*
X34590D01*
Y27310D01*
X34630D01*
Y27390D01*
X34590D01*
Y27430D01*
X34510D01*
Y27390D01*
X34470D01*
Y27310D01*
X34510D01*
X31660Y24610D02*
Y24570D01*
X31740D01*
Y24610D01*
X31780D01*
Y24690D01*
X31740D01*
Y24730D01*
X31660D01*
Y24690D01*
X31620D01*
Y24610D01*
X31660D01*
X27562Y22646D02*
Y22606D01*
X27642D01*
Y22646D01*
X27682D01*
Y22726D01*
X27642D01*
Y22766D01*
X27562D01*
Y22726D01*
X27522D01*
Y22646D01*
X27562D01*
X27090Y19707D02*
Y19667D01*
X27170D01*
Y19707D01*
X27210D01*
Y19787D01*
X27170D01*
Y19827D01*
X27090D01*
Y19787D01*
X27050D01*
Y19707D01*
X27090D01*
X21210Y27610D02*
Y27570D01*
X21290D01*
Y27610D01*
X21330D01*
Y27690D01*
X21290D01*
Y27730D01*
X21210D01*
Y27690D01*
X21170D01*
Y27610D01*
X21210D01*
X36260Y21010D02*
Y20970D01*
X36340D01*
Y21010D01*
X36380D01*
Y21090D01*
X36340D01*
Y21130D01*
X36260D01*
Y21090D01*
X36220D01*
Y21010D01*
X36260D01*
Y22210D02*
Y22170D01*
X36340D01*
Y22210D01*
X36380D01*
Y22290D01*
X36340D01*
Y22330D01*
X36260D01*
Y22290D01*
X36220D01*
Y22210D01*
X36260D01*
X27160Y23460D02*
Y23420D01*
X27240D01*
Y23460D01*
X27280D01*
Y23540D01*
X27240D01*
Y23580D01*
X27160D01*
Y23540D01*
X27120D01*
Y23460D01*
X27160D01*
X27760Y18860D02*
Y18820D01*
X27840D01*
Y18860D01*
X27880D01*
Y18940D01*
X27840D01*
Y18980D01*
X27760D01*
Y18940D01*
X27720D01*
Y18860D01*
X27760D01*
X34532Y26532D02*
Y26492D01*
X34612D01*
Y26532D01*
X34652D01*
Y26612D01*
X34612D01*
Y26652D01*
X34532D01*
Y26612D01*
X34492D01*
Y26532D01*
X34532D01*
Y25757D02*
Y25717D01*
X34612D01*
Y25757D01*
X34652D01*
Y25837D01*
X34612D01*
Y25877D01*
X34532D01*
Y25837D01*
X34492D01*
Y25757D01*
X34532D01*
X25060Y18110D02*
Y18070D01*
X25140D01*
Y18110D01*
X25180D01*
Y18190D01*
X25140D01*
Y18230D01*
X25060D01*
Y18190D01*
X25020D01*
Y18110D01*
X25060D01*
X23710Y18410D02*
Y18370D01*
X23790D01*
Y18410D01*
X23830D01*
Y18490D01*
X23790D01*
Y18530D01*
X23710D01*
Y18490D01*
X23670D01*
Y18410D01*
X23710D01*
X23920Y18110D02*
Y18070D01*
X24000D01*
Y18110D01*
X24040D01*
Y18190D01*
X24000D01*
Y18230D01*
X23920D01*
Y18190D01*
X23880D01*
Y18110D01*
X23920D01*
X38860Y9210D02*
Y9170D01*
X38940D01*
Y9210D01*
X38980D01*
Y9290D01*
X38940D01*
Y9330D01*
X38860D01*
Y9290D01*
X38820D01*
Y9210D01*
X38860D01*
X37215D02*
Y9170D01*
X37295D01*
Y9210D01*
X37335D01*
Y9290D01*
X37295D01*
Y9330D01*
X37215D01*
Y9290D01*
X37175D01*
Y9210D01*
X37215D01*
X13707Y10913D02*
Y10873D01*
X13787D01*
Y10913D01*
X13827D01*
Y10993D01*
X13787D01*
Y11033D01*
X13707D01*
Y10993D01*
X13667D01*
Y10913D01*
X13707D01*
X11910Y10910D02*
Y10870D01*
X11990D01*
Y10910D01*
X12030D01*
Y10990D01*
X11990D01*
Y11030D01*
X11910D01*
Y10990D01*
X11870D01*
Y10910D01*
X11910D01*
X20610Y23724D02*
Y23684D01*
X20690D01*
Y23724D01*
X20730D01*
Y23804D01*
X20690D01*
Y23844D01*
X20610D01*
Y23804D01*
X20570D01*
Y23724D01*
X20610D01*
X20560Y24610D02*
Y24570D01*
X20640D01*
Y24610D01*
X20680D01*
Y24690D01*
X20640D01*
Y24730D01*
X20560D01*
Y24690D01*
X20520D01*
Y24610D01*
X20560D01*
X26510Y20510D02*
Y20470D01*
X26590D01*
Y20510D01*
X26630D01*
Y20590D01*
X26590D01*
Y20630D01*
X26510D01*
Y20590D01*
X26470D01*
Y20510D01*
X26510D01*
X29260Y18560D02*
Y18520D01*
X29340D01*
Y18560D01*
X29380D01*
Y18640D01*
X29340D01*
Y18680D01*
X29260D01*
Y18640D01*
X29220D01*
Y18560D01*
X29260D01*
X24354Y16260D02*
Y16220D01*
X24434D01*
Y16260D01*
X24474D01*
Y16340D01*
X24434D01*
Y16380D01*
X24354D01*
Y16340D01*
X24314D01*
Y16260D01*
X24354D01*
X24360Y15960D02*
Y15920D01*
X24440D01*
Y15960D01*
X24480D01*
Y16040D01*
X24440D01*
Y16080D01*
X24360D01*
Y16040D01*
X24320D01*
Y15960D01*
X24360D01*
X30046Y13010D02*
Y12970D01*
X30126D01*
Y13010D01*
X30166D01*
Y13090D01*
X30126D01*
Y13130D01*
X30046D01*
Y13090D01*
X30006D01*
Y13010D01*
X30046D01*
X27410Y11360D02*
Y11320D01*
X27490D01*
Y11360D01*
X27530D01*
Y11440D01*
X27490D01*
Y11480D01*
X27410D01*
Y11440D01*
X27370D01*
Y11360D01*
X27410D01*
X27360Y10960D02*
Y10920D01*
X27440D01*
Y10960D01*
X27480D01*
Y11040D01*
X27440D01*
Y11080D01*
X27360D01*
Y11040D01*
X27320D01*
Y10960D01*
X27360D01*
X13661Y19054D02*
Y19014D01*
X13741D01*
Y19054D01*
X13781D01*
Y19134D01*
X13741D01*
Y19174D01*
X13661D01*
Y19134D01*
X13621D01*
Y19054D01*
X13661D01*
X13058Y20510D02*
Y20470D01*
X13138D01*
Y20510D01*
X13178D01*
Y20590D01*
X13138D01*
Y20630D01*
X13058D01*
Y20590D01*
X13018D01*
Y20510D01*
X13058D01*
X28310Y14760D02*
Y14720D01*
X28390D01*
Y14760D01*
X28430D01*
Y14840D01*
X28390D01*
Y14880D01*
X28310D01*
Y14840D01*
X28270D01*
Y14760D01*
X28310D01*
X28110Y14110D02*
Y14070D01*
X28190D01*
Y14110D01*
X28230D01*
Y14190D01*
X28190D01*
Y14230D01*
X28110D01*
Y14190D01*
X28070D01*
Y14110D01*
X28110D01*
X28660Y14910D02*
Y14870D01*
X28740D01*
Y14910D01*
X28780D01*
Y14990D01*
X28740D01*
Y15030D01*
X28660D01*
Y14990D01*
X28620D01*
Y14910D01*
X28660D01*
X28160Y14460D02*
Y14420D01*
X28240D01*
Y14460D01*
X28280D01*
Y14540D01*
X28240D01*
Y14580D01*
X28160D01*
Y14540D01*
X28120D01*
Y14460D01*
X28160D01*
X13186Y15811D02*
Y15771D01*
X13266D01*
Y15811D01*
X13306D01*
Y15891D01*
X13266D01*
Y15931D01*
X13186D01*
Y15891D01*
X13146D01*
Y15811D01*
X13186D01*
X12435Y15860D02*
Y15820D01*
X12515D01*
Y15860D01*
X12555D01*
Y15940D01*
X12515D01*
Y15980D01*
X12435D01*
Y15940D01*
X12395D01*
Y15860D01*
X12435D01*
D90*
X38428Y27462D02*
G03*
X38428Y27462I-80J0D01*
G01*
Y25238D02*
G03*
X38428Y25238I-80J0D01*
G01*
Y22912D02*
G03*
X38428Y22912I-80J0D01*
G01*
Y20688D02*
G03*
X38428Y20688I-80J0D01*
G01*
M02*
