G04*
G04 #@! TF.GenerationSoftware,Altium Limited,Altium Designer,18.1.9 (240)*
G04*
G04 Layer_Color=8421504*
%FSLAX24Y24*%
%MOIN*%
G70*
G01*
G75*
%ADD17C,0.0200*%
%ADD22C,0.0050*%
%ADD26O,0.0630X0.0236*%
%ADD27R,0.1142X0.1575*%
%ADD28R,0.0366X0.0386*%
%ADD29R,0.0386X0.0366*%
%ADD30R,0.0256X0.0236*%
%ADD31O,0.0787X0.0087*%
%ADD32R,0.0787X0.0087*%
%ADD33R,0.0087X0.0787*%
%ADD34R,0.0236X0.0256*%
%ADD35R,0.1024X0.0709*%
%ADD36R,0.0787X0.0787*%
%ADD37R,0.0433X0.0236*%
%ADD38R,0.0492X0.0276*%
%ADD39O,0.0236X0.0709*%
%ADD40R,0.0551X0.0453*%
%ADD41C,0.0591*%
%ADD42O,0.0110X0.0709*%
%ADD43O,0.0709X0.0110*%
%ADD44R,0.0457X0.0579*%
%ADD45R,0.0610X0.0157*%
%ADD46R,0.0748X0.0709*%
%ADD47R,0.0335X0.0138*%
%ADD48O,0.0335X0.0138*%
%ADD49R,0.0315X0.0315*%
%ADD50R,0.0787X0.0394*%
%ADD51R,0.0394X0.0709*%
%ADD52R,0.0748X0.0945*%
D17*
X0Y23622D02*
X25591D01*
Y0D02*
Y23622D01*
X0Y0D02*
X25591D01*
X0D02*
Y23622D01*
D22*
X24171Y15478D02*
X24611D01*
X24171Y15298D02*
X24611D01*
X24171D02*
Y15478D01*
X24611Y15298D02*
Y15478D01*
X24171Y17702D02*
X24611D01*
X24171Y17522D02*
X24611D01*
X24171D02*
Y17702D01*
X24611Y17522D02*
Y17702D01*
D26*
X19876Y21700D02*
D03*
Y21200D02*
D03*
Y20700D02*
D03*
Y20200D02*
D03*
X21924Y21700D02*
D03*
Y21200D02*
D03*
Y20700D02*
D03*
Y20200D02*
D03*
D27*
X20900Y20950D02*
D03*
D28*
X23789Y12174D02*
D03*
X24396D02*
D03*
X16703Y20374D02*
D03*
X16097D02*
D03*
X16703Y21174D02*
D03*
X16097D02*
D03*
D29*
X15561Y13425D02*
D03*
Y14031D02*
D03*
X24550Y10203D02*
D03*
Y9597D02*
D03*
Y7403D02*
D03*
Y6797D02*
D03*
Y8803D02*
D03*
Y8197D02*
D03*
D30*
X15050Y13565D02*
D03*
Y13900D02*
D03*
X23950Y5567D02*
D03*
Y5233D02*
D03*
X22883Y21635D02*
D03*
Y21300D02*
D03*
X23400Y21635D02*
D03*
Y21300D02*
D03*
X17815Y17967D02*
D03*
Y17633D02*
D03*
X17921Y13740D02*
D03*
Y14075D02*
D03*
X19250Y13740D02*
D03*
Y14075D02*
D03*
X23950Y8300D02*
D03*
Y8635D02*
D03*
X25150Y10085D02*
D03*
Y9750D02*
D03*
X21650Y2054D02*
D03*
Y1720D02*
D03*
X22650D02*
D03*
Y2054D02*
D03*
Y3278D02*
D03*
Y2944D02*
D03*
X22150D02*
D03*
Y3278D02*
D03*
X21650Y2944D02*
D03*
Y3278D02*
D03*
X15600Y3285D02*
D03*
Y2950D02*
D03*
X7150Y15253D02*
D03*
Y15587D02*
D03*
X5800Y9885D02*
D03*
Y9550D02*
D03*
X6950Y2347D02*
D03*
Y2682D02*
D03*
X6306Y2337D02*
D03*
Y2672D02*
D03*
X9000Y2350D02*
D03*
Y2685D02*
D03*
X11486Y2133D02*
D03*
Y2467D02*
D03*
X8350Y2685D02*
D03*
Y2350D02*
D03*
X7700D02*
D03*
Y2685D02*
D03*
X22900Y14285D02*
D03*
Y13950D02*
D03*
X2979Y15285D02*
D03*
Y15620D02*
D03*
X6051Y13215D02*
D03*
Y13550D02*
D03*
X3501Y13233D02*
D03*
Y13567D02*
D03*
X2886D02*
D03*
Y13233D02*
D03*
X13350Y3285D02*
D03*
Y2950D02*
D03*
X15600Y2054D02*
D03*
Y1720D02*
D03*
X18900Y2054D02*
D03*
Y1720D02*
D03*
X20058Y2054D02*
D03*
Y1720D02*
D03*
X22150Y2054D02*
D03*
Y1720D02*
D03*
X13700Y7668D02*
D03*
Y8003D02*
D03*
Y9501D02*
D03*
Y9836D02*
D03*
X23950Y10929D02*
D03*
Y11264D02*
D03*
X6500Y9885D02*
D03*
Y9550D02*
D03*
X14900Y19367D02*
D03*
Y19033D02*
D03*
X20440Y19256D02*
D03*
Y18921D02*
D03*
X14900Y17638D02*
D03*
Y17973D02*
D03*
Y20891D02*
D03*
Y20557D02*
D03*
X25150Y8667D02*
D03*
Y8333D02*
D03*
Y7267D02*
D03*
Y6933D02*
D03*
X20558Y2054D02*
D03*
Y1720D02*
D03*
X23950Y6933D02*
D03*
Y7267D02*
D03*
D31*
X6226Y7892D02*
D03*
D32*
Y7695D02*
D03*
Y7498D02*
D03*
Y7302D02*
D03*
Y7105D02*
D03*
Y6908D02*
D03*
Y6711D02*
D03*
Y6514D02*
D03*
Y6317D02*
D03*
Y6120D02*
D03*
Y5924D02*
D03*
Y5727D02*
D03*
Y5530D02*
D03*
Y5333D02*
D03*
Y5136D02*
D03*
Y4939D02*
D03*
X10950D02*
D03*
Y5136D02*
D03*
Y5333D02*
D03*
Y5530D02*
D03*
Y5727D02*
D03*
Y5924D02*
D03*
Y6120D02*
D03*
Y6317D02*
D03*
Y6514D02*
D03*
Y6711D02*
D03*
Y6908D02*
D03*
Y7105D02*
D03*
Y7302D02*
D03*
Y7498D02*
D03*
Y7695D02*
D03*
Y7892D02*
D03*
D33*
X7111Y4054D02*
D03*
X7308D02*
D03*
X7505D02*
D03*
X7702D02*
D03*
X7899D02*
D03*
X8096D02*
D03*
X8293D02*
D03*
X8489D02*
D03*
X8686D02*
D03*
X8883D02*
D03*
X9080D02*
D03*
X9277D02*
D03*
X9474D02*
D03*
X9670D02*
D03*
X9867D02*
D03*
X10064D02*
D03*
Y8778D02*
D03*
X9867D02*
D03*
X9670D02*
D03*
X9474D02*
D03*
X9277D02*
D03*
X9080D02*
D03*
X8883D02*
D03*
X8686D02*
D03*
X8489D02*
D03*
X8293D02*
D03*
X8096D02*
D03*
X7899D02*
D03*
X7702D02*
D03*
X7505D02*
D03*
X7308D02*
D03*
X7111D02*
D03*
D34*
X5017Y9850D02*
D03*
X4683D02*
D03*
Y9085D02*
D03*
X5017D02*
D03*
X5017Y8435D02*
D03*
X4683D02*
D03*
X5017Y7785D02*
D03*
X4683D02*
D03*
X5017Y7135D02*
D03*
X4683D02*
D03*
X5017Y6485D02*
D03*
X4683D02*
D03*
X5017Y5835D02*
D03*
X4683D02*
D03*
X5017Y5185D02*
D03*
X4683D02*
D03*
X5017Y4535D02*
D03*
X4683D02*
D03*
X5017Y3885D02*
D03*
X4683D02*
D03*
X4141Y3885D02*
D03*
X3806D02*
D03*
X4141Y4535D02*
D03*
X3806D02*
D03*
X4141Y5185D02*
D03*
X3806D02*
D03*
X4141Y5835D02*
D03*
X3806D02*
D03*
X4141Y6485D02*
D03*
X3806D02*
D03*
X4141Y7135D02*
D03*
X3806D02*
D03*
X4141Y7785D02*
D03*
X3806D02*
D03*
X4141Y8435D02*
D03*
X3806D02*
D03*
X7150Y13055D02*
D03*
X6815D02*
D03*
Y13655D02*
D03*
X7150D02*
D03*
X9352Y20200D02*
D03*
X9017D02*
D03*
X9352Y20800D02*
D03*
X9017D02*
D03*
X22898Y20700D02*
D03*
X23233D02*
D03*
X13684Y21050D02*
D03*
X14019D02*
D03*
X13686Y20574D02*
D03*
X14021D02*
D03*
X17833Y16256D02*
D03*
X18167D02*
D03*
X17833Y16819D02*
D03*
X18167D02*
D03*
X20215Y14430D02*
D03*
X20550D02*
D03*
X20567Y13750D02*
D03*
X20233D02*
D03*
X23925Y12774D02*
D03*
X24260D02*
D03*
X20333Y3268D02*
D03*
X20667D02*
D03*
X19367D02*
D03*
X19033D02*
D03*
X17715D02*
D03*
X18050D02*
D03*
X13710Y5208D02*
D03*
X13375D02*
D03*
X13710Y4719D02*
D03*
X13375D02*
D03*
X13710Y6219D02*
D03*
X13375D02*
D03*
X11985Y9750D02*
D03*
X11650D02*
D03*
X11985Y10300D02*
D03*
X11650D02*
D03*
X7550Y10700D02*
D03*
X7885D02*
D03*
X8917D02*
D03*
X8583D02*
D03*
X9650Y10711D02*
D03*
X9985D02*
D03*
X9650Y10153D02*
D03*
X9985D02*
D03*
X9965Y12806D02*
D03*
X9631D02*
D03*
X9631Y13378D02*
D03*
X9965D02*
D03*
X9631Y13950D02*
D03*
X9965D02*
D03*
X9631Y15076D02*
D03*
X9965D02*
D03*
X9631Y15824D02*
D03*
X9965D02*
D03*
X5231Y15120D02*
D03*
X5565D02*
D03*
X5231Y15720D02*
D03*
X5565D02*
D03*
X8924Y10142D02*
D03*
X8589D02*
D03*
X7563D02*
D03*
X7898D02*
D03*
X18985Y21600D02*
D03*
X18650D02*
D03*
X10765Y9750D02*
D03*
X11100D02*
D03*
X18985Y21051D02*
D03*
X18650D02*
D03*
D35*
X10236Y2367D02*
D03*
Y1186D02*
D03*
D36*
X4700Y11750D02*
D03*
X3046D02*
D03*
X14800Y22300D02*
D03*
X13146D02*
D03*
X16160Y19150D02*
D03*
X17814D02*
D03*
D37*
X5402Y13774D02*
D03*
Y13026D02*
D03*
X4300D02*
D03*
Y13400D02*
D03*
Y13774D02*
D03*
X8952Y15824D02*
D03*
Y15076D02*
D03*
X7850D02*
D03*
Y15450D02*
D03*
Y15824D02*
D03*
X8951Y13674D02*
D03*
Y12926D02*
D03*
X7849D02*
D03*
Y13300D02*
D03*
Y13674D02*
D03*
D38*
X15958Y22350D02*
D03*
X16942Y22724D02*
D03*
Y21976D02*
D03*
X16092Y17806D02*
D03*
X17076Y18180D02*
D03*
Y17431D02*
D03*
X18798Y19106D02*
D03*
X19782Y19480D02*
D03*
Y18731D02*
D03*
D39*
X22400Y17479D02*
D03*
X21900D02*
D03*
X21400D02*
D03*
X20900D02*
D03*
X20400D02*
D03*
X19900D02*
D03*
X19400D02*
D03*
X18900D02*
D03*
X22400Y15432D02*
D03*
X21900D02*
D03*
X21400D02*
D03*
X20900D02*
D03*
X20400D02*
D03*
X19900D02*
D03*
X19400D02*
D03*
X18900D02*
D03*
D40*
X22166Y13800D02*
D03*
X21300Y14430D02*
D03*
Y13800D02*
D03*
X22166Y14430D02*
D03*
D41*
X25081Y4300D02*
D03*
X23900D02*
D03*
X25081Y1938D02*
D03*
X23900D02*
D03*
D42*
X15362Y4315D02*
D03*
X15559D02*
D03*
X15756D02*
D03*
X15953D02*
D03*
X16150D02*
D03*
X16346D02*
D03*
X16543D02*
D03*
X16740D02*
D03*
X16937D02*
D03*
X17134D02*
D03*
X17331D02*
D03*
X17528D02*
D03*
X17724D02*
D03*
X17921D02*
D03*
X18118D02*
D03*
X18315D02*
D03*
X18512D02*
D03*
X18709D02*
D03*
X18906D02*
D03*
X19102D02*
D03*
X19299D02*
D03*
X19496D02*
D03*
X19693D02*
D03*
X19890D02*
D03*
X20087D02*
D03*
X20283D02*
D03*
X20480D02*
D03*
X20677D02*
D03*
X20874D02*
D03*
X21071D02*
D03*
X21268D02*
D03*
X21465D02*
D03*
X21661D02*
D03*
X21858D02*
D03*
X22055D02*
D03*
X22252D02*
D03*
Y12622D02*
D03*
X22055D02*
D03*
X21858D02*
D03*
X21661D02*
D03*
X21465D02*
D03*
X21268D02*
D03*
X21071D02*
D03*
X20874D02*
D03*
X20677D02*
D03*
X20480D02*
D03*
X20283D02*
D03*
X20087D02*
D03*
X19890D02*
D03*
X19693D02*
D03*
X19496D02*
D03*
X19299D02*
D03*
X19102D02*
D03*
X18906D02*
D03*
X18709D02*
D03*
X18512D02*
D03*
X18315D02*
D03*
X18118D02*
D03*
X17921D02*
D03*
X17724D02*
D03*
X17528D02*
D03*
X17331D02*
D03*
X17134D02*
D03*
X16937D02*
D03*
X16740D02*
D03*
X16543D02*
D03*
X16346D02*
D03*
X16150D02*
D03*
X15953D02*
D03*
X15756D02*
D03*
X15559D02*
D03*
X15362D02*
D03*
D43*
X22961Y5024D02*
D03*
Y5220D02*
D03*
Y5417D02*
D03*
Y5614D02*
D03*
Y5811D02*
D03*
Y6008D02*
D03*
Y6205D02*
D03*
Y6402D02*
D03*
Y6598D02*
D03*
Y6795D02*
D03*
Y6992D02*
D03*
Y7189D02*
D03*
Y7386D02*
D03*
Y7583D02*
D03*
Y7780D02*
D03*
Y7976D02*
D03*
Y8173D02*
D03*
Y8370D02*
D03*
Y8567D02*
D03*
Y8764D02*
D03*
Y8961D02*
D03*
Y9157D02*
D03*
Y9354D02*
D03*
Y9551D02*
D03*
Y9748D02*
D03*
Y9945D02*
D03*
Y10142D02*
D03*
Y10339D02*
D03*
Y10535D02*
D03*
Y10732D02*
D03*
Y10929D02*
D03*
Y11126D02*
D03*
Y11323D02*
D03*
Y11520D02*
D03*
Y11717D02*
D03*
Y11913D02*
D03*
X14654D02*
D03*
Y11717D02*
D03*
Y11520D02*
D03*
Y11323D02*
D03*
Y11126D02*
D03*
Y10929D02*
D03*
Y10732D02*
D03*
Y10535D02*
D03*
Y10339D02*
D03*
Y10142D02*
D03*
Y9945D02*
D03*
Y9748D02*
D03*
Y9551D02*
D03*
Y9354D02*
D03*
Y9157D02*
D03*
Y8961D02*
D03*
Y8764D02*
D03*
Y8567D02*
D03*
Y8370D02*
D03*
Y8173D02*
D03*
Y7976D02*
D03*
Y7780D02*
D03*
Y7583D02*
D03*
Y7386D02*
D03*
Y7189D02*
D03*
Y6992D02*
D03*
Y6795D02*
D03*
Y6598D02*
D03*
Y6402D02*
D03*
Y6205D02*
D03*
Y6008D02*
D03*
Y5811D02*
D03*
Y5614D02*
D03*
Y5417D02*
D03*
Y5220D02*
D03*
Y5024D02*
D03*
D44*
X12000Y22300D02*
D03*
X11300D02*
D03*
D45*
X23334Y16756D02*
D03*
Y17012D02*
D03*
Y15988D02*
D03*
Y16500D02*
D03*
Y16244D02*
D03*
D46*
X24417Y14906D02*
D03*
Y18094D02*
D03*
D47*
X3715Y15676D02*
D03*
D48*
Y15420D02*
D03*
Y15164D02*
D03*
X4581Y15676D02*
D03*
Y15164D02*
D03*
D49*
X6140Y19800D02*
D03*
X5720D02*
D03*
X5300D02*
D03*
X4880D02*
D03*
X4460D02*
D03*
X4040D02*
D03*
D50*
X7428Y23300D02*
D03*
Y22800D02*
D03*
Y22300D02*
D03*
Y21800D02*
D03*
Y21300D02*
D03*
Y20800D02*
D03*
Y20300D02*
D03*
Y19800D02*
D03*
Y19300D02*
D03*
X2900Y19800D02*
D03*
Y20300D02*
D03*
Y20800D02*
D03*
Y21300D02*
D03*
Y21800D02*
D03*
Y22300D02*
D03*
Y22800D02*
D03*
Y23300D02*
D03*
Y19300D02*
D03*
D51*
X13973Y3117D02*
D03*
X14957D02*
D03*
D52*
X18057Y1868D02*
D03*
X16443D02*
D03*
M02*
