G04*
G04 #@! TF.GenerationSoftware,Altium Limited,Altium Designer,18.1.9 (240)*
G04*
G04 Layer_Color=8388736*
%FSLAX24Y24*%
%MOIN*%
G70*
G01*
G75*
%ADD13C,0.0100*%
%ADD17C,0.0200*%
%ADD18C,0.0060*%
%ADD20C,0.0050*%
%ADD48R,0.0466X0.0446*%
%ADD49R,0.0474X0.0572*%
%ADD50R,0.0446X0.0466*%
%ADD51R,0.1104X0.0789*%
%ADD52O,0.0749X0.0150*%
%ADD53O,0.0150X0.0749*%
%ADD54O,0.0867X0.0167*%
%ADD55R,0.0867X0.0167*%
%ADD56R,0.0167X0.0867*%
%ADD57R,0.0572X0.0474*%
%ADD58R,0.0513X0.0316*%
%ADD59R,0.0572X0.0356*%
%ADD60R,0.0474X0.0407*%
%ADD61O,0.0316X0.0789*%
%ADD62O,0.0415X0.0218*%
%ADD63R,0.0415X0.0218*%
%ADD64R,0.0537X0.0659*%
%ADD65C,0.0671*%
%ADD66R,0.0828X0.1025*%
%ADD67R,0.0474X0.0789*%
%ADD68R,0.0690X0.0237*%
%ADD69R,0.0828X0.0789*%
%ADD70R,0.0867X0.0474*%
%ADD71R,0.0474X0.0867*%
%ADD72R,0.0395X0.0395*%
%ADD73R,0.0671X0.0671*%
%ADD74R,0.0671X0.0671*%
%ADD75C,0.0552*%
%ADD76R,0.0671X0.0395*%
%ADD77C,0.0277*%
%ADD78C,0.1064*%
%ADD79C,0.1458*%
D13*
X-1950Y31496D02*
X-1750Y30896D01*
X-2150D02*
X-1950Y31496D01*
X-2150Y600D02*
X-1950Y-0D01*
X-1750Y600D01*
X-1950Y17098D02*
Y31496D01*
Y-0D02*
Y14078D01*
X-2050Y31496D02*
X-200D01*
X-2050Y-0D02*
X-200D01*
X0Y-1750D02*
X600Y-1550D01*
X0Y-1750D02*
X600Y-1950D01*
X38770D02*
X39370Y-1750D01*
X38770Y-1550D02*
X39370Y-1750D01*
X0D02*
X17766D01*
X21285D02*
X39370D01*
X0Y-1850D02*
Y-200D01*
X39370Y-1850D02*
Y-200D01*
D17*
X0Y31496D02*
X39370D01*
X0Y-0D02*
X39370Y0D01*
X0Y0D02*
Y31496D01*
X39370Y-0D02*
X39370Y31496D01*
D18*
X-2090Y14238D02*
X-2190Y14338D01*
Y14538D01*
X-2090Y14638D01*
X-1990D01*
X-1890Y14538D01*
X-1790Y14638D01*
X-1690D01*
X-1590Y14538D01*
Y14338D01*
X-1690Y14238D01*
X-1790D01*
X-1890Y14338D01*
X-1990Y14238D01*
X-2090D01*
X-1890Y14338D02*
Y14538D01*
X-2090Y14838D02*
X-2190Y14938D01*
Y15138D01*
X-2090Y15238D01*
X-1690D01*
X-1590Y15138D01*
Y14938D01*
X-1690Y14838D01*
X-2090D01*
X-1590Y15438D02*
X-1690D01*
Y15538D01*
X-1590D01*
Y15438D01*
X-2090Y15938D02*
X-2190Y16038D01*
Y16238D01*
X-2090Y16338D01*
X-1690D01*
X-1590Y16238D01*
Y16038D01*
X-1690Y15938D01*
X-2090D01*
Y16538D02*
X-2190Y16638D01*
Y16838D01*
X-2090Y16938D01*
X-1690D01*
X-1590Y16838D01*
Y16638D01*
X-1690Y16538D01*
X-2090D01*
X17926Y-2110D02*
X18125D01*
X18026D01*
Y-1510D01*
X17926Y-1610D01*
X18425D02*
X18525Y-1510D01*
X18725D01*
X18825Y-1610D01*
Y-2010D01*
X18725Y-2110D01*
X18525D01*
X18425Y-2010D01*
Y-1610D01*
X19025D02*
X19125Y-1510D01*
X19325D01*
X19425Y-1610D01*
Y-2010D01*
X19325Y-2110D01*
X19125D01*
X19025Y-2010D01*
Y-1610D01*
X19625Y-2110D02*
Y-2010D01*
X19725D01*
Y-2110D01*
X19625D01*
X20125Y-1610D02*
X20225Y-1510D01*
X20425D01*
X20525Y-1610D01*
Y-2010D01*
X20425Y-2110D01*
X20225D01*
X20125Y-2010D01*
Y-1610D01*
X20725D02*
X20825Y-1510D01*
X21025D01*
X21125Y-1610D01*
Y-2010D01*
X21025Y-2110D01*
X20825D01*
X20725Y-2010D01*
Y-1610D01*
D20*
X38414Y19322D02*
Y19502D01*
X37974Y19322D02*
Y19502D01*
Y19322D02*
X38414D01*
X37974Y19502D02*
X38414D01*
Y17098D02*
Y17278D01*
X37974Y17098D02*
Y17278D01*
Y17098D02*
X38414D01*
X37974Y17278D02*
X38414D01*
Y24064D02*
Y24244D01*
X37974Y24064D02*
Y24244D01*
Y24064D02*
X38414D01*
X37974Y24244D02*
X38414D01*
Y21840D02*
Y22020D01*
X37974Y21840D02*
Y22020D01*
Y21840D02*
X38414D01*
X37974Y22020D02*
X38414D01*
D48*
X25150Y2840D02*
D03*
Y2234D02*
D03*
X15850Y3856D02*
D03*
Y3250D02*
D03*
X12412Y24209D02*
D03*
Y24815D02*
D03*
X15212Y24209D02*
D03*
Y24815D02*
D03*
X21328Y24209D02*
D03*
Y24815D02*
D03*
X24163Y24209D02*
D03*
Y24815D02*
D03*
X25075Y24815D02*
D03*
Y24209D02*
D03*
X34150Y26200D02*
D03*
Y26806D02*
D03*
X31600Y26200D02*
D03*
Y26806D02*
D03*
X34643Y8440D02*
D03*
Y7834D02*
D03*
X38400Y8494D02*
D03*
Y9100D02*
D03*
X37425Y8494D02*
D03*
Y9100D02*
D03*
X36450Y9100D02*
D03*
Y8494D02*
D03*
X36450Y6700D02*
D03*
Y7306D02*
D03*
X34350Y3934D02*
D03*
Y4540D02*
D03*
X33450Y4540D02*
D03*
Y3934D02*
D03*
X32600Y4540D02*
D03*
Y3934D02*
D03*
X30867Y3947D02*
D03*
Y4553D02*
D03*
X27700Y2790D02*
D03*
Y2184D02*
D03*
X27718Y3947D02*
D03*
Y4553D02*
D03*
X26143Y2234D02*
D03*
Y2840D02*
D03*
X13200Y3856D02*
D03*
Y3250D02*
D03*
X30903Y19303D02*
D03*
Y18697D02*
D03*
X30032Y19303D02*
D03*
Y18697D02*
D03*
X17428Y24209D02*
D03*
Y24815D02*
D03*
X18428Y24815D02*
D03*
Y24209D02*
D03*
X31550Y2806D02*
D03*
Y2200D02*
D03*
X25552Y16250D02*
D03*
Y15644D02*
D03*
X29850Y16250D02*
D03*
Y15644D02*
D03*
X24250Y16250D02*
D03*
Y15644D02*
D03*
X27983Y16250D02*
D03*
Y15644D02*
D03*
D49*
X16450Y23919D02*
D03*
Y25081D02*
D03*
D50*
X35503Y22518D02*
D03*
X34897D02*
D03*
X35503Y23318D02*
D03*
X34897D02*
D03*
X10097Y4000D02*
D03*
X10703D02*
D03*
X10097Y3250D02*
D03*
X10703D02*
D03*
X12353Y4003D02*
D03*
X11747D02*
D03*
Y3200D02*
D03*
X12353D02*
D03*
X6244Y13160D02*
D03*
X6850D02*
D03*
X6244Y12192D02*
D03*
X6850D02*
D03*
X6244Y11223D02*
D03*
X6850D02*
D03*
X6244Y10254D02*
D03*
X6850D02*
D03*
X6244Y9285D02*
D03*
X6850D02*
D03*
X6244Y8316D02*
D03*
X6850D02*
D03*
X6244Y7347D02*
D03*
X6850D02*
D03*
X6244Y6378D02*
D03*
X6850D02*
D03*
X7844Y12192D02*
D03*
X8450D02*
D03*
X7844Y11223D02*
D03*
X8450D02*
D03*
X7844Y10254D02*
D03*
X8450D02*
D03*
X7844Y9285D02*
D03*
X8450D02*
D03*
X7844Y8316D02*
D03*
X8450D02*
D03*
X7844Y7347D02*
D03*
X8450D02*
D03*
X7844Y6378D02*
D03*
X8450D02*
D03*
X7844Y5409D02*
D03*
X8450D02*
D03*
X6244Y5409D02*
D03*
X6850D02*
D03*
X15062Y23218D02*
D03*
X14456D02*
D03*
X20153Y25750D02*
D03*
X19547D02*
D03*
X22381Y23168D02*
D03*
X21775D02*
D03*
X23814D02*
D03*
X23208D02*
D03*
X29547Y20950D02*
D03*
X30153D02*
D03*
X31297Y22200D02*
D03*
X31903D02*
D03*
X34050Y16100D02*
D03*
X33444D02*
D03*
X34200Y25050D02*
D03*
X33594D02*
D03*
X34653Y13350D02*
D03*
X34047D02*
D03*
X34653Y12500D02*
D03*
X34047D02*
D03*
X34653Y11387D02*
D03*
X34047D02*
D03*
X34653Y9437D02*
D03*
X34047D02*
D03*
X36565Y11925D02*
D03*
X35959D02*
D03*
X36565Y10919D02*
D03*
X35959D02*
D03*
X38558Y12991D02*
D03*
X37952D02*
D03*
X38558Y11955D02*
D03*
X37952D02*
D03*
X38558Y10919D02*
D03*
X37952D02*
D03*
X37794Y3959D02*
D03*
X38400D02*
D03*
X37794Y4850D02*
D03*
X38400D02*
D03*
X22247Y5900D02*
D03*
X22853D02*
D03*
X22247Y7200D02*
D03*
X22853D02*
D03*
X22247Y8200D02*
D03*
X22853D02*
D03*
X22247Y9833D02*
D03*
X22853D02*
D03*
X22247Y11050D02*
D03*
X22853D02*
D03*
X17347Y7400D02*
D03*
X17953D02*
D03*
X17347Y8617D02*
D03*
X17953D02*
D03*
X17347Y9833D02*
D03*
X17953D02*
D03*
X17347Y11050D02*
D03*
X17953D02*
D03*
X16222Y13234D02*
D03*
X15616D02*
D03*
X16203Y14122D02*
D03*
X15597D02*
D03*
X16213Y14977D02*
D03*
X15607D02*
D03*
X13953Y14111D02*
D03*
X13347D02*
D03*
X13347Y15022D02*
D03*
X13953D02*
D03*
X13347Y15934D02*
D03*
X13953D02*
D03*
X11803Y14111D02*
D03*
X12409D02*
D03*
X11803Y13200D02*
D03*
X12409D02*
D03*
X11803Y15022D02*
D03*
X12409D02*
D03*
X11803Y15934D02*
D03*
X12409D02*
D03*
X13953Y13200D02*
D03*
X13347D02*
D03*
X9704Y13250D02*
D03*
X10310D02*
D03*
X9704Y14087D02*
D03*
X10310D02*
D03*
X9704Y14950D02*
D03*
X10310D02*
D03*
X34653Y6858D02*
D03*
X34047D02*
D03*
X33503Y20950D02*
D03*
X32897D02*
D03*
X26303D02*
D03*
X25697D02*
D03*
X29347Y1250D02*
D03*
X29953D02*
D03*
D51*
X14534Y2569D02*
D03*
Y3750D02*
D03*
D52*
X24450Y6464D02*
D03*
Y6661D02*
D03*
Y6858D02*
D03*
Y7055D02*
D03*
Y7251D02*
D03*
Y7448D02*
D03*
Y7645D02*
D03*
Y7842D02*
D03*
Y8039D02*
D03*
Y8236D02*
D03*
Y8433D02*
D03*
Y8629D02*
D03*
Y8826D02*
D03*
Y9023D02*
D03*
Y9220D02*
D03*
Y9417D02*
D03*
Y9614D02*
D03*
Y9810D02*
D03*
Y10007D02*
D03*
Y10204D02*
D03*
Y10401D02*
D03*
Y10598D02*
D03*
Y10795D02*
D03*
Y10992D02*
D03*
Y11188D02*
D03*
Y11385D02*
D03*
Y11582D02*
D03*
Y11779D02*
D03*
Y11976D02*
D03*
Y12173D02*
D03*
Y12370D02*
D03*
Y12566D02*
D03*
Y12763D02*
D03*
Y12960D02*
D03*
Y13157D02*
D03*
Y13354D02*
D03*
X32757D02*
D03*
Y13157D02*
D03*
Y12960D02*
D03*
Y12763D02*
D03*
Y12566D02*
D03*
Y12370D02*
D03*
Y12173D02*
D03*
Y11976D02*
D03*
Y11779D02*
D03*
Y11582D02*
D03*
Y11385D02*
D03*
Y11188D02*
D03*
Y10992D02*
D03*
Y10795D02*
D03*
Y10598D02*
D03*
Y10401D02*
D03*
Y10204D02*
D03*
Y10007D02*
D03*
Y9810D02*
D03*
Y9614D02*
D03*
Y9417D02*
D03*
Y9220D02*
D03*
Y9023D02*
D03*
Y8826D02*
D03*
Y8629D02*
D03*
Y8433D02*
D03*
Y8236D02*
D03*
Y8039D02*
D03*
Y7842D02*
D03*
Y7645D02*
D03*
Y7448D02*
D03*
Y7251D02*
D03*
Y7055D02*
D03*
Y6858D02*
D03*
Y6661D02*
D03*
Y6464D02*
D03*
D53*
X25159Y14062D02*
D03*
X25356D02*
D03*
X25552D02*
D03*
X25749D02*
D03*
X25946D02*
D03*
X26143D02*
D03*
X26340D02*
D03*
X26537D02*
D03*
X26733D02*
D03*
X26930D02*
D03*
X27127D02*
D03*
X27324D02*
D03*
X27521D02*
D03*
X27718D02*
D03*
X27915D02*
D03*
X28111D02*
D03*
X28308D02*
D03*
X28505D02*
D03*
X28702D02*
D03*
X28899D02*
D03*
X29096D02*
D03*
X29293D02*
D03*
X29489D02*
D03*
X29686D02*
D03*
X29883D02*
D03*
X30080D02*
D03*
X30277D02*
D03*
X30474D02*
D03*
X30670D02*
D03*
X30867D02*
D03*
X31064D02*
D03*
X31261D02*
D03*
X31458D02*
D03*
X31655D02*
D03*
X31852D02*
D03*
X32048D02*
D03*
Y5755D02*
D03*
X31852D02*
D03*
X31655D02*
D03*
X31458D02*
D03*
X31261D02*
D03*
X31064D02*
D03*
X30867D02*
D03*
X30670D02*
D03*
X30474D02*
D03*
X30277D02*
D03*
X30080D02*
D03*
X29883D02*
D03*
X29686D02*
D03*
X29489D02*
D03*
X29293D02*
D03*
X29096D02*
D03*
X28899D02*
D03*
X28702D02*
D03*
X28505D02*
D03*
X28308D02*
D03*
X28111D02*
D03*
X27915D02*
D03*
X27718D02*
D03*
X27521D02*
D03*
X27324D02*
D03*
X27127D02*
D03*
X26930D02*
D03*
X26733D02*
D03*
X26537D02*
D03*
X26340D02*
D03*
X26143D02*
D03*
X25946D02*
D03*
X25749D02*
D03*
X25552D02*
D03*
X25356D02*
D03*
X25159D02*
D03*
D54*
X10450Y10175D02*
D03*
D55*
Y9978D02*
D03*
Y9781D02*
D03*
Y9584D02*
D03*
Y9387D02*
D03*
Y9191D02*
D03*
Y8994D02*
D03*
Y8797D02*
D03*
Y8600D02*
D03*
Y8403D02*
D03*
Y8206D02*
D03*
Y8009D02*
D03*
Y7813D02*
D03*
Y7616D02*
D03*
Y7419D02*
D03*
Y7222D02*
D03*
X15174D02*
D03*
Y7419D02*
D03*
Y7616D02*
D03*
Y7813D02*
D03*
Y8009D02*
D03*
Y8206D02*
D03*
Y8403D02*
D03*
Y8600D02*
D03*
Y8797D02*
D03*
Y8994D02*
D03*
Y9191D02*
D03*
Y9387D02*
D03*
Y9584D02*
D03*
Y9781D02*
D03*
Y9978D02*
D03*
Y10175D02*
D03*
D56*
X11336Y6336D02*
D03*
X11533D02*
D03*
X11730D02*
D03*
X11926D02*
D03*
X12123D02*
D03*
X12320D02*
D03*
X12517D02*
D03*
X12714D02*
D03*
X12911D02*
D03*
X13107D02*
D03*
X13304D02*
D03*
X13501D02*
D03*
X13698D02*
D03*
X13895D02*
D03*
X14092D02*
D03*
X14289D02*
D03*
Y11061D02*
D03*
X14092D02*
D03*
X13895D02*
D03*
X13698D02*
D03*
X13501D02*
D03*
X13304D02*
D03*
X13107D02*
D03*
X12911D02*
D03*
X12714D02*
D03*
X12517D02*
D03*
X12320D02*
D03*
X12123D02*
D03*
X11926D02*
D03*
X11730D02*
D03*
X11533D02*
D03*
X11336D02*
D03*
D57*
X12343Y23212D02*
D03*
X13505D02*
D03*
X31547Y25044D02*
D03*
X32708D02*
D03*
X33381Y30672D02*
D03*
X32219D02*
D03*
D58*
X14351Y24152D02*
D03*
Y24526D02*
D03*
Y24900D02*
D03*
X13249D02*
D03*
Y24152D02*
D03*
X20380Y24152D02*
D03*
Y24526D02*
D03*
Y24900D02*
D03*
X19277D02*
D03*
Y24152D02*
D03*
X23380D02*
D03*
Y24526D02*
D03*
Y24900D02*
D03*
X22277D02*
D03*
Y24152D02*
D03*
D59*
X28392Y20576D02*
D03*
Y21324D02*
D03*
X27408Y20950D02*
D03*
X31995Y20576D02*
D03*
Y21324D02*
D03*
X31011Y20950D02*
D03*
X38392Y6626D02*
D03*
Y7374D02*
D03*
X37408Y7000D02*
D03*
D60*
X30303Y20050D02*
D03*
X29374D02*
D03*
D61*
X31953Y17226D02*
D03*
X32453D02*
D03*
X32953D02*
D03*
X33453D02*
D03*
X33953D02*
D03*
X34453D02*
D03*
X34953D02*
D03*
X35453D02*
D03*
X31953Y19274D02*
D03*
X32453D02*
D03*
X32953D02*
D03*
X33453D02*
D03*
X33953D02*
D03*
X34453D02*
D03*
X34953D02*
D03*
X35453D02*
D03*
D62*
X32484Y26806D02*
D03*
Y26294D02*
D03*
X33350Y26806D02*
D03*
Y26550D02*
D03*
X5100Y6905D02*
D03*
Y7160D02*
D03*
Y7416D02*
D03*
X4234Y6905D02*
D03*
Y7160D02*
D03*
X5050Y10380D02*
D03*
Y10635D02*
D03*
Y10891D02*
D03*
X4184Y10380D02*
D03*
Y10635D02*
D03*
X5066Y13855D02*
D03*
Y14110D02*
D03*
Y14366D02*
D03*
X4200Y13855D02*
D03*
Y14110D02*
D03*
D63*
X33350Y26294D02*
D03*
X4234Y7416D02*
D03*
X4184Y10891D02*
D03*
X4200Y14366D02*
D03*
D64*
X38519Y25950D02*
D03*
X37819D02*
D03*
X35900Y12991D02*
D03*
X36600D02*
D03*
D65*
X36250Y950D02*
D03*
Y2131D02*
D03*
X33888Y950D02*
D03*
Y2131D02*
D03*
X16650Y30700D02*
D03*
X15650D02*
D03*
X14650D02*
D03*
X13650D02*
D03*
X12650D02*
D03*
X20700D02*
D03*
X19700D02*
D03*
X18700D02*
D03*
X20650Y10900D02*
D03*
X19650Y9900D02*
D03*
X20650D02*
D03*
X19650Y8900D02*
D03*
X20650D02*
D03*
X19650Y7900D02*
D03*
X20650D02*
D03*
X19650Y6900D02*
D03*
X20650D02*
D03*
X19650Y5900D02*
D03*
X20650D02*
D03*
X19650Y14200D02*
D03*
X20650Y15200D02*
D03*
X19650D02*
D03*
X20650Y16200D02*
D03*
X19650D02*
D03*
X20650Y17200D02*
D03*
X19650D02*
D03*
X20650Y18200D02*
D03*
X19650D02*
D03*
X22850Y800D02*
D03*
X21850Y1800D02*
D03*
Y800D02*
D03*
X20850Y1800D02*
D03*
Y800D02*
D03*
X19850Y1800D02*
D03*
Y800D02*
D03*
X18850Y1800D02*
D03*
Y800D02*
D03*
X17850Y1800D02*
D03*
Y800D02*
D03*
X38750Y28550D02*
D03*
X3000Y7350D02*
D03*
Y9350D02*
D03*
Y10350D02*
D03*
Y11350D02*
D03*
Y12350D02*
D03*
Y13350D02*
D03*
Y14350D02*
D03*
Y15350D02*
D03*
Y8350D02*
D03*
D66*
X28793Y2487D02*
D03*
X30407D02*
D03*
D67*
X26143Y3900D02*
D03*
X25159D02*
D03*
D68*
X37137Y18044D02*
D03*
Y18300D02*
D03*
Y17788D02*
D03*
Y18812D02*
D03*
Y18556D02*
D03*
Y22786D02*
D03*
Y23042D02*
D03*
Y22530D02*
D03*
Y23554D02*
D03*
Y23298D02*
D03*
D69*
X38220Y19894D02*
D03*
Y16706D02*
D03*
Y24637D02*
D03*
Y21448D02*
D03*
D70*
X2872Y30546D02*
D03*
Y31046D02*
D03*
X9750Y23050D02*
D03*
Y23550D02*
D03*
Y24050D02*
D03*
Y24550D02*
D03*
Y25050D02*
D03*
Y25550D02*
D03*
Y26050D02*
D03*
Y26550D02*
D03*
Y27050D02*
D03*
Y27550D02*
D03*
Y28050D02*
D03*
Y28550D02*
D03*
Y29050D02*
D03*
X2872Y23050D02*
D03*
Y23550D02*
D03*
Y24050D02*
D03*
Y24550D02*
D03*
Y25050D02*
D03*
Y25550D02*
D03*
Y26050D02*
D03*
Y26550D02*
D03*
Y27050D02*
D03*
Y27550D02*
D03*
Y28050D02*
D03*
Y28550D02*
D03*
Y29050D02*
D03*
X9750Y31046D02*
D03*
Y30546D02*
D03*
X25100Y27150D02*
D03*
Y31150D02*
D03*
Y30650D02*
D03*
Y30150D02*
D03*
Y29650D02*
D03*
Y29150D02*
D03*
Y28650D02*
D03*
Y28150D02*
D03*
Y27650D02*
D03*
X29628Y27150D02*
D03*
Y27650D02*
D03*
Y28150D02*
D03*
Y28650D02*
D03*
Y29150D02*
D03*
Y29650D02*
D03*
Y30150D02*
D03*
Y30650D02*
D03*
Y31150D02*
D03*
D71*
X9061Y22353D02*
D03*
X8561D02*
D03*
X8061D02*
D03*
X7561D02*
D03*
X7061D02*
D03*
X6561D02*
D03*
X6061D02*
D03*
X5561D02*
D03*
X5061D02*
D03*
X4561D02*
D03*
X4061D02*
D03*
X3561D02*
D03*
D72*
X26240Y27650D02*
D03*
X26660D02*
D03*
X27080D02*
D03*
X27500D02*
D03*
X27920D02*
D03*
X28340D02*
D03*
D73*
X11650Y30700D02*
D03*
X21700D02*
D03*
X22850Y1800D02*
D03*
D74*
X19650Y10900D02*
D03*
X20650Y14200D02*
D03*
X38750Y27550D02*
D03*
X3000Y6350D02*
D03*
D75*
X35013Y28900D02*
D03*
X35800D02*
D03*
X36587D02*
D03*
Y30672D02*
D03*
X35800D02*
D03*
X35013D02*
D03*
D76*
X38200Y19412D02*
D03*
Y17188D02*
D03*
Y24154D02*
D03*
Y21930D02*
D03*
D77*
X37354Y17513D02*
D03*
Y19087D02*
D03*
Y22255D02*
D03*
Y23830D02*
D03*
D78*
X1150Y4931D02*
D03*
Y6900D02*
D03*
Y8868D02*
D03*
Y10837D02*
D03*
Y12806D02*
D03*
Y14774D02*
D03*
Y16743D02*
D03*
Y18711D02*
D03*
Y20680D02*
D03*
Y2963D02*
D03*
D79*
X1181Y30319D02*
D03*
X38169D02*
D03*
Y1231D02*
D03*
X1181Y1181D02*
D03*
M02*
