M48
;Layer_Color=9474304
;FILE_FORMAT=2:4
INCH,LZ
;TYPE=PLATED
T1F00S00C0.0120
T3F00S00C0.0354
T4F00S00C0.0394
T5F00S00C0.1260
;TYPE=NON_PLATED
T6F00S00C0.0197
%
T01
X030101Y003938
X0358Y003915
X03875Y0038
X0276Y003869
X0266
X02595Y0004
X01785Y0007
X01735
X01585
X009153Y00155
X0068Y00725
Y008014
X00555
Y00725
X0065Y01004
X0065Y01097
X0065Y0119
X0065Y01283
X0065Y01376
X0065Y01469
X0065Y01562
X0065Y01655
X0065Y01748
X0065Y01841
X0065Y01934
X003184Y019363
Y017294
Y015344
Y013294
X00345Y0108
X002684
X010501Y0102
X01195Y01095
X013747Y010953
X013401Y0102
X013226Y015851
X012475Y0159
X010692Y015179
X010368
X013701Y019094
X014585Y0193
X015Y0165
X01785Y0151
X0187
X01895Y013934
Y013171
X0177
Y013934
X01784Y0082
X017346
X01585
X02385Y008094
Y007331
X0251
Y008094
X024975Y010044
X02795Y00993
X0274Y011
X02745Y0114
X0297Y011637
X02815Y01415
X0282Y0145
X02835Y0148
X0287Y01495
X0277Y0173
X0274Y01845
X0275Y01885
X0278Y0189
X027736Y0194
X0293Y0186
X0251Y01815
X02396
X02375Y01845
X024394Y0163
X0244Y016
X0251Y014444
X02575Y006339
X02725Y0056
X022341Y006328
X03Y007481
X0316Y006943
X03185Y004522
X033249Y004736
X034351Y006943
X0353Y007156
X035363Y009643
Y010407
X034113
Y009643
X0323Y00993
X0314Y0117
X03135Y0141
X0321Y014046
Y016997
X034467Y0169
X035Y018527
Y01929
X03375
Y018527
X031694Y019347
X030086Y01305
X0375Y013294
X037508Y015851
X037255Y017
X037958Y011139
X037255Y00925
X0389
X038447Y007224
X0363Y02105
Y02225
X037285Y022312
Y026862
X034572Y026572
Y025797
X03455Y02735
X0317Y02465
X030894Y020373
X029105Y021868
X027602Y022686
X0272Y0235
Y0262
Y026964
X02845
Y0262
X02655Y02055
X02713Y019747
X01945Y021
X018075Y021606
X02065Y023764
X0206Y02465
X021228Y02715
X02125Y02765
X0167Y02715
Y03115
X014184Y023964
X013242
X0123
X013098Y02055
X01035Y020103
X01Y0201
X0065Y02027
X0065Y0212
Y02215
Y02305
Y024
X0026Y023117
X00315Y021594
X007042Y0283
Y029064
X008292
Y0283
T03
X0301Y001
X0311
X0321
X0331
Y002
X0321
X0311
X0301
X0291
Y001
X0267Y002
X0257
X0247
X0237
X0227
X0217
X00205Y0121
Y0131
Y0141
Y0151
Y0161
Y0171
Y0181
Y0191
X00105
Y0181
Y0171
Y0161
Y0151
Y0141
Y0131
Y0121
X02045Y0116
X02145
Y0106
X02045
Y0096
X02145
Y0086
X02045
Y0076
X02145
Y015
Y016
Y017
Y018
Y019
X02045
Y018
Y017
Y016
Y015
X03315Y030319
X03415
X0249Y023067
X0239
X0229
Y022067
X0239
X0249
X02145Y02
X02045
X00205Y0201
Y0211
X00105
Y0201
X00115Y02515
Y02615
Y02715
Y02815
T04
X028117Y029
X028905
X029692
Y030772
X028905
X028117
T05
X038169Y001231
X001231
X038169Y030319
X001231Y030269
T06
X037501Y021013
Y022587
Y025563
Y027137
M30
