G04*
G04 #@! TF.GenerationSoftware,Altium Limited,Altium Designer,18.1.9 (240)*
G04*
G04 Layer_Color=128*
%FSLAX24Y24*%
%MOIN*%
G70*
G01*
G75*
%ADD17C,0.0200*%
%ADD22C,0.0050*%
%ADD99C,0.0020*%
D17*
X0Y23622D02*
X25591D01*
Y0D02*
Y23622D01*
X0Y0D02*
X25591D01*
X0D02*
Y23622D01*
D22*
X24171Y15478D02*
X24611D01*
X24171Y15298D02*
X24611D01*
X24171D02*
Y15478D01*
X24611Y15298D02*
Y15478D01*
X24171Y17702D02*
X24611D01*
X24171Y17522D02*
X24611D01*
X24171D02*
Y17702D01*
X24611Y17522D02*
Y17702D01*
D99*
X423Y20600D02*
X777D01*
X600Y20423D02*
Y20777D01*
X423Y19600D02*
X777D01*
X600Y19423D02*
Y19777D01*
X423Y18600D02*
X777D01*
X600Y18423D02*
Y18777D01*
X423Y17600D02*
X777D01*
X600Y17423D02*
Y17777D01*
X22873Y23000D02*
X23227D01*
X23050Y22823D02*
Y23177D01*
X21873Y23000D02*
X22227D01*
X22050Y22823D02*
Y23177D01*
X20873Y23000D02*
X21227D01*
X21050Y22823D02*
Y23177D01*
X19873Y23000D02*
X20227D01*
X20050Y22823D02*
Y23177D01*
X18873Y23000D02*
X19227D01*
X19050Y22823D02*
Y23177D01*
X17873Y23000D02*
X18227D01*
X18050Y22823D02*
Y23177D01*
X8531Y21650D02*
X8925D01*
X8728Y21453D02*
Y21847D01*
X8531Y22437D02*
X8925D01*
X8728Y22241D02*
Y22634D01*
X8531Y23225D02*
X8925D01*
X8728Y23028D02*
Y23422D01*
X10303Y23225D02*
X10697D01*
X10500Y23028D02*
Y23422D01*
X10303Y22437D02*
X10697D01*
X10500Y22241D02*
Y22634D01*
X10303Y21650D02*
X10697D01*
X10500Y21453D02*
Y21847D01*
X423Y8450D02*
X777D01*
X600Y8273D02*
Y8627D01*
X1423Y8450D02*
X1777D01*
X1600Y8273D02*
Y8627D01*
X423Y7450D02*
X777D01*
X600Y7273D02*
Y7627D01*
X1423Y7450D02*
X1777D01*
X1600Y7273D02*
Y7627D01*
X423Y6450D02*
X777D01*
X600Y6273D02*
Y6627D01*
X1423Y6450D02*
X1777D01*
X1600Y6273D02*
Y6627D01*
X423Y5450D02*
X777D01*
X600Y5273D02*
Y5627D01*
X1423Y5450D02*
X1777D01*
X1600Y5273D02*
Y5627D01*
X423Y4450D02*
X777D01*
X600Y4273D02*
Y4627D01*
X1423Y4450D02*
X1777D01*
X1600Y4273D02*
Y4627D01*
X23452Y17287D02*
X23649D01*
X23550Y17189D02*
Y17386D01*
X23452Y15713D02*
X23649D01*
X23550Y15614D02*
Y15811D01*
X24318Y15388D02*
X24476D01*
X24397Y15309D02*
Y15467D01*
X24318Y17612D02*
X24476D01*
X24397Y17533D02*
Y17691D01*
X1423Y11850D02*
X1777D01*
X1600Y11673D02*
Y12027D01*
X423Y11850D02*
X777D01*
X600Y11673D02*
Y12027D01*
X1423Y12850D02*
X1777D01*
X1600Y12673D02*
Y13027D01*
X423Y12850D02*
X777D01*
X600Y12673D02*
Y13027D01*
X1423Y13850D02*
X1777D01*
X1600Y13673D02*
Y14027D01*
X423Y13850D02*
X777D01*
X600Y13673D02*
Y14027D01*
X1423Y14850D02*
X1777D01*
X1600Y14673D02*
Y15027D01*
X423Y14850D02*
X777D01*
X600Y14673D02*
Y15027D01*
X1423Y15850D02*
X1777D01*
X1600Y15673D02*
Y16027D01*
X423Y15850D02*
X777D01*
X600Y15673D02*
Y16027D01*
X24239Y20700D02*
X24594D01*
X24417Y20523D02*
Y20877D01*
X24239Y19700D02*
X24594D01*
X24417Y19523D02*
Y19877D01*
X13273Y13600D02*
X13627D01*
X13450Y13423D02*
Y13777D01*
X12273Y13600D02*
X12627D01*
X12450Y13423D02*
Y13777D01*
X13273Y14600D02*
X13627D01*
X13450Y14423D02*
Y14777D01*
X12273Y14600D02*
X12627D01*
X12450Y14423D02*
Y14777D01*
X13273Y15600D02*
X13627D01*
X13450Y15423D02*
Y15777D01*
X12273Y15600D02*
X12627D01*
X12450Y15423D02*
Y15777D01*
X23996Y22638D02*
X25217D01*
X24606Y22028D02*
Y23248D01*
X374Y22638D02*
X1594D01*
X984Y22028D02*
Y23248D01*
X23996Y984D02*
X25217D01*
X24606Y374D02*
Y1594D01*
X374Y984D02*
X1594D01*
X984Y374D02*
Y1594D01*
X21651Y20194D02*
X21771D01*
X21711Y20134D02*
Y20254D01*
X21651Y21200D02*
X21771D01*
X21711Y21140D02*
Y21260D01*
X13323Y10977D02*
X13443D01*
X13383Y10917D02*
Y11037D01*
X13323Y10250D02*
X13443D01*
X13383Y10190D02*
Y10310D01*
X13840Y10250D02*
X13960D01*
X13900Y10190D02*
Y10310D01*
X13840Y10977D02*
X13960D01*
X13900Y10917D02*
Y11037D01*
X11593Y8935D02*
X11713D01*
X11653Y8875D02*
Y8995D01*
X11593Y8208D02*
X11713D01*
X11653Y8148D02*
Y8268D01*
X12110Y8208D02*
X12230D01*
X12170Y8148D02*
Y8268D01*
X12110Y8935D02*
X12230D01*
X12170Y8875D02*
Y8995D01*
X5923Y4499D02*
X6043D01*
X5983Y4439D02*
Y4559D01*
X5923Y3773D02*
X6043D01*
X5983Y3713D02*
Y3833D01*
X6440Y3773D02*
X6560D01*
X6500Y3713D02*
Y3833D01*
X6440Y4499D02*
X6560D01*
X6500Y4439D02*
Y4559D01*
X5923Y9066D02*
X6043D01*
X5983Y9006D02*
Y9126D01*
X5923Y8339D02*
X6043D01*
X5983Y8279D02*
Y8399D01*
X6440Y8339D02*
X6560D01*
X6500Y8279D02*
Y8399D01*
X6440Y9066D02*
X6560D01*
X6500Y9006D02*
Y9126D01*
X8864Y7400D02*
X8984D01*
X8924Y7340D02*
Y7460D01*
X8864Y6673D02*
X8984D01*
X8924Y6613D02*
Y6733D01*
X8864Y5947D02*
X8984D01*
X8924Y5887D02*
Y6007D01*
X8864Y5220D02*
X8984D01*
X8924Y5160D02*
Y5280D01*
X8347Y5220D02*
X8467D01*
X8407Y5160D02*
Y5280D01*
X8347Y5947D02*
X8467D01*
X8407Y5887D02*
Y6007D01*
X8347Y6673D02*
X8467D01*
X8407Y6613D02*
Y6733D01*
X8347Y7400D02*
X8467D01*
X8407Y7340D02*
Y7460D01*
X7700Y7400D02*
X7820D01*
X7760Y7340D02*
Y7460D01*
X7700Y6673D02*
X7820D01*
X7760Y6613D02*
Y6733D01*
X7700Y5947D02*
X7820D01*
X7760Y5887D02*
Y6007D01*
X7700Y5220D02*
X7820D01*
X7760Y5160D02*
Y5280D01*
X7183Y5220D02*
X7303D01*
X7243Y5160D02*
Y5280D01*
X7183Y5947D02*
X7303D01*
X7243Y5887D02*
Y6007D01*
X7183Y6673D02*
X7303D01*
X7243Y6613D02*
Y6733D01*
X7183Y7400D02*
X7303D01*
X7243Y7340D02*
Y7460D01*
X2607Y10038D02*
X2727D01*
X2667Y9978D02*
Y10098D01*
X1881Y10038D02*
X2001D01*
X1941Y9978D02*
Y10098D01*
X1881Y9521D02*
X2001D01*
X1941Y9461D02*
Y9581D01*
X2607Y9521D02*
X2727D01*
X2667Y9461D02*
Y9581D01*
X11614Y3521D02*
X11734D01*
X11674Y3461D02*
Y3581D01*
X11614Y4247D02*
X11734D01*
X11674Y4187D02*
Y4307D01*
X11097Y4247D02*
X11217D01*
X11157Y4187D02*
Y4307D01*
X11097Y3521D02*
X11217D01*
X11157Y3461D02*
Y3581D01*
X12978Y20388D02*
X13098D01*
X13038Y20328D02*
Y20448D01*
X12461Y20388D02*
X12581D01*
X12521Y20328D02*
Y20448D01*
X12735Y17100D02*
X12855D01*
X12795Y17040D02*
Y17160D01*
X12735Y17827D02*
X12855D01*
X12795Y17767D02*
Y17887D01*
X12218Y17827D02*
X12338D01*
X12278Y17767D02*
Y17887D01*
X12218Y17100D02*
X12338D01*
X12278Y17040D02*
Y17160D01*
X9490Y5220D02*
X9610D01*
X9550Y5160D02*
Y5280D01*
X9490Y5947D02*
X9610D01*
X9550Y5887D02*
Y6007D01*
X9490Y6673D02*
X9610D01*
X9550Y6613D02*
Y6733D01*
X9490Y7400D02*
X9610D01*
X9550Y7340D02*
Y7460D01*
X10007Y7400D02*
X10127D01*
X10067Y7340D02*
Y7460D01*
X10007Y6673D02*
X10127D01*
X10067Y6613D02*
Y6733D01*
X10007Y5947D02*
X10127D01*
X10067Y5887D02*
Y6007D01*
X10007Y5220D02*
X10127D01*
X10067Y5160D02*
Y5280D01*
X20246Y7431D02*
X20366D01*
X20306Y7371D02*
Y7491D01*
X20246Y8157D02*
X20366D01*
X20306Y8097D02*
Y8217D01*
X20246Y8884D02*
X20366D01*
X20306Y8824D02*
Y8944D01*
X20246Y9610D02*
X20366D01*
X20306Y9550D02*
Y9670D01*
X20814Y9610D02*
X20934D01*
X20874Y9550D02*
Y9670D01*
X20814Y8884D02*
X20934D01*
X20874Y8824D02*
Y8944D01*
X20814Y8157D02*
X20934D01*
X20874Y8097D02*
Y8217D01*
X20814Y7431D02*
X20934D01*
X20874Y7371D02*
Y7491D01*
X19110Y7447D02*
X19230D01*
X19170Y7387D02*
Y7507D01*
X19110Y8174D02*
X19230D01*
X19170Y8114D02*
Y8234D01*
X19110Y8900D02*
X19230D01*
X19170Y8840D02*
Y8960D01*
X19110Y9627D02*
X19230D01*
X19170Y9567D02*
Y9687D01*
X19678Y9627D02*
X19798D01*
X19738Y9567D02*
Y9687D01*
X19678Y8900D02*
X19798D01*
X19738Y8840D02*
Y8960D01*
X19678Y8174D02*
X19798D01*
X19738Y8114D02*
Y8234D01*
X19678Y7447D02*
X19798D01*
X19738Y7387D02*
Y7507D01*
X17974Y7447D02*
X18094D01*
X18034Y7387D02*
Y7507D01*
X17974Y8174D02*
X18094D01*
X18034Y8114D02*
Y8234D01*
X17974Y8900D02*
X18094D01*
X18034Y8840D02*
Y8960D01*
X17974Y9627D02*
X18094D01*
X18034Y9567D02*
Y9687D01*
X18542Y9627D02*
X18662D01*
X18602Y9567D02*
Y9687D01*
X18542Y8900D02*
X18662D01*
X18602Y8840D02*
Y8960D01*
X18542Y8174D02*
X18662D01*
X18602Y8114D02*
Y8234D01*
X18542Y7447D02*
X18662D01*
X18602Y7387D02*
Y7507D01*
X16839Y7431D02*
X16959D01*
X16899Y7371D02*
Y7491D01*
X16839Y8157D02*
X16959D01*
X16899Y8097D02*
Y8217D01*
X16839Y8884D02*
X16959D01*
X16899Y8824D02*
Y8944D01*
X16839Y9610D02*
X16959D01*
X16899Y9550D02*
Y9670D01*
X17406Y9610D02*
X17526D01*
X17466Y9550D02*
Y9670D01*
X17406Y8884D02*
X17526D01*
X17466Y8824D02*
Y8944D01*
X17406Y8157D02*
X17526D01*
X17466Y8097D02*
Y8217D01*
X17406Y7431D02*
X17526D01*
X17466Y7371D02*
Y7491D01*
X5342Y20717D02*
X5462D01*
X5402Y20657D02*
Y20777D01*
X5342Y21443D02*
X5462D01*
X5402Y21383D02*
Y21503D01*
X5342Y22170D02*
X5462D01*
X5402Y22110D02*
Y22230D01*
X5342Y22896D02*
X5462D01*
X5402Y22836D02*
Y22956D01*
X5859Y22896D02*
X5979D01*
X5919Y22836D02*
Y22956D01*
X5859Y22170D02*
X5979D01*
X5919Y22110D02*
Y22230D01*
X5859Y21443D02*
X5979D01*
X5919Y21383D02*
Y21503D01*
X5859Y20717D02*
X5979D01*
X5919Y20657D02*
Y20777D01*
X4292Y20717D02*
X4412D01*
X4352Y20657D02*
Y20777D01*
X4292Y21443D02*
X4412D01*
X4352Y21383D02*
Y21503D01*
X4292Y22170D02*
X4412D01*
X4352Y22110D02*
Y22230D01*
X4292Y22896D02*
X4412D01*
X4352Y22836D02*
Y22956D01*
X4809Y22896D02*
X4929D01*
X4869Y22836D02*
Y22956D01*
X4809Y22170D02*
X4929D01*
X4869Y22110D02*
Y22230D01*
X4809Y21443D02*
X4929D01*
X4869Y21383D02*
Y21503D01*
X4809Y20717D02*
X4929D01*
X4869Y20657D02*
Y20777D01*
X23660Y14023D02*
X23780D01*
X23720Y13963D02*
Y14083D01*
X24387Y14023D02*
X24507D01*
X24447Y13963D02*
Y14083D01*
X24387Y13506D02*
X24507D01*
X24447Y13446D02*
Y13566D01*
X23660Y13506D02*
X23780D01*
X23720Y13446D02*
Y13566D01*
X23392Y18634D02*
X23512D01*
X23452Y18574D02*
Y18694D01*
X22666Y18634D02*
X22786D01*
X22726Y18574D02*
Y18694D01*
X21939Y18634D02*
X22059D01*
X21999Y18574D02*
Y18694D01*
X21213Y18634D02*
X21333D01*
X21273Y18574D02*
Y18694D01*
X21213Y19151D02*
X21333D01*
X21273Y19091D02*
Y19211D01*
X21939Y19151D02*
X22059D01*
X21999Y19091D02*
Y19211D01*
X22666Y19151D02*
X22786D01*
X22726Y19091D02*
Y19211D01*
X23392Y19151D02*
X23512D01*
X23452Y19091D02*
Y19211D01*
X14693Y1750D02*
X14813D01*
X14753Y1690D02*
Y1810D01*
X13967Y1750D02*
X14087D01*
X14027Y1690D02*
Y1810D01*
X13240Y1750D02*
X13360D01*
X13300Y1690D02*
Y1810D01*
X13240Y2267D02*
X13360D01*
X13300Y2207D02*
Y2327D01*
X13967Y2267D02*
X14087D01*
X14027Y2207D02*
Y2327D01*
X14693Y2267D02*
X14813D01*
X14753Y2207D02*
Y2327D01*
X3348Y2162D02*
X3468D01*
X3408Y2102D02*
Y2222D01*
X4075Y2162D02*
X4195D01*
X4135Y2102D02*
Y2222D01*
X4801Y2162D02*
X4921D01*
X4861Y2102D02*
Y2222D01*
X5528Y2162D02*
X5648D01*
X5588Y2102D02*
Y2222D01*
X5528Y2679D02*
X5648D01*
X5588Y2619D02*
Y2739D01*
X4801Y2679D02*
X4921D01*
X4861Y2619D02*
Y2739D01*
X4075Y2679D02*
X4195D01*
X4135Y2619D02*
Y2739D01*
X3348Y2679D02*
X3468D01*
X3408Y2619D02*
Y2739D01*
X12090Y10550D02*
X12210D01*
X12150Y10490D02*
Y10610D01*
X11090Y11100D02*
X11210D01*
X11150Y11040D02*
Y11160D01*
X13412Y12000D02*
X13532D01*
X13472Y11940D02*
Y12060D01*
X13090Y12250D02*
X13210D01*
X13150Y12190D02*
Y12310D01*
X8290Y17800D02*
X8410D01*
X8350Y17740D02*
Y17860D01*
X20890Y22150D02*
X21010D01*
X20950Y22090D02*
Y22210D01*
X6290Y15850D02*
X6410D01*
X6350Y15790D02*
Y15910D01*
X18385Y13700D02*
X18505D01*
X18445Y13640D02*
Y13760D01*
X18790Y13750D02*
X18910D01*
X18850Y13690D02*
Y13810D01*
X18272Y13250D02*
X18392D01*
X18332Y13190D02*
Y13310D01*
X23540Y9661D02*
X23660D01*
X23600Y9602D02*
Y9722D01*
X12240Y7200D02*
X12360D01*
X12300Y7140D02*
Y7260D01*
X12240Y6650D02*
X12360D01*
X12300Y6590D02*
Y6710D01*
X12885Y5750D02*
X13005D01*
X12945Y5690D02*
Y5810D01*
X12040Y5811D02*
X12160D01*
X12100Y5751D02*
Y5871D01*
X17290Y3750D02*
X17410D01*
X17350Y3690D02*
Y3810D01*
X8190Y10700D02*
X8310D01*
X8250Y10640D02*
Y10760D01*
X9217Y9900D02*
X9337D01*
X9277Y9840D02*
Y9960D01*
X9140Y9390D02*
X9260D01*
X9200Y9330D02*
Y9450D01*
X12090Y9750D02*
X12210D01*
X12150Y9690D02*
Y9810D01*
X11140Y12550D02*
X11260D01*
X11200Y12490D02*
Y12610D01*
X5690Y15115D02*
X5810D01*
X5750Y15055D02*
Y15175D01*
X4081Y7635D02*
X4201D01*
X4141Y7575D02*
Y7695D01*
X4081Y6985D02*
X4201D01*
X4141Y6925D02*
Y7045D01*
X2990Y6800D02*
X3110D01*
X3050Y6740D02*
Y6860D01*
X2984Y6254D02*
X3104D01*
X3044Y6194D02*
Y6314D01*
X3396Y4350D02*
X3516D01*
X3456Y4290D02*
Y4410D01*
X2984Y4600D02*
X3104D01*
X3044Y4540D02*
Y4660D01*
X2546Y4350D02*
X2666D01*
X2606Y4290D02*
Y4410D01*
X2084Y4100D02*
X2204D01*
X2144Y4040D02*
Y4160D01*
X2552Y6254D02*
X2672D01*
X2612Y6194D02*
Y6314D01*
X2987Y8595D02*
X3107D01*
X3047Y8535D02*
Y8655D01*
X3399Y8339D02*
X3519D01*
X3459Y8279D02*
Y8399D01*
X2140Y5998D02*
X2260D01*
X2200Y5938D02*
Y6058D01*
X4957Y8285D02*
X5077D01*
X5017Y8225D02*
Y8345D01*
X4957Y7635D02*
X5077D01*
X5017Y7575D02*
Y7695D01*
X4957Y6985D02*
X5077D01*
X5017Y6925D02*
Y7045D01*
X4957Y6335D02*
X5077D01*
X5017Y6275D02*
Y6395D01*
X4957Y5685D02*
X5077D01*
X5017Y5625D02*
Y5745D01*
X4957Y5035D02*
X5077D01*
X5017Y4975D02*
Y5095D01*
X4957Y4385D02*
X5077D01*
X5017Y4325D02*
Y4445D01*
X4957Y3735D02*
X5077D01*
X5017Y3675D02*
Y3795D01*
X4081Y8285D02*
X4201D01*
X4141Y8225D02*
Y8345D01*
X4081Y6335D02*
X4201D01*
X4141Y6275D02*
Y6395D01*
X4081Y5685D02*
X4201D01*
X4141Y5625D02*
Y5745D01*
X4081Y5035D02*
X4201D01*
X4141Y4975D02*
Y5095D01*
X4081Y4385D02*
X4201D01*
X4141Y4325D02*
Y4445D01*
X4081Y3735D02*
X4201D01*
X4141Y3675D02*
Y3795D01*
X9905Y13092D02*
X10025D01*
X9965Y13032D02*
Y13152D01*
X10090Y14050D02*
X10210D01*
X10150Y13990D02*
Y14110D01*
X9490Y12400D02*
X9610D01*
X9550Y12340D02*
Y12460D01*
X10090Y15819D02*
X10210D01*
X10150Y15759D02*
Y15878D01*
X15302Y17050D02*
X15422D01*
X15362Y16990D02*
Y17110D01*
X16014Y16850D02*
X16134D01*
X16074Y16790D02*
Y16910D01*
X23334Y21115D02*
X23454D01*
X23394Y21055D02*
Y21175D01*
X23375Y20694D02*
X23495D01*
X23435Y20634D02*
Y20754D01*
X6740Y17650D02*
X6860D01*
X6800Y17590D02*
Y17710D01*
X2840Y16819D02*
X2960D01*
X2900Y16759D02*
Y16879D01*
X4400Y11700D02*
X4520D01*
X4460Y11640D02*
Y11760D01*
X2919Y15070D02*
X3039D01*
X2979Y15010D02*
Y15130D01*
X9140Y18650D02*
X9260D01*
X9200Y18590D02*
Y18710D01*
X9690Y20194D02*
X9810D01*
X9750Y20134D02*
Y20254D01*
X7268Y15253D02*
X7388D01*
X7328Y15193D02*
Y15313D01*
X5690Y15715D02*
X5810D01*
X5750Y15655D02*
Y15775D01*
X7975Y15444D02*
X8095D01*
X8035Y15384D02*
Y15504D01*
X21690Y21700D02*
X21810D01*
X21750Y21640D02*
Y21760D01*
X19947Y20194D02*
X20067D01*
X20007Y20134D02*
Y20254D01*
X14990Y13300D02*
X15110D01*
X15050Y13240D02*
Y13360D01*
X17671Y14075D02*
X17791D01*
X17731Y14015D02*
Y14135D01*
X17074Y15030D02*
X17194D01*
X17134Y14970D02*
Y15090D01*
X17390Y15253D02*
X17510D01*
X17450Y15193D02*
Y15313D01*
X16290Y19150D02*
X16410D01*
X16350Y19090D02*
Y19210D01*
X20033Y4850D02*
X20153D01*
X20093Y4790D02*
Y4910D01*
X15084Y6205D02*
X15203D01*
X15144Y6145D02*
Y6265D01*
X15215Y13900D02*
X15335D01*
X15275Y13840D02*
Y13960D01*
X9790Y8150D02*
X9910D01*
X9850Y8090D02*
Y8210D01*
X11690Y6650D02*
X11810D01*
X11750Y6590D02*
Y6710D01*
X11440Y5924D02*
X11560D01*
X11500Y5864D02*
Y5984D01*
X11487Y4886D02*
X11607D01*
X11547Y4826D02*
Y4946D01*
X10340Y3650D02*
X10460D01*
X10400Y3590D02*
Y3710D01*
X5342Y12800D02*
X5462D01*
X5402Y12740D02*
Y12860D01*
X6890Y2157D02*
X7010D01*
X6950Y2097D02*
Y2217D01*
X6246Y2147D02*
X6366D01*
X6306Y2087D02*
Y2207D01*
X17583Y16819D02*
X17703D01*
X17643Y16759D02*
Y16879D01*
X17583Y16256D02*
X17703D01*
X17643Y16196D02*
Y16316D01*
X18840Y15622D02*
X18960D01*
X18900Y15562D02*
Y15682D01*
X19380Y14075D02*
X19500D01*
X19440Y14015D02*
Y14135D01*
X13830Y9836D02*
X13950D01*
X13890Y9776D02*
Y9896D01*
X13830Y8000D02*
X13950D01*
X13890Y7940D02*
Y8060D01*
X13315Y6028D02*
X13435D01*
X13375Y5968D02*
Y6088D01*
X13315Y4528D02*
X13435D01*
X13375Y4468D02*
Y4588D01*
X13100Y2950D02*
X13220D01*
X13160Y2890D02*
Y3010D01*
X15730Y2950D02*
X15850D01*
X15790Y2890D02*
Y3010D01*
X15350Y1720D02*
X15470D01*
X15410Y1660D02*
Y1780D01*
X21900Y2944D02*
X22020D01*
X21960Y2884D02*
Y3004D01*
X21400Y2944D02*
X21520D01*
X21460Y2884D02*
Y3004D01*
X18180Y3268D02*
X18300D01*
X18240Y3209D02*
Y3329D01*
X20797Y3268D02*
X20917D01*
X20857Y3209D02*
Y3329D01*
X19030Y1720D02*
X19150D01*
X19090Y1660D02*
Y1780D01*
X19808Y1720D02*
X19928D01*
X19868Y1660D02*
Y1780D01*
X21900Y1720D02*
X22020D01*
X21960Y1660D02*
Y1780D01*
X21400Y1720D02*
X21520D01*
X21460Y1660D02*
Y1780D01*
X25021Y2128D02*
X25141D01*
X25081Y2068D02*
Y2188D01*
X24080Y5233D02*
X24200D01*
X24140Y5173D02*
Y5293D01*
X23890Y7457D02*
X24010D01*
X23950Y7397D02*
Y7517D01*
X24490Y7593D02*
X24610D01*
X24550Y7533D02*
Y7653D01*
X23700Y8635D02*
X23820D01*
X23760Y8575D02*
Y8695D01*
X23890Y11454D02*
X24010D01*
X23950Y11394D02*
Y11514D01*
X23040Y13950D02*
X23160D01*
X23100Y13890D02*
Y14010D01*
X24390Y12774D02*
X24510D01*
X24450Y12714D02*
Y12834D01*
X24390Y12174D02*
X24510D01*
X24450Y12114D02*
Y12234D01*
X20223Y13289D02*
X20343D01*
X20283Y13229D02*
Y13349D01*
X19971Y14435D02*
X20091D01*
X20031Y14375D02*
Y14495D01*
X19988Y13756D02*
X20108D01*
X20048Y13696D02*
Y13816D01*
X22790Y17012D02*
X22910D01*
X22850Y16952D02*
Y17072D01*
X22817Y21115D02*
X22937D01*
X22877Y21055D02*
Y21175D01*
X18405Y21056D02*
X18525D01*
X18465Y20996D02*
Y21116D01*
X18405Y21606D02*
X18525D01*
X18465Y21546D02*
Y21666D01*
X13621Y20389D02*
X13741D01*
X13681Y20329D02*
Y20449D01*
X8963Y20985D02*
X9083D01*
X9023Y20925D02*
Y21045D01*
X8963Y20385D02*
X9083D01*
X9023Y20325D02*
Y20445D01*
X3025Y23294D02*
X3145D01*
X3085Y23234D02*
Y23354D01*
X7183Y19306D02*
X7303D01*
X7243Y19246D02*
Y19366D01*
X3025Y19294D02*
X3145D01*
X3085Y19234D02*
Y19354D01*
X3436Y13048D02*
X3556D01*
X3496Y12988D02*
Y13108D01*
X2820Y13048D02*
X2940D01*
X2880Y12988D02*
Y13108D01*
X2734Y15626D02*
X2854D01*
X2794Y15566D02*
Y15686D01*
X3840Y15415D02*
X3960D01*
X3900Y15355D02*
Y15475D01*
X10640Y15850D02*
X10760D01*
X10700Y15790D02*
Y15910D01*
X10667Y13672D02*
X10787D01*
X10727Y13612D02*
Y13732D01*
X10090Y15070D02*
X10210D01*
X10150Y15010D02*
Y15130D01*
X7274Y13049D02*
X7394D01*
X7334Y12989D02*
Y13109D01*
X7274Y13649D02*
X7394D01*
X7334Y13589D02*
Y13709D01*
X7604Y13680D02*
X7724D01*
X7664Y13620D02*
Y13740D01*
X11590Y12000D02*
X11710D01*
X11650Y11940D02*
Y12060D01*
X7090Y20800D02*
X7210D01*
X7150Y20740D02*
Y20860D01*
X7090Y20300D02*
X7210D01*
X7150Y20240D02*
Y20360D01*
M02*
