M48
;Layer_Color=9474304
;FILE_FORMAT=2:4
INCH,LZ
;TYPE=PLATED
T2F00S00C0.0354
T3F00S00C0.0394
T4F00S00C0.1378
;TYPE=NON_PLATED
T5F00S00C0.0197
%
T02
X01845Y00375
X01945
X02045
X02145
X02245
X02345
X02545
X02645
X02745
X02845
X02945
X03045
X029434Y005704
Y006704
X028434
Y005704
X027434
Y006704
X026434
Y005704
X025434
Y006704
X002356Y010833
X001356
Y011833
Y012833
Y013833
Y014833
Y015833
Y016833
Y017833
Y018833
Y019833
X002356
Y018833
Y017833
Y016833
Y015833
Y014833
Y013833
Y012833
Y011833
X0015Y02515
Y02615
Y02715
Y02815
T03
X03205Y003197
X033
X03252Y005049
X03325Y00565
X033Y007303
X03205
Y0095
X033
X03423Y010161
X0365Y010997
X0386Y011
X03855Y0083
X03765Y008274
Y0072
X03855
X036481Y007544
X03605Y006564
X036481Y002694
X03765Y00335
X03855
X0313Y00565
X03085Y010222
X0299Y010191
X02895
X02805Y00945
X027082Y0095
Y01045
X0271Y011
X026139Y010788
X023447Y011
X02315Y01155
X02075Y010285
X01938Y01021
X01855Y00855
X0204Y0073
X019824Y005461
X018163
X016809Y00485
X01496Y00527
Y003313
X015961Y007242
X01665Y007169
X0219Y0084
X023202Y006082
X02595Y0057
X02695Y005702
X027934Y005702
X028991Y00825
X029957
X01411Y008344
X01275Y008059
X011244Y009097
X010262Y008638
X009087Y00875
X009459Y006445
X010409
X010262Y007169
X011266Y006659
X010409Y004487
X010982Y003886
X00848Y004
X007459Y00527
X005Y00605
Y006704
X00425
Y00605
X0035
Y006704
X002565Y009178
X006283Y008883
X006283Y009997
X006283Y011111
X007963Y0113
X009739Y011225
X011244Y011474
X01411Y00527
Y003313
X013259
X013396Y011682
X013259Y012853
X012329Y012851
X01195Y013927
X01254Y015521
X013623Y0154
X014758Y0149
X014686Y013733
X01469Y012853
X010768Y012848
X00975Y012853
X008263
Y0137
X008603Y014937
X006283Y014452
X006283Y013338
X006283Y012225
X006283Y015566
X006284Y01665
X006283Y017794
X006283Y018867
X006283Y020021
X006283Y021135
X006283Y022249
X006283Y023362
X006283Y024476
X006283Y02559
X008247Y02595
Y022402
X010358Y02226
X010768Y02145
X011824Y02226
X012737Y020245
X013473Y0193
X0145Y0204
X01478Y022866
X012935Y017294
Y016703
X010768Y01865
X001356Y021447
X00045Y020639
X002306Y02285
X002565Y02409
X01535Y0204
X01675Y0201
X01705Y019561
X018013Y018867
X01695Y018
X018013Y016899
X0177Y01565
X017328Y0149
X016344Y015132
X0153Y0133
X01655Y011673
X018294Y013266
X019673Y012377
X02265Y0125
X02295Y012031
X024Y0117
X0249Y013
X025754Y0129
X025564Y014317
X0249Y014254
X02265Y01505
X023Y015719
X02335Y0163
X023697Y01715
X020942Y016308
X0195Y015521
X019059Y0175
X0152Y01715
X015238Y018472
X0199Y0219
X02143Y0213
X02175Y023822
X020839
X01945Y0236
X023166Y0235
X02445Y022821
X025884Y023538
X025515Y0247
X02625Y026999
X027028Y0267
X028Y0261
X029173Y024598
X030066Y023454
X030003Y02226
Y0207
Y018584
Y016467
X030003Y015404
X030003Y01435
X02885Y013927
X02835Y01215
X027729Y012729
X026548Y01175
X029879Y01215
X0283Y02285
X02165Y0254
X018306Y026678
X017498
X016691
X0347Y026093
X03425Y024712
Y0236
X033Y022411
X031607Y02115
X031206Y0195
X031269Y016507
X030595Y0142
X0311Y01355
X031802Y012729
X034283Y012788
X03715Y01265
Y01365
Y01465
X03675
X03835Y01565
X038291Y01695
X03715Y01765
X03675
X03715Y01865
X03735Y02033
X03545Y021336
X036484Y024712
X03765Y0296
X018306Y02745
X017498Y027413
X016691
X0015Y028434
T04
X038219Y001181
X001181
X038169Y031119
X001181Y031069
T05
X0373Y023413
Y024987
M30
