G04*
G04 #@! TF.GenerationSoftware,Altium Limited,Altium Designer,18.1.9 (240)*
G04*
G04 Layer_Color=128*
%FSLAX24Y24*%
%MOIN*%
G70*
G01*
G75*
%ADD15C,0.0100*%
%ADD17C,0.0200*%
%ADD18C,0.0060*%
%ADD21C,0.0050*%
%ADD79C,0.0020*%
D15*
X-2150Y600D02*
X-1950Y0D01*
X-1750Y600D01*
X-1950Y32283D02*
X-1750Y31683D01*
X-2150D02*
X-1950Y32283D01*
Y0D02*
Y14472D01*
Y17491D02*
Y32283D01*
X-2050Y0D02*
X-200D01*
X-2050Y32283D02*
X-200D01*
X0Y-1600D02*
X600Y-1400D01*
X0Y-1600D02*
X600Y-1800D01*
X38770D02*
X39370Y-1600D01*
X38770Y-1400D02*
X39370Y-1600D01*
X0D02*
X17766D01*
X21285D02*
X39370D01*
X0Y-1700D02*
Y-200D01*
X39370Y-1700D02*
Y-200D01*
D17*
X0Y0D02*
Y32283D01*
Y0D02*
X39370D01*
X0Y32283D02*
X39370D01*
Y0D02*
Y32283D01*
D18*
X-2090Y14632D02*
X-2190Y14732D01*
Y14932D01*
X-2090Y15032D01*
X-1990D01*
X-1890Y14932D01*
X-1790Y15032D01*
X-1690D01*
X-1590Y14932D01*
Y14732D01*
X-1690Y14632D01*
X-1790D01*
X-1890Y14732D01*
X-1990Y14632D01*
X-2090D01*
X-1890Y14732D02*
Y14932D01*
X-1590Y15632D02*
Y15232D01*
X-1990Y15632D01*
X-2090D01*
X-2190Y15532D01*
Y15332D01*
X-2090Y15232D01*
X-1590Y15832D02*
X-1690D01*
Y15932D01*
X-1590D01*
Y15832D01*
X-2090Y16332D02*
X-2190Y16432D01*
Y16632D01*
X-2090Y16731D01*
X-1690D01*
X-1590Y16632D01*
Y16432D01*
X-1690Y16332D01*
X-2090D01*
Y16931D02*
X-2190Y17031D01*
Y17231D01*
X-2090Y17331D01*
X-1690D01*
X-1590Y17231D01*
Y17031D01*
X-1690Y16931D01*
X-2090D01*
X17926Y-1960D02*
X18125D01*
X18026D01*
Y-1360D01*
X17926Y-1460D01*
X18425D02*
X18525Y-1360D01*
X18725D01*
X18825Y-1460D01*
Y-1860D01*
X18725Y-1960D01*
X18525D01*
X18425Y-1860D01*
Y-1460D01*
X19025D02*
X19125Y-1360D01*
X19325D01*
X19425Y-1460D01*
Y-1860D01*
X19325Y-1960D01*
X19125D01*
X19025Y-1860D01*
Y-1460D01*
X19625Y-1960D02*
Y-1860D01*
X19725D01*
Y-1960D01*
X19625D01*
X20125Y-1460D02*
X20225Y-1360D01*
X20425D01*
X20525Y-1460D01*
Y-1860D01*
X20425Y-1960D01*
X20225D01*
X20125Y-1860D01*
Y-1460D01*
X20725D02*
X20825Y-1360D01*
X21025D01*
X21125Y-1460D01*
Y-1860D01*
X21025Y-1960D01*
X20825D01*
X20725Y-1860D01*
Y-1460D01*
D21*
X38361Y25222D02*
Y25402D01*
X37921Y25222D02*
Y25402D01*
Y25222D02*
X38361D01*
X37921Y25402D02*
X38361D01*
Y22998D02*
Y23178D01*
X37921Y22998D02*
Y23178D01*
Y22998D02*
X38361D01*
X37921Y23178D02*
X38361D01*
D79*
X36953Y12650D02*
X37347D01*
X37150Y12453D02*
Y12847D01*
X36953Y13650D02*
X37347D01*
X37150Y13453D02*
Y13847D01*
X36953Y14650D02*
X37347D01*
X37150Y14453D02*
Y14847D01*
X36953Y17650D02*
X37347D01*
X37150Y17453D02*
Y17847D01*
X36953Y18650D02*
X37347D01*
X37150Y18453D02*
Y18847D01*
X29257Y6704D02*
X29611D01*
X29434Y6527D02*
Y6881D01*
X29257Y5704D02*
X29611D01*
X29434Y5527D02*
Y5881D01*
X28257Y6704D02*
X28611D01*
X28434Y6527D02*
Y6881D01*
X28257Y5704D02*
X28611D01*
X28434Y5527D02*
Y5881D01*
X27257Y6704D02*
X27611D01*
X27434Y6527D02*
Y6881D01*
X27257Y5704D02*
X27611D01*
X27434Y5527D02*
Y5881D01*
X26257Y6704D02*
X26611D01*
X26434Y6527D02*
Y6881D01*
X26257Y5704D02*
X26611D01*
X26434Y5527D02*
Y5881D01*
X25257Y6704D02*
X25611D01*
X25434Y6527D02*
Y6881D01*
X25257Y5704D02*
X25611D01*
X25434Y5527D02*
Y5881D01*
X25273Y3750D02*
X25627D01*
X25450Y3573D02*
Y3927D01*
X26273Y3750D02*
X26627D01*
X26450Y3573D02*
Y3927D01*
X27273Y3750D02*
X27627D01*
X27450Y3573D02*
Y3927D01*
X28273Y3750D02*
X28627D01*
X28450Y3573D02*
Y3927D01*
X29273Y3750D02*
X29627D01*
X29450Y3573D02*
Y3927D01*
X30273Y3750D02*
X30627D01*
X30450Y3573D02*
Y3927D01*
X23273Y3750D02*
X23627D01*
X23450Y3573D02*
Y3927D01*
X22273Y3750D02*
X22627D01*
X22450Y3573D02*
Y3927D01*
X21273Y3750D02*
X21627D01*
X21450Y3573D02*
Y3927D01*
X20273Y3750D02*
X20627D01*
X20450Y3573D02*
Y3927D01*
X19273Y3750D02*
X19627D01*
X19450Y3573D02*
Y3927D01*
X18273Y3750D02*
X18627D01*
X18450Y3573D02*
Y3927D01*
X38068Y25312D02*
X38226D01*
X38147Y25233D02*
Y25391D01*
X38068Y23088D02*
X38226D01*
X38147Y23009D02*
Y23167D01*
X37202Y23413D02*
X37399D01*
X37300Y23314D02*
Y23511D01*
X37202Y24987D02*
X37399D01*
X37300Y24889D02*
Y25086D01*
X1323Y25150D02*
X1677D01*
X1500Y24973D02*
Y25327D01*
X1323Y26150D02*
X1677D01*
X1500Y25973D02*
Y26327D01*
X1323Y27150D02*
X1677D01*
X1500Y26973D02*
Y27327D01*
X1323Y28150D02*
X1677D01*
X1500Y27973D02*
Y28327D01*
X1178Y19833D02*
X1533D01*
X1356Y19656D02*
Y20010D01*
X2178Y19833D02*
X2533D01*
X2356Y19656D02*
Y20010D01*
X1178Y18833D02*
X1533D01*
X1356Y18656D02*
Y19010D01*
X2178Y18833D02*
X2533D01*
X2356Y18656D02*
Y19010D01*
X1178Y17833D02*
X1533D01*
X1356Y17656D02*
Y18010D01*
X2178Y17833D02*
X2533D01*
X2356Y17656D02*
Y18010D01*
X1178Y16833D02*
X1533D01*
X1356Y16656D02*
Y17011D01*
X2178Y16833D02*
X2533D01*
X2356Y16656D02*
Y17011D01*
X1178Y15833D02*
X1533D01*
X1356Y15656D02*
Y16011D01*
X2178Y15833D02*
X2533D01*
X2356Y15656D02*
Y16011D01*
X1178Y14833D02*
X1533D01*
X1356Y14656D02*
Y15010D01*
X2178Y14833D02*
X2533D01*
X2356Y14656D02*
Y15010D01*
X1178Y13833D02*
X1533D01*
X1356Y13656D02*
Y14010D01*
X2178Y13833D02*
X2533D01*
X2356Y13656D02*
Y14010D01*
X1178Y12833D02*
X1533D01*
X1356Y12656D02*
Y13010D01*
X2178Y12833D02*
X2533D01*
X2356Y12656D02*
Y13010D01*
X1178Y11833D02*
X1533D01*
X1356Y11656D02*
Y12011D01*
X2178Y11833D02*
X2533D01*
X2356Y11656D02*
Y12011D01*
X1178Y10833D02*
X1533D01*
X1356Y10656D02*
Y11011D01*
X2178Y10833D02*
X2533D01*
X2356Y10656D02*
Y11011D01*
X492Y31069D02*
X1870D01*
X1181Y30380D02*
Y31758D01*
X37480Y31119D02*
X38858D01*
X38169Y30430D02*
Y31808D01*
X37530Y1181D02*
X38908D01*
X38219Y492D02*
Y1870D01*
X492Y1181D02*
X1870D01*
X1181Y492D02*
Y1870D01*
X13199Y11682D02*
X13592D01*
X13396Y11485D02*
Y11879D01*
X24253Y22821D02*
X24647D01*
X24450Y22624D02*
Y23018D01*
X34033Y10161D02*
X34427D01*
X34230Y9964D02*
Y10358D01*
X32323Y5049D02*
X32717D01*
X32520Y4852D02*
Y5246D01*
X27737Y5702D02*
X28131D01*
X27934Y5505D02*
Y5899D01*
X26753Y5702D02*
X27147D01*
X26950Y5505D02*
Y5899D01*
X25753Y5700D02*
X26147D01*
X25950Y5503D02*
Y5897D01*
X28103Y22850D02*
X28497D01*
X28300Y22653D02*
Y23047D01*
X26053Y26999D02*
X26447D01*
X26250Y26803D02*
Y27196D01*
X2368Y9178D02*
X2762D01*
X2565Y8982D02*
Y9375D01*
X8050Y25950D02*
X8444D01*
X8247Y25753D02*
Y26147D01*
X2368Y24090D02*
X2762D01*
X2565Y23893D02*
Y24287D01*
X13276Y19300D02*
X13670D01*
X13473Y19103D02*
Y19497D01*
X11627Y22260D02*
X12021D01*
X11824Y22063D02*
Y22456D01*
X10161Y22260D02*
X10555D01*
X10358Y22063D02*
Y22456D01*
X8050Y22402D02*
X8444D01*
X8247Y22205D02*
Y22598D01*
X14583Y22866D02*
X14977D01*
X14780Y22670D02*
Y23063D01*
X21453Y25400D02*
X21847D01*
X21650Y25203D02*
Y25597D01*
X34086Y12788D02*
X34480D01*
X34283Y12591D02*
Y12985D01*
X19627Y5461D02*
X20021D01*
X19824Y5264D02*
Y5658D01*
X23005Y6082D02*
X23398D01*
X23202Y5885D02*
Y6279D01*
X17966Y5461D02*
X18359D01*
X18163Y5264D02*
Y5658D01*
X8283Y4000D02*
X8677D01*
X8480Y3803D02*
Y4197D01*
X9542Y11225D02*
X9936D01*
X9739Y11029D02*
Y11422D01*
X8406Y14937D02*
X8800D01*
X8603Y14740D02*
Y15133D01*
X14561Y14900D02*
X14955D01*
X14758Y14703D02*
Y15097D01*
X16353Y11673D02*
X16747D01*
X16550Y11476D02*
Y11870D01*
X19183Y10210D02*
X19577D01*
X19380Y10013D02*
Y10407D01*
X19476Y12377D02*
X19870D01*
X19673Y12180D02*
Y12574D01*
X25942Y10788D02*
X26336D01*
X26139Y10591D02*
Y10985D01*
X28153Y12150D02*
X28547D01*
X28350Y11953D02*
Y12347D01*
X29682Y12150D02*
X30076D01*
X29879Y11953D02*
Y12347D01*
X31605Y12729D02*
X31999D01*
X31802Y12532D02*
Y12926D01*
X31072Y16507D02*
X31466D01*
X31269Y16310D02*
Y16703D01*
X38153Y15650D02*
X38547D01*
X38350Y15453D02*
Y15847D01*
X38094Y16950D02*
X38488D01*
X38291Y16753D02*
Y17147D01*
X32803Y22411D02*
X33197D01*
X33000Y22214D02*
Y22607D01*
X31009Y19500D02*
X31403D01*
X31206Y19303D02*
Y19697D01*
X18109Y26678D02*
X18502D01*
X18306Y26481D02*
Y26874D01*
X17301Y26678D02*
X17695D01*
X17498Y26481D02*
Y26874D01*
X16494Y26678D02*
X16888D01*
X16691Y26481D02*
Y26874D01*
X18109Y27450D02*
X18502D01*
X18306Y27253D02*
Y27647D01*
X17301Y27413D02*
X17695D01*
X17498Y27216D02*
Y27610D01*
X16494Y27413D02*
X16888D01*
X16691Y27216D02*
Y27610D01*
X4803Y6050D02*
X5197D01*
X5000Y5853D02*
Y6247D01*
X4053Y6050D02*
X4447D01*
X4250Y5853D02*
Y6247D01*
X3303Y6050D02*
X3697D01*
X3500Y5853D02*
Y6247D01*
X4803Y6704D02*
X5197D01*
X5000Y6507D02*
Y6901D01*
X4053Y6704D02*
X4447D01*
X4250Y6507D02*
Y6901D01*
X3303Y6704D02*
X3697D01*
X3500Y6507D02*
Y6901D01*
X29806Y14350D02*
X30200D01*
X30003Y14154D02*
Y14547D01*
X29806Y15404D02*
X30200D01*
X30003Y15207D02*
Y15600D01*
X29806Y16467D02*
X30200D01*
X30003Y16270D02*
Y16664D01*
X29806Y18584D02*
X30200D01*
X30003Y18387D02*
Y18781D01*
X29806Y20700D02*
X30200D01*
X30003Y20504D02*
Y20897D01*
X29806Y22260D02*
X30200D01*
X30003Y22063D02*
Y22456D01*
X29869Y23454D02*
X30263D01*
X30066Y23257D02*
Y23650D01*
X28976Y24598D02*
X29369D01*
X29173Y24401D02*
Y24795D01*
X27803Y26100D02*
X28197D01*
X28000Y25903D02*
Y26297D01*
X25687Y23538D02*
X26081D01*
X25884Y23341D02*
Y23735D01*
X22969Y23500D02*
X23363D01*
X23166Y23303D02*
Y23697D01*
X21553Y23822D02*
X21947D01*
X21750Y23625D02*
Y24019D01*
X20643Y23822D02*
X21036D01*
X20839Y23625D02*
Y24019D01*
X17816Y18867D02*
X18210D01*
X18013Y18670D02*
Y19064D01*
X17816Y16899D02*
X18210D01*
X18013Y16702D02*
Y17096D01*
X18097Y13266D02*
X18491D01*
X18294Y13069D02*
Y13463D01*
X14490Y13733D02*
X14883D01*
X14686Y13536D02*
Y13930D01*
X14493Y12853D02*
X14886D01*
X14690Y12656D02*
Y13050D01*
X6086Y8883D02*
X6480D01*
X6283Y8686D02*
Y9080D01*
X6086Y9997D02*
X6480D01*
X6283Y9800D02*
Y10194D01*
X6086Y11111D02*
X6480D01*
X6283Y10914D02*
Y11308D01*
X6086Y12225D02*
X6480D01*
X6283Y12028D02*
Y12422D01*
X6086Y13338D02*
X6480D01*
X6283Y13142D02*
Y13535D01*
X6086Y14452D02*
X6480D01*
X6283Y14255D02*
Y14649D01*
X6086Y15566D02*
X6480D01*
X6283Y15369D02*
Y15763D01*
X6087Y16650D02*
X6481D01*
X6284Y16453D02*
Y16847D01*
X6086Y17794D02*
X6480D01*
X6283Y17597D02*
Y17990D01*
X6086Y18867D02*
X6480D01*
X6283Y18670D02*
Y19064D01*
X6086Y20021D02*
X6480D01*
X6283Y19824D02*
Y20218D01*
X6086Y21135D02*
X6480D01*
X6283Y20938D02*
Y21332D01*
X6086Y22249D02*
X6480D01*
X6283Y22052D02*
Y22446D01*
X6086Y23362D02*
X6480D01*
X6283Y23166D02*
Y23559D01*
X6086Y24476D02*
X6480D01*
X6283Y24279D02*
Y24673D01*
X6086Y25590D02*
X6480D01*
X6283Y25393D02*
Y25787D01*
X1303Y28434D02*
X1697D01*
X1500Y28237D02*
Y28631D01*
X1159Y21447D02*
X1552D01*
X1356Y21250D02*
Y21644D01*
X8066Y12853D02*
X8460D01*
X8263Y12656D02*
Y13050D01*
X8066Y13700D02*
X8460D01*
X8263Y13503D02*
Y13897D01*
X7766Y11300D02*
X8160D01*
X7963Y11103D02*
Y11497D01*
X8890Y8750D02*
X9284D01*
X9087Y8553D02*
Y8947D01*
X10213Y6445D02*
X10606D01*
X10409Y6248D02*
Y6642D01*
X7263Y5270D02*
X7656D01*
X7459Y5073D02*
Y5467D01*
X9263Y6445D02*
X9656D01*
X9459Y6248D02*
Y6642D01*
X14763Y3313D02*
X15157D01*
X14960Y3116D02*
Y3510D01*
X13913Y3313D02*
X14306D01*
X14110Y3116D02*
Y3510D01*
X13063Y3313D02*
X13456D01*
X13259Y3116D02*
Y3510D01*
X10785Y3886D02*
X11179D01*
X10982Y3689D02*
Y4083D01*
X10213Y4487D02*
X10606D01*
X10409Y4290D02*
Y4684D01*
X16613Y4850D02*
X17006D01*
X16809Y4653D02*
Y5047D01*
X14763Y5270D02*
X15157D01*
X14960Y5073D02*
Y5467D01*
X13913Y5270D02*
X14306D01*
X14110Y5073D02*
Y5467D01*
X11069Y6659D02*
X11463D01*
X11266Y6462D02*
Y6856D01*
X12553Y8059D02*
X12947D01*
X12750Y7863D02*
Y8256D01*
X10065Y7169D02*
X10459D01*
X10262Y6972D02*
Y7366D01*
X13913Y8344D02*
X14306D01*
X14110Y8147D02*
Y8540D01*
X15764Y7242D02*
X16157D01*
X15961Y7045D02*
Y7439D01*
X16453Y7169D02*
X16847D01*
X16650Y6972D02*
Y7366D01*
X18353Y8550D02*
X18747D01*
X18550Y8353D02*
Y8747D01*
X21703Y8400D02*
X22097D01*
X21900Y8203D02*
Y8597D01*
X20553Y10285D02*
X20947D01*
X20750Y10088D02*
Y10481D01*
X29703Y10191D02*
X30097D01*
X29900Y9994D02*
Y10388D01*
X28753Y10191D02*
X29147D01*
X28950Y9994D02*
Y10388D01*
X32803Y7303D02*
X33197D01*
X33000Y7106D02*
Y7500D01*
X31853Y7303D02*
X32247D01*
X32050Y7106D02*
Y7500D01*
X32803Y3197D02*
X33197D01*
X33000Y3000D02*
Y3394D01*
X31853Y3197D02*
X32247D01*
X32050Y3000D02*
Y3394D01*
X36284Y2694D02*
X36678D01*
X36481Y2498D02*
Y2891D01*
X36284Y7544D02*
X36678D01*
X36481Y7348D02*
Y7741D01*
X36303Y10997D02*
X36697D01*
X36500Y10800D02*
Y11194D01*
X38403Y11000D02*
X38797D01*
X38600Y10803D02*
Y11197D01*
X36553Y14650D02*
X36947D01*
X36750Y14453D02*
Y14847D01*
X36553Y17650D02*
X36947D01*
X36750Y17453D02*
Y17847D01*
X35253Y21336D02*
X35647D01*
X35450Y21140D02*
Y21533D01*
X37153Y20330D02*
X37547D01*
X37350Y20133D02*
Y20527D01*
X36287Y24712D02*
X36681D01*
X36484Y24515D02*
Y24909D01*
X34503Y26093D02*
X34897D01*
X34700Y25896D02*
Y26289D01*
X37453Y29600D02*
X37847D01*
X37650Y29403D02*
Y29797D01*
X16147Y15132D02*
X16541D01*
X16344Y14935D02*
Y15329D01*
X24703Y13000D02*
X25097D01*
X24900Y12803D02*
Y13197D01*
X21233Y21300D02*
X21627D01*
X21430Y21103D02*
Y21497D01*
X24703Y14254D02*
X25097D01*
X24900Y14057D02*
Y14450D01*
X10571Y21450D02*
X10965D01*
X10768Y21253D02*
Y21647D01*
X15103Y13300D02*
X15497D01*
X15300Y13103D02*
Y13497D01*
X11753Y13927D02*
X12147D01*
X11950Y13731D02*
Y14124D01*
X12132Y12851D02*
X12526D01*
X12329Y12655D02*
Y13048D01*
X19703Y21900D02*
X20097D01*
X19900Y21703D02*
Y22097D01*
X26831Y26700D02*
X27224D01*
X27028Y26503D02*
Y26897D01*
X17131Y14900D02*
X17525D01*
X17328Y14703D02*
Y15097D01*
X15003Y17150D02*
X15397D01*
X15200Y16953D02*
Y17347D01*
X16553Y20100D02*
X16947D01*
X16750Y19903D02*
Y20297D01*
X15041Y18472D02*
X15435D01*
X15238Y18275D02*
Y18669D01*
X16753Y18000D02*
X17147D01*
X16950Y17803D02*
Y18197D01*
X16853Y19561D02*
X17247D01*
X17050Y19364D02*
Y19758D01*
X23500Y17150D02*
X23894D01*
X23697Y16953D02*
Y17347D01*
X22753Y12031D02*
X23147D01*
X22950Y11835D02*
Y12228D01*
X23153Y16300D02*
X23547D01*
X23350Y16103D02*
Y16497D01*
X22803Y15719D02*
X23197D01*
X23000Y15522D02*
Y15916D01*
X22953Y11550D02*
X23347D01*
X23150Y11353D02*
Y11747D01*
X23250Y11000D02*
X23644D01*
X23447Y10803D02*
Y11197D01*
X22453Y15050D02*
X22847D01*
X22650Y14853D02*
Y15247D01*
X22453Y12500D02*
X22847D01*
X22650Y12303D02*
Y12697D01*
X23803Y11700D02*
X24197D01*
X24000Y11503D02*
Y11897D01*
X25557Y12900D02*
X25951D01*
X25754Y12703D02*
Y13097D01*
X31103Y5650D02*
X31497D01*
X31300Y5453D02*
Y5847D01*
X33053Y5650D02*
X33447D01*
X33250Y5453D02*
Y5847D01*
X26885Y10450D02*
X27279D01*
X27082Y10253D02*
Y10647D01*
X12738Y16703D02*
X13132D01*
X12935Y16507D02*
Y16900D01*
X12540Y20245D02*
X12933D01*
X12737Y20048D02*
Y20442D01*
X12738Y17294D02*
X13132D01*
X12935Y17097D02*
Y17491D01*
X13426Y15400D02*
X13820D01*
X13623Y15203D02*
Y15597D01*
X14303Y20400D02*
X14697D01*
X14500Y20203D02*
Y20597D01*
X15153Y20400D02*
X15547D01*
X15350Y20203D02*
Y20597D01*
X17503Y15650D02*
X17897D01*
X17700Y15453D02*
Y15847D01*
X30903Y13550D02*
X31297D01*
X31100Y13353D02*
Y13747D01*
X30398Y14200D02*
X30792D01*
X30595Y14003D02*
Y14397D01*
X25318Y24700D02*
X25711D01*
X25515Y24503D02*
Y24897D01*
X25367Y14317D02*
X25761D01*
X25564Y14120D02*
Y14514D01*
X26903Y11000D02*
X27297D01*
X27100Y10803D02*
Y11197D01*
X26351Y11750D02*
X26745D01*
X26548Y11553D02*
Y11947D01*
X28653Y13927D02*
X29047D01*
X28850Y13731D02*
Y14124D01*
X27532Y12729D02*
X27926D01*
X27729Y12532D02*
Y12926D01*
X20203Y7300D02*
X20597D01*
X20400Y7103D02*
Y7497D01*
X30653Y10222D02*
X31047D01*
X30850Y10026D02*
Y10419D01*
X19253Y23600D02*
X19647D01*
X19450Y23403D02*
Y23797D01*
X19303Y15521D02*
X19697D01*
X19500Y15324D02*
Y15718D01*
X12343Y15521D02*
X12737D01*
X12540Y15324D02*
Y15718D01*
X10065Y8638D02*
X10459D01*
X10262Y8441D02*
Y8835D01*
X11047Y9097D02*
X11441D01*
X11244Y8900D02*
Y9294D01*
X11047Y11474D02*
X11441D01*
X11244Y11277D02*
Y11670D01*
X31410Y21150D02*
X31804D01*
X31607Y20953D02*
Y21347D01*
X34053Y23600D02*
X34447D01*
X34250Y23403D02*
Y23797D01*
X34053Y24712D02*
X34447D01*
X34250Y24515D02*
Y24909D01*
X10571Y18650D02*
X10965D01*
X10768Y18453D02*
Y18847D01*
X20745Y16308D02*
X21139D01*
X20942Y16111D02*
Y16505D01*
X18863Y17500D02*
X19256D01*
X19059Y17303D02*
Y17697D01*
X253Y20639D02*
X647D01*
X450Y20442D02*
Y20836D01*
X2109Y22850D02*
X2502D01*
X2306Y22653D02*
Y23047D01*
X9553Y12853D02*
X9947D01*
X9750Y12656D02*
Y13050D01*
X13063Y12853D02*
X13456D01*
X13259Y12656D02*
Y13050D01*
X10571Y12848D02*
X10965D01*
X10768Y12651D02*
Y13045D01*
X26885Y9500D02*
X27279D01*
X27082Y9303D02*
Y9697D01*
X27853Y9450D02*
X28247D01*
X28050Y9253D02*
Y9647D01*
X28794Y8250D02*
X29188D01*
X28991Y8053D02*
Y8447D01*
X29760Y8250D02*
X30154D01*
X29957Y8053D02*
Y8447D01*
X31853Y9500D02*
X32247D01*
X32050Y9303D02*
Y9697D01*
X32803Y9500D02*
X33197D01*
X33000Y9303D02*
Y9697D01*
X38353Y3350D02*
X38747D01*
X38550Y3153D02*
Y3547D01*
X37453Y3350D02*
X37847D01*
X37650Y3153D02*
Y3547D01*
X35853Y6564D02*
X36247D01*
X36050Y6367D02*
Y6761D01*
X38353Y7200D02*
X38747D01*
X38550Y7003D02*
Y7397D01*
X37453Y7200D02*
X37847D01*
X37650Y7003D02*
Y7397D01*
X37453Y8274D02*
X37847D01*
X37650Y8077D02*
Y8471D01*
X38353Y8300D02*
X38747D01*
X38550Y8103D02*
Y8497D01*
M02*
