M48
;Layer_Color=9474304
;FILE_FORMAT=2:4
INCH,LZ
;TYPE=PLATED
T1F00S00C0.0120
T3F00S00C0.0354
T4F00S00C0.0394
T5F00S00C0.1220
;TYPE=NON_PLATED
T6F00S00C0.0197
T7F00S00C0.0354
%
T01
X013387Y0008
X014189
X01499
X015792
X0167Y000812
X017502
X018303
X019105
X02565Y001445
X026351
X027052
X027052Y002907
X026351
X02565Y002907
X02555Y004114
X026161Y004308
X0271Y004114
X02915Y004345
X0297Y004246
X030845Y004515
Y0066
X0295Y005975
X0295Y007383
Y0081
X0285Y00805
Y0101
X029Y010388
X0295Y01025
X03055Y00995
X030845Y0086
X030245Y011645
X02895Y01285
X02895Y013472
X0296Y013633
X029938Y0146
X029165
X029154Y01555
X029927
X02991Y01635
X029138
X027229Y016323
Y01555
X027228Y014823
Y01405
X02791Y015363
X025163Y014717
X02525Y0136
X0255Y0109
Y01045
Y009592
Y009156
Y00872
Y008284
Y007848
X0285Y00555
X024669Y0162
X023897
X023223Y014854
X022609Y015
X021994
X0214
X021537Y014382
X02125Y0157
X019766Y015056
X0193Y014855
X0194Y0144
X01865Y01285
X018067Y013407
X017464Y013824
X01695Y014272
X0169Y013297
X017327Y01255
X016043Y012345
X01624Y0117
X016285Y011091
Y0107
X017058
Y011091
X017733Y009583
X01815Y009195
X017733Y008727
X01895Y009
X01885Y0081
X020193Y008238
X02015Y00865
X020064Y009195
X0203Y01025
X0204Y01245
X02085Y0123
X021633Y012318
X0233Y013619
X02356Y007975
Y007414
Y006814
Y006254
X022759
Y006814
Y007414
X022751Y007975
X021928
X021957Y007414
Y006814
Y006254
X021155
Y006814
Y007414
Y007975
X017606Y006755
X017675Y0062
X0176Y0046
X017848Y004007
X017473Y002533
X017502Y001973
Y001372
X0167
Y001973
Y002533
X015792Y002521
Y001961
Y00136
X01499
Y001961
X014982Y002521
X01416
X014189Y001961
Y00136
X013387
Y001961
Y002521
X013344Y004233
X013822
Y004805
X013344
X012103Y004856
Y005232
X011503
Y004856
X01003Y004308
Y005834
X0089
X008131
Y00704
X0089
X01003
Y008247
X010036Y008702
X0089Y008247
X008131
X009Y010226
X00955Y00985
X009Y01125
X00815
X0122Y010907
X013062
X012173Y010004
Y009377
X0114
Y010004
X012412Y0086
X013022Y0086
X01255Y0134
X013645Y01415
X015119Y014567
X015443Y01525
X0167Y015253
X015256Y012855
X011173Y014417
Y015084
X0104
Y014417
X009673Y015373
X0104Y00185
Y0015
X01085
Y00185
X018303Y001973
X018295Y002533
X019105
Y001973
Y001372
X018303
X019313Y003044
X021563
X023413
X023Y0041
X022263Y001583
X007171Y002475
X00645
X0065Y0032
Y00365
X007078
Y0032
X0066Y004606
Y004981
X006
Y004606
X005219Y005088
Y005612
Y006125
Y006637
Y007138
Y007649
Y008175
Y008687
X004252Y008687
Y008175
Y007663
Y00715
X004267Y006637
X004252Y006125
Y005612
Y0051
X004521Y00375
X003363
X002205
Y002544
X003363
X004521
Y001338
X003363
X002205
X00205Y005694
X00245Y00595
X00305Y0057
X0033Y00595
X00305Y006206
X003166Y007533
X0033Y007941
X00305Y0082
X00245Y007941
X0022Y007685
X00305Y009676
X0033Y009931
X00305Y010187
X003105Y01125
X002332
X00156
X000787
Y0123
X00156
X002332
X003105
X003877
X00465
Y01125
X003877
X007546Y011228
X007546Y010445
X0066Y009358
Y008982
X006
Y009358
X005655Y014417
X006428
X0072
X007264Y016426
X005Y01665
X004316Y016513
X003877Y01665
X0044Y015373
X004746Y016985
X005313Y016985
X00565Y01835
X005587Y018817
X004883Y018345
X0045Y01845
X004883Y019995
X00545Y02
X0049Y02065
X0039Y02055
X0031Y0233
X004133Y024967
X00475
X005367
X005983
Y025583
X005367
X00475
X004133
Y0262
X00475
X005367
X005983
Y026817
X005367
X00475
X004133
X0031Y0273
X00705Y0238
Y0233
X007378Y020305
X0079Y0203
X007892Y0194
X00756Y0187
X008538Y018817
X00853Y01997
X00895Y01975
X009673Y02015
X0102Y0192
Y018639
X010973
Y0192
X010036Y017174
X009066Y01709
X008487Y016953
X011903Y016953
X012278Y016953
X0143Y019074
X014516Y01945
X01715Y019686
Y019126
X017923
Y019686
X01855Y01909
X01855Y018
X0206Y01855
X022076Y0188
X0223Y0198
X021837Y021583
X021063Y021583
X018923Y02169
Y02225
X01815
Y02169
X018151Y023009
X018882
X017595Y0242
X016823
X016863Y025
X017635
X017595Y02585
X016823
X011945Y025524
X011173
X01195Y02465
X012723
X013473Y022812
X014245
X009387Y0233
X00875Y0233
X0223Y02355
X023295Y02345
X022977Y025
Y02575
Y0265
X02375
Y02575
Y025
X02615Y02325
Y022812
X026725
Y02325
X026356Y022038
X0263Y021445
X0258
X025937Y020967
X0258Y02055
X024513Y0205
X02445Y021
X024513Y0215
X025234Y022038
X027478
X0286
X028626Y020472
Y01985
X027854
Y020472
X029413Y020467
X029439Y019812
X030212
X030185Y020467
X029786Y018759
X029773Y01815
X029802Y017512
X029029
X029Y01815
X029014Y018759
X024688Y01863
X023787
X023897Y016956
X024669
X027727Y02405
Y0247
X0285
Y02405
X029531Y02335
T03
X0153Y003981
X0163
Y004981
X0153
Y005982
X0163
Y006981
X0153
Y007982
X0163
Y008982
X0153
Y009981
X0163
X00155Y00943
Y00843
Y00743
Y00643
Y00543
X00055
Y00643
Y00743
Y00843
Y00943
Y0137
X00155
Y0147
X00055
Y0157
X00155
Y0167
X00055
Y0177
X00155
X00055Y0207
Y0217
Y0227
Y0237
X0089Y027
X0099
X0109
X0119
X0129
X0139
X0153Y023
X0163
Y022
X0153
Y021
X0163
Y02
Y019
Y018
Y017
X0153
Y018
Y019
Y02
X0271Y02555
Y02655
T04
X019613Y025328
X0204
X021187
Y0271
X0204
X019613
T05
X000787Y000787
X030713
X000787Y026763
X030713
T06
X029504Y022025
Y0236
T07
X029531Y007533
X029531Y010683
M30
