G04*
G04 #@! TF.GenerationSoftware,Altium Limited,Altium Designer,18.1.9 (240)*
G04*
G04 Layer_Color=128*
%FSLAX24Y24*%
%MOIN*%
G70*
G01*
G75*
%ADD14C,0.0100*%
%ADD16C,0.0060*%
%ADD19C,0.0050*%
%ADD27O,0.0335X0.0138*%
%ADD28R,0.0335X0.0138*%
%ADD33R,0.0787X0.0787*%
%ADD100R,0.0492X0.0394*%
%ADD101R,0.0787X0.0551*%
%ADD102R,0.0787X0.0591*%
%ADD103R,0.0787X0.0591*%
%ADD104R,0.0787X0.0315*%
%ADD105R,0.0787X0.0335*%
D14*
X31496Y0D02*
Y27559D01*
X0D02*
X31496D01*
X0Y0D02*
X31496D01*
X0D02*
Y27559D01*
X-700Y600D02*
X-500Y0D01*
X-300Y600D01*
X-500Y27559D02*
X-300Y26959D01*
X-700D02*
X-500Y27559D01*
Y0D02*
Y12110D01*
Y15129D02*
Y27559D01*
X-600Y0D02*
X-150D01*
X-600Y27559D02*
X-150D01*
X0Y-400D02*
X600Y-200D01*
X0Y-400D02*
X600Y-600D01*
X30896D02*
X31496Y-400D01*
X30896Y-200D02*
X31496Y-400D01*
X0D02*
X14078D01*
X17098D02*
X31496D01*
X0Y-500D02*
Y-150D01*
X31496Y-500D02*
Y-150D01*
D16*
X-740Y12270D02*
Y12670D01*
X-640D01*
X-240Y12270D01*
X-140D01*
X-640Y12870D02*
X-740Y12970D01*
Y13170D01*
X-640Y13270D01*
X-240D01*
X-140Y13170D01*
Y12970D01*
X-240Y12870D01*
X-640D01*
X-140Y13470D02*
X-240D01*
Y13570D01*
X-140D01*
Y13470D01*
X-640Y13969D02*
X-740Y14069D01*
Y14269D01*
X-640Y14369D01*
X-240D01*
X-140Y14269D01*
Y14069D01*
X-240Y13969D01*
X-640D01*
Y14569D02*
X-740Y14669D01*
Y14869D01*
X-640Y14969D01*
X-240D01*
X-140Y14869D01*
Y14669D01*
X-240Y14569D01*
X-640D01*
X14238Y-260D02*
X14338Y-160D01*
X14538D01*
X14638Y-260D01*
Y-360D01*
X14538Y-460D01*
X14638Y-560D01*
Y-660D01*
X14538Y-760D01*
X14338D01*
X14238Y-660D01*
Y-560D01*
X14338Y-460D01*
X14238Y-360D01*
Y-260D01*
X14338Y-460D02*
X14538D01*
X14838Y-260D02*
X14938Y-160D01*
X15138D01*
X15238Y-260D01*
Y-660D01*
X15138Y-760D01*
X14938D01*
X14838Y-660D01*
Y-260D01*
X15438Y-760D02*
Y-660D01*
X15538D01*
Y-760D01*
X15438D01*
X15938Y-260D02*
X16038Y-160D01*
X16238D01*
X16338Y-260D01*
Y-660D01*
X16238Y-760D01*
X16038D01*
X15938Y-660D01*
Y-260D01*
X16538D02*
X16638Y-160D01*
X16838D01*
X16938Y-260D01*
Y-660D01*
X16838Y-760D01*
X16638D01*
X16538Y-660D01*
Y-260D01*
D19*
X30564Y23834D02*
Y24014D01*
X30124Y23834D02*
Y24014D01*
Y23834D02*
X30564D01*
X30124Y24014D02*
X30564D01*
Y21610D02*
Y21790D01*
X30124Y21610D02*
Y21790D01*
Y21610D02*
X30564D01*
X30124Y21790D02*
X30564D01*
D27*
X3166Y5950D02*
D03*
Y5694D02*
D03*
X2300Y6206D02*
D03*
Y5950D02*
D03*
Y5694D02*
D03*
X3166Y7941D02*
D03*
Y7685D02*
D03*
X2300Y8197D02*
D03*
Y7941D02*
D03*
Y7685D02*
D03*
X3166Y9931D02*
D03*
Y9676D02*
D03*
X2300Y10187D02*
D03*
Y9931D02*
D03*
Y9676D02*
D03*
D28*
X3166Y6206D02*
D03*
Y8197D02*
D03*
Y10187D02*
D03*
D33*
X25594Y5958D02*
D03*
D100*
X4881Y20550D02*
D03*
X3719D02*
D03*
X5450Y18450D02*
D03*
X4289D02*
D03*
X3689Y16650D02*
D03*
X4850D02*
D03*
D101*
X29373Y11785D02*
D03*
D102*
Y5683D02*
D03*
D103*
X25594Y11962D02*
D03*
D104*
X25200Y10466D02*
D03*
Y10033D02*
D03*
X25200Y9167D02*
D03*
X25200Y8301D02*
D03*
X25200Y11332D02*
D03*
X25200Y10899D02*
D03*
X25200Y8734D02*
D03*
X25200Y9600D02*
D03*
D105*
X25200Y7848D02*
D03*
M02*
