G04*
G04 #@! TF.GenerationSoftware,Altium Limited,Altium Designer,18.1.9 (240)*
G04*
G04 Layer_Physical_Order=1*
G04 Layer_Color=255*
%FSLAX24Y24*%
%MOIN*%
G70*
G01*
G75*
%ADD15C,0.0100*%
%ADD17C,0.0200*%
%ADD18C,0.0060*%
%ADD21C,0.0050*%
%ADD24R,0.0386X0.0366*%
%ADD25R,0.0748X0.0945*%
%ADD26R,0.0866X0.0394*%
%ADD27R,0.0866X0.1378*%
%ADD28R,0.0433X0.0236*%
%ADD29O,0.0236X0.0709*%
%ADD30O,0.0709X0.0110*%
%ADD31O,0.0110X0.0709*%
%ADD32R,0.0087X0.0787*%
%ADD33R,0.0787X0.0087*%
%ADD34O,0.0787X0.0087*%
%ADD35C,0.0591*%
%ADD36R,0.0366X0.0386*%
%ADD37R,0.0492X0.0276*%
%ADD38R,0.0610X0.0157*%
%ADD39R,0.0748X0.0709*%
%ADD40R,0.0579X0.0457*%
%ADD41R,0.0394X0.0327*%
%ADD42R,0.0457X0.0579*%
%ADD43R,0.0709X0.1024*%
%ADD70C,0.0150*%
%ADD71C,0.0300*%
%ADD72C,0.0600*%
%ADD73R,0.0591X0.0591*%
%ADD74R,0.0591X0.0315*%
%ADD75C,0.0197*%
%ADD76R,0.0591X0.0591*%
%ADD77C,0.1575*%
%ADD78C,0.0220*%
G36*
X39250Y9269D02*
X39206Y9253D01*
X39200Y9253D01*
X39095Y9358D01*
X39026Y9404D01*
X38944Y9420D01*
X38803D01*
Y9449D01*
X38764D01*
Y9700D01*
X38748Y9782D01*
X38701Y9851D01*
X37850Y10703D01*
X37837Y10747D01*
X37837D01*
Y11253D01*
X37808D01*
Y11406D01*
Y12206D01*
X37792Y12288D01*
X37745Y12358D01*
X37506Y12597D01*
X37513Y12650D01*
X37501Y12744D01*
X37464Y12832D01*
X37407Y12907D01*
X37332Y12964D01*
X37244Y13001D01*
X37150Y13013D01*
X37056Y13001D01*
X36968Y12964D01*
X36893Y12907D01*
X36836Y12832D01*
X36799Y12744D01*
X36787Y12650D01*
X36797Y12577D01*
X36749Y12554D01*
X34264Y15039D01*
Y18707D01*
X34248Y18789D01*
X34201Y18858D01*
X31758Y21301D01*
X31689Y21348D01*
X31607Y21364D01*
X31525Y21348D01*
X31455Y21301D01*
X31409Y21232D01*
X31393Y21150D01*
X31409Y21068D01*
X31455Y20999D01*
X33836Y18618D01*
Y14950D01*
X33852Y14868D01*
X33899Y14799D01*
X37380Y11318D01*
Y11253D01*
X37351D01*
Y10747D01*
X37380D01*
Y10656D01*
X37396Y10574D01*
X37442Y10505D01*
X38336Y9611D01*
Y9449D01*
X38297D01*
Y9420D01*
X37903D01*
Y9449D01*
X37397D01*
Y9420D01*
X37119D01*
X36974Y9565D01*
Y10012D01*
X35988D01*
Y9500D01*
X34711D01*
X34612Y9599D01*
X33626D01*
Y9225D01*
X33293D01*
Y9438D01*
X33112D01*
Y9500D01*
X33104Y9543D01*
X33079Y9579D01*
X33043Y9604D01*
X33000Y9612D01*
X32957Y9604D01*
X32921Y9579D01*
X32896Y9543D01*
X32888Y9500D01*
Y9438D01*
X32707D01*
Y9267D01*
X32343D01*
Y9438D01*
X32162D01*
Y9500D01*
X32154Y9543D01*
X32129Y9579D01*
X32093Y9604D01*
X32050Y9612D01*
X32007Y9604D01*
X31971Y9579D01*
X31946Y9543D01*
X31938Y9500D01*
Y9438D01*
X31757D01*
Y9225D01*
X31328D01*
X31328Y9225D01*
X31328Y9225D01*
X31251Y9301D01*
X31182Y9348D01*
X31153Y9354D01*
Y9398D01*
X31114D01*
Y9511D01*
X31751Y10149D01*
X31751Y10149D01*
X32386Y10783D01*
X33151D01*
Y10744D01*
X34293D01*
Y10885D01*
X35111D01*
Y10647D01*
X35688D01*
Y11346D01*
X35111D01*
Y11109D01*
X34293D01*
Y11250D01*
X33151D01*
Y11211D01*
X33042D01*
X32761Y11492D01*
Y13830D01*
X33396D01*
Y14336D01*
X33265D01*
Y14979D01*
X33446D01*
Y15485D01*
X32354D01*
Y15148D01*
X31021Y13815D01*
X30996Y13778D01*
X30988Y13735D01*
X30988Y13735D01*
Y13680D01*
X30977Y13673D01*
X30940Y13616D01*
X30927Y13550D01*
X30940Y13484D01*
X30977Y13427D01*
X31034Y13390D01*
X31100Y13377D01*
X31166Y13390D01*
X31223Y13427D01*
X31260Y13484D01*
X31273Y13550D01*
X31260Y13616D01*
X31223Y13673D01*
X31243Y13719D01*
X32503Y14979D01*
X33041D01*
Y14336D01*
X32304D01*
Y13830D01*
X32333D01*
Y11833D01*
X31850D01*
X31820Y11776D01*
X31770Y11773D01*
X31751Y11801D01*
X29611Y13942D01*
Y14382D01*
X29720D01*
Y14342D01*
X29893D01*
X29900Y14307D01*
X29924Y14271D01*
X29960Y14247D01*
X30003Y14238D01*
X30046Y14247D01*
X30082Y14271D01*
X30107Y14307D01*
X30114Y14342D01*
X30286D01*
Y14927D01*
X29720D01*
Y14887D01*
X29445D01*
X29380Y14931D01*
X29298Y14947D01*
X29249Y14938D01*
X29199Y14975D01*
Y15435D01*
X29720D01*
Y15395D01*
X29893D01*
X29900Y15361D01*
X29924Y15324D01*
X29960Y15300D01*
X30003Y15291D01*
X30046Y15300D01*
X30082Y15324D01*
X30107Y15361D01*
X30114Y15395D01*
X30286D01*
Y15981D01*
X29720D01*
X29700Y16022D01*
Y16417D01*
X29720Y16458D01*
X29893D01*
X29900Y16424D01*
X29924Y16388D01*
X29960Y16363D01*
X30003Y16355D01*
X30046Y16363D01*
X30082Y16388D01*
X30107Y16424D01*
X30114Y16458D01*
X30286D01*
Y17044D01*
X29785D01*
Y17283D01*
X29819Y17316D01*
X32354D01*
Y17277D01*
X33091D01*
Y16634D01*
X32354D01*
Y16297D01*
X30516Y14459D01*
X30492Y14423D01*
X30483Y14380D01*
X30483Y14380D01*
Y14330D01*
X30473Y14323D01*
X30435Y14266D01*
X30422Y14200D01*
X30435Y14134D01*
X30473Y14077D01*
X30529Y14040D01*
X30595Y14027D01*
X30662Y14040D01*
X30718Y14077D01*
X30755Y14134D01*
X30769Y14200D01*
X30755Y14266D01*
X30718Y14323D01*
X30741Y14367D01*
X32503Y16128D01*
X33446D01*
Y16634D01*
X33315D01*
Y17277D01*
X33446D01*
Y17783D01*
X32354D01*
Y17744D01*
X29730D01*
X29661Y17731D01*
X29611Y17759D01*
Y18615D01*
X29640D01*
Y19121D01*
X29611D01*
Y20692D01*
X29893D01*
X29900Y20657D01*
X29924Y20621D01*
X29960Y20597D01*
X30003Y20588D01*
X30046Y20597D01*
X30082Y20621D01*
X30107Y20657D01*
X30114Y20692D01*
X30286D01*
Y20935D01*
X30003D01*
Y21035D01*
X30286D01*
Y21236D01*
X30350D01*
X30432Y21252D01*
X30501Y21299D01*
X31051Y21849D01*
X31098Y21918D01*
X31114Y22000D01*
Y22362D01*
X32138Y23386D01*
X34250D01*
X34332Y23402D01*
X35329D01*
X35349Y23352D01*
X35299Y23301D01*
X35252Y23232D01*
X35236Y23150D01*
Y22988D01*
X35101D01*
Y22412D01*
X35197D01*
Y22288D01*
X35101D01*
Y22213D01*
X34901D01*
X34819Y22197D01*
X34749Y22151D01*
X34618Y22019D01*
X34571Y21950D01*
X34555Y21868D01*
Y20431D01*
X34571Y20349D01*
X34618Y20279D01*
X34718Y20179D01*
X34788Y20132D01*
X34870Y20116D01*
X35197D01*
Y20087D01*
X35703D01*
Y20116D01*
X36347D01*
Y20087D01*
X36853D01*
Y20573D01*
Y20722D01*
X37497D01*
Y20693D01*
X38003D01*
Y20722D01*
X38325D01*
X38336Y20711D01*
Y20139D01*
X37203Y19006D01*
X37150Y19013D01*
X37056Y19001D01*
X36968Y18964D01*
X36893Y18907D01*
X36836Y18832D01*
X36799Y18744D01*
X36787Y18650D01*
X36799Y18556D01*
X36836Y18468D01*
X36893Y18393D01*
X36968Y18336D01*
X37056Y18299D01*
X37150Y18287D01*
X37244Y18299D01*
X37332Y18336D01*
X37407Y18393D01*
X37464Y18468D01*
X37501Y18556D01*
X37513Y18650D01*
X37506Y18703D01*
X38701Y19899D01*
X38748Y19968D01*
X38764Y20050D01*
Y20800D01*
X38748Y20882D01*
X38701Y20951D01*
X38565Y21088D01*
X38495Y21134D01*
X38414Y21151D01*
X38003D01*
Y21180D01*
X37497D01*
Y21151D01*
X36853D01*
Y21180D01*
X36347D01*
Y20693D01*
Y20544D01*
X35703D01*
Y20653D01*
X35743D01*
Y21220D01*
X35562D01*
Y21336D01*
X35554Y21379D01*
X35529Y21416D01*
X35493Y21440D01*
X35450Y21449D01*
X35407Y21440D01*
X35371Y21416D01*
X35346Y21379D01*
X35338Y21336D01*
Y21220D01*
X35197D01*
Y21700D01*
X35243Y21711D01*
X35799D01*
Y22288D01*
X35703D01*
Y22412D01*
X35799D01*
Y22988D01*
X35664D01*
Y23061D01*
X36077Y23474D01*
X37084D01*
X37101Y23477D01*
X37143Y23435D01*
X37139Y23413D01*
X37151Y23351D01*
X37186Y23298D01*
X37239Y23263D01*
X37300Y23251D01*
X37362Y23263D01*
X37415Y23298D01*
X37450Y23351D01*
X37462Y23413D01*
X37450Y23474D01*
X37433Y23499D01*
X37449Y23549D01*
X37449D01*
Y23805D01*
Y24258D01*
Y24533D01*
X37489D01*
Y24662D01*
X37084D01*
Y24712D01*
X37034D01*
Y24891D01*
X36679D01*
Y24824D01*
X36484D01*
X36441Y24815D01*
X36405Y24791D01*
X36380Y24755D01*
X36372Y24712D01*
X36380Y24669D01*
X36405Y24632D01*
X36441Y24608D01*
X36484Y24600D01*
X36679D01*
Y24533D01*
X36719D01*
Y24339D01*
X33546D01*
X33412Y24474D01*
Y25003D01*
X33404Y25046D01*
X33379Y25082D01*
X33379Y25082D01*
X33280Y25181D01*
X33244Y25206D01*
X33201Y25214D01*
X33201Y25214D01*
X33138D01*
Y25488D01*
X33400D01*
X33400Y25488D01*
X33443Y25496D01*
X33479Y25521D01*
X34545Y26587D01*
X35047D01*
Y26456D01*
X35047D01*
Y26376D01*
X35007D01*
Y26205D01*
X34700D01*
X34657Y26196D01*
X34621Y26172D01*
X34596Y26135D01*
X34588Y26093D01*
X34596Y26050D01*
X34621Y26013D01*
X34657Y25989D01*
X34700Y25980D01*
X35007D01*
Y25809D01*
X35499D01*
X35518Y25763D01*
X34681Y24926D01*
X34250D01*
X34168Y24910D01*
X34099Y24863D01*
X34052Y24794D01*
X34036Y24712D01*
X34052Y24630D01*
X34099Y24560D01*
X34168Y24514D01*
X34250Y24498D01*
X34769D01*
X34851Y24514D01*
X34921Y24560D01*
X36210Y25849D01*
X36403D01*
Y26526D01*
X37312D01*
X37340Y26459D01*
X37397Y26384D01*
X37471Y26327D01*
X37557Y26292D01*
X37650Y26279D01*
X37743Y26292D01*
X37829Y26327D01*
X37903Y26384D01*
X37960Y26459D01*
X37996Y26545D01*
X38008Y26638D01*
X37996Y26731D01*
X37960Y26817D01*
X37903Y26891D01*
X37829Y26948D01*
X37743Y26984D01*
X37650Y26996D01*
X37557Y26984D01*
X37471Y26948D01*
X37397Y26891D01*
X37340Y26817D01*
X37312Y26750D01*
X36403D01*
Y26942D01*
X35897D01*
Y26811D01*
X35553D01*
Y26942D01*
X35047D01*
Y26942D01*
X35047D01*
Y26811D01*
X34499D01*
X34456Y26802D01*
X34420Y26778D01*
X34420Y26778D01*
X33354Y25712D01*
X33138D01*
Y26250D01*
Y26937D01*
X33124Y26951D01*
X33085Y27010D01*
X33026Y27049D01*
X32957Y27063D01*
X32887Y27049D01*
X32828Y27010D01*
X32585D01*
X32526Y27049D01*
X32457Y27063D01*
X32387Y27049D01*
X32328Y27010D01*
X32085D01*
X32026Y27049D01*
X31957Y27063D01*
X31887Y27049D01*
X31828Y27010D01*
X31585D01*
X31526Y27049D01*
X31457Y27063D01*
X31387Y27049D01*
X31328Y27010D01*
X31085D01*
X31069Y27021D01*
Y27557D01*
X31060Y27600D01*
X31036Y27636D01*
X31036Y27636D01*
X30185Y28487D01*
X30149Y28511D01*
X30106Y28520D01*
X30106Y28520D01*
X26803D01*
Y28651D01*
X26297D01*
Y28164D01*
Y27861D01*
X25848D01*
Y27947D01*
X25795D01*
Y28299D01*
X25848D01*
Y28695D01*
X25795D01*
Y28740D01*
X25618D01*
X25429Y28929D01*
X25393Y28954D01*
X25350Y28962D01*
X25350Y28962D01*
X24400D01*
X24400Y28962D01*
X24357Y28954D01*
X24321Y28929D01*
X24321Y28929D01*
X23911Y28520D01*
X23803D01*
Y28651D01*
X23297D01*
Y28164D01*
Y27861D01*
X22756D01*
Y27947D01*
X22703D01*
Y28299D01*
X22756D01*
Y28695D01*
X22703D01*
Y28740D01*
X22197D01*
Y28695D01*
X22144D01*
Y28657D01*
X22142Y28609D01*
X22099Y28601D01*
X22062Y28577D01*
X22062Y28577D01*
X21971Y28485D01*
X21946Y28448D01*
X21938Y28405D01*
X21938Y28405D01*
Y27100D01*
X21938Y27100D01*
X21946Y27057D01*
X21971Y27021D01*
X22382Y26610D01*
X22382Y26610D01*
X22418Y26585D01*
X22461Y26577D01*
X22461Y26577D01*
X22729D01*
Y26436D01*
X23821D01*
Y26588D01*
X24329D01*
Y26477D01*
X24842D01*
Y26923D01*
X24670D01*
Y27925D01*
X24864D01*
Y28321D01*
X24252D01*
Y27925D01*
X24446D01*
Y26923D01*
X24329D01*
Y26812D01*
X23821D01*
Y26942D01*
X22729D01*
Y26801D01*
X22507D01*
X22162Y27146D01*
Y27551D01*
X22756D01*
Y27637D01*
X23297D01*
Y27558D01*
X23803D01*
Y28164D01*
Y28295D01*
X23957D01*
X23957Y28295D01*
X24000Y28304D01*
X24037Y28328D01*
X24446Y28738D01*
X25219D01*
X25236Y28695D01*
X25236D01*
Y28299D01*
X25289D01*
Y27947D01*
X25236D01*
Y27551D01*
X25848D01*
Y27637D01*
X26297D01*
Y27558D01*
X26803D01*
Y28044D01*
Y28295D01*
X30059D01*
X30845Y27510D01*
Y27021D01*
X30828Y27010D01*
X30585D01*
X30526Y27049D01*
X30457Y27063D01*
X30387Y27049D01*
X30328Y27010D01*
X30085D01*
X30026Y27049D01*
X29957Y27063D01*
X29887Y27049D01*
X29828Y27010D01*
X29585D01*
X29526Y27049D01*
X29457Y27063D01*
X29387Y27049D01*
X29328Y27010D01*
X29234D01*
X29245Y26896D01*
X29211Y26859D01*
X28660D01*
Y26942D01*
X28154D01*
Y26913D01*
X27810D01*
Y26942D01*
X27304D01*
Y26913D01*
X27034D01*
X27028Y26914D01*
X26946Y26898D01*
X26876Y26851D01*
X26830Y26782D01*
X26813Y26700D01*
X26830Y26618D01*
X26876Y26549D01*
X26877Y26547D01*
X26947Y26501D01*
X27029Y26485D01*
X27250D01*
Y25823D01*
X27264Y25809D01*
X27250Y25796D01*
Y25712D01*
X25736D01*
X25627Y25822D01*
Y26477D01*
X25771D01*
Y26923D01*
X25258D01*
Y26477D01*
X25402D01*
Y25775D01*
X25402Y25775D01*
X25402Y25775D01*
Y24830D01*
X25392Y24823D01*
X25354Y24766D01*
X25341Y24700D01*
X25354Y24634D01*
X25392Y24577D01*
X25448Y24540D01*
X25515Y24527D01*
X25581Y24540D01*
X25637Y24577D01*
X25675Y24634D01*
X25688Y24700D01*
X25675Y24766D01*
X25637Y24823D01*
X25627Y24830D01*
Y25454D01*
X25677Y25490D01*
X25690Y25488D01*
X25690Y25488D01*
X29234D01*
Y24834D01*
Y24710D01*
X29173D01*
X29130Y24701D01*
X29093Y24677D01*
X29069Y24641D01*
X29060Y24598D01*
X29069Y24555D01*
X29093Y24518D01*
X29130Y24494D01*
X29173Y24486D01*
X29234D01*
Y24362D01*
X29251Y24276D01*
X29269Y24250D01*
X29246Y24206D01*
X22993D01*
X22951Y24197D01*
X22914Y24173D01*
X22914Y24173D01*
X22529Y23787D01*
X22076D01*
X22043Y23821D01*
X21862D01*
Y23822D01*
X21854Y23865D01*
X21829Y23901D01*
X21793Y23925D01*
X21750Y23934D01*
X21707Y23925D01*
X21671Y23901D01*
X21646Y23865D01*
X21638Y23822D01*
Y23821D01*
X20952D01*
Y23822D01*
X20943Y23865D01*
X20919Y23901D01*
X20882Y23925D01*
X20839Y23934D01*
X20796Y23925D01*
X20760Y23901D01*
X20736Y23865D01*
X20727Y23822D01*
Y23821D01*
X20546D01*
Y23255D01*
X20586D01*
Y23145D01*
X18857D01*
X13001Y29001D01*
X12932Y29048D01*
X12850Y29064D01*
X1000D01*
X918Y29048D01*
X849Y29001D01*
X599Y28751D01*
X552Y28682D01*
X536Y28600D01*
Y25550D01*
X552Y25468D01*
X599Y25399D01*
X918Y25079D01*
Y24877D01*
X1000Y24795D01*
X1855D01*
Y24818D01*
X1918D01*
Y27038D01*
X12291D01*
X18179Y21150D01*
X18179Y21150D01*
X18215Y21126D01*
X18258Y21117D01*
X18258Y21117D01*
X19690D01*
X19702Y21102D01*
X19721Y21067D01*
X19714Y21033D01*
X19723Y20988D01*
X19749Y20950D01*
Y20919D01*
X19723Y20881D01*
X19714Y20836D01*
X19723Y20791D01*
X19749Y20753D01*
Y20722D01*
X19723Y20684D01*
X19714Y20639D01*
X19721Y20604D01*
X19702Y20569D01*
X19690Y20554D01*
X17931D01*
X17888Y20546D01*
X17851Y20521D01*
X17851Y20521D01*
X17062Y19732D01*
X17050Y19735D01*
X16984Y19721D01*
X16927Y19684D01*
X16890Y19628D01*
X16877Y19561D01*
X16890Y19495D01*
X16927Y19439D01*
X16984Y19401D01*
X17050Y19388D01*
X17116Y19401D01*
X17173Y19439D01*
X17210Y19495D01*
X17223Y19561D01*
X17221Y19574D01*
X17977Y20330D01*
X19690D01*
X19702Y20315D01*
X19721Y20280D01*
X19714Y20245D01*
X19723Y20200D01*
X19749Y20162D01*
Y20131D01*
X19723Y20093D01*
X19714Y20048D01*
X19723Y20003D01*
X19749Y19965D01*
Y19934D01*
X19723Y19896D01*
X19714Y19851D01*
X19723Y19807D01*
X19749Y19768D01*
Y19738D01*
X19723Y19699D01*
X19714Y19655D01*
X19723Y19610D01*
X19749Y19572D01*
Y19541D01*
X19723Y19503D01*
X19714Y19458D01*
X19723Y19413D01*
X19749Y19375D01*
Y19344D01*
X19723Y19306D01*
X19714Y19261D01*
X19723Y19216D01*
X19749Y19178D01*
Y19147D01*
X19723Y19109D01*
X19714Y19064D01*
X19716Y19055D01*
X19677Y19005D01*
X19146D01*
Y19120D01*
X18580D01*
Y19160D01*
X18014D01*
Y18979D01*
X18013D01*
X17970Y18971D01*
X17933Y18946D01*
X17909Y18910D01*
X17901Y18867D01*
X17909Y18824D01*
X17933Y18788D01*
X17970Y18764D01*
X18013Y18755D01*
X18014D01*
Y18574D01*
X18580D01*
Y18614D01*
X19146D01*
Y18730D01*
X19677D01*
X19716Y18680D01*
X19714Y18670D01*
X19723Y18625D01*
X19749Y18587D01*
Y18556D01*
X19723Y18518D01*
X19714Y18473D01*
X19723Y18429D01*
X19749Y18390D01*
Y18360D01*
X19723Y18322D01*
X19714Y18277D01*
X19723Y18232D01*
X19749Y18194D01*
Y18163D01*
X19723Y18125D01*
X19714Y18080D01*
X19723Y18035D01*
X19749Y17997D01*
Y17966D01*
X19723Y17928D01*
X19714Y17883D01*
X19723Y17838D01*
X19749Y17800D01*
Y17769D01*
X19723Y17731D01*
X19714Y17686D01*
X19723Y17641D01*
X19749Y17603D01*
Y17572D01*
X19723Y17534D01*
X19714Y17489D01*
X19723Y17444D01*
X19749Y17406D01*
Y17375D01*
X19723Y17337D01*
X19714Y17292D01*
X19723Y17247D01*
X19749Y17209D01*
Y17179D01*
X19723Y17140D01*
X19714Y17096D01*
X19716Y17086D01*
X19677Y17036D01*
X19191D01*
X19182Y17050D01*
X19146Y17074D01*
Y17152D01*
X18580D01*
Y17192D01*
X18014D01*
Y17011D01*
X18013D01*
X17970Y17002D01*
X17933Y16978D01*
X17909Y16942D01*
X17901Y16899D01*
X17909Y16856D01*
X17933Y16819D01*
X17970Y16795D01*
X18013Y16787D01*
X18014D01*
Y16606D01*
X18580D01*
Y16646D01*
X18734D01*
X18752Y16620D01*
X18821Y16573D01*
X18903Y16557D01*
X18985Y16573D01*
X19055Y16620D01*
X19081Y16646D01*
X19146D01*
Y16711D01*
X19182Y16747D01*
X19191Y16761D01*
X19677D01*
X19716Y16711D01*
X19714Y16702D01*
X19722Y16661D01*
X19723Y16657D01*
X19695Y16609D01*
X19695Y16609D01*
X19659Y16584D01*
X19659Y16584D01*
X19498Y16423D01*
X18060D01*
X17762Y16721D01*
Y17700D01*
X17762Y17750D01*
X17787Y17775D01*
X18195D01*
X18195Y17775D01*
X18195Y17775D01*
X18195Y17775D01*
X18549Y17421D01*
X18549Y17421D01*
X18585Y17396D01*
X18628Y17388D01*
X18930D01*
X18937Y17377D01*
X18993Y17340D01*
X19059Y17327D01*
X19126Y17340D01*
X19182Y17377D01*
X19220Y17434D01*
X19233Y17500D01*
X19220Y17566D01*
X19182Y17623D01*
X19126Y17660D01*
X19059Y17673D01*
X18993Y17660D01*
X18937Y17623D01*
X18930Y17612D01*
X18675D01*
X17658Y18629D01*
X17621Y18654D01*
X17578Y18662D01*
X17578Y18662D01*
X16017D01*
X15974Y18654D01*
X15938Y18629D01*
X15938Y18629D01*
X15108Y17800D01*
X14900D01*
Y18325D01*
X14935Y18361D01*
X15108Y18360D01*
X15115Y18350D01*
X15171Y18312D01*
X15238Y18299D01*
X15304Y18312D01*
X15360Y18350D01*
X15398Y18406D01*
X15411Y18472D01*
X15398Y18538D01*
X15360Y18595D01*
X15304Y18632D01*
X15238Y18645D01*
X15171Y18632D01*
X15115Y18595D01*
X15108Y18584D01*
X15000Y18585D01*
X14981Y18631D01*
X15183Y18833D01*
X15933D01*
X16150Y19050D01*
Y19608D01*
X16428Y19886D01*
X16683D01*
X16765Y19902D01*
X16835Y19949D01*
X16839Y19955D01*
X16873Y19977D01*
X16910Y20034D01*
X16923Y20100D01*
X16910Y20166D01*
X16873Y20223D01*
X16839Y20245D01*
X16835Y20251D01*
X16765Y20298D01*
X16683Y20314D01*
X16339D01*
X16257Y20298D01*
X16200Y20260D01*
X16150Y20278D01*
Y20782D01*
X15232Y21700D01*
X13741D01*
Y23586D01*
X13770D01*
Y24092D01*
X12677D01*
Y23586D01*
X12808D01*
Y22497D01*
X12758Y22492D01*
X12751Y22529D01*
X12705Y22598D01*
X12138Y23165D01*
Y23586D01*
X12167D01*
Y24092D01*
X12138D01*
Y24453D01*
X12167D01*
Y24958D01*
X11075D01*
Y24453D01*
X11206D01*
Y24092D01*
X11075D01*
Y23586D01*
X11206D01*
Y21500D01*
X11009D01*
X11009Y21500D01*
X11005Y21509D01*
X11001Y21532D01*
X10993Y21544D01*
X10955Y21601D01*
X10885Y21648D01*
X10803Y21664D01*
X10768D01*
X10686Y21648D01*
X10617Y21601D01*
X10570Y21532D01*
X10567Y21517D01*
X10403Y21353D01*
X10090D01*
X9512Y21368D01*
Y22054D01*
X10851Y23392D01*
X10851Y23392D01*
X10875Y23429D01*
X10884Y23472D01*
X10884Y23472D01*
Y24255D01*
X10875Y24298D01*
X10851Y24334D01*
X10851Y24334D01*
X10564Y24621D01*
Y24958D01*
X10564D01*
Y25265D01*
Y25771D01*
X10078D01*
Y25738D01*
X9995Y25732D01*
X9958Y25766D01*
Y25771D01*
X9472D01*
Y25265D01*
Y24818D01*
X9014D01*
Y24958D01*
X8528D01*
Y24453D01*
X9014D01*
Y24593D01*
X9472D01*
Y24453D01*
X9472Y24453D01*
X9809D01*
X9950Y24312D01*
Y24092D01*
X9472D01*
Y23586D01*
X9603D01*
Y23322D01*
X8921Y22640D01*
X8896Y22604D01*
X8888Y22561D01*
X8888Y22561D01*
Y20708D01*
X8888Y20708D01*
X8896Y20665D01*
X8921Y20629D01*
X9527Y20022D01*
X9527Y20022D01*
X9564Y19998D01*
X9606Y19989D01*
X9606Y19989D01*
X9681D01*
Y19216D01*
X9344D01*
X9325Y18800D01*
X9274Y18772D01*
X9248Y18777D01*
X8940D01*
X8938Y18778D01*
X8895Y18787D01*
X8494D01*
X8132Y19148D01*
X8129Y19153D01*
X8129Y19153D01*
X7895Y19387D01*
X7890Y19390D01*
X7712Y19568D01*
Y23900D01*
X7704Y23943D01*
X7679Y23979D01*
X7679Y23979D01*
X7648Y24010D01*
Y24624D01*
X7695Y24644D01*
X7712Y24626D01*
X7712Y24626D01*
X7748Y24602D01*
X7791Y24593D01*
X7922D01*
Y24453D01*
X8408D01*
Y24958D01*
X7922D01*
Y24818D01*
X7838D01*
X6484Y26172D01*
X6447Y26196D01*
X6404Y26205D01*
X6404Y26205D01*
X3543D01*
X3500Y26196D01*
X3463Y26172D01*
X3463Y26172D01*
X571Y23279D01*
X546Y23243D01*
X538Y23200D01*
X538Y23200D01*
Y21117D01*
X538Y21117D01*
X546Y21074D01*
X571Y21038D01*
X1243Y20365D01*
Y20171D01*
X1176Y20144D01*
X1102Y20087D01*
X1045Y20013D01*
X1009Y19926D01*
X997Y19833D01*
X1009Y19741D01*
X1045Y19654D01*
X1102Y19580D01*
X1176Y19523D01*
X1263Y19487D01*
X1356Y19475D01*
X1414Y19483D01*
X1442Y19447D01*
X1445Y19436D01*
X1438Y19398D01*
X1438Y19398D01*
Y19219D01*
X1400Y19186D01*
X1356Y19192D01*
X1263Y19179D01*
X1176Y19144D01*
X1102Y19087D01*
X1045Y19013D01*
X1009Y18926D01*
X997Y18833D01*
X1009Y18741D01*
X1045Y18654D01*
X1102Y18580D01*
X1176Y18523D01*
X1263Y18487D01*
X1356Y18475D01*
X1448Y18487D01*
X1465Y18494D01*
X1493Y18452D01*
X1276Y18235D01*
X1252Y18198D01*
X1247Y18173D01*
X1176Y18144D01*
X1102Y18087D01*
X1045Y18012D01*
X1009Y17926D01*
X997Y17833D01*
X1009Y17741D01*
X1045Y17654D01*
X1102Y17580D01*
X1176Y17523D01*
X1263Y17487D01*
X1356Y17475D01*
X1448Y17487D01*
X1535Y17523D01*
X1609Y17580D01*
X1666Y17654D01*
X1702Y17741D01*
X1714Y17833D01*
X1702Y17926D01*
X1666Y18012D01*
X1609Y18087D01*
X1556Y18127D01*
X1547Y18188D01*
X1635Y18276D01*
X2136D01*
X2145Y18253D01*
Y18120D01*
X2102Y18087D01*
X2045Y18012D01*
X2009Y17926D01*
X1997Y17833D01*
X2009Y17741D01*
X2045Y17654D01*
X2102Y17580D01*
X2145Y17547D01*
Y17462D01*
X1706D01*
X1706Y17462D01*
X1663Y17454D01*
X1627Y17429D01*
X1627Y17429D01*
X1385Y17188D01*
X1356Y17192D01*
X1263Y17179D01*
X1176Y17144D01*
X1102Y17087D01*
X1045Y17012D01*
X1009Y16926D01*
X997Y16833D01*
X1009Y16741D01*
X1045Y16654D01*
X1102Y16580D01*
X1176Y16523D01*
X1263Y16487D01*
X1356Y16475D01*
X1448Y16487D01*
X1535Y16523D01*
X1609Y16580D01*
X1666Y16654D01*
X1702Y16741D01*
X1714Y16833D01*
X1702Y16926D01*
X1666Y17012D01*
X1609Y17087D01*
X1608Y17094D01*
X1752Y17238D01*
X2145D01*
Y17120D01*
X2102Y17087D01*
X2045Y17012D01*
X2009Y16926D01*
X1997Y16833D01*
X2009Y16741D01*
X2045Y16654D01*
X2102Y16580D01*
X2145Y16547D01*
Y16422D01*
X1832D01*
X1832Y16422D01*
X1789Y16413D01*
X1753Y16389D01*
X1753Y16389D01*
X1515Y16152D01*
X1448Y16179D01*
X1356Y16192D01*
X1263Y16179D01*
X1176Y16144D01*
X1102Y16087D01*
X1045Y16013D01*
X1009Y15926D01*
X997Y15833D01*
X1009Y15741D01*
X1045Y15654D01*
X1102Y15580D01*
X1176Y15523D01*
X1263Y15487D01*
X1356Y15475D01*
X1448Y15487D01*
X1535Y15523D01*
X1609Y15580D01*
X1666Y15654D01*
X1702Y15741D01*
X1714Y15833D01*
X1702Y15926D01*
X1674Y15993D01*
X1878Y16198D01*
X2176D01*
X2186Y16148D01*
X2176Y16144D01*
X2102Y16087D01*
X2045Y16013D01*
X2009Y15926D01*
X1997Y15833D01*
X2009Y15741D01*
X2045Y15654D01*
X2102Y15580D01*
X2176Y15523D01*
X2263Y15487D01*
X2272Y15486D01*
X2268Y15436D01*
X1608D01*
X1608Y15436D01*
X1565Y15428D01*
X1529Y15403D01*
X1529Y15403D01*
X1311Y15186D01*
X1263Y15179D01*
X1176Y15144D01*
X1102Y15087D01*
X1045Y15013D01*
X1009Y14926D01*
X997Y14833D01*
X1009Y14741D01*
X1045Y14654D01*
X1102Y14580D01*
X1176Y14523D01*
X1263Y14487D01*
X1356Y14475D01*
X1448Y14487D01*
X1465Y14494D01*
X1493Y14452D01*
X1276Y14235D01*
X1252Y14198D01*
X1247Y14173D01*
X1176Y14144D01*
X1102Y14087D01*
X1045Y14013D01*
X1009Y13926D01*
X997Y13833D01*
X1009Y13741D01*
X1045Y13654D01*
X1102Y13580D01*
X1176Y13523D01*
X1263Y13487D01*
X1356Y13475D01*
X1448Y13487D01*
X1535Y13523D01*
X1609Y13580D01*
X1666Y13654D01*
X1702Y13741D01*
X1714Y13833D01*
X1702Y13926D01*
X1666Y14013D01*
X1609Y14087D01*
X1556Y14127D01*
X1547Y14188D01*
X1635Y14276D01*
X3638D01*
X3638Y14276D01*
X3681Y14284D01*
X3703Y14299D01*
X3744Y14283D01*
X3753Y14274D01*
Y14199D01*
X5150D01*
Y14199D01*
X5521D01*
Y13979D01*
X5521Y13979D01*
X5314Y13772D01*
X5289Y13736D01*
X5281Y13693D01*
X5281Y13693D01*
Y13591D01*
X3753D01*
Y13254D01*
X3661Y13162D01*
X3190D01*
X2794Y13558D01*
X2781Y13566D01*
X2674Y13674D01*
X2702Y13741D01*
X2714Y13833D01*
X2702Y13926D01*
X2666Y14013D01*
X2609Y14087D01*
X2535Y14144D01*
X2448Y14179D01*
X2356Y14192D01*
X2263Y14179D01*
X2176Y14144D01*
X2102Y14087D01*
X2045Y14013D01*
X2009Y13926D01*
X1997Y13833D01*
X2009Y13741D01*
X2045Y13654D01*
X2102Y13580D01*
X2100Y13578D01*
Y13391D01*
X1634D01*
X1591Y13382D01*
X1555Y13358D01*
X1555Y13358D01*
X1385Y13188D01*
X1356Y13192D01*
X1263Y13179D01*
X1176Y13144D01*
X1102Y13087D01*
X1045Y13012D01*
X1009Y12926D01*
X997Y12833D01*
X1009Y12741D01*
X1045Y12654D01*
X1102Y12580D01*
X1176Y12523D01*
X1263Y12487D01*
X1356Y12475D01*
X1448Y12487D01*
X1535Y12523D01*
X1609Y12580D01*
X1666Y12654D01*
X1702Y12741D01*
X1714Y12833D01*
X1702Y12926D01*
X1666Y13012D01*
X1609Y13087D01*
X1608Y13094D01*
X1681Y13166D01*
X2124D01*
Y13103D01*
X2102Y13087D01*
X2045Y13012D01*
X2009Y12926D01*
X1997Y12833D01*
X2009Y12741D01*
X2045Y12654D01*
X2102Y12580D01*
X2124Y12563D01*
Y12412D01*
X1700D01*
X1700Y12412D01*
X1657Y12404D01*
X1621Y12379D01*
X1621Y12379D01*
X1424Y12183D01*
X1356Y12192D01*
X1263Y12179D01*
X1176Y12144D01*
X1102Y12087D01*
X1045Y12012D01*
X1009Y11926D01*
X997Y11833D01*
X1009Y11741D01*
X1045Y11654D01*
X1102Y11580D01*
X1176Y11523D01*
X1263Y11487D01*
X1356Y11475D01*
X1448Y11487D01*
X1535Y11523D01*
X1609Y11580D01*
X1666Y11654D01*
X1702Y11741D01*
X1714Y11833D01*
X1702Y11926D01*
X1666Y12012D01*
X1625Y12066D01*
X1746Y12188D01*
X2124D01*
Y12103D01*
X2102Y12087D01*
X2045Y12012D01*
X2009Y11926D01*
X1997Y11833D01*
X2009Y11741D01*
X2045Y11654D01*
X2102Y11580D01*
X2176Y11523D01*
X2263Y11487D01*
X2356Y11475D01*
X2448Y11487D01*
X2535Y11523D01*
X2609Y11580D01*
X2666Y11654D01*
X2694Y11721D01*
X2970D01*
X3138Y11554D01*
Y10047D01*
X3138Y10047D01*
X3146Y10004D01*
X3171Y9968D01*
X3884Y9254D01*
Y9136D01*
X3753D01*
Y8630D01*
X5150D01*
Y8630D01*
X5636D01*
Y8630D01*
X5716D01*
Y8590D01*
X6282D01*
Y8641D01*
X6284Y8643D01*
X6282Y8645D01*
Y8771D01*
X6283D01*
X6326Y8780D01*
X6363Y8804D01*
X6387Y8840D01*
X6395Y8883D01*
X6387Y8926D01*
X6363Y8963D01*
X6326Y8987D01*
X6283Y8995D01*
X6282D01*
Y9126D01*
X6282Y9176D01*
X6282Y9176D01*
X6262Y9218D01*
Y9273D01*
X6270Y9281D01*
X6377D01*
X6377Y9281D01*
X6420Y9289D01*
X6456Y9314D01*
X6845Y9702D01*
X6869Y9738D01*
X6878Y9781D01*
X6878Y9781D01*
Y9995D01*
X7417Y10534D01*
X7454Y10563D01*
X7623Y10395D01*
X7659Y10370D01*
X7702Y10362D01*
X7712Y10342D01*
X7722Y10296D01*
Y10278D01*
X7722D01*
X7722Y10246D01*
Y9954D01*
X7722Y9922D01*
X7722D01*
Y9904D01*
X7722D01*
Y9608D01*
X6376Y8262D01*
X1996D01*
X562Y9696D01*
Y20509D01*
X573Y20516D01*
X610Y20573D01*
X623Y20639D01*
X610Y20705D01*
X573Y20761D01*
X516Y20799D01*
X450Y20812D01*
X384Y20799D01*
X327Y20761D01*
X290Y20705D01*
X277Y20639D01*
X290Y20573D01*
X327Y20516D01*
X338Y20509D01*
Y9650D01*
X338Y9650D01*
X346Y9607D01*
X371Y9571D01*
X1871Y8071D01*
X1871Y8071D01*
X1907Y8046D01*
X1950Y8038D01*
X6423D01*
X6423Y8038D01*
X6466Y8046D01*
X6502Y8071D01*
X7492Y9060D01*
X7504Y9050D01*
X7504Y9050D01*
X7924D01*
X7930Y9042D01*
X7954Y9003D01*
X7954D01*
X7954Y9003D01*
Y8497D01*
X8520D01*
Y8457D01*
X9086D01*
Y8638D01*
X9087D01*
X9130Y8646D01*
X9167Y8671D01*
X9191Y8707D01*
X9199Y8750D01*
X9191Y8793D01*
X9167Y8829D01*
X9130Y8854D01*
X9087Y8862D01*
X9086D01*
Y8984D01*
X9689D01*
X9771Y9001D01*
X9841Y9047D01*
X10563Y9769D01*
X10756D01*
Y9798D01*
X11000D01*
Y9769D01*
X11000D01*
Y9769D01*
X11506D01*
Y9798D01*
X11800D01*
Y9769D01*
X12306D01*
Y9798D01*
X12600D01*
Y9769D01*
X13106D01*
Y9798D01*
X13305D01*
X13395Y9798D01*
X13397Y9800D01*
X13695D01*
Y9760D01*
X14524D01*
Y10904D01*
X14324D01*
Y12540D01*
X14340Y12560D01*
X14689D01*
Y12741D01*
X14690D01*
X14733Y12750D01*
X14769Y12774D01*
X14793Y12810D01*
X14802Y12853D01*
X14793Y12896D01*
X14769Y12932D01*
X14733Y12957D01*
X14690Y12965D01*
X14689D01*
Y13146D01*
X14515D01*
Y13440D01*
X14685D01*
Y13621D01*
X14686D01*
X14729Y13630D01*
X14766Y13654D01*
X14790Y13690D01*
X14799Y13733D01*
X14790Y13776D01*
X14766Y13813D01*
X14729Y13837D01*
X14686Y13845D01*
X14685D01*
Y14026D01*
X14667Y14045D01*
Y14254D01*
X16746D01*
X16750Y14250D01*
Y15357D01*
X17233D01*
Y15538D01*
X18014D01*
Y15297D01*
X18580D01*
Y15318D01*
X19165D01*
Y15385D01*
X19187Y15402D01*
X19215Y15416D01*
X19250Y15409D01*
X19250Y15409D01*
X19370D01*
X19377Y15398D01*
X19434Y15361D01*
X19500Y15347D01*
X19566Y15361D01*
X19623Y15398D01*
X19630Y15409D01*
X19690D01*
X19702Y15394D01*
X19721Y15359D01*
X19714Y15324D01*
X19723Y15279D01*
X19749Y15241D01*
Y15210D01*
X19723Y15172D01*
X19714Y15127D01*
X19723Y15082D01*
X19749Y15044D01*
Y15013D01*
X19723Y14975D01*
X19714Y14930D01*
X19723Y14885D01*
X19749Y14847D01*
Y14816D01*
X19723Y14778D01*
X19714Y14733D01*
X19721Y14699D01*
X19702Y14664D01*
X19690Y14649D01*
X19143D01*
Y14789D01*
X18051D01*
Y14780D01*
X18041D01*
Y13843D01*
X18011D01*
Y13257D01*
X18183D01*
X18190Y13223D01*
X18214Y13187D01*
X18251Y13162D01*
X18294Y13154D01*
X18337Y13162D01*
X18373Y13187D01*
X18397Y13223D01*
X18404Y13257D01*
X18577D01*
Y13297D01*
X18686D01*
Y13131D01*
X17986Y12431D01*
X17950Y12377D01*
X17764D01*
Y14678D01*
X17748Y14760D01*
X17701Y14830D01*
X17480Y15051D01*
X17410Y15098D01*
X17328Y15114D01*
X17246Y15098D01*
X17177Y15051D01*
X17130Y14982D01*
X17114Y14900D01*
X17130Y14818D01*
X17177Y14749D01*
X17336Y14590D01*
Y8801D01*
X17201D01*
X16754Y9248D01*
X16685Y9295D01*
X16603Y9311D01*
X11244D01*
X11162Y9295D01*
X11092Y9248D01*
X11046Y9179D01*
X11030Y9097D01*
X11046Y9015D01*
X11092Y8946D01*
X11162Y8899D01*
X11244Y8883D01*
X16514D01*
X16836Y8561D01*
Y8303D01*
X16397D01*
Y8274D01*
X16245D01*
Y8426D01*
X16237D01*
Y8452D01*
X16072D01*
X16043Y8472D01*
X15961Y8488D01*
X15879Y8472D01*
X15849Y8452D01*
X15684D01*
Y8426D01*
X15135D01*
Y8452D01*
X14582D01*
Y8411D01*
X14520Y8349D01*
X14221D01*
X14213Y8386D01*
X14189Y8423D01*
X14152Y8447D01*
X14110Y8456D01*
X14067Y8447D01*
X14030Y8423D01*
X14006Y8386D01*
X13999Y8349D01*
X13903D01*
Y8343D01*
X13817D01*
Y8172D01*
X13529D01*
Y8343D01*
X12944D01*
Y8172D01*
X12557D01*
Y8356D01*
X11971D01*
Y7790D01*
X12011D01*
Y7565D01*
X11624D01*
Y7787D01*
X11528D01*
Y7911D01*
X11624D01*
Y8488D01*
X10926D01*
Y8413D01*
X10740D01*
X10658Y8397D01*
X10588Y8351D01*
X10558Y8320D01*
X10515Y8303D01*
X10476Y8330D01*
Y8638D01*
X10460Y8720D01*
X10414Y8789D01*
X10344Y8836D01*
X10262Y8852D01*
X10180Y8836D01*
X10111Y8789D01*
X10064Y8720D01*
X10048Y8638D01*
Y8303D01*
X10009D01*
Y7736D01*
X9969D01*
Y7170D01*
X10150D01*
Y7169D01*
X10158Y7126D01*
X10183Y7090D01*
X10219Y7065D01*
X10262Y7057D01*
X10305Y7065D01*
X10341Y7090D01*
X10366Y7126D01*
X10374Y7169D01*
Y7170D01*
X10555D01*
Y7736D01*
X10926D01*
Y7210D01*
X11624D01*
Y7341D01*
X12011D01*
Y7224D01*
X12517D01*
Y7341D01*
X12984D01*
Y7210D01*
X13124D01*
Y7123D01*
X13124Y7123D01*
X13133Y7080D01*
X13157Y7044D01*
X13280Y6921D01*
X13280Y6921D01*
X13317Y6896D01*
X13359Y6888D01*
X14650D01*
X14650Y6888D01*
X14693Y6896D01*
X14729Y6921D01*
X14938Y7129D01*
X14938Y7129D01*
X14962Y7165D01*
X14970Y7208D01*
Y7348D01*
X15644D01*
Y7308D01*
X15848D01*
Y7242D01*
X15857Y7199D01*
X15881Y7163D01*
X15918Y7138D01*
X15961Y7130D01*
X16004Y7138D01*
X16040Y7163D01*
X16064Y7199D01*
X16073Y7242D01*
Y7308D01*
X16277D01*
Y7744D01*
X16245D01*
Y7845D01*
X16397D01*
Y7816D01*
X16731D01*
X16765Y7782D01*
X16746Y7736D01*
X16700D01*
Y7453D01*
X16650D01*
Y7403D01*
X16357D01*
Y7170D01*
X16538D01*
Y7169D01*
X16546Y7126D01*
X16571Y7090D01*
X16607Y7065D01*
X16650Y7057D01*
X16693Y7065D01*
X16729Y7090D01*
X16754Y7126D01*
X16762Y7169D01*
Y7170D01*
X16836D01*
Y6490D01*
X16750Y6404D01*
X16557D01*
Y6211D01*
X16234Y5888D01*
X15557D01*
Y5311D01*
X16256D01*
Y5387D01*
X16330Y5402D01*
X16400Y5448D01*
X16470Y5519D01*
X16517Y5500D01*
Y5271D01*
X16697D01*
Y4850D01*
Y4486D01*
X16517D01*
Y4253D01*
X16809D01*
Y4153D01*
X16517D01*
Y3920D01*
X16266D01*
X16256Y3930D01*
X15557D01*
Y3354D01*
X16256D01*
Y3383D01*
X16557D01*
Y3354D01*
X17062D01*
Y3383D01*
X17350D01*
X17432Y3399D01*
X17501Y3445D01*
X17548Y3515D01*
X17564Y3597D01*
Y5968D01*
X17701Y6106D01*
X17748Y6175D01*
X17764Y6257D01*
Y7692D01*
X17810Y7711D01*
X18786Y6735D01*
Y4105D01*
X18095D01*
Y3395D01*
X18236D01*
Y3000D01*
X18252Y2918D01*
X18299Y2849D01*
X18649Y2499D01*
X18718Y2452D01*
X18800Y2436D01*
X31005D01*
X31087Y2452D01*
X31157Y2499D01*
X31701Y3043D01*
X31748Y3113D01*
X31764Y3195D01*
Y3314D01*
X31938D01*
Y3197D01*
X31946Y3154D01*
X31971Y3118D01*
X32007Y3093D01*
X32050Y3085D01*
X32093Y3093D01*
X32129Y3118D01*
X32154Y3154D01*
X32162Y3197D01*
Y3314D01*
X32888D01*
Y3197D01*
X32896Y3154D01*
X32921Y3118D01*
X32957Y3093D01*
X33000Y3085D01*
X33043Y3093D01*
X33079Y3118D01*
X33104Y3154D01*
X33112Y3197D01*
Y3314D01*
X33293D01*
Y3815D01*
X33339Y3834D01*
X33387Y3786D01*
X33626D01*
Y3251D01*
X34612D01*
Y3313D01*
X35948D01*
Y2798D01*
X36369D01*
Y2694D01*
X36377Y2652D01*
X36402Y2615D01*
X36438Y2591D01*
X36481Y2582D01*
X36524Y2591D01*
X36560Y2615D01*
X36585Y2652D01*
X36593Y2694D01*
Y2798D01*
X37014D01*
Y2982D01*
X37065D01*
X37065Y2982D01*
X37107Y2991D01*
X37144Y3015D01*
X37488Y3359D01*
X37538D01*
Y3350D01*
X37546Y3307D01*
X37571Y3271D01*
X37607Y3246D01*
X37650Y3238D01*
X37693Y3246D01*
X37729Y3271D01*
X37754Y3307D01*
X37762Y3350D01*
Y3359D01*
X38438D01*
Y3350D01*
X38446Y3307D01*
X38471Y3271D01*
X38507Y3246D01*
X38550Y3238D01*
X38593Y3246D01*
X38629Y3271D01*
X38654Y3307D01*
X38662Y3350D01*
Y3359D01*
X38836D01*
X38836Y3359D01*
X38865Y3359D01*
X38886Y3351D01*
Y2939D01*
X38380Y2433D01*
X37789D01*
X37707Y2416D01*
X37638Y2370D01*
X37332Y2064D01*
X9039D01*
X7114Y3989D01*
Y5238D01*
X7164Y5272D01*
X7167Y5271D01*
Y5271D01*
X7347D01*
Y5270D01*
X7356Y5227D01*
X7380Y5191D01*
X7417Y5167D01*
X7459Y5158D01*
X7502Y5167D01*
X7539Y5191D01*
X7563Y5227D01*
X7572Y5270D01*
Y5271D01*
X7752D01*
Y5800D01*
X8173D01*
Y5262D01*
X8872D01*
Y5438D01*
X9202D01*
Y5307D01*
X9708D01*
Y5070D01*
X9743Y5035D01*
X9735Y4992D01*
X9735Y4992D01*
Y3753D01*
X9735Y3753D01*
X9743Y3710D01*
X9768Y3674D01*
X9924Y3518D01*
X9924Y3518D01*
X9960Y3493D01*
X10003Y3485D01*
X10003Y3485D01*
X10157D01*
Y3354D01*
X10240Y3270D01*
X12115D01*
Y3269D01*
X12621D01*
Y3270D01*
X12979D01*
Y3314D01*
X13147D01*
Y3313D01*
X13156Y3270D01*
X13180Y3233D01*
X13217Y3209D01*
X13259Y3201D01*
X13302Y3209D01*
X13339Y3233D01*
X13363Y3270D01*
X13372Y3313D01*
Y3314D01*
X13552D01*
Y3485D01*
X13817D01*
Y3316D01*
X13997D01*
Y3313D01*
X14006Y3270D01*
X14030Y3233D01*
X14067Y3209D01*
X14110Y3201D01*
X14152Y3209D01*
X14189Y3233D01*
X14213Y3270D01*
X14222Y3313D01*
Y3316D01*
X14402D01*
Y3356D01*
X14412D01*
Y3485D01*
X14667D01*
Y3314D01*
X14847D01*
Y3313D01*
X14856Y3270D01*
X14880Y3233D01*
X14917Y3209D01*
X14960Y3201D01*
X15003Y3209D01*
X15039Y3233D01*
X15063Y3270D01*
X15072Y3313D01*
Y3314D01*
X15253D01*
Y3880D01*
X15223D01*
Y4091D01*
X15317D01*
X15317Y4091D01*
X15360Y4100D01*
X15397Y4124D01*
X15504Y4231D01*
X15557D01*
Y4055D01*
X16256D01*
Y4631D01*
X15557D01*
Y4455D01*
X15457D01*
X15457Y4455D01*
X15421Y4448D01*
X15223D01*
Y4449D01*
X14718D01*
Y4448D01*
X14255D01*
X14222Y4481D01*
X14213Y4524D01*
X14189Y4560D01*
X14189Y4560D01*
X14070Y4679D01*
X14033Y4704D01*
X13991Y4712D01*
X13991Y4712D01*
X12950D01*
X12907Y4704D01*
X12871Y4679D01*
X12871Y4679D01*
X12630Y4438D01*
X10989D01*
X10982Y4431D01*
Y4104D01*
X10949D01*
Y3992D01*
X10939Y3990D01*
X10902Y3966D01*
X10878Y3929D01*
X10870Y3886D01*
X10877Y3850D01*
X10872Y3835D01*
X10847Y3800D01*
X10662D01*
Y3840D01*
X10157D01*
Y3800D01*
X9959D01*
Y4945D01*
X10325Y5311D01*
X10662D01*
Y5396D01*
X11100D01*
X11163Y5333D01*
Y5267D01*
X11163Y5267D01*
X11171Y5224D01*
X11196Y5187D01*
X11376Y5007D01*
X11376Y5007D01*
X11412Y4983D01*
X11455Y4974D01*
X11455Y4974D01*
X13103D01*
X13103Y4974D01*
X13145Y4983D01*
X13182Y5007D01*
X13351Y5177D01*
X13375Y5213D01*
X13384Y5256D01*
X13384Y5256D01*
Y5312D01*
X13525D01*
Y5918D01*
Y6404D01*
X13857D01*
Y5837D01*
X13817D01*
Y5271D01*
X13997D01*
Y5270D01*
X14006Y5227D01*
X14030Y5191D01*
X14067Y5167D01*
X14110Y5158D01*
X14152Y5167D01*
X14189Y5191D01*
X14213Y5227D01*
X14222Y5270D01*
Y5271D01*
X14402D01*
Y5442D01*
X14667D01*
Y5271D01*
X14847D01*
Y5270D01*
X14856Y5227D01*
X14880Y5191D01*
X14917Y5167D01*
X14960Y5158D01*
X15003Y5167D01*
X15039Y5191D01*
X15063Y5227D01*
X15072Y5270D01*
Y5271D01*
X15253D01*
Y5837D01*
X15213D01*
Y6049D01*
X15253Y6057D01*
X15290Y6081D01*
X15396Y6188D01*
X15557D01*
Y6012D01*
X16256D01*
Y6589D01*
X15557D01*
Y6413D01*
X15350D01*
X15350Y6413D01*
X15307Y6404D01*
X15271Y6380D01*
X15271Y6380D01*
X15259Y6368D01*
X15213Y6387D01*
Y6404D01*
X14707D01*
Y6273D01*
X14362D01*
Y6404D01*
X14253D01*
X14222Y6440D01*
X14213Y6483D01*
X14189Y6520D01*
X14189Y6520D01*
X13979Y6729D01*
X13943Y6754D01*
X13900Y6762D01*
X13900Y6762D01*
X12096D01*
X12053Y6754D01*
X12017Y6729D01*
X12017Y6729D01*
X11845Y6557D01*
X11825Y6527D01*
X11582D01*
Y6593D01*
X11378D01*
Y6659D01*
X11370Y6702D01*
X11345Y6739D01*
X11309Y6763D01*
X11266Y6771D01*
X11223Y6763D01*
X11187Y6739D01*
X11162Y6702D01*
X11154Y6659D01*
Y6593D01*
X10949D01*
Y6487D01*
X10624D01*
X10624Y6487D01*
X10581Y6479D01*
X10568Y6470D01*
X10514Y6487D01*
X10511Y6491D01*
X10489Y6524D01*
X10452Y6548D01*
X10409Y6557D01*
X10367Y6548D01*
X10330Y6524D01*
X10306Y6488D01*
X10297Y6445D01*
Y6444D01*
X10117D01*
Y6273D01*
X9752D01*
Y6444D01*
X9572D01*
Y6445D01*
X9563Y6488D01*
X9539Y6524D01*
X9502Y6548D01*
X9459Y6557D01*
X9417Y6548D01*
X9380Y6524D01*
X9356Y6488D01*
X9347Y6445D01*
Y6444D01*
X9167D01*
Y5962D01*
X8872D01*
Y6539D01*
X8173D01*
Y6515D01*
X7954D01*
X7872Y6498D01*
X7802Y6452D01*
X7760Y6410D01*
X7712Y6404D01*
Y6404D01*
X7207D01*
Y6211D01*
X6749Y5753D01*
X6702Y5683D01*
X6686Y5601D01*
Y3900D01*
X6702Y3818D01*
X6749Y3749D01*
X8799Y1699D01*
X8868Y1652D01*
X8950Y1636D01*
X37421D01*
X37447Y1641D01*
X37480Y1597D01*
X37432Y1507D01*
X37384Y1347D01*
X37367Y1181D01*
X37384Y1015D01*
X37432Y855D01*
X37511Y708D01*
X37617Y579D01*
X37746Y473D01*
X37893Y394D01*
X38053Y346D01*
X38219Y330D01*
X38385Y346D01*
X38545Y394D01*
X38692Y473D01*
X38821Y579D01*
X38927Y708D01*
X39006Y855D01*
X39054Y1015D01*
X39070Y1181D01*
X39054Y1347D01*
X39006Y1507D01*
X38927Y1654D01*
X38821Y1783D01*
X38692Y1889D01*
X38545Y1968D01*
X38543Y1968D01*
X38546Y2020D01*
X38550Y2021D01*
X38620Y2067D01*
X39204Y2651D01*
X39250Y2632D01*
Y100D01*
X39200Y50D01*
X17250Y100D01*
X50D01*
Y32100D01*
X100Y32200D01*
X150Y32250D01*
X39250D01*
Y9269D01*
D02*
G37*
G36*
X29234Y26390D02*
Y25712D01*
X28700D01*
Y26431D01*
X29217D01*
X29234Y26390D01*
D02*
G37*
G36*
X5150Y24223D02*
X5281D01*
Y24157D01*
X5281Y24157D01*
X5289Y24114D01*
X5314Y24078D01*
X5464Y23927D01*
Y23615D01*
X3818D01*
Y24223D01*
X5150D01*
Y24223D01*
D02*
G37*
G36*
X25307Y23566D02*
X23693D01*
Y23737D01*
X23693D01*
X23706Y23781D01*
X25307D01*
Y23566D01*
D02*
G37*
G36*
X5150Y23110D02*
X5278D01*
Y23059D01*
X5278Y23059D01*
X5287Y23017D01*
X5311Y22980D01*
X5464Y22827D01*
Y22502D01*
X3818D01*
Y23026D01*
X3902Y23110D01*
X5150D01*
Y23110D01*
D02*
G37*
G36*
X25307Y22728D02*
X25347Y22688D01*
X25426D01*
Y22392D01*
X25376Y22353D01*
X25367Y22355D01*
X25322Y22346D01*
X25284Y22320D01*
X25253D01*
X25215Y22346D01*
X25170Y22355D01*
X25125Y22346D01*
X25087Y22320D01*
X25056D01*
X25018Y22346D01*
X24973Y22355D01*
X24928Y22346D01*
X24890Y22320D01*
X24859D01*
X24821Y22346D01*
X24776Y22355D01*
X24731Y22346D01*
X24693Y22320D01*
X24663D01*
X24624Y22346D01*
X24580Y22355D01*
X24535Y22346D01*
X24497Y22320D01*
X24466D01*
X24428Y22346D01*
X24383Y22355D01*
X24338Y22346D01*
X24300Y22320D01*
X24269D01*
X24231Y22346D01*
X24186Y22355D01*
X24141Y22346D01*
X24103Y22320D01*
X24072D01*
X24034Y22346D01*
X23989Y22355D01*
X23944Y22346D01*
X23906Y22320D01*
X23875D01*
X23837Y22346D01*
X23792Y22355D01*
X23747Y22346D01*
X23709Y22320D01*
X23661Y22338D01*
X23650Y22349D01*
Y22604D01*
X23653D01*
Y23090D01*
X23650D01*
Y23170D01*
X23693D01*
Y23341D01*
X25307D01*
Y22728D01*
D02*
G37*
G36*
X29434Y23746D02*
X30067D01*
Y23566D01*
X30066D01*
X30023Y23557D01*
X29987Y23533D01*
X29963Y23496D01*
X29954Y23454D01*
X29963Y23411D01*
X29987Y23374D01*
X30023Y23350D01*
X30066Y23341D01*
X30067D01*
Y23161D01*
X30633D01*
X30654Y23119D01*
Y22582D01*
X30702Y22533D01*
X30686Y22451D01*
Y22089D01*
X30332Y21735D01*
X30286Y21754D01*
Y22268D01*
X30114D01*
X30107Y22302D01*
X30082Y22339D01*
X30046Y22363D01*
X30003Y22372D01*
X29960Y22363D01*
X29924Y22339D01*
X29900Y22302D01*
X29893Y22268D01*
X29720D01*
Y22228D01*
X29154D01*
Y21891D01*
X28871Y21608D01*
X28854Y21583D01*
X28799Y21568D01*
X28766Y21600D01*
X27878D01*
X27846Y21639D01*
X27847Y21639D01*
Y22237D01*
X27838Y22282D01*
X27812Y22320D01*
X27774Y22346D01*
X27729Y22355D01*
X27684Y22346D01*
X27646Y22320D01*
X27615D01*
X27577Y22346D01*
X27532Y22355D01*
X27487Y22346D01*
X27449Y22320D01*
X27418D01*
X27380Y22346D01*
X27335Y22355D01*
X27291Y22346D01*
X27252Y22320D01*
X27222D01*
X27183Y22346D01*
X27139Y22355D01*
X27094Y22346D01*
X27056Y22320D01*
X27025D01*
X26987Y22346D01*
X26942Y22355D01*
X26897Y22346D01*
X26859Y22320D01*
X26828D01*
X26790Y22346D01*
X26745Y22355D01*
X26700Y22346D01*
X26662Y22320D01*
X26631D01*
X26593Y22346D01*
X26548Y22355D01*
X26503Y22346D01*
X26465Y22320D01*
X26434D01*
X26396Y22346D01*
X26351Y22355D01*
X26306Y22346D01*
X26268Y22320D01*
X26237D01*
X26199Y22346D01*
X26154Y22355D01*
X26109Y22346D01*
X26071Y22320D01*
X26040D01*
X26002Y22346D01*
X25957Y22355D01*
X25913Y22346D01*
X25874Y22320D01*
X25844D01*
X25806Y22346D01*
X25761Y22355D01*
X25751Y22353D01*
X25701Y22392D01*
Y22688D01*
X25853D01*
Y22717D01*
X25914D01*
X25893Y22739D01*
Y23255D01*
Y23427D01*
X25927Y23434D01*
X25963Y23458D01*
X25988Y23495D01*
X25996Y23538D01*
X25988Y23581D01*
X25963Y23617D01*
X25927Y23641D01*
X25893Y23648D01*
Y23781D01*
X29399D01*
X29434Y23746D01*
D02*
G37*
G36*
X18617Y22780D02*
X18687Y22734D01*
X18769Y22717D01*
X20586D01*
Y22688D01*
X20702D01*
Y21938D01*
Y21600D01*
X20538D01*
X20538Y21600D01*
X20524Y21556D01*
X20523Y21556D01*
X20475Y21508D01*
Y21377D01*
X20436Y21346D01*
X20430Y21347D01*
X19832D01*
X19805Y21342D01*
X18305D01*
X12417Y27229D01*
X12381Y27254D01*
X12338Y27262D01*
X12338Y27262D01*
X1918D01*
Y27779D01*
X2026Y27888D01*
X12492D01*
X18559Y21821D01*
X18559Y21821D01*
X18595Y21796D01*
X18638Y21788D01*
X18638Y21788D01*
X19770D01*
X19777Y21777D01*
X19834Y21740D01*
X19900Y21727D01*
X19966Y21740D01*
X20023Y21777D01*
X20060Y21834D01*
X20073Y21900D01*
X20060Y21966D01*
X20023Y22023D01*
X19966Y22060D01*
X19900Y22073D01*
X19834Y22060D01*
X19777Y22023D01*
X19770Y22012D01*
X18685D01*
X12617Y28079D01*
X12581Y28104D01*
X12538Y28112D01*
X12538Y28112D01*
X1980D01*
X1968Y28110D01*
X1918Y28146D01*
Y28636D01*
X12761D01*
X18617Y22780D01*
D02*
G37*
G36*
X3753Y25337D02*
X5281D01*
Y25257D01*
X5281Y25257D01*
X5289Y25214D01*
X5314Y25178D01*
X5464Y25027D01*
Y24729D01*
X3753D01*
Y24588D01*
X3578D01*
X3536Y24580D01*
X3499Y24556D01*
X3499Y24556D01*
X3221Y24277D01*
X3196Y24241D01*
X3188Y24198D01*
X3188Y24198D01*
Y21739D01*
X3149Y21700D01*
X2570D01*
X2558Y21745D01*
Y22095D01*
Y22581D01*
X2418D01*
Y22720D01*
X2428Y22727D01*
X2466Y22784D01*
X2479Y22850D01*
X2466Y22916D01*
X2428Y22973D01*
X2372Y23010D01*
X2306Y23023D01*
X2239Y23010D01*
X2183Y22973D01*
X2145Y22916D01*
X2132Y22850D01*
X2145Y22784D01*
X2183Y22727D01*
X2193Y22720D01*
Y22581D01*
X2053D01*
Y22450D01*
X1608D01*
Y22581D01*
X1103D01*
Y22014D01*
X1063D01*
Y21448D01*
X1243D01*
Y21447D01*
X1252Y21404D01*
X1276Y21368D01*
X1313Y21344D01*
X1356Y21335D01*
X1398Y21344D01*
X1435Y21368D01*
X1459Y21404D01*
X1468Y21447D01*
Y21448D01*
X1648D01*
Y22014D01*
X1608D01*
Y22226D01*
X2053D01*
Y22095D01*
Y21488D01*
X2243D01*
Y20171D01*
X2176Y20144D01*
X2102Y20087D01*
X2045Y20013D01*
X2009Y19926D01*
X1997Y19833D01*
X2009Y19741D01*
X2045Y19654D01*
X2102Y19580D01*
X2176Y19523D01*
X2263Y19487D01*
X2356Y19475D01*
X2404Y19481D01*
X2427Y19434D01*
X2276Y19283D01*
X2252Y19247D01*
X2243Y19204D01*
X2243Y19204D01*
Y19171D01*
X2176Y19144D01*
X2102Y19087D01*
X2045Y19013D01*
X2009Y18926D01*
X1997Y18833D01*
X2009Y18741D01*
X2045Y18654D01*
X2102Y18580D01*
X2141Y18550D01*
X2124Y18500D01*
X1588D01*
X1588Y18500D01*
X1587Y18500D01*
X1566Y18547D01*
X1609Y18580D01*
X1666Y18654D01*
X1702Y18741D01*
X1714Y18833D01*
X1702Y18926D01*
X1666Y19013D01*
X1660Y19019D01*
X1662Y19028D01*
X1662Y19028D01*
Y19352D01*
X1880Y19570D01*
X1880Y19570D01*
X1904Y19606D01*
X1913Y19649D01*
X1913Y19649D01*
Y20249D01*
X1904Y20292D01*
X1880Y20329D01*
X1880Y20329D01*
X962Y21246D01*
Y23054D01*
X3386Y25478D01*
X3753D01*
Y25337D01*
D02*
G37*
G36*
X13313Y21700D02*
X13033D01*
Y23586D01*
X13313D01*
Y21700D01*
D02*
G37*
G36*
X11710Y23076D02*
X11726Y22994D01*
X11773Y22925D01*
X12339Y22358D01*
Y21700D01*
X11600D01*
X11550Y21750D01*
X11476Y21676D01*
X11430Y21695D01*
Y23586D01*
X11710D01*
Y23076D01*
D02*
G37*
G36*
X5150Y21996D02*
X5281D01*
Y21907D01*
X5281Y21907D01*
X5289Y21864D01*
X5314Y21828D01*
X5464Y21677D01*
Y21388D01*
X3818D01*
Y21824D01*
X3990Y21996D01*
X5150D01*
Y21996D01*
D02*
G37*
G36*
X13313Y20373D02*
X13329Y20291D01*
X13375Y20222D01*
X14247Y19350D01*
Y19157D01*
X14286D01*
Y18950D01*
X14289Y18934D01*
X14165Y18810D01*
X13235D01*
Y19208D01*
X13227Y19216D01*
X12880D01*
Y19508D01*
X12737D01*
Y19608D01*
X12880D01*
Y20051D01*
X12849D01*
Y20245D01*
X12840Y20288D01*
X12816Y20324D01*
X12780Y20349D01*
X12737Y20357D01*
X12457D01*
X12414Y20349D01*
X12377Y20324D01*
X12377Y20324D01*
X12348Y20295D01*
X12294Y20312D01*
X12292Y20321D01*
X12451Y20480D01*
X12737D01*
X12737Y20480D01*
X12780Y20488D01*
X12817Y20513D01*
X13000Y20696D01*
X13000Y20696D01*
X13024Y20732D01*
X13033Y20775D01*
Y21500D01*
X13313D01*
Y20373D01*
D02*
G37*
G36*
X5150Y20882D02*
X5288D01*
Y20750D01*
X5288Y20750D01*
X5296Y20707D01*
X5321Y20671D01*
X5464Y20527D01*
Y20274D01*
X3818D01*
Y20882D01*
X5150D01*
Y20882D01*
D02*
G37*
G36*
X15900Y20600D02*
Y20003D01*
X15893Y19956D01*
X15643D01*
Y20289D01*
X15462D01*
Y20400D01*
X15454Y20443D01*
X15429Y20479D01*
X15393Y20504D01*
X15350Y20512D01*
X15307Y20504D01*
X15271Y20479D01*
X15246Y20443D01*
X15238Y20400D01*
Y20289D01*
X15057D01*
Y20118D01*
X14793D01*
Y20289D01*
X14612D01*
Y20400D01*
X14604Y20443D01*
X14579Y20479D01*
X14543Y20504D01*
X14500Y20512D01*
X14457Y20504D01*
X14421Y20479D01*
X14396Y20443D01*
X14388Y20400D01*
Y20289D01*
X14207D01*
Y20288D01*
X13923D01*
X13923Y20288D01*
X13919Y20284D01*
X13741Y20462D01*
Y21500D01*
X15000D01*
X15900Y20600D01*
D02*
G37*
G36*
X5150Y19768D02*
X5281D01*
Y19643D01*
X5281Y19643D01*
X5289Y19600D01*
X5314Y19564D01*
X5464Y19413D01*
Y19160D01*
X3818D01*
Y19247D01*
X4075Y19504D01*
X4075Y19504D01*
X4100Y19540D01*
X4108Y19583D01*
Y19768D01*
X5150D01*
Y19768D01*
D02*
G37*
G36*
X5150Y18654D02*
X5288D01*
Y18575D01*
X5288Y18575D01*
X5296Y18532D01*
X5321Y18496D01*
X5464Y18353D01*
Y18046D01*
X3885D01*
X3866Y18093D01*
X4075Y18302D01*
X4075Y18302D01*
X4100Y18339D01*
X4108Y18382D01*
X4108Y18382D01*
Y18654D01*
X5150D01*
Y18654D01*
D02*
G37*
G36*
X14686Y18361D02*
Y17800D01*
X14076D01*
Y18327D01*
X14112Y18362D01*
X14686Y18361D01*
D02*
G37*
G36*
X16853Y18188D02*
X16799Y18151D01*
X16752Y18082D01*
X16736Y18000D01*
Y17853D01*
X16101D01*
Y17712D01*
X15900D01*
X15857Y17704D01*
X15821Y17679D01*
X15821Y17679D01*
X15571Y17429D01*
X15546Y17393D01*
X15538Y17350D01*
X15538Y17350D01*
Y16728D01*
X15399Y16589D01*
X15143D01*
X14987Y16744D01*
X14990Y16766D01*
X15001Y16802D01*
X15030Y16821D01*
X15188Y16979D01*
X15200Y16977D01*
X15266Y16990D01*
X15323Y17027D01*
X15360Y17084D01*
X15373Y17150D01*
X15360Y17216D01*
X15323Y17273D01*
X15266Y17310D01*
X15200Y17323D01*
X15134Y17310D01*
X15077Y17273D01*
X15040Y17216D01*
X15027Y17150D01*
X15029Y17138D01*
X14950Y17059D01*
X14900Y17079D01*
Y17376D01*
X15238D01*
X15238Y17376D01*
X15281Y17384D01*
X15317Y17408D01*
X16146Y18238D01*
X16838D01*
X16853Y18188D01*
D02*
G37*
G36*
X5150Y17541D02*
X5281D01*
Y17407D01*
X5281Y17407D01*
X5289Y17364D01*
X5314Y17328D01*
X5414Y17227D01*
X5419Y17199D01*
X5419Y17184D01*
X5414Y17163D01*
X5314Y17063D01*
X5289Y17027D01*
X5281Y16984D01*
X5281Y16984D01*
Y16933D01*
X3818D01*
Y17541D01*
X5150D01*
Y17541D01*
D02*
G37*
G36*
X16101Y17347D02*
X16736D01*
Y16878D01*
X16101D01*
Y16737D01*
X16009D01*
X16009Y16737D01*
X15966Y16729D01*
X15929Y16704D01*
X15826Y16601D01*
X15787Y16605D01*
X15756Y16650D01*
X15762Y16681D01*
X15762Y16681D01*
Y17304D01*
X15946Y17488D01*
X16101D01*
Y17347D01*
D02*
G37*
G36*
X17538Y17982D02*
Y16675D01*
X17538Y16675D01*
X17546Y16632D01*
X17571Y16595D01*
X17716Y16450D01*
X17695Y16400D01*
X17193D01*
Y16878D01*
X17193D01*
Y16878D01*
X17164D01*
Y17347D01*
X17193D01*
Y17853D01*
X17164D01*
Y18000D01*
X17148Y18082D01*
X17101Y18151D01*
X17047Y18188D01*
X17062Y18238D01*
X17282D01*
X17538Y17982D01*
D02*
G37*
G36*
X5150Y16427D02*
X5464D01*
Y16213D01*
X5464Y16213D01*
X5314Y16063D01*
X5289Y16027D01*
X5281Y15984D01*
X5281Y15984D01*
Y15819D01*
X5150D01*
Y15803D01*
X4845D01*
Y15819D01*
X4359D01*
Y15803D01*
X4239D01*
Y15819D01*
X3753D01*
Y16377D01*
X3753Y16416D01*
X3799Y16427D01*
X5150D01*
Y16427D01*
D02*
G37*
G36*
X19702Y15984D02*
X19721Y15949D01*
X19714Y15914D01*
X19723Y15870D01*
X19749Y15831D01*
Y15801D01*
X19723Y15762D01*
X19714Y15718D01*
X19721Y15683D01*
X19702Y15648D01*
X19690Y15633D01*
X19630D01*
X19623Y15643D01*
X19566Y15681D01*
X19500Y15694D01*
X19434Y15681D01*
X19377Y15643D01*
X19370Y15633D01*
X19296D01*
X19279Y15650D01*
X19243Y15674D01*
X19200Y15683D01*
X19165Y15715D01*
Y15824D01*
X19146D01*
Y15843D01*
X18660D01*
Y15824D01*
X18580D01*
Y15883D01*
X18014D01*
Y15762D01*
X17233D01*
Y15943D01*
X16750D01*
Y15999D01*
X19690D01*
X19702Y15984D01*
D02*
G37*
G36*
X16061Y15357D02*
X16232D01*
Y15132D01*
X16240Y15089D01*
X16264Y15052D01*
X16301Y15028D01*
X16344Y15020D01*
X16387Y15028D01*
X16423Y15052D01*
X16447Y15089D01*
X16456Y15132D01*
Y15357D01*
X16600D01*
Y14502D01*
X16606Y14496D01*
X16586Y14450D01*
X12874D01*
Y14776D01*
X13015Y14917D01*
X13015Y14917D01*
X13045Y14962D01*
X13056Y15015D01*
Y15318D01*
X13148D01*
X13235Y15405D01*
Y15576D01*
X13511D01*
Y15400D01*
X13519Y15357D01*
X13544Y15321D01*
X13580Y15296D01*
X13623Y15288D01*
X13666Y15296D01*
X13702Y15321D01*
X13726Y15357D01*
X13735Y15400D01*
Y15576D01*
X14116D01*
Y15601D01*
X16061D01*
Y15357D01*
D02*
G37*
G36*
X3747Y15297D02*
X5521D01*
Y15059D01*
X5493Y15054D01*
X5457Y15029D01*
X5457Y15029D01*
X5314Y14886D01*
X5289Y14850D01*
X5281Y14807D01*
X5281Y14807D01*
Y14705D01*
X3753D01*
Y14564D01*
X3702D01*
X3659Y14556D01*
X3623Y14532D01*
X3623Y14532D01*
X3592Y14500D01*
X2587D01*
X2570Y14550D01*
X2609Y14580D01*
X2666Y14654D01*
X2702Y14741D01*
X2714Y14833D01*
X2702Y14926D01*
X2674Y14993D01*
X3135Y15454D01*
X3747D01*
Y15297D01*
D02*
G37*
G36*
X2220Y15162D02*
X2176Y15144D01*
X2102Y15087D01*
X2045Y15013D01*
X2009Y14926D01*
X1997Y14833D01*
X2009Y14741D01*
X2045Y14654D01*
X2102Y14580D01*
X2141Y14550D01*
X2124Y14500D01*
X1588D01*
X1588Y14500D01*
X1587Y14500D01*
X1566Y14547D01*
X1609Y14580D01*
X1666Y14654D01*
X1702Y14741D01*
X1714Y14833D01*
X1702Y14926D01*
X1666Y15013D01*
X1609Y15087D01*
X1594Y15098D01*
X1591Y15148D01*
X1654Y15212D01*
X2210D01*
X2220Y15162D01*
D02*
G37*
G36*
X9323Y15288D02*
X9353Y15318D01*
X9643D01*
X9681Y15287D01*
Y14877D01*
X9680Y14876D01*
X9672Y14833D01*
Y14330D01*
X9657Y14316D01*
X8350D01*
X8350Y14316D01*
X8307Y14307D01*
X8271Y14283D01*
X7659Y13671D01*
X7637Y13693D01*
X7524D01*
X7478Y13717D01*
Y14369D01*
X7673Y14564D01*
X7673Y14564D01*
X7697Y14601D01*
X7706Y14644D01*
Y15160D01*
X8153Y15607D01*
X8898D01*
X8941Y15616D01*
X8941Y15616D01*
X9323D01*
Y15288D01*
D02*
G37*
G36*
X13162Y13519D02*
X13553D01*
Y13480D01*
X13582D01*
Y13109D01*
X13553D01*
Y13067D01*
X13259D01*
X13178Y13051D01*
X13108Y13005D01*
X13062Y12935D01*
X13045Y12853D01*
X13062Y12771D01*
X13108Y12702D01*
X13178Y12655D01*
X13259Y12639D01*
X13553D01*
Y12603D01*
X13556D01*
Y12600D01*
X13746D01*
X13895Y12451D01*
Y10904D01*
X13695D01*
Y10546D01*
X13666D01*
X13584Y10530D01*
X13514Y10484D01*
X13257Y10227D01*
X13106D01*
Y10376D01*
Y10862D01*
X12965D01*
Y13387D01*
X12965Y13437D01*
X12981D01*
X13015Y13471D01*
X13015D01*
X13015Y13471D01*
X13080Y13536D01*
X13162Y13519D01*
D02*
G37*
G36*
X26092Y13235D02*
X26109Y13223D01*
X26154Y13214D01*
X26199Y13223D01*
X26217Y13235D01*
X26253Y13245D01*
X26288Y13235D01*
X26306Y13223D01*
X26351Y13214D01*
X26360Y13216D01*
X26410Y13177D01*
Y12881D01*
X26295D01*
Y12314D01*
X26255D01*
Y11748D01*
X26436D01*
X26444Y11707D01*
X26469Y11671D01*
X26505Y11646D01*
X26548Y11638D01*
X26591Y11646D01*
X26627Y11671D01*
X26652Y11707D01*
X26660Y11748D01*
X26841D01*
Y12314D01*
X26801D01*
Y12850D01*
X27026D01*
Y11461D01*
X27026Y11461D01*
X27035Y11418D01*
X27059Y11382D01*
X27257Y11184D01*
X27257Y11173D01*
X27240Y11131D01*
X27214Y11128D01*
X27166Y11160D01*
X27100Y11173D01*
X27034Y11160D01*
X26977Y11123D01*
X26940Y11066D01*
X26927Y11000D01*
X26940Y10934D01*
X26977Y10877D01*
X27034Y10840D01*
X27100Y10827D01*
X27166Y10840D01*
X27223Y10877D01*
X27236Y10879D01*
X27557Y10557D01*
X27537Y10507D01*
X27244D01*
X27242Y10516D01*
X27205Y10573D01*
X27149Y10610D01*
X27082Y10623D01*
X27016Y10610D01*
X26960Y10573D01*
X26922Y10516D01*
X26909Y10450D01*
X26922Y10384D01*
X26960Y10327D01*
X27016Y10290D01*
X27082Y10277D01*
X27126Y10285D01*
X27137Y10283D01*
X27137Y10283D01*
X27549D01*
X28114Y9718D01*
X28114Y9718D01*
X28114Y9718D01*
X28285Y9547D01*
Y9438D01*
X28172D01*
X28162Y9450D01*
X28154Y9493D01*
X28129Y9529D01*
X28093Y9554D01*
X28050Y9562D01*
X28007Y9554D01*
X27971Y9529D01*
X27957Y9516D01*
X27933Y9480D01*
X27925Y9438D01*
X27744D01*
Y9267D01*
X27375D01*
Y9438D01*
X27194D01*
Y9500D01*
X27186Y9543D01*
X27162Y9579D01*
X27125Y9604D01*
X27082Y9612D01*
X27039Y9604D01*
X27003Y9579D01*
X26979Y9543D01*
X26970Y9500D01*
Y9438D01*
X26900D01*
X26900Y9438D01*
X26900Y9438D01*
X26789D01*
Y9420D01*
X26584D01*
Y9420D01*
X26262D01*
Y9489D01*
X26262Y9489D01*
X26254Y9532D01*
X26229Y9569D01*
X26229Y9569D01*
X25479Y10319D01*
Y13190D01*
X25494Y13202D01*
X25529Y13221D01*
X25564Y13214D01*
X25598Y13221D01*
X25633Y13202D01*
X25648Y13190D01*
Y13034D01*
X25632Y13023D01*
X25594Y12966D01*
X25581Y12900D01*
X25594Y12834D01*
X25632Y12777D01*
X25688Y12740D01*
X25754Y12727D01*
X25821Y12740D01*
X25877Y12777D01*
X25914Y12834D01*
X25928Y12900D01*
X25914Y12966D01*
X25877Y13023D01*
X25873Y13025D01*
Y13190D01*
X25888Y13202D01*
X25923Y13221D01*
X25957Y13214D01*
X26002Y13223D01*
X26020Y13235D01*
X26056Y13245D01*
X26092Y13235D01*
D02*
G37*
G36*
X24338Y13223D02*
X24383Y13214D01*
X24428Y13223D01*
X24445Y13235D01*
X24481Y13245D01*
X24517Y13235D01*
X24535Y13223D01*
X24580Y13214D01*
X24624Y13223D01*
X24642Y13235D01*
X24678Y13245D01*
X24714Y13235D01*
X24731Y13223D01*
X24776Y13214D01*
X24784Y13216D01*
X24833Y13180D01*
X24833Y13179D01*
X24831Y13168D01*
X24825Y13155D01*
X24777Y13123D01*
X24740Y13066D01*
X24727Y13000D01*
X24740Y12934D01*
X24777Y12877D01*
X24834Y12840D01*
X24900Y12827D01*
X24966Y12840D01*
X25008Y12868D01*
X25058Y12847D01*
Y11013D01*
X25055Y10997D01*
Y10994D01*
X25055Y10994D01*
X25055Y10994D01*
Y10313D01*
X24654Y9912D01*
X23550D01*
X23550Y9912D01*
X23507Y9904D01*
X23362Y10049D01*
Y10148D01*
Y10797D01*
X23412Y10834D01*
X23447Y10827D01*
X23513Y10840D01*
X23569Y10877D01*
X23607Y10934D01*
X23620Y11000D01*
X23607Y11066D01*
X23569Y11123D01*
X23513Y11160D01*
X23447Y11173D01*
X23381Y11160D01*
X23324Y11123D01*
X23312Y11105D01*
X23307Y11104D01*
X23271Y11079D01*
X23271Y11079D01*
X23212Y11021D01*
X23162Y11041D01*
Y11379D01*
X23216Y11390D01*
X23273Y11427D01*
X23310Y11484D01*
X23323Y11550D01*
X23310Y11616D01*
X23273Y11673D01*
X23216Y11710D01*
X23150Y11723D01*
X23084Y11710D01*
X23027Y11673D01*
X23012Y11650D01*
X22962Y11665D01*
Y11860D01*
X23016Y11871D01*
X23073Y11909D01*
X23110Y11965D01*
X23123Y12031D01*
X23110Y12098D01*
X23073Y12154D01*
X23016Y12191D01*
X22950Y12205D01*
X22884Y12191D01*
X22827Y12154D01*
X22812Y12131D01*
X22762Y12146D01*
Y12370D01*
X22773Y12377D01*
X22810Y12434D01*
X22823Y12500D01*
X22810Y12566D01*
X22773Y12623D01*
X22716Y12660D01*
X22650Y12673D01*
X22584Y12660D01*
X22527Y12623D01*
X22490Y12566D01*
X22477Y12500D01*
X22490Y12434D01*
X22527Y12377D01*
X22538Y12370D01*
Y10528D01*
X22493Y10484D01*
X22313D01*
X22265Y10506D01*
X22262Y10519D01*
X22262Y10519D01*
Y12671D01*
X22497Y12905D01*
X22497Y12905D01*
X22521Y12942D01*
X22529Y12984D01*
X22529Y12984D01*
Y13192D01*
X22579Y13221D01*
X22611Y13214D01*
X22656Y13223D01*
X22674Y13235D01*
X22709Y13245D01*
X22745Y13235D01*
X22763Y13223D01*
X22808Y13214D01*
X22853Y13223D01*
X22891Y13249D01*
X22922D01*
X22960Y13223D01*
X23005Y13214D01*
X23050Y13223D01*
X23067Y13235D01*
X23103Y13245D01*
X23139Y13235D01*
X23157Y13223D01*
X23202Y13214D01*
X23246Y13223D01*
X23285Y13249D01*
X23315D01*
X23354Y13223D01*
X23398Y13214D01*
X23443Y13223D01*
X23461Y13235D01*
X23497Y13245D01*
X23533Y13235D01*
X23550Y13223D01*
X23595Y13214D01*
X23640Y13223D01*
X23658Y13235D01*
X23694Y13245D01*
X23729Y13235D01*
X23747Y13223D01*
X23792Y13214D01*
X23801Y13216D01*
X23851Y13177D01*
Y12881D01*
X23747D01*
Y12314D01*
X23707D01*
Y11748D01*
X23888D01*
Y11700D01*
X23896Y11657D01*
X23921Y11621D01*
X23957Y11596D01*
X24000Y11588D01*
X24043Y11596D01*
X24079Y11621D01*
X24104Y11657D01*
X24112Y11700D01*
Y11748D01*
X24293D01*
Y12314D01*
X24253D01*
Y12881D01*
X24127D01*
Y13177D01*
X24177Y13216D01*
X24186Y13214D01*
X24231Y13223D01*
X24269Y13249D01*
X24300D01*
X24338Y13223D01*
D02*
G37*
G36*
X5150Y13086D02*
X5505D01*
Y12916D01*
X5520Y12901D01*
X5505Y12846D01*
X5480Y12829D01*
X5480Y12829D01*
X5314Y12663D01*
X5289Y12627D01*
X5281Y12584D01*
X5281Y12584D01*
Y12478D01*
X3753D01*
X3750Y12526D01*
Y12934D01*
X3902Y13086D01*
X5150D01*
Y13086D01*
D02*
G37*
G36*
X5150Y11972D02*
X5636D01*
X5657Y11930D01*
Y11762D01*
X5550D01*
X5550Y11762D01*
X5507Y11754D01*
X5471Y11729D01*
X5471Y11729D01*
X5314Y11572D01*
X5289Y11536D01*
X5281Y11493D01*
X5281Y11493D01*
Y11364D01*
X4108D01*
Y11554D01*
X4100Y11597D01*
X4075Y11633D01*
X4075Y11633D01*
X3787Y11922D01*
X3808Y11972D01*
X5150D01*
Y11972D01*
D02*
G37*
G36*
X8939Y12313D02*
X8702Y12076D01*
X8655Y12007D01*
X8639Y11925D01*
Y11553D01*
X8530D01*
Y11593D01*
X8359D01*
Y12507D01*
X8413Y12560D01*
X8830D01*
Y12600D01*
X8939D01*
Y12313D01*
D02*
G37*
G36*
X5150Y10858D02*
X5636D01*
X5657Y10817D01*
Y10646D01*
X5584D01*
X5584Y10646D01*
X5541Y10637D01*
X5504Y10613D01*
X5504Y10613D01*
X5314Y10422D01*
X5289Y10386D01*
X5281Y10343D01*
X5281Y10343D01*
Y10250D01*
X3850D01*
Y10858D01*
X5150D01*
Y10858D01*
D02*
G37*
G36*
X10851Y13980D02*
X10271Y13400D01*
X10246Y13363D01*
X10238Y13320D01*
X10238Y13320D01*
Y10949D01*
X10223D01*
Y10035D01*
X9600Y9413D01*
X9450D01*
Y9832D01*
X9355Y9927D01*
X9059D01*
X8432Y10553D01*
X8396Y10578D01*
X8353Y10586D01*
X8353Y10586D01*
X8275D01*
Y10652D01*
X7722D01*
Y10652D01*
X7694Y10640D01*
X7562Y10772D01*
Y13257D01*
X8218Y13912D01*
X8264Y13893D01*
Y13812D01*
X8263D01*
X8220Y13804D01*
X8183Y13779D01*
X8159Y13743D01*
X8151Y13700D01*
X8159Y13657D01*
X8183Y13621D01*
X8220Y13596D01*
X8263Y13588D01*
X8264D01*
Y13407D01*
X8435D01*
Y13146D01*
X8264D01*
Y12965D01*
X8263D01*
X8220Y12957D01*
X8183Y12932D01*
X8159Y12896D01*
X8151Y12853D01*
X8159Y12810D01*
X8183Y12774D01*
X8216Y12752D01*
X8220Y12747D01*
X8231Y12696D01*
X8168Y12632D01*
X8143Y12596D01*
X8135Y12553D01*
X8135Y12553D01*
Y11593D01*
X7964D01*
Y11412D01*
X7963D01*
X7920Y11404D01*
X7883Y11379D01*
X7859Y11343D01*
X7851Y11300D01*
X7859Y11257D01*
X7883Y11221D01*
X7920Y11196D01*
X7963Y11188D01*
X7964D01*
Y11007D01*
X8530D01*
Y11047D01*
X8803D01*
X8887Y10963D01*
Y10652D01*
X8825D01*
Y10296D01*
X8990D01*
X9019Y10276D01*
X9101Y10260D01*
X9183Y10276D01*
X9213Y10296D01*
X9378D01*
Y10652D01*
X9315D01*
Y11052D01*
X9299Y11134D01*
X9253Y11203D01*
X9096Y11360D01*
Y11553D01*
X9067D01*
Y11836D01*
X9305Y12073D01*
X9351Y12143D01*
X9367Y12225D01*
Y12600D01*
X9396D01*
Y12639D01*
X9750D01*
X9832Y12655D01*
X9901Y12702D01*
X9948Y12771D01*
X9964Y12853D01*
X9948Y12935D01*
X9901Y13005D01*
X9832Y13051D01*
X9750Y13067D01*
X9396D01*
Y13106D01*
X9367D01*
Y13447D01*
X9396D01*
Y13486D01*
X9750D01*
X9832Y13502D01*
X9901Y13549D01*
X10329Y13976D01*
X10347Y14003D01*
X10395Y14026D01*
X10427Y14026D01*
X10832D01*
X10851Y13980D01*
D02*
G37*
G36*
X12741Y11693D02*
Y10862D01*
X12600D01*
Y10376D01*
Y10227D01*
X12306D01*
Y10256D01*
Y10862D01*
X12165D01*
Y11188D01*
X12691Y11714D01*
X12741Y11693D01*
D02*
G37*
G36*
X11443Y13696D02*
X11443Y13696D01*
X11452Y13653D01*
X11476Y13616D01*
X11722Y13371D01*
X11722Y13371D01*
X11758Y13346D01*
X11801Y13338D01*
X11801Y13338D01*
X12037D01*
X12083Y13336D01*
X12083Y13336D01*
Y13104D01*
X11610D01*
Y12599D01*
X11639D01*
Y12257D01*
X11607D01*
Y11752D01*
X12093D01*
Y12257D01*
X12067D01*
Y12599D01*
X12096D01*
Y12634D01*
X12326D01*
X12408Y12650D01*
X12477Y12697D01*
X12488Y12713D01*
X12538Y12698D01*
Y11878D01*
X11974Y11314D01*
X11950Y11278D01*
X11941Y11235D01*
X11941Y11235D01*
Y10862D01*
X11800D01*
Y10376D01*
Y10227D01*
X11506D01*
Y10256D01*
X11506D01*
Y10376D01*
X11506D01*
Y10862D01*
X11506D01*
Y10862D01*
X11000D01*
Y10731D01*
X10756D01*
Y10862D01*
X10729D01*
Y10949D01*
X10462D01*
Y13274D01*
X11227Y14039D01*
X11443D01*
Y13696D01*
D02*
G37*
G36*
X31386Y11561D02*
Y10389D01*
X30749Y9751D01*
X30702Y9682D01*
X30686Y9600D01*
Y9398D01*
X30647D01*
Y9369D01*
X30601Y9350D01*
X30553Y9398D01*
X29693D01*
Y9267D01*
X29244D01*
Y9398D01*
X29103D01*
Y9609D01*
X29095Y9652D01*
X29070Y9688D01*
X29070Y9688D01*
X27251Y11508D01*
Y13190D01*
X27266Y13202D01*
X27301Y13221D01*
X27335Y13214D01*
X27380Y13223D01*
X27418Y13249D01*
X27449D01*
X27487Y13223D01*
X27532Y13214D01*
X27567Y13221D01*
X27602Y13202D01*
X27617Y13190D01*
Y12859D01*
X27607Y12852D01*
X27569Y12795D01*
X27556Y12729D01*
X27569Y12663D01*
X27607Y12607D01*
X27663Y12569D01*
X27729Y12556D01*
X27795Y12569D01*
X27852Y12607D01*
X27889Y12663D01*
X27902Y12729D01*
X27889Y12795D01*
X27852Y12852D01*
X27841Y12859D01*
Y13306D01*
X27847Y13332D01*
X27915Y13400D01*
X28541D01*
X28838Y13104D01*
Y11440D01*
X28697D01*
Y10874D01*
X28657D01*
Y10308D01*
X28838D01*
Y10191D01*
X28846Y10148D01*
X28871Y10112D01*
X28907Y10087D01*
X28950Y10079D01*
X28993Y10087D01*
X29029Y10112D01*
X29054Y10148D01*
X29062Y10191D01*
Y10308D01*
X29243D01*
Y10479D01*
X29607D01*
Y10308D01*
X29788D01*
Y10191D01*
X29796Y10148D01*
X29821Y10112D01*
X29857Y10087D01*
X29900Y10079D01*
X29943Y10087D01*
X29979Y10112D01*
X30004Y10148D01*
X30012Y10191D01*
Y10308D01*
X30193D01*
Y10874D01*
X30153D01*
Y11085D01*
X30597D01*
Y10948D01*
Y10341D01*
X30672D01*
X30696Y10297D01*
X30690Y10289D01*
X30677Y10222D01*
X30690Y10156D01*
X30727Y10100D01*
X30784Y10062D01*
X30850Y10049D01*
X30916Y10062D01*
X30973Y10100D01*
X31010Y10156D01*
X31023Y10222D01*
X31010Y10289D01*
X31004Y10297D01*
X31028Y10341D01*
X31103D01*
Y10948D01*
Y11434D01*
X30597D01*
Y11309D01*
X30153D01*
Y11440D01*
X29647D01*
Y11309D01*
X29203D01*
Y11440D01*
X29062D01*
Y13150D01*
X29062Y13150D01*
X29054Y13193D01*
X29029Y13229D01*
X29029Y13229D01*
X28905Y13354D01*
X28924Y13400D01*
X29547D01*
X31386Y11561D01*
D02*
G37*
G36*
X20468Y14168D02*
X20475Y14164D01*
Y14061D01*
X20536Y14000D01*
X20692D01*
X20726Y13950D01*
X20722Y13930D01*
Y13332D01*
X20731Y13287D01*
X20756Y13249D01*
X20794Y13223D01*
X20839Y13214D01*
X20884Y13223D01*
X20922Y13249D01*
X20953D01*
X20991Y13223D01*
X21036Y13214D01*
X21081Y13223D01*
X21099Y13235D01*
X21135Y13245D01*
X21170Y13235D01*
X21188Y13223D01*
X21233Y13214D01*
X21278Y13223D01*
X21316Y13249D01*
X21347D01*
X21385Y13223D01*
X21430Y13214D01*
X21475Y13223D01*
X21493Y13235D01*
X21528Y13245D01*
X21564Y13235D01*
X21582Y13223D01*
X21627Y13214D01*
X21661Y13221D01*
X21696Y13202D01*
X21711Y13190D01*
Y13020D01*
X20671Y11979D01*
X20646Y11943D01*
X20638Y11900D01*
X20638Y11900D01*
Y11534D01*
X20497D01*
Y11403D01*
X20091D01*
X20091Y11403D01*
X20048Y11394D01*
X20011Y11370D01*
X20011Y11370D01*
X19704Y11062D01*
X19428D01*
Y11148D01*
X18816D01*
Y10752D01*
X19428D01*
Y10838D01*
X19750D01*
X19750Y10838D01*
X19793Y10846D01*
X19829Y10871D01*
X20137Y11179D01*
X20497D01*
Y10968D01*
X20457D01*
Y10401D01*
X20638D01*
Y10285D01*
X20646Y10242D01*
X20671Y10205D01*
X20707Y10181D01*
X20750Y10172D01*
X20793Y10181D01*
X20829Y10205D01*
X20854Y10242D01*
X20862Y10285D01*
Y10401D01*
X21043D01*
Y10968D01*
X21003D01*
Y11534D01*
X20862D01*
Y11854D01*
X21788Y12779D01*
X21838Y12759D01*
Y10596D01*
X21154Y9912D01*
X19541D01*
X19541Y9912D01*
X19498Y9904D01*
X19462Y9879D01*
X19462Y9879D01*
X19271Y9688D01*
X19246Y9652D01*
X19238Y9609D01*
X19238Y9609D01*
Y9420D01*
X18916D01*
Y9396D01*
X18519D01*
X18517Y9398D01*
X18236D01*
Y9566D01*
X18241Y9573D01*
X18250Y9616D01*
X18250Y9616D01*
Y10378D01*
X18444D01*
Y10774D01*
X18352D01*
Y11126D01*
X18444D01*
Y11522D01*
X18352D01*
Y12191D01*
X19051Y12891D01*
X19098Y12960D01*
X19114Y13042D01*
Y13297D01*
X19143D01*
Y13336D01*
X19200D01*
X19282Y13352D01*
X19351Y13399D01*
X19551Y13599D01*
X19598Y13668D01*
X19614Y13750D01*
Y14145D01*
X19612Y14157D01*
X19645Y14194D01*
X20452D01*
X20468Y14168D01*
D02*
G37*
G36*
X5150Y9744D02*
X5636D01*
X5657Y9703D01*
Y9505D01*
X5542D01*
X5542Y9505D01*
X5499Y9497D01*
X5463Y9472D01*
X5463Y9472D01*
X5314Y9323D01*
X5289Y9287D01*
X5281Y9244D01*
X5281Y9244D01*
Y9136D01*
X4108D01*
Y9301D01*
X4108Y9301D01*
X4100Y9340D01*
X4100Y9344D01*
X4100Y9344D01*
X4075Y9380D01*
X4200Y9505D01*
Y9744D01*
X5150D01*
Y9744D01*
D02*
G37*
G36*
X33626Y8458D02*
Y8101D01*
X34612D01*
Y8144D01*
X35948D01*
Y7994D01*
X36481D01*
Y7894D01*
X35948D01*
Y7648D01*
X36369D01*
Y7544D01*
X36377Y7502D01*
X36402Y7465D01*
X36438Y7441D01*
X36481Y7432D01*
X36524Y7441D01*
X36560Y7465D01*
X36585Y7502D01*
X36593Y7544D01*
Y7648D01*
X37014D01*
Y7836D01*
X37037Y7841D01*
X37074Y7865D01*
X37488Y8279D01*
X37507Y8277D01*
X37540Y8261D01*
X37546Y8231D01*
X37571Y8195D01*
X37607Y8170D01*
X37650Y8162D01*
X37693Y8170D01*
X37729Y8195D01*
X37754Y8231D01*
X37762Y8274D01*
Y8317D01*
X38438D01*
Y8300D01*
X38446Y8257D01*
X38471Y8221D01*
X38507Y8196D01*
X38550Y8188D01*
X38593Y8196D01*
X38629Y8221D01*
X38654Y8257D01*
X38662Y8300D01*
Y8317D01*
X38836D01*
Y7186D01*
X37357D01*
Y6521D01*
X37347Y6511D01*
X37265Y6495D01*
X37195Y6448D01*
X37151Y6404D01*
X36764D01*
Y6800D01*
X36748Y6882D01*
X36701Y6951D01*
X36564Y7089D01*
X36494Y7136D01*
X36412Y7152D01*
X35801D01*
X35719Y7136D01*
X35711Y7130D01*
X34422Y7116D01*
Y6760D01*
Y6451D01*
X34372Y6431D01*
X34355Y6448D01*
X34285Y6495D01*
X34203Y6511D01*
X33253D01*
Y6620D01*
X33293D01*
Y7186D01*
X33179D01*
X33156Y7230D01*
X33160Y7237D01*
X33173Y7303D01*
X33160Y7369D01*
X33123Y7426D01*
X33066Y7463D01*
X33000Y7476D01*
X32934Y7463D01*
X32877Y7426D01*
X32840Y7369D01*
X32827Y7303D01*
X32840Y7237D01*
X32844Y7230D01*
X32821Y7186D01*
X32707D01*
Y7015D01*
X32343D01*
Y7186D01*
X32229D01*
X32206Y7230D01*
X32210Y7237D01*
X32223Y7303D01*
X32210Y7369D01*
X32173Y7426D01*
X32116Y7463D01*
X32050Y7476D01*
X31984Y7463D01*
X31927Y7426D01*
X31890Y7369D01*
X31877Y7303D01*
X31890Y7237D01*
X31894Y7230D01*
X31871Y7186D01*
X31757D01*
Y6620D01*
X31797D01*
Y6078D01*
X31382Y5848D01*
X31300Y5864D01*
X30991D01*
X30909Y5848D01*
X30839Y5801D01*
X30394Y5356D01*
X29646D01*
X29629Y5406D01*
X29687Y5451D01*
X29744Y5525D01*
X29780Y5611D01*
X29792Y5704D01*
X29780Y5797D01*
X29744Y5883D01*
X29687Y5957D01*
X29613Y6014D01*
X29526Y6050D01*
X29434Y6062D01*
X29341Y6050D01*
X29255Y6014D01*
X29214Y5983D01*
X29164Y6008D01*
Y6349D01*
X29789D01*
Y7059D01*
X29078D01*
Y6590D01*
X29032Y6571D01*
X28761Y6841D01*
X28744Y6883D01*
X28687Y6957D01*
X28613Y7014D01*
X28526Y7050D01*
X28434Y7062D01*
X28341Y7050D01*
X28255Y7014D01*
X28180Y6957D01*
X28147Y6914D01*
X27720D01*
X27687Y6957D01*
X27613Y7014D01*
X27526Y7050D01*
X27434Y7062D01*
X27341Y7050D01*
X27255Y7014D01*
X27180Y6957D01*
X27123Y6883D01*
X27088Y6797D01*
X27075Y6704D01*
X27088Y6611D01*
X27123Y6525D01*
X27180Y6451D01*
X27255Y6394D01*
X27341Y6358D01*
X27434Y6346D01*
X27526Y6358D01*
X27613Y6394D01*
X27687Y6451D01*
X27714Y6486D01*
X28153D01*
X28180Y6451D01*
X28255Y6394D01*
X28341Y6358D01*
X28434Y6346D01*
X28526Y6358D01*
X28606Y6391D01*
X28736Y6261D01*
Y6033D01*
X28686Y6009D01*
X28633Y6049D01*
X28537Y6089D01*
X28484Y6096D01*
Y5704D01*
Y5312D01*
X28537Y5319D01*
X28633Y5359D01*
X28686Y5399D01*
X28736Y5375D01*
Y5319D01*
X28752Y5237D01*
X28799Y5168D01*
X28954Y5012D01*
X28933Y4962D01*
X25246D01*
X24562Y5646D01*
Y6838D01*
X25312Y7588D01*
X26968D01*
X26983Y7538D01*
X26928Y7501D01*
X26483Y7056D01*
X26434Y7062D01*
X26341Y7050D01*
X26255Y7014D01*
X26180Y6957D01*
X26147Y6914D01*
X25720D01*
X25687Y6957D01*
X25613Y7014D01*
X25526Y7050D01*
X25434Y7062D01*
X25341Y7050D01*
X25255Y7014D01*
X25180Y6957D01*
X25123Y6883D01*
X25088Y6797D01*
X25075Y6704D01*
X25088Y6611D01*
X25123Y6525D01*
X25180Y6451D01*
X25255Y6394D01*
X25341Y6358D01*
X25434Y6346D01*
X25526Y6358D01*
X25613Y6394D01*
X25687Y6451D01*
X25714Y6486D01*
X26153D01*
X26180Y6451D01*
X26255Y6394D01*
X26341Y6358D01*
X26434Y6346D01*
X26526Y6358D01*
X26613Y6394D01*
X26687Y6451D01*
X26744Y6525D01*
X26780Y6611D01*
X26792Y6704D01*
X26786Y6753D01*
X27168Y7136D01*
X31300D01*
X31382Y7152D01*
X31451Y7199D01*
X32201Y7949D01*
X32248Y8018D01*
X32264Y8100D01*
Y8305D01*
X32303D01*
Y8334D01*
X32747D01*
Y8305D01*
X33253D01*
Y8334D01*
X33348D01*
X33430Y8350D01*
X33500Y8397D01*
X33580Y8477D01*
X33626Y8458D01*
D02*
G37*
G36*
X31550Y8397D02*
X31620Y8350D01*
X31702Y8334D01*
X31797D01*
Y8305D01*
X31836D01*
Y8189D01*
X31211Y7564D01*
X28315D01*
X28310Y7575D01*
Y7793D01*
X28676Y8158D01*
X28700Y8195D01*
X28709Y8237D01*
X28746Y8265D01*
X28879D01*
Y8250D01*
X28888Y8207D01*
X28912Y8171D01*
X28948Y8146D01*
X28991Y8138D01*
X29034Y8146D01*
X29070Y8171D01*
X29095Y8207D01*
X29103Y8250D01*
Y8265D01*
X29284D01*
Y8436D01*
X29653D01*
Y8265D01*
X29785D01*
X29833Y8261D01*
X29842Y8218D01*
X29866Y8182D01*
X29877Y8171D01*
X29914Y8146D01*
X29957Y8138D01*
X30000Y8146D01*
X30036Y8171D01*
X30060Y8207D01*
X30069Y8250D01*
X30081Y8265D01*
X30238D01*
Y8631D01*
X30250Y8676D01*
X30293Y8695D01*
X30594D01*
X30647Y8643D01*
Y8305D01*
X31153D01*
Y8724D01*
X31203Y8744D01*
X31550Y8397D01*
D02*
G37*
G36*
X27744Y8872D02*
X27784D01*
Y8454D01*
X27592Y8262D01*
X27352D01*
X27335Y8305D01*
X27335D01*
Y8872D01*
X27375D01*
Y9042D01*
X27744D01*
Y8872D01*
D02*
G37*
G36*
X13817Y7776D02*
X13857D01*
Y7210D01*
X13489D01*
Y7776D01*
X13529D01*
Y7947D01*
X13817D01*
Y7776D01*
D02*
G37*
G36*
X33068Y5756D02*
X33052Y5732D01*
X33036Y5650D01*
X33052Y5568D01*
X33099Y5499D01*
X33168Y5452D01*
X33250Y5436D01*
X37903D01*
X37985Y5452D01*
X38055Y5499D01*
X38290Y5734D01*
X38336Y5715D01*
Y4529D01*
X38297D01*
Y4500D01*
X37903D01*
Y4529D01*
X37397D01*
Y4500D01*
X37189D01*
X36974Y4715D01*
Y5162D01*
X35988D01*
Y4781D01*
X35966Y4772D01*
X34450D01*
X34450Y4772D01*
X34448Y4749D01*
X33626D01*
Y4450D01*
X33619Y4443D01*
X33253D01*
Y4446D01*
X32747D01*
Y4443D01*
X32303D01*
Y4446D01*
X31797D01*
Y4443D01*
X31364D01*
Y4811D01*
X32201Y5649D01*
X32248Y5718D01*
X32264Y5800D01*
X33045D01*
X33068Y5756D01*
D02*
G37*
G36*
X39206Y6644D02*
X39250Y6628D01*
Y4271D01*
X39204Y4252D01*
X39018Y4438D01*
X38949Y4484D01*
X38867Y4500D01*
X38803D01*
Y4529D01*
X38764D01*
Y6054D01*
X38803D01*
Y6247D01*
X39200Y6644D01*
X39206Y6644D01*
D02*
G37*
G36*
X13857Y4448D02*
Y3962D01*
X13907D01*
Y3882D01*
X13817D01*
Y3709D01*
X13552D01*
Y3880D01*
X13512D01*
Y4446D01*
X13533Y4488D01*
X13832D01*
X13857Y4448D01*
D02*
G37*
G36*
X30510Y4900D02*
X30936D01*
Y4164D01*
X30927Y4118D01*
X30818D01*
X30805Y4105D01*
X30095D01*
Y3395D01*
Y3264D01*
X27335D01*
Y3319D01*
X27385Y3360D01*
X27400Y3358D01*
Y3750D01*
X27450D01*
Y3800D01*
X27842D01*
X27835Y3853D01*
X27795Y3949D01*
X27732Y4032D01*
X27649Y4095D01*
X27553Y4135D01*
X27450Y4149D01*
X27423Y4145D01*
X27380Y4184D01*
Y4476D01*
X27426Y4488D01*
X27954D01*
X28310Y4131D01*
X28299Y4072D01*
X28271Y4060D01*
X28197Y4003D01*
X28140Y3929D01*
X28104Y3843D01*
X28092Y3750D01*
X28104Y3657D01*
X28140Y3571D01*
X28197Y3497D01*
X28271Y3440D01*
X28357Y3404D01*
X28450Y3392D01*
X28543Y3404D01*
X28629Y3440D01*
X28703Y3497D01*
X28760Y3571D01*
X28796Y3657D01*
X28808Y3750D01*
X28796Y3843D01*
X28760Y3929D01*
X28703Y4003D01*
X28629Y4060D01*
X28562Y4088D01*
Y4150D01*
X28562Y4150D01*
X28554Y4193D01*
X28529Y4229D01*
X28529Y4229D01*
X28079Y4679D01*
X28067Y4688D01*
X28082Y4738D01*
X28954D01*
X29338Y4354D01*
Y4088D01*
X29271Y4060D01*
X29197Y4003D01*
X29140Y3929D01*
X29104Y3843D01*
X29092Y3750D01*
X29104Y3657D01*
X29140Y3571D01*
X29197Y3497D01*
X29271Y3440D01*
X29357Y3404D01*
X29450Y3392D01*
X29543Y3404D01*
X29629Y3440D01*
X29703Y3497D01*
X29760Y3571D01*
X29796Y3657D01*
X29808Y3750D01*
X29796Y3843D01*
X29760Y3929D01*
X29703Y4003D01*
X29629Y4060D01*
X29562Y4088D01*
Y4400D01*
X29562Y4400D01*
X29554Y4443D01*
X29529Y4479D01*
X29529Y4479D01*
X29131Y4878D01*
X29152Y4928D01*
X30482D01*
X30510Y4900D01*
D02*
G37*
G36*
X26272Y4061D02*
X26271Y4060D01*
X26197Y4003D01*
X26140Y3929D01*
X26104Y3843D01*
X26092Y3750D01*
X26104Y3657D01*
X26140Y3571D01*
X26197Y3497D01*
X26236Y3466D01*
Y2864D01*
X24088D01*
X24067Y2914D01*
X24477Y3324D01*
X24523Y3393D01*
X24539Y3475D01*
Y3887D01*
X24764Y4111D01*
X25262D01*
X25272Y4061D01*
X25271Y4060D01*
X25197Y4003D01*
X25140Y3929D01*
X25104Y3843D01*
X25092Y3750D01*
X25104Y3657D01*
X25140Y3571D01*
X25197Y3497D01*
X25271Y3440D01*
X25357Y3404D01*
X25450Y3392D01*
X25543Y3404D01*
X25629Y3440D01*
X25703Y3497D01*
X25760Y3571D01*
X25796Y3657D01*
X25808Y3750D01*
X25796Y3843D01*
X25760Y3929D01*
X25703Y4003D01*
X25629Y4060D01*
X25628Y4061D01*
X25638Y4111D01*
X26262D01*
X26272Y4061D01*
D02*
G37*
G36*
X24984Y8071D02*
X24984Y8071D01*
X25020Y8046D01*
X25063Y8038D01*
X25063Y8038D01*
X25068D01*
X25083Y7988D01*
X25071Y7979D01*
X25071Y7979D01*
X24171Y7079D01*
X24146Y7043D01*
X24138Y7000D01*
X24138Y7000D01*
Y5450D01*
X24138Y5450D01*
X24146Y5407D01*
X24171Y5371D01*
X24593Y4948D01*
Y4523D01*
X24524Y4476D01*
X24174Y4127D01*
X24127Y4057D01*
X24111Y3975D01*
Y3564D01*
X23811Y3264D01*
X19548D01*
X19500Y3313D01*
X19516Y3360D01*
X19553Y3365D01*
X19649Y3405D01*
X19732Y3468D01*
X19795Y3551D01*
X19835Y3647D01*
X19842Y3700D01*
X19450D01*
Y3750D01*
X19400D01*
Y4142D01*
X19347Y4135D01*
X19264Y4101D01*
X19214Y4124D01*
Y6824D01*
X19198Y6906D01*
X19151Y6975D01*
X18985Y7142D01*
X19004Y7188D01*
X20270D01*
X20277Y7177D01*
X20334Y7140D01*
X20400Y7127D01*
X20466Y7140D01*
X20523Y7177D01*
X20560Y7234D01*
X20573Y7300D01*
X20560Y7366D01*
X20523Y7423D01*
X20466Y7460D01*
X20400Y7473D01*
X20334Y7460D01*
X20277Y7423D01*
X20270Y7412D01*
X18946D01*
X18552Y7806D01*
X18517Y7842D01*
Y8225D01*
X18647Y8355D01*
X21329D01*
X21357Y8326D01*
Y8326D01*
X21565D01*
X21607Y8297D01*
Y8264D01*
X22138D01*
X22159Y8214D01*
X20371Y6425D01*
X20346Y6389D01*
X20338Y6346D01*
X20338Y6346D01*
Y4088D01*
X20271Y4060D01*
X20197Y4003D01*
X20140Y3929D01*
X20104Y3843D01*
X20092Y3750D01*
X20104Y3657D01*
X20140Y3571D01*
X20197Y3497D01*
X20271Y3440D01*
X20357Y3404D01*
X20450Y3392D01*
X20543Y3404D01*
X20629Y3440D01*
X20703Y3497D01*
X20760Y3571D01*
X20796Y3657D01*
X20808Y3750D01*
X20796Y3843D01*
X20760Y3929D01*
X20703Y4003D01*
X20629Y4060D01*
X20562Y4088D01*
Y5658D01*
X20830D01*
X20838Y5615D01*
X20863Y5579D01*
X21338Y5104D01*
Y4088D01*
X21271Y4060D01*
X21197Y4003D01*
X21140Y3929D01*
X21104Y3843D01*
X21092Y3750D01*
X21104Y3657D01*
X21140Y3571D01*
X21197Y3497D01*
X21271Y3440D01*
X21357Y3404D01*
X21450Y3392D01*
X21543Y3404D01*
X21629Y3440D01*
X21703Y3497D01*
X21760Y3571D01*
X21796Y3657D01*
X21808Y3750D01*
X21796Y3843D01*
X21760Y3929D01*
X21703Y4003D01*
X21629Y4060D01*
X21562Y4088D01*
Y5104D01*
X21788D01*
X22338Y4554D01*
Y4088D01*
X22271Y4060D01*
X22197Y4003D01*
X22140Y3929D01*
X22104Y3843D01*
X22092Y3750D01*
X22104Y3657D01*
X22140Y3571D01*
X22197Y3497D01*
X22271Y3440D01*
X22357Y3404D01*
X22450Y3392D01*
X22543Y3404D01*
X22629Y3440D01*
X22703Y3497D01*
X22760Y3571D01*
X22796Y3657D01*
X22808Y3750D01*
X22796Y3843D01*
X22760Y3929D01*
X22703Y4003D01*
X22629Y4060D01*
X22562Y4088D01*
Y4590D01*
X22584Y4631D01*
Y4631D01*
X22640Y4688D01*
X22854D01*
X23338Y4204D01*
Y4088D01*
X23271Y4060D01*
X23197Y4003D01*
X23140Y3929D01*
X23104Y3843D01*
X23092Y3750D01*
X23104Y3657D01*
X23140Y3571D01*
X23197Y3497D01*
X23271Y3440D01*
X23357Y3404D01*
X23450Y3392D01*
X23543Y3404D01*
X23629Y3440D01*
X23703Y3497D01*
X23760Y3571D01*
X23796Y3657D01*
X23808Y3750D01*
X23796Y3843D01*
X23760Y3929D01*
X23703Y4003D01*
X23629Y4060D01*
X23562Y4088D01*
Y4250D01*
X23554Y4293D01*
X23529Y4329D01*
X23529Y4329D01*
X21762Y6096D01*
Y6644D01*
X23084Y7966D01*
X23084Y7966D01*
X23108Y8002D01*
X23110Y8011D01*
X23111Y8012D01*
X23119Y8055D01*
X23119Y8055D01*
Y8300D01*
X24047D01*
X24102Y8355D01*
X24699D01*
X24984Y8071D01*
D02*
G37*
%LPC*%
G36*
X38169Y31970D02*
X38003Y31954D01*
X37843Y31906D01*
X37696Y31827D01*
X37567Y31721D01*
X37461Y31592D01*
X37382Y31445D01*
X37334Y31285D01*
X37317Y31119D01*
X37334Y30953D01*
X37382Y30793D01*
X37461Y30646D01*
X37567Y30517D01*
X37696Y30411D01*
X37843Y30332D01*
X38003Y30284D01*
X38169Y30267D01*
X38335Y30284D01*
X38495Y30332D01*
X38642Y30411D01*
X38771Y30517D01*
X38877Y30646D01*
X38956Y30793D01*
X39004Y30953D01*
X39020Y31119D01*
X39004Y31285D01*
X38956Y31445D01*
X38877Y31592D01*
X38771Y31721D01*
X38642Y31827D01*
X38495Y31906D01*
X38335Y31954D01*
X38169Y31970D01*
D02*
G37*
G36*
X1181Y31920D02*
X1015Y31904D01*
X855Y31856D01*
X708Y31777D01*
X579Y31671D01*
X473Y31542D01*
X394Y31395D01*
X346Y31235D01*
X330Y31069D01*
X346Y30903D01*
X394Y30743D01*
X473Y30596D01*
X579Y30467D01*
X708Y30361D01*
X855Y30282D01*
X1015Y30234D01*
X1181Y30217D01*
X1347Y30234D01*
X1507Y30282D01*
X1654Y30361D01*
X1783Y30467D01*
X1889Y30596D01*
X1968Y30743D01*
X2016Y30903D01*
X2033Y31069D01*
X2016Y31235D01*
X1968Y31395D01*
X1889Y31542D01*
X1783Y31671D01*
X1654Y31777D01*
X1507Y31856D01*
X1347Y31904D01*
X1181Y31920D01*
D02*
G37*
G36*
X37650Y29712D02*
X37607Y29704D01*
X37571Y29679D01*
X37546Y29643D01*
X37538Y29600D01*
Y29381D01*
X37451Y29345D01*
X37368Y29282D01*
X37305Y29199D01*
X37265Y29103D01*
X37258Y29050D01*
X37650D01*
X38042D01*
X38035Y29103D01*
X37995Y29199D01*
X37932Y29282D01*
X37849Y29345D01*
X37762Y29381D01*
Y29600D01*
X37754Y29643D01*
X37729Y29679D01*
X37693Y29704D01*
X37650Y29712D01*
D02*
G37*
G36*
X38831Y29358D02*
X38738Y29346D01*
X38652Y29310D01*
X38578Y29253D01*
X38521Y29179D01*
X38485Y29093D01*
X38473Y29000D01*
X38485Y28907D01*
X38521Y28821D01*
X38578Y28747D01*
X38652Y28690D01*
X38738Y28654D01*
X38831Y28642D01*
X38924Y28654D01*
X39010Y28690D01*
X39084Y28747D01*
X39141Y28821D01*
X39177Y28907D01*
X39189Y29000D01*
X39177Y29093D01*
X39141Y29179D01*
X39084Y29253D01*
X39010Y29310D01*
X38924Y29346D01*
X38831Y29358D01*
D02*
G37*
G36*
X38042Y28950D02*
X37700D01*
Y28608D01*
X37753Y28615D01*
X37849Y28655D01*
X37932Y28718D01*
X37995Y28801D01*
X38035Y28897D01*
X38042Y28950D01*
D02*
G37*
G36*
X37600D02*
X37258D01*
X37265Y28897D01*
X37305Y28801D01*
X37368Y28718D01*
X37451Y28655D01*
X37547Y28615D01*
X37600Y28608D01*
Y28950D01*
D02*
G37*
G36*
X20753Y28651D02*
X20247D01*
Y28164D01*
Y27558D01*
X20388D01*
Y27396D01*
X19371Y26379D01*
X19346Y26343D01*
X19338Y26300D01*
X19338Y26300D01*
Y23730D01*
X19327Y23723D01*
X19290Y23666D01*
X19277Y23600D01*
X19290Y23534D01*
X19327Y23477D01*
X19384Y23440D01*
X19450Y23427D01*
X19516Y23440D01*
X19573Y23477D01*
X19610Y23534D01*
X19623Y23600D01*
X19610Y23666D01*
X19573Y23723D01*
X19562Y23730D01*
Y26254D01*
X20579Y27271D01*
X20579Y27271D01*
X20604Y27307D01*
X20612Y27350D01*
Y27558D01*
X20753D01*
Y28164D01*
Y28295D01*
X21135D01*
X21160Y28271D01*
Y27925D01*
X21772D01*
Y28321D01*
X21427D01*
X21261Y28487D01*
X21224Y28511D01*
X21181Y28520D01*
X21181Y28520D01*
X20753D01*
Y28651D01*
D02*
G37*
G36*
X38831Y26996D02*
X38738Y26984D01*
X38652Y26948D01*
X38578Y26891D01*
X38521Y26817D01*
X38485Y26731D01*
X38473Y26638D01*
X38485Y26545D01*
X38521Y26459D01*
X38578Y26384D01*
X38652Y26327D01*
X38738Y26292D01*
X38831Y26279D01*
X38924Y26292D01*
X39010Y26327D01*
X39084Y26384D01*
X39141Y26459D01*
X39177Y26545D01*
X39189Y26638D01*
X39177Y26731D01*
X39141Y26817D01*
X39084Y26891D01*
X39010Y26948D01*
X38924Y26984D01*
X38831Y26996D01*
D02*
G37*
G36*
X38601Y26209D02*
X37733D01*
Y25380D01*
X37792D01*
Y25095D01*
X38502D01*
Y25380D01*
X38601D01*
Y26209D01*
D02*
G37*
G36*
X37300Y25149D02*
X37239Y25137D01*
X37186Y25102D01*
X37151Y25049D01*
X37139Y24987D01*
X37148Y24941D01*
X37134Y24916D01*
Y24762D01*
X37489D01*
Y24891D01*
X37482D01*
X37453Y24941D01*
X37462Y24987D01*
X37450Y25049D01*
X37415Y25102D01*
X37362Y25137D01*
X37300Y25149D01*
D02*
G37*
G36*
X38502Y23305D02*
X37792D01*
Y23020D01*
X37733D01*
Y22191D01*
X38601D01*
Y23020D01*
X38502D01*
Y23305D01*
D02*
G37*
G36*
X38043Y20613D02*
X37800D01*
Y20380D01*
X38043D01*
Y20613D01*
D02*
G37*
G36*
Y20280D02*
X37800D01*
Y20047D01*
X38043D01*
Y20280D01*
D02*
G37*
G36*
X37700Y20613D02*
X37457D01*
Y20442D01*
X37350D01*
X37307Y20434D01*
X37271Y20409D01*
X37246Y20373D01*
X37238Y20330D01*
X37246Y20287D01*
X37271Y20251D01*
X37307Y20227D01*
X37350Y20218D01*
X37457D01*
Y20047D01*
X37700D01*
Y20330D01*
Y20613D01*
D02*
G37*
G36*
X30286Y19161D02*
X30053D01*
Y18918D01*
X30286D01*
Y19161D01*
D02*
G37*
G36*
X29953D02*
X29720D01*
Y18918D01*
X29953D01*
Y19161D01*
D02*
G37*
G36*
X30286Y18818D02*
X30003D01*
X29720D01*
Y18575D01*
X29893D01*
X29900Y18541D01*
X29924Y18504D01*
X29960Y18480D01*
X30003Y18472D01*
X30046Y18480D01*
X30082Y18504D01*
X30107Y18541D01*
X30114Y18575D01*
X30286D01*
Y18818D01*
D02*
G37*
G36*
X37200Y18047D02*
Y17700D01*
X37547D01*
X37540Y17754D01*
X37499Y17852D01*
X37435Y17935D01*
X37352Y17999D01*
X37254Y18040D01*
X37200Y18047D01*
D02*
G37*
G36*
X37547Y17600D02*
X37200D01*
Y17253D01*
X37254Y17260D01*
X37352Y17301D01*
X37435Y17365D01*
X37499Y17448D01*
X37540Y17546D01*
X37547Y17600D01*
D02*
G37*
G36*
X37100Y18047D02*
X37046Y18040D01*
X36948Y17999D01*
X36865Y17935D01*
X36801Y17852D01*
X36764Y17762D01*
X36750D01*
X36707Y17754D01*
X36671Y17729D01*
X36646Y17693D01*
X36638Y17650D01*
X36646Y17607D01*
X36671Y17571D01*
X36707Y17546D01*
X36750Y17538D01*
X36764D01*
X36801Y17448D01*
X36865Y17365D01*
X36948Y17301D01*
X37046Y17260D01*
X37100Y17253D01*
Y17650D01*
Y18047D01*
D02*
G37*
G36*
X37200Y15047D02*
Y14700D01*
X37547D01*
X37540Y14754D01*
X37499Y14852D01*
X37435Y14935D01*
X37352Y14999D01*
X37254Y15040D01*
X37200Y15047D01*
D02*
G37*
G36*
X37547Y14600D02*
X37200D01*
Y14253D01*
X37254Y14260D01*
X37352Y14301D01*
X37435Y14365D01*
X37499Y14448D01*
X37540Y14546D01*
X37547Y14600D01*
D02*
G37*
G36*
X37100Y15047D02*
X37046Y15040D01*
X36948Y14999D01*
X36865Y14935D01*
X36801Y14852D01*
X36764Y14762D01*
X36750D01*
X36707Y14754D01*
X36671Y14729D01*
X36646Y14693D01*
X36638Y14650D01*
X36646Y14607D01*
X36671Y14571D01*
X36707Y14546D01*
X36750Y14538D01*
X36764D01*
X36801Y14448D01*
X36865Y14365D01*
X36948Y14301D01*
X37046Y14260D01*
X37100Y14253D01*
Y14650D01*
Y15047D01*
D02*
G37*
G36*
X37150Y14013D02*
X37056Y14001D01*
X36968Y13964D01*
X36893Y13907D01*
X36836Y13832D01*
X36799Y13744D01*
X36787Y13650D01*
X36799Y13556D01*
X36836Y13468D01*
X36893Y13393D01*
X36968Y13336D01*
X37056Y13299D01*
X37150Y13287D01*
X37244Y13299D01*
X37332Y13336D01*
X37407Y13393D01*
X37464Y13468D01*
X37501Y13556D01*
X37513Y13650D01*
X37501Y13744D01*
X37464Y13832D01*
X37407Y13907D01*
X37332Y13964D01*
X37244Y14001D01*
X37150Y14013D01*
D02*
G37*
G36*
X38150Y11293D02*
X37917D01*
Y11050D01*
X38150D01*
Y11293D01*
D02*
G37*
G36*
X36050Y11386D02*
X35772D01*
Y11047D01*
X36050D01*
Y11386D01*
D02*
G37*
G36*
X2751Y11229D02*
X2406D01*
Y10883D01*
X2751D01*
Y11229D01*
D02*
G37*
G36*
X1406Y11225D02*
Y10883D01*
X1748D01*
X1741Y10937D01*
X1701Y11033D01*
X1637Y11115D01*
X1555Y11179D01*
X1459Y11218D01*
X1406Y11225D01*
D02*
G37*
G36*
X1306D02*
X1252Y11218D01*
X1156Y11179D01*
X1074Y11115D01*
X1010Y11033D01*
X970Y10937D01*
X963Y10883D01*
X1306D01*
Y11225D01*
D02*
G37*
G36*
X2306Y11229D02*
X1960D01*
Y10883D01*
X2306D01*
Y11229D01*
D02*
G37*
G36*
X38483Y11293D02*
X38250D01*
Y11000D01*
Y10707D01*
X38483D01*
Y10888D01*
X38600D01*
X38643Y10896D01*
X38679Y10921D01*
X38704Y10957D01*
X38712Y11000D01*
X38704Y11043D01*
X38679Y11079D01*
X38643Y11104D01*
X38600Y11112D01*
X38483D01*
Y11293D01*
D02*
G37*
G36*
X38150Y10950D02*
X37917D01*
Y10707D01*
X38150D01*
Y10950D01*
D02*
G37*
G36*
X36428Y11386D02*
X36150D01*
Y10997D01*
Y10607D01*
X36428D01*
Y10885D01*
X36500D01*
X36543Y10893D01*
X36579Y10918D01*
X36604Y10954D01*
X36612Y10997D01*
X36604Y11040D01*
X36579Y11076D01*
X36543Y11100D01*
X36500Y11109D01*
X36428D01*
Y11386D01*
D02*
G37*
G36*
X36050Y10947D02*
X35772D01*
Y10607D01*
X36050D01*
Y10947D01*
D02*
G37*
G36*
X1748Y10783D02*
X1406D01*
Y10441D01*
X1459Y10448D01*
X1555Y10488D01*
X1637Y10551D01*
X1701Y10634D01*
X1741Y10730D01*
X1748Y10783D01*
D02*
G37*
G36*
X1306D02*
X963D01*
X970Y10730D01*
X1010Y10634D01*
X1074Y10551D01*
X1156Y10488D01*
X1252Y10448D01*
X1306Y10441D01*
Y10783D01*
D02*
G37*
G36*
X2751D02*
X2406D01*
Y10438D01*
X2751D01*
Y10783D01*
D02*
G37*
G36*
X2306D02*
X1960D01*
Y10438D01*
X2306D01*
Y10783D01*
D02*
G37*
G36*
X15300Y13473D02*
X15234Y13460D01*
X15177Y13423D01*
X15140Y13366D01*
X15127Y13300D01*
X15140Y13234D01*
X15177Y13177D01*
X15188Y13170D01*
Y10904D01*
X14876D01*
Y9760D01*
X15705D01*
Y10904D01*
X15412D01*
Y13170D01*
X15423Y13177D01*
X15460Y13234D01*
X15473Y13300D01*
X15460Y13366D01*
X15423Y13423D01*
X15366Y13460D01*
X15300Y13473D01*
D02*
G37*
G36*
X16600Y7736D02*
X16357D01*
Y7503D01*
X16600D01*
Y7736D01*
D02*
G37*
G36*
X10409Y4661D02*
X10343Y4647D01*
X10287Y4610D01*
X10249Y4554D01*
X10236Y4487D01*
X10235Y4486D01*
X10117D01*
Y3920D01*
X10702D01*
Y4486D01*
X10584D01*
X10583Y4487D01*
X10570Y4554D01*
X10532Y4610D01*
X10476Y4647D01*
X10409Y4661D01*
D02*
G37*
G36*
X1181Y2033D02*
X1015Y2016D01*
X855Y1968D01*
X708Y1889D01*
X579Y1783D01*
X473Y1654D01*
X394Y1507D01*
X346Y1347D01*
X330Y1181D01*
X346Y1015D01*
X394Y855D01*
X473Y708D01*
X579Y579D01*
X708Y473D01*
X855Y394D01*
X1015Y346D01*
X1181Y330D01*
X1347Y346D01*
X1507Y394D01*
X1654Y473D01*
X1783Y579D01*
X1889Y708D01*
X1968Y855D01*
X2016Y1015D01*
X2033Y1181D01*
X2016Y1347D01*
X1968Y1507D01*
X1889Y1654D01*
X1783Y1783D01*
X1654Y1889D01*
X1507Y1968D01*
X1347Y2016D01*
X1181Y2033D01*
D02*
G37*
G36*
X13396Y11855D02*
X13329Y11842D01*
X13273Y11804D01*
X13235Y11748D01*
X13222Y11682D01*
X13235Y11615D01*
X13273Y11559D01*
X13329Y11522D01*
X13396Y11508D01*
X13462Y11522D01*
X13518Y11559D01*
X13556Y11615D01*
X13569Y11682D01*
X13556Y11748D01*
X13518Y11804D01*
X13462Y11842D01*
X13396Y11855D01*
D02*
G37*
G36*
X11490Y13104D02*
X11004D01*
Y13066D01*
X10771D01*
X10689Y13049D01*
X10620Y13003D01*
X10617Y13000D01*
X10570Y12930D01*
X10554Y12848D01*
X10570Y12766D01*
X10617Y12697D01*
X10686Y12650D01*
X10768Y12634D01*
X10784Y12637D01*
X11004D01*
Y12599D01*
X11030D01*
Y12257D01*
X11001D01*
Y11752D01*
X11030D01*
Y11474D01*
X11046Y11392D01*
X11092Y11322D01*
X11162Y11276D01*
X11244Y11259D01*
X11326Y11276D01*
X11395Y11322D01*
X11442Y11392D01*
X11458Y11474D01*
Y11752D01*
X11487D01*
Y12257D01*
X11458D01*
Y12599D01*
X11490D01*
Y13104D01*
D02*
G37*
G36*
X28384Y6096D02*
X28331Y6089D01*
X28234Y6049D01*
X28152Y5986D01*
X28088Y5903D01*
X28051Y5814D01*
X27816Y5815D01*
X27779Y5903D01*
X27716Y5986D01*
X27633Y6049D01*
X27537Y6089D01*
X27484Y6096D01*
Y5704D01*
Y5312D01*
X27537Y5319D01*
X27633Y5359D01*
X27716Y5422D01*
X27779Y5505D01*
X27815Y5591D01*
X28053Y5590D01*
X28088Y5505D01*
X28152Y5422D01*
X28234Y5359D01*
X28331Y5319D01*
X28384Y5312D01*
Y5704D01*
Y6096D01*
D02*
G37*
G36*
X27384D02*
X27331Y6089D01*
X27234Y6049D01*
X27152Y5986D01*
X27088Y5903D01*
X27052Y5814D01*
X26816Y5813D01*
X26779Y5903D01*
X26716Y5986D01*
X26633Y6049D01*
X26537Y6089D01*
X26484Y6096D01*
Y5704D01*
Y5312D01*
X26537Y5319D01*
X26633Y5359D01*
X26716Y5422D01*
X26779Y5505D01*
X26814Y5589D01*
X27053Y5590D01*
X27088Y5505D01*
X27152Y5422D01*
X27234Y5359D01*
X27331Y5319D01*
X27384Y5312D01*
Y5704D01*
Y6096D01*
D02*
G37*
G36*
X26384D02*
X26331Y6089D01*
X26234Y6049D01*
X26152Y5986D01*
X26088Y5903D01*
X26051Y5812D01*
X25817D01*
X25779Y5903D01*
X25716Y5986D01*
X25633Y6049D01*
X25537Y6089D01*
X25484Y6096D01*
Y5704D01*
Y5312D01*
X25537Y5319D01*
X25633Y5359D01*
X25716Y5422D01*
X25779Y5505D01*
X25813Y5588D01*
X26054D01*
X26088Y5505D01*
X26152Y5422D01*
X26234Y5359D01*
X26331Y5319D01*
X26384Y5312D01*
Y5704D01*
Y6096D01*
D02*
G37*
G36*
X25384D02*
X25331Y6089D01*
X25234Y6049D01*
X25152Y5986D01*
X25088Y5903D01*
X25049Y5807D01*
X25042Y5754D01*
X25384D01*
Y6096D01*
D02*
G37*
G36*
Y5654D02*
X25042D01*
X25049Y5601D01*
X25088Y5505D01*
X25152Y5422D01*
X25234Y5359D01*
X25331Y5319D01*
X25384Y5312D01*
Y5654D01*
D02*
G37*
G36*
X27842Y3700D02*
X27500D01*
Y3358D01*
X27553Y3365D01*
X27649Y3405D01*
X27732Y3468D01*
X27795Y3551D01*
X27835Y3647D01*
X27842Y3700D01*
D02*
G37*
G36*
X19500Y4142D02*
Y3800D01*
X19842D01*
X19835Y3853D01*
X19795Y3949D01*
X19732Y4032D01*
X19649Y4095D01*
X19553Y4135D01*
X19500Y4142D01*
D02*
G37*
%LPD*%
D15*
X37650Y6903D02*
X38550D01*
X32525D02*
X33000D01*
X32050D02*
X32525D01*
X26745Y13156D02*
X26828Y13073D01*
X26745Y13156D02*
Y13631D01*
X12368Y6375D02*
X12393Y6350D01*
X12775D01*
X12964Y6161D01*
X13272D01*
Y5256D02*
Y5555D01*
X13103Y5087D02*
X13272Y5256D01*
X11455Y5087D02*
X13103D01*
X11275Y5267D02*
X11455Y5087D01*
X11275Y5267D02*
Y5618D01*
X11266Y5627D02*
X11275Y5618D01*
X27557Y26093D02*
X28407D01*
X23166Y23500D02*
X23450D01*
X36994Y7944D02*
X37550Y8500D01*
X37065Y3094D02*
X37650Y3680D01*
X27434Y5704D02*
X28434Y5701D01*
X25434Y5700D02*
X26600D01*
X8247Y12553D02*
X8547Y12853D01*
X5999Y18867D02*
X6283D01*
X10409Y6161D02*
X10624Y6375D01*
X26600Y5700D02*
X27434Y5704D01*
X28450Y3796D02*
Y4150D01*
X28000Y4600D02*
X28450Y4150D01*
X25100Y4600D02*
X28000D01*
X9200Y22350D02*
X10321Y23471D01*
X9200Y20791D02*
Y22350D01*
X10321Y23471D02*
Y23839D01*
X10177Y19558D02*
Y20096D01*
X17700Y15650D02*
X18236D01*
X16950D02*
X17700D01*
X12750Y8059D02*
X13237D01*
X12314D02*
X12750D01*
X16809Y4850D02*
Y5554D01*
Y4203D02*
Y4850D01*
X30003Y14350D02*
Y14635D01*
X30003Y15404D02*
Y15688D01*
X30003Y16467D02*
Y16751D01*
Y18584D02*
Y18868D01*
Y20700D02*
Y20985D01*
Y21975D02*
Y22260D01*
X30066Y23454D02*
X30350D01*
X29173Y24598D02*
X29457D01*
X25516Y23454D02*
X25600Y23538D01*
X23400Y23454D02*
X25516D01*
X20839Y23538D02*
X21750D01*
X25600D02*
X25884D01*
X21750D02*
Y23822D01*
X20839Y23538D02*
Y23822D01*
X18013Y18867D02*
X18297D01*
X18013Y16899D02*
X18297D01*
X18294Y13266D02*
Y13550D01*
X14402Y12856D02*
X14406Y12853D01*
X14402Y12856D02*
Y13733D01*
X14686D01*
X14406Y12853D02*
X14690D01*
X5999Y8883D02*
X6283D01*
X5999Y9997D02*
X6283D01*
X5999Y11111D02*
X6283D01*
X5999Y12225D02*
X6283D01*
X5999Y13338D02*
X6283D01*
X5999Y14452D02*
X6283D01*
X5999Y15566D02*
X6283D01*
X6000Y16650D02*
X6284D01*
X5999Y17794D02*
X6283D01*
X5999Y20021D02*
X6283D01*
X5999Y21135D02*
X6283D01*
X5999Y22249D02*
X6283D01*
X5999Y23362D02*
X6283D01*
X5999Y24476D02*
X6283D01*
X5999Y25590D02*
X6283D01*
X1500Y28150D02*
Y28434D01*
X1356Y21447D02*
Y21731D01*
X8263Y12853D02*
X8547D01*
X8247Y11300D02*
Y12553D01*
X8547Y12853D02*
Y13700D01*
X8263D02*
X8547D01*
X7963Y11300D02*
X8247D01*
X8803Y8750D02*
X9087D01*
X10409Y6161D02*
Y6445D01*
X10624Y6375D02*
X11266D01*
X9459Y6161D02*
X10409D01*
X7459Y5270D02*
Y5554D01*
X9459Y6161D02*
Y6445D01*
X14960Y3313D02*
Y3597D01*
X14110Y3313D02*
Y3597D01*
X13259Y3313D02*
Y3597D01*
X10982Y3886D02*
X11266D01*
X10409Y4203D02*
Y4487D01*
X14960Y5270D02*
Y5554D01*
X14110Y5270D02*
Y5554D01*
X11266Y6375D02*
Y6659D01*
X10262Y7169D02*
Y7453D01*
X13237Y8059D02*
X14110D01*
Y8344D01*
X15961Y7242D02*
Y7526D01*
X16650Y7169D02*
Y7453D01*
X18264Y9155D02*
X18436D01*
X18703Y8888D01*
X19350D01*
X18266Y8550D02*
X18550D01*
X18264Y8548D02*
X18266Y8550D01*
X21900Y8400D02*
Y8547D01*
X20450Y6346D02*
X22350Y8246D01*
X20942Y6555D02*
X22600Y8213D01*
X21300Y6630D02*
X22807Y8137D01*
X21650Y6691D02*
X23005Y8045D01*
Y8052D01*
X20750Y10285D02*
Y10685D01*
X29900Y10191D02*
Y10591D01*
X28950Y10191D02*
Y10591D01*
X33000Y6903D02*
Y7303D01*
X32050Y6903D02*
Y7303D01*
X33000Y3197D02*
Y3597D01*
X32050Y3197D02*
Y3597D01*
X36481Y2694D02*
Y3094D01*
Y7544D02*
Y7944D01*
X36100Y10997D02*
X36500D01*
X38200Y11000D02*
X38600D01*
X36750Y14650D02*
X37150D01*
X36750Y17650D02*
X37150D01*
X35450Y20936D02*
Y21336D01*
X37350Y20330D02*
X37750D01*
X36484Y24712D02*
X37084D01*
X34700Y26093D02*
X35300D01*
X37650Y29000D02*
Y29600D01*
X13622Y15713D02*
X16280D01*
X16344Y15132D02*
Y15650D01*
X15961Y7900D02*
X16121D01*
X16650Y8059D02*
X16791D01*
X18900Y7300D02*
X20400D01*
X17921Y8279D02*
X18900Y7300D01*
X24900Y13000D02*
X24973Y13073D01*
X21430Y21300D02*
Y21938D01*
X24776Y14130D02*
X24900Y14254D01*
X23450Y3750D02*
Y4250D01*
X21650Y6050D02*
X23450Y4250D01*
X21650Y6050D02*
Y6691D01*
X14272Y17097D02*
X14663Y17488D01*
X13622Y17097D02*
X14272D01*
X14663Y17488D02*
X15238D01*
X15300Y10342D02*
Y13300D01*
X15291Y10332D02*
X15300Y10342D01*
X11950Y13927D02*
Y14833D01*
X11949Y14833D02*
X11950Y14833D01*
X11801Y13450D02*
X12264D01*
X11556Y13696D02*
X11801Y13450D01*
X11556Y13696D02*
Y14747D01*
X11559Y14750D01*
X12264Y13450D02*
X12650Y13064D01*
X11559Y14750D02*
Y14833D01*
X11162Y14132D02*
Y14833D01*
X10350Y13320D02*
X11162Y14132D01*
X12650Y11832D02*
Y13064D01*
X12853Y10619D02*
Y13437D01*
X12343Y13947D02*
X12853Y13437D01*
X1684Y27705D02*
X1980Y28000D01*
X12538D01*
X1355Y27705D02*
X1684D01*
X1000Y27350D02*
X1355Y27705D01*
X12538Y28000D02*
X18638Y21900D01*
X20500Y27350D02*
Y27801D01*
X19450Y26300D02*
X20500Y27350D01*
X22461Y26689D02*
X22972D01*
X22142Y28497D02*
X22450D01*
X22050Y28405D02*
X22142Y28497D01*
X22050Y27100D02*
Y28405D01*
Y27100D02*
X22461Y26689D01*
X13622Y16900D02*
X14950D01*
X15200Y17150D01*
X13622Y18475D02*
X15238Y18472D01*
X15155Y17688D02*
X16017Y18550D01*
X15238Y17488D02*
X16100Y18350D01*
X17328D01*
X16017Y18550D02*
X17578D01*
X17328Y18350D02*
X17650Y18028D01*
X17578Y18550D02*
X18628Y17500D01*
X17650Y16675D02*
Y18028D01*
X17050Y19561D02*
X17931Y20442D01*
X20131D01*
X26040Y20242D02*
X27092D01*
X23697Y17899D02*
X26040Y20242D01*
X27095Y20245D02*
X28438D01*
X27092Y20242D02*
X27095D01*
X27092D02*
X27095Y20245D01*
X23697Y17150D02*
Y17899D01*
X26742Y20442D02*
X28438D01*
X26739Y20439D02*
X26742D01*
X26225D02*
X26739D01*
X26742Y20442D01*
X26222Y20436D02*
X26225Y20439D01*
X25894Y20436D02*
X26222D01*
X23350Y17892D02*
X25894Y20436D01*
X23350Y16300D02*
Y17892D01*
X26139Y20639D02*
X28438D01*
X26136Y20636D02*
X26139D01*
X25734D02*
X26136D01*
X26139Y20639D01*
X23000Y17902D02*
X25734Y20636D01*
X23000Y15719D02*
Y17902D01*
X22650Y17900D02*
X23804Y19054D01*
X22650Y17622D02*
Y17900D01*
Y15050D02*
Y17622D01*
X24992Y20242D02*
X25586Y20836D01*
X22850Y11931D02*
X22950Y12031D01*
X22850Y10350D02*
Y11931D01*
X22650Y10450D02*
Y12500D01*
X22150Y10484D02*
Y12717D01*
X21950Y10550D02*
Y12800D01*
X25586Y20836D02*
X28438D01*
X23050Y11450D02*
X23150Y11550D01*
X23350Y11000D02*
X23447D01*
X23250Y10900D02*
X23350Y11000D01*
X23050Y10260D02*
Y11450D01*
X23250Y10148D02*
Y10900D01*
X23005Y9903D02*
X23250Y10148D01*
X23005Y8612D02*
Y9903D01*
X22805Y10015D02*
X23050Y10260D01*
X22805Y8530D02*
Y10015D01*
X22600Y10100D02*
X22850Y10350D01*
X22600Y8213D02*
Y10100D01*
X22350Y10150D02*
X22650Y10450D01*
X22417Y12984D02*
Y13631D01*
X21900Y10217D02*
X22159Y10476D01*
X22150Y12717D02*
X22417Y12984D01*
X22150Y10484D02*
X22159Y10476D01*
X21605Y9155D02*
X21900D01*
Y10217D01*
X21200Y9800D02*
X21950Y10550D01*
X24325Y8888D02*
X25063Y8150D01*
X25167Y10267D02*
Y10994D01*
X24700Y9800D02*
X25167Y10267D01*
X23550Y9800D02*
X24700D01*
X25170Y10997D02*
Y13631D01*
X25167Y10994D02*
Y10997D01*
Y10994D02*
X25170Y10997D01*
X25367Y10272D02*
Y13631D01*
Y10272D02*
X26150Y9489D01*
X23205Y9455D02*
X23550Y9800D01*
X24000Y11700D02*
Y12031D01*
X25754Y12900D02*
X25761Y12906D01*
X26150Y8950D02*
Y9489D01*
X25550Y9550D02*
X26150Y8950D01*
Y8888D02*
Y8950D01*
X23600Y9300D02*
X23850Y9550D01*
X25550D01*
X27137Y10395D02*
X27595D01*
X27082Y10450D02*
X27137Y10395D01*
X27595D02*
X28194Y9797D01*
X28194D01*
X28397Y8320D02*
Y9594D01*
X27977Y7900D02*
X28397Y8320D01*
X28194Y9797D02*
X28397Y9594D01*
X25266Y7700D02*
X28059D01*
X24450Y6884D02*
X25266Y7700D01*
X24450Y5600D02*
Y6884D01*
X25200Y4850D02*
X29000D01*
X24450Y5600D02*
X25200Y4850D01*
X29000D02*
X29450Y4400D01*
X24250Y5450D02*
X25100Y4600D01*
X20942Y5658D02*
Y6555D01*
Y5658D02*
X21450Y5150D01*
X21300Y5750D02*
Y6630D01*
Y5750D02*
X22450Y4600D01*
Y3750D02*
Y4600D01*
X20450Y3750D02*
Y6346D01*
X21450Y3750D02*
Y5150D01*
X22350Y8246D02*
Y10150D01*
X25690Y25600D02*
X33400D01*
X25515Y25775D02*
X25690Y25600D01*
X33300Y24427D02*
Y25003D01*
X33201Y25102D02*
X33300Y25003D01*
X31552Y25102D02*
X33201D01*
X31457Y25007D02*
X31552Y25102D01*
X22020Y22614D02*
X22608Y23201D01*
X22217Y22482D02*
X22808Y23072D01*
X22217Y21938D02*
Y22482D01*
X22020Y21938D02*
Y22614D01*
X22608Y23708D02*
X22993Y24093D01*
X22608Y23201D02*
Y23708D01*
X22993Y24093D02*
X29843D01*
X22808Y23608D02*
X23093Y23893D01*
X22808Y23072D02*
Y23608D01*
X23093Y23893D02*
X30250D01*
X29957Y24207D02*
Y24598D01*
X29843Y24093D02*
X29957Y24207D01*
X30457Y24100D02*
Y24457D01*
X30250Y23893D02*
X30457Y24100D01*
X30957Y23454D02*
Y24598D01*
X30457Y24482D02*
Y24598D01*
X21233Y22414D02*
X21750Y22931D01*
X21233Y21938D02*
Y22414D01*
X35300Y26699D02*
X35300Y26699D01*
X36150D01*
X15350Y6300D02*
X15906D01*
X15210Y6161D02*
X15350Y6300D01*
X14960Y6161D02*
X15210D01*
X8473Y5600D02*
X8522Y5550D01*
X9847Y4992D02*
X10409Y5554D01*
X9847Y3753D02*
Y4992D01*
Y3753D02*
X10003Y3597D01*
X10899Y5696D02*
Y5896D01*
X10758Y5554D02*
X10899Y5696D01*
X10409Y5554D02*
X10758D01*
X12150Y19558D02*
Y20337D01*
X12920Y20775D02*
Y23839D01*
X12737Y20592D02*
X12920Y20775D01*
X12404Y20592D02*
X12737D01*
X12150Y20337D02*
X12404Y20592D01*
X9715Y23276D02*
Y23839D01*
X9000Y22561D02*
X9715Y23276D01*
X9000Y20708D02*
Y22561D01*
X10321Y23839D02*
Y24099D01*
X9715Y24706D02*
X10321Y24099D01*
X10321Y24706D02*
X10772Y24255D01*
Y23472D02*
Y24255D01*
X9400Y22100D02*
X10772Y23472D01*
X9400Y20874D02*
Y22100D01*
X1000Y26650D02*
X1500Y26150D01*
X1000Y26650D02*
Y27350D01*
X7450Y13303D02*
X8350Y14204D01*
X7450Y10726D02*
Y13303D01*
Y10726D02*
X7702Y10474D01*
X7999D01*
X5625Y18350D02*
X7030D01*
X5400Y18575D02*
X5625Y18350D01*
X7030D02*
X7889Y17491D01*
X8898D01*
X5393Y24157D02*
Y24476D01*
Y24157D02*
X5600Y23950D01*
X6300D02*
X7400Y22850D01*
X5600Y23950D02*
X6300D01*
X7600Y19522D02*
Y23900D01*
X6400Y25100D02*
X7600Y23900D01*
X8050Y19072D02*
X8447Y18675D01*
X8050Y19072D02*
Y19073D01*
X7816Y19308D02*
X8050Y19073D01*
X7814Y19308D02*
X7816D01*
X7600Y19522D02*
X7814Y19308D01*
X7850Y18989D02*
X8364Y18475D01*
X7850Y18989D02*
Y18991D01*
X7733Y19108D02*
X7850Y18991D01*
X7731Y19108D02*
X7733D01*
X7400Y19439D02*
X7731Y19108D01*
X7400Y19439D02*
Y22850D01*
X8278Y18278D02*
X8898D01*
X7650Y18906D02*
X8278Y18278D01*
X7650Y18906D02*
Y18908D01*
X7648D02*
X7650D01*
X7165Y19391D02*
X7648Y18908D01*
X7165Y19391D02*
Y21885D01*
X6300Y22750D02*
X7165Y21885D01*
X8192Y18081D02*
X8898D01*
X6965Y19308D02*
X8192Y18081D01*
X8109Y17881D02*
X8898D01*
X6765Y19225D02*
X8109Y17881D01*
X8447Y18675D02*
X8895D01*
X6965Y19308D02*
Y20964D01*
X6279Y21650D02*
X6965Y20964D01*
X5650Y21650D02*
X6279D01*
X5700Y22750D02*
X6300D01*
X8364Y18475D02*
X8898D01*
X5393Y21907D02*
X5650Y21650D01*
X6765Y19225D02*
Y20264D01*
X6479Y20550D02*
X6765Y20264D01*
X5600Y20550D02*
X6479D01*
X5400Y20750D02*
X5600Y20550D01*
X5636Y19400D02*
X6308D01*
X5393Y19643D02*
X5636Y19400D01*
X6308D02*
X8020Y17688D01*
X5400Y18575D02*
Y18900D01*
X7155Y15333D02*
X7934Y16113D01*
X7155Y14872D02*
Y15333D01*
X7934Y16113D02*
X8898D01*
X7800Y16310D02*
X8898D01*
X7657Y16307D02*
X7800D01*
X6955Y15605D02*
X7657Y16307D01*
X6955Y14955D02*
Y15605D01*
X7594Y14644D02*
Y15206D01*
X7365Y14415D02*
X7594Y14644D01*
Y15206D02*
X8107Y15719D01*
X8898D01*
X7365Y13717D02*
Y14415D01*
X6765Y11383D02*
X6930Y11547D01*
X6765Y9781D02*
Y11383D01*
X6377Y9393D02*
X6765Y9781D01*
X7200Y13551D02*
X7365Y13717D01*
X7200Y12782D02*
Y13551D01*
X6930Y12512D02*
X7200Y12782D01*
X6930Y11547D02*
Y12512D01*
X5542Y9393D02*
X6377D01*
X5393Y8883D02*
Y9244D01*
X5542Y9393D01*
X6500Y10669D02*
Y11400D01*
X6365Y10534D02*
X6500Y10669D01*
X5584Y10534D02*
X6365D01*
X5393Y9997D02*
Y10343D01*
X5584Y10534D01*
X6500Y11400D02*
X6730Y11630D01*
X7000Y13634D02*
X7165Y13800D01*
X7000Y12865D02*
Y13634D01*
X6730Y12595D02*
X7000Y12865D01*
X6730Y11630D02*
Y12595D01*
X7165Y14586D02*
X7355Y14775D01*
X7165Y13800D02*
Y14586D01*
X6511Y12658D02*
X6800Y12947D01*
X6511Y11788D02*
Y12658D01*
X6373Y11650D02*
X6511Y11788D01*
X6965Y14683D02*
X7155Y14872D01*
X6965Y13883D02*
Y14683D01*
X6800Y13717D02*
X6965Y13883D01*
X6800Y12947D02*
Y13717D01*
X6730Y15013D02*
Y15771D01*
X6558Y14842D02*
X6730Y15013D01*
Y15771D02*
X7457Y16507D01*
X7126Y16897D02*
X8898D01*
X5900Y17097D02*
X8898D01*
X7457Y16507D02*
X8898D01*
X6530Y15096D02*
Y15880D01*
X7347Y16703D01*
X8898D01*
X7965Y15861D02*
X8020Y15916D01*
X7965Y15861D02*
X7965D01*
X7355Y15251D02*
X7965Y15861D01*
X8020Y15916D02*
X8898D01*
X7355Y14775D02*
Y15251D01*
X6765Y14766D02*
X6955Y14955D01*
X6558Y14128D02*
Y14842D01*
X6384Y14950D02*
X6530Y15096D01*
X5536Y14950D02*
X6384D01*
X5393Y14807D02*
X5536Y14950D01*
X6363Y16134D02*
X7126Y16897D01*
X5543Y16134D02*
X6363D01*
X5393Y15984D02*
X5543Y16134D01*
X6765Y13965D02*
Y14766D01*
X6600Y13800D02*
X6765Y13965D01*
X6600Y13030D02*
Y13800D01*
X5550Y11650D02*
X6373D01*
X5393Y11493D02*
X5550Y11650D01*
X6320Y12750D02*
X6600Y13030D01*
X5559Y12750D02*
X6320D01*
X5393Y12584D02*
X5559Y12750D01*
X5393Y12225D02*
Y12584D01*
X6330Y13900D02*
X6558Y14128D01*
X5393Y15566D02*
Y15984D01*
X5503Y17094D02*
X5900D01*
X5393Y16984D02*
X5503Y17094D01*
X5393Y16680D02*
Y16984D01*
X7791Y24706D02*
X8165D01*
X6404Y26093D02*
X7791Y24706D01*
X3543Y26093D02*
X6404D01*
X650Y23200D02*
X3543Y26093D01*
X1801Y19649D02*
Y20249D01*
X850Y21200D02*
X1801Y20249D01*
X1588Y18388D02*
X2540D01*
X1356Y18156D02*
X1588Y18388D01*
X1356Y17833D02*
Y18156D01*
X1706Y17350D02*
X2502D01*
X1356Y16999D02*
X1706Y17350D01*
X1356Y16833D02*
Y16999D01*
X1608Y15324D02*
X2476D01*
X1356Y15071D02*
X1608Y15324D01*
X1356Y14833D02*
Y15071D01*
X3708Y13050D02*
X3996Y13338D01*
X3143Y13050D02*
X3708D01*
X2714Y13479D02*
X3143Y13050D01*
X2717Y12833D02*
X3996Y11554D01*
X2356Y12833D02*
X2717D01*
X3996Y11111D02*
Y11554D01*
X3250Y10047D02*
Y11600D01*
X3017Y11833D02*
X3250Y11600D01*
X2356Y11833D02*
X3017D01*
X3250Y10047D02*
X3996Y9301D01*
X2882Y12300D02*
X3500Y11682D01*
Y10200D02*
Y11682D01*
X1700Y12300D02*
X2882D01*
X3500Y10200D02*
X3703Y9997D01*
X3578Y24476D02*
X3996D01*
X3300Y24198D02*
X3578Y24476D01*
X3300Y21681D02*
Y24198D01*
X3996Y22160D02*
Y22249D01*
X3700Y21864D02*
X3996Y22160D01*
X3700Y21515D02*
Y21864D01*
X3063Y20878D02*
X3700Y21515D01*
X3603Y21135D02*
X3996D01*
X3263Y20795D02*
X3603Y21135D01*
X3263Y20404D02*
Y20795D01*
Y20404D02*
X3401Y20266D01*
Y19400D02*
Y20266D01*
X2329Y15833D02*
X3055Y16559D01*
X2329Y15833D02*
X2356D01*
X2523Y16310D02*
X2855Y16642D01*
X1832Y16310D02*
X2523D01*
X2855Y16642D02*
Y17105D01*
X3901Y17794D02*
X3996D01*
X3055Y16947D02*
X3901Y17794D01*
X3055Y16559D02*
Y16947D01*
X1356Y15833D02*
X1832Y16310D01*
X2855Y17105D02*
X3663Y17913D01*
Y18049D01*
X3996Y18382D01*
X2356Y16850D02*
Y16918D01*
Y16833D02*
Y16850D01*
X3463Y18025D02*
Y19050D01*
X2356Y16918D02*
X3463Y18025D01*
Y19050D02*
X3996Y19583D01*
X3263Y18111D02*
Y19263D01*
X2502Y17350D02*
X3263Y18111D01*
X2476Y15324D02*
X2801Y15649D01*
Y15651D02*
X3830Y16680D01*
X2801Y15649D02*
Y15651D01*
X3830Y16680D02*
X3996D01*
X3702Y14452D02*
X3996D01*
X3638Y14388D02*
X3702Y14452D01*
X1588Y14388D02*
X3638D01*
X2710Y13479D02*
X2714D01*
X2356Y13833D02*
X2710Y13479D01*
X3686Y12225D02*
X3996D01*
X2632Y13279D02*
X3686Y12225D01*
X3703Y9997D02*
X3996D01*
X1356Y14156D02*
X1588Y14388D01*
X1356Y13833D02*
Y14156D01*
Y11956D02*
X1700Y12300D01*
X1356Y11833D02*
Y11956D01*
X1634Y13279D02*
X2632D01*
X1356Y13000D02*
X1634Y13279D01*
X1356Y12833D02*
Y13000D01*
X3996Y8883D02*
Y9301D01*
X13622Y17688D02*
X15155D01*
X12935Y16703D02*
X13622D01*
X12457Y20245D02*
X12737D01*
X12343Y20131D02*
X12457Y20245D01*
X12343Y19558D02*
Y20131D01*
X12737Y19558D02*
Y20245D01*
X12935Y17294D02*
X13622D01*
X13623Y15400D02*
Y15713D01*
X13622Y15713D02*
X13623Y15713D01*
X1550Y19398D02*
X1801Y19649D01*
X1550Y19028D02*
Y19398D01*
X1356Y18833D02*
X1550Y19028D01*
X15350Y20006D02*
Y20400D01*
X14500Y20006D02*
Y20400D01*
X16280Y15713D02*
X16344Y15650D01*
X18236D02*
X18297Y15590D01*
X31100Y13550D02*
Y13735D01*
X32597Y15232D01*
X30595Y14200D02*
Y14380D01*
X32597Y16381D01*
X24973Y13073D02*
Y13631D01*
X24776D02*
Y14130D01*
X25515Y24700D02*
Y25775D01*
X25564Y13631D02*
Y14317D01*
X25761Y12906D02*
Y13631D01*
X23804Y19054D02*
X24992Y20242D01*
X23007Y8055D02*
Y8610D01*
X23005Y8612D02*
X23007Y8610D01*
X23005Y8052D02*
X23007Y8055D01*
X22807Y8137D02*
Y8527D01*
X22805Y8530D02*
X22807Y8527D01*
X28597Y8237D02*
Y9677D01*
X27273Y11000D02*
X28597Y9677D01*
X27100Y11000D02*
X27273D01*
X27139Y11461D02*
X28991Y9609D01*
Y9155D02*
Y9609D01*
X26548Y11750D02*
Y12031D01*
X28438Y14340D02*
X28850Y13927D01*
X27729Y12729D02*
Y13631D01*
X23205Y8695D02*
Y9455D01*
Y8695D02*
X23352Y8548D01*
X23600D01*
X26150Y8888D02*
X26743D01*
X23600Y9155D02*
Y9300D01*
X24325Y8888D02*
X24536D01*
X23939D02*
X24325D01*
X23600Y8548D02*
X23939Y8888D01*
X17921Y8279D02*
Y9400D01*
X18138Y9616D01*
Y10576D01*
X30850Y10222D02*
Y10585D01*
X30294Y9155D02*
X30900Y8548D01*
X27139Y11461D02*
Y13631D01*
X28059Y7700D02*
X28597Y8237D01*
X29450Y3750D02*
Y4400D01*
X25150Y7900D02*
X27977D01*
X24250Y7000D02*
X25150Y7900D01*
X24250Y5450D02*
Y7000D01*
X28438Y21033D02*
X28883D01*
X28950Y21100D01*
Y21529D01*
X29397Y21975D01*
X14500Y20006D02*
X15350D01*
X18638Y21900D02*
X19900D01*
X19450Y23600D02*
Y26300D01*
X1500Y27150D02*
X12338D01*
X18258Y21229D01*
X20131D01*
X19500Y15521D02*
X20131D01*
X19250D02*
X19500D01*
X27783Y14317D02*
X28950Y13150D01*
X27117Y14317D02*
X27783D01*
X15778Y16111D02*
X20131D01*
X22217Y13067D02*
Y13631D01*
X21338Y8888D02*
X21605Y9155D01*
X20964Y8888D02*
X21338D01*
X21950Y12800D02*
X22217Y13067D01*
X19541Y9800D02*
X21200D01*
X19350Y9609D02*
X19541Y9800D01*
X19350Y8888D02*
Y9609D01*
X21824Y12974D02*
Y13631D01*
X20750Y11900D02*
X21824Y12974D01*
X20750Y11291D02*
Y11900D01*
X20091Y11291D02*
X20750D01*
X19750Y10950D02*
X20091Y11291D01*
X19122Y10950D02*
X19750D01*
X18900Y14536D02*
X20131D01*
X12540Y14833D02*
Y15521D01*
X11275Y7498D02*
X11320Y7453D01*
X12314D01*
X14858Y7208D02*
Y7526D01*
X14650Y7000D02*
X14858Y7208D01*
X13359Y7000D02*
X14650D01*
X13237Y7123D02*
X13359Y7000D01*
X13237Y7123D02*
Y7453D01*
X12314D02*
X13237D01*
X11004Y6001D02*
X11527D01*
X11632Y5895D01*
Y5718D02*
Y5895D01*
Y5718D02*
X12050Y5300D01*
X12633D01*
X12750Y5417D01*
Y5950D01*
X12699Y6001D02*
X12750Y5950D01*
X12368Y6001D02*
X12699D01*
X14110Y6161D02*
Y6440D01*
X13900Y6650D02*
X14110Y6440D01*
X12096Y6650D02*
X13900D01*
X11924Y6478D02*
X12096Y6650D01*
X11924Y5776D02*
Y6478D01*
Y5776D02*
X12073Y5627D01*
X12368D01*
X25515Y25775D02*
Y26700D01*
X33400Y25600D02*
X34499Y26699D01*
X35300D01*
X36150Y26699D02*
X36211Y26638D01*
X37650D01*
X26942Y13631D02*
Y14142D01*
X27117Y14317D01*
X28950Y11197D02*
Y13150D01*
X19200Y15571D02*
X19250Y15521D01*
X18903Y15590D02*
X18922Y15571D01*
X19200D01*
X18628Y17500D02*
X19059D01*
X9972Y20301D02*
X10177Y20096D01*
X9689Y20301D02*
X9972D01*
X9200Y20791D02*
X9689Y20301D01*
X9606Y20101D02*
X9889D01*
X9000Y20708D02*
X9606Y20101D01*
X9977Y19561D02*
Y20014D01*
X9400Y20874D02*
X9772Y20501D01*
X10055D01*
X10377Y20179D01*
Y19667D02*
Y20179D01*
X10371Y19661D02*
X10377Y19667D01*
X10371Y19561D02*
Y19661D01*
X9889Y20101D02*
X9977Y20014D01*
X11318Y20532D02*
Y23839D01*
Y20532D02*
X11556Y20294D01*
Y19558D02*
Y20294D01*
X10371Y19561D02*
X10374Y19558D01*
X9977Y19561D02*
X9981Y19558D01*
X10321Y24706D02*
X10321Y24706D01*
X10321Y24706D02*
Y25518D01*
X8771Y24706D02*
X9715D01*
X9715Y24706D02*
X9715Y24706D01*
X9715Y24706D02*
Y25518D01*
X11318Y23839D02*
Y24706D01*
X20131Y16308D02*
X20942D01*
X18013Y16311D02*
X19545D01*
X17650Y16675D02*
X18013Y16311D01*
X19545D02*
X19738Y16505D01*
X13622Y15913D02*
X15580D01*
X15778Y16111D01*
X19738Y16505D02*
X20131D01*
X450Y9650D02*
Y20639D01*
X2306Y22338D02*
Y22850D01*
X450Y9650D02*
X1950Y8150D01*
X6423D01*
X7999Y9726D01*
X8020Y17688D02*
X8898D01*
X4600Y17763D02*
X5391D01*
X5506Y17294D02*
X8898D01*
X9784Y14284D02*
Y14833D01*
X9704Y14204D02*
X9784Y14284D01*
X8350Y14204D02*
X9704D01*
X12053Y11235D02*
X12650Y11832D01*
X12343Y13947D02*
Y14833D01*
X10350Y10772D02*
Y13320D01*
Y10772D02*
X10503Y10619D01*
X12053D02*
Y11235D01*
X10503Y10619D02*
X10503Y10619D01*
X11253D01*
X33300Y24427D02*
X33500Y24227D01*
X36900D01*
X32106Y23944D02*
X37084D01*
X31957Y24093D02*
X32106Y23944D01*
X31957Y24093D02*
Y24598D01*
X31457D02*
Y25007D01*
X35450Y20330D02*
X35450Y20330D01*
X13540Y16313D02*
X15282D01*
X15497Y16113D02*
X16009Y16625D01*
X13623Y16113D02*
X15497D01*
X13622Y16113D02*
X13623Y16113D01*
X15282Y16313D02*
X15650Y16681D01*
Y17350D01*
X15900Y17600D01*
X16344D01*
X16009Y16625D02*
X16344D01*
X8353Y10474D02*
X9101Y9726D01*
X7999Y10474D02*
X8353D01*
X650Y21117D02*
Y23200D01*
Y21117D02*
X1356Y20412D01*
Y19833D02*
Y20412D01*
X850Y21200D02*
Y23100D01*
X1356Y22338D02*
X2306D01*
Y21731D02*
X2356Y21681D01*
Y19833D02*
Y21681D01*
X3340Y25590D02*
X3996D01*
X850Y23100D02*
X3340Y25590D01*
X2663Y21044D02*
X3300Y21681D01*
X2663Y20156D02*
Y21044D01*
Y20156D02*
X2801Y20018D01*
Y19649D02*
Y20018D01*
X3201Y19483D02*
Y20183D01*
X3001Y19566D02*
Y20101D01*
X3063Y20321D02*
Y20878D01*
Y20321D02*
X3201Y20183D01*
X2863Y20238D02*
Y20961D01*
Y20238D02*
X3001Y20101D01*
X2356Y19204D02*
X2801Y19649D01*
X2356Y18833D02*
Y19204D01*
X3063Y18541D02*
Y19345D01*
X3263Y19263D02*
X3401Y19400D01*
X3063Y19345D02*
X3201Y19483D01*
X2863Y19428D02*
X3001Y19566D01*
X2863Y18711D02*
Y19428D01*
X3500Y22866D02*
X3996Y23362D01*
X3500Y21598D02*
Y22866D01*
X2863Y20961D02*
X3500Y21598D01*
X2540Y18388D02*
X2863Y18711D01*
X2356Y17833D02*
X3063Y18541D01*
X3996Y18382D02*
Y18907D01*
Y19583D02*
Y20021D01*
X2356Y14833D02*
X3088Y15566D01*
X3996D01*
X5393Y11111D02*
Y11493D01*
X5600Y13900D02*
X6330D01*
X5393Y13693D02*
X5600Y13900D01*
X5393Y13338D02*
Y13693D01*
X5393Y14452D02*
Y14807D01*
X5393Y17407D02*
X5506Y17294D01*
X5393Y17407D02*
Y17794D01*
X5393Y18907D02*
X5400Y18900D01*
X5393Y19643D02*
Y20021D01*
X5400Y20750D02*
Y21128D01*
X5393Y21135D02*
X5400Y21128D01*
X5393Y21907D02*
Y22249D01*
X5391Y23059D02*
X5700Y22750D01*
X5391Y23059D02*
Y23360D01*
X5393Y23362D01*
X5550Y25100D02*
X6400D01*
X5393Y25257D02*
X5550Y25100D01*
X5393Y25257D02*
Y25590D01*
X4602Y8883D02*
X5393D01*
X4602Y9997D02*
X5393D01*
X4602Y11111D02*
X5393D01*
X4602Y12225D02*
X5393D01*
X4602Y13338D02*
X5393D01*
X4602Y14452D02*
X5393D01*
X4602Y15566D02*
X5393D01*
X4602Y16680D02*
X5393D01*
X4602Y18907D02*
X5393D01*
X4602Y20021D02*
X5393D01*
X4602Y21135D02*
X5393D01*
X4602Y22249D02*
X5393D01*
X4602Y23362D02*
X5393D01*
X4602Y24476D02*
X5393D01*
Y25590D02*
X5393Y25590D01*
X4602Y25590D02*
X5393D01*
X26498Y27749D02*
X26550Y27801D01*
X25542Y27749D02*
X26498D01*
X23498D02*
X23550Y27801D01*
X22450Y27749D02*
X23498D01*
X21181Y28407D02*
X21466Y28123D01*
X20500Y28407D02*
X21181D01*
X25542Y28497D02*
Y28658D01*
X25350Y28850D02*
X25542Y28658D01*
X24400Y28850D02*
X25350D01*
X23957Y28407D02*
X24400Y28850D01*
X23550Y28407D02*
X23957D01*
X24558Y26728D02*
X24585Y26700D01*
X24558Y26728D02*
Y28123D01*
X23578Y26689D02*
X23589Y26700D01*
X24585D01*
X26550Y28407D02*
X30106D01*
X30957Y27557D01*
Y26645D02*
Y27557D01*
X30903Y23400D02*
X30957Y23454D01*
X29397Y15688D02*
Y15962D01*
X28854Y16505D02*
X29397Y15962D01*
X28438Y16505D02*
X28854D01*
X33203Y16381D02*
Y17530D01*
X33153Y15182D02*
X33203Y15232D01*
X33153Y14083D02*
Y15182D01*
X34000Y10997D02*
X35399D01*
X14858Y8202D02*
Y8274D01*
X14110Y7453D02*
X14858Y8202D01*
X10899Y5896D02*
X11004Y6001D01*
X9459Y5554D02*
X10409D01*
X9455Y5550D02*
X9459Y5554D01*
X8522Y5550D02*
X9455D01*
X10803Y3512D02*
X11266D01*
X10718Y3597D02*
X10803Y3512D01*
X10409Y3597D02*
X10718D01*
X10003D02*
X10409D01*
X14110Y6161D02*
X14960D01*
X14110Y4203D02*
Y4481D01*
X13991Y4600D02*
X14110Y4481D01*
X12950Y4600D02*
X13991D01*
X12610Y4260D02*
X12950Y4600D01*
X12368Y4260D02*
X12610D01*
X14960Y4203D02*
X15317D01*
X15457Y4343D01*
X15906D01*
X14110Y4203D02*
X14960D01*
X12569Y3512D02*
X13259Y4203D01*
X12368Y3512D02*
X12569D01*
X11266Y4260D02*
X11540D01*
X11650Y4150D01*
Y3600D02*
Y4150D01*
X11562Y3512D02*
X11650Y3600D01*
X11266Y3512D02*
X11562D01*
X14110Y5554D02*
X14960D01*
X13259Y3597D02*
X13259Y3597D01*
X14110D01*
X14960D01*
X25063Y8150D02*
X27638D01*
X28037Y8548D01*
X26743Y8888D02*
X27082Y8548D01*
X29900Y11197D02*
X30844D01*
X30850Y11191D01*
X28950Y11197D02*
X29900D01*
X28950Y10591D02*
X29900D01*
X27082Y9155D02*
X28037D01*
X29946D02*
X30294D01*
X28991D02*
X29946D01*
Y8261D02*
X29957Y8250D01*
X29946Y8261D02*
Y8548D01*
X28991Y8250D02*
Y8548D01*
X27082Y9155D02*
Y9500D01*
X28037Y9437D02*
X28050Y9450D01*
X28037Y9155D02*
Y9437D01*
X28991Y8548D02*
X29946D01*
X33000Y9155D02*
Y9500D01*
X32050Y9155D02*
Y9500D01*
Y9155D02*
X33000D01*
X32050Y3597D02*
X33000D01*
X37650Y3350D02*
Y3680D01*
X38550Y3350D02*
Y3680D01*
X37650D02*
X38550D01*
X36481Y3094D02*
X37065D01*
X32050Y6903D02*
X33000D01*
X37650D02*
X38550D01*
X35801Y6564D02*
X36050D01*
X37650Y8274D02*
Y8600D01*
X38550Y8300D02*
Y8600D01*
X37650D02*
X38550D01*
X36481Y7944D02*
X36994D01*
X-2150Y600D02*
X-1950Y0D01*
X-1750Y600D01*
X-1950Y32283D02*
X-1750Y31683D01*
X-2150D02*
X-1950Y32283D01*
Y0D02*
Y14472D01*
Y17491D02*
Y32283D01*
X-2050Y0D02*
X-200D01*
X-2050Y32283D02*
X-200D01*
X0Y-1600D02*
X600Y-1400D01*
X0Y-1600D02*
X600Y-1800D01*
X38770D02*
X39370Y-1600D01*
X38770Y-1400D02*
X39370Y-1600D01*
X0D02*
X17766D01*
X21285D02*
X39370D01*
X0Y-1700D02*
Y-200D01*
X39370Y-1700D02*
Y-200D01*
D17*
X0Y0D02*
Y32283D01*
Y0D02*
X39370D01*
X0Y32283D02*
X39370D01*
Y0D02*
Y32283D01*
D18*
X-2090Y14632D02*
X-2190Y14732D01*
Y14932D01*
X-2090Y15032D01*
X-1990D01*
X-1890Y14932D01*
X-1790Y15032D01*
X-1690D01*
X-1590Y14932D01*
Y14732D01*
X-1690Y14632D01*
X-1790D01*
X-1890Y14732D01*
X-1990Y14632D01*
X-2090D01*
X-1890Y14732D02*
Y14932D01*
X-1590Y15632D02*
Y15232D01*
X-1990Y15632D01*
X-2090D01*
X-2190Y15532D01*
Y15332D01*
X-2090Y15232D01*
X-1590Y15832D02*
X-1690D01*
Y15932D01*
X-1590D01*
Y15832D01*
X-2090Y16332D02*
X-2190Y16432D01*
Y16632D01*
X-2090Y16731D01*
X-1690D01*
X-1590Y16632D01*
Y16432D01*
X-1690Y16332D01*
X-2090D01*
Y16931D02*
X-2190Y17031D01*
Y17231D01*
X-2090Y17331D01*
X-1690D01*
X-1590Y17231D01*
Y17031D01*
X-1690Y16931D01*
X-2090D01*
X17926Y-1960D02*
X18125D01*
X18026D01*
Y-1360D01*
X17926Y-1460D01*
X18425D02*
X18525Y-1360D01*
X18725D01*
X18825Y-1460D01*
Y-1860D01*
X18725Y-1960D01*
X18525D01*
X18425Y-1860D01*
Y-1460D01*
X19025D02*
X19125Y-1360D01*
X19325D01*
X19425Y-1460D01*
Y-1860D01*
X19325Y-1960D01*
X19125D01*
X19025Y-1860D01*
Y-1460D01*
X19625Y-1960D02*
Y-1860D01*
X19725D01*
Y-1960D01*
X19625D01*
X20125Y-1460D02*
X20225Y-1360D01*
X20425D01*
X20525Y-1460D01*
Y-1860D01*
X20425Y-1960D01*
X20225D01*
X20125Y-1860D01*
Y-1460D01*
X20725D02*
X20825Y-1360D01*
X21025D01*
X21125Y-1460D01*
Y-1860D01*
X21025Y-1960D01*
X20825D01*
X20725Y-1860D01*
Y-1460D01*
D21*
X38361Y25222D02*
Y25402D01*
X37921Y25222D02*
Y25402D01*
Y25222D02*
X38361D01*
X37921Y25402D02*
X38361D01*
Y22998D02*
Y23178D01*
X37921Y22998D02*
Y23178D01*
Y22998D02*
X38361D01*
X37921Y23178D02*
X38361D01*
D24*
X14110Y7453D02*
D03*
Y8059D02*
D03*
X12264Y7467D02*
D03*
Y8073D02*
D03*
X14110Y4205D02*
D03*
Y3599D02*
D03*
X13259Y4203D02*
D03*
Y3597D02*
D03*
X14960Y6161D02*
D03*
Y5554D02*
D03*
X13272Y6161D02*
D03*
Y5555D02*
D03*
X10409Y6161D02*
D03*
Y5554D02*
D03*
Y3597D02*
D03*
Y4203D02*
D03*
X38550Y6297D02*
D03*
Y6903D02*
D03*
X37650Y6297D02*
D03*
Y6903D02*
D03*
X33000Y6297D02*
D03*
Y6903D02*
D03*
X32050Y6297D02*
D03*
Y6903D02*
D03*
X11253Y10619D02*
D03*
Y10012D02*
D03*
X30900Y9155D02*
D03*
Y8548D02*
D03*
X23600Y8548D02*
D03*
Y9155D02*
D03*
X28991Y9155D02*
D03*
Y8548D02*
D03*
X29946Y9155D02*
D03*
Y8548D02*
D03*
X27082Y9155D02*
D03*
Y8548D02*
D03*
X28037Y9155D02*
D03*
Y8548D02*
D03*
X10503Y10619D02*
D03*
Y10012D02*
D03*
X20500Y28407D02*
D03*
Y27801D02*
D03*
X23550Y27801D02*
D03*
Y28407D02*
D03*
X26550Y28407D02*
D03*
Y27801D02*
D03*
X30850Y11191D02*
D03*
Y10585D02*
D03*
X36150Y26093D02*
D03*
Y26699D02*
D03*
X2306Y22338D02*
D03*
Y21731D02*
D03*
X36600Y20936D02*
D03*
Y20330D02*
D03*
X16650Y7453D02*
D03*
Y8059D02*
D03*
X10262Y7453D02*
D03*
Y8059D02*
D03*
X13237Y8059D02*
D03*
Y7453D02*
D03*
X33000Y9155D02*
D03*
Y8548D02*
D03*
X32050Y9155D02*
D03*
Y8548D02*
D03*
X37650Y8600D02*
D03*
Y9206D02*
D03*
X38550Y8600D02*
D03*
Y9206D02*
D03*
X33000Y3597D02*
D03*
Y4203D02*
D03*
X32050Y3597D02*
D03*
Y4203D02*
D03*
X37650Y3680D02*
D03*
Y4286D02*
D03*
X38550Y3680D02*
D03*
Y4286D02*
D03*
X16809Y4203D02*
D03*
Y3597D02*
D03*
X14960Y3597D02*
D03*
Y4203D02*
D03*
X16809Y5554D02*
D03*
Y6161D02*
D03*
X14110Y5554D02*
D03*
Y6161D02*
D03*
X9459Y6161D02*
D03*
Y5554D02*
D03*
X7459D02*
D03*
Y6161D02*
D03*
X37750Y20330D02*
D03*
Y20936D02*
D03*
X35450Y20936D02*
D03*
Y20330D02*
D03*
X27557Y26699D02*
D03*
Y26093D02*
D03*
X28407Y26699D02*
D03*
Y26093D02*
D03*
X20839Y23538D02*
D03*
Y22931D02*
D03*
X23400Y23454D02*
D03*
Y22847D02*
D03*
X24000Y12031D02*
D03*
Y12638D02*
D03*
X25600Y23538D02*
D03*
Y22931D02*
D03*
X26548Y12031D02*
D03*
Y12638D02*
D03*
X29900Y10591D02*
D03*
Y11197D02*
D03*
X28950Y10591D02*
D03*
Y11197D02*
D03*
X20750Y11291D02*
D03*
Y10685D02*
D03*
X21750Y23538D02*
D03*
Y22931D02*
D03*
X35300Y26093D02*
D03*
Y26699D02*
D03*
X21900Y8547D02*
D03*
Y9153D02*
D03*
X18264Y8548D02*
D03*
Y9155D02*
D03*
X12853Y10619D02*
D03*
Y10012D02*
D03*
X12053Y10619D02*
D03*
Y10012D02*
D03*
X15350Y19400D02*
D03*
Y20006D02*
D03*
X14500Y19400D02*
D03*
Y20006D02*
D03*
X1356Y21731D02*
D03*
Y22338D02*
D03*
D25*
X24536Y8888D02*
D03*
X26150D02*
D03*
X20964Y8888D02*
D03*
X19350D02*
D03*
D26*
X36481Y7944D02*
D03*
Y8850D02*
D03*
Y9756D02*
D03*
Y3094D02*
D03*
Y4000D02*
D03*
Y4906D02*
D03*
D27*
X34119Y8850D02*
D03*
Y4000D02*
D03*
D28*
X35801Y6190D02*
D03*
Y6564D02*
D03*
Y6938D02*
D03*
X34699D02*
D03*
Y6190D02*
D03*
X15961Y7526D02*
D03*
Y7900D02*
D03*
Y8274D02*
D03*
X14858D02*
D03*
Y7526D02*
D03*
X11266Y4260D02*
D03*
Y3886D02*
D03*
Y3512D02*
D03*
X12368D02*
D03*
Y4260D02*
D03*
Y5627D02*
D03*
Y6001D02*
D03*
Y6375D02*
D03*
X11266D02*
D03*
Y5627D02*
D03*
X7999Y10474D02*
D03*
Y10100D02*
D03*
Y9726D02*
D03*
X9101D02*
D03*
Y10474D02*
D03*
D29*
X29457Y24598D02*
D03*
X29957D02*
D03*
X30457D02*
D03*
X30957D02*
D03*
X31457D02*
D03*
X31957D02*
D03*
X32457D02*
D03*
X32957D02*
D03*
X29457Y26645D02*
D03*
X29957D02*
D03*
X30457D02*
D03*
X30957D02*
D03*
X31457D02*
D03*
X31957D02*
D03*
X32457D02*
D03*
X32957D02*
D03*
D30*
X20131Y14340D02*
D03*
Y14536D02*
D03*
Y14733D02*
D03*
Y14930D02*
D03*
Y15127D02*
D03*
Y15324D02*
D03*
Y15521D02*
D03*
Y15718D02*
D03*
Y15914D02*
D03*
Y16111D02*
D03*
Y16308D02*
D03*
Y16505D02*
D03*
Y16702D02*
D03*
Y16899D02*
D03*
Y17096D02*
D03*
Y17292D02*
D03*
Y17489D02*
D03*
Y17686D02*
D03*
Y17883D02*
D03*
Y18080D02*
D03*
Y18277D02*
D03*
Y18473D02*
D03*
Y18670D02*
D03*
Y18867D02*
D03*
Y19064D02*
D03*
Y19261D02*
D03*
Y19458D02*
D03*
Y19655D02*
D03*
Y19851D02*
D03*
Y20048D02*
D03*
Y20245D02*
D03*
Y20442D02*
D03*
Y20639D02*
D03*
Y20836D02*
D03*
Y21033D02*
D03*
Y21229D02*
D03*
X28438D02*
D03*
Y21033D02*
D03*
Y20836D02*
D03*
Y20639D02*
D03*
Y20442D02*
D03*
Y20245D02*
D03*
Y20048D02*
D03*
Y19851D02*
D03*
Y19655D02*
D03*
Y19458D02*
D03*
Y19261D02*
D03*
Y19064D02*
D03*
Y18867D02*
D03*
Y18670D02*
D03*
Y18473D02*
D03*
Y18277D02*
D03*
Y18080D02*
D03*
Y17883D02*
D03*
Y17686D02*
D03*
Y17489D02*
D03*
Y17292D02*
D03*
Y17096D02*
D03*
Y16899D02*
D03*
Y16702D02*
D03*
Y16505D02*
D03*
Y16308D02*
D03*
Y16111D02*
D03*
Y15914D02*
D03*
Y15718D02*
D03*
Y15521D02*
D03*
Y15324D02*
D03*
Y15127D02*
D03*
Y14930D02*
D03*
Y14733D02*
D03*
Y14536D02*
D03*
Y14340D02*
D03*
D31*
X20839Y21938D02*
D03*
X21036D02*
D03*
X21233D02*
D03*
X21430D02*
D03*
X21627D02*
D03*
X21824D02*
D03*
X22020D02*
D03*
X22217D02*
D03*
X22414D02*
D03*
X22611D02*
D03*
X22808D02*
D03*
X23005D02*
D03*
X23202D02*
D03*
X23398D02*
D03*
X23595D02*
D03*
X23792D02*
D03*
X23989D02*
D03*
X24186D02*
D03*
X24383D02*
D03*
X24580D02*
D03*
X24776D02*
D03*
X24973D02*
D03*
X25170D02*
D03*
X25367D02*
D03*
X25564D02*
D03*
X25761D02*
D03*
X25957D02*
D03*
X26154D02*
D03*
X26351D02*
D03*
X26548D02*
D03*
X26745D02*
D03*
X26942D02*
D03*
X27139D02*
D03*
X27335D02*
D03*
X27532D02*
D03*
X27729D02*
D03*
Y13631D02*
D03*
X27532D02*
D03*
X27335D02*
D03*
X27139D02*
D03*
X26942D02*
D03*
X26745D02*
D03*
X26548D02*
D03*
X26351D02*
D03*
X26154D02*
D03*
X25957D02*
D03*
X25761D02*
D03*
X25564D02*
D03*
X25367D02*
D03*
X25170D02*
D03*
X24973D02*
D03*
X24776D02*
D03*
X24580D02*
D03*
X24383D02*
D03*
X24186D02*
D03*
X23989D02*
D03*
X23792D02*
D03*
X23595D02*
D03*
X23398D02*
D03*
X23202D02*
D03*
X23005D02*
D03*
X22808D02*
D03*
X22611D02*
D03*
X22414D02*
D03*
X22217D02*
D03*
X22020D02*
D03*
X21824D02*
D03*
X21627D02*
D03*
X21430D02*
D03*
X21233D02*
D03*
X21036D02*
D03*
X20839D02*
D03*
D32*
X9784Y19558D02*
D03*
X9981D02*
D03*
X10178D02*
D03*
X10374D02*
D03*
X10571D02*
D03*
X10768D02*
D03*
X10965D02*
D03*
X11162D02*
D03*
X11359D02*
D03*
X11556D02*
D03*
X11752D02*
D03*
X11949D02*
D03*
X12146D02*
D03*
X12343D02*
D03*
X12540D02*
D03*
X12737D02*
D03*
Y14833D02*
D03*
X12540D02*
D03*
X12343D02*
D03*
X12146D02*
D03*
X11949D02*
D03*
X11752D02*
D03*
X11556D02*
D03*
X11359D02*
D03*
X11162D02*
D03*
X10965D02*
D03*
X10768D02*
D03*
X10571D02*
D03*
X10374D02*
D03*
X10178D02*
D03*
X9981D02*
D03*
X9784D02*
D03*
D33*
X13622Y18672D02*
D03*
Y18475D02*
D03*
Y18278D02*
D03*
Y18081D02*
D03*
Y17885D02*
D03*
Y17688D02*
D03*
Y17491D02*
D03*
Y17294D02*
D03*
Y17097D02*
D03*
Y16900D02*
D03*
Y16703D02*
D03*
Y16507D02*
D03*
Y16310D02*
D03*
Y16113D02*
D03*
Y15916D02*
D03*
Y15719D02*
D03*
X8898D02*
D03*
Y15916D02*
D03*
Y16113D02*
D03*
Y16310D02*
D03*
Y16507D02*
D03*
Y16703D02*
D03*
Y16900D02*
D03*
Y17097D02*
D03*
Y17294D02*
D03*
Y17491D02*
D03*
Y17688D02*
D03*
Y17885D02*
D03*
Y18081D02*
D03*
Y18278D02*
D03*
Y18475D02*
D03*
D34*
Y18672D02*
D03*
D35*
X37650Y26638D02*
D03*
X38831D02*
D03*
X37650Y29000D02*
D03*
X38831D02*
D03*
X29434Y5704D02*
D03*
X28434Y6704D02*
D03*
Y5704D02*
D03*
X27434Y6704D02*
D03*
Y5704D02*
D03*
X26434Y6704D02*
D03*
Y5704D02*
D03*
X25434Y6704D02*
D03*
Y5704D02*
D03*
X25450Y3750D02*
D03*
X26450D02*
D03*
X27450D02*
D03*
X28450D02*
D03*
X29450D02*
D03*
X23450D02*
D03*
X22450D02*
D03*
X21450D02*
D03*
X20450D02*
D03*
X19450D02*
D03*
X1500Y26150D02*
D03*
Y27150D02*
D03*
Y28150D02*
D03*
X1356Y19833D02*
D03*
X2356D02*
D03*
X1356Y18833D02*
D03*
X2356D02*
D03*
X1356Y17833D02*
D03*
X2356D02*
D03*
X1356Y16833D02*
D03*
X2356D02*
D03*
X1356Y15833D02*
D03*
X2356D02*
D03*
X1356Y14833D02*
D03*
X2356D02*
D03*
X1356Y13833D02*
D03*
X2356D02*
D03*
X1356Y12833D02*
D03*
X2356D02*
D03*
X1356Y11833D02*
D03*
X2356D02*
D03*
X1356Y10833D02*
D03*
D36*
X22972Y26689D02*
D03*
X23578D02*
D03*
X30003Y15688D02*
D03*
X29397D02*
D03*
X18297Y15590D02*
D03*
X18903D02*
D03*
X33394Y10997D02*
D03*
X34000D02*
D03*
X32547Y14083D02*
D03*
X33153D02*
D03*
X32597Y17530D02*
D03*
X33203D02*
D03*
X18294Y14536D02*
D03*
X18900D02*
D03*
X3996Y23362D02*
D03*
X4602D02*
D03*
X3996Y24476D02*
D03*
X4602D02*
D03*
X3996Y22249D02*
D03*
X4602D02*
D03*
X3996Y21135D02*
D03*
X4602D02*
D03*
X3996Y18907D02*
D03*
X4602D02*
D03*
X3996Y20021D02*
D03*
X4602D02*
D03*
X3996Y17794D02*
D03*
X4602D02*
D03*
X16344Y16625D02*
D03*
X16950D02*
D03*
X3996Y16680D02*
D03*
X4602D02*
D03*
X3996Y14452D02*
D03*
X4602D02*
D03*
X16950Y17600D02*
D03*
X16344D02*
D03*
X3996Y15566D02*
D03*
X4602D02*
D03*
X3996Y13338D02*
D03*
X4602D02*
D03*
X3996Y12225D02*
D03*
X4602D02*
D03*
X3996Y9997D02*
D03*
X4602D02*
D03*
X3996Y11111D02*
D03*
X4602D02*
D03*
X3996Y8883D02*
D03*
X4602D02*
D03*
X8165Y24706D02*
D03*
X8771D02*
D03*
X13527Y23839D02*
D03*
X12920D02*
D03*
X10321D02*
D03*
X9715D02*
D03*
X9715Y24706D02*
D03*
X10321D02*
D03*
X16344Y15650D02*
D03*
X16950D02*
D03*
X33203Y15232D02*
D03*
X32597D02*
D03*
X33203Y16381D02*
D03*
X32597D02*
D03*
X38200Y11000D02*
D03*
X37594D02*
D03*
X30350Y23454D02*
D03*
X30957D02*
D03*
X30003Y20985D02*
D03*
X29397D02*
D03*
X30003Y16751D02*
D03*
X29397D02*
D03*
X30003Y18868D02*
D03*
X29397D02*
D03*
X30003Y14635D02*
D03*
X29397D02*
D03*
X18294Y13550D02*
D03*
X18900D02*
D03*
X18297Y16899D02*
D03*
X18903D02*
D03*
X18297Y18867D02*
D03*
X18903D02*
D03*
X30003Y21975D02*
D03*
X29397D02*
D03*
X5393Y25590D02*
D03*
X5999D02*
D03*
X5393Y23362D02*
D03*
X5999D02*
D03*
X5999Y24476D02*
D03*
X5393D02*
D03*
X5999Y22249D02*
D03*
X5393D02*
D03*
X8247Y11300D02*
D03*
X8853D02*
D03*
X5393Y21135D02*
D03*
X5999D02*
D03*
X5393Y18907D02*
D03*
X5999D02*
D03*
X5999Y20021D02*
D03*
X5393D02*
D03*
X5999Y17794D02*
D03*
X5393D02*
D03*
X5393Y16680D02*
D03*
X5999D02*
D03*
X5393Y14452D02*
D03*
X5999D02*
D03*
X8197Y8750D02*
D03*
X8803D02*
D03*
X5999Y15566D02*
D03*
X5393D02*
D03*
X5999Y13338D02*
D03*
X5393D02*
D03*
X5393Y12225D02*
D03*
X5999D02*
D03*
X5393Y9997D02*
D03*
X5999D02*
D03*
X5999Y11111D02*
D03*
X5393D02*
D03*
X5999Y8883D02*
D03*
X5393D02*
D03*
X13796Y13733D02*
D03*
X14402D02*
D03*
X13799Y12853D02*
D03*
X14406D02*
D03*
X9153Y13700D02*
D03*
X8547D02*
D03*
X9153Y12853D02*
D03*
X8547D02*
D03*
X9715Y25518D02*
D03*
X10321D02*
D03*
X11318Y24706D02*
D03*
X11924D02*
D03*
X11318Y23839D02*
D03*
X11924D02*
D03*
X10453Y21100D02*
D03*
X9847D02*
D03*
X11947D02*
D03*
X12553D02*
D03*
X11247Y12851D02*
D03*
X11853D02*
D03*
X11244Y12005D02*
D03*
X11850D02*
D03*
X3996Y25590D02*
D03*
X4602D02*
D03*
D37*
X22450Y27749D02*
D03*
Y28497D02*
D03*
X21466Y28123D02*
D03*
X25542Y27749D02*
D03*
Y28497D02*
D03*
X24558Y28123D02*
D03*
X18138Y11324D02*
D03*
Y10576D02*
D03*
X19122Y10950D02*
D03*
D38*
X37084Y23944D02*
D03*
Y24200D02*
D03*
Y23688D02*
D03*
Y24712D02*
D03*
Y24456D02*
D03*
D39*
X38167Y25794D02*
D03*
Y22606D02*
D03*
D40*
X11275Y7498D02*
D03*
Y8199D02*
D03*
X15906Y4343D02*
D03*
Y3642D02*
D03*
Y6300D02*
D03*
Y5600D02*
D03*
X8522Y6251D02*
D03*
Y5550D02*
D03*
X35450Y21999D02*
D03*
Y22700D02*
D03*
D41*
X24585Y26700D02*
D03*
X25515D02*
D03*
D42*
X36100Y10997D02*
D03*
X35399D02*
D03*
D43*
X14109Y10332D02*
D03*
X15291D02*
D03*
D70*
X19586Y14331D02*
X20631D01*
X11946Y18793D02*
Y20438D01*
X10961Y19558D02*
Y20014D01*
X9861Y21114D02*
X10961Y20014D01*
X10969Y14377D02*
Y14833D01*
X10968D02*
Y14987D01*
X11350Y18675D02*
X11827D01*
X11752Y20650D02*
X11947Y20844D01*
X10453Y20916D02*
Y21100D01*
X11359Y19558D02*
Y19696D01*
Y19100D02*
Y19558D01*
X10570Y15486D02*
X10772Y15688D01*
X11500Y15519D02*
X11824Y15843D01*
X11359Y15378D02*
X11500Y15519D01*
X11119D02*
X11500D01*
X11359Y14833D02*
Y15378D01*
X10841Y14250D02*
X10969Y14377D01*
X10505Y14250D02*
X10841D01*
X10378Y14377D02*
X10505Y14250D01*
X20839Y21300D02*
Y21938D01*
X20131Y18867D02*
X20633D01*
X28856Y17292D02*
X29397Y16751D01*
X28438Y17292D02*
X28856D01*
X23989Y13631D02*
X24001Y14159D01*
X23850Y14317D02*
X24001Y14159D01*
X19400Y14145D02*
X19586Y14331D01*
X12737Y14159D02*
Y14833D01*
X11946Y20438D02*
X12553Y21045D01*
X12543Y19046D02*
X12918Y18672D01*
X12543Y19046D02*
Y19554D01*
X12918Y18672D02*
X13622D01*
X26548Y13631D02*
Y14100D01*
X20131Y16899D02*
X20523D01*
X20525Y16900D02*
X21007D01*
X25479Y21229D02*
X28438D01*
X23398Y21289D02*
Y21938D01*
X25564Y21314D02*
Y21938D01*
X27817Y14733D02*
X28438D01*
X18903Y18867D02*
X20131D01*
X11824Y15843D02*
X12660D01*
X12918Y15585D01*
Y15015D02*
Y15585D01*
X12737Y14833D02*
X12918Y15015D01*
X28438Y14733D02*
X29298D01*
X27790Y17292D02*
X28438D01*
X10768Y18650D02*
Y19468D01*
X11752Y19558D02*
Y20650D01*
Y19102D02*
Y19558D01*
X11650Y19000D02*
X11752Y19102D01*
X10453Y20916D02*
X11355Y20014D01*
X11359Y19100D02*
X11459Y19000D01*
X11650D01*
X11355Y19696D02*
Y20014D01*
X11827Y18675D02*
X11946Y18793D01*
X11165Y18815D02*
X11306Y18675D01*
X10178Y14833D02*
Y15378D01*
X10286Y15486D01*
X10571Y14833D02*
Y15379D01*
X10286Y15486D02*
X10570D01*
X10768Y14833D02*
X10772Y15688D01*
X10178Y14128D02*
Y14833D01*
X10378Y14377D02*
Y14633D01*
X10969Y15369D02*
X11119Y15519D01*
X10969Y14987D02*
Y15369D01*
X14222Y18672D02*
X14500Y18950D01*
X13622Y18672D02*
X14222D01*
X11165Y18815D02*
Y19554D01*
X10965Y19558D02*
X11162D01*
X19031Y16899D02*
X20131D01*
X20839Y21938D02*
Y22821D01*
X23398Y21938D02*
Y22808D01*
X25564Y21938D02*
Y22895D01*
X28438Y19261D02*
X29004D01*
X26548Y12638D02*
Y13631D01*
X23989Y12649D02*
Y13631D01*
D71*
X25434Y6700D02*
X26430D01*
X18903Y16771D02*
X19031Y16899D01*
X24257Y14724D02*
X25924D01*
X23850Y14317D02*
X24257Y14724D01*
X38550Y6297D02*
X39050Y6797D01*
X27434Y6700D02*
X28600D01*
X7954Y6300D02*
X8522D01*
X28950Y5319D02*
Y6350D01*
Y5319D02*
X29127Y5142D01*
X30482D01*
X30991Y5650D01*
X28600Y6700D02*
X28950Y6350D01*
X27080Y7350D02*
X31300D01*
X26434Y6704D02*
X27080Y7350D01*
X26430Y6700D02*
X26434Y6704D01*
X31150Y3447D02*
Y4900D01*
X30753Y3050D02*
X31150Y3447D01*
X27246Y3050D02*
X30753D01*
X27005Y3291D02*
X27246Y3050D01*
X27005Y3291D02*
Y3995D01*
X24675Y4325D02*
X26675D01*
X34870Y20330D02*
X35450D01*
X34769Y20431D02*
X34870Y20330D01*
X34769Y20431D02*
Y21868D01*
X34901Y21999D01*
X35450D01*
X35988Y23688D02*
X37084D01*
X35450Y23150D02*
X35988Y23688D01*
X35450Y22700D02*
Y23150D01*
X15961Y8059D02*
X16650D01*
X15961D02*
Y8274D01*
Y7900D02*
Y8059D01*
X16791D02*
X17050Y7800D01*
X16809Y6161D02*
X17050Y6401D01*
X16248Y5600D02*
X16809Y6161D01*
X15906Y5600D02*
X16248D01*
X17050Y6401D02*
Y7800D01*
X10453Y21100D02*
X10803Y21450D01*
X17050Y8259D02*
Y8650D01*
Y8259D02*
X17550Y7759D01*
Y6257D02*
Y7759D01*
X17350Y6057D02*
X17550Y6257D01*
Y8274D02*
X19000Y6824D01*
X17550Y8274D02*
Y14678D01*
X16603Y9097D02*
X17050Y8650D01*
X17328Y14900D02*
X17550Y14678D01*
X19000Y3509D02*
Y6824D01*
X13796Y12853D02*
Y13733D01*
Y12853D02*
X14109Y12540D01*
X11853Y12848D02*
X12326D01*
X26450Y2650D02*
X31005D01*
X18800D02*
X26450D01*
Y3750D01*
X11244Y9097D02*
X16603D01*
X23900Y3050D02*
X24325Y3475D01*
X19459Y3050D02*
X23900D01*
X24325Y3475D02*
Y3975D01*
X24675Y4325D01*
X19000Y3509D02*
X19459Y3050D01*
X31150Y4900D02*
X32050Y5800D01*
X18450Y3000D02*
X18800Y2650D01*
X18450Y3000D02*
Y3750D01*
X31005Y2650D02*
X31550Y3195D01*
X38468Y2218D02*
X39100Y2850D01*
X37789Y2218D02*
X38468D01*
X37421Y1850D02*
X37789Y2218D01*
X8950Y1850D02*
X37421D01*
X6900Y3900D02*
X8950Y1850D01*
X25924Y14724D02*
X25933Y14733D01*
X25924Y14724D02*
X26548Y14100D01*
X20631Y14331D02*
X23769D01*
X20631D02*
X21300Y15000D01*
X20620Y14320D02*
X20631Y14331D01*
X21200Y17093D02*
Y19402D01*
X21007Y16900D02*
X21200Y17093D01*
Y19402D02*
Y20939D01*
X21155Y20985D02*
X21200Y20939D01*
X20839Y21300D02*
X21155Y20985D01*
X20633Y18867D02*
X21200Y19402D01*
X29397Y17197D02*
Y18868D01*
X29730Y17530D02*
X32597D01*
X29397Y17197D02*
X29730Y17530D01*
X29397Y16751D02*
Y17197D01*
X32297Y10997D02*
X32953D01*
X33394D01*
X32547Y11403D02*
X32953Y10997D01*
X32547Y11403D02*
Y14083D01*
X31300Y7350D02*
X32050Y8100D01*
X37594Y11406D02*
Y12206D01*
Y11000D02*
Y11406D01*
X34050Y14950D02*
X37594Y11406D01*
X34050Y14950D02*
Y18707D01*
X10768Y21450D02*
X10803D01*
X12737Y14159D02*
X13162Y13733D01*
X13796D01*
X21155Y20985D02*
X23094D01*
X23339Y21229D02*
X23398Y21289D01*
X23094Y20985D02*
X23339Y21229D01*
X12850Y28850D02*
X18769Y22931D01*
X1000Y28850D02*
X12850D01*
X750Y28600D02*
X1000Y28850D01*
X28460Y26645D02*
X29400D01*
X28407Y26699D02*
X28460Y26645D01*
X27028Y26700D02*
X27029Y26699D01*
X27557D01*
X30900Y22451D02*
X32049Y23600D01*
X30900Y22000D02*
Y22451D01*
X30350Y21450D02*
X30900Y22000D01*
X29557Y21450D02*
X30350D01*
X23339Y21229D02*
X25479D01*
X16339Y20100D02*
X16683D01*
X15639Y19400D02*
X16339Y20100D01*
X16950Y17600D02*
Y18000D01*
X18900Y13550D02*
Y13700D01*
X32049Y23600D02*
X34250D01*
X32050Y8100D02*
Y8548D01*
X30991Y5650D02*
X31300D01*
X33250D02*
X37903D01*
X38550Y6297D01*
X39100Y2850D02*
Y4053D01*
X38867Y4286D02*
X39100Y4053D01*
X38550Y4286D02*
X38867D01*
X33553Y4000D02*
X34119D01*
X33350Y4203D02*
X33553Y4000D01*
X33000Y4203D02*
X33350D01*
X31550Y3195D02*
Y4000D01*
X31753Y4203D01*
X32050D01*
X750Y25550D02*
Y28600D01*
X1150Y25150D02*
X1500D01*
X750Y25550D02*
X1150Y25150D01*
X17350Y3597D02*
Y6057D01*
X26675Y4325D02*
X27005Y3995D01*
X34119Y4000D02*
X36481D01*
X18900Y13550D02*
X19200D01*
X19400Y13750D01*
Y14145D01*
X21300Y15000D02*
Y16608D01*
X21007Y16900D02*
X21300Y16608D01*
X25479Y21229D02*
X25564Y21314D01*
X11924Y23076D02*
Y23839D01*
Y23076D02*
X12553Y22447D01*
Y21100D02*
Y22447D01*
X18769Y22931D02*
X20839D01*
X34119Y8850D02*
X36481D01*
X31600Y10300D02*
X32297Y10997D01*
X29397Y13853D02*
Y14635D01*
Y13853D02*
X31600Y11650D01*
Y10300D02*
Y11650D01*
X30900Y9600D02*
X31600Y10300D01*
X30900Y9155D02*
Y9600D01*
X25933Y14733D02*
X27817D01*
X15350Y19400D02*
X15639D01*
X32050Y5800D02*
Y6297D01*
X18900Y13042D02*
Y13550D01*
X18138Y12280D02*
X18900Y13042D01*
X18138Y11324D02*
Y12280D01*
X18350Y14250D02*
X18900Y13700D01*
X18350Y14250D02*
Y14480D01*
X18294Y14536D02*
X18350Y14480D01*
X11350Y15571D02*
Y18675D01*
X8298Y9198D02*
X8400Y9300D01*
X8197Y9097D02*
X8298Y9198D01*
X9689D01*
X10503Y10012D01*
X8197Y8750D02*
Y9097D01*
X10262Y8059D02*
Y8638D01*
X11244Y11474D02*
Y12005D01*
X10262Y8059D02*
X10600D01*
X10740Y8199D01*
X11275D01*
X16809Y3597D02*
X17350D01*
X27550Y15000D02*
X27817Y14733D01*
X27550Y15000D02*
Y17052D01*
X27790Y17292D01*
X29397Y18868D02*
Y20985D01*
X31607Y21150D02*
X34050Y18707D01*
X6900Y3900D02*
Y5601D01*
X7459Y6161D01*
X29397Y21290D02*
X29557Y21450D01*
X29397Y20985D02*
Y21290D01*
X34250Y24712D02*
X34769D01*
X36150Y26093D01*
X13527Y20373D02*
X14500Y19400D01*
X13527Y20373D02*
Y23839D01*
X11924Y23839D02*
Y24706D01*
X10768Y18650D02*
X10772Y15688D01*
Y19358D02*
Y19465D01*
X10768Y19468D02*
X10772Y19465D01*
X11947Y20844D02*
Y21100D01*
X12553Y21045D02*
Y21100D01*
X11853Y12848D02*
Y12851D01*
Y12008D02*
Y12848D01*
X13796Y12853D02*
X13799D01*
X13259D02*
X13796D01*
X9153D02*
X9750D01*
X10768Y12848D02*
X10771Y12851D01*
X11247D01*
X11244Y12848D02*
X11247Y12851D01*
X11850Y12005D02*
X11853Y12008D01*
X11244Y12005D02*
Y12848D01*
X14109Y10332D02*
Y12540D01*
X9750Y13700D02*
X10178Y14128D01*
X9153Y12225D02*
Y12853D01*
X8853Y11925D02*
X9153Y12225D01*
X8853Y11300D02*
Y11925D01*
X9153Y12853D02*
Y13700D01*
X9750D01*
X9101Y10474D02*
Y11052D01*
X8853Y11300D02*
X9101Y11052D01*
X36600Y20936D02*
X38414D01*
X38550Y20800D01*
Y20050D02*
Y20800D01*
X37150Y18650D02*
X38550Y20050D01*
X35450Y20330D02*
X36600D01*
X16950Y16625D02*
X16950Y16625D01*
X16950Y16625D02*
Y17600D01*
X14500Y19400D02*
X15350D01*
X14500Y18950D02*
Y19400D01*
X7999Y10100D02*
X8247D01*
X8400Y9947D01*
Y9300D02*
Y9947D01*
X27557Y26699D02*
X28407D01*
X33650Y8850D02*
X34119D01*
X12853Y10012D02*
X13346D01*
X13666Y10332D01*
X14109D01*
X12053Y10012D02*
X12053Y10012D01*
X12853D01*
X11253Y10012D02*
X12053D01*
X11253Y10012D02*
X11253Y10012D01*
X10503Y10012D02*
X11253D01*
X7814Y6161D02*
X7954Y6300D01*
X7459Y6161D02*
X7814D01*
X15906Y3642D02*
X15951Y3597D01*
X16809D01*
X25564Y22895D02*
X25600Y22931D01*
X29004Y19261D02*
X29397Y18868D01*
X29298Y14733D02*
X29397Y14635D01*
X23989Y12649D02*
X24000Y12638D01*
X32050Y4203D02*
X33000D01*
X31702Y8548D02*
X32050D01*
X31100Y9150D02*
X31702Y8548D01*
X30905Y9150D02*
X31100D01*
X30900Y9155D02*
X30905Y9150D01*
X32050Y8548D02*
X33000D01*
X33348D02*
X33650Y8850D01*
X33000Y8548D02*
X33348D01*
X38550Y4286D02*
Y6297D01*
X39050Y6797D02*
Y9100D01*
X38944Y9206D02*
X39050Y9100D01*
X38550Y9206D02*
X38944D01*
X37594Y10656D02*
Y11000D01*
X38550Y9206D02*
Y9700D01*
X37594Y10656D02*
X38550Y9700D01*
X34310Y6190D02*
X34699D01*
X34203Y6297D02*
X34310Y6190D01*
X33000Y6297D02*
X34203D01*
X32050D02*
X33000D01*
X36550Y6190D02*
Y6800D01*
X36412Y6938D02*
X36550Y6800D01*
X35801Y6938D02*
X36412D01*
X36550Y6190D02*
X37240D01*
X35801D02*
X36550D01*
X37347Y6297D02*
X37650D01*
X37240Y6190D02*
X37347Y6297D01*
X36481Y4906D02*
X37100Y4286D01*
X37650D01*
X38550D01*
X37650Y6297D02*
X38550D01*
X37650Y9206D02*
X38550D01*
X36481Y9756D02*
X37030Y9206D01*
X37650D01*
X37150Y12650D02*
X37594Y12206D01*
D72*
X37150Y12650D02*
D03*
Y13650D02*
D03*
Y14650D02*
D03*
Y17650D02*
D03*
Y18650D02*
D03*
D73*
X29434Y6704D02*
D03*
X30450Y3750D02*
D03*
X18450D02*
D03*
D74*
X38147Y25312D02*
D03*
Y23088D02*
D03*
D75*
X37300Y23413D02*
D03*
Y24987D02*
D03*
D76*
X1500Y25150D02*
D03*
X2356Y10833D02*
D03*
D77*
X1181Y31069D02*
D03*
X38169Y31119D02*
D03*
X38219Y1181D02*
D03*
X1181D02*
D03*
D78*
X15323Y20842D02*
D03*
X14500Y20850D02*
D03*
X14386Y18082D02*
D03*
X4700Y9423D02*
D03*
Y10539D02*
D03*
Y11655D02*
D03*
Y12770D02*
D03*
Y13886D02*
D03*
Y15002D02*
D03*
Y16118D02*
D03*
Y17233D02*
D03*
Y18349D02*
D03*
Y19465D02*
D03*
Y20580D02*
D03*
Y21696D02*
D03*
Y22812D02*
D03*
Y23927D02*
D03*
X3428Y28350D02*
D03*
X3418Y27550D02*
D03*
X8898Y3312D02*
D03*
X25050Y3270D02*
D03*
X29457Y7944D02*
D03*
X39050Y5356D02*
D03*
X37762Y5012D02*
D03*
X38096Y7476D02*
D03*
X34283D02*
D03*
X38100Y6903D02*
D03*
X32525D02*
D03*
X26828Y13073D02*
D03*
X13396Y11682D02*
D03*
X24450Y22850D02*
D03*
X34283Y10161D02*
D03*
X32520Y5049D02*
D03*
X27934Y5702D02*
D03*
X26950Y5702D02*
D03*
X25950Y5700D02*
D03*
X28300Y22850D02*
D03*
X26250Y26999D02*
D03*
X2565Y9178D02*
D03*
X8247Y25950D02*
D03*
X2565Y24090D02*
D03*
X13473Y19300D02*
D03*
X11824Y22260D02*
D03*
X10358D02*
D03*
X8247D02*
D03*
X14780D02*
D03*
X21650Y25400D02*
D03*
X34283Y12150D02*
D03*
X19824Y5461D02*
D03*
X23202D02*
D03*
X18163D02*
D03*
X8480Y4000D02*
D03*
X9739Y11225D02*
D03*
X8603Y14937D02*
D03*
X14758Y14900D02*
D03*
X16550Y11673D02*
D03*
X19380Y10210D02*
D03*
X19673Y11673D02*
D03*
X26139Y10788D02*
D03*
X28350Y12150D02*
D03*
X29879D02*
D03*
X31802D02*
D03*
X31269Y16507D02*
D03*
X38350Y15650D02*
D03*
Y16950D02*
D03*
X33000Y22850D02*
D03*
X31269Y19500D02*
D03*
X18306Y26678D02*
D03*
X17498D02*
D03*
X16691D02*
D03*
X18306Y27450D02*
D03*
X17498Y27413D02*
D03*
X16691D02*
D03*
X5000Y6050D02*
D03*
X4250D02*
D03*
X3500D02*
D03*
X5000Y6704D02*
D03*
X4250D02*
D03*
X3500D02*
D03*
X30003Y14350D02*
D03*
X30003Y15404D02*
D03*
X30003Y16467D02*
D03*
Y18584D02*
D03*
Y20700D02*
D03*
Y22260D02*
D03*
X30066Y23454D02*
D03*
X29173Y24598D02*
D03*
X28000Y26100D02*
D03*
X25884Y23538D02*
D03*
X23166Y23500D02*
D03*
X21750Y23822D02*
D03*
X20839D02*
D03*
X18013Y18867D02*
D03*
Y16899D02*
D03*
X18294Y13266D02*
D03*
X14686Y13733D02*
D03*
X14690Y12853D02*
D03*
X6283Y8883D02*
D03*
X6283Y9997D02*
D03*
X6283Y11111D02*
D03*
X6283Y12225D02*
D03*
X6283Y13338D02*
D03*
X6283Y14452D02*
D03*
X6283Y15566D02*
D03*
X6284Y16650D02*
D03*
X6283Y17794D02*
D03*
X6283Y18867D02*
D03*
X6283Y20021D02*
D03*
X6283Y21135D02*
D03*
X6283Y22249D02*
D03*
X6283Y23362D02*
D03*
X6283Y24476D02*
D03*
X6283Y25590D02*
D03*
X1500Y28434D02*
D03*
X1356Y21447D02*
D03*
X8263Y12853D02*
D03*
Y13700D02*
D03*
X7963Y11300D02*
D03*
X9087Y8750D02*
D03*
X10409Y6445D02*
D03*
X7459Y5270D02*
D03*
X9459Y6445D02*
D03*
X14960Y3313D02*
D03*
X14110D02*
D03*
X13259D02*
D03*
X10982Y3886D02*
D03*
X10409Y4487D02*
D03*
X16809Y4850D02*
D03*
X14960Y5270D02*
D03*
X14110D02*
D03*
X11266Y6659D02*
D03*
X12750Y8059D02*
D03*
X10262Y7169D02*
D03*
X14110Y8344D02*
D03*
X15961Y7242D02*
D03*
X16650Y7169D02*
D03*
X18550Y8550D02*
D03*
X21900Y8400D02*
D03*
X20750Y10285D02*
D03*
X29900Y10191D02*
D03*
X28950D02*
D03*
X33000Y7303D02*
D03*
X32050D02*
D03*
X33000Y3197D02*
D03*
X32050D02*
D03*
X36481Y2694D02*
D03*
Y7544D02*
D03*
X36500Y10997D02*
D03*
X38600Y11000D02*
D03*
X36750Y14650D02*
D03*
Y17650D02*
D03*
X35450Y21336D02*
D03*
X37350Y20330D02*
D03*
X36484Y24712D02*
D03*
X34700Y26093D02*
D03*
X37650Y29600D02*
D03*
X16344Y15132D02*
D03*
X24900Y13000D02*
D03*
X21430Y21300D02*
D03*
X24900Y14254D02*
D03*
X10768Y21450D02*
D03*
X15300Y13300D02*
D03*
X11950Y13927D02*
D03*
X12329Y12851D02*
D03*
X19900Y21900D02*
D03*
X27028Y26700D02*
D03*
X17328Y14900D02*
D03*
X15200Y17150D02*
D03*
X16750Y20100D02*
D03*
X15238Y18472D02*
D03*
X16950Y18000D02*
D03*
X17050Y19561D02*
D03*
X23697Y17150D02*
D03*
X22950Y12031D02*
D03*
X23350Y16300D02*
D03*
X23000Y15719D02*
D03*
X23150Y11550D02*
D03*
X23447Y11000D02*
D03*
X22650Y15050D02*
D03*
Y12500D02*
D03*
X24000Y11700D02*
D03*
X25754Y12900D02*
D03*
X31300Y5650D02*
D03*
X33250D02*
D03*
X27082Y10450D02*
D03*
X12935Y16703D02*
D03*
X12737Y20245D02*
D03*
X12935Y17294D02*
D03*
X13623Y15400D02*
D03*
X14500Y20400D02*
D03*
X15350D02*
D03*
X17700Y15650D02*
D03*
X31100Y13550D02*
D03*
X30595Y14200D02*
D03*
X25515Y24700D02*
D03*
X25564Y14317D02*
D03*
X27100Y11000D02*
D03*
X26548Y11750D02*
D03*
X28850Y13927D02*
D03*
X27729Y12729D02*
D03*
X20400Y7300D02*
D03*
X30850Y10222D02*
D03*
X19450Y23600D02*
D03*
X19500Y15521D02*
D03*
X12540D02*
D03*
X10262Y8638D02*
D03*
X11244Y9097D02*
D03*
Y11474D02*
D03*
X31607Y21150D02*
D03*
X34250Y23600D02*
D03*
Y24712D02*
D03*
X10768Y18650D02*
D03*
X20942Y16308D02*
D03*
X19059Y17500D02*
D03*
X450Y20639D02*
D03*
X2306Y22850D02*
D03*
X9750Y12853D02*
D03*
X13259D02*
D03*
X10768Y12848D02*
D03*
X27082Y9500D02*
D03*
X28050Y9450D02*
D03*
X28991Y8250D02*
D03*
X29957D02*
D03*
X32050Y9500D02*
D03*
X33000D02*
D03*
X38550Y3350D02*
D03*
X37650D02*
D03*
X36050Y6564D02*
D03*
X37650Y8274D02*
D03*
X38550Y8300D02*
D03*
M02*
