G04*
G04 #@! TF.GenerationSoftware,Altium Limited,Altium Designer,18.1.9 (240)*
G04*
G04 Layer_Physical_Order=4*
G04 Layer_Color=16711680*
%FSLAX24Y24*%
%MOIN*%
G70*
G01*
G75*
%ADD14C,0.0100*%
%ADD16C,0.0060*%
%ADD19C,0.0050*%
%ADD27O,0.0335X0.0138*%
%ADD28R,0.0335X0.0138*%
%ADD33R,0.0787X0.0787*%
%ADD82C,0.0300*%
%ADD83C,0.0150*%
%ADD84C,0.0591*%
%ADD85R,0.0591X0.0591*%
%ADD86R,0.0591X0.0591*%
%ADD87R,0.0591X0.0315*%
%ADD88C,0.0197*%
%ADD89C,0.0472*%
%ADD90C,0.0354*%
%ADD91C,0.1378*%
%ADD92C,0.0240*%
%ADD100R,0.0492X0.0394*%
%ADD101R,0.0787X0.0551*%
%ADD102R,0.0787X0.0591*%
%ADD103R,0.0787X0.0591*%
%ADD104R,0.0787X0.0315*%
%ADD105R,0.0787X0.0335*%
G36*
X14450Y27559D02*
Y26364D01*
X10355D01*
X10353Y26365D01*
X10300Y26368D01*
X10258Y26375D01*
X10223Y26387D01*
X10194Y26402D01*
X10171Y26421D01*
X10152Y26444D01*
X10137Y26473D01*
X10125Y26508D01*
X10118Y26550D01*
X10116Y26588D01*
X10117Y26626D01*
X10120Y26649D01*
X10123Y26671D01*
X10127Y26690D01*
X10132Y26706D01*
X10137Y26719D01*
X10142Y26730D01*
X10147Y26737D01*
X10155Y26746D01*
X10157Y26752D01*
X10210Y26821D01*
X10246Y26907D01*
X10258Y27000D01*
X10246Y27093D01*
X10210Y27179D01*
X10153Y27253D01*
X10079Y27310D01*
X9993Y27346D01*
X9900Y27358D01*
X9807Y27346D01*
X9721Y27310D01*
X9647Y27253D01*
X9590Y27179D01*
X9554Y27093D01*
X9542Y27000D01*
X9554Y26907D01*
X9590Y26821D01*
X9643Y26752D01*
X9645Y26746D01*
X9653Y26737D01*
X9658Y26730D01*
X9663Y26719D01*
X9668Y26706D01*
X9673Y26690D01*
X9677Y26671D01*
X9680Y26650D01*
X9685Y26597D01*
X9685Y26567D01*
X9686Y26565D01*
Y26150D01*
Y23650D01*
X9000D01*
X9000Y22300D01*
X5114D01*
Y23586D01*
X7050D01*
X7132Y23602D01*
X7201Y23649D01*
X7248Y23718D01*
X7264Y23800D01*
X7248Y23882D01*
X7201Y23951D01*
X7132Y23998D01*
X7050Y24014D01*
X5000D01*
X4918Y23998D01*
X4849Y23951D01*
X4749Y23851D01*
X4702Y23782D01*
X4686Y23700D01*
Y22300D01*
X1560D01*
Y24200D01*
X0D01*
Y26610D01*
X49Y26616D01*
X92Y26475D01*
X162Y26344D01*
X255Y26230D01*
X369Y26137D01*
X499Y26067D01*
X641Y26024D01*
X787Y26010D01*
X934Y26024D01*
X1075Y26067D01*
X1206Y26137D01*
X1320Y26230D01*
X1413Y26344D01*
X1483Y26475D01*
X1526Y26616D01*
X1540Y26763D01*
X1526Y26909D01*
X1483Y27051D01*
X1413Y27181D01*
X1320Y27295D01*
X1206Y27388D01*
X1075Y27458D01*
X934Y27501D01*
X850Y27509D01*
X852Y27559D01*
X14450Y27559D01*
D02*
G37*
G36*
X10096Y26777D02*
X10086Y26763D01*
X10078Y26746D01*
X10070Y26727D01*
X10064Y26706D01*
X10059Y26683D01*
X10055Y26658D01*
X10052Y26630D01*
X10051Y26587D01*
X10053Y26543D01*
X10062Y26492D01*
X10077Y26447D01*
X10098Y26408D01*
X10125Y26375D01*
X10158Y26348D01*
X10197Y26327D01*
X10242Y26312D01*
X10293Y26303D01*
X10350Y26300D01*
Y26000D01*
X10293Y25997D01*
X10242Y25988D01*
X10197Y25973D01*
X10158Y25952D01*
X10125Y25925D01*
X10098Y25892D01*
X10077Y25853D01*
X10062Y25808D01*
X10053Y25757D01*
X10050Y25700D01*
X9750Y26150D01*
X10029Y26569D01*
X9750D01*
X9749Y26600D01*
X9745Y26658D01*
X9741Y26683D01*
X9736Y26706D01*
X9730Y26727D01*
X9722Y26746D01*
X9714Y26763D01*
X9704Y26777D01*
X9693Y26789D01*
X10107D01*
X10096Y26777D01*
D02*
G37*
G36*
X20550Y25626D02*
X20558Y25517D01*
X20560Y25508D01*
X20562Y25501D01*
X20565Y25497D01*
X20235D01*
X20238Y25501D01*
X20240Y25508D01*
X20242Y25517D01*
X20244Y25529D01*
X20248Y25560D01*
X20249Y25601D01*
X20250Y25653D01*
X20550D01*
X20550Y25626D01*
D02*
G37*
G36*
X31496Y-0D02*
X6299Y0D01*
Y224D01*
Y2650D01*
X6349Y2700D01*
X12800D01*
Y12586D01*
X12786Y12600D01*
X8364D01*
Y18100D01*
X8348Y18182D01*
X8301Y18251D01*
X8051Y18501D01*
X7982Y18548D01*
X7900Y18564D01*
X5998D01*
X5997Y18565D01*
X5941Y18566D01*
X5895Y18570D01*
X5855Y18577D01*
X5823Y18585D01*
X5799Y18595D01*
X5782Y18605D01*
X5771Y18614D01*
X5765Y18623D01*
X5762Y18633D01*
X5759Y18653D01*
X5756Y18659D01*
Y18707D01*
X5704D01*
X5695Y18711D01*
X5691Y18709D01*
X5688Y18710D01*
X5682Y18707D01*
X5144D01*
Y18193D01*
X5436D01*
Y18089D01*
X5261Y17914D01*
X1986D01*
X1984Y17915D01*
X1924Y17917D01*
X1901Y17920D01*
X1879Y17923D01*
X1860Y17927D01*
X1844Y17932D01*
X1831Y17937D01*
X1820Y17942D01*
X1813Y17947D01*
X1804Y17955D01*
X1798Y17957D01*
X1729Y18010D01*
X1643Y18046D01*
X1550Y18058D01*
X1457Y18046D01*
X1371Y18010D01*
X1297Y17953D01*
X1240Y17879D01*
X1204Y17793D01*
X1192Y17700D01*
X1204Y17607D01*
X1240Y17521D01*
X1297Y17447D01*
X1371Y17390D01*
X1457Y17354D01*
X1550Y17342D01*
X1643Y17354D01*
X1729Y17390D01*
X1798Y17443D01*
X1804Y17445D01*
X1813Y17453D01*
X1820Y17458D01*
X1831Y17463D01*
X1844Y17468D01*
X1860Y17473D01*
X1879Y17477D01*
X1900Y17480D01*
X1953Y17485D01*
X1983Y17485D01*
X1985Y17486D01*
X5350D01*
X5432Y17502D01*
X5501Y17549D01*
X5801Y17849D01*
X5848Y17918D01*
X5864Y18000D01*
Y18136D01*
X5993D01*
X5995Y18135D01*
X5997Y18136D01*
X7811D01*
X7936Y18011D01*
Y12600D01*
X7700D01*
Y11064D01*
X5239D01*
X5214Y11089D01*
Y16400D01*
Y16650D01*
X5198Y16732D01*
X5156Y16794D01*
Y16907D01*
X4544D01*
Y16393D01*
X4666D01*
X4696Y16343D01*
X4694Y16339D01*
X4691Y16338D01*
X1734D01*
X1724Y16388D01*
X1729Y16390D01*
X1803Y16447D01*
X1860Y16521D01*
X1896Y16607D01*
X1908Y16700D01*
X1896Y16793D01*
X1860Y16879D01*
X1803Y16953D01*
X1729Y17010D01*
X1643Y17046D01*
X1550Y17058D01*
X1457Y17046D01*
X1371Y17010D01*
X1297Y16953D01*
X1240Y16879D01*
X1204Y16793D01*
X1192Y16700D01*
X1204Y16607D01*
X1240Y16521D01*
X1297Y16447D01*
X1371Y16390D01*
X1376Y16388D01*
X1366Y16338D01*
X1207D01*
X1138Y16407D01*
Y17550D01*
X1127Y17603D01*
X1097Y17647D01*
X947Y17797D01*
X903Y17827D01*
X880Y17832D01*
X860Y17879D01*
X803Y17953D01*
X729Y18010D01*
X643Y18046D01*
X550Y18058D01*
X457Y18046D01*
X371Y18010D01*
X297Y17953D01*
X240Y17879D01*
X204Y17793D01*
X192Y17700D01*
X204Y17607D01*
X240Y17521D01*
X297Y17447D01*
X371Y17390D01*
X457Y17354D01*
X550Y17342D01*
X643Y17354D01*
X729Y17390D01*
X803Y17447D01*
X812Y17458D01*
X862Y17441D01*
Y16350D01*
X873Y16297D01*
X903Y16253D01*
X1053Y16103D01*
X1097Y16073D01*
X1150Y16062D01*
X1366D01*
X1376Y16012D01*
X1371Y16010D01*
X1297Y15953D01*
X1240Y15879D01*
X1204Y15793D01*
X1192Y15700D01*
X1204Y15607D01*
X1240Y15521D01*
X1297Y15447D01*
X1371Y15390D01*
X1457Y15354D01*
X1550Y15342D01*
X1643Y15354D01*
X1729Y15390D01*
X1803Y15447D01*
X1860Y15521D01*
X1896Y15607D01*
X1908Y15700D01*
X1896Y15793D01*
X1860Y15879D01*
X1803Y15953D01*
X1729Y16010D01*
X1724Y16012D01*
X1734Y16062D01*
X4786D01*
Y11000D01*
X4802Y10918D01*
X4849Y10849D01*
X4999Y10699D01*
X5068Y10652D01*
X5150Y10636D01*
X7700D01*
Y9750D01*
X7689Y9739D01*
X3700D01*
X3650Y9689D01*
Y4800D01*
X-0Y4800D01*
X0Y24000D01*
X1400D01*
Y22133D01*
X1433Y22100D01*
X4686D01*
Y20807D01*
X4575D01*
Y20327D01*
X4461Y20214D01*
X889D01*
X808Y20295D01*
X829Y20345D01*
X905D01*
Y21055D01*
X195D01*
Y20345D01*
X331D01*
X335Y20248D01*
X337Y20243D01*
X352Y20168D01*
X399Y20099D01*
X649Y19849D01*
X718Y19802D01*
X800Y19786D01*
X4550D01*
X4632Y19802D01*
X4701Y19849D01*
X5051Y20199D01*
X5098Y20268D01*
X5103Y20293D01*
X5187D01*
Y20807D01*
X5114D01*
Y22100D01*
X9200D01*
Y23400D01*
X9250Y23450D01*
X9686D01*
Y20465D01*
X9522Y20301D01*
X9475Y20232D01*
X9459Y20150D01*
Y15373D01*
X9475Y15291D01*
X9522Y15222D01*
X9591Y15175D01*
X9673Y15159D01*
X9755Y15175D01*
X9825Y15222D01*
X9871Y15291D01*
X9887Y15373D01*
Y19936D01*
X12161D01*
X12336Y19761D01*
Y13400D01*
X12352Y13318D01*
X12399Y13249D01*
X12468Y13202D01*
X12550Y13186D01*
X12632Y13202D01*
X12701Y13249D01*
X12748Y13318D01*
X12764Y13400D01*
Y19850D01*
X12748Y19932D01*
X12701Y20001D01*
X12401Y20301D01*
X12332Y20348D01*
X12250Y20364D01*
X10124D01*
X10114Y20377D01*
Y23450D01*
X14625D01*
X14600Y23474D01*
Y25936D01*
X20011D01*
X20186Y25761D01*
Y25655D01*
X20185Y25653D01*
X20184Y25603D01*
X20183Y25565D01*
X20180Y25538D01*
X20179Y25531D01*
X20178Y25528D01*
X20177Y25525D01*
X20177Y25524D01*
X20141Y25478D01*
X20111Y25406D01*
X20101Y25328D01*
X20111Y25251D01*
X20141Y25179D01*
X20189Y25117D01*
X20251Y25070D01*
X20323Y25040D01*
X20400Y25030D01*
X20477Y25040D01*
X20549Y25070D01*
X20611Y25117D01*
X20659Y25179D01*
X20689Y25251D01*
X20699Y25328D01*
X20689Y25406D01*
X20659Y25478D01*
X20623Y25524D01*
X20623Y25525D01*
X20622Y25528D01*
X20615Y25628D01*
X20615Y25653D01*
X20614Y25655D01*
Y25850D01*
X20598Y25932D01*
X20551Y26001D01*
X20251Y26301D01*
X20182Y26348D01*
X20100Y26364D01*
X14600D01*
Y27559D01*
X31496D01*
X31496Y-0D01*
D02*
G37*
G36*
X14450Y23675D02*
X14425Y23650D01*
X10114D01*
Y25695D01*
X10115Y25697D01*
X10118Y25750D01*
X10125Y25792D01*
X10137Y25827D01*
X10152Y25856D01*
X10171Y25879D01*
X10194Y25898D01*
X10223Y25913D01*
X10258Y25925D01*
X10300Y25932D01*
X10353Y25935D01*
X10355Y25936D01*
X14450D01*
Y23675D01*
D02*
G37*
G36*
X705Y20404D02*
X704Y20400D01*
X703Y20392D01*
X701Y20367D01*
X700Y20250D01*
X400D01*
X394Y20406D01*
X706D01*
X705Y20404D01*
D02*
G37*
G36*
X5698Y18618D02*
X5707Y18593D01*
X5722Y18571D01*
X5743Y18552D01*
X5770Y18536D01*
X5803Y18523D01*
X5842Y18513D01*
X5887Y18506D01*
X5938Y18501D01*
X5995Y18500D01*
Y18200D01*
X5695Y18254D01*
Y18646D01*
X5698Y18618D01*
D02*
G37*
G36*
X1773Y17896D02*
X1787Y17886D01*
X1804Y17878D01*
X1823Y17870D01*
X1844Y17864D01*
X1867Y17859D01*
X1892Y17855D01*
X1920Y17852D01*
X1981Y17850D01*
Y17550D01*
X1950Y17549D01*
X1892Y17545D01*
X1867Y17541D01*
X1844Y17536D01*
X1823Y17530D01*
X1804Y17522D01*
X1787Y17514D01*
X1773Y17504D01*
X1761Y17493D01*
Y17907D01*
X1773Y17896D01*
D02*
G37*
G36*
X5020Y16251D02*
X5006Y16249D01*
X4990Y16244D01*
X4975Y16238D01*
X4959Y16230D01*
X4942Y16220D01*
X4925Y16209D01*
X4908Y16196D01*
X4872Y16165D01*
X4853Y16147D01*
X4747Y16253D01*
X4765Y16272D01*
X4796Y16308D01*
X4809Y16325D01*
X4820Y16342D01*
X4830Y16359D01*
X4838Y16375D01*
X4844Y16390D01*
X4849Y16406D01*
X4851Y16420D01*
X5020Y16251D01*
D02*
G37*
G36*
X12600Y2908D02*
X12581Y2900D01*
X6087D01*
X6100Y2887D01*
Y0D01*
X940D01*
X934Y49D01*
X1075Y92D01*
X1206Y162D01*
X1320Y255D01*
X1413Y369D01*
X1483Y499D01*
X1526Y641D01*
X1540Y787D01*
X1526Y934D01*
X1483Y1075D01*
X1413Y1206D01*
X1320Y1320D01*
X1206Y1413D01*
X1075Y1483D01*
X934Y1526D01*
X787Y1540D01*
X641Y1526D01*
X499Y1483D01*
X369Y1413D01*
X255Y1320D01*
X162Y1206D01*
X92Y1075D01*
X49Y934D01*
X0Y940D01*
Y4600D01*
X3850D01*
Y9547D01*
X7900Y9550D01*
Y10636D01*
X8750D01*
X8832Y10652D01*
X8901Y10699D01*
X9151Y10949D01*
X9198Y11018D01*
X9214Y11100D01*
Y11250D01*
X9198Y11332D01*
X9151Y11401D01*
X9082Y11448D01*
X9000Y11464D01*
X8918Y11448D01*
X8849Y11401D01*
X8802Y11332D01*
X8786Y11250D01*
Y11189D01*
X8661Y11064D01*
X8333D01*
X8312Y11114D01*
X8348Y11168D01*
X8364Y11250D01*
Y12400D01*
X12600D01*
Y2908D01*
D02*
G37*
%LPC*%
G36*
X14255Y27355D02*
X13545D01*
Y26645D01*
X14255D01*
Y27355D01*
D02*
G37*
G36*
X12900Y27358D02*
X12807Y27346D01*
X12721Y27310D01*
X12647Y27253D01*
X12590Y27179D01*
X12554Y27093D01*
X12542Y27000D01*
X12554Y26907D01*
X12590Y26821D01*
X12647Y26747D01*
X12721Y26690D01*
X12807Y26654D01*
X12900Y26642D01*
X12993Y26654D01*
X13079Y26690D01*
X13153Y26747D01*
X13210Y26821D01*
X13246Y26907D01*
X13258Y27000D01*
X13246Y27093D01*
X13210Y27179D01*
X13153Y27253D01*
X13079Y27310D01*
X12993Y27346D01*
X12900Y27358D01*
D02*
G37*
G36*
X11900D02*
X11807Y27346D01*
X11721Y27310D01*
X11647Y27253D01*
X11590Y27179D01*
X11554Y27093D01*
X11542Y27000D01*
X11554Y26907D01*
X11590Y26821D01*
X11647Y26747D01*
X11721Y26690D01*
X11807Y26654D01*
X11900Y26642D01*
X11993Y26654D01*
X12079Y26690D01*
X12153Y26747D01*
X12210Y26821D01*
X12246Y26907D01*
X12258Y27000D01*
X12246Y27093D01*
X12210Y27179D01*
X12153Y27253D01*
X12079Y27310D01*
X11993Y27346D01*
X11900Y27358D01*
D02*
G37*
G36*
X8900D02*
X8807Y27346D01*
X8721Y27310D01*
X8647Y27253D01*
X8590Y27179D01*
X8554Y27093D01*
X8542Y27000D01*
X8554Y26907D01*
X8590Y26821D01*
X8647Y26747D01*
X8721Y26690D01*
X8807Y26654D01*
X8900Y26642D01*
X8993Y26654D01*
X9079Y26690D01*
X9153Y26747D01*
X9210Y26821D01*
X9246Y26907D01*
X9258Y27000D01*
X9246Y27093D01*
X9210Y27179D01*
X9153Y27253D01*
X9079Y27310D01*
X8993Y27346D01*
X8900Y27358D01*
D02*
G37*
G36*
X21187Y27399D02*
X21110Y27389D01*
X21038Y27359D01*
X20976Y27311D01*
X20929Y27249D01*
X20899Y27177D01*
X20889Y27100D01*
X20899Y27023D01*
X20929Y26951D01*
X20976Y26889D01*
X21038Y26841D01*
X21110Y26811D01*
X21187Y26801D01*
X21265Y26811D01*
X21337Y26841D01*
X21399Y26889D01*
X21446Y26951D01*
X21476Y27023D01*
X21486Y27100D01*
X21476Y27177D01*
X21446Y27249D01*
X21399Y27311D01*
X21337Y27359D01*
X21265Y27389D01*
X21187Y27399D01*
D02*
G37*
G36*
X20400D02*
X20323Y27389D01*
X20251Y27359D01*
X20189Y27311D01*
X20141Y27249D01*
X20111Y27177D01*
X20101Y27100D01*
X20111Y27023D01*
X20141Y26951D01*
X20189Y26889D01*
X20251Y26841D01*
X20323Y26811D01*
X20400Y26801D01*
X20477Y26811D01*
X20549Y26841D01*
X20611Y26889D01*
X20659Y26951D01*
X20689Y27023D01*
X20699Y27100D01*
X20689Y27177D01*
X20659Y27249D01*
X20611Y27311D01*
X20549Y27359D01*
X20477Y27389D01*
X20400Y27399D01*
D02*
G37*
G36*
X19613D02*
X19535Y27389D01*
X19463Y27359D01*
X19401Y27311D01*
X19354Y27249D01*
X19324Y27177D01*
X19314Y27100D01*
X19324Y27023D01*
X19354Y26951D01*
X19401Y26889D01*
X19463Y26841D01*
X19535Y26811D01*
X19613Y26801D01*
X19690Y26811D01*
X19762Y26841D01*
X19824Y26889D01*
X19871Y26951D01*
X19901Y27023D01*
X19911Y27100D01*
X19901Y27177D01*
X19871Y27249D01*
X19824Y27311D01*
X19762Y27359D01*
X19690Y27389D01*
X19613Y27399D01*
D02*
G37*
G36*
X27455Y26905D02*
X26745D01*
Y26811D01*
X26743Y26807D01*
X26740Y26786D01*
X26737Y26775D01*
X26730Y26766D01*
X26719Y26756D01*
X26702Y26746D01*
X26678Y26736D01*
X26646Y26727D01*
X26606Y26720D01*
X26559Y26716D01*
X26504Y26715D01*
X26502Y26714D01*
X22550D01*
X22468Y26698D01*
X22399Y26651D01*
X22149Y26401D01*
X22102Y26332D01*
X22086Y26250D01*
Y23550D01*
X22102Y23468D01*
X22149Y23399D01*
X22218Y23352D01*
X22300Y23336D01*
X22382Y23352D01*
X22451Y23399D01*
X22498Y23468D01*
X22514Y23550D01*
Y26161D01*
X22639Y26286D01*
X26502D01*
X26504Y26285D01*
X26609Y26281D01*
X26650Y26277D01*
X26684Y26271D01*
X26711Y26265D01*
X26730Y26257D01*
X26740Y26252D01*
X26741Y26250D01*
X26742Y26245D01*
X26745Y26241D01*
Y26195D01*
X26797D01*
X26806Y26191D01*
X26811Y26193D01*
X26817Y26192D01*
X26821Y26195D01*
X27455D01*
Y26905D01*
D02*
G37*
G36*
X21187Y25627D02*
X21110Y25617D01*
X21038Y25587D01*
X20976Y25540D01*
X20929Y25478D01*
X20899Y25406D01*
X20889Y25328D01*
X20899Y25251D01*
X20929Y25179D01*
X20976Y25117D01*
X21038Y25070D01*
X21110Y25040D01*
X21187Y25030D01*
X21265Y25040D01*
X21337Y25070D01*
X21399Y25117D01*
X21446Y25179D01*
X21476Y25251D01*
X21486Y25328D01*
X21476Y25406D01*
X21446Y25478D01*
X21399Y25540D01*
X21337Y25587D01*
X21265Y25617D01*
X21187Y25627D01*
D02*
G37*
G36*
X19613D02*
X19535Y25617D01*
X19463Y25587D01*
X19401Y25540D01*
X19354Y25478D01*
X19324Y25406D01*
X19314Y25328D01*
X19324Y25251D01*
X19354Y25179D01*
X19401Y25117D01*
X19463Y25070D01*
X19535Y25040D01*
X19613Y25030D01*
X19690Y25040D01*
X19762Y25070D01*
X19824Y25117D01*
X19871Y25179D01*
X19901Y25251D01*
X19911Y25328D01*
X19901Y25406D01*
X19871Y25478D01*
X19824Y25540D01*
X19762Y25587D01*
X19690Y25617D01*
X19613Y25627D01*
D02*
G37*
G36*
X30705Y24142D02*
X29995D01*
Y23707D01*
X30705D01*
Y24142D01*
D02*
G37*
G36*
X29504Y23761D02*
X29442Y23749D01*
X29389Y23714D01*
X29354Y23661D01*
X29342Y23600D01*
X29354Y23538D01*
X29389Y23485D01*
X29442Y23450D01*
X29504Y23438D01*
X29565Y23450D01*
X29618Y23485D01*
X29653Y23538D01*
X29665Y23600D01*
X29653Y23661D01*
X29618Y23714D01*
X29565Y23749D01*
X29504Y23761D01*
D02*
G37*
G36*
X26725Y23434D02*
X26655Y23420D01*
X26595Y23380D01*
X26555Y23320D01*
X26541Y23250D01*
X26555Y23180D01*
X26595Y23120D01*
X26655Y23080D01*
X26725Y23066D01*
X26795Y23080D01*
X26855Y23120D01*
X26895Y23180D01*
X26909Y23250D01*
X26895Y23320D01*
X26855Y23380D01*
X26795Y23420D01*
X26725Y23434D01*
D02*
G37*
G36*
X26150D02*
X26080Y23420D01*
X26020Y23380D01*
X25980Y23320D01*
X25966Y23250D01*
X25980Y23180D01*
X26020Y23120D01*
X26080Y23080D01*
X26150Y23066D01*
X26220Y23080D01*
X26280Y23120D01*
X26320Y23180D01*
X26334Y23250D01*
X26320Y23320D01*
X26280Y23380D01*
X26220Y23420D01*
X26150Y23434D01*
D02*
G37*
G36*
X16300Y23358D02*
X16207Y23346D01*
X16121Y23310D01*
X16047Y23253D01*
X15990Y23179D01*
X15954Y23093D01*
X15942Y23000D01*
X15954Y22907D01*
X15990Y22821D01*
X16047Y22747D01*
X16121Y22690D01*
X16207Y22654D01*
X16300Y22642D01*
X16393Y22654D01*
X16479Y22690D01*
X16553Y22747D01*
X16610Y22821D01*
X16646Y22907D01*
X16658Y23000D01*
X16646Y23093D01*
X16610Y23179D01*
X16553Y23253D01*
X16479Y23310D01*
X16393Y23346D01*
X16300Y23358D01*
D02*
G37*
G36*
X15300D02*
X15207Y23346D01*
X15121Y23310D01*
X15047Y23253D01*
X14990Y23179D01*
X14954Y23093D01*
X14942Y23000D01*
X14954Y22907D01*
X14990Y22821D01*
X15047Y22747D01*
X15121Y22690D01*
X15207Y22654D01*
X15300Y22642D01*
X15393Y22654D01*
X15479Y22690D01*
X15553Y22747D01*
X15610Y22821D01*
X15646Y22907D01*
X15658Y23000D01*
X15646Y23093D01*
X15610Y23179D01*
X15553Y23253D01*
X15479Y23310D01*
X15393Y23346D01*
X15300Y23358D01*
D02*
G37*
G36*
X26725Y22996D02*
X26655Y22982D01*
X26595Y22942D01*
X26555Y22882D01*
X26541Y22812D01*
X26555Y22742D01*
X26595Y22682D01*
X26655Y22643D01*
X26725Y22629D01*
X26795Y22643D01*
X26855Y22682D01*
X26895Y22742D01*
X26909Y22812D01*
X26895Y22882D01*
X26855Y22942D01*
X26795Y22982D01*
X26725Y22996D01*
D02*
G37*
G36*
X26150D02*
X26080Y22982D01*
X26020Y22942D01*
X25980Y22882D01*
X25966Y22812D01*
X25980Y22742D01*
X26020Y22682D01*
X26080Y22643D01*
X26150Y22629D01*
X26220Y22643D01*
X26280Y22682D01*
X26320Y22742D01*
X26334Y22812D01*
X26320Y22882D01*
X26280Y22942D01*
X26220Y22982D01*
X26150Y22996D01*
D02*
G37*
G36*
X550Y23058D02*
X457Y23046D01*
X371Y23010D01*
X297Y22953D01*
X240Y22879D01*
X204Y22793D01*
X192Y22700D01*
X204Y22607D01*
X240Y22521D01*
X297Y22447D01*
X371Y22390D01*
X457Y22354D01*
X550Y22342D01*
X643Y22354D01*
X729Y22390D01*
X803Y22447D01*
X860Y22521D01*
X896Y22607D01*
X908Y22700D01*
X896Y22793D01*
X860Y22879D01*
X803Y22953D01*
X729Y23010D01*
X643Y23046D01*
X550Y23058D01*
D02*
G37*
G36*
X29504Y22186D02*
X29442Y22174D01*
X29389Y22139D01*
X29354Y22087D01*
X29342Y22025D01*
X29354Y21963D01*
X29389Y21911D01*
X29442Y21876D01*
X29504Y21863D01*
X29565Y21876D01*
X29618Y21911D01*
X29653Y21963D01*
X29665Y22025D01*
X29653Y22087D01*
X29618Y22139D01*
X29565Y22174D01*
X29504Y22186D01*
D02*
G37*
G36*
X28600Y22221D02*
X28530Y22207D01*
X28470Y22168D01*
X28430Y22108D01*
X28416Y22038D01*
X28430Y21968D01*
X28470Y21908D01*
X28530Y21868D01*
X28600Y21854D01*
X28670Y21868D01*
X28730Y21908D01*
X28770Y21968D01*
X28784Y22038D01*
X28770Y22108D01*
X28730Y22168D01*
X28670Y22207D01*
X28600Y22221D01*
D02*
G37*
G36*
X27478D02*
X27408Y22207D01*
X27348Y22168D01*
X27309Y22108D01*
X27295Y22038D01*
X27309Y21968D01*
X27348Y21908D01*
X27408Y21868D01*
X27478Y21854D01*
X27548Y21868D01*
X27608Y21908D01*
X27648Y21968D01*
X27662Y22038D01*
X27648Y22108D01*
X27608Y22168D01*
X27548Y22207D01*
X27478Y22221D01*
D02*
G37*
G36*
X26356D02*
X26286Y22207D01*
X26226Y22168D01*
X26187Y22108D01*
X26173Y22038D01*
X26187Y21968D01*
X26226Y21908D01*
X26286Y21868D01*
X26356Y21854D01*
X26426Y21868D01*
X26486Y21908D01*
X26526Y21968D01*
X26540Y22038D01*
X26526Y22108D01*
X26486Y22168D01*
X26426Y22207D01*
X26356Y22221D01*
D02*
G37*
G36*
X25234D02*
X25164Y22207D01*
X25104Y22168D01*
X25065Y22108D01*
X25051Y22038D01*
X25065Y21968D01*
X25104Y21908D01*
X25164Y21868D01*
X25234Y21854D01*
X25305Y21868D01*
X25364Y21908D01*
X25404Y21968D01*
X25418Y22038D01*
X25404Y22108D01*
X25364Y22168D01*
X25305Y22207D01*
X25234Y22221D01*
D02*
G37*
G36*
X16300Y22358D02*
X16207Y22346D01*
X16121Y22310D01*
X16047Y22253D01*
X15990Y22179D01*
X15954Y22093D01*
X15942Y22000D01*
X15954Y21907D01*
X15990Y21821D01*
X16047Y21747D01*
X16121Y21690D01*
X16207Y21654D01*
X16300Y21642D01*
X16393Y21654D01*
X16479Y21690D01*
X16553Y21747D01*
X16610Y21821D01*
X16646Y21907D01*
X16658Y22000D01*
X16646Y22093D01*
X16610Y22179D01*
X16553Y22253D01*
X16479Y22310D01*
X16393Y22346D01*
X16300Y22358D01*
D02*
G37*
G36*
X15300D02*
X15207Y22346D01*
X15121Y22310D01*
X15047Y22253D01*
X14990Y22179D01*
X14954Y22093D01*
X14942Y22000D01*
X14954Y21907D01*
X14990Y21821D01*
X15047Y21747D01*
X15121Y21690D01*
X15207Y21654D01*
X15300Y21642D01*
X15393Y21654D01*
X15479Y21690D01*
X15553Y21747D01*
X15610Y21821D01*
X15646Y21907D01*
X15658Y22000D01*
X15646Y22093D01*
X15610Y22179D01*
X15553Y22253D01*
X15479Y22310D01*
X15393Y22346D01*
X15300Y22358D01*
D02*
G37*
G36*
X30705Y21917D02*
X29995D01*
Y21483D01*
X30705D01*
Y21917D01*
D02*
G37*
G36*
X550Y22058D02*
X457Y22046D01*
X371Y22010D01*
X297Y21953D01*
X240Y21879D01*
X204Y21793D01*
X192Y21700D01*
X204Y21607D01*
X240Y21521D01*
X297Y21447D01*
X371Y21390D01*
X457Y21354D01*
X550Y21342D01*
X643Y21354D01*
X729Y21390D01*
X803Y21447D01*
X860Y21521D01*
X896Y21607D01*
X908Y21700D01*
X896Y21793D01*
X860Y21879D01*
X803Y21953D01*
X729Y22010D01*
X643Y22046D01*
X550Y22058D01*
D02*
G37*
G36*
X15300Y21358D02*
X15207Y21346D01*
X15121Y21310D01*
X15047Y21253D01*
X14990Y21179D01*
X14954Y21093D01*
X14942Y21000D01*
X14954Y20907D01*
X14990Y20821D01*
X15047Y20747D01*
X15121Y20690D01*
X15187Y20662D01*
X15177Y20612D01*
X14700D01*
X14700Y20612D01*
X14657Y20604D01*
X14621Y20579D01*
X14621Y20579D01*
X14436Y20395D01*
X14412Y20359D01*
X14404Y20316D01*
X14404Y20316D01*
Y19639D01*
X14401Y19633D01*
X14401Y19623D01*
X14400Y19615D01*
X14399Y19609D01*
X14398Y19603D01*
X14396Y19598D01*
X14394Y19594D01*
X14393Y19590D01*
X14391Y19587D01*
X14389Y19585D01*
X14384Y19580D01*
X14382Y19574D01*
X14346Y19520D01*
X14332Y19450D01*
X14346Y19380D01*
X14386Y19320D01*
X14446Y19280D01*
X14516Y19266D01*
X14586Y19280D01*
X14646Y19320D01*
X14685Y19380D01*
X14699Y19450D01*
X14685Y19520D01*
X14650Y19574D01*
X14647Y19580D01*
X14643Y19585D01*
X14641Y19587D01*
X14639Y19590D01*
X14637Y19594D01*
X14635Y19598D01*
X14634Y19603D01*
X14633Y19609D01*
X14632Y19615D01*
X14631Y19623D01*
X14631Y19633D01*
X14628Y19639D01*
Y20269D01*
X14746Y20388D01*
X15177D01*
X15187Y20338D01*
X15121Y20310D01*
X15047Y20253D01*
X14990Y20179D01*
X14954Y20093D01*
X14942Y20000D01*
X14954Y19907D01*
X14990Y19821D01*
X15047Y19747D01*
X15121Y19690D01*
X15207Y19654D01*
X15300Y19642D01*
X15393Y19654D01*
X15479Y19690D01*
X15553Y19747D01*
X15610Y19821D01*
X15646Y19907D01*
X15658Y20000D01*
X15646Y20093D01*
X15610Y20179D01*
X15553Y20253D01*
X15479Y20310D01*
X15413Y20338D01*
X15423Y20388D01*
X16177D01*
X16187Y20338D01*
X16121Y20310D01*
X16047Y20253D01*
X15990Y20179D01*
X15954Y20093D01*
X15942Y20000D01*
X15954Y19907D01*
X15990Y19821D01*
X16047Y19747D01*
X16121Y19690D01*
X16207Y19654D01*
X16300Y19642D01*
X16393Y19654D01*
X16479Y19690D01*
X16551Y19745D01*
X16556Y19747D01*
X16585Y19775D01*
X16639Y19823D01*
X16663Y19840D01*
X16686Y19855D01*
X16707Y19867D01*
X16725Y19875D01*
X16742Y19881D01*
X16756Y19884D01*
X16757Y19884D01*
X16838Y19804D01*
Y18550D01*
X16838Y18550D01*
X16846Y18507D01*
X16871Y18471D01*
X18338Y17004D01*
Y14363D01*
X18338Y14363D01*
X18343Y14336D01*
X18297Y14312D01*
X18263Y14346D01*
Y16584D01*
X18263Y16584D01*
X18254Y16627D01*
X18230Y16663D01*
X18230Y16663D01*
X16814Y18079D01*
X16778Y18104D01*
X16750Y18109D01*
X16738Y18115D01*
X16719Y18116D01*
X16704Y18118D01*
X16690Y18122D01*
X16677Y18127D01*
X16664Y18134D01*
X16651Y18143D01*
X16638Y18153D01*
X16626Y18166D01*
X16613Y18181D01*
X16599Y18200D01*
X16595Y18203D01*
X16592Y18209D01*
X16586Y18211D01*
X16553Y18253D01*
X16479Y18310D01*
X16393Y18346D01*
X16300Y18358D01*
X16207Y18346D01*
X16121Y18310D01*
X16047Y18253D01*
X15990Y18179D01*
X15962Y18113D01*
X15912Y18123D01*
Y18454D01*
X16041Y18583D01*
X16047Y18584D01*
X16060Y18595D01*
X16072Y18603D01*
X16087Y18611D01*
X16107Y18618D01*
X16130Y18625D01*
X16156Y18630D01*
X16185Y18635D01*
X16257Y18640D01*
X16298Y18640D01*
X16303Y18642D01*
X16393Y18654D01*
X16479Y18690D01*
X16553Y18747D01*
X16610Y18821D01*
X16646Y18907D01*
X16658Y19000D01*
X16646Y19093D01*
X16610Y19179D01*
X16553Y19253D01*
X16479Y19310D01*
X16393Y19346D01*
X16300Y19358D01*
X16207Y19346D01*
X16121Y19310D01*
X16047Y19253D01*
X15990Y19179D01*
X15954Y19093D01*
X15942Y19003D01*
X15940Y18998D01*
X15940Y18957D01*
X15935Y18885D01*
X15930Y18856D01*
X15925Y18830D01*
X15918Y18807D01*
X15911Y18787D01*
X15903Y18772D01*
X15895Y18760D01*
X15884Y18747D01*
X15883Y18741D01*
X15721Y18579D01*
X15696Y18543D01*
X15688Y18500D01*
X15688Y18500D01*
Y18123D01*
X15638Y18113D01*
X15610Y18179D01*
X15553Y18253D01*
X15479Y18310D01*
X15393Y18346D01*
X15300Y18358D01*
X15207Y18346D01*
X15121Y18310D01*
X15047Y18253D01*
X14990Y18179D01*
X14954Y18093D01*
X14942Y18000D01*
X14954Y17907D01*
X14990Y17821D01*
X15047Y17747D01*
X15121Y17690D01*
X15207Y17654D01*
X15300Y17642D01*
X15393Y17654D01*
X15479Y17690D01*
X15553Y17747D01*
X15610Y17821D01*
X15621Y17847D01*
X15680Y17858D01*
X15688Y17850D01*
X15696Y17807D01*
X15721Y17771D01*
X16021Y17471D01*
X16057Y17446D01*
X16100Y17438D01*
X16100Y17438D01*
X16630D01*
X16668Y17400D01*
X16642Y17355D01*
X16611Y17355D01*
X15945D01*
Y16862D01*
X15942Y16857D01*
X15943Y16852D01*
X15941Y16847D01*
X15945Y16838D01*
Y16818D01*
X15942Y16814D01*
X15935Y16803D01*
X15907Y16770D01*
X15888Y16751D01*
X15886Y16745D01*
X15671Y16529D01*
X15646Y16493D01*
X15638Y16450D01*
X15638Y16450D01*
Y10337D01*
X14945D01*
Y9626D01*
X15638D01*
Y9207D01*
X15588Y9190D01*
X15553Y9235D01*
X15479Y9292D01*
X15393Y9328D01*
X15300Y9340D01*
X15207Y9328D01*
X15121Y9292D01*
X15047Y9235D01*
X14990Y9161D01*
X14954Y9074D01*
X14942Y8982D01*
X14954Y8889D01*
X14990Y8802D01*
X15047Y8728D01*
X15121Y8671D01*
X15207Y8635D01*
X15300Y8623D01*
X15393Y8635D01*
X15479Y8671D01*
X15553Y8728D01*
X15588Y8773D01*
X15638Y8756D01*
Y8650D01*
X15638Y8650D01*
X15646Y8607D01*
X15671Y8571D01*
X15891Y8351D01*
X15891Y8351D01*
X15927Y8326D01*
X15970Y8318D01*
X16072D01*
X16089Y8268D01*
X16047Y8235D01*
X15990Y8161D01*
X15954Y8074D01*
X15942Y7982D01*
X15954Y7889D01*
X15990Y7802D01*
X16047Y7728D01*
X16121Y7671D01*
X16143Y7662D01*
X16133Y7612D01*
X15467D01*
X15457Y7662D01*
X15479Y7671D01*
X15553Y7728D01*
X15610Y7802D01*
X15646Y7889D01*
X15658Y7982D01*
X15646Y8074D01*
X15610Y8161D01*
X15553Y8235D01*
X15479Y8292D01*
X15393Y8328D01*
X15300Y8340D01*
X15207Y8328D01*
X15121Y8292D01*
X15047Y8235D01*
X14990Y8161D01*
X14954Y8074D01*
X14942Y7982D01*
X14954Y7889D01*
X14990Y7802D01*
X15047Y7728D01*
X15121Y7671D01*
X15143Y7662D01*
X15133Y7612D01*
X14946D01*
X14412Y8146D01*
Y18885D01*
X14415Y18891D01*
X14415Y18901D01*
X14416Y18909D01*
X14417Y18915D01*
X14418Y18921D01*
X14420Y18926D01*
X14421Y18930D01*
X14423Y18934D01*
X14425Y18937D01*
X14427Y18939D01*
X14432Y18944D01*
X14434Y18951D01*
X14470Y19004D01*
X14484Y19074D01*
X14470Y19144D01*
X14430Y19204D01*
X14370Y19244D01*
X14300Y19258D01*
X14230Y19244D01*
X14170Y19204D01*
X14130Y19144D01*
X14116Y19074D01*
X14130Y19004D01*
X14166Y18951D01*
X14168Y18944D01*
X14173Y18939D01*
X14175Y18937D01*
X14177Y18934D01*
X14179Y18930D01*
X14180Y18926D01*
X14182Y18921D01*
X14183Y18915D01*
X14184Y18909D01*
X14185Y18901D01*
X14185Y18891D01*
X14188Y18885D01*
Y8100D01*
X14188Y8100D01*
X14196Y8057D01*
X14221Y8021D01*
X14821Y7421D01*
X14821Y7421D01*
X14857Y7396D01*
X14900Y7388D01*
X14900Y7388D01*
X15282D01*
X15285Y7338D01*
X15267Y7336D01*
X15207Y7328D01*
X15121Y7292D01*
X15047Y7235D01*
X14990Y7161D01*
X14954Y7074D01*
X14942Y6981D01*
X14954Y6889D01*
X14990Y6802D01*
X15047Y6728D01*
X15121Y6671D01*
X15207Y6635D01*
X15300Y6623D01*
X15393Y6635D01*
X15479Y6671D01*
X15553Y6728D01*
X15610Y6802D01*
X15646Y6889D01*
X15658Y6981D01*
X15646Y7074D01*
X15610Y7161D01*
X15553Y7235D01*
X15479Y7292D01*
X15393Y7328D01*
X15333Y7336D01*
X15315Y7338D01*
X15318Y7388D01*
X16282D01*
X16285Y7338D01*
X16267Y7336D01*
X16207Y7328D01*
X16121Y7292D01*
X16047Y7235D01*
X15990Y7161D01*
X15954Y7074D01*
X15942Y6981D01*
X15954Y6889D01*
X15990Y6802D01*
X16047Y6728D01*
X16121Y6671D01*
X16207Y6635D01*
X16300Y6623D01*
X16393Y6635D01*
X16479Y6671D01*
X16551Y6726D01*
X16556Y6729D01*
X16585Y6757D01*
X16639Y6804D01*
X16663Y6822D01*
X16686Y6837D01*
X16707Y6848D01*
X16725Y6857D01*
X16742Y6862D01*
X16756Y6865D01*
X16773Y6867D01*
X16778Y6869D01*
X17522D01*
X17738Y6654D01*
Y5832D01*
X17688Y5817D01*
X17679Y5829D01*
X17679Y5829D01*
X17448Y6061D01*
X17411Y6085D01*
X17369Y6094D01*
X17369Y6094D01*
X16778D01*
X16773Y6096D01*
X16756Y6098D01*
X16742Y6101D01*
X16725Y6106D01*
X16707Y6115D01*
X16686Y6126D01*
X16663Y6141D01*
X16639Y6159D01*
X16585Y6206D01*
X16556Y6234D01*
X16551Y6237D01*
X16479Y6292D01*
X16393Y6328D01*
X16300Y6340D01*
X16207Y6328D01*
X16121Y6292D01*
X16047Y6235D01*
X15990Y6161D01*
X15954Y6074D01*
X15942Y5982D01*
X15954Y5889D01*
X15990Y5802D01*
X16047Y5728D01*
X16121Y5671D01*
X16207Y5635D01*
X16300Y5623D01*
X16393Y5635D01*
X16479Y5671D01*
X16551Y5726D01*
X16556Y5729D01*
X16585Y5757D01*
X16639Y5804D01*
X16663Y5822D01*
X16686Y5837D01*
X16707Y5848D01*
X16725Y5857D01*
X16742Y5862D01*
X16756Y5865D01*
X16773Y5867D01*
X16778Y5869D01*
X17322D01*
X17488Y5704D01*
Y4789D01*
X17485Y4783D01*
X17485Y4773D01*
X17484Y4765D01*
X17483Y4759D01*
X17482Y4753D01*
X17480Y4748D01*
X17479Y4744D01*
X17477Y4740D01*
X17475Y4737D01*
X17473Y4735D01*
X17468Y4730D01*
X17466Y4724D01*
X17430Y4670D01*
X17416Y4600D01*
X17430Y4530D01*
X17470Y4470D01*
X17530Y4430D01*
X17600Y4416D01*
X17670Y4430D01*
X17688Y4442D01*
X17738Y4415D01*
Y4197D01*
X17735Y4191D01*
X17735Y4181D01*
X17734Y4174D01*
X17733Y4167D01*
X17732Y4161D01*
X17730Y4157D01*
X17729Y4153D01*
X17727Y4149D01*
X17725Y4146D01*
X17723Y4144D01*
X17719Y4139D01*
X17717Y4134D01*
X17679Y4078D01*
X17665Y4007D01*
X17679Y3937D01*
X17719Y3878D01*
X17778Y3838D01*
X17848Y3824D01*
X17919Y3838D01*
X17978Y3878D01*
X18018Y3937D01*
X18032Y4007D01*
X18018Y4078D01*
X17984Y4128D01*
X17982Y4136D01*
X17977Y4140D01*
X17975Y4143D01*
X17973Y4146D01*
X17971Y4150D01*
X17970Y4154D01*
X17968Y4159D01*
X17967Y4165D01*
X17966Y4172D01*
X17965Y4179D01*
X17965Y4190D01*
X17962Y4196D01*
Y6700D01*
X17954Y6743D01*
X17929Y6779D01*
X17929Y6779D01*
X17648Y7061D01*
X17611Y7085D01*
X17569Y7094D01*
X17569Y7094D01*
X16778D01*
X16773Y7096D01*
X16756Y7098D01*
X16742Y7101D01*
X16725Y7106D01*
X16707Y7115D01*
X16686Y7126D01*
X16663Y7141D01*
X16639Y7159D01*
X16585Y7206D01*
X16556Y7234D01*
X16551Y7237D01*
X16479Y7292D01*
X16393Y7328D01*
X16333Y7336D01*
X16315Y7338D01*
X16318Y7388D01*
X20700D01*
X20700Y7388D01*
X20743Y7396D01*
X20779Y7421D01*
X20929Y7571D01*
X20954Y7607D01*
X20962Y7650D01*
X20962Y7650D01*
Y12111D01*
X20965Y12117D01*
X20965Y12127D01*
X20966Y12135D01*
X20967Y12141D01*
X20968Y12147D01*
X20970Y12152D01*
X20971Y12156D01*
X20973Y12160D01*
X20975Y12163D01*
X20977Y12165D01*
X20982Y12170D01*
X20984Y12176D01*
X21020Y12230D01*
X21034Y12300D01*
X21020Y12370D01*
X20980Y12430D01*
X20920Y12470D01*
X20850Y12484D01*
X20780Y12470D01*
X20720Y12430D01*
X20680Y12370D01*
X20666Y12300D01*
X20680Y12230D01*
X20716Y12176D01*
X20718Y12170D01*
X20723Y12165D01*
X20725Y12163D01*
X20727Y12160D01*
X20729Y12156D01*
X20730Y12152D01*
X20732Y12147D01*
X20733Y12141D01*
X20734Y12135D01*
X20735Y12127D01*
X20735Y12117D01*
X20738Y12111D01*
Y7696D01*
X20654Y7612D01*
X16467D01*
X16457Y7662D01*
X16479Y7671D01*
X16553Y7728D01*
X16610Y7802D01*
X16646Y7889D01*
X16658Y7982D01*
X16646Y8074D01*
X16610Y8161D01*
X16553Y8235D01*
X16511Y8268D01*
X16528Y8318D01*
X18474D01*
X18637Y8154D01*
X18639Y8148D01*
X18646Y8141D01*
X18651Y8135D01*
X18655Y8130D01*
X18658Y8125D01*
X18661Y8120D01*
X18662Y8116D01*
X18664Y8112D01*
X18664Y8109D01*
X18665Y8105D01*
X18665Y8099D01*
X18668Y8093D01*
X18680Y8030D01*
X18720Y7970D01*
X18780Y7930D01*
X18850Y7916D01*
X18920Y7930D01*
X18980Y7970D01*
X19020Y8030D01*
X19034Y8100D01*
X19020Y8170D01*
X18980Y8230D01*
X18920Y8270D01*
X18857Y8282D01*
X18851Y8285D01*
X18845Y8285D01*
X18841Y8286D01*
X18838Y8286D01*
X18834Y8288D01*
X18830Y8289D01*
X18825Y8292D01*
X18820Y8295D01*
X18815Y8299D01*
X18809Y8304D01*
X18802Y8311D01*
X18796Y8313D01*
X18599Y8509D01*
X18563Y8534D01*
X18520Y8542D01*
X18520Y8542D01*
X16017D01*
X15862Y8696D01*
Y12202D01*
X15912Y12217D01*
X15914Y12215D01*
X15973Y12175D01*
X16043Y12161D01*
X16114Y12175D01*
X16167Y12211D01*
X16173Y12213D01*
X16178Y12218D01*
X16181Y12220D01*
X16184Y12222D01*
X16187Y12223D01*
X16191Y12225D01*
X16196Y12227D01*
X16202Y12228D01*
X16209Y12229D01*
X16216Y12230D01*
X16226Y12230D01*
X16232Y12233D01*
X17121D01*
X17121Y12233D01*
X17164Y12241D01*
X17201Y12266D01*
X17272Y12337D01*
X17278Y12339D01*
X17286Y12346D01*
X17292Y12351D01*
X17297Y12355D01*
X17302Y12358D01*
X17306Y12361D01*
X17311Y12362D01*
X17314Y12364D01*
X17318Y12364D01*
X17321Y12365D01*
X17328Y12365D01*
X17334Y12368D01*
X17397Y12380D01*
X17456Y12420D01*
X17496Y12480D01*
X17510Y12550D01*
X17496Y12620D01*
X17456Y12680D01*
X17397Y12720D01*
X17327Y12734D01*
X17256Y12720D01*
X17197Y12680D01*
X17157Y12620D01*
X17144Y12557D01*
X17142Y12551D01*
X17141Y12545D01*
X17141Y12541D01*
X17140Y12538D01*
X17139Y12534D01*
X17137Y12530D01*
X17135Y12525D01*
X17132Y12520D01*
X17128Y12515D01*
X17123Y12509D01*
X17116Y12502D01*
X17114Y12496D01*
X17075Y12457D01*
X16232D01*
X16226Y12460D01*
X16216Y12460D01*
X16209Y12461D01*
X16202Y12462D01*
X16196Y12463D01*
X16191Y12465D01*
X16187Y12466D01*
X16184Y12468D01*
X16181Y12470D01*
X16178Y12472D01*
X16173Y12476D01*
X16167Y12479D01*
X16114Y12514D01*
X16043Y12528D01*
X15973Y12514D01*
X15914Y12475D01*
X15912Y12473D01*
X15862Y12488D01*
Y16404D01*
X16044Y16585D01*
X16050Y16588D01*
X16088Y16623D01*
X16102Y16634D01*
X16114Y16642D01*
X16118Y16645D01*
X16138D01*
X16147Y16641D01*
X16152Y16643D01*
X16157Y16642D01*
X16162Y16645D01*
X16655D01*
Y17307D01*
X16655Y17342D01*
X16700Y17368D01*
X17788Y16280D01*
Y14100D01*
X17788Y14100D01*
X17796Y14057D01*
X17821Y14021D01*
X19038Y12804D01*
Y9246D01*
X19004Y9213D01*
X18998Y9211D01*
X18991Y9204D01*
X18985Y9199D01*
X18980Y9195D01*
X18975Y9192D01*
X18970Y9189D01*
X18966Y9188D01*
X18962Y9186D01*
X18959Y9186D01*
X18955Y9185D01*
X18949Y9185D01*
X18943Y9182D01*
X18880Y9170D01*
X18820Y9130D01*
X18780Y9070D01*
X18766Y9000D01*
X18780Y8930D01*
X18820Y8870D01*
X18880Y8830D01*
X18950Y8816D01*
X19020Y8830D01*
X19080Y8870D01*
X19120Y8930D01*
X19132Y8993D01*
X19135Y8999D01*
X19135Y9005D01*
X19136Y9009D01*
X19136Y9012D01*
X19138Y9016D01*
X19139Y9020D01*
X19142Y9025D01*
X19145Y9030D01*
X19149Y9035D01*
X19154Y9041D01*
X19161Y9048D01*
X19163Y9054D01*
X19229Y9121D01*
X19229Y9121D01*
X19254Y9157D01*
X19262Y9200D01*
X19262Y9200D01*
Y12850D01*
X19262Y12850D01*
X19254Y12893D01*
X19229Y12929D01*
X18012Y14146D01*
Y14219D01*
X18062Y14234D01*
X18072Y14220D01*
X19438Y12854D01*
Y9250D01*
X19438Y9250D01*
X19446Y9207D01*
X19471Y9171D01*
X19937Y8704D01*
X19939Y8698D01*
X19946Y8691D01*
X19951Y8685D01*
X19955Y8680D01*
X19958Y8675D01*
X19961Y8670D01*
X19962Y8666D01*
X19964Y8662D01*
X19964Y8659D01*
X19965Y8655D01*
X19965Y8649D01*
X19968Y8643D01*
X19980Y8580D01*
X20020Y8520D01*
X20080Y8480D01*
X20150Y8466D01*
X20220Y8480D01*
X20280Y8520D01*
X20320Y8580D01*
X20334Y8650D01*
X20320Y8720D01*
X20280Y8780D01*
X20220Y8820D01*
X20157Y8832D01*
X20151Y8835D01*
X20145Y8835D01*
X20141Y8836D01*
X20138Y8836D01*
X20134Y8838D01*
X20130Y8839D01*
X20125Y8842D01*
X20120Y8845D01*
X20115Y8849D01*
X20109Y8854D01*
X20102Y8861D01*
X20096Y8863D01*
X19977Y8981D01*
X20006Y9023D01*
X20064Y9012D01*
X20134Y9026D01*
X20194Y9065D01*
X20234Y9125D01*
X20248Y9195D01*
X20234Y9266D01*
X20198Y9319D01*
X20196Y9325D01*
X20191Y9330D01*
X20189Y9333D01*
X20187Y9336D01*
X20186Y9339D01*
X20184Y9343D01*
X20182Y9348D01*
X20181Y9354D01*
X20180Y9361D01*
X20179Y9368D01*
X20179Y9378D01*
X20176Y9384D01*
Y12749D01*
X20176Y12749D01*
X20168Y12791D01*
X20143Y12828D01*
X18562Y14409D01*
Y17050D01*
X18554Y17093D01*
X18529Y17129D01*
X18529Y17129D01*
X17062Y18596D01*
Y19850D01*
X17062Y19850D01*
X17054Y19893D01*
X17029Y19929D01*
X16879Y20079D01*
X16843Y20104D01*
X16800Y20112D01*
X16800Y20112D01*
X16778D01*
X16773Y20115D01*
X16756Y20116D01*
X16742Y20119D01*
X16725Y20125D01*
X16707Y20133D01*
X16686Y20145D01*
X16663Y20160D01*
X16639Y20177D01*
X16585Y20225D01*
X16556Y20253D01*
X16551Y20255D01*
X16479Y20310D01*
X16413Y20338D01*
X16423Y20388D01*
X17130D01*
X17288Y20230D01*
Y18673D01*
X17288Y18673D01*
X17296Y18630D01*
X17321Y18594D01*
X18688Y17227D01*
Y14500D01*
X18688Y14500D01*
X18696Y14457D01*
X18721Y14421D01*
X20321Y12821D01*
X20321Y12821D01*
X20357Y12796D01*
X20400Y12788D01*
X20400Y12788D01*
X21304D01*
X21521Y12570D01*
Y12507D01*
X21518Y12501D01*
X21518Y12490D01*
X21517Y12483D01*
X21516Y12476D01*
X21515Y12471D01*
X21513Y12466D01*
X21512Y12462D01*
X21510Y12458D01*
X21508Y12455D01*
X21506Y12452D01*
X21501Y12448D01*
X21499Y12441D01*
X21464Y12388D01*
X21450Y12318D01*
X21464Y12247D01*
X21503Y12188D01*
X21563Y12148D01*
X21633Y12134D01*
X21703Y12148D01*
X21763Y12188D01*
X21803Y12247D01*
X21817Y12318D01*
X21803Y12388D01*
X21767Y12441D01*
X21765Y12448D01*
X21760Y12452D01*
X21758Y12455D01*
X21756Y12458D01*
X21754Y12462D01*
X21753Y12466D01*
X21751Y12471D01*
X21750Y12476D01*
X21749Y12483D01*
X21748Y12490D01*
X21748Y12501D01*
X21745Y12507D01*
Y12617D01*
X21745Y12617D01*
X21737Y12660D01*
X21712Y12696D01*
X21712Y12696D01*
X21429Y12979D01*
X21393Y13004D01*
X21350Y13012D01*
X21350Y13012D01*
X20446D01*
X19300Y14159D01*
X19300Y14160D01*
X19329Y14200D01*
X19400Y14186D01*
X19482Y14202D01*
X19551Y14249D01*
X20089Y14786D01*
X21328D01*
X21410Y14802D01*
X21445Y14825D01*
X21470Y14830D01*
X21530Y14870D01*
X21570Y14930D01*
X21584Y15000D01*
X21570Y15070D01*
X21530Y15130D01*
X21470Y15170D01*
X21445Y15175D01*
X21410Y15198D01*
X21328Y15214D01*
X20000D01*
X19918Y15198D01*
X19849Y15151D01*
X19249Y14551D01*
X19202Y14482D01*
X19186Y14400D01*
X19200Y14329D01*
X19160Y14300D01*
X19159Y14300D01*
X18912Y14546D01*
Y17273D01*
X18912Y17273D01*
X18904Y17316D01*
X18879Y17353D01*
X18425Y17807D01*
X18457Y17846D01*
X18480Y17830D01*
X18550Y17816D01*
X18620Y17830D01*
X18674Y17866D01*
X18680Y17868D01*
X18685Y17873D01*
X18687Y17875D01*
X18690Y17877D01*
X18694Y17879D01*
X18698Y17880D01*
X18703Y17882D01*
X18709Y17883D01*
X18715Y17884D01*
X18723Y17885D01*
X18733Y17885D01*
X18739Y17888D01*
X22050D01*
X22050Y17888D01*
X22093Y17896D01*
X22129Y17921D01*
X22379Y18171D01*
X22379Y18171D01*
X22404Y18207D01*
X22412Y18250D01*
Y19611D01*
X22415Y19617D01*
X22415Y19627D01*
X22416Y19635D01*
X22417Y19641D01*
X22418Y19647D01*
X22420Y19652D01*
X22421Y19656D01*
X22423Y19660D01*
X22425Y19663D01*
X22427Y19665D01*
X22432Y19670D01*
X22434Y19676D01*
X22470Y19730D01*
X22484Y19800D01*
X22470Y19870D01*
X22430Y19930D01*
X22370Y19970D01*
X22300Y19984D01*
X22230Y19970D01*
X22170Y19930D01*
X22130Y19870D01*
X22116Y19800D01*
X22130Y19730D01*
X22166Y19676D01*
X22168Y19670D01*
X22173Y19665D01*
X22175Y19663D01*
X22177Y19660D01*
X22179Y19656D01*
X22180Y19652D01*
X22182Y19647D01*
X22183Y19641D01*
X22184Y19635D01*
X22185Y19627D01*
X22185Y19617D01*
X22188Y19611D01*
Y18296D01*
X22004Y18112D01*
X18739D01*
X18733Y18115D01*
X18723Y18115D01*
X18715Y18116D01*
X18709Y18117D01*
X18703Y18118D01*
X18698Y18120D01*
X18694Y18121D01*
X18690Y18123D01*
X18687Y18125D01*
X18685Y18127D01*
X18680Y18132D01*
X18674Y18134D01*
X18620Y18170D01*
X18550Y18184D01*
X18480Y18170D01*
X18420Y18130D01*
X18380Y18070D01*
X18366Y18000D01*
X18380Y17930D01*
X18396Y17907D01*
X18357Y17875D01*
X17512Y18720D01*
Y20277D01*
X17512Y20277D01*
X17504Y20320D01*
X17479Y20356D01*
X17256Y20579D01*
X17220Y20604D01*
X17177Y20612D01*
X17177Y20612D01*
X16692D01*
X16655Y20645D01*
X16655Y20662D01*
Y21355D01*
X15945D01*
Y20662D01*
X15945Y20645D01*
X15908Y20612D01*
X15423D01*
X15413Y20662D01*
X15479Y20690D01*
X15553Y20747D01*
X15610Y20821D01*
X15646Y20907D01*
X15658Y21000D01*
X15646Y21093D01*
X15610Y21179D01*
X15553Y21253D01*
X15479Y21310D01*
X15393Y21346D01*
X15300Y21358D01*
D02*
G37*
G36*
X24450Y21184D02*
X24380Y21170D01*
X24320Y21130D01*
X24280Y21070D01*
X24266Y21000D01*
X24280Y20930D01*
X24320Y20870D01*
X24380Y20830D01*
X24450Y20816D01*
X24520Y20830D01*
X24574Y20866D01*
X24580Y20868D01*
X24585Y20873D01*
X24587Y20875D01*
X24590Y20877D01*
X24594Y20879D01*
X24598Y20880D01*
X24603Y20882D01*
X24609Y20883D01*
X24615Y20884D01*
X24623Y20885D01*
X24633Y20885D01*
X24639Y20888D01*
X25654D01*
X25688Y20854D01*
Y20739D01*
X25685Y20733D01*
X25685Y20723D01*
X25684Y20715D01*
X25683Y20709D01*
X25682Y20703D01*
X25680Y20698D01*
X25679Y20694D01*
X25677Y20690D01*
X25675Y20687D01*
X25673Y20685D01*
X25668Y20680D01*
X25666Y20674D01*
X25630Y20620D01*
X25616Y20550D01*
X25630Y20480D01*
X25670Y20420D01*
X25730Y20380D01*
X25800Y20366D01*
X25870Y20380D01*
X25930Y20420D01*
X25970Y20480D01*
X25984Y20550D01*
X25970Y20620D01*
X25934Y20674D01*
X25932Y20680D01*
X25927Y20685D01*
X25925Y20687D01*
X25923Y20690D01*
X25921Y20694D01*
X25920Y20698D01*
X25918Y20703D01*
X25917Y20709D01*
X25916Y20715D01*
X25915Y20723D01*
X25915Y20733D01*
X25912Y20739D01*
Y20900D01*
X25904Y20943D01*
X25879Y20979D01*
X25879Y20979D01*
X25779Y21079D01*
X25743Y21104D01*
X25700Y21112D01*
X25700Y21112D01*
X24639D01*
X24633Y21115D01*
X24623Y21115D01*
X24615Y21116D01*
X24609Y21117D01*
X24603Y21118D01*
X24598Y21120D01*
X24594Y21121D01*
X24590Y21123D01*
X24587Y21125D01*
X24585Y21127D01*
X24580Y21132D01*
X24574Y21134D01*
X24520Y21170D01*
X24450Y21184D01*
D02*
G37*
G36*
X7900Y20484D02*
X7830Y20470D01*
X7770Y20430D01*
X7730Y20370D01*
X7716Y20300D01*
X7730Y20230D01*
X7770Y20170D01*
X7830Y20130D01*
X7900Y20116D01*
X7970Y20130D01*
X8030Y20170D01*
X8070Y20230D01*
X8084Y20300D01*
X8070Y20370D01*
X8030Y20430D01*
X7970Y20470D01*
X7900Y20484D01*
D02*
G37*
G36*
X8950Y19934D02*
X8880Y19920D01*
X8820Y19880D01*
X8780Y19820D01*
X8766Y19750D01*
X8780Y19680D01*
X8820Y19620D01*
X8880Y19580D01*
X8950Y19566D01*
X9020Y19580D01*
X9080Y19620D01*
X9120Y19680D01*
X9134Y19750D01*
X9120Y19820D01*
X9080Y19880D01*
X9020Y19920D01*
X8950Y19934D01*
D02*
G37*
G36*
X7892Y19584D02*
X7822Y19570D01*
X7762Y19530D01*
X7723Y19470D01*
X7709Y19400D01*
X7723Y19330D01*
X7762Y19270D01*
X7822Y19230D01*
X7892Y19216D01*
X7962Y19230D01*
X8022Y19270D01*
X8062Y19330D01*
X8076Y19400D01*
X8062Y19470D01*
X8022Y19530D01*
X7962Y19570D01*
X7892Y19584D01*
D02*
G37*
G36*
X15300Y19358D02*
X15207Y19346D01*
X15121Y19310D01*
X15047Y19253D01*
X14990Y19179D01*
X14954Y19093D01*
X14942Y19000D01*
X14954Y18907D01*
X14990Y18821D01*
X15047Y18747D01*
X15121Y18690D01*
X15207Y18654D01*
X15300Y18642D01*
X15393Y18654D01*
X15479Y18690D01*
X15553Y18747D01*
X15610Y18821D01*
X15646Y18907D01*
X15658Y19000D01*
X15646Y19093D01*
X15610Y19179D01*
X15553Y19253D01*
X15479Y19310D01*
X15393Y19346D01*
X15300Y19358D01*
D02*
G37*
G36*
Y17358D02*
X15207Y17346D01*
X15121Y17310D01*
X15047Y17253D01*
X14990Y17179D01*
X14954Y17093D01*
X14942Y17000D01*
X14954Y16907D01*
X14990Y16821D01*
X15047Y16747D01*
X15121Y16690D01*
X15207Y16654D01*
X15300Y16642D01*
X15393Y16654D01*
X15479Y16690D01*
X15553Y16747D01*
X15610Y16821D01*
X15646Y16907D01*
X15658Y17000D01*
X15646Y17093D01*
X15610Y17179D01*
X15553Y17253D01*
X15479Y17310D01*
X15393Y17346D01*
X15300Y17358D01*
D02*
G37*
G36*
X4400Y15587D02*
X4318Y15571D01*
X4249Y15525D01*
X3638Y14914D01*
X1986D01*
X1984Y14915D01*
X1924Y14917D01*
X1901Y14920D01*
X1879Y14923D01*
X1860Y14927D01*
X1844Y14932D01*
X1831Y14937D01*
X1820Y14942D01*
X1813Y14947D01*
X1804Y14955D01*
X1798Y14957D01*
X1729Y15010D01*
X1643Y15046D01*
X1550Y15058D01*
X1457Y15046D01*
X1371Y15010D01*
X1297Y14953D01*
X1240Y14879D01*
X1204Y14793D01*
X1192Y14700D01*
X1204Y14607D01*
X1240Y14521D01*
X1297Y14447D01*
X1371Y14390D01*
X1457Y14354D01*
X1550Y14342D01*
X1643Y14354D01*
X1729Y14390D01*
X1798Y14443D01*
X1804Y14445D01*
X1813Y14453D01*
X1820Y14458D01*
X1831Y14463D01*
X1844Y14468D01*
X1860Y14473D01*
X1879Y14477D01*
X1900Y14480D01*
X1953Y14485D01*
X1983Y14485D01*
X1985Y14486D01*
X3727D01*
X3809Y14502D01*
X3878Y14549D01*
X4551Y15222D01*
X4598Y15291D01*
X4614Y15373D01*
X4598Y15455D01*
X4551Y15525D01*
X4482Y15571D01*
X4400Y15587D01*
D02*
G37*
G36*
X22609Y15184D02*
X22538Y15170D01*
X22479Y15130D01*
X22439Y15070D01*
X22425Y15000D01*
X22439Y14930D01*
X22479Y14870D01*
X22538Y14830D01*
X22609Y14816D01*
X22679Y14830D01*
X22738Y14870D01*
X22778Y14930D01*
X22792Y15000D01*
X22778Y15070D01*
X22738Y15130D01*
X22679Y15170D01*
X22609Y15184D01*
D02*
G37*
G36*
X21994D02*
X21924Y15170D01*
X21864Y15130D01*
X21824Y15070D01*
X21810Y15000D01*
X21824Y14930D01*
X21864Y14870D01*
X21924Y14830D01*
X21994Y14816D01*
X22064Y14830D01*
X22124Y14870D01*
X22163Y14930D01*
X22177Y15000D01*
X22163Y15070D01*
X22124Y15130D01*
X22064Y15170D01*
X21994Y15184D01*
D02*
G37*
G36*
X1905Y14055D02*
X1195D01*
Y13345D01*
X1905D01*
Y14055D01*
D02*
G37*
G36*
X16700Y15437D02*
X16630Y15423D01*
X16570Y15383D01*
X16530Y15323D01*
X16516Y15253D01*
X16530Y15183D01*
X16566Y15130D01*
X16568Y15123D01*
X16573Y15119D01*
X16575Y15116D01*
X16577Y15113D01*
X16579Y15109D01*
X16580Y15105D01*
X16582Y15100D01*
X16583Y15094D01*
X16584Y15088D01*
X16585Y15080D01*
X16585Y15070D01*
X16588Y15064D01*
Y13497D01*
X16588Y13497D01*
X16596Y13454D01*
X16621Y13418D01*
X16687Y13351D01*
X16689Y13345D01*
X16696Y13338D01*
X16701Y13332D01*
X16705Y13327D01*
X16708Y13322D01*
X16711Y13317D01*
X16712Y13313D01*
X16714Y13309D01*
X16714Y13306D01*
X16715Y13302D01*
X16715Y13296D01*
X16718Y13290D01*
X16730Y13227D01*
X16770Y13167D01*
X16830Y13127D01*
X16900Y13113D01*
X16970Y13127D01*
X17030Y13167D01*
X17070Y13227D01*
X17084Y13297D01*
X17070Y13367D01*
X17030Y13427D01*
X16970Y13467D01*
X16907Y13479D01*
X16901Y13482D01*
X16895Y13482D01*
X16891Y13483D01*
X16888Y13483D01*
X16884Y13485D01*
X16880Y13486D01*
X16875Y13489D01*
X16870Y13492D01*
X16865Y13496D01*
X16859Y13501D01*
X16852Y13508D01*
X16846Y13510D01*
X16812Y13543D01*
Y15064D01*
X16815Y15070D01*
X16815Y15080D01*
X16816Y15088D01*
X16817Y15094D01*
X16818Y15100D01*
X16820Y15105D01*
X16821Y15109D01*
X16823Y15113D01*
X16825Y15116D01*
X16827Y15119D01*
X16832Y15123D01*
X16834Y15130D01*
X16870Y15183D01*
X16884Y15253D01*
X16870Y15323D01*
X16830Y15383D01*
X16770Y15423D01*
X16700Y15437D01*
D02*
G37*
G36*
X28950Y13034D02*
X28880Y13020D01*
X28820Y12980D01*
X28780Y12920D01*
X28766Y12850D01*
X28780Y12780D01*
X28820Y12720D01*
X28880Y12680D01*
X28950Y12666D01*
X29020Y12680D01*
X29080Y12720D01*
X29120Y12780D01*
X29134Y12850D01*
X29120Y12920D01*
X29080Y12980D01*
X29020Y13020D01*
X28950Y13034D01*
D02*
G37*
G36*
X18650D02*
X18580Y13020D01*
X18520Y12980D01*
X18480Y12920D01*
X18466Y12850D01*
X18480Y12780D01*
X18516Y12726D01*
X18518Y12720D01*
X18523Y12715D01*
X18525Y12713D01*
X18527Y12710D01*
X18529Y12706D01*
X18530Y12702D01*
X18532Y12697D01*
X18533Y12691D01*
X18534Y12685D01*
X18535Y12677D01*
X18535Y12667D01*
X18538Y12661D01*
Y11946D01*
X18404Y11812D01*
X16429D01*
X16423Y11815D01*
X16413Y11815D01*
X16405Y11816D01*
X16399Y11817D01*
X16393Y11818D01*
X16388Y11820D01*
X16384Y11821D01*
X16381Y11823D01*
X16377Y11825D01*
X16375Y11827D01*
X16370Y11832D01*
X16364Y11834D01*
X16310Y11870D01*
X16240Y11884D01*
X16170Y11870D01*
X16110Y11830D01*
X16071Y11770D01*
X16057Y11700D01*
X16071Y11630D01*
X16110Y11570D01*
X16170Y11530D01*
X16240Y11516D01*
X16310Y11530D01*
X16364Y11566D01*
X16370Y11568D01*
X16375Y11573D01*
X16377Y11575D01*
X16381Y11577D01*
X16384Y11579D01*
X16388Y11580D01*
X16393Y11582D01*
X16399Y11583D01*
X16405Y11584D01*
X16413Y11585D01*
X16423Y11585D01*
X16429Y11588D01*
X18450D01*
X18450Y11588D01*
X18493Y11596D01*
X18529Y11621D01*
X18729Y11821D01*
X18729Y11821D01*
X18754Y11857D01*
X18762Y11900D01*
X18762Y11900D01*
Y12661D01*
X18765Y12667D01*
X18765Y12677D01*
X18766Y12685D01*
X18767Y12691D01*
X18768Y12697D01*
X18770Y12702D01*
X18771Y12706D01*
X18773Y12710D01*
X18775Y12713D01*
X18777Y12715D01*
X18782Y12720D01*
X18784Y12726D01*
X18820Y12780D01*
X18834Y12850D01*
X18820Y12920D01*
X18780Y12980D01*
X18720Y13020D01*
X18650Y13034D01*
D02*
G37*
G36*
X26047Y12317D02*
X25140D01*
Y11607D01*
X26047D01*
Y12317D01*
D02*
G37*
G36*
X29827Y12121D02*
X28920D01*
Y11449D01*
X29827D01*
Y12121D01*
D02*
G37*
G36*
X13062Y11090D02*
X12992Y11076D01*
X12933Y11036D01*
X12893Y10977D01*
X12879Y10907D01*
X12893Y10836D01*
X12933Y10777D01*
X12992Y10737D01*
X13062Y10723D01*
X13133Y10737D01*
X13192Y10777D01*
X13232Y10836D01*
X13246Y10907D01*
X13232Y10977D01*
X13192Y11036D01*
X13133Y11076D01*
X13062Y11090D01*
D02*
G37*
G36*
X17058Y11274D02*
X16987Y11260D01*
X16928Y11221D01*
X16888Y11161D01*
X16874Y11091D01*
X16888Y11021D01*
X16928Y10961D01*
X16987Y10921D01*
X16990Y10921D01*
Y10870D01*
X16987Y10870D01*
X16928Y10830D01*
X16888Y10770D01*
X16874Y10700D01*
X16888Y10630D01*
X16928Y10570D01*
X16987Y10530D01*
X17058Y10516D01*
X17128Y10530D01*
X17187Y10570D01*
X17227Y10630D01*
X17241Y10700D01*
X17227Y10770D01*
X17187Y10830D01*
X17128Y10870D01*
X17126Y10870D01*
Y10921D01*
X17128Y10921D01*
X17187Y10961D01*
X17227Y11021D01*
X17241Y11091D01*
X17227Y11161D01*
X17187Y11221D01*
X17128Y11260D01*
X17058Y11274D01*
D02*
G37*
G36*
X16285D02*
X16215Y11260D01*
X16155Y11221D01*
X16116Y11161D01*
X16102Y11091D01*
X16116Y11021D01*
X16155Y10961D01*
X16215Y10921D01*
X16217Y10921D01*
Y10870D01*
X16215Y10870D01*
X16155Y10830D01*
X16116Y10770D01*
X16102Y10700D01*
X16116Y10630D01*
X16155Y10570D01*
X16215Y10530D01*
X16285Y10516D01*
X16355Y10530D01*
X16415Y10570D01*
X16455Y10630D01*
X16469Y10700D01*
X16455Y10770D01*
X16415Y10830D01*
X16355Y10870D01*
X16353Y10870D01*
Y10921D01*
X16355Y10921D01*
X16415Y10961D01*
X16455Y11021D01*
X16469Y11091D01*
X16455Y11161D01*
X16415Y11221D01*
X16355Y11260D01*
X16285Y11274D01*
D02*
G37*
G36*
X29531Y10924D02*
X29438Y10906D01*
X29360Y10854D01*
X29307Y10775D01*
X29289Y10683D01*
X29307Y10590D01*
X29360Y10512D01*
X29438Y10459D01*
X29531Y10441D01*
X29623Y10459D01*
X29702Y10512D01*
X29754Y10590D01*
X29773Y10683D01*
X29754Y10775D01*
X29702Y10854D01*
X29623Y10906D01*
X29531Y10924D01*
D02*
G37*
G36*
X25654Y11550D02*
X24746D01*
Y11115D01*
X24746D01*
Y10682D01*
Y10249D01*
X25654D01*
Y10356D01*
X25670Y10380D01*
X25684Y10450D01*
X25670Y10520D01*
X25654Y10544D01*
Y10806D01*
X25670Y10830D01*
X25684Y10900D01*
X25670Y10970D01*
X25654Y10994D01*
Y11117D01*
X25654D01*
Y11550D01*
D02*
G37*
G36*
X29000Y10571D02*
X28930Y10557D01*
X28870Y10517D01*
X28830Y10458D01*
X28816Y10388D01*
X28830Y10317D01*
X28870Y10258D01*
X28930Y10218D01*
X29000Y10204D01*
X29070Y10218D01*
X29130Y10258D01*
X29170Y10317D01*
X29184Y10388D01*
X29170Y10458D01*
X29130Y10517D01*
X29070Y10557D01*
X29000Y10571D01*
D02*
G37*
G36*
X3050Y10371D02*
X2980Y10357D01*
X2920Y10317D01*
X2880Y10258D01*
X2866Y10187D01*
X2880Y10117D01*
X2920Y10058D01*
X2973Y10022D01*
X2946Y9982D01*
X2936Y9931D01*
X2946Y9881D01*
X2975Y9839D01*
X3017Y9810D01*
X3068Y9800D01*
X3173D01*
X3230Y9762D01*
X3300Y9748D01*
X3370Y9762D01*
X3430Y9802D01*
X3470Y9861D01*
X3484Y9931D01*
X3470Y10002D01*
X3430Y10061D01*
X3393Y10086D01*
Y10316D01*
X3180D01*
X3180Y10317D01*
X3120Y10357D01*
X3050Y10371D01*
D02*
G37*
G36*
X16300Y10340D02*
X16207Y10328D01*
X16121Y10292D01*
X16047Y10235D01*
X15990Y10161D01*
X15954Y10074D01*
X15942Y9981D01*
X15954Y9889D01*
X15990Y9802D01*
X16047Y9728D01*
X16121Y9671D01*
X16207Y9635D01*
X16300Y9623D01*
X16393Y9635D01*
X16479Y9671D01*
X16553Y9728D01*
X16610Y9802D01*
X16646Y9889D01*
X16658Y9981D01*
X16646Y10074D01*
X16610Y10161D01*
X16553Y10235D01*
X16479Y10292D01*
X16393Y10328D01*
X16300Y10340D01*
D02*
G37*
G36*
X2398Y10319D02*
X2202D01*
X2151Y10309D01*
X2109Y10280D01*
X2080Y10238D01*
X2070Y10187D01*
X2080Y10137D01*
X2109Y10094D01*
X2116Y10090D01*
Y10029D01*
X2109Y10024D01*
X2080Y9982D01*
X2070Y9931D01*
X2080Y9881D01*
X2109Y9839D01*
X2116Y9834D01*
Y9773D01*
X2109Y9769D01*
X2080Y9726D01*
X2070Y9676D01*
X2080Y9625D01*
X2109Y9583D01*
X2151Y9554D01*
X2202Y9544D01*
X2398D01*
X2449Y9554D01*
X2491Y9583D01*
X2520Y9625D01*
X2530Y9676D01*
X2520Y9726D01*
X2491Y9769D01*
X2484Y9773D01*
Y9834D01*
X2491Y9839D01*
X2520Y9881D01*
X2530Y9931D01*
X2520Y9982D01*
X2491Y10024D01*
X2484Y10029D01*
Y10090D01*
X2491Y10094D01*
X2520Y10137D01*
X2530Y10187D01*
X2520Y10238D01*
X2491Y10280D01*
X2449Y10309D01*
X2398Y10319D01*
D02*
G37*
G36*
X30550Y10164D02*
X30012D01*
X29930Y10148D01*
X29861Y10101D01*
X29129Y9370D01*
X25895D01*
X25893Y9371D01*
X25741Y9372D01*
X25700Y9374D01*
X25654Y9383D01*
Y9498D01*
X25670Y9522D01*
X25684Y9592D01*
X25670Y9662D01*
X25654Y9686D01*
Y9817D01*
X24746D01*
Y9384D01*
X24746D01*
Y8949D01*
Y8516D01*
X24746D01*
Y8125D01*
X24746Y8075D01*
X24746Y8033D01*
Y7621D01*
X25654D01*
Y7754D01*
X25670Y7778D01*
X25684Y7848D01*
X25670Y7918D01*
X25654Y7942D01*
Y8033D01*
X25654Y8083D01*
X25654Y8125D01*
Y8190D01*
X25670Y8214D01*
X25684Y8284D01*
X25670Y8354D01*
X25654Y8378D01*
Y8518D01*
X25654D01*
Y8626D01*
X25670Y8650D01*
X25684Y8720D01*
X25670Y8790D01*
X25654Y8814D01*
Y8942D01*
X25838D01*
X25891Y8941D01*
X25892Y8941D01*
X25893Y8941D01*
X25894Y8942D01*
X29218D01*
X29300Y8958D01*
X29369Y9005D01*
X30101Y9736D01*
X30461D01*
X30631Y9566D01*
Y8600D01*
Y6600D01*
Y4515D01*
X30647Y4433D01*
X30694Y4364D01*
X30763Y4318D01*
X30845Y4301D01*
X30927Y4318D01*
X30997Y4364D01*
X31043Y4433D01*
X31059Y4515D01*
Y6600D01*
Y8600D01*
Y9655D01*
X31043Y9737D01*
X30997Y9806D01*
X30701Y10101D01*
X30632Y10148D01*
X30550Y10164D01*
D02*
G37*
G36*
X1550Y9788D02*
X1457Y9776D01*
X1371Y9740D01*
X1297Y9683D01*
X1240Y9609D01*
X1204Y9523D01*
X1192Y9430D01*
X1204Y9337D01*
X1240Y9251D01*
X1297Y9177D01*
X1371Y9120D01*
X1457Y9084D01*
X1550Y9072D01*
X1643Y9084D01*
X1729Y9120D01*
X1803Y9177D01*
X1860Y9251D01*
X1896Y9337D01*
X1908Y9430D01*
X1896Y9523D01*
X1860Y9609D01*
X1803Y9683D01*
X1729Y9740D01*
X1643Y9776D01*
X1550Y9788D01*
D02*
G37*
G36*
X550D02*
X457Y9776D01*
X371Y9740D01*
X297Y9683D01*
X240Y9609D01*
X204Y9523D01*
X192Y9430D01*
X204Y9337D01*
X240Y9251D01*
X297Y9177D01*
X371Y9120D01*
X457Y9084D01*
X550Y9072D01*
X643Y9084D01*
X729Y9120D01*
X803Y9177D01*
X860Y9251D01*
X896Y9337D01*
X908Y9430D01*
X896Y9523D01*
X860Y9609D01*
X803Y9683D01*
X729Y9740D01*
X643Y9776D01*
X550Y9788D01*
D02*
G37*
G36*
X18150Y9379D02*
X18080Y9365D01*
X18020Y9325D01*
X17980Y9266D01*
X17966Y9195D01*
X17980Y9125D01*
X18020Y9065D01*
X18080Y9026D01*
X18150Y9012D01*
X18220Y9026D01*
X18280Y9065D01*
X18320Y9125D01*
X18334Y9195D01*
X18320Y9266D01*
X18280Y9325D01*
X18220Y9365D01*
X18150Y9379D01*
D02*
G37*
G36*
X16300Y9340D02*
X16207Y9328D01*
X16121Y9292D01*
X16047Y9235D01*
X15990Y9161D01*
X15954Y9074D01*
X15942Y8982D01*
X15954Y8889D01*
X15990Y8802D01*
X16047Y8728D01*
X16121Y8671D01*
X16207Y8635D01*
X16300Y8623D01*
X16393Y8635D01*
X16479Y8671D01*
X16553Y8728D01*
X16610Y8802D01*
X16646Y8889D01*
X16658Y8982D01*
X16646Y9074D01*
X16610Y9161D01*
X16553Y9235D01*
X16479Y9292D01*
X16393Y9328D01*
X16300Y9340D01*
D02*
G37*
G36*
X1550Y8788D02*
X1457Y8776D01*
X1371Y8740D01*
X1297Y8683D01*
X1240Y8609D01*
X1204Y8523D01*
X1192Y8430D01*
X1204Y8337D01*
X1240Y8251D01*
X1297Y8177D01*
X1371Y8120D01*
X1457Y8084D01*
X1550Y8072D01*
X1643Y8084D01*
X1729Y8120D01*
X1803Y8177D01*
X1860Y8251D01*
X1896Y8337D01*
X1908Y8430D01*
X1896Y8523D01*
X1860Y8609D01*
X1803Y8683D01*
X1729Y8740D01*
X1643Y8776D01*
X1550Y8788D01*
D02*
G37*
G36*
X550D02*
X457Y8776D01*
X371Y8740D01*
X297Y8683D01*
X240Y8609D01*
X204Y8523D01*
X192Y8430D01*
X204Y8337D01*
X240Y8251D01*
X297Y8177D01*
X371Y8120D01*
X457Y8084D01*
X550Y8072D01*
X643Y8084D01*
X729Y8120D01*
X803Y8177D01*
X860Y8251D01*
X896Y8337D01*
X908Y8430D01*
X896Y8523D01*
X860Y8609D01*
X803Y8683D01*
X729Y8740D01*
X643Y8776D01*
X550Y8788D01*
D02*
G37*
G36*
X3050Y8384D02*
X2980Y8370D01*
X2920Y8330D01*
X2880Y8270D01*
X2866Y8200D01*
X2880Y8130D01*
X2920Y8070D01*
X2933Y8062D01*
X2947Y7992D01*
X2946Y7991D01*
X2936Y7941D01*
X2946Y7890D01*
X2975Y7848D01*
X3017Y7819D01*
X3068Y7809D01*
X3173D01*
X3230Y7771D01*
X3300Y7757D01*
X3370Y7771D01*
X3430Y7811D01*
X3470Y7871D01*
X3484Y7941D01*
X3470Y8011D01*
X3430Y8071D01*
X3393Y8095D01*
Y8326D01*
X3183D01*
X3180Y8330D01*
X3120Y8370D01*
X3050Y8384D01*
D02*
G37*
G36*
X2398Y8328D02*
X2202D01*
X2151Y8318D01*
X2109Y8290D01*
X2080Y8247D01*
X2070Y8197D01*
X2080Y8146D01*
X2109Y8104D01*
X2116Y8099D01*
Y8039D01*
X2109Y8034D01*
X2080Y7991D01*
X2070Y7941D01*
X2080Y7890D01*
X2084Y7884D01*
X2073Y7816D01*
X2070Y7815D01*
X2030Y7755D01*
X2016Y7685D01*
X2030Y7615D01*
X2070Y7555D01*
X2130Y7515D01*
X2200Y7501D01*
X2270Y7515D01*
X2327Y7553D01*
X2398D01*
X2449Y7563D01*
X2491Y7592D01*
X2520Y7635D01*
X2530Y7685D01*
X2523Y7721D01*
X2522Y7739D01*
X2545Y7788D01*
X2580Y7811D01*
X2620Y7871D01*
X2634Y7941D01*
X2620Y8011D01*
X2580Y8071D01*
X2545Y8094D01*
X2522Y8142D01*
X2523Y8161D01*
X2530Y8197D01*
X2520Y8247D01*
X2491Y8290D01*
X2449Y8318D01*
X2398Y8328D01*
D02*
G37*
G36*
X29531Y7775D02*
X29438Y7756D01*
X29360Y7704D01*
X29307Y7626D01*
X29289Y7533D01*
X29307Y7441D01*
X29360Y7362D01*
X29438Y7310D01*
X29531Y7291D01*
X29623Y7310D01*
X29702Y7362D01*
X29754Y7441D01*
X29773Y7533D01*
X29754Y7626D01*
X29702Y7704D01*
X29623Y7756D01*
X29531Y7775D01*
D02*
G37*
G36*
X1550Y7788D02*
X1457Y7776D01*
X1371Y7740D01*
X1297Y7683D01*
X1240Y7609D01*
X1204Y7523D01*
X1192Y7430D01*
X1204Y7337D01*
X1240Y7251D01*
X1297Y7177D01*
X1371Y7120D01*
X1457Y7084D01*
X1550Y7072D01*
X1643Y7084D01*
X1729Y7120D01*
X1803Y7177D01*
X1860Y7251D01*
X1896Y7337D01*
X1908Y7430D01*
X1896Y7523D01*
X1860Y7609D01*
X1803Y7683D01*
X1729Y7740D01*
X1643Y7776D01*
X1550Y7788D01*
D02*
G37*
G36*
X550D02*
X457Y7776D01*
X371Y7740D01*
X297Y7683D01*
X240Y7609D01*
X204Y7523D01*
X192Y7430D01*
X204Y7337D01*
X240Y7251D01*
X297Y7177D01*
X371Y7120D01*
X457Y7084D01*
X550Y7072D01*
X643Y7084D01*
X729Y7120D01*
X803Y7177D01*
X860Y7251D01*
X896Y7337D01*
X908Y7430D01*
X896Y7523D01*
X860Y7609D01*
X803Y7683D01*
X729Y7740D01*
X643Y7776D01*
X550Y7788D01*
D02*
G37*
G36*
X1550Y6788D02*
X1457Y6776D01*
X1371Y6740D01*
X1297Y6683D01*
X1240Y6609D01*
X1204Y6523D01*
X1192Y6430D01*
X1204Y6337D01*
X1240Y6251D01*
X1297Y6177D01*
X1371Y6120D01*
X1457Y6084D01*
X1550Y6072D01*
X1643Y6084D01*
X1729Y6120D01*
X1803Y6177D01*
X1860Y6251D01*
X1896Y6337D01*
X1908Y6430D01*
X1896Y6523D01*
X1860Y6609D01*
X1803Y6683D01*
X1729Y6740D01*
X1643Y6776D01*
X1550Y6788D01*
D02*
G37*
G36*
X550D02*
X457Y6776D01*
X371Y6740D01*
X297Y6683D01*
X240Y6609D01*
X204Y6523D01*
X192Y6430D01*
X204Y6337D01*
X240Y6251D01*
X297Y6177D01*
X371Y6120D01*
X457Y6084D01*
X550Y6072D01*
X643Y6084D01*
X729Y6120D01*
X803Y6177D01*
X860Y6251D01*
X896Y6337D01*
X908Y6430D01*
X896Y6523D01*
X860Y6609D01*
X803Y6683D01*
X729Y6740D01*
X643Y6776D01*
X550Y6788D01*
D02*
G37*
G36*
X3050Y6389D02*
X2980Y6375D01*
X2920Y6336D01*
X2880Y6276D01*
X2866Y6206D01*
X2880Y6136D01*
X2920Y6076D01*
X2973Y6041D01*
X2946Y6000D01*
X2936Y5950D01*
X2946Y5900D01*
X2975Y5857D01*
X3017Y5829D01*
X3068Y5819D01*
X3173D01*
X3230Y5780D01*
X3300Y5766D01*
X3370Y5780D01*
X3430Y5820D01*
X3470Y5880D01*
X3484Y5950D01*
X3470Y6020D01*
X3430Y6080D01*
X3393Y6104D01*
Y6335D01*
X3180D01*
X3180Y6336D01*
X3120Y6375D01*
X3050Y6389D01*
D02*
G37*
G36*
X15300Y6340D02*
X15207Y6328D01*
X15121Y6292D01*
X15047Y6235D01*
X14990Y6161D01*
X14954Y6074D01*
X14942Y5982D01*
X14954Y5889D01*
X14990Y5802D01*
X15047Y5728D01*
X15121Y5671D01*
X15207Y5635D01*
X15300Y5623D01*
X15393Y5635D01*
X15479Y5671D01*
X15553Y5728D01*
X15610Y5802D01*
X15646Y5889D01*
X15658Y5982D01*
X15646Y6074D01*
X15610Y6161D01*
X15553Y6235D01*
X15479Y6292D01*
X15393Y6328D01*
X15300Y6340D01*
D02*
G37*
G36*
X2398Y6337D02*
X2202D01*
X2151Y6327D01*
X2109Y6299D01*
X2080Y6256D01*
X2070Y6206D01*
X2080Y6156D01*
X2109Y6113D01*
X2116Y6108D01*
Y6048D01*
X2109Y6043D01*
X2080Y6000D01*
X2070Y5950D01*
X2075Y5924D01*
X2067Y5908D01*
X2042Y5878D01*
X2038Y5875D01*
X1980Y5864D01*
X1920Y5824D01*
X1894Y5785D01*
X1195D01*
Y5075D01*
X1905D01*
Y5514D01*
X1955Y5541D01*
X1980Y5525D01*
X2050Y5511D01*
X2120Y5525D01*
X2174Y5560D01*
X2180Y5563D01*
X2184Y5566D01*
X2202Y5563D01*
X2398D01*
X2449Y5573D01*
X2491Y5601D01*
X2520Y5644D01*
X2530Y5694D01*
X2523Y5730D01*
X2522Y5749D01*
X2545Y5797D01*
X2580Y5820D01*
X2620Y5880D01*
X2634Y5950D01*
X2620Y6020D01*
X2580Y6080D01*
X2545Y6103D01*
X2522Y6151D01*
X2523Y6170D01*
X2530Y6206D01*
X2520Y6256D01*
X2491Y6299D01*
X2449Y6327D01*
X2398Y6337D01*
D02*
G37*
G36*
X26047Y6412D02*
X25140D01*
Y5505D01*
X26047D01*
Y6412D01*
D02*
G37*
G36*
X29827Y6038D02*
X28920D01*
Y5327D01*
X29827D01*
Y6038D01*
D02*
G37*
G36*
X550Y5788D02*
X457Y5776D01*
X371Y5740D01*
X297Y5683D01*
X240Y5609D01*
X204Y5523D01*
X192Y5430D01*
X204Y5337D01*
X240Y5251D01*
X297Y5177D01*
X371Y5120D01*
X457Y5084D01*
X550Y5072D01*
X643Y5084D01*
X729Y5120D01*
X803Y5177D01*
X860Y5251D01*
X896Y5337D01*
X908Y5430D01*
X896Y5523D01*
X860Y5609D01*
X803Y5683D01*
X729Y5740D01*
X643Y5776D01*
X550Y5788D01*
D02*
G37*
G36*
X16300Y5340D02*
X16207Y5328D01*
X16121Y5292D01*
X16047Y5235D01*
X15990Y5161D01*
X15954Y5074D01*
X15942Y4981D01*
X15954Y4889D01*
X15990Y4802D01*
X16047Y4728D01*
X16121Y4671D01*
X16207Y4635D01*
X16300Y4623D01*
X16393Y4635D01*
X16479Y4671D01*
X16553Y4728D01*
X16610Y4802D01*
X16646Y4889D01*
X16658Y4981D01*
X16646Y5074D01*
X16610Y5161D01*
X16553Y5235D01*
X16479Y5292D01*
X16393Y5328D01*
X16300Y5340D01*
D02*
G37*
G36*
X15300D02*
X15207Y5328D01*
X15121Y5292D01*
X15047Y5235D01*
X14990Y5161D01*
X14954Y5074D01*
X14942Y4981D01*
X14954Y4889D01*
X14990Y4802D01*
X15047Y4728D01*
X15121Y4671D01*
X15207Y4635D01*
X15300Y4623D01*
X15393Y4635D01*
X15479Y4671D01*
X15553Y4728D01*
X15610Y4802D01*
X15646Y4889D01*
X15658Y4981D01*
X15646Y5074D01*
X15610Y5161D01*
X15553Y5235D01*
X15479Y5292D01*
X15393Y5328D01*
X15300Y5340D01*
D02*
G37*
G36*
X27100Y4297D02*
X27030Y4283D01*
X26976Y4248D01*
X26970Y4245D01*
X26965Y4241D01*
X26963Y4239D01*
X26960Y4237D01*
X26956Y4235D01*
X26952Y4233D01*
X26947Y4232D01*
X26941Y4231D01*
X26935Y4230D01*
X26927Y4229D01*
X26917Y4229D01*
X26911Y4226D01*
X25739D01*
X25733Y4229D01*
X25723Y4229D01*
X25715Y4230D01*
X25709Y4231D01*
X25703Y4232D01*
X25698Y4233D01*
X25694Y4235D01*
X25690Y4237D01*
X25687Y4239D01*
X25685Y4241D01*
X25680Y4245D01*
X25674Y4248D01*
X25620Y4283D01*
X25550Y4297D01*
X25480Y4283D01*
X25420Y4244D01*
X25380Y4184D01*
X25366Y4114D01*
X25380Y4044D01*
X25420Y3984D01*
X25480Y3944D01*
X25550Y3930D01*
X25620Y3944D01*
X25674Y3980D01*
X25680Y3982D01*
X25685Y3987D01*
X25687Y3989D01*
X25690Y3991D01*
X25694Y3992D01*
X25698Y3994D01*
X25703Y3996D01*
X25709Y3997D01*
X25715Y3998D01*
X25723Y3999D01*
X25733Y3999D01*
X25739Y4002D01*
X26911D01*
X26917Y3999D01*
X26927Y3999D01*
X26935Y3998D01*
X26941Y3997D01*
X26947Y3996D01*
X26952Y3994D01*
X26956Y3992D01*
X26960Y3991D01*
X26963Y3989D01*
X26965Y3987D01*
X26970Y3982D01*
X26976Y3980D01*
X27030Y3944D01*
X27100Y3930D01*
X27170Y3944D01*
X27230Y3984D01*
X27270Y4044D01*
X27284Y4114D01*
X27270Y4184D01*
X27230Y4244D01*
X27170Y4283D01*
X27100Y4297D01*
D02*
G37*
G36*
X29700Y4429D02*
X29630Y4415D01*
X29570Y4375D01*
X29530Y4316D01*
X29516Y4246D01*
X29530Y4175D01*
X29570Y4116D01*
X29630Y4076D01*
X29700Y4062D01*
X29770Y4076D01*
X29830Y4116D01*
X29870Y4175D01*
X29884Y4246D01*
X29870Y4316D01*
X29830Y4375D01*
X29770Y4415D01*
X29700Y4429D01*
D02*
G37*
G36*
X16300Y4340D02*
X16207Y4328D01*
X16121Y4292D01*
X16047Y4235D01*
X15990Y4161D01*
X15954Y4074D01*
X15942Y3981D01*
X15954Y3889D01*
X15990Y3802D01*
X16047Y3728D01*
X16121Y3671D01*
X16207Y3635D01*
X16300Y3623D01*
X16393Y3635D01*
X16479Y3671D01*
X16553Y3728D01*
X16610Y3802D01*
X16646Y3889D01*
X16658Y3981D01*
X16646Y4074D01*
X16610Y4161D01*
X16553Y4235D01*
X16479Y4292D01*
X16393Y4328D01*
X16300Y4340D01*
D02*
G37*
G36*
X15300D02*
X15207Y4328D01*
X15121Y4292D01*
X15047Y4235D01*
X14990Y4161D01*
X14954Y4074D01*
X14942Y3981D01*
X14954Y3889D01*
X14990Y3802D01*
X15047Y3728D01*
X15121Y3671D01*
X15207Y3635D01*
X15300Y3623D01*
X15393Y3635D01*
X15479Y3671D01*
X15553Y3728D01*
X15610Y3802D01*
X15646Y3889D01*
X15658Y3981D01*
X15646Y4074D01*
X15610Y4161D01*
X15553Y4235D01*
X15479Y4292D01*
X15393Y4328D01*
X15300Y4340D01*
D02*
G37*
G36*
X10850Y2034D02*
X10780Y2020D01*
X10720Y1980D01*
X10680Y1920D01*
X10666Y1850D01*
X10680Y1780D01*
X10720Y1720D01*
X10743Y1705D01*
Y1645D01*
X10720Y1630D01*
X10680Y1570D01*
X10666Y1500D01*
X10680Y1430D01*
X10720Y1370D01*
X10780Y1330D01*
X10850Y1316D01*
X10920Y1330D01*
X10980Y1370D01*
X11020Y1430D01*
X11034Y1500D01*
X11020Y1570D01*
X10980Y1630D01*
X10957Y1645D01*
Y1705D01*
X10980Y1720D01*
X11020Y1780D01*
X11034Y1850D01*
X11020Y1920D01*
X10980Y1980D01*
X10920Y2020D01*
X10850Y2034D01*
D02*
G37*
G36*
X10400D02*
X10330Y2020D01*
X10270Y1980D01*
X10230Y1920D01*
X10216Y1850D01*
X10230Y1780D01*
X10270Y1720D01*
X10293Y1705D01*
Y1645D01*
X10270Y1630D01*
X10230Y1570D01*
X10216Y1500D01*
X10230Y1430D01*
X10270Y1370D01*
X10330Y1330D01*
X10400Y1316D01*
X10470Y1330D01*
X10530Y1370D01*
X10570Y1430D01*
X10584Y1500D01*
X10570Y1570D01*
X10530Y1630D01*
X10507Y1645D01*
Y1705D01*
X10530Y1720D01*
X10570Y1780D01*
X10584Y1850D01*
X10570Y1920D01*
X10530Y1980D01*
X10470Y2020D01*
X10400Y2034D01*
D02*
G37*
%LPD*%
G36*
X26806Y26256D02*
X26803Y26274D01*
X26794Y26290D01*
X26779Y26304D01*
X26758Y26316D01*
X26731Y26326D01*
X26698Y26335D01*
X26659Y26342D01*
X26614Y26346D01*
X26506Y26350D01*
Y26650D01*
X26563Y26651D01*
X26614Y26656D01*
X26659Y26663D01*
X26699Y26674D01*
X26732Y26688D01*
X26759Y26704D01*
X26780Y26723D01*
X26795Y26746D01*
X26804Y26772D01*
X26807Y26800D01*
X26806Y26256D01*
D02*
G37*
G36*
X16541Y20177D02*
X16599Y20127D01*
X16626Y20106D01*
X16652Y20089D01*
X16677Y20075D01*
X16701Y20064D01*
X16725Y20056D01*
X16747Y20052D01*
X16768Y20050D01*
Y19950D01*
X16747Y19948D01*
X16725Y19944D01*
X16701Y19936D01*
X16677Y19925D01*
X16652Y19911D01*
X16626Y19894D01*
X16599Y19873D01*
X16541Y19823D01*
X16511Y19793D01*
Y20207D01*
X16541Y20177D01*
D02*
G37*
G36*
X22378Y19707D02*
X22372Y19700D01*
X22367Y19692D01*
X22362Y19683D01*
X22359Y19674D01*
X22355Y19664D01*
X22353Y19654D01*
X22351Y19643D01*
X22350Y19631D01*
X22350Y19619D01*
X22250D01*
X22250Y19631D01*
X22249Y19643D01*
X22247Y19654D01*
X22245Y19664D01*
X22241Y19674D01*
X22238Y19683D01*
X22233Y19692D01*
X22228Y19700D01*
X22222Y19707D01*
X22216Y19714D01*
X22384D01*
X22378Y19707D01*
D02*
G37*
G36*
X14566Y19619D02*
X14567Y19607D01*
X14569Y19596D01*
X14571Y19586D01*
X14574Y19576D01*
X14578Y19567D01*
X14582Y19558D01*
X14588Y19550D01*
X14593Y19543D01*
X14600Y19536D01*
X14432D01*
X14438Y19543D01*
X14444Y19550D01*
X14449Y19558D01*
X14454Y19567D01*
X14457Y19576D01*
X14460Y19586D01*
X14463Y19596D01*
X14464Y19607D01*
X14465Y19619D01*
X14466Y19631D01*
X14566D01*
X14566Y19619D01*
D02*
G37*
G36*
X14378Y18981D02*
X14372Y18974D01*
X14367Y18966D01*
X14362Y18957D01*
X14359Y18948D01*
X14355Y18938D01*
X14353Y18928D01*
X14351Y18917D01*
X14350Y18905D01*
X14350Y18893D01*
X14250D01*
X14250Y18905D01*
X14249Y18917D01*
X14247Y18928D01*
X14245Y18938D01*
X14241Y18948D01*
X14238Y18957D01*
X14233Y18966D01*
X14228Y18974D01*
X14222Y18981D01*
X14216Y18988D01*
X14384D01*
X14378Y18981D01*
D02*
G37*
G36*
X16297Y18705D02*
X16255Y18704D01*
X16179Y18699D01*
X16145Y18694D01*
X16114Y18688D01*
X16086Y18680D01*
X16061Y18671D01*
X16039Y18660D01*
X16020Y18648D01*
X16004Y18634D01*
X15934Y18704D01*
X15948Y18720D01*
X15960Y18739D01*
X15971Y18761D01*
X15980Y18786D01*
X15988Y18814D01*
X15994Y18845D01*
X15999Y18879D01*
X16004Y18955D01*
X16005Y18997D01*
X16297Y18705D01*
D02*
G37*
G36*
X18643Y18078D02*
X18650Y18072D01*
X18658Y18067D01*
X18667Y18062D01*
X18676Y18059D01*
X18686Y18055D01*
X18696Y18053D01*
X18707Y18051D01*
X18719Y18050D01*
X18731Y18050D01*
Y17950D01*
X18719Y17950D01*
X18707Y17949D01*
X18696Y17947D01*
X18686Y17945D01*
X18676Y17941D01*
X18667Y17938D01*
X18658Y17933D01*
X18650Y17928D01*
X18643Y17922D01*
X18636Y17916D01*
Y18084D01*
X18643Y18078D01*
D02*
G37*
G36*
X16562Y18141D02*
X16578Y18122D01*
X16595Y18105D01*
X16612Y18091D01*
X16631Y18078D01*
X16650Y18068D01*
X16670Y18060D01*
X16691Y18054D01*
X16712Y18051D01*
X16735Y18050D01*
Y17950D01*
X16712Y17949D01*
X16691Y17945D01*
X16670Y17940D01*
X16650Y17932D01*
X16631Y17922D01*
X16612Y17909D01*
X16595Y17895D01*
X16578Y17878D01*
X16562Y17859D01*
X16546Y17837D01*
Y18163D01*
X16562Y18141D01*
D02*
G37*
G36*
X16147Y16706D02*
X16140Y16712D01*
X16130Y16714D01*
X16120D01*
X16108Y16712D01*
X16094Y16706D01*
X16079Y16697D01*
X16063Y16686D01*
X16046Y16672D01*
X16006Y16635D01*
X15935Y16706D01*
X15955Y16726D01*
X15986Y16763D01*
X15997Y16779D01*
X16006Y16794D01*
X16012Y16808D01*
X16014Y16820D01*
Y16830D01*
X16012Y16840D01*
X16006Y16847D01*
X16147Y16706D01*
D02*
G37*
G36*
X21683Y12487D02*
X21684Y12475D01*
X21686Y12464D01*
X21689Y12454D01*
X21692Y12444D01*
X21695Y12435D01*
X21700Y12426D01*
X21705Y12418D01*
X21711Y12410D01*
X21717Y12403D01*
X21549D01*
X21556Y12410D01*
X21561Y12418D01*
X21566Y12426D01*
X21571Y12435D01*
X21575Y12444D01*
X21578Y12454D01*
X21580Y12464D01*
X21582Y12475D01*
X21583Y12487D01*
X21583Y12499D01*
X21683D01*
X21683Y12487D01*
D02*
G37*
G36*
X17325Y12430D02*
X17316Y12430D01*
X17306Y12428D01*
X17297Y12426D01*
X17288Y12423D01*
X17279Y12419D01*
X17270Y12415D01*
X17261Y12409D01*
X17252Y12402D01*
X17243Y12395D01*
X17234Y12387D01*
X17163Y12457D01*
X17171Y12466D01*
X17179Y12475D01*
X17185Y12484D01*
X17191Y12493D01*
X17196Y12502D01*
X17200Y12511D01*
X17203Y12521D01*
X17205Y12530D01*
X17206Y12539D01*
X17207Y12549D01*
X17325Y12430D01*
D02*
G37*
G36*
X16136Y12422D02*
X16143Y12417D01*
X16152Y12412D01*
X16160Y12407D01*
X16170Y12403D01*
X16179Y12400D01*
X16190Y12398D01*
X16201Y12396D01*
X16212Y12395D01*
X16224Y12395D01*
Y12295D01*
X16212Y12295D01*
X16201Y12294D01*
X16190Y12292D01*
X16179Y12289D01*
X16170Y12286D01*
X16160Y12283D01*
X16152Y12278D01*
X16143Y12273D01*
X16136Y12267D01*
X16129Y12261D01*
Y12429D01*
X16136Y12422D01*
D02*
G37*
G36*
X20928Y12207D02*
X20922Y12200D01*
X20917Y12192D01*
X20912Y12183D01*
X20909Y12174D01*
X20905Y12164D01*
X20903Y12154D01*
X20901Y12143D01*
X20900Y12131D01*
X20900Y12119D01*
X20800D01*
X20800Y12131D01*
X20799Y12143D01*
X20797Y12154D01*
X20795Y12164D01*
X20791Y12174D01*
X20788Y12183D01*
X20783Y12192D01*
X20778Y12200D01*
X20772Y12207D01*
X20766Y12214D01*
X20934D01*
X20928Y12207D01*
D02*
G37*
G36*
X20115Y9364D02*
X20116Y9353D01*
X20117Y9342D01*
X20120Y9331D01*
X20123Y9321D01*
X20126Y9312D01*
X20131Y9304D01*
X20136Y9295D01*
X20142Y9288D01*
X20148Y9281D01*
X19980D01*
X19987Y9288D01*
X19992Y9295D01*
X19998Y9304D01*
X20002Y9312D01*
X20006Y9321D01*
X20009Y9331D01*
X20011Y9342D01*
X20013Y9353D01*
X20014Y9364D01*
X20014Y9376D01*
X20114D01*
X20115Y9364D01*
D02*
G37*
G36*
X19113Y9093D02*
X19105Y9084D01*
X19098Y9075D01*
X19091Y9066D01*
X19085Y9057D01*
X19081Y9048D01*
X19077Y9039D01*
X19074Y9029D01*
X19072Y9020D01*
X19070Y9011D01*
X19070Y9001D01*
X18951Y9120D01*
X18961Y9120D01*
X18970Y9122D01*
X18979Y9124D01*
X18989Y9127D01*
X18998Y9131D01*
X19007Y9135D01*
X19016Y9141D01*
X19025Y9148D01*
X19034Y9155D01*
X19043Y9163D01*
X19113Y9093D01*
D02*
G37*
G36*
X20066Y8805D02*
X20075Y8798D01*
X20084Y8791D01*
X20093Y8785D01*
X20102Y8781D01*
X20111Y8777D01*
X20121Y8774D01*
X20130Y8772D01*
X20139Y8770D01*
X20149Y8770D01*
X20030Y8651D01*
X20030Y8661D01*
X20028Y8670D01*
X20026Y8679D01*
X20023Y8689D01*
X20019Y8698D01*
X20015Y8707D01*
X20009Y8716D01*
X20002Y8725D01*
X19995Y8734D01*
X19987Y8743D01*
X20057Y8813D01*
X20066Y8805D01*
D02*
G37*
G36*
X18766Y8255D02*
X18775Y8248D01*
X18784Y8241D01*
X18793Y8235D01*
X18802Y8231D01*
X18811Y8227D01*
X18821Y8224D01*
X18830Y8222D01*
X18839Y8220D01*
X18849Y8220D01*
X18730Y8101D01*
X18730Y8111D01*
X18728Y8120D01*
X18726Y8129D01*
X18723Y8139D01*
X18719Y8148D01*
X18715Y8157D01*
X18709Y8166D01*
X18702Y8175D01*
X18695Y8184D01*
X18687Y8193D01*
X18757Y8263D01*
X18766Y8255D01*
D02*
G37*
G36*
X16541Y7158D02*
X16599Y7108D01*
X16626Y7088D01*
X16652Y7071D01*
X16677Y7057D01*
X16701Y7046D01*
X16725Y7038D01*
X16747Y7033D01*
X16768Y7031D01*
Y6931D01*
X16747Y6930D01*
X16725Y6925D01*
X16701Y6917D01*
X16677Y6906D01*
X16652Y6892D01*
X16626Y6875D01*
X16599Y6855D01*
X16541Y6805D01*
X16511Y6775D01*
Y7188D01*
X16541Y7158D01*
D02*
G37*
G36*
Y6158D02*
X16599Y6108D01*
X16626Y6088D01*
X16652Y6071D01*
X16677Y6057D01*
X16701Y6046D01*
X16725Y6038D01*
X16747Y6033D01*
X16768Y6032D01*
Y5932D01*
X16747Y5930D01*
X16725Y5925D01*
X16701Y5917D01*
X16677Y5906D01*
X16652Y5892D01*
X16626Y5875D01*
X16599Y5855D01*
X16541Y5805D01*
X16511Y5775D01*
Y6188D01*
X16541Y6158D01*
D02*
G37*
G36*
X17650Y4769D02*
X17651Y4757D01*
X17653Y4746D01*
X17655Y4736D01*
X17658Y4726D01*
X17662Y4717D01*
X17667Y4708D01*
X17672Y4700D01*
X17678Y4693D01*
X17684Y4686D01*
X17516D01*
X17522Y4693D01*
X17528Y4700D01*
X17533Y4708D01*
X17538Y4717D01*
X17542Y4726D01*
X17545Y4736D01*
X17547Y4746D01*
X17549Y4757D01*
X17550Y4769D01*
X17550Y4781D01*
X17650D01*
X17650Y4769D01*
D02*
G37*
G36*
X17900Y4188D02*
X17900Y4176D01*
X17901Y4164D01*
X17903Y4153D01*
X17905Y4143D01*
X17908Y4133D01*
X17912Y4124D01*
X17916Y4115D01*
X17921Y4107D01*
X17927Y4099D01*
X17934Y4092D01*
X17766Y4094D01*
X17772Y4101D01*
X17778Y4109D01*
X17783Y4117D01*
X17788Y4125D01*
X17791Y4134D01*
X17794Y4144D01*
X17797Y4155D01*
X17799Y4166D01*
X17800Y4177D01*
X17800Y4189D01*
X17900Y4188D01*
D02*
G37*
G36*
X24543Y21078D02*
X24550Y21072D01*
X24558Y21067D01*
X24567Y21062D01*
X24576Y21058D01*
X24586Y21055D01*
X24596Y21053D01*
X24607Y21051D01*
X24619Y21050D01*
X24631Y21050D01*
Y20950D01*
X24619Y20950D01*
X24607Y20949D01*
X24596Y20947D01*
X24586Y20945D01*
X24576Y20942D01*
X24567Y20938D01*
X24558Y20933D01*
X24550Y20928D01*
X24543Y20922D01*
X24536Y20916D01*
Y21084D01*
X24543Y21078D01*
D02*
G37*
G36*
X25850Y20719D02*
X25851Y20707D01*
X25853Y20696D01*
X25855Y20686D01*
X25859Y20676D01*
X25862Y20667D01*
X25867Y20658D01*
X25872Y20650D01*
X25878Y20643D01*
X25884Y20636D01*
X25716D01*
X25722Y20643D01*
X25728Y20650D01*
X25733Y20658D01*
X25738Y20667D01*
X25742Y20676D01*
X25745Y20686D01*
X25747Y20696D01*
X25749Y20707D01*
X25750Y20719D01*
X25750Y20731D01*
X25850D01*
X25850Y20719D01*
D02*
G37*
G36*
X1773Y14896D02*
X1787Y14886D01*
X1804Y14878D01*
X1823Y14870D01*
X1844Y14864D01*
X1867Y14859D01*
X1892Y14855D01*
X1920Y14852D01*
X1981Y14850D01*
Y14550D01*
X1950Y14549D01*
X1892Y14545D01*
X1867Y14541D01*
X1844Y14536D01*
X1823Y14530D01*
X1804Y14522D01*
X1787Y14514D01*
X1773Y14504D01*
X1761Y14493D01*
Y14907D01*
X1773Y14896D01*
D02*
G37*
G36*
X16778Y15161D02*
X16772Y15153D01*
X16767Y15145D01*
X16762Y15136D01*
X16759Y15127D01*
X16755Y15117D01*
X16753Y15107D01*
X16751Y15096D01*
X16750Y15084D01*
X16750Y15072D01*
X16650D01*
X16650Y15084D01*
X16649Y15096D01*
X16647Y15107D01*
X16645Y15117D01*
X16641Y15127D01*
X16638Y15136D01*
X16633Y15145D01*
X16628Y15153D01*
X16622Y15161D01*
X16616Y15167D01*
X16784D01*
X16778Y15161D01*
D02*
G37*
G36*
X16816Y13452D02*
X16825Y13445D01*
X16834Y13438D01*
X16843Y13432D01*
X16852Y13428D01*
X16861Y13424D01*
X16871Y13421D01*
X16880Y13419D01*
X16889Y13417D01*
X16899Y13417D01*
X16780Y13298D01*
X16780Y13308D01*
X16778Y13317D01*
X16776Y13326D01*
X16773Y13336D01*
X16769Y13345D01*
X16765Y13354D01*
X16759Y13363D01*
X16752Y13372D01*
X16745Y13381D01*
X16737Y13390D01*
X16807Y13460D01*
X16816Y13452D01*
D02*
G37*
G36*
X18728Y12757D02*
X18722Y12750D01*
X18717Y12742D01*
X18712Y12733D01*
X18708Y12724D01*
X18705Y12714D01*
X18703Y12704D01*
X18701Y12693D01*
X18700Y12681D01*
X18700Y12669D01*
X18600D01*
X18600Y12681D01*
X18599Y12693D01*
X18597Y12704D01*
X18595Y12714D01*
X18592Y12724D01*
X18588Y12733D01*
X18583Y12742D01*
X18578Y12750D01*
X18572Y12757D01*
X18566Y12764D01*
X18734D01*
X18728Y12757D01*
D02*
G37*
G36*
X16333Y11778D02*
X16340Y11772D01*
X16348Y11767D01*
X16357Y11762D01*
X16366Y11759D01*
X16376Y11755D01*
X16387Y11753D01*
X16398Y11751D01*
X16409Y11750D01*
X16421Y11750D01*
Y11650D01*
X16409Y11650D01*
X16398Y11649D01*
X16387Y11647D01*
X16376Y11645D01*
X16366Y11641D01*
X16357Y11638D01*
X16348Y11633D01*
X16340Y11628D01*
X16333Y11622D01*
X16326Y11616D01*
Y11784D01*
X16333Y11778D01*
D02*
G37*
G36*
X25596Y9320D02*
X25605Y9317D01*
X25619Y9314D01*
X25640Y9312D01*
X25740Y9308D01*
X25893Y9306D01*
Y9006D01*
X25593Y9011D01*
Y9323D01*
X25596Y9320D01*
D02*
G37*
G36*
X2143Y5772D02*
X2150Y5766D01*
X2158Y5761D01*
X2167Y5756D01*
X2170Y5755D01*
X2170Y5755D01*
X2175Y5758D01*
Y5753D01*
X2176Y5753D01*
X2186Y5750D01*
X2196Y5747D01*
X2207Y5745D01*
X2219Y5744D01*
X2231Y5744D01*
Y5644D01*
X2219Y5644D01*
X2207Y5643D01*
X2196Y5641D01*
X2186Y5639D01*
X2176Y5636D01*
X2175Y5635D01*
Y5630D01*
X2170Y5633D01*
X2170Y5633D01*
X2167Y5632D01*
X2158Y5627D01*
X2150Y5622D01*
X2143Y5617D01*
X2136Y5610D01*
Y5640D01*
X2122Y5642D01*
X2091Y5644D01*
X2055Y5644D01*
Y5744D01*
X2074Y5744D01*
X2136Y5748D01*
Y5778D01*
X2143Y5772D01*
D02*
G37*
G36*
X27014Y4030D02*
X27007Y4036D01*
X27000Y4042D01*
X26992Y4047D01*
X26983Y4052D01*
X26974Y4055D01*
X26964Y4058D01*
X26954Y4061D01*
X26943Y4062D01*
X26931Y4063D01*
X26919Y4064D01*
Y4164D01*
X26931Y4164D01*
X26943Y4165D01*
X26954Y4167D01*
X26964Y4169D01*
X26974Y4172D01*
X26983Y4176D01*
X26992Y4180D01*
X27000Y4186D01*
X27007Y4191D01*
X27014Y4198D01*
Y4030D01*
D02*
G37*
G36*
X25643Y4191D02*
X25650Y4186D01*
X25658Y4180D01*
X25667Y4176D01*
X25676Y4172D01*
X25686Y4169D01*
X25696Y4167D01*
X25707Y4165D01*
X25719Y4164D01*
X25731Y4164D01*
Y4064D01*
X25719Y4063D01*
X25707Y4062D01*
X25696Y4061D01*
X25686Y4058D01*
X25676Y4055D01*
X25667Y4052D01*
X25658Y4047D01*
X25650Y4042D01*
X25643Y4036D01*
X25636Y4030D01*
Y4198D01*
X25643Y4191D01*
D02*
G37*
%LPC*%
G36*
X12173Y10187D02*
X12102Y10173D01*
X12043Y10134D01*
X12003Y10074D01*
X11989Y10004D01*
X12003Y9934D01*
X12043Y9874D01*
X12102Y9834D01*
X12173Y9820D01*
X12243Y9834D01*
X12302Y9874D01*
X12342Y9934D01*
X12356Y10004D01*
X12342Y10074D01*
X12302Y10134D01*
X12243Y10173D01*
X12173Y10187D01*
D02*
G37*
G36*
X11400D02*
X11330Y10173D01*
X11270Y10134D01*
X11230Y10074D01*
X11216Y10004D01*
X11230Y9934D01*
X11270Y9874D01*
X11330Y9834D01*
X11400Y9820D01*
X11470Y9834D01*
X11530Y9874D01*
X11570Y9934D01*
X11584Y10004D01*
X11570Y10074D01*
X11530Y10134D01*
X11470Y10173D01*
X11400Y10187D01*
D02*
G37*
G36*
X9000Y10440D02*
X8918Y10423D01*
X8849Y10377D01*
X8802Y10307D01*
X8786Y10226D01*
Y10050D01*
X8802Y9968D01*
X8849Y9899D01*
X9049Y9699D01*
X9118Y9652D01*
X9200Y9636D01*
X9550D01*
X9632Y9652D01*
X9701Y9699D01*
X9748Y9768D01*
X9764Y9850D01*
X9748Y9932D01*
X9701Y10001D01*
X9632Y10048D01*
X9550Y10064D01*
X9289D01*
X9214Y10139D01*
Y10226D01*
X9198Y10307D01*
X9151Y10377D01*
X9082Y10423D01*
X9000Y10440D01*
D02*
G37*
G36*
X12173Y9561D02*
X12102Y9547D01*
X12043Y9507D01*
X12003Y9448D01*
X11989Y9377D01*
X12003Y9307D01*
X12043Y9248D01*
X12102Y9208D01*
X12173Y9194D01*
X12243Y9208D01*
X12302Y9248D01*
X12342Y9307D01*
X12356Y9377D01*
X12342Y9448D01*
X12302Y9507D01*
X12243Y9547D01*
X12173Y9561D01*
D02*
G37*
G36*
X11400D02*
X11330Y9547D01*
X11270Y9507D01*
X11230Y9448D01*
X11216Y9377D01*
X11230Y9307D01*
X11270Y9248D01*
X11330Y9208D01*
X11400Y9194D01*
X11470Y9208D01*
X11530Y9248D01*
X11570Y9307D01*
X11584Y9377D01*
X11570Y9448D01*
X11530Y9507D01*
X11470Y9547D01*
X11400Y9561D01*
D02*
G37*
G36*
X4252Y8871D02*
X4181Y8857D01*
X4122Y8817D01*
X4082Y8758D01*
X4068Y8687D01*
X4082Y8617D01*
X4122Y8558D01*
X4181Y8518D01*
X4252Y8504D01*
X4322Y8518D01*
X4375Y8554D01*
X4381Y8556D01*
X4386Y8560D01*
X4389Y8562D01*
X4392Y8564D01*
X4396Y8566D01*
X4400Y8568D01*
X4405Y8569D01*
X4410Y8571D01*
X4417Y8572D01*
X4424Y8572D01*
X4434Y8573D01*
X4441Y8575D01*
X5030D01*
X5036Y8573D01*
X5046Y8572D01*
X5054Y8572D01*
X5060Y8571D01*
X5066Y8569D01*
X5071Y8568D01*
X5075Y8566D01*
X5079Y8564D01*
X5082Y8562D01*
X5084Y8560D01*
X5089Y8556D01*
X5095Y8554D01*
X5149Y8518D01*
X5219Y8504D01*
X5289Y8518D01*
X5349Y8558D01*
X5388Y8617D01*
X5402Y8687D01*
X5388Y8758D01*
X5349Y8817D01*
X5289Y8857D01*
X5219Y8871D01*
X5149Y8857D01*
X5095Y8821D01*
X5089Y8819D01*
X5084Y8815D01*
X5082Y8813D01*
X5079Y8811D01*
X5075Y8809D01*
X5071Y8807D01*
X5066Y8806D01*
X5060Y8804D01*
X5054Y8803D01*
X5046Y8803D01*
X5036Y8802D01*
X5030Y8800D01*
X4441D01*
X4434Y8802D01*
X4424Y8803D01*
X4417Y8803D01*
X4410Y8804D01*
X4405Y8806D01*
X4400Y8807D01*
X4395Y8809D01*
X4392Y8811D01*
X4389Y8813D01*
X4386Y8815D01*
X4381Y8819D01*
X4375Y8821D01*
X4322Y8857D01*
X4252Y8871D01*
D02*
G37*
G36*
Y8359D02*
X4181Y8345D01*
X4122Y8305D01*
X4082Y8245D01*
X4068Y8175D01*
X4082Y8105D01*
X4122Y8045D01*
X4181Y8005D01*
X4252Y7991D01*
X4322Y8005D01*
X4375Y8041D01*
X4381Y8043D01*
X4386Y8048D01*
X4389Y8050D01*
X4392Y8052D01*
X4396Y8054D01*
X4400Y8055D01*
X4405Y8057D01*
X4410Y8058D01*
X4417Y8059D01*
X4424Y8060D01*
X4434Y8060D01*
X4441Y8063D01*
X5030D01*
X5036Y8060D01*
X5046Y8060D01*
X5054Y8059D01*
X5060Y8058D01*
X5066Y8057D01*
X5071Y8055D01*
X5075Y8054D01*
X5079Y8052D01*
X5082Y8050D01*
X5084Y8048D01*
X5089Y8043D01*
X5095Y8041D01*
X5149Y8005D01*
X5219Y7991D01*
X5289Y8005D01*
X5349Y8045D01*
X5388Y8105D01*
X5402Y8175D01*
X5388Y8245D01*
X5349Y8305D01*
X5289Y8345D01*
X5219Y8359D01*
X5149Y8345D01*
X5095Y8309D01*
X5089Y8307D01*
X5084Y8302D01*
X5082Y8300D01*
X5079Y8298D01*
X5075Y8296D01*
X5071Y8295D01*
X5066Y8293D01*
X5060Y8292D01*
X5054Y8291D01*
X5046Y8290D01*
X5036Y8290D01*
X5030Y8287D01*
X4441D01*
X4434Y8290D01*
X4424Y8290D01*
X4417Y8291D01*
X4410Y8292D01*
X4405Y8293D01*
X4400Y8295D01*
X4395Y8296D01*
X4392Y8298D01*
X4389Y8300D01*
X4386Y8302D01*
X4381Y8307D01*
X4375Y8309D01*
X4322Y8345D01*
X4252Y8359D01*
D02*
G37*
G36*
Y7846D02*
X4181Y7832D01*
X4122Y7792D01*
X4082Y7733D01*
X4068Y7663D01*
X4082Y7592D01*
X4122Y7533D01*
X4181Y7493D01*
X4252Y7479D01*
X4322Y7493D01*
X4375Y7529D01*
X4381Y7531D01*
X4386Y7535D01*
X4389Y7537D01*
X4392Y7539D01*
X4396Y7541D01*
X4400Y7543D01*
X4405Y7544D01*
X4410Y7546D01*
X4417Y7547D01*
X4424Y7547D01*
X4434Y7548D01*
X4441Y7550D01*
X5020D01*
X5024Y7548D01*
X5027Y7549D01*
X5030Y7548D01*
X5040Y7547D01*
X5047Y7547D01*
X5053Y7546D01*
X5058Y7544D01*
X5062Y7543D01*
X5065Y7542D01*
X5067Y7540D01*
X5069Y7539D01*
X5071Y7537D01*
X5075Y7533D01*
X5082Y7529D01*
X5089Y7519D01*
X5149Y7479D01*
X5219Y7465D01*
X5289Y7479D01*
X5349Y7519D01*
X5388Y7578D01*
X5402Y7649D01*
X5388Y7719D01*
X5349Y7778D01*
X5289Y7818D01*
X5219Y7832D01*
X5149Y7818D01*
X5118Y7797D01*
X5105Y7794D01*
X5099Y7790D01*
X5096Y7788D01*
X5092Y7786D01*
X5087Y7784D01*
X5082Y7782D01*
X5076Y7781D01*
X5071Y7779D01*
X5053Y7778D01*
X5044Y7777D01*
X5038Y7775D01*
X4441D01*
X4434Y7777D01*
X4424Y7778D01*
X4417Y7778D01*
X4410Y7779D01*
X4405Y7781D01*
X4400Y7782D01*
X4395Y7784D01*
X4392Y7786D01*
X4389Y7788D01*
X4386Y7790D01*
X4381Y7794D01*
X4375Y7796D01*
X4322Y7832D01*
X4252Y7846D01*
D02*
G37*
G36*
Y7334D02*
X4181Y7320D01*
X4122Y7280D01*
X4082Y7220D01*
X4068Y7150D01*
X4082Y7080D01*
X4122Y7020D01*
X4181Y6980D01*
X4252Y6966D01*
X4322Y6980D01*
X4375Y7016D01*
X4381Y7018D01*
X4386Y7023D01*
X4389Y7025D01*
X4392Y7027D01*
X4396Y7029D01*
X4400Y7030D01*
X4405Y7032D01*
X4410Y7033D01*
X4417Y7034D01*
X4424Y7035D01*
X4434Y7035D01*
X4441Y7038D01*
X5021D01*
X5025Y7035D01*
X5028Y7036D01*
X5031Y7035D01*
X5041Y7035D01*
X5048Y7034D01*
X5054Y7033D01*
X5059Y7032D01*
X5063Y7030D01*
X5066Y7029D01*
X5068Y7028D01*
X5070Y7026D01*
X5072Y7024D01*
X5076Y7020D01*
X5083Y7016D01*
X5089Y7008D01*
X5149Y6968D01*
X5219Y6954D01*
X5289Y6968D01*
X5349Y7008D01*
X5388Y7067D01*
X5402Y7138D01*
X5388Y7208D01*
X5349Y7267D01*
X5289Y7307D01*
X5219Y7321D01*
X5149Y7307D01*
X5116Y7285D01*
X5103Y7282D01*
X5098Y7278D01*
X5094Y7275D01*
X5090Y7273D01*
X5086Y7271D01*
X5081Y7270D01*
X5075Y7268D01*
X5069Y7267D01*
X5061Y7266D01*
X5053Y7265D01*
X5043Y7265D01*
X5037Y7262D01*
X4441D01*
X4434Y7265D01*
X4424Y7265D01*
X4417Y7266D01*
X4410Y7267D01*
X4405Y7268D01*
X4400Y7270D01*
X4395Y7271D01*
X4392Y7273D01*
X4389Y7275D01*
X4386Y7277D01*
X4381Y7282D01*
X4375Y7284D01*
X4322Y7320D01*
X4252Y7334D01*
D02*
G37*
G36*
X4267Y6821D02*
X4197Y6807D01*
X4138Y6767D01*
X4098Y6708D01*
X4084Y6637D01*
X4098Y6567D01*
X4138Y6508D01*
X4197Y6468D01*
X4267Y6454D01*
X4338Y6468D01*
X4391Y6504D01*
X4397Y6506D01*
X4402Y6510D01*
X4405Y6512D01*
X4408Y6514D01*
X4411Y6516D01*
X4415Y6518D01*
X4420Y6519D01*
X4426Y6521D01*
X4433Y6522D01*
X4440Y6522D01*
X4450Y6523D01*
X4456Y6525D01*
X5030D01*
X5036Y6523D01*
X5046Y6522D01*
X5054Y6522D01*
X5060Y6521D01*
X5066Y6519D01*
X5071Y6518D01*
X5075Y6516D01*
X5079Y6514D01*
X5082Y6512D01*
X5084Y6510D01*
X5089Y6506D01*
X5095Y6504D01*
X5149Y6468D01*
X5219Y6454D01*
X5289Y6468D01*
X5349Y6508D01*
X5388Y6567D01*
X5402Y6637D01*
X5388Y6708D01*
X5349Y6767D01*
X5289Y6807D01*
X5219Y6821D01*
X5149Y6807D01*
X5095Y6771D01*
X5089Y6769D01*
X5084Y6765D01*
X5082Y6763D01*
X5079Y6761D01*
X5075Y6759D01*
X5071Y6757D01*
X5066Y6756D01*
X5060Y6754D01*
X5054Y6753D01*
X5046Y6753D01*
X5036Y6752D01*
X5030Y6750D01*
X4456D01*
X4450Y6752D01*
X4440Y6753D01*
X4433Y6753D01*
X4426Y6754D01*
X4420Y6756D01*
X4415Y6757D01*
X4411Y6759D01*
X4408Y6761D01*
X4405Y6763D01*
X4402Y6765D01*
X4397Y6769D01*
X4391Y6771D01*
X4338Y6807D01*
X4267Y6821D01*
D02*
G37*
G36*
X5219Y6309D02*
X5149Y6295D01*
X5095Y6259D01*
X5089Y6257D01*
X5084Y6252D01*
X5082Y6250D01*
X5079Y6248D01*
X5075Y6246D01*
X5071Y6245D01*
X5066Y6243D01*
X5060Y6242D01*
X5054Y6241D01*
X5046Y6240D01*
X5036Y6240D01*
X5030Y6237D01*
X4441D01*
X4434Y6240D01*
X4424Y6240D01*
X4417Y6241D01*
X4410Y6242D01*
X4405Y6243D01*
X4400Y6245D01*
X4395Y6246D01*
X4392Y6248D01*
X4389Y6250D01*
X4386Y6252D01*
X4381Y6257D01*
X4375Y6259D01*
X4322Y6295D01*
X4252Y6309D01*
X4181Y6295D01*
X4122Y6255D01*
X4082Y6195D01*
X4068Y6125D01*
X4082Y6055D01*
X4122Y5995D01*
X4181Y5955D01*
X4252Y5941D01*
X4322Y5955D01*
X4375Y5991D01*
X4381Y5993D01*
X4386Y5998D01*
X4389Y6000D01*
X4392Y6002D01*
X4396Y6004D01*
X4400Y6005D01*
X4405Y6007D01*
X4410Y6008D01*
X4417Y6009D01*
X4424Y6010D01*
X4434Y6010D01*
X4441Y6013D01*
X5030D01*
X5036Y6010D01*
X5046Y6010D01*
X5054Y6009D01*
X5060Y6008D01*
X5066Y6007D01*
X5071Y6005D01*
X5075Y6004D01*
X5079Y6002D01*
X5082Y6000D01*
X5084Y5998D01*
X5089Y5993D01*
X5095Y5991D01*
X5149Y5955D01*
X5219Y5941D01*
X5289Y5955D01*
X5349Y5995D01*
X5388Y6055D01*
X5402Y6125D01*
X5388Y6195D01*
X5349Y6255D01*
X5289Y6295D01*
X5219Y6309D01*
D02*
G37*
G36*
Y5796D02*
X5149Y5782D01*
X5095Y5746D01*
X5089Y5744D01*
X5084Y5740D01*
X5082Y5738D01*
X5079Y5736D01*
X5075Y5734D01*
X5071Y5732D01*
X5066Y5731D01*
X5060Y5729D01*
X5054Y5728D01*
X5046Y5728D01*
X5036Y5727D01*
X5030Y5725D01*
X4441D01*
X4434Y5727D01*
X4424Y5728D01*
X4417Y5728D01*
X4410Y5729D01*
X4405Y5731D01*
X4400Y5732D01*
X4395Y5734D01*
X4392Y5736D01*
X4389Y5738D01*
X4386Y5740D01*
X4381Y5744D01*
X4375Y5746D01*
X4322Y5782D01*
X4252Y5796D01*
X4181Y5782D01*
X4122Y5742D01*
X4082Y5683D01*
X4068Y5612D01*
X4082Y5542D01*
X4122Y5483D01*
X4181Y5443D01*
X4252Y5429D01*
X4322Y5443D01*
X4375Y5479D01*
X4381Y5481D01*
X4386Y5485D01*
X4389Y5487D01*
X4392Y5489D01*
X4396Y5491D01*
X4400Y5493D01*
X4405Y5494D01*
X4410Y5496D01*
X4417Y5497D01*
X4424Y5497D01*
X4434Y5498D01*
X4441Y5500D01*
X5030D01*
X5036Y5498D01*
X5046Y5497D01*
X5054Y5497D01*
X5060Y5496D01*
X5066Y5494D01*
X5071Y5493D01*
X5075Y5491D01*
X5079Y5489D01*
X5082Y5487D01*
X5084Y5485D01*
X5089Y5481D01*
X5095Y5479D01*
X5149Y5443D01*
X5219Y5429D01*
X5289Y5443D01*
X5349Y5483D01*
X5388Y5542D01*
X5402Y5612D01*
X5388Y5683D01*
X5349Y5742D01*
X5289Y5782D01*
X5219Y5796D01*
D02*
G37*
G36*
X4252Y5284D02*
X4181Y5270D01*
X4122Y5230D01*
X4082Y5170D01*
X4068Y5100D01*
X4082Y5030D01*
X4122Y4970D01*
X4181Y4930D01*
X4252Y4916D01*
X4322Y4930D01*
X4375Y4966D01*
X4381Y4968D01*
X4386Y4973D01*
X4389Y4975D01*
X4392Y4977D01*
X4396Y4979D01*
X4400Y4980D01*
X4405Y4982D01*
X4410Y4983D01*
X4417Y4984D01*
X4424Y4985D01*
X4434Y4985D01*
X4441Y4988D01*
X5021D01*
X5025Y4985D01*
X5028Y4986D01*
X5031Y4985D01*
X5041Y4985D01*
X5048Y4984D01*
X5054Y4983D01*
X5059Y4982D01*
X5063Y4980D01*
X5066Y4979D01*
X5068Y4978D01*
X5070Y4976D01*
X5072Y4974D01*
X5076Y4970D01*
X5083Y4966D01*
X5089Y4958D01*
X5149Y4918D01*
X5219Y4904D01*
X5289Y4918D01*
X5349Y4958D01*
X5388Y5017D01*
X5402Y5088D01*
X5388Y5158D01*
X5349Y5217D01*
X5289Y5257D01*
X5219Y5271D01*
X5149Y5257D01*
X5116Y5235D01*
X5103Y5232D01*
X5098Y5228D01*
X5094Y5225D01*
X5090Y5223D01*
X5086Y5221D01*
X5081Y5220D01*
X5075Y5218D01*
X5069Y5217D01*
X5061Y5216D01*
X5053Y5215D01*
X5043Y5215D01*
X5037Y5212D01*
X4441D01*
X4434Y5215D01*
X4424Y5215D01*
X4417Y5216D01*
X4410Y5217D01*
X4405Y5218D01*
X4400Y5220D01*
X4395Y5221D01*
X4392Y5223D01*
X4389Y5225D01*
X4386Y5227D01*
X4381Y5232D01*
X4375Y5234D01*
X4322Y5270D01*
X4252Y5284D01*
D02*
G37*
G36*
X7078Y3834D02*
X7008Y3820D01*
X6948Y3780D01*
X6908Y3720D01*
X6894Y3650D01*
X6908Y3580D01*
X6948Y3520D01*
X7008Y3480D01*
X7078Y3466D01*
X7148Y3480D01*
X7208Y3520D01*
X7247Y3580D01*
X7261Y3650D01*
X7247Y3720D01*
X7208Y3780D01*
X7148Y3820D01*
X7078Y3834D01*
D02*
G37*
G36*
X6500D02*
X6430Y3820D01*
X6370Y3780D01*
X6330Y3720D01*
X6316Y3650D01*
X6330Y3580D01*
X6370Y3520D01*
X6430Y3480D01*
X6500Y3466D01*
X6570Y3480D01*
X6630Y3520D01*
X6670Y3580D01*
X6684Y3650D01*
X6670Y3720D01*
X6630Y3780D01*
X6570Y3820D01*
X6500Y3834D01*
D02*
G37*
G36*
X7078Y3384D02*
X7008Y3370D01*
X6948Y3330D01*
X6908Y3270D01*
X6894Y3200D01*
X6908Y3130D01*
X6948Y3070D01*
X7008Y3030D01*
X7078Y3016D01*
X7148Y3030D01*
X7208Y3070D01*
X7247Y3130D01*
X7261Y3200D01*
X7247Y3270D01*
X7208Y3330D01*
X7148Y3370D01*
X7078Y3384D01*
D02*
G37*
G36*
X6500D02*
X6430Y3370D01*
X6370Y3330D01*
X6330Y3270D01*
X6316Y3200D01*
X6330Y3130D01*
X6370Y3070D01*
X6430Y3030D01*
X6500Y3016D01*
X6570Y3030D01*
X6630Y3070D01*
X6670Y3130D01*
X6684Y3200D01*
X6670Y3270D01*
X6630Y3330D01*
X6570Y3370D01*
X6500Y3384D01*
D02*
G37*
%LPD*%
G36*
X5133Y8604D02*
X5126Y8610D01*
X5119Y8616D01*
X5111Y8621D01*
X5102Y8625D01*
X5093Y8629D01*
X5083Y8632D01*
X5072Y8634D01*
X5061Y8636D01*
X5050Y8637D01*
X5038Y8637D01*
X5038Y8737D01*
X5050Y8738D01*
X5061Y8739D01*
X5072Y8741D01*
X5083Y8743D01*
X5093Y8746D01*
X5102Y8750D01*
X5111Y8754D01*
X5119Y8759D01*
X5126Y8765D01*
X5133Y8771D01*
X5133Y8604D01*
D02*
G37*
G36*
X4344Y8765D02*
X4352Y8759D01*
X4360Y8754D01*
X4369Y8750D01*
X4378Y8746D01*
X4388Y8743D01*
X4398Y8741D01*
X4409Y8739D01*
X4421Y8738D01*
X4433Y8737D01*
Y8637D01*
X4421Y8637D01*
X4409Y8636D01*
X4398Y8634D01*
X4388Y8632D01*
X4378Y8629D01*
X4369Y8625D01*
X4360Y8621D01*
X4352Y8616D01*
X4344Y8610D01*
X4337Y8604D01*
Y8771D01*
X4344Y8765D01*
D02*
G37*
G36*
Y8253D02*
X4352Y8247D01*
X4360Y8242D01*
X4369Y8237D01*
X4378Y8234D01*
X4388Y8230D01*
X4398Y8228D01*
X4409Y8226D01*
X4421Y8225D01*
X4433Y8225D01*
Y8125D01*
X4421Y8125D01*
X4409Y8124D01*
X4398Y8122D01*
X4388Y8120D01*
X4378Y8116D01*
X4369Y8113D01*
X4360Y8108D01*
X4352Y8103D01*
X4344Y8097D01*
X4337Y8091D01*
Y8259D01*
X4344Y8253D01*
D02*
G37*
G36*
X5133Y8091D02*
X5126Y8097D01*
X5119Y8103D01*
X5111Y8108D01*
X5102Y8113D01*
X5093Y8116D01*
X5083Y8120D01*
X5072Y8122D01*
X5061Y8124D01*
X5050Y8125D01*
X5038Y8125D01*
X5038Y8225D01*
X5050Y8225D01*
X5061Y8226D01*
X5072Y8228D01*
X5083Y8230D01*
X5093Y8234D01*
X5102Y8237D01*
X5111Y8242D01*
X5119Y8247D01*
X5126Y8253D01*
X5133Y8259D01*
X5133Y8091D01*
D02*
G37*
G36*
X4344Y7740D02*
X4352Y7734D01*
X4360Y7729D01*
X4369Y7725D01*
X4378Y7721D01*
X4388Y7718D01*
X4398Y7716D01*
X4409Y7714D01*
X4421Y7713D01*
X4433Y7713D01*
Y7613D01*
X4421Y7612D01*
X4409Y7611D01*
X4398Y7609D01*
X4388Y7607D01*
X4378Y7604D01*
X4369Y7600D01*
X4360Y7596D01*
X4352Y7591D01*
X4344Y7585D01*
X4337Y7578D01*
Y7746D01*
X4344Y7740D01*
D02*
G37*
G36*
X5124Y7575D02*
X5118Y7582D01*
X5111Y7589D01*
X5104Y7594D01*
X5095Y7599D01*
X5087Y7603D01*
X5077Y7607D01*
X5067Y7609D01*
X5056Y7611D01*
X5045Y7612D01*
X5032Y7613D01*
X5045Y7713D01*
X5057Y7713D01*
X5080Y7715D01*
X5091Y7717D01*
X5101Y7720D01*
X5110Y7723D01*
X5119Y7727D01*
X5128Y7731D01*
X5136Y7736D01*
X5144Y7742D01*
X5124Y7575D01*
D02*
G37*
G36*
X4344Y7228D02*
X4352Y7222D01*
X4360Y7217D01*
X4369Y7212D01*
X4378Y7208D01*
X4388Y7205D01*
X4398Y7203D01*
X4409Y7201D01*
X4421Y7200D01*
X4433Y7200D01*
Y7100D01*
X4421Y7100D01*
X4409Y7099D01*
X4398Y7097D01*
X4388Y7095D01*
X4378Y7092D01*
X4369Y7088D01*
X4360Y7083D01*
X4352Y7078D01*
X4344Y7072D01*
X4337Y7066D01*
Y7234D01*
X4344Y7228D01*
D02*
G37*
G36*
X5125Y7063D02*
X5119Y7070D01*
X5112Y7076D01*
X5104Y7082D01*
X5096Y7087D01*
X5087Y7091D01*
X5078Y7094D01*
X5067Y7097D01*
X5057Y7099D01*
X5045Y7100D01*
X5033Y7100D01*
X5044Y7200D01*
X5057Y7200D01*
X5068Y7201D01*
X5079Y7203D01*
X5090Y7205D01*
X5100Y7207D01*
X5109Y7211D01*
X5118Y7215D01*
X5127Y7219D01*
X5135Y7224D01*
X5142Y7230D01*
X5125Y7063D01*
D02*
G37*
G36*
X5133Y6554D02*
X5126Y6560D01*
X5119Y6566D01*
X5111Y6571D01*
X5102Y6575D01*
X5093Y6579D01*
X5083Y6582D01*
X5072Y6584D01*
X5061Y6586D01*
X5050Y6587D01*
X5038Y6587D01*
X5038Y6687D01*
X5050Y6688D01*
X5061Y6689D01*
X5072Y6691D01*
X5083Y6693D01*
X5093Y6696D01*
X5102Y6700D01*
X5111Y6704D01*
X5119Y6709D01*
X5126Y6715D01*
X5133Y6722D01*
X5133Y6554D01*
D02*
G37*
G36*
X4360Y6715D02*
X4367Y6709D01*
X4376Y6704D01*
X4384Y6700D01*
X4394Y6696D01*
X4403Y6693D01*
X4414Y6691D01*
X4425Y6689D01*
X4436Y6688D01*
X4448Y6687D01*
Y6587D01*
X4436Y6587D01*
X4425Y6586D01*
X4414Y6584D01*
X4403Y6582D01*
X4394Y6579D01*
X4384Y6575D01*
X4376Y6571D01*
X4367Y6566D01*
X4360Y6560D01*
X4353Y6554D01*
Y6722D01*
X4360Y6715D01*
D02*
G37*
G36*
X5133Y6041D02*
X5126Y6047D01*
X5119Y6053D01*
X5111Y6058D01*
X5102Y6063D01*
X5093Y6066D01*
X5083Y6070D01*
X5072Y6072D01*
X5061Y6074D01*
X5050Y6075D01*
X5038Y6075D01*
X5038Y6175D01*
X5050Y6175D01*
X5061Y6176D01*
X5072Y6178D01*
X5083Y6180D01*
X5093Y6184D01*
X5102Y6187D01*
X5111Y6192D01*
X5119Y6197D01*
X5126Y6203D01*
X5133Y6209D01*
X5133Y6041D01*
D02*
G37*
G36*
X4344Y6203D02*
X4352Y6197D01*
X4360Y6192D01*
X4369Y6187D01*
X4378Y6184D01*
X4388Y6180D01*
X4398Y6178D01*
X4409Y6176D01*
X4421Y6175D01*
X4433Y6175D01*
Y6075D01*
X4421Y6075D01*
X4409Y6074D01*
X4398Y6072D01*
X4388Y6070D01*
X4378Y6066D01*
X4369Y6063D01*
X4360Y6058D01*
X4352Y6053D01*
X4344Y6047D01*
X4337Y6041D01*
Y6209D01*
X4344Y6203D01*
D02*
G37*
G36*
X5133Y5529D02*
X5126Y5535D01*
X5119Y5541D01*
X5111Y5546D01*
X5102Y5550D01*
X5093Y5554D01*
X5083Y5557D01*
X5072Y5559D01*
X5061Y5561D01*
X5050Y5562D01*
X5038Y5562D01*
Y5663D01*
X5050Y5663D01*
X5061Y5664D01*
X5072Y5666D01*
X5083Y5668D01*
X5093Y5671D01*
X5102Y5675D01*
X5111Y5679D01*
X5119Y5684D01*
X5126Y5690D01*
X5133Y5696D01*
Y5529D01*
D02*
G37*
G36*
X4344Y5690D02*
X4352Y5684D01*
X4360Y5679D01*
X4369Y5675D01*
X4378Y5671D01*
X4388Y5668D01*
X4398Y5666D01*
X4409Y5664D01*
X4421Y5663D01*
X4433Y5663D01*
Y5562D01*
X4421Y5562D01*
X4409Y5561D01*
X4398Y5559D01*
X4388Y5557D01*
X4378Y5554D01*
X4369Y5550D01*
X4360Y5546D01*
X4352Y5541D01*
X4344Y5535D01*
X4337Y5529D01*
Y5696D01*
X4344Y5690D01*
D02*
G37*
G36*
Y5178D02*
X4352Y5172D01*
X4360Y5167D01*
X4369Y5162D01*
X4378Y5159D01*
X4388Y5155D01*
X4398Y5153D01*
X4409Y5151D01*
X4421Y5150D01*
X4433Y5150D01*
Y5050D01*
X4421Y5050D01*
X4409Y5049D01*
X4398Y5047D01*
X4388Y5045D01*
X4378Y5041D01*
X4369Y5038D01*
X4360Y5033D01*
X4352Y5028D01*
X4344Y5022D01*
X4337Y5016D01*
Y5184D01*
X4344Y5178D01*
D02*
G37*
G36*
X5125Y5013D02*
X5119Y5020D01*
X5112Y5026D01*
X5104Y5032D01*
X5096Y5037D01*
X5087Y5041D01*
X5078Y5044D01*
X5067Y5047D01*
X5057Y5049D01*
X5045Y5050D01*
X5033Y5050D01*
X5044Y5150D01*
X5057Y5150D01*
X5068Y5151D01*
X5079Y5153D01*
X5090Y5155D01*
X5100Y5157D01*
X5109Y5161D01*
X5118Y5165D01*
X5127Y5169D01*
X5135Y5174D01*
X5142Y5180D01*
X5125Y5013D01*
D02*
G37*
D14*
X21630Y12292D02*
Y12318D01*
X20400Y12900D02*
X21350D01*
X18800Y14500D02*
X20400Y12900D01*
X18800Y14500D02*
Y17273D01*
X17400Y18673D02*
X18800Y17273D01*
X17400Y18673D02*
Y20277D01*
X16950Y18550D02*
X18450Y17050D01*
Y14363D02*
Y17050D01*
Y14363D02*
X20064Y12749D01*
Y9195D02*
Y12749D01*
X16735Y18000D02*
X18151Y16584D01*
Y14299D02*
Y16584D01*
Y14299D02*
X19550Y12900D01*
X16300Y18000D02*
X16735D01*
X16677Y17550D02*
X17900Y16327D01*
Y14100D02*
Y16327D01*
Y14100D02*
X19150Y12850D01*
X16100Y17550D02*
X16677D01*
X3166Y7533D02*
Y7685D01*
X4252Y8687D02*
X5206D01*
X4252Y8175D02*
X5206D01*
X4252Y7663D02*
X5206D01*
X4252Y7150D02*
X5206D01*
X4267Y6637D02*
X5222D01*
X4252Y6125D02*
X5206D01*
X4252Y5612D02*
X5206D01*
Y5100D02*
X5219Y5088D01*
X4252Y5100D02*
X5206D01*
X2050Y5694D02*
X2300D01*
X22300Y18250D02*
Y19800D01*
X22050Y18000D02*
X22300Y18250D01*
X18550Y18000D02*
X22050D01*
X14700Y20500D02*
X17177D01*
X14516Y20316D02*
X14700Y20500D01*
X14516Y19450D02*
Y20316D01*
X17177Y20500D02*
X17400Y20277D01*
X16950Y18550D02*
Y19850D01*
X16800Y20000D02*
X16950Y19850D01*
X16300Y20000D02*
X16800D01*
X25800Y20550D02*
Y20900D01*
X25700Y21000D02*
X25800Y20900D01*
X24450Y21000D02*
X25700D01*
X17600Y4600D02*
Y5750D01*
X17369Y5982D02*
X17600Y5750D01*
X16300Y5982D02*
X17369D01*
X17850Y4007D02*
Y6700D01*
X17569Y6981D02*
X17850Y6700D01*
X16300Y6981D02*
X17569D01*
X15750Y16450D02*
X16300Y17000D01*
X15750Y8650D02*
Y16450D01*
Y8650D02*
X15970Y8430D01*
X18520D01*
X18850Y8100D01*
X20850Y7650D02*
Y12300D01*
X20700Y7500D02*
X20850Y7650D01*
X14900Y7500D02*
X20700D01*
X14300Y8100D02*
X14900Y7500D01*
X14300Y8100D02*
Y19074D01*
X18650Y11900D02*
Y12850D01*
X18450Y11700D02*
X18650Y11900D01*
X16240Y11700D02*
X18450D01*
X15800Y17850D02*
Y18500D01*
Y17850D02*
X16100Y17550D01*
X15800Y18500D02*
X16300Y19000D01*
X21350Y12900D02*
X21633Y12617D01*
Y12318D02*
Y12617D01*
X19550Y9250D02*
Y12900D01*
X19150Y9200D02*
Y12850D01*
X21633Y12295D02*
Y12318D01*
X21630Y12292D02*
X21633Y12295D01*
X16700Y13497D02*
X16900Y13297D01*
X16700Y13497D02*
Y15253D01*
X18950Y9000D02*
X19150Y9200D01*
X19550Y9250D02*
X20150Y8650D01*
X24317Y10033D02*
X25200D01*
X17121Y12345D02*
X17327Y12550D01*
X16043Y12345D02*
X17121D01*
X25550Y4114D02*
X27100D01*
X31496Y0D02*
Y27559D01*
X0D02*
X31496D01*
X0Y0D02*
X31496D01*
X0D02*
Y27559D01*
X-700Y600D02*
X-500Y0D01*
X-300Y600D01*
X-500Y27559D02*
X-300Y26959D01*
X-700D02*
X-500Y27559D01*
Y0D02*
Y12110D01*
Y15129D02*
Y27559D01*
X-600Y0D02*
X-150D01*
X-600Y27559D02*
X-150D01*
X0Y-400D02*
X600Y-200D01*
X0Y-400D02*
X600Y-600D01*
X30896D02*
X31496Y-400D01*
X30896Y-200D02*
X31496Y-400D01*
X0D02*
X14078D01*
X17098D02*
X31496D01*
X0Y-500D02*
Y-150D01*
X31496Y-500D02*
Y-150D01*
D16*
X-740Y12270D02*
Y12670D01*
X-640D01*
X-240Y12270D01*
X-140D01*
X-640Y12870D02*
X-740Y12970D01*
Y13170D01*
X-640Y13270D01*
X-240D01*
X-140Y13170D01*
Y12970D01*
X-240Y12870D01*
X-640D01*
X-140Y13470D02*
X-240D01*
Y13570D01*
X-140D01*
Y13470D01*
X-640Y13969D02*
X-740Y14069D01*
Y14269D01*
X-640Y14369D01*
X-240D01*
X-140Y14269D01*
Y14069D01*
X-240Y13969D01*
X-640D01*
Y14569D02*
X-740Y14669D01*
Y14869D01*
X-640Y14969D01*
X-240D01*
X-140Y14869D01*
Y14669D01*
X-240Y14569D01*
X-640D01*
X14238Y-260D02*
X14338Y-160D01*
X14538D01*
X14638Y-260D01*
Y-360D01*
X14538Y-460D01*
X14638Y-560D01*
Y-660D01*
X14538Y-760D01*
X14338D01*
X14238Y-660D01*
Y-560D01*
X14338Y-460D01*
X14238Y-360D01*
Y-260D01*
X14338Y-460D02*
X14538D01*
X14838Y-260D02*
X14938Y-160D01*
X15138D01*
X15238Y-260D01*
Y-660D01*
X15138Y-760D01*
X14938D01*
X14838Y-660D01*
Y-260D01*
X15438Y-760D02*
Y-660D01*
X15538D01*
Y-760D01*
X15438D01*
X15938Y-260D02*
X16038Y-160D01*
X16238D01*
X16338Y-260D01*
Y-660D01*
X16238Y-760D01*
X16038D01*
X15938Y-660D01*
Y-260D01*
X16538D02*
X16638Y-160D01*
X16838D01*
X16938Y-260D01*
Y-660D01*
X16838Y-760D01*
X16638D01*
X16538Y-660D01*
Y-260D01*
D19*
X30564Y23834D02*
Y24014D01*
X30124Y23834D02*
Y24014D01*
Y23834D02*
X30564D01*
X30124Y24014D02*
X30564D01*
Y21610D02*
Y21790D01*
X30124Y21610D02*
Y21790D01*
Y21610D02*
X30564D01*
X30124Y21790D02*
X30564D01*
D27*
X3166Y5950D02*
D03*
Y5694D02*
D03*
X2300Y6206D02*
D03*
Y5950D02*
D03*
Y5694D02*
D03*
X3166Y7941D02*
D03*
Y7685D02*
D03*
X2300Y8197D02*
D03*
Y7941D02*
D03*
Y7685D02*
D03*
X3166Y9931D02*
D03*
Y9676D02*
D03*
X2300Y10187D02*
D03*
Y9931D02*
D03*
Y9676D02*
D03*
D28*
X3166Y6206D02*
D03*
Y8197D02*
D03*
Y10187D02*
D03*
D33*
X25594Y5958D02*
D03*
D82*
X4900Y20350D02*
Y20650D01*
X30550Y9950D02*
X30845Y9655D01*
Y8600D02*
Y9655D01*
X30012Y9950D02*
X30550D01*
X29218Y9156D02*
X30012Y9950D01*
X25500Y9156D02*
X29218D01*
X5000Y11000D02*
Y16400D01*
Y11000D02*
X5150Y10850D01*
X5000Y16400D02*
Y16650D01*
X5150Y10850D02*
X8750D01*
X22300Y26250D02*
X22550Y26500D01*
X22300Y23550D02*
Y26250D01*
X22550Y26500D02*
X27050D01*
X9900Y26150D02*
Y27000D01*
Y20377D02*
Y26150D01*
X20100D01*
X5000Y23800D02*
X7050D01*
X4900Y23700D02*
X5000Y23800D01*
X4900Y20800D02*
Y23700D01*
X800Y20000D02*
X4550D01*
X550Y20250D02*
X800Y20000D01*
X550Y20250D02*
Y20700D01*
X4550Y20000D02*
X4900Y20350D01*
X3727Y14700D02*
X4400Y15373D01*
X1550Y14700D02*
X3727D01*
X9000Y11100D02*
Y11250D01*
X8750Y10850D02*
X9000Y11100D01*
X8150Y11250D02*
Y18100D01*
X7900Y18350D02*
X8150Y18100D01*
X5650Y18350D02*
X7900D01*
X9200Y9850D02*
X9550D01*
X9000Y10050D02*
X9200Y9850D01*
X9000Y10050D02*
Y10226D01*
X12550Y13400D02*
Y19850D01*
X12250Y20150D02*
X12550Y19850D01*
X9673Y20150D02*
X12250D01*
X20000Y15000D02*
X21328D01*
X19400Y14400D02*
X20000Y15000D01*
X30845Y4515D02*
Y6600D01*
Y8600D01*
X9673Y15373D02*
Y20150D01*
X5650Y18000D02*
Y18350D01*
X5350Y17700D02*
X5650Y18000D01*
X1550Y17700D02*
X5350D01*
X20400Y25328D02*
Y25850D01*
X20100Y26150D02*
X20400Y25850D01*
X9673Y20150D02*
X9900Y20377D01*
X27050Y26500D02*
X27100Y26550D01*
D83*
X1000Y16350D02*
Y17550D01*
X850Y17700D02*
X1000Y17550D01*
X550Y17700D02*
X850D01*
X1000Y16350D02*
X1150Y16200D01*
X4800D02*
X5000Y16400D01*
X1150Y16200D02*
X4800D01*
D84*
X8900Y27000D02*
D03*
X9900D02*
D03*
X10900D02*
D03*
X11900D02*
D03*
X12900D02*
D03*
X550Y5430D02*
D03*
X1550Y6430D02*
D03*
X550D02*
D03*
X1550Y7430D02*
D03*
X550D02*
D03*
X1550Y8430D02*
D03*
X550D02*
D03*
X1550Y9430D02*
D03*
X550D02*
D03*
Y13700D02*
D03*
X1550Y14700D02*
D03*
X550D02*
D03*
X1550Y15700D02*
D03*
X550D02*
D03*
X1550Y16700D02*
D03*
X550D02*
D03*
X1550Y17700D02*
D03*
X550D02*
D03*
X15300Y23000D02*
D03*
X16300D02*
D03*
X15300Y22000D02*
D03*
X16300D02*
D03*
X15300Y21000D02*
D03*
Y17000D02*
D03*
X16300Y18000D02*
D03*
X15300D02*
D03*
X16300Y19000D02*
D03*
X15300D02*
D03*
X16300Y20000D02*
D03*
X15300D02*
D03*
X16300Y3981D02*
D03*
X15300D02*
D03*
X16300Y4981D02*
D03*
X15300D02*
D03*
X16300Y5982D02*
D03*
X15300D02*
D03*
X16300Y6981D02*
D03*
X15300D02*
D03*
X16300Y7982D02*
D03*
X15300D02*
D03*
X16300Y8982D02*
D03*
X15300D02*
D03*
X16300Y9981D02*
D03*
X27100Y25550D02*
D03*
X550Y21700D02*
D03*
Y22700D02*
D03*
Y23700D02*
D03*
D85*
X13900Y27000D02*
D03*
D86*
X1550Y5430D02*
D03*
Y13700D02*
D03*
X16300Y21000D02*
D03*
Y17000D02*
D03*
X15300Y9981D02*
D03*
X27100Y26550D02*
D03*
X550Y20700D02*
D03*
D87*
X30350Y23924D02*
D03*
Y21700D02*
D03*
D88*
X29504Y22025D02*
D03*
Y23600D02*
D03*
D89*
X21187Y27100D02*
D03*
X20400D02*
D03*
X19613D02*
D03*
Y25328D02*
D03*
X20400D02*
D03*
X21187D02*
D03*
D90*
X29531Y7533D02*
D03*
X29531Y10683D02*
D03*
D91*
X787Y26763D02*
D03*
X30713D02*
D03*
Y787D02*
D03*
X787D02*
D03*
D92*
X13822Y4233D02*
D03*
X13344D02*
D03*
X13822Y4805D02*
D03*
X13344D02*
D03*
X4133Y24967D02*
D03*
X4750D02*
D03*
X5367D02*
D03*
X5983D02*
D03*
X4133Y25583D02*
D03*
X4750D02*
D03*
X5367D02*
D03*
X5983D02*
D03*
X4133Y26200D02*
D03*
X4750D02*
D03*
X5367D02*
D03*
X5983D02*
D03*
Y26817D02*
D03*
X5367D02*
D03*
X4750D02*
D03*
X4133D02*
D03*
X29700Y4246D02*
D03*
X26725Y22812D02*
D03*
X26150D02*
D03*
X26725Y23250D02*
D03*
X26150D02*
D03*
X25234Y22038D02*
D03*
X26356D02*
D03*
X27478D02*
D03*
X28600D02*
D03*
X8950Y19750D02*
D03*
X7900Y20300D02*
D03*
X7892Y19400D02*
D03*
X28950Y12850D02*
D03*
X29000Y10388D02*
D03*
X18150Y9195D02*
D03*
X22609Y15000D02*
D03*
X21994D02*
D03*
X7078Y3200D02*
D03*
X6500D02*
D03*
X7078Y3650D02*
D03*
X6500D02*
D03*
X10850Y1500D02*
D03*
X10400D02*
D03*
X10850Y1850D02*
D03*
X10400D02*
D03*
X12200Y10907D02*
D03*
X13062D02*
D03*
X10030Y4308D02*
D03*
X10036Y8702D02*
D03*
X12412Y8600D02*
D03*
X7171Y2475D02*
D03*
X6450D02*
D03*
X28500Y10100D02*
D03*
Y8050D02*
D03*
Y5550D02*
D03*
X26161Y4308D02*
D03*
X23000Y4100D02*
D03*
X17675Y6200D02*
D03*
X20193Y8238D02*
D03*
X20300Y10250D02*
D03*
X16950Y14272D02*
D03*
X17464Y13824D02*
D03*
X18067Y13407D02*
D03*
X25250Y13600D02*
D03*
X23300Y13619D02*
D03*
X20400Y12450D02*
D03*
X25163Y14717D02*
D03*
X23223Y14854D02*
D03*
X21537Y14382D02*
D03*
X21250Y15700D02*
D03*
X22076Y18800D02*
D03*
X20600Y18550D02*
D03*
X29531Y23350D02*
D03*
X3900Y20550D02*
D03*
X4500Y18450D02*
D03*
X3877Y16650D02*
D03*
X3050Y5700D02*
D03*
X3166Y7533D02*
D03*
X3050Y9676D02*
D03*
X9387Y23300D02*
D03*
X4316Y16513D02*
D03*
X4746Y16985D02*
D03*
X5313Y16985D02*
D03*
X7264Y16426D02*
D03*
X8487Y16953D02*
D03*
X9066Y17090D02*
D03*
X10036Y17174D02*
D03*
X11903Y16953D02*
D03*
X12278Y16953D02*
D03*
X13645Y14150D02*
D03*
X15256Y12855D02*
D03*
X15119Y14567D02*
D03*
X15443Y15250D02*
D03*
X19766Y15056D02*
D03*
X19300Y14855D02*
D03*
X18550Y19090D02*
D03*
X18151Y23009D02*
D03*
X18882D02*
D03*
X23295Y23450D02*
D03*
X21063Y21583D02*
D03*
X21837Y21583D02*
D03*
X23787Y18630D02*
D03*
X24688D02*
D03*
X24513Y21500D02*
D03*
Y20500D02*
D03*
X25937Y20967D02*
D03*
X25800Y21445D02*
D03*
X26300D02*
D03*
X27910Y15363D02*
D03*
X28950Y13472D02*
D03*
X29600Y13633D02*
D03*
X30245Y11645D02*
D03*
X29500Y10250D02*
D03*
Y8100D02*
D03*
Y7383D02*
D03*
X29500Y5975D02*
D03*
X29150Y4345D02*
D03*
X25650Y2907D02*
D03*
X26351Y2907D02*
D03*
X27052D02*
D03*
X27052Y1445D02*
D03*
X26351D02*
D03*
X25650D02*
D03*
X22263Y1583D02*
D03*
X23413Y3044D02*
D03*
X21563D02*
D03*
X19313D02*
D03*
X17606Y6755D02*
D03*
X17733Y9583D02*
D03*
X17733Y8727D02*
D03*
X13022Y8600D02*
D03*
X7546Y11228D02*
D03*
X7546Y10445D02*
D03*
X5587Y18817D02*
D03*
X4883Y18345D02*
D03*
Y19995D02*
D03*
X5450Y20000D02*
D03*
X7378Y20305D02*
D03*
X8530Y19970D02*
D03*
X8538Y18817D02*
D03*
X7560Y18700D02*
D03*
X8750Y23300D02*
D03*
X3100Y27300D02*
D03*
X7050Y23300D02*
D03*
X3100D02*
D03*
X17502Y1973D02*
D03*
X16700D02*
D03*
X17473Y2533D02*
D03*
X16700D02*
D03*
X17502Y812D02*
D03*
X16700D02*
D03*
X17502Y1372D02*
D03*
X16700D02*
D03*
X19105Y1973D02*
D03*
X18303D02*
D03*
X19105Y2533D02*
D03*
X18295D02*
D03*
X19105Y812D02*
D03*
X18303D02*
D03*
X19105Y1372D02*
D03*
X18303D02*
D03*
X14189Y1961D02*
D03*
X13387D02*
D03*
X14160Y2521D02*
D03*
X13387D02*
D03*
X14189Y800D02*
D03*
X13387D02*
D03*
X14189Y1360D02*
D03*
X13387D02*
D03*
X15792Y1961D02*
D03*
X14990D02*
D03*
X15792Y2521D02*
D03*
X14982D02*
D03*
X15792Y800D02*
D03*
X14990D02*
D03*
X15792Y1360D02*
D03*
X14990D02*
D03*
X22759Y6814D02*
D03*
X23560D02*
D03*
X22759Y6254D02*
D03*
X23560D02*
D03*
X22751Y7975D02*
D03*
X23560D02*
D03*
X22759Y7414D02*
D03*
X23560D02*
D03*
X21155Y6814D02*
D03*
X21957D02*
D03*
X21155Y6254D02*
D03*
X21957D02*
D03*
X21155Y7975D02*
D03*
X21928D02*
D03*
X21155Y7414D02*
D03*
X21957D02*
D03*
X17150Y19686D02*
D03*
X17923D02*
D03*
X17150Y19126D02*
D03*
X17923D02*
D03*
X27727Y24700D02*
D03*
X28500D02*
D03*
X27727Y24050D02*
D03*
X28500D02*
D03*
X22977Y26500D02*
D03*
X23750D02*
D03*
X22977Y25750D02*
D03*
X23750D02*
D03*
X22977Y25000D02*
D03*
X23750D02*
D03*
X16823Y25850D02*
D03*
X17595D02*
D03*
X16823Y24200D02*
D03*
X17595D02*
D03*
X16863Y25000D02*
D03*
X17635D02*
D03*
X27228Y14823D02*
D03*
Y14050D02*
D03*
X27229Y16323D02*
D03*
Y15550D02*
D03*
X29938Y14600D02*
D03*
X29165D02*
D03*
X29927Y15550D02*
D03*
X29154D02*
D03*
X29910Y16350D02*
D03*
X29138D02*
D03*
X29802Y17512D02*
D03*
X29029D02*
D03*
X29773Y18150D02*
D03*
X29000D02*
D03*
X29786Y18759D02*
D03*
X29014D02*
D03*
X30212Y19812D02*
D03*
X29439D02*
D03*
X30185Y20467D02*
D03*
X29413D02*
D03*
X28626Y19850D02*
D03*
X27854D02*
D03*
X28626Y20472D02*
D03*
X27854D02*
D03*
X24669Y16200D02*
D03*
X23897D02*
D03*
X24669Y16956D02*
D03*
X23897D02*
D03*
X11945Y25524D02*
D03*
X11173D02*
D03*
X14245Y22812D02*
D03*
X13473D02*
D03*
X12723Y24650D02*
D03*
X11950D02*
D03*
X10973Y18639D02*
D03*
X10200D02*
D03*
X10973Y19200D02*
D03*
X10200D02*
D03*
X18923Y21690D02*
D03*
X18150D02*
D03*
X18923Y22250D02*
D03*
X18150D02*
D03*
X17058Y10700D02*
D03*
X16285D02*
D03*
X17058Y11091D02*
D03*
X16285D02*
D03*
X12173Y9377D02*
D03*
X11400D02*
D03*
X12173Y10004D02*
D03*
X11400D02*
D03*
X11173Y14417D02*
D03*
X10400D02*
D03*
X5655D02*
D03*
X6428D02*
D03*
X7200D02*
D03*
X10400Y15084D02*
D03*
X11173D02*
D03*
X787Y11250D02*
D03*
X1560D02*
D03*
X2332D02*
D03*
X3105D02*
D03*
X3877D02*
D03*
X4650D02*
D03*
Y12300D02*
D03*
X3877D02*
D03*
X3105D02*
D03*
X2332D02*
D03*
X1560D02*
D03*
X787D02*
D03*
X10030Y5834D02*
D03*
Y7040D02*
D03*
Y8247D02*
D03*
X11503Y5232D02*
D03*
X12103D02*
D03*
X11503Y4856D02*
D03*
X12103D02*
D03*
X6000Y9358D02*
D03*
X6600D02*
D03*
X6000Y8982D02*
D03*
X6600D02*
D03*
Y4606D02*
D03*
X6000D02*
D03*
X6600Y4981D02*
D03*
X6000D02*
D03*
X8131Y8247D02*
D03*
X8900D02*
D03*
X8131Y7040D02*
D03*
X8900D02*
D03*
Y5834D02*
D03*
X8131D02*
D03*
X2205Y1338D02*
D03*
X3363D02*
D03*
X4521D02*
D03*
Y2544D02*
D03*
X3363D02*
D03*
X2205D02*
D03*
X4521Y3750D02*
D03*
X3363D02*
D03*
X2205D02*
D03*
X5219Y5612D02*
D03*
Y8687D02*
D03*
X4252Y8687D02*
D03*
Y7663D02*
D03*
Y8175D02*
D03*
X5219Y8175D02*
D03*
Y7649D02*
D03*
Y7138D02*
D03*
X4252Y7150D02*
D03*
X4267Y6637D02*
D03*
X5219Y6637D02*
D03*
Y6125D02*
D03*
X4252Y6125D02*
D03*
Y5612D02*
D03*
X5219Y5088D02*
D03*
X4252Y5100D02*
D03*
X3050Y10187D02*
D03*
X3300Y9931D02*
D03*
X3050Y8200D02*
D03*
X3300Y7941D02*
D03*
X2450D02*
D03*
X2200Y7685D02*
D03*
X2050Y5694D02*
D03*
X3050Y6206D02*
D03*
X3300Y5950D02*
D03*
X2450D02*
D03*
X9673Y15373D02*
D03*
X4400D02*
D03*
X9000Y11250D02*
D03*
X8150D02*
D03*
X9550Y9850D02*
D03*
X9000Y10226D02*
D03*
X12550Y13400D02*
D03*
X17848Y4007D02*
D03*
X17600Y4600D02*
D03*
X21633Y12318D02*
D03*
X18550Y18000D02*
D03*
X22300Y19800D02*
D03*
X16700Y15253D02*
D03*
X16900Y13297D02*
D03*
X21400Y15000D02*
D03*
X19400Y14400D02*
D03*
X30845Y4515D02*
D03*
X30550Y9950D02*
D03*
X30845Y8600D02*
D03*
Y6600D02*
D03*
X7050Y23800D02*
D03*
X4900Y20650D02*
D03*
X5650Y18350D02*
D03*
X5000Y16650D02*
D03*
X9673Y20150D02*
D03*
X20850Y12300D02*
D03*
X14516Y19450D02*
D03*
X14300Y19074D02*
D03*
X18950Y9000D02*
D03*
X20150Y8650D02*
D03*
X20064Y9195D02*
D03*
X18850Y8100D02*
D03*
X25500Y10450D02*
D03*
Y9592D02*
D03*
Y7848D02*
D03*
Y8284D02*
D03*
Y8720D02*
D03*
Y9156D02*
D03*
Y10900D02*
D03*
X18650Y12850D02*
D03*
X16240Y11700D02*
D03*
X16043Y12345D02*
D03*
X17327Y12550D02*
D03*
X22300Y23550D02*
D03*
X25800Y20550D02*
D03*
X24450Y21000D02*
D03*
X27100Y4114D02*
D03*
X25550D02*
D03*
D100*
X4881Y20550D02*
D03*
X3719D02*
D03*
X5450Y18450D02*
D03*
X4289D02*
D03*
X3689Y16650D02*
D03*
X4850D02*
D03*
D101*
X29373Y11785D02*
D03*
D102*
Y5683D02*
D03*
D103*
X25594Y11962D02*
D03*
D104*
X25200Y10466D02*
D03*
Y10033D02*
D03*
X25200Y9167D02*
D03*
X25200Y8301D02*
D03*
X25200Y11332D02*
D03*
X25200Y10899D02*
D03*
X25200Y8734D02*
D03*
X25200Y9600D02*
D03*
D105*
X25200Y7848D02*
D03*
M02*
