G04*
G04 #@! TF.GenerationSoftware,Altium Limited,Altium Designer,18.1.9 (240)*
G04*
G04 Layer_Color=32896*
%FSLAX24Y24*%
%MOIN*%
G70*
G01*
G75*
%ADD10C,0.0079*%
%ADD14C,0.0100*%
%ADD16C,0.0060*%
%ADD18C,0.0040*%
%ADD19C,0.0050*%
%ADD112C,0.0059*%
%ADD113C,0.0591*%
D10*
X4379Y20274D02*
Y20826D01*
X4497Y20274D02*
Y20826D01*
X4103Y20274D02*
Y20826D01*
Y20274D02*
X4497D01*
X4103Y20826D02*
X4497D01*
X4948Y18174D02*
Y18726D01*
X5066Y18174D02*
Y18726D01*
X4672Y18174D02*
Y18726D01*
Y18174D02*
X5066D01*
X4672Y18726D02*
X5066D01*
X4191Y16374D02*
Y16926D01*
X4072Y16374D02*
Y16926D01*
X4466Y16374D02*
Y16926D01*
X4072D02*
X4466D01*
X4072Y16374D02*
X4466D01*
X2616Y6334D02*
X2797D01*
X2669D02*
X2866D01*
Y5566D02*
Y6334D01*
X2616Y5566D02*
X2866D01*
X2616D02*
Y6334D01*
Y8325D02*
X2797D01*
X2669D02*
X2866D01*
Y7557D02*
Y8325D01*
X2616Y7557D02*
X2866D01*
X2616D02*
Y8325D01*
Y10315D02*
X2797D01*
X2669D02*
X2866D01*
Y9548D02*
Y10315D01*
X2616Y9548D02*
X2866D01*
X2616D02*
Y10315D01*
D14*
X3216Y6456D02*
G03*
X3216Y6456I-50J0D01*
G01*
Y8447D02*
G03*
X3216Y8447I-50J0D01*
G01*
Y10437D02*
G03*
X3216Y10437I-50J0D01*
G01*
X31496Y0D02*
Y27559D01*
X0D02*
X31496D01*
X0Y0D02*
X31496D01*
X0D02*
Y27559D01*
X-700Y600D02*
X-500Y0D01*
X-300Y600D01*
X-500Y27559D02*
X-300Y26959D01*
X-700D02*
X-500Y27559D01*
Y0D02*
Y12110D01*
Y15129D02*
Y27559D01*
X-600Y0D02*
X-150D01*
X-600Y27559D02*
X-150D01*
X0Y-400D02*
X600Y-200D01*
X0Y-400D02*
X600Y-600D01*
X30896D02*
X31496Y-400D01*
X30896Y-200D02*
X31496Y-400D01*
X0D02*
X14078D01*
X17098D02*
X31496D01*
X0Y-500D02*
Y-150D01*
X31496Y-500D02*
Y-150D01*
D16*
X27900Y26450D02*
Y26717D01*
X28033Y26583D02*
X27767D01*
X27900Y25400D02*
Y25667D01*
X-740Y12270D02*
Y12670D01*
X-640D01*
X-240Y12270D01*
X-140D01*
X-640Y12870D02*
X-740Y12970D01*
Y13170D01*
X-640Y13270D01*
X-240D01*
X-140Y13170D01*
Y12970D01*
X-240Y12870D01*
X-640D01*
X-140Y13470D02*
X-240D01*
Y13570D01*
X-140D01*
Y13470D01*
X-640Y13969D02*
X-740Y14069D01*
Y14269D01*
X-640Y14369D01*
X-240D01*
X-140Y14269D01*
Y14069D01*
X-240Y13969D01*
X-640D01*
Y14569D02*
X-740Y14669D01*
Y14869D01*
X-640Y14969D01*
X-240D01*
X-140Y14869D01*
Y14669D01*
X-240Y14569D01*
X-640D01*
X14238Y-260D02*
X14338Y-160D01*
X14538D01*
X14638Y-260D01*
Y-360D01*
X14538Y-460D01*
X14638Y-560D01*
Y-660D01*
X14538Y-760D01*
X14338D01*
X14238Y-660D01*
Y-560D01*
X14338Y-460D01*
X14238Y-360D01*
Y-260D01*
X14338Y-460D02*
X14538D01*
X14838Y-260D02*
X14938Y-160D01*
X15138D01*
X15238Y-260D01*
Y-660D01*
X15138Y-760D01*
X14938D01*
X14838Y-660D01*
Y-260D01*
X15438Y-760D02*
Y-660D01*
X15538D01*
Y-760D01*
X15438D01*
X15938Y-260D02*
X16038Y-160D01*
X16238D01*
X16338Y-260D01*
Y-660D01*
X16238Y-760D01*
X16038D01*
X15938Y-660D01*
Y-260D01*
X16538D02*
X16638Y-160D01*
X16838D01*
X16938Y-260D01*
Y-660D01*
X16838Y-760D01*
X16638D01*
X16538Y-660D01*
Y-260D01*
D18*
X4380Y19970D02*
Y19730D01*
X4260D01*
X4220Y19770D01*
Y19930D01*
X4260Y19970D01*
X4380D01*
X4020Y19730D02*
Y19970D01*
X4140Y19850D01*
X3980D01*
X4950Y17870D02*
Y17630D01*
X4830D01*
X4790Y17670D01*
Y17830D01*
X4830Y17870D01*
X4950D01*
X4550D02*
X4710D01*
Y17750D01*
X4630Y17790D01*
X4590D01*
X4550Y17750D01*
Y17670D01*
X4590Y17630D01*
X4670D01*
X4710Y17670D01*
X4590Y16070D02*
Y15830D01*
X4470D01*
X4430Y15870D01*
Y16030D01*
X4470Y16070D01*
X4590D01*
X4350D02*
X4190D01*
Y16030D01*
X4350Y15870D01*
Y15830D01*
X2930Y5290D02*
Y5090D01*
X2890Y5050D01*
X2810D01*
X2770Y5090D01*
Y5290D01*
X2530Y5050D02*
X2690D01*
X2530Y5210D01*
Y5250D01*
X2570Y5290D01*
X2650D01*
X2690Y5250D01*
X2930Y7280D02*
Y7080D01*
X2890Y7040D01*
X2810D01*
X2770Y7080D01*
Y7280D01*
X2690Y7240D02*
X2650Y7280D01*
X2570D01*
X2530Y7240D01*
Y7200D01*
X2570Y7160D01*
X2610D01*
X2570D01*
X2530Y7120D01*
Y7080D01*
X2570Y7040D01*
X2650D01*
X2690Y7080D01*
X2930Y9270D02*
Y9070D01*
X2890Y9030D01*
X2810D01*
X2770Y9070D01*
Y9270D01*
X2570Y9030D02*
Y9270D01*
X2690Y9150D01*
X2530D01*
X28270Y4710D02*
X28070D01*
X28030Y4750D01*
Y4830D01*
X28070Y4870D01*
X28270D01*
Y5110D02*
X28230Y5030D01*
X28150Y4950D01*
X28070D01*
X28030Y4990D01*
Y5070D01*
X28070Y5110D01*
X28110D01*
X28150Y5070D01*
Y4950D01*
D19*
X31106Y8027D02*
G03*
X31459Y7173I1207J0D01*
G01*
X26042Y5934D02*
X28742Y5934D01*
X26042Y11584D02*
X28642Y11584D01*
X30081Y11583D02*
X31106D01*
X29981Y5933D02*
X31106Y5933D01*
X30981Y5933D02*
X31499D01*
X31106Y8533D02*
X31106Y8027D01*
X31459Y7173D02*
X31499Y7133D01*
X31106Y11583D02*
X31106Y8533D01*
X31499Y5933D02*
X31499Y7133D01*
X30564Y23834D02*
Y24014D01*
X30124Y23834D02*
Y24014D01*
Y23834D02*
X30564D01*
X30124Y24014D02*
X30564D01*
Y21610D02*
Y21790D01*
X30124Y21610D02*
Y21790D01*
Y21610D02*
X30564D01*
X30124Y21790D02*
X30564D01*
D112*
X25342Y6534D02*
X25342Y7534D01*
D113*
X26531Y6683D02*
X28831Y6683D01*
M02*
