G04*
G04 #@! TF.GenerationSoftware,Altium Limited,Altium Designer,18.1.9 (240)*
G04*
G04 Layer_Color=128*
%FSLAX24Y24*%
%MOIN*%
G70*
G01*
G75*
%ADD14C,0.0100*%
%ADD16C,0.0060*%
%ADD19C,0.0050*%
%ADD114C,0.0020*%
D14*
X31496Y0D02*
Y27559D01*
X0D02*
X31496D01*
X0Y0D02*
X31496D01*
X0D02*
Y27559D01*
X-700Y600D02*
X-500Y0D01*
X-300Y600D01*
X-500Y27559D02*
X-300Y26959D01*
X-700D02*
X-500Y27559D01*
Y0D02*
Y12110D01*
Y15129D02*
Y27559D01*
X-600Y0D02*
X-150D01*
X-600Y27559D02*
X-150D01*
X0Y-400D02*
X600Y-200D01*
X0Y-400D02*
X600Y-600D01*
X30896D02*
X31496Y-400D01*
X30896Y-200D02*
X31496Y-400D01*
X0D02*
X14078D01*
X17098D02*
X31496D01*
X0Y-500D02*
Y-150D01*
X31496Y-500D02*
Y-150D01*
D16*
X-740Y12270D02*
Y12670D01*
X-640D01*
X-240Y12270D01*
X-140D01*
X-640Y12870D02*
X-740Y12970D01*
Y13170D01*
X-640Y13270D01*
X-240D01*
X-140Y13170D01*
Y12970D01*
X-240Y12870D01*
X-640D01*
X-140Y13470D02*
X-240D01*
Y13570D01*
X-140D01*
Y13470D01*
X-640Y13969D02*
X-740Y14069D01*
Y14269D01*
X-640Y14369D01*
X-240D01*
X-140Y14269D01*
Y14069D01*
X-240Y13969D01*
X-640D01*
Y14569D02*
X-740Y14669D01*
Y14869D01*
X-640Y14969D01*
X-240D01*
X-140Y14869D01*
Y14669D01*
X-240Y14569D01*
X-640D01*
X14238Y-260D02*
X14338Y-160D01*
X14538D01*
X14638Y-260D01*
Y-360D01*
X14538Y-460D01*
X14638Y-560D01*
Y-660D01*
X14538Y-760D01*
X14338D01*
X14238Y-660D01*
Y-560D01*
X14338Y-460D01*
X14238Y-360D01*
Y-260D01*
X14338Y-460D02*
X14538D01*
X14838Y-260D02*
X14938Y-160D01*
X15138D01*
X15238Y-260D01*
Y-660D01*
X15138Y-760D01*
X14938D01*
X14838Y-660D01*
Y-260D01*
X15438Y-760D02*
Y-660D01*
X15538D01*
Y-760D01*
X15438D01*
X15938Y-260D02*
X16038Y-160D01*
X16238D01*
X16338Y-260D01*
Y-660D01*
X16238Y-760D01*
X16038D01*
X15938Y-660D01*
Y-260D01*
X16538D02*
X16638Y-160D01*
X16838D01*
X16938Y-260D01*
Y-660D01*
X16838Y-760D01*
X16638D01*
X16538Y-660D01*
Y-260D01*
D19*
X30564Y23834D02*
Y24014D01*
X30124Y23834D02*
Y24014D01*
Y23834D02*
X30564D01*
X30124Y24014D02*
X30564D01*
Y21610D02*
Y21790D01*
X30124Y21610D02*
Y21790D01*
Y21610D02*
X30564D01*
X30124Y21790D02*
X30564D01*
D114*
X8723Y27000D02*
X9077D01*
X8900Y26823D02*
Y27177D01*
X9723Y27000D02*
X10077D01*
X9900Y26823D02*
Y27177D01*
X10723Y27000D02*
X11077D01*
X10900Y26823D02*
Y27177D01*
X11723Y27000D02*
X12077D01*
X11900Y26823D02*
Y27177D01*
X12723Y27000D02*
X13077D01*
X12900Y26823D02*
Y27177D01*
X13723Y27000D02*
X14077D01*
X13900Y26823D02*
Y27177D01*
X1373Y5430D02*
X1727D01*
X1550Y5253D02*
Y5607D01*
X373Y5430D02*
X727D01*
X550Y5253D02*
Y5607D01*
X1373Y6430D02*
X1727D01*
X1550Y6253D02*
Y6607D01*
X373Y6430D02*
X727D01*
X550Y6253D02*
Y6607D01*
X1373Y7430D02*
X1727D01*
X1550Y7253D02*
Y7607D01*
X373Y7430D02*
X727D01*
X550Y7253D02*
Y7607D01*
X1373Y8430D02*
X1727D01*
X1550Y8253D02*
Y8607D01*
X373Y8430D02*
X727D01*
X550Y8253D02*
Y8607D01*
X1373Y9430D02*
X1727D01*
X1550Y9253D02*
Y9607D01*
X373Y9430D02*
X727D01*
X550Y9253D02*
Y9607D01*
X1373Y13700D02*
X1727D01*
X1550Y13523D02*
Y13877D01*
X373Y13700D02*
X727D01*
X550Y13523D02*
Y13877D01*
X1373Y14700D02*
X1727D01*
X1550Y14523D02*
Y14877D01*
X373Y14700D02*
X727D01*
X550Y14523D02*
Y14877D01*
X1373Y15700D02*
X1727D01*
X1550Y15523D02*
Y15877D01*
X373Y15700D02*
X727D01*
X550Y15523D02*
Y15877D01*
X1373Y16700D02*
X1727D01*
X1550Y16523D02*
Y16877D01*
X373Y16700D02*
X727D01*
X550Y16523D02*
Y16877D01*
X1373Y17700D02*
X1727D01*
X1550Y17523D02*
Y17877D01*
X373Y17700D02*
X727D01*
X550Y17523D02*
Y17877D01*
X15123Y23000D02*
X15477D01*
X15300Y22823D02*
Y23177D01*
X16123Y23000D02*
X16477D01*
X16300Y22823D02*
Y23177D01*
X15123Y22000D02*
X15477D01*
X15300Y21823D02*
Y22177D01*
X16123Y22000D02*
X16477D01*
X16300Y21823D02*
Y22177D01*
X15123Y21000D02*
X15477D01*
X15300Y20823D02*
Y21177D01*
X16123Y21000D02*
X16477D01*
X16300Y20823D02*
Y21177D01*
X16123Y17000D02*
X16477D01*
X16300Y16823D02*
Y17177D01*
X15123Y17000D02*
X15477D01*
X15300Y16823D02*
Y17177D01*
X16123Y18000D02*
X16477D01*
X16300Y17823D02*
Y18177D01*
X15123Y18000D02*
X15477D01*
X15300Y17823D02*
Y18177D01*
X16123Y19000D02*
X16477D01*
X16300Y18823D02*
Y19177D01*
X15123Y19000D02*
X15477D01*
X15300Y18823D02*
Y19177D01*
X16123Y20000D02*
X16477D01*
X16300Y19823D02*
Y20177D01*
X15123Y20000D02*
X15477D01*
X15300Y19823D02*
Y20177D01*
X16123Y3981D02*
X16477D01*
X16300Y3804D02*
Y4159D01*
X15123Y3981D02*
X15477D01*
X15300Y3804D02*
Y4159D01*
X16123Y4981D02*
X16477D01*
X16300Y4804D02*
Y5159D01*
X15123Y4981D02*
X15477D01*
X15300Y4804D02*
Y5159D01*
X16123Y5982D02*
X16477D01*
X16300Y5804D02*
Y6159D01*
X15123Y5982D02*
X15477D01*
X15300Y5804D02*
Y6159D01*
X16123Y6981D02*
X16477D01*
X16300Y6804D02*
Y7159D01*
X15123Y6981D02*
X15477D01*
X15300Y6804D02*
Y7159D01*
X16123Y7982D02*
X16477D01*
X16300Y7804D02*
Y8159D01*
X15123Y7982D02*
X15477D01*
X15300Y7804D02*
Y8159D01*
X16123Y8982D02*
X16477D01*
X16300Y8804D02*
Y9159D01*
X15123Y8982D02*
X15477D01*
X15300Y8804D02*
Y9159D01*
X16123Y9981D02*
X16477D01*
X16300Y9804D02*
Y10159D01*
X15123Y9981D02*
X15477D01*
X15300Y9804D02*
Y10159D01*
X30271Y23924D02*
X30429D01*
X30350Y23846D02*
Y24003D01*
X30271Y21700D02*
X30429D01*
X30350Y21621D02*
Y21779D01*
X29405Y22025D02*
X29602D01*
X29504Y21926D02*
Y22123D01*
X29405Y23600D02*
X29602D01*
X29504Y23501D02*
Y23698D01*
X26923Y25550D02*
X27277D01*
X27100Y25373D02*
Y25727D01*
X26923Y26550D02*
X27277D01*
X27100Y26373D02*
Y26727D01*
X373Y20700D02*
X727D01*
X550Y20523D02*
Y20877D01*
X373Y21700D02*
X727D01*
X550Y21523D02*
Y21877D01*
X373Y22700D02*
X727D01*
X550Y22523D02*
Y22877D01*
X373Y23700D02*
X727D01*
X550Y23523D02*
Y23877D01*
X20991Y27100D02*
X21384D01*
X21187Y26903D02*
Y27297D01*
X20203Y27100D02*
X20597D01*
X20400Y26903D02*
Y27297D01*
X19416Y27100D02*
X19809D01*
X19613Y26903D02*
Y27297D01*
X19416Y25328D02*
X19809D01*
X19613Y25131D02*
Y25525D01*
X20203Y25328D02*
X20597D01*
X20400Y25131D02*
Y25525D01*
X20991Y25328D02*
X21384D01*
X21187Y25131D02*
Y25525D01*
X29354Y7533D02*
X29708D01*
X29531Y7356D02*
Y7710D01*
X29354Y10683D02*
X29708D01*
X29531Y10506D02*
Y10860D01*
X177Y26763D02*
X1398D01*
X787Y26152D02*
Y27373D01*
X30102Y26763D02*
X31323D01*
X30713Y26152D02*
Y27373D01*
X30102Y787D02*
X31323D01*
X30713Y177D02*
Y1398D01*
X177Y787D02*
X1398D01*
X787Y177D02*
Y1398D01*
X13762Y4233D02*
X13882D01*
X13822Y4173D02*
Y4293D01*
X13284Y4233D02*
X13404D01*
X13344Y4173D02*
Y4293D01*
X13762Y4805D02*
X13882D01*
X13822Y4745D02*
Y4865D01*
X13284Y4805D02*
X13404D01*
X13344Y4745D02*
Y4865D01*
X4073Y24967D02*
X4193D01*
X4133Y24907D02*
Y25027D01*
X4690Y24967D02*
X4810D01*
X4750Y24907D02*
Y25027D01*
X5307Y24967D02*
X5427D01*
X5367Y24907D02*
Y25027D01*
X5923Y24967D02*
X6043D01*
X5983Y24907D02*
Y25027D01*
X4073Y25583D02*
X4193D01*
X4133Y25523D02*
Y25643D01*
X4690Y25583D02*
X4810D01*
X4750Y25523D02*
Y25643D01*
X5307Y25583D02*
X5427D01*
X5367Y25523D02*
Y25643D01*
X5923Y25583D02*
X6043D01*
X5983Y25523D02*
Y25643D01*
X4073Y26200D02*
X4193D01*
X4133Y26140D02*
Y26260D01*
X4690Y26200D02*
X4810D01*
X4750Y26140D02*
Y26260D01*
X5307Y26200D02*
X5427D01*
X5367Y26140D02*
Y26260D01*
X5923Y26200D02*
X6043D01*
X5983Y26140D02*
Y26260D01*
X5923Y26817D02*
X6043D01*
X5983Y26757D02*
Y26877D01*
X5307Y26817D02*
X5427D01*
X5367Y26757D02*
Y26877D01*
X4690Y26817D02*
X4810D01*
X4750Y26757D02*
Y26877D01*
X4073Y26817D02*
X4193D01*
X4133Y26757D02*
Y26877D01*
X29640Y4246D02*
X29760D01*
X29700Y4186D02*
Y4306D01*
X26665Y22812D02*
X26785D01*
X26725Y22752D02*
Y22872D01*
X26090Y22812D02*
X26210D01*
X26150Y22752D02*
Y22872D01*
X26665Y23250D02*
X26785D01*
X26725Y23190D02*
Y23310D01*
X26090Y23250D02*
X26210D01*
X26150Y23190D02*
Y23310D01*
X25174Y22038D02*
X25294D01*
X25234Y21978D02*
Y22098D01*
X26296Y22038D02*
X26416D01*
X26356Y21978D02*
Y22098D01*
X27418Y22038D02*
X27538D01*
X27478Y21978D02*
Y22098D01*
X28540Y22038D02*
X28660D01*
X28600Y21978D02*
Y22098D01*
X8890Y19750D02*
X9010D01*
X8950Y19690D02*
Y19810D01*
X7840Y20300D02*
X7960D01*
X7900Y20240D02*
Y20360D01*
X7832Y19400D02*
X7952D01*
X7892Y19340D02*
Y19460D01*
X28890Y12850D02*
X29010D01*
X28950Y12790D02*
Y12910D01*
X28940Y10388D02*
X29060D01*
X29000Y10328D02*
Y10447D01*
X18090Y9195D02*
X18210D01*
X18150Y9135D02*
Y9255D01*
X22549Y15000D02*
X22669D01*
X22609Y14940D02*
Y15060D01*
X21934Y15000D02*
X22054D01*
X21994Y14940D02*
Y15060D01*
X7018Y3200D02*
X7138D01*
X7078Y3140D02*
Y3260D01*
X6440Y3200D02*
X6560D01*
X6500Y3140D02*
Y3260D01*
X7018Y3650D02*
X7138D01*
X7078Y3590D02*
Y3710D01*
X6440Y3650D02*
X6560D01*
X6500Y3590D02*
Y3710D01*
X10790Y1500D02*
X10910D01*
X10850Y1440D02*
Y1560D01*
X10340Y1500D02*
X10460D01*
X10400Y1440D02*
Y1560D01*
X10790Y1850D02*
X10910D01*
X10850Y1790D02*
Y1910D01*
X10340Y1850D02*
X10460D01*
X10400Y1790D02*
Y1910D01*
X12140Y10907D02*
X12260D01*
X12200Y10847D02*
Y10967D01*
X13002Y10907D02*
X13122D01*
X13062Y10847D02*
Y10967D01*
X9970Y4308D02*
X10090D01*
X10030Y4248D02*
Y4368D01*
X9976Y8702D02*
X10096D01*
X10036Y8642D02*
Y8762D01*
X12352Y8600D02*
X12472D01*
X12412Y8540D02*
Y8660D01*
X7111Y2475D02*
X7231D01*
X7171Y2415D02*
Y2535D01*
X6390Y2475D02*
X6510D01*
X6450Y2415D02*
Y2535D01*
X28440Y10100D02*
X28560D01*
X28500Y10040D02*
Y10160D01*
X28440Y8050D02*
X28560D01*
X28500Y7990D02*
Y8110D01*
X28440Y5550D02*
X28560D01*
X28500Y5490D02*
Y5610D01*
X26101Y4308D02*
X26221D01*
X26161Y4248D02*
Y4368D01*
X22940Y4100D02*
X23060D01*
X23000Y4040D02*
Y4160D01*
X17615Y6200D02*
X17735D01*
X17675Y6140D02*
Y6260D01*
X20133Y8238D02*
X20253D01*
X20193Y8177D02*
Y8298D01*
X20240Y10250D02*
X20360D01*
X20300Y10190D02*
Y10310D01*
X16890Y14272D02*
X17010D01*
X16950Y14212D02*
Y14332D01*
X17404Y13824D02*
X17524D01*
X17464Y13764D02*
Y13884D01*
X18007Y13407D02*
X18127D01*
X18067Y13347D02*
Y13467D01*
X25190Y13600D02*
X25310D01*
X25250Y13540D02*
Y13660D01*
X23240Y13619D02*
X23360D01*
X23300Y13559D02*
Y13679D01*
X20340Y12450D02*
X20460D01*
X20400Y12390D02*
Y12510D01*
X25103Y14717D02*
X25223D01*
X25163Y14657D02*
Y14777D01*
X23163Y14854D02*
X23283D01*
X23223Y14794D02*
Y14914D01*
X21477Y14382D02*
X21597D01*
X21537Y14322D02*
Y14442D01*
X21190Y15700D02*
X21310D01*
X21250Y15640D02*
Y15760D01*
X22016Y18800D02*
X22136D01*
X22076Y18740D02*
Y18860D01*
X20540Y18550D02*
X20660D01*
X20600Y18490D02*
Y18610D01*
X29471Y23350D02*
X29591D01*
X29531Y23290D02*
Y23410D01*
X3840Y20550D02*
X3960D01*
X3900Y20490D02*
Y20610D01*
X4440Y18450D02*
X4560D01*
X4500Y18390D02*
Y18510D01*
X3817Y16650D02*
X3937D01*
X3877Y16590D02*
Y16710D01*
X2990Y5700D02*
X3110D01*
X3050Y5640D02*
Y5760D01*
X3106Y7533D02*
X3226D01*
X3166Y7473D02*
Y7593D01*
X2990Y9676D02*
X3110D01*
X3050Y9616D02*
Y9736D01*
X9327Y23300D02*
X9447D01*
X9387Y23240D02*
Y23360D01*
X4256Y16513D02*
X4376D01*
X4316Y16453D02*
Y16573D01*
X4686Y16985D02*
X4806D01*
X4746Y16925D02*
Y17045D01*
X5253Y16985D02*
X5373D01*
X5313Y16925D02*
Y17045D01*
X7204Y16426D02*
X7324D01*
X7264Y16366D02*
Y16486D01*
X8427Y16953D02*
X8547D01*
X8487Y16893D02*
Y17013D01*
X9006Y17090D02*
X9126D01*
X9066Y17030D02*
Y17150D01*
X9976Y17174D02*
X10096D01*
X10036Y17114D02*
Y17234D01*
X11843Y16953D02*
X11963D01*
X11903Y16893D02*
Y17013D01*
X12218Y16953D02*
X12338D01*
X12278Y16893D02*
Y17013D01*
X13585Y14150D02*
X13705D01*
X13645Y14090D02*
Y14210D01*
X15196Y12855D02*
X15316D01*
X15256Y12795D02*
Y12915D01*
X15059Y14567D02*
X15179D01*
X15119Y14507D02*
Y14627D01*
X15383Y15250D02*
X15503D01*
X15443Y15190D02*
Y15310D01*
X19706Y15056D02*
X19826D01*
X19766Y14996D02*
Y15116D01*
X19240Y14855D02*
X19360D01*
X19300Y14795D02*
Y14915D01*
X18490Y19090D02*
X18610D01*
X18550Y19030D02*
Y19150D01*
X18091Y23009D02*
X18211D01*
X18151Y22949D02*
Y23069D01*
X18822Y23009D02*
X18942D01*
X18882Y22949D02*
Y23069D01*
X23235Y23450D02*
X23355D01*
X23295Y23390D02*
Y23510D01*
X21003Y21583D02*
X21123D01*
X21063Y21523D02*
Y21643D01*
X21777Y21583D02*
X21897D01*
X21837Y21523D02*
Y21643D01*
X23727Y18630D02*
X23847D01*
X23787Y18570D02*
Y18690D01*
X24628Y18630D02*
X24748D01*
X24688Y18570D02*
Y18690D01*
X24453Y21500D02*
X24573D01*
X24513Y21440D02*
Y21560D01*
X24453Y20500D02*
X24573D01*
X24513Y20440D02*
Y20560D01*
X25877Y20967D02*
X25997D01*
X25937Y20907D02*
Y21027D01*
X25740Y21445D02*
X25860D01*
X25800Y21385D02*
Y21505D01*
X26240Y21445D02*
X26360D01*
X26300Y21385D02*
Y21505D01*
X27850Y15363D02*
X27970D01*
X27910Y15303D02*
Y15423D01*
X28890Y13472D02*
X29010D01*
X28950Y13412D02*
Y13532D01*
X29540Y13633D02*
X29660D01*
X29600Y13573D02*
Y13693D01*
X30185Y11645D02*
X30305D01*
X30245Y11585D02*
Y11705D01*
X29440Y10250D02*
X29560D01*
X29500Y10190D02*
Y10310D01*
X29440Y8100D02*
X29560D01*
X29500Y8040D02*
Y8160D01*
X29440Y7383D02*
X29560D01*
X29500Y7323D02*
Y7443D01*
X29440Y5975D02*
X29560D01*
X29500Y5915D02*
Y6035D01*
X29090Y4345D02*
X29210D01*
X29150Y4285D02*
Y4405D01*
X25590Y2907D02*
X25710D01*
X25650Y2847D02*
Y2967D01*
X26291Y2907D02*
X26411D01*
X26351Y2847D02*
Y2967D01*
X26992Y2907D02*
X27112D01*
X27052Y2847D02*
Y2967D01*
X26992Y1445D02*
X27112D01*
X27052Y1385D02*
Y1505D01*
X26291Y1445D02*
X26411D01*
X26351Y1385D02*
Y1505D01*
X25590Y1445D02*
X25710D01*
X25650Y1385D02*
Y1505D01*
X22203Y1583D02*
X22323D01*
X22263Y1523D02*
Y1643D01*
X23353Y3044D02*
X23473D01*
X23413Y2984D02*
Y3104D01*
X21503Y3044D02*
X21623D01*
X21563Y2984D02*
Y3104D01*
X19253Y3044D02*
X19373D01*
X19313Y2984D02*
Y3104D01*
X17546Y6755D02*
X17666D01*
X17606Y6695D02*
Y6815D01*
X17673Y9583D02*
X17793D01*
X17733Y9523D02*
Y9643D01*
X17673Y8727D02*
X17793D01*
X17733Y8667D02*
Y8787D01*
X12962Y8600D02*
X13082D01*
X13022Y8540D02*
Y8660D01*
X7486Y11228D02*
X7606D01*
X7546Y11168D02*
Y11288D01*
X7486Y10445D02*
X7606D01*
X7546Y10385D02*
Y10505D01*
X5527Y18817D02*
X5647D01*
X5587Y18757D02*
Y18877D01*
X4823Y18345D02*
X4943D01*
X4883Y18285D02*
Y18405D01*
X4823Y19995D02*
X4943D01*
X4883Y19935D02*
Y20055D01*
X5390Y20000D02*
X5510D01*
X5450Y19940D02*
Y20060D01*
X7318Y20305D02*
X7438D01*
X7378Y20245D02*
Y20365D01*
X8470Y19970D02*
X8590D01*
X8530Y19910D02*
Y20030D01*
X8478Y18817D02*
X8598D01*
X8538Y18757D02*
Y18877D01*
X7500Y18700D02*
X7620D01*
X7560Y18640D02*
Y18760D01*
X8690Y23300D02*
X8810D01*
X8750Y23240D02*
Y23360D01*
X3040Y27300D02*
X3160D01*
X3100Y27240D02*
Y27360D01*
X6990Y23300D02*
X7110D01*
X7050Y23240D02*
Y23360D01*
X3040Y23300D02*
X3160D01*
X3100Y23240D02*
Y23360D01*
X17442Y1973D02*
X17562D01*
X17502Y1913D02*
Y2033D01*
X16640Y1973D02*
X16760D01*
X16700Y1913D02*
Y2033D01*
X17413Y2533D02*
X17533D01*
X17473Y2473D02*
Y2593D01*
X16640Y2533D02*
X16760D01*
X16700Y2473D02*
Y2593D01*
X17442Y812D02*
X17562D01*
X17502Y752D02*
Y872D01*
X16640Y812D02*
X16760D01*
X16700Y752D02*
Y872D01*
X17442Y1372D02*
X17562D01*
X17502Y1312D02*
Y1432D01*
X16640Y1372D02*
X16760D01*
X16700Y1312D02*
Y1432D01*
X19045Y1973D02*
X19165D01*
X19105Y1913D02*
Y2033D01*
X18243Y1973D02*
X18363D01*
X18303Y1913D02*
Y2033D01*
X19045Y2533D02*
X19165D01*
X19105Y2473D02*
Y2593D01*
X18235Y2533D02*
X18355D01*
X18295Y2473D02*
Y2593D01*
X19045Y812D02*
X19165D01*
X19105Y752D02*
Y872D01*
X18243Y812D02*
X18363D01*
X18303Y752D02*
Y872D01*
X19045Y1372D02*
X19165D01*
X19105Y1312D02*
Y1432D01*
X18243Y1372D02*
X18363D01*
X18303Y1312D02*
Y1432D01*
X14129Y1961D02*
X14249D01*
X14189Y1901D02*
Y2021D01*
X13327Y1961D02*
X13447D01*
X13387Y1901D02*
Y2021D01*
X14100Y2521D02*
X14220D01*
X14160Y2461D02*
Y2581D01*
X13327Y2521D02*
X13447D01*
X13387Y2461D02*
Y2581D01*
X14129Y800D02*
X14249D01*
X14189Y740D02*
Y860D01*
X13327Y800D02*
X13447D01*
X13387Y740D02*
Y860D01*
X14129Y1360D02*
X14249D01*
X14189Y1300D02*
Y1420D01*
X13327Y1360D02*
X13447D01*
X13387Y1300D02*
Y1420D01*
X15732Y1961D02*
X15852D01*
X15792Y1901D02*
Y2021D01*
X14930Y1961D02*
X15050D01*
X14990Y1901D02*
Y2021D01*
X15732Y2521D02*
X15852D01*
X15792Y2461D02*
Y2581D01*
X14922Y2521D02*
X15042D01*
X14982Y2461D02*
Y2581D01*
X15732Y800D02*
X15852D01*
X15792Y740D02*
Y860D01*
X14930Y800D02*
X15050D01*
X14990Y740D02*
Y860D01*
X15732Y1360D02*
X15852D01*
X15792Y1300D02*
Y1420D01*
X14930Y1360D02*
X15050D01*
X14990Y1300D02*
Y1420D01*
X22699Y6814D02*
X22819D01*
X22759Y6754D02*
Y6874D01*
X23500Y6814D02*
X23620D01*
X23560Y6754D02*
Y6874D01*
X22699Y6254D02*
X22819D01*
X22759Y6194D02*
Y6314D01*
X23500Y6254D02*
X23620D01*
X23560Y6194D02*
Y6314D01*
X22691Y7975D02*
X22811D01*
X22751Y7915D02*
Y8035D01*
X23500Y7975D02*
X23620D01*
X23560Y7915D02*
Y8035D01*
X22699Y7414D02*
X22819D01*
X22759Y7354D02*
Y7474D01*
X23500Y7414D02*
X23620D01*
X23560Y7354D02*
Y7474D01*
X21095Y6814D02*
X21215D01*
X21155Y6754D02*
Y6874D01*
X21897Y6814D02*
X22017D01*
X21957Y6754D02*
Y6874D01*
X21095Y6254D02*
X21215D01*
X21155Y6194D02*
Y6314D01*
X21897Y6254D02*
X22017D01*
X21957Y6194D02*
Y6314D01*
X21095Y7975D02*
X21215D01*
X21155Y7915D02*
Y8035D01*
X21868Y7975D02*
X21988D01*
X21928Y7915D02*
Y8035D01*
X21095Y7414D02*
X21215D01*
X21155Y7354D02*
Y7474D01*
X21897Y7414D02*
X22017D01*
X21957Y7354D02*
Y7474D01*
X17090Y19686D02*
X17210D01*
X17150Y19626D02*
Y19746D01*
X17863Y19686D02*
X17983D01*
X17923Y19626D02*
Y19746D01*
X17090Y19126D02*
X17210D01*
X17150Y19066D02*
Y19186D01*
X17863Y19126D02*
X17983D01*
X17923Y19066D02*
Y19186D01*
X27667Y24700D02*
X27787D01*
X27727Y24640D02*
Y24760D01*
X28440Y24700D02*
X28560D01*
X28500Y24640D02*
Y24760D01*
X27667Y24050D02*
X27787D01*
X27727Y23990D02*
Y24110D01*
X28440Y24050D02*
X28560D01*
X28500Y23990D02*
Y24110D01*
X22917Y26500D02*
X23037D01*
X22977Y26440D02*
Y26560D01*
X23690Y26500D02*
X23810D01*
X23750Y26440D02*
Y26560D01*
X22917Y25750D02*
X23037D01*
X22977Y25690D02*
Y25810D01*
X23690Y25750D02*
X23810D01*
X23750Y25690D02*
Y25810D01*
X22917Y25000D02*
X23037D01*
X22977Y24940D02*
Y25060D01*
X23690Y25000D02*
X23810D01*
X23750Y24940D02*
Y25060D01*
X16763Y25850D02*
X16883D01*
X16823Y25790D02*
Y25910D01*
X17535Y25850D02*
X17655D01*
X17595Y25790D02*
Y25910D01*
X16763Y24200D02*
X16883D01*
X16823Y24140D02*
Y24260D01*
X17535Y24200D02*
X17655D01*
X17595Y24140D02*
Y24260D01*
X16803Y25000D02*
X16923D01*
X16863Y24940D02*
Y25060D01*
X17575Y25000D02*
X17695D01*
X17635Y24940D02*
Y25060D01*
X27168Y14823D02*
X27288D01*
X27228Y14763D02*
Y14883D01*
X27168Y14050D02*
X27288D01*
X27228Y13990D02*
Y14110D01*
X27169Y16323D02*
X27289D01*
X27229Y16263D02*
Y16383D01*
X27169Y15550D02*
X27289D01*
X27229Y15490D02*
Y15610D01*
X29878Y14600D02*
X29998D01*
X29938Y14540D02*
Y14660D01*
X29105Y14600D02*
X29225D01*
X29165Y14540D02*
Y14660D01*
X29867Y15550D02*
X29987D01*
X29927Y15490D02*
Y15610D01*
X29094Y15550D02*
X29214D01*
X29154Y15490D02*
Y15610D01*
X29850Y16350D02*
X29970D01*
X29910Y16290D02*
Y16410D01*
X29078Y16350D02*
X29198D01*
X29138Y16290D02*
Y16410D01*
X29742Y17512D02*
X29862D01*
X29802Y17452D02*
Y17572D01*
X28969Y17512D02*
X29089D01*
X29029Y17452D02*
Y17572D01*
X29713Y18150D02*
X29833D01*
X29773Y18090D02*
Y18210D01*
X28940Y18150D02*
X29060D01*
X29000Y18090D02*
Y18210D01*
X29726Y18759D02*
X29846D01*
X29786Y18699D02*
Y18819D01*
X28954Y18759D02*
X29074D01*
X29014Y18699D02*
Y18819D01*
X30152Y19812D02*
X30272D01*
X30212Y19752D02*
Y19872D01*
X29379Y19812D02*
X29499D01*
X29439Y19752D02*
Y19872D01*
X30125Y20467D02*
X30245D01*
X30185Y20407D02*
Y20527D01*
X29353Y20467D02*
X29473D01*
X29413Y20407D02*
Y20527D01*
X28566Y19850D02*
X28686D01*
X28626Y19790D02*
Y19910D01*
X27794Y19850D02*
X27914D01*
X27854Y19790D02*
Y19910D01*
X28566Y20472D02*
X28686D01*
X28626Y20412D02*
Y20532D01*
X27794Y20472D02*
X27914D01*
X27854Y20412D02*
Y20532D01*
X24609Y16200D02*
X24729D01*
X24669Y16140D02*
Y16260D01*
X23837Y16200D02*
X23957D01*
X23897Y16140D02*
Y16260D01*
X24609Y16956D02*
X24729D01*
X24669Y16896D02*
Y17016D01*
X23837Y16956D02*
X23957D01*
X23897Y16896D02*
Y17016D01*
X11885Y25524D02*
X12005D01*
X11945Y25464D02*
Y25584D01*
X11113Y25524D02*
X11233D01*
X11173Y25464D02*
Y25584D01*
X14185Y22812D02*
X14305D01*
X14245Y22752D02*
Y22872D01*
X13413Y22812D02*
X13533D01*
X13473Y22752D02*
Y22872D01*
X12663Y24650D02*
X12783D01*
X12723Y24590D02*
Y24710D01*
X11890Y24650D02*
X12010D01*
X11950Y24590D02*
Y24710D01*
X10913Y18639D02*
X11033D01*
X10973Y18579D02*
Y18699D01*
X10140Y18639D02*
X10260D01*
X10200Y18579D02*
Y18699D01*
X10913Y19200D02*
X11033D01*
X10973Y19140D02*
Y19260D01*
X10140Y19200D02*
X10260D01*
X10200Y19140D02*
Y19260D01*
X18863Y21690D02*
X18983D01*
X18923Y21630D02*
Y21750D01*
X18090Y21690D02*
X18210D01*
X18150Y21630D02*
Y21750D01*
X18863Y22250D02*
X18983D01*
X18923Y22190D02*
Y22310D01*
X18090Y22250D02*
X18210D01*
X18150Y22190D02*
Y22310D01*
X16998Y10700D02*
X17118D01*
X17058Y10640D02*
Y10760D01*
X16225Y10700D02*
X16345D01*
X16285Y10640D02*
Y10760D01*
X16998Y11091D02*
X17118D01*
X17058Y11031D02*
Y11151D01*
X16225Y11091D02*
X16345D01*
X16285Y11031D02*
Y11151D01*
X12113Y9377D02*
X12233D01*
X12173Y9317D02*
Y9437D01*
X11340Y9377D02*
X11460D01*
X11400Y9317D02*
Y9437D01*
X12113Y10004D02*
X12233D01*
X12173Y9944D02*
Y10064D01*
X11340Y10004D02*
X11460D01*
X11400Y9944D02*
Y10064D01*
X11113Y14417D02*
X11233D01*
X11173Y14357D02*
Y14477D01*
X10340Y14417D02*
X10460D01*
X10400Y14357D02*
Y14477D01*
X5595Y14417D02*
X5715D01*
X5655Y14357D02*
Y14477D01*
X6368Y14417D02*
X6488D01*
X6428Y14357D02*
Y14477D01*
X7140Y14417D02*
X7260D01*
X7200Y14357D02*
Y14477D01*
X10340Y15084D02*
X10460D01*
X10400Y15024D02*
Y15144D01*
X11113Y15084D02*
X11233D01*
X11173Y15024D02*
Y15144D01*
X727Y11250D02*
X847D01*
X787Y11190D02*
Y11310D01*
X1500Y11250D02*
X1620D01*
X1560Y11190D02*
Y11310D01*
X2272Y11250D02*
X2392D01*
X2332Y11190D02*
Y11310D01*
X3045Y11250D02*
X3165D01*
X3105Y11190D02*
Y11310D01*
X3817Y11250D02*
X3937D01*
X3877Y11190D02*
Y11310D01*
X4590Y11250D02*
X4710D01*
X4650Y11190D02*
Y11310D01*
X4590Y12300D02*
X4710D01*
X4650Y12240D02*
Y12360D01*
X3817Y12300D02*
X3937D01*
X3877Y12240D02*
Y12360D01*
X3045Y12300D02*
X3165D01*
X3105Y12240D02*
Y12360D01*
X2272Y12300D02*
X2392D01*
X2332Y12240D02*
Y12360D01*
X1500Y12300D02*
X1620D01*
X1560Y12240D02*
Y12360D01*
X727Y12300D02*
X847D01*
X787Y12240D02*
Y12360D01*
X9970Y5834D02*
X10090D01*
X10030Y5774D02*
Y5894D01*
X9970Y7040D02*
X10090D01*
X10030Y6980D02*
Y7100D01*
X9970Y8247D02*
X10090D01*
X10030Y8187D02*
Y8307D01*
X11443Y5232D02*
X11563D01*
X11503Y5171D02*
Y5292D01*
X12043Y5232D02*
X12163D01*
X12103Y5171D02*
Y5292D01*
X11443Y4856D02*
X11563D01*
X11503Y4796D02*
Y4916D01*
X12043Y4856D02*
X12163D01*
X12103Y4796D02*
Y4916D01*
X5940Y9358D02*
X6060D01*
X6000Y9298D02*
Y9418D01*
X6540Y9358D02*
X6660D01*
X6600Y9298D02*
Y9418D01*
X5940Y8982D02*
X6060D01*
X6000Y8922D02*
Y9042D01*
X6540Y8982D02*
X6660D01*
X6600Y8922D02*
Y9042D01*
X6540Y4606D02*
X6660D01*
X6600Y4546D02*
Y4666D01*
X5940Y4606D02*
X6060D01*
X6000Y4546D02*
Y4666D01*
X6540Y4981D02*
X6660D01*
X6600Y4922D02*
Y5041D01*
X5940Y4981D02*
X6060D01*
X6000Y4922D02*
Y5041D01*
X8071Y8247D02*
X8191D01*
X8131Y8187D02*
Y8307D01*
X8840Y8247D02*
X8960D01*
X8900Y8187D02*
Y8307D01*
X8071Y7040D02*
X8191D01*
X8131Y6980D02*
Y7100D01*
X8840Y7040D02*
X8960D01*
X8900Y6980D02*
Y7100D01*
X8840Y5834D02*
X8960D01*
X8900Y5774D02*
Y5894D01*
X8071Y5834D02*
X8191D01*
X8131Y5774D02*
Y5894D01*
X2145Y1338D02*
X2265D01*
X2205Y1278D02*
Y1398D01*
X3303Y1338D02*
X3423D01*
X3363Y1278D02*
Y1398D01*
X4461Y1338D02*
X4581D01*
X4521Y1278D02*
Y1398D01*
X4461Y2544D02*
X4581D01*
X4521Y2484D02*
Y2604D01*
X3303Y2544D02*
X3423D01*
X3363Y2484D02*
Y2604D01*
X2145Y2544D02*
X2265D01*
X2205Y2484D02*
Y2604D01*
X4461Y3750D02*
X4581D01*
X4521Y3690D02*
Y3810D01*
X3303Y3750D02*
X3423D01*
X3363Y3690D02*
Y3810D01*
X2145Y3750D02*
X2265D01*
X2205Y3690D02*
Y3810D01*
X5159Y5612D02*
X5279D01*
X5219Y5552D02*
Y5673D01*
X5159Y8687D02*
X5279D01*
X5219Y8627D02*
Y8748D01*
X4192Y8687D02*
X4312D01*
X4252Y8627D02*
Y8748D01*
X4192Y7663D02*
X4312D01*
X4252Y7602D02*
Y7722D01*
X4192Y8175D02*
X4312D01*
X4252Y8115D02*
Y8235D01*
X5159Y8175D02*
X5279D01*
X5219Y8115D02*
Y8235D01*
X5159Y7649D02*
X5279D01*
X5219Y7589D02*
Y7709D01*
X5159Y7138D02*
X5279D01*
X5219Y7078D02*
Y7197D01*
X4192Y7150D02*
X4312D01*
X4252Y7090D02*
Y7210D01*
X4207Y6637D02*
X4327D01*
X4267Y6578D02*
Y6697D01*
X5159Y6637D02*
X5279D01*
X5219Y6578D02*
Y6697D01*
X5159Y6125D02*
X5279D01*
X5219Y6065D02*
Y6185D01*
X4192Y6125D02*
X4312D01*
X4252Y6065D02*
Y6185D01*
X4192Y5612D02*
X4312D01*
X4252Y5552D02*
Y5673D01*
X5159Y5088D02*
X5279D01*
X5219Y5027D02*
Y5148D01*
X4192Y5100D02*
X4312D01*
X4252Y5040D02*
Y5160D01*
X2990Y10187D02*
X3110D01*
X3050Y10127D02*
Y10247D01*
X3240Y9931D02*
X3360D01*
X3300Y9872D02*
Y9991D01*
X2990Y8200D02*
X3110D01*
X3050Y8140D02*
Y8260D01*
X3240Y7941D02*
X3360D01*
X3300Y7881D02*
Y8001D01*
X2390Y7941D02*
X2510D01*
X2450Y7881D02*
Y8001D01*
X2140Y7685D02*
X2260D01*
X2200Y7625D02*
Y7745D01*
X1990Y5694D02*
X2110D01*
X2050Y5634D02*
Y5754D01*
X2990Y6206D02*
X3110D01*
X3050Y6146D02*
Y6266D01*
X3240Y5950D02*
X3360D01*
X3300Y5890D02*
Y6010D01*
X2390Y5950D02*
X2510D01*
X2450Y5890D02*
Y6010D01*
X9613Y15373D02*
X9733D01*
X9673Y15313D02*
Y15433D01*
X4340Y15373D02*
X4460D01*
X4400Y15313D02*
Y15433D01*
X8940Y11250D02*
X9060D01*
X9000Y11190D02*
Y11310D01*
X8090Y11250D02*
X8210D01*
X8150Y11190D02*
Y11310D01*
X9490Y9850D02*
X9610D01*
X9550Y9790D02*
Y9910D01*
X8940Y10226D02*
X9060D01*
X9000Y10166D02*
Y10286D01*
X12490Y13400D02*
X12610D01*
X12550Y13340D02*
Y13460D01*
X17788Y4007D02*
X17908D01*
X17848Y3947D02*
Y4067D01*
X17540Y4600D02*
X17660D01*
X17600Y4540D02*
Y4660D01*
X21573Y12318D02*
X21693D01*
X21633Y12258D02*
Y12378D01*
X18490Y18000D02*
X18610D01*
X18550Y17940D02*
Y18060D01*
X22240Y19800D02*
X22360D01*
X22300Y19740D02*
Y19860D01*
X16640Y15253D02*
X16760D01*
X16700Y15193D02*
Y15313D01*
X16840Y13297D02*
X16960D01*
X16900Y13237D02*
Y13357D01*
X21340Y15000D02*
X21460D01*
X21400Y14940D02*
Y15060D01*
X19340Y14400D02*
X19460D01*
X19400Y14340D02*
Y14460D01*
X30785Y4515D02*
X30905D01*
X30845Y4455D02*
Y4575D01*
X30490Y9950D02*
X30610D01*
X30550Y9890D02*
Y10010D01*
X30785Y8600D02*
X30905D01*
X30845Y8540D02*
Y8660D01*
X30785Y6600D02*
X30905D01*
X30845Y6540D02*
Y6660D01*
X6990Y23800D02*
X7110D01*
X7050Y23740D02*
Y23860D01*
X4840Y20650D02*
X4960D01*
X4900Y20590D02*
Y20710D01*
X5590Y18350D02*
X5710D01*
X5650Y18290D02*
Y18410D01*
X4940Y16650D02*
X5060D01*
X5000Y16590D02*
Y16710D01*
X9613Y20150D02*
X9733D01*
X9673Y20090D02*
Y20210D01*
X20790Y12300D02*
X20910D01*
X20850Y12240D02*
Y12360D01*
X14456Y19450D02*
X14576D01*
X14516Y19390D02*
Y19510D01*
X14240Y19074D02*
X14360D01*
X14300Y19014D02*
Y19134D01*
X18890Y9000D02*
X19010D01*
X18950Y8940D02*
Y9060D01*
X20090Y8650D02*
X20210D01*
X20150Y8590D02*
Y8710D01*
X20004Y9195D02*
X20124D01*
X20064Y9135D02*
Y9255D01*
X18790Y8100D02*
X18910D01*
X18850Y8040D02*
Y8160D01*
X25440Y10450D02*
X25560D01*
X25500Y10390D02*
Y10510D01*
X25440Y9592D02*
X25560D01*
X25500Y9532D02*
Y9652D01*
X25440Y7848D02*
X25560D01*
X25500Y7788D02*
Y7908D01*
X25440Y8284D02*
X25560D01*
X25500Y8224D02*
Y8344D01*
X25440Y8720D02*
X25560D01*
X25500Y8660D02*
Y8780D01*
X25440Y9156D02*
X25560D01*
X25500Y9096D02*
Y9216D01*
X25440Y10900D02*
X25560D01*
X25500Y10840D02*
Y10960D01*
X18590Y12850D02*
X18710D01*
X18650Y12790D02*
Y12910D01*
X16180Y11700D02*
X16300D01*
X16240Y11640D02*
Y11760D01*
X15983Y12345D02*
X16103D01*
X16043Y12285D02*
Y12405D01*
X17267Y12550D02*
X17387D01*
X17327Y12490D02*
Y12610D01*
X22240Y23550D02*
X22360D01*
X22300Y23490D02*
Y23610D01*
X25740Y20550D02*
X25860D01*
X25800Y20490D02*
Y20610D01*
X24390Y21000D02*
X24510D01*
X24450Y20940D02*
Y21060D01*
X27040Y4114D02*
X27160D01*
X27100Y4054D02*
Y4174D01*
X25490Y4114D02*
X25610D01*
X25550Y4054D02*
Y4174D01*
M02*
