G04*
G04 #@! TF.GenerationSoftware,Altium Limited,Altium Designer,18.1.9 (240)*
G04*
G04 Layer_Color=16711935*
%FSLAX24Y24*%
%MOIN*%
G70*
G01*
G75*
%ADD15C,0.0100*%
%ADD17C,0.0200*%
%ADD18C,0.0060*%
%ADD21C,0.0050*%
%ADD55C,0.0671*%
%ADD64C,0.0680*%
%ADD65R,0.0671X0.0671*%
%ADD66R,0.0671X0.0395*%
%ADD67C,0.0277*%
%ADD68R,0.0671X0.0671*%
%ADD69C,0.1655*%
D15*
X-2150Y600D02*
X-1950Y0D01*
X-1750Y600D01*
X-1950Y32283D02*
X-1750Y31683D01*
X-2150D02*
X-1950Y32283D01*
Y0D02*
Y14472D01*
Y17491D02*
Y32283D01*
X-2050Y0D02*
X-200D01*
X-2050Y32283D02*
X-200D01*
X0Y-1600D02*
X600Y-1400D01*
X0Y-1600D02*
X600Y-1800D01*
X38770D02*
X39370Y-1600D01*
X38770Y-1400D02*
X39370Y-1600D01*
X0D02*
X17766D01*
X21285D02*
X39370D01*
X0Y-1700D02*
Y-200D01*
X39370Y-1700D02*
Y-200D01*
D17*
X0Y0D02*
Y32283D01*
Y0D02*
X39370D01*
X0Y32283D02*
X39370D01*
Y0D02*
Y32283D01*
D18*
X-2090Y14632D02*
X-2190Y14732D01*
Y14932D01*
X-2090Y15032D01*
X-1990D01*
X-1890Y14932D01*
X-1790Y15032D01*
X-1690D01*
X-1590Y14932D01*
Y14732D01*
X-1690Y14632D01*
X-1790D01*
X-1890Y14732D01*
X-1990Y14632D01*
X-2090D01*
X-1890Y14732D02*
Y14932D01*
X-1590Y15632D02*
Y15232D01*
X-1990Y15632D01*
X-2090D01*
X-2190Y15532D01*
Y15332D01*
X-2090Y15232D01*
X-1590Y15832D02*
X-1690D01*
Y15932D01*
X-1590D01*
Y15832D01*
X-2090Y16332D02*
X-2190Y16432D01*
Y16632D01*
X-2090Y16731D01*
X-1690D01*
X-1590Y16632D01*
Y16432D01*
X-1690Y16332D01*
X-2090D01*
Y16931D02*
X-2190Y17031D01*
Y17231D01*
X-2090Y17331D01*
X-1690D01*
X-1590Y17231D01*
Y17031D01*
X-1690Y16931D01*
X-2090D01*
X17926Y-1960D02*
X18125D01*
X18026D01*
Y-1360D01*
X17926Y-1460D01*
X18425D02*
X18525Y-1360D01*
X18725D01*
X18825Y-1460D01*
Y-1860D01*
X18725Y-1960D01*
X18525D01*
X18425Y-1860D01*
Y-1460D01*
X19025D02*
X19125Y-1360D01*
X19325D01*
X19425Y-1460D01*
Y-1860D01*
X19325Y-1960D01*
X19125D01*
X19025Y-1860D01*
Y-1460D01*
X19625Y-1960D02*
Y-1860D01*
X19725D01*
Y-1960D01*
X19625D01*
X20125Y-1460D02*
X20225Y-1360D01*
X20425D01*
X20525Y-1460D01*
Y-1860D01*
X20425Y-1960D01*
X20225D01*
X20125Y-1860D01*
Y-1460D01*
X20725D02*
X20825Y-1360D01*
X21025D01*
X21125Y-1460D01*
Y-1860D01*
X21025Y-1960D01*
X20825D01*
X20725Y-1860D01*
Y-1460D01*
D21*
X38361Y25222D02*
Y25402D01*
X37921Y25222D02*
Y25402D01*
Y25222D02*
X38361D01*
X37921Y25402D02*
X38361D01*
Y22998D02*
Y23178D01*
X37921Y22998D02*
Y23178D01*
Y22998D02*
X38361D01*
X37921Y23178D02*
X38361D01*
D55*
X29434Y5704D02*
D03*
X28434Y6704D02*
D03*
Y5704D02*
D03*
X27434Y6704D02*
D03*
Y5704D02*
D03*
X26434Y6704D02*
D03*
Y5704D02*
D03*
X25434Y6704D02*
D03*
Y5704D02*
D03*
X25450Y3750D02*
D03*
X26450D02*
D03*
X27450D02*
D03*
X28450D02*
D03*
X29450D02*
D03*
X23450D02*
D03*
X22450D02*
D03*
X21450D02*
D03*
X20450D02*
D03*
X19450D02*
D03*
X1500Y26150D02*
D03*
Y27150D02*
D03*
Y28150D02*
D03*
X1356Y19833D02*
D03*
X2356D02*
D03*
X1356Y18833D02*
D03*
X2356D02*
D03*
X1356Y17833D02*
D03*
X2356D02*
D03*
X1356Y16833D02*
D03*
X2356D02*
D03*
X1356Y15833D02*
D03*
X2356D02*
D03*
X1356Y14833D02*
D03*
X2356D02*
D03*
X1356Y13833D02*
D03*
X2356D02*
D03*
X1356Y12833D02*
D03*
X2356D02*
D03*
X1356Y11833D02*
D03*
X2356D02*
D03*
X1356Y10833D02*
D03*
D64*
X37150Y12650D02*
D03*
Y13650D02*
D03*
Y14650D02*
D03*
Y17650D02*
D03*
Y18650D02*
D03*
D65*
X29434Y6704D02*
D03*
X30450Y3750D02*
D03*
X18450D02*
D03*
D66*
X38147Y25312D02*
D03*
Y23088D02*
D03*
D67*
X37300Y23413D02*
D03*
Y24987D02*
D03*
D68*
X1500Y25150D02*
D03*
X2356Y10833D02*
D03*
D69*
X1181Y31069D02*
D03*
X38169Y31119D02*
D03*
X38219Y1181D02*
D03*
X1181D02*
D03*
M02*
