G04*
G04 #@! TF.GenerationSoftware,Altium Limited,Altium Designer,18.1.9 (240)*
G04*
G04 Layer_Color=128*
%FSLAX24Y24*%
%MOIN*%
G70*
G01*
G75*
%ADD15C,0.0100*%
%ADD17C,0.0200*%
%ADD18C,0.0060*%
%ADD21C,0.0050*%
%ADD79C,0.0020*%
D15*
X-2150Y600D02*
X-1950Y0D01*
X-1750Y600D01*
X-1950Y32283D02*
X-1750Y31683D01*
X-2150D02*
X-1950Y32283D01*
Y0D02*
Y14472D01*
Y17491D02*
Y32283D01*
X-2050Y0D02*
X-200D01*
X-2050Y32283D02*
X-200D01*
X0Y-1600D02*
X600Y-1400D01*
X0Y-1600D02*
X600Y-1800D01*
X38770D02*
X39370Y-1600D01*
X38770Y-1400D02*
X39370Y-1600D01*
X0D02*
X17766D01*
X21285D02*
X39370D01*
X0Y-1700D02*
Y-200D01*
X39370Y-1700D02*
Y-200D01*
D17*
X0Y0D02*
Y32283D01*
Y0D02*
X39370D01*
X0Y32283D02*
X39370D01*
Y0D02*
Y32283D01*
D18*
X-2090Y14632D02*
X-2190Y14732D01*
Y14932D01*
X-2090Y15032D01*
X-1990D01*
X-1890Y14932D01*
X-1790Y15032D01*
X-1690D01*
X-1590Y14932D01*
Y14732D01*
X-1690Y14632D01*
X-1790D01*
X-1890Y14732D01*
X-1990Y14632D01*
X-2090D01*
X-1890Y14732D02*
Y14932D01*
X-1590Y15632D02*
Y15232D01*
X-1990Y15632D01*
X-2090D01*
X-2190Y15532D01*
Y15332D01*
X-2090Y15232D01*
X-1590Y15832D02*
X-1690D01*
Y15932D01*
X-1590D01*
Y15832D01*
X-2090Y16332D02*
X-2190Y16432D01*
Y16632D01*
X-2090Y16731D01*
X-1690D01*
X-1590Y16632D01*
Y16432D01*
X-1690Y16332D01*
X-2090D01*
Y16931D02*
X-2190Y17031D01*
Y17231D01*
X-2090Y17331D01*
X-1690D01*
X-1590Y17231D01*
Y17031D01*
X-1690Y16931D01*
X-2090D01*
X17926Y-1960D02*
X18125D01*
X18026D01*
Y-1360D01*
X17926Y-1460D01*
X18425D02*
X18525Y-1360D01*
X18725D01*
X18825Y-1460D01*
Y-1860D01*
X18725Y-1960D01*
X18525D01*
X18425Y-1860D01*
Y-1460D01*
X19025D02*
X19125Y-1360D01*
X19325D01*
X19425Y-1460D01*
Y-1860D01*
X19325Y-1960D01*
X19125D01*
X19025Y-1860D01*
Y-1460D01*
X19625Y-1960D02*
Y-1860D01*
X19725D01*
Y-1960D01*
X19625D01*
X20125Y-1460D02*
X20225Y-1360D01*
X20425D01*
X20525Y-1460D01*
Y-1860D01*
X20425Y-1960D01*
X20225D01*
X20125Y-1860D01*
Y-1460D01*
X20725D02*
X20825Y-1360D01*
X21025D01*
X21125Y-1460D01*
Y-1860D01*
X21025Y-1960D01*
X20825D01*
X20725Y-1860D01*
Y-1460D01*
D21*
X38361Y25222D02*
Y25402D01*
X37921Y25222D02*
Y25402D01*
Y25222D02*
X38361D01*
X37921Y25402D02*
X38361D01*
Y22998D02*
Y23178D01*
X37921Y22998D02*
Y23178D01*
Y22998D02*
X38361D01*
X37921Y23178D02*
X38361D01*
D79*
X36953Y12650D02*
X37347D01*
X37150Y12453D02*
Y12847D01*
X36953Y13650D02*
X37347D01*
X37150Y13453D02*
Y13847D01*
X36953Y14650D02*
X37347D01*
X37150Y14453D02*
Y14847D01*
X36953Y17650D02*
X37347D01*
X37150Y17453D02*
Y17847D01*
X36953Y18650D02*
X37347D01*
X37150Y18453D02*
Y18847D01*
X29257Y6704D02*
X29611D01*
X29434Y6527D02*
Y6881D01*
X29257Y5704D02*
X29611D01*
X29434Y5527D02*
Y5881D01*
X28257Y6704D02*
X28611D01*
X28434Y6527D02*
Y6881D01*
X28257Y5704D02*
X28611D01*
X28434Y5527D02*
Y5881D01*
X27257Y6704D02*
X27611D01*
X27434Y6527D02*
Y6881D01*
X27257Y5704D02*
X27611D01*
X27434Y5527D02*
Y5881D01*
X26257Y6704D02*
X26611D01*
X26434Y6527D02*
Y6881D01*
X26257Y5704D02*
X26611D01*
X26434Y5527D02*
Y5881D01*
X25257Y6704D02*
X25611D01*
X25434Y6527D02*
Y6881D01*
X25257Y5704D02*
X25611D01*
X25434Y5527D02*
Y5881D01*
X25273Y3750D02*
X25627D01*
X25450Y3573D02*
Y3927D01*
X26273Y3750D02*
X26627D01*
X26450Y3573D02*
Y3927D01*
X27273Y3750D02*
X27627D01*
X27450Y3573D02*
Y3927D01*
X28273Y3750D02*
X28627D01*
X28450Y3573D02*
Y3927D01*
X29273Y3750D02*
X29627D01*
X29450Y3573D02*
Y3927D01*
X30273Y3750D02*
X30627D01*
X30450Y3573D02*
Y3927D01*
X23273Y3750D02*
X23627D01*
X23450Y3573D02*
Y3927D01*
X22273Y3750D02*
X22627D01*
X22450Y3573D02*
Y3927D01*
X21273Y3750D02*
X21627D01*
X21450Y3573D02*
Y3927D01*
X20273Y3750D02*
X20627D01*
X20450Y3573D02*
Y3927D01*
X19273Y3750D02*
X19627D01*
X19450Y3573D02*
Y3927D01*
X18273Y3750D02*
X18627D01*
X18450Y3573D02*
Y3927D01*
X38068Y25312D02*
X38226D01*
X38147Y25233D02*
Y25391D01*
X38068Y23088D02*
X38226D01*
X38147Y23009D02*
Y23167D01*
X37202Y23413D02*
X37399D01*
X37300Y23314D02*
Y23511D01*
X37202Y24987D02*
X37399D01*
X37300Y24889D02*
Y25086D01*
X1323Y25150D02*
X1677D01*
X1500Y24973D02*
Y25327D01*
X1323Y26150D02*
X1677D01*
X1500Y25973D02*
Y26327D01*
X1323Y27150D02*
X1677D01*
X1500Y26973D02*
Y27327D01*
X1323Y28150D02*
X1677D01*
X1500Y27973D02*
Y28327D01*
X1178Y19833D02*
X1533D01*
X1356Y19656D02*
Y20010D01*
X2178Y19833D02*
X2533D01*
X2356Y19656D02*
Y20010D01*
X1178Y18833D02*
X1533D01*
X1356Y18656D02*
Y19010D01*
X2178Y18833D02*
X2533D01*
X2356Y18656D02*
Y19010D01*
X1178Y17833D02*
X1533D01*
X1356Y17656D02*
Y18010D01*
X2178Y17833D02*
X2533D01*
X2356Y17656D02*
Y18010D01*
X1178Y16833D02*
X1533D01*
X1356Y16656D02*
Y17011D01*
X2178Y16833D02*
X2533D01*
X2356Y16656D02*
Y17011D01*
X1178Y15833D02*
X1533D01*
X1356Y15656D02*
Y16011D01*
X2178Y15833D02*
X2533D01*
X2356Y15656D02*
Y16011D01*
X1178Y14833D02*
X1533D01*
X1356Y14656D02*
Y15010D01*
X2178Y14833D02*
X2533D01*
X2356Y14656D02*
Y15010D01*
X1178Y13833D02*
X1533D01*
X1356Y13656D02*
Y14010D01*
X2178Y13833D02*
X2533D01*
X2356Y13656D02*
Y14010D01*
X1178Y12833D02*
X1533D01*
X1356Y12656D02*
Y13010D01*
X2178Y12833D02*
X2533D01*
X2356Y12656D02*
Y13010D01*
X1178Y11833D02*
X1533D01*
X1356Y11656D02*
Y12011D01*
X2178Y11833D02*
X2533D01*
X2356Y11656D02*
Y12011D01*
X1178Y10833D02*
X1533D01*
X1356Y10656D02*
Y11011D01*
X2178Y10833D02*
X2533D01*
X2356Y10656D02*
Y11011D01*
X492Y31069D02*
X1870D01*
X1181Y30380D02*
Y31758D01*
X37480Y31119D02*
X38858D01*
X38169Y30430D02*
Y31808D01*
X37530Y1181D02*
X38908D01*
X38219Y492D02*
Y1870D01*
X492Y1181D02*
X1870D01*
X1181Y492D02*
Y1870D01*
X15263Y20842D02*
X15383D01*
X15323Y20782D02*
Y20902D01*
X14440Y20850D02*
X14560D01*
X14500Y20790D02*
Y20910D01*
X14326Y18082D02*
X14446D01*
X14386Y18022D02*
Y18142D01*
X4640Y9423D02*
X4760D01*
X4700Y9363D02*
Y9483D01*
X4640Y10539D02*
X4760D01*
X4700Y10479D02*
Y10599D01*
X4640Y11655D02*
X4760D01*
X4700Y11595D02*
Y11715D01*
X4640Y12770D02*
X4760D01*
X4700Y12710D02*
Y12830D01*
X4640Y13886D02*
X4760D01*
X4700Y13826D02*
Y13946D01*
X4640Y15002D02*
X4760D01*
X4700Y14942D02*
Y15062D01*
X4640Y16118D02*
X4760D01*
X4700Y16058D02*
Y16178D01*
X4640Y17233D02*
X4760D01*
X4700Y17173D02*
Y17293D01*
X4640Y18349D02*
X4760D01*
X4700Y18289D02*
Y18409D01*
X4640Y19465D02*
X4760D01*
X4700Y19405D02*
Y19525D01*
X4640Y20580D02*
X4760D01*
X4700Y20520D02*
Y20640D01*
X4640Y21696D02*
X4760D01*
X4700Y21636D02*
Y21756D01*
X4640Y22812D02*
X4760D01*
X4700Y22752D02*
Y22872D01*
X4640Y23927D02*
X4760D01*
X4700Y23867D02*
Y23987D01*
X3368Y28350D02*
X3488D01*
X3428Y28290D02*
Y28410D01*
X3358Y27550D02*
X3478D01*
X3418Y27490D02*
Y27610D01*
X8838Y3312D02*
X8958D01*
X8898Y3252D02*
Y3372D01*
X24990Y3270D02*
X25110D01*
X25050Y3210D02*
Y3330D01*
X29397Y7944D02*
X29517D01*
X29457Y7884D02*
Y8004D01*
X38990Y5356D02*
X39110D01*
X39050Y5296D02*
Y5416D01*
X37702Y5012D02*
X37822D01*
X37762Y4952D02*
Y5072D01*
X38036Y7476D02*
X38156D01*
X38096Y7416D02*
Y7536D01*
X34223Y7476D02*
X34343D01*
X34283Y7416D02*
Y7536D01*
X38040Y6903D02*
X38160D01*
X38100Y6843D02*
Y6963D01*
X32465Y6903D02*
X32585D01*
X32525Y6843D02*
Y6963D01*
X26768Y13073D02*
X26888D01*
X26828Y13013D02*
Y13133D01*
X13336Y11682D02*
X13456D01*
X13396Y11622D02*
Y11742D01*
X24390Y22850D02*
X24510D01*
X24450Y22790D02*
Y22910D01*
X34223Y10161D02*
X34343D01*
X34283Y10101D02*
Y10221D01*
X32460Y5049D02*
X32580D01*
X32520Y4989D02*
Y5109D01*
X27874Y5702D02*
X27994D01*
X27934Y5642D02*
Y5762D01*
X26890Y5702D02*
X27010D01*
X26950Y5642D02*
Y5762D01*
X25890Y5700D02*
X26010D01*
X25950Y5640D02*
Y5760D01*
X28240Y22850D02*
X28360D01*
X28300Y22790D02*
Y22910D01*
X26190Y26999D02*
X26310D01*
X26250Y26939D02*
Y27059D01*
X2505Y9178D02*
X2625D01*
X2565Y9118D02*
Y9238D01*
X8187Y25950D02*
X8307D01*
X8247Y25890D02*
Y26010D01*
X2505Y24090D02*
X2625D01*
X2565Y24030D02*
Y24150D01*
X13413Y19300D02*
X13533D01*
X13473Y19240D02*
Y19360D01*
X11764Y22260D02*
X11884D01*
X11824Y22200D02*
Y22320D01*
X10298Y22260D02*
X10418D01*
X10358Y22200D02*
Y22320D01*
X8187Y22260D02*
X8307D01*
X8247Y22200D02*
Y22320D01*
X14720Y22260D02*
X14840D01*
X14780Y22200D02*
Y22320D01*
X21590Y25400D02*
X21710D01*
X21650Y25340D02*
Y25460D01*
X34223Y12150D02*
X34343D01*
X34283Y12090D02*
Y12210D01*
X19764Y5461D02*
X19884D01*
X19824Y5401D02*
Y5521D01*
X23142Y5461D02*
X23262D01*
X23202Y5401D02*
Y5521D01*
X18103Y5461D02*
X18223D01*
X18163Y5401D02*
Y5521D01*
X8420Y4000D02*
X8540D01*
X8480Y3940D02*
Y4060D01*
X9679Y11225D02*
X9799D01*
X9739Y11165D02*
Y11285D01*
X8543Y14937D02*
X8663D01*
X8603Y14877D02*
Y14997D01*
X14698Y14900D02*
X14818D01*
X14758Y14840D02*
Y14960D01*
X16490Y11673D02*
X16610D01*
X16550Y11613D02*
Y11733D01*
X19320Y10210D02*
X19440D01*
X19380Y10150D02*
Y10270D01*
X19613Y11673D02*
X19733D01*
X19673Y11613D02*
Y11733D01*
X26079Y10788D02*
X26199D01*
X26139Y10728D02*
Y10848D01*
X28290Y12150D02*
X28410D01*
X28350Y12090D02*
Y12210D01*
X29819Y12150D02*
X29939D01*
X29879Y12090D02*
Y12210D01*
X31742Y12150D02*
X31862D01*
X31802Y12090D02*
Y12210D01*
X31209Y16507D02*
X31329D01*
X31269Y16447D02*
Y16567D01*
X38290Y15650D02*
X38410D01*
X38350Y15590D02*
Y15710D01*
X38290Y16950D02*
X38410D01*
X38350Y16890D02*
Y17010D01*
X32940Y22850D02*
X33060D01*
X33000Y22790D02*
Y22910D01*
X31209Y19500D02*
X31329D01*
X31269Y19440D02*
Y19560D01*
X18246Y26678D02*
X18366D01*
X18306Y26618D02*
Y26738D01*
X17438Y26678D02*
X17558D01*
X17498Y26618D02*
Y26738D01*
X16631Y26678D02*
X16751D01*
X16691Y26618D02*
Y26738D01*
X18246Y27450D02*
X18366D01*
X18306Y27390D02*
Y27510D01*
X17438Y27413D02*
X17558D01*
X17498Y27353D02*
Y27473D01*
X16631Y27413D02*
X16751D01*
X16691Y27353D02*
Y27473D01*
X4940Y6050D02*
X5060D01*
X5000Y5990D02*
Y6110D01*
X4190Y6050D02*
X4310D01*
X4250Y5990D02*
Y6110D01*
X3440Y6050D02*
X3560D01*
X3500Y5990D02*
Y6110D01*
X4940Y6704D02*
X5060D01*
X5000Y6644D02*
Y6764D01*
X4190Y6704D02*
X4310D01*
X4250Y6644D02*
Y6764D01*
X3440Y6704D02*
X3560D01*
X3500Y6644D02*
Y6764D01*
X29943Y14350D02*
X30063D01*
X30003Y14290D02*
Y14410D01*
X29943Y15404D02*
X30063D01*
X30003Y15344D02*
Y15464D01*
X29943Y16467D02*
X30063D01*
X30003Y16407D02*
Y16527D01*
X29943Y18584D02*
X30063D01*
X30003Y18524D02*
Y18644D01*
X29943Y20700D02*
X30063D01*
X30003Y20640D02*
Y20760D01*
X29943Y22260D02*
X30063D01*
X30003Y22200D02*
Y22320D01*
X30006Y23454D02*
X30126D01*
X30066Y23394D02*
Y23514D01*
X29113Y24598D02*
X29233D01*
X29173Y24538D02*
Y24658D01*
X27940Y26100D02*
X28060D01*
X28000Y26040D02*
Y26160D01*
X25824Y23538D02*
X25944D01*
X25884Y23478D02*
Y23598D01*
X23106Y23500D02*
X23226D01*
X23166Y23440D02*
Y23560D01*
X21690Y23822D02*
X21810D01*
X21750Y23762D02*
Y23882D01*
X20779Y23822D02*
X20899D01*
X20839Y23762D02*
Y23882D01*
X17953Y18867D02*
X18073D01*
X18013Y18807D02*
Y18927D01*
X17953Y16899D02*
X18073D01*
X18013Y16839D02*
Y16959D01*
X18234Y13266D02*
X18354D01*
X18294Y13206D02*
Y13326D01*
X14626Y13733D02*
X14746D01*
X14686Y13673D02*
Y13793D01*
X14630Y12853D02*
X14750D01*
X14690Y12793D02*
Y12913D01*
X6223Y8883D02*
X6343D01*
X6283Y8823D02*
Y8943D01*
X6223Y9997D02*
X6343D01*
X6283Y9937D02*
Y10057D01*
X6223Y11111D02*
X6343D01*
X6283Y11051D02*
Y11171D01*
X6223Y12225D02*
X6343D01*
X6283Y12165D02*
Y12285D01*
X6223Y13338D02*
X6343D01*
X6283Y13278D02*
Y13398D01*
X6223Y14452D02*
X6343D01*
X6283Y14392D02*
Y14512D01*
X6223Y15566D02*
X6343D01*
X6283Y15506D02*
Y15626D01*
X6224Y16650D02*
X6344D01*
X6284Y16590D02*
Y16710D01*
X6223Y17794D02*
X6343D01*
X6283Y17734D02*
Y17854D01*
X6223Y18867D02*
X6343D01*
X6283Y18807D02*
Y18927D01*
X6223Y20021D02*
X6343D01*
X6283Y19961D02*
Y20081D01*
X6223Y21135D02*
X6343D01*
X6283Y21075D02*
Y21195D01*
X6223Y22249D02*
X6343D01*
X6283Y22189D02*
Y22309D01*
X6223Y23362D02*
X6343D01*
X6283Y23302D02*
Y23422D01*
X6223Y24476D02*
X6343D01*
X6283Y24416D02*
Y24536D01*
X6223Y25590D02*
X6343D01*
X6283Y25530D02*
Y25650D01*
X1440Y28434D02*
X1560D01*
X1500Y28374D02*
Y28494D01*
X1296Y21447D02*
X1416D01*
X1356Y21387D02*
Y21507D01*
X8203Y12853D02*
X8323D01*
X8263Y12793D02*
Y12913D01*
X8203Y13700D02*
X8323D01*
X8263Y13640D02*
Y13760D01*
X7903Y11300D02*
X8023D01*
X7963Y11240D02*
Y11360D01*
X9027Y8750D02*
X9147D01*
X9087Y8690D02*
Y8810D01*
X10349Y6445D02*
X10469D01*
X10409Y6385D02*
Y6505D01*
X7399Y5270D02*
X7519D01*
X7459Y5210D02*
Y5330D01*
X9399Y6445D02*
X9519D01*
X9459Y6385D02*
Y6505D01*
X14900Y3313D02*
X15020D01*
X14960Y3253D02*
Y3373D01*
X14050Y3313D02*
X14170D01*
X14110Y3253D02*
Y3373D01*
X13199Y3313D02*
X13319D01*
X13259Y3253D02*
Y3373D01*
X10922Y3886D02*
X11042D01*
X10982Y3826D02*
Y3946D01*
X10349Y4487D02*
X10469D01*
X10409Y4427D02*
Y4547D01*
X16749Y4850D02*
X16869D01*
X16809Y4790D02*
Y4910D01*
X14900Y5270D02*
X15020D01*
X14960Y5210D02*
Y5330D01*
X14050Y5270D02*
X14170D01*
X14110Y5210D02*
Y5330D01*
X11206Y6659D02*
X11326D01*
X11266Y6599D02*
Y6719D01*
X12690Y8059D02*
X12810D01*
X12750Y7999D02*
Y8119D01*
X10202Y7169D02*
X10322D01*
X10262Y7109D02*
Y7229D01*
X14050Y8344D02*
X14170D01*
X14110Y8284D02*
Y8404D01*
X15901Y7242D02*
X16021D01*
X15961Y7182D02*
Y7302D01*
X16590Y7169D02*
X16710D01*
X16650Y7109D02*
Y7229D01*
X18490Y8550D02*
X18610D01*
X18550Y8490D02*
Y8610D01*
X21840Y8400D02*
X21960D01*
X21900Y8340D02*
Y8460D01*
X20690Y10285D02*
X20810D01*
X20750Y10225D02*
Y10345D01*
X29840Y10191D02*
X29960D01*
X29900Y10131D02*
Y10251D01*
X28890Y10191D02*
X29010D01*
X28950Y10131D02*
Y10251D01*
X32940Y7303D02*
X33060D01*
X33000Y7243D02*
Y7363D01*
X31990Y7303D02*
X32110D01*
X32050Y7243D02*
Y7363D01*
X32940Y3197D02*
X33060D01*
X33000Y3137D02*
Y3257D01*
X31990Y3197D02*
X32110D01*
X32050Y3137D02*
Y3257D01*
X36421Y2694D02*
X36541D01*
X36481Y2634D02*
Y2754D01*
X36421Y7544D02*
X36541D01*
X36481Y7484D02*
Y7604D01*
X36440Y10997D02*
X36560D01*
X36500Y10937D02*
Y11057D01*
X38540Y11000D02*
X38660D01*
X38600Y10940D02*
Y11060D01*
X36690Y14650D02*
X36810D01*
X36750Y14590D02*
Y14710D01*
X36690Y17650D02*
X36810D01*
X36750Y17590D02*
Y17710D01*
X35390Y21336D02*
X35510D01*
X35450Y21276D02*
Y21396D01*
X37290Y20330D02*
X37410D01*
X37350Y20270D02*
Y20390D01*
X36424Y24712D02*
X36544D01*
X36484Y24652D02*
Y24772D01*
X34640Y26093D02*
X34760D01*
X34700Y26033D02*
Y26153D01*
X37590Y29600D02*
X37710D01*
X37650Y29540D02*
Y29660D01*
X16284Y15132D02*
X16404D01*
X16344Y15072D02*
Y15192D01*
X24840Y13000D02*
X24960D01*
X24900Y12940D02*
Y13060D01*
X21370Y21300D02*
X21490D01*
X21430Y21240D02*
Y21360D01*
X24840Y14254D02*
X24960D01*
X24900Y14194D02*
Y14314D01*
X10708Y21450D02*
X10828D01*
X10768Y21390D02*
Y21510D01*
X15240Y13300D02*
X15360D01*
X15300Y13240D02*
Y13360D01*
X11890Y13927D02*
X12010D01*
X11950Y13867D02*
Y13987D01*
X12269Y12851D02*
X12389D01*
X12329Y12791D02*
Y12911D01*
X19840Y21900D02*
X19960D01*
X19900Y21840D02*
Y21960D01*
X26968Y26700D02*
X27088D01*
X27028Y26640D02*
Y26760D01*
X17268Y14900D02*
X17388D01*
X17328Y14840D02*
Y14960D01*
X15140Y17150D02*
X15260D01*
X15200Y17090D02*
Y17210D01*
X16690Y20100D02*
X16810D01*
X16750Y20040D02*
Y20160D01*
X15178Y18472D02*
X15298D01*
X15238Y18412D02*
Y18532D01*
X16890Y18000D02*
X17010D01*
X16950Y17940D02*
Y18060D01*
X16990Y19561D02*
X17110D01*
X17050Y19501D02*
Y19621D01*
X23637Y17150D02*
X23757D01*
X23697Y17090D02*
Y17210D01*
X22890Y12031D02*
X23010D01*
X22950Y11971D02*
Y12091D01*
X23290Y16300D02*
X23410D01*
X23350Y16240D02*
Y16360D01*
X22940Y15719D02*
X23060D01*
X23000Y15659D02*
Y15779D01*
X23090Y11550D02*
X23210D01*
X23150Y11490D02*
Y11610D01*
X23387Y11000D02*
X23507D01*
X23447Y10940D02*
Y11060D01*
X22590Y15050D02*
X22710D01*
X22650Y14990D02*
Y15110D01*
X22590Y12500D02*
X22710D01*
X22650Y12440D02*
Y12560D01*
X23940Y11700D02*
X24060D01*
X24000Y11640D02*
Y11760D01*
X25694Y12900D02*
X25814D01*
X25754Y12840D02*
Y12960D01*
X31240Y5650D02*
X31360D01*
X31300Y5590D02*
Y5710D01*
X33190Y5650D02*
X33310D01*
X33250Y5590D02*
Y5710D01*
X27022Y10450D02*
X27142D01*
X27082Y10390D02*
Y10510D01*
X12875Y16703D02*
X12995D01*
X12935Y16643D02*
Y16763D01*
X12677Y20245D02*
X12797D01*
X12737Y20185D02*
Y20305D01*
X12875Y17294D02*
X12995D01*
X12935Y17234D02*
Y17354D01*
X13563Y15400D02*
X13683D01*
X13623Y15340D02*
Y15460D01*
X14440Y20400D02*
X14560D01*
X14500Y20340D02*
Y20460D01*
X15290Y20400D02*
X15410D01*
X15350Y20340D02*
Y20460D01*
X17640Y15650D02*
X17760D01*
X17700Y15590D02*
Y15710D01*
X31040Y13550D02*
X31160D01*
X31100Y13490D02*
Y13610D01*
X30535Y14200D02*
X30655D01*
X30595Y14140D02*
Y14260D01*
X25455Y24700D02*
X25575D01*
X25515Y24640D02*
Y24760D01*
X25504Y14317D02*
X25624D01*
X25564Y14257D02*
Y14377D01*
X27040Y11000D02*
X27160D01*
X27100Y10940D02*
Y11060D01*
X26488Y11750D02*
X26608D01*
X26548Y11690D02*
Y11810D01*
X28790Y13927D02*
X28910D01*
X28850Y13867D02*
Y13987D01*
X27669Y12729D02*
X27789D01*
X27729Y12669D02*
Y12789D01*
X20340Y7300D02*
X20460D01*
X20400Y7240D02*
Y7360D01*
X30790Y10222D02*
X30910D01*
X30850Y10162D02*
Y10282D01*
X19390Y23600D02*
X19510D01*
X19450Y23540D02*
Y23660D01*
X19440Y15521D02*
X19560D01*
X19500Y15461D02*
Y15581D01*
X12480Y15521D02*
X12600D01*
X12540Y15461D02*
Y15581D01*
X10202Y8638D02*
X10322D01*
X10262Y8578D02*
Y8698D01*
X11184Y9097D02*
X11304D01*
X11244Y9037D02*
Y9157D01*
X11184Y11474D02*
X11304D01*
X11244Y11414D02*
Y11534D01*
X31547Y21150D02*
X31667D01*
X31607Y21090D02*
Y21210D01*
X34190Y23600D02*
X34310D01*
X34250Y23540D02*
Y23660D01*
X34190Y24712D02*
X34310D01*
X34250Y24652D02*
Y24772D01*
X10708Y18650D02*
X10828D01*
X10768Y18590D02*
Y18710D01*
X20882Y16308D02*
X21002D01*
X20942Y16248D02*
Y16368D01*
X18999Y17500D02*
X19119D01*
X19059Y17440D02*
Y17560D01*
X390Y20639D02*
X510D01*
X450Y20579D02*
Y20699D01*
X2246Y22850D02*
X2366D01*
X2306Y22790D02*
Y22910D01*
X9690Y12853D02*
X9810D01*
X9750Y12793D02*
Y12913D01*
X13199Y12853D02*
X13319D01*
X13259Y12793D02*
Y12913D01*
X10708Y12848D02*
X10828D01*
X10768Y12788D02*
Y12908D01*
X27022Y9500D02*
X27142D01*
X27082Y9440D02*
Y9560D01*
X27990Y9450D02*
X28110D01*
X28050Y9390D02*
Y9510D01*
X28931Y8250D02*
X29051D01*
X28991Y8190D02*
Y8310D01*
X29897Y8250D02*
X30017D01*
X29957Y8190D02*
Y8310D01*
X31990Y9500D02*
X32110D01*
X32050Y9440D02*
Y9560D01*
X32940Y9500D02*
X33060D01*
X33000Y9440D02*
Y9560D01*
X38490Y3350D02*
X38610D01*
X38550Y3290D02*
Y3410D01*
X37590Y3350D02*
X37710D01*
X37650Y3290D02*
Y3410D01*
X35990Y6564D02*
X36110D01*
X36050Y6504D02*
Y6624D01*
X37590Y8274D02*
X37710D01*
X37650Y8214D02*
Y8334D01*
X38490Y8300D02*
X38610D01*
X38550Y8240D02*
Y8360D01*
M02*
