G04*
G04 #@! TF.GenerationSoftware,Altium Limited,Altium Designer,18.1.9 (240)*
G04*
G04 Layer_Physical_Order=2*
G04 Layer_Color=32768*
%FSLAX24Y24*%
%MOIN*%
G70*
G01*
G75*
%ADD14C,0.0100*%
%ADD15C,0.0200*%
%ADD16C,0.0060*%
%ADD19C,0.0050*%
%ADD93C,0.0400*%
%ADD94C,0.0754*%
%ADD95O,0.0794X0.0557*%
%ADD96C,0.0597*%
%ADD97C,0.0794*%
%ADD98C,0.1620*%
%ADD99C,0.0520*%
D14*
X31496Y0D02*
Y27559D01*
X0D02*
X31496D01*
X0Y0D02*
X31496D01*
X0D02*
Y27559D01*
X-700Y600D02*
X-500Y0D01*
X-300Y600D01*
X-500Y27559D02*
X-300Y26959D01*
X-700D02*
X-500Y27559D01*
Y0D02*
Y12110D01*
Y15129D02*
Y27559D01*
X-600Y0D02*
X-150D01*
X-600Y27559D02*
X-150D01*
X0Y-400D02*
X600Y-200D01*
X0Y-400D02*
X600Y-600D01*
X30896D02*
X31496Y-400D01*
X30896Y-200D02*
X31496Y-400D01*
X0D02*
X14078D01*
X17098D02*
X31496D01*
X0Y-500D02*
Y-150D01*
X31496Y-500D02*
Y-150D01*
D15*
X1450Y22210D02*
X9100D01*
Y23550D01*
X14516D02*
Y27534D01*
X9100Y23550D02*
X14516D01*
X1450Y22210D02*
Y24100D01*
X201D02*
X1450D01*
X0Y4700D02*
X3750D01*
Y9650D01*
X12700Y2800D02*
Y12500D01*
X7800D02*
X12700D01*
X3750Y9650D02*
X7800D01*
Y12500D01*
X6200Y0D02*
Y2800D01*
X12700D01*
D16*
X-740Y12270D02*
Y12670D01*
X-640D01*
X-240Y12270D01*
X-140D01*
X-640Y12870D02*
X-740Y12970D01*
Y13170D01*
X-640Y13270D01*
X-240D01*
X-140Y13170D01*
Y12970D01*
X-240Y12870D01*
X-640D01*
X-140Y13470D02*
X-240D01*
Y13570D01*
X-140D01*
Y13470D01*
X-640Y13969D02*
X-740Y14069D01*
Y14269D01*
X-640Y14369D01*
X-240D01*
X-140Y14269D01*
Y14069D01*
X-240Y13969D01*
X-640D01*
Y14569D02*
X-740Y14669D01*
Y14869D01*
X-640Y14969D01*
X-240D01*
X-140Y14869D01*
Y14669D01*
X-240Y14569D01*
X-640D01*
X14238Y-260D02*
X14338Y-160D01*
X14538D01*
X14638Y-260D01*
Y-360D01*
X14538Y-460D01*
X14638Y-560D01*
Y-660D01*
X14538Y-760D01*
X14338D01*
X14238Y-660D01*
Y-560D01*
X14338Y-460D01*
X14238Y-360D01*
Y-260D01*
X14338Y-460D02*
X14538D01*
X14838Y-260D02*
X14938Y-160D01*
X15138D01*
X15238Y-260D01*
Y-660D01*
X15138Y-760D01*
X14938D01*
X14838Y-660D01*
Y-260D01*
X15438Y-760D02*
Y-660D01*
X15538D01*
Y-760D01*
X15438D01*
X15938Y-260D02*
X16038Y-160D01*
X16238D01*
X16338Y-260D01*
Y-660D01*
X16238Y-760D01*
X16038D01*
X15938Y-660D01*
Y-260D01*
X16538D02*
X16638Y-160D01*
X16838D01*
X16938Y-260D01*
Y-660D01*
X16838Y-760D01*
X16638D01*
X16538Y-660D01*
Y-260D01*
D19*
X30564Y23834D02*
Y24014D01*
X30124Y23834D02*
Y24014D01*
Y23834D02*
X30564D01*
X30124Y24014D02*
X30564D01*
Y21610D02*
Y21790D01*
X30124Y21610D02*
Y21790D01*
Y21610D02*
X30564D01*
X30124Y21790D02*
X30564D01*
D93*
X0Y0D02*
X31496D01*
Y27559D01*
X0D02*
X31496D01*
X0Y0D02*
Y27559D01*
D94*
X8900Y27000D02*
D03*
X9900D02*
D03*
X11900D02*
D03*
X12900D02*
D03*
X13900D02*
D03*
X1550Y5430D02*
D03*
X550D02*
D03*
X1550Y6430D02*
D03*
X550D02*
D03*
X1550Y7430D02*
D03*
X550D02*
D03*
X1550Y8430D02*
D03*
X550D02*
D03*
X1550Y9430D02*
D03*
X550D02*
D03*
X1550Y13700D02*
D03*
Y14700D02*
D03*
Y15700D02*
D03*
Y16700D02*
D03*
Y17700D02*
D03*
X550D02*
D03*
X15300Y23000D02*
D03*
X16300D02*
D03*
X15300Y22000D02*
D03*
X16300D02*
D03*
X15300Y21000D02*
D03*
X16300D02*
D03*
Y17000D02*
D03*
X15300D02*
D03*
X16300Y18000D02*
D03*
X15300D02*
D03*
X16300Y19000D02*
D03*
X15300D02*
D03*
X16300Y20000D02*
D03*
X15300D02*
D03*
X16300Y3981D02*
D03*
X15300D02*
D03*
X16300Y4981D02*
D03*
X15300D02*
D03*
X16300Y5982D02*
D03*
X15300D02*
D03*
X16300Y6981D02*
D03*
X15300D02*
D03*
X16300Y7982D02*
D03*
X15300D02*
D03*
X16300Y8982D02*
D03*
X15300D02*
D03*
X16300Y9981D02*
D03*
X15300D02*
D03*
X27100Y26550D02*
D03*
X550Y20700D02*
D03*
Y21700D02*
D03*
Y22700D02*
D03*
X29531Y7533D02*
D03*
X29531Y10683D02*
D03*
D95*
X30350Y23924D02*
D03*
Y21700D02*
D03*
D96*
X29504Y22025D02*
D03*
Y23600D02*
D03*
D97*
X21187Y27100D02*
D03*
X20400D02*
D03*
X19613D02*
D03*
Y25328D02*
D03*
X20400D02*
D03*
X21187D02*
D03*
D98*
X787Y26763D02*
D03*
Y787D02*
D03*
D99*
X29700Y4246D02*
D03*
X26725Y22812D02*
D03*
X26150D02*
D03*
X26725Y23250D02*
D03*
X26150D02*
D03*
X25234Y22038D02*
D03*
X26356D02*
D03*
X27478D02*
D03*
X28600D02*
D03*
X8950Y19750D02*
D03*
X7900Y20300D02*
D03*
X7892Y19400D02*
D03*
X28950Y12850D02*
D03*
X29000Y10388D02*
D03*
X18150Y9195D02*
D03*
X22609Y15000D02*
D03*
X21994D02*
D03*
X7078Y3200D02*
D03*
X6500D02*
D03*
X7078Y3650D02*
D03*
X6500D02*
D03*
X10850Y1500D02*
D03*
X10400D02*
D03*
X10850Y1850D02*
D03*
X10400D02*
D03*
X13062Y10907D02*
D03*
X17058Y10700D02*
D03*
X16285D02*
D03*
X17058Y11091D02*
D03*
X16285D02*
D03*
X12173Y9377D02*
D03*
X11400D02*
D03*
X12173Y10004D02*
D03*
X11400D02*
D03*
X5219Y5612D02*
D03*
Y8687D02*
D03*
X4252Y8687D02*
D03*
Y7663D02*
D03*
Y8175D02*
D03*
X5219Y8175D02*
D03*
Y7649D02*
D03*
Y7138D02*
D03*
X4252Y7150D02*
D03*
X4267Y6637D02*
D03*
X5219Y6637D02*
D03*
Y6125D02*
D03*
X4252Y6125D02*
D03*
Y5612D02*
D03*
X5219Y5088D02*
D03*
X4252Y5100D02*
D03*
X3050Y10187D02*
D03*
X3300Y9931D02*
D03*
X3050Y8200D02*
D03*
X3300Y7941D02*
D03*
X2450D02*
D03*
X2200Y7685D02*
D03*
X2050Y5694D02*
D03*
X3050Y6206D02*
D03*
X3300Y5950D02*
D03*
X2450D02*
D03*
X9673Y15373D02*
D03*
X4400D02*
D03*
X9000Y11250D02*
D03*
X8150D02*
D03*
X9550Y9850D02*
D03*
X9000Y10226D02*
D03*
X12550Y13400D02*
D03*
X17848Y4007D02*
D03*
X17600Y4600D02*
D03*
X21633Y12318D02*
D03*
X18550Y18000D02*
D03*
X22300Y19800D02*
D03*
X16700Y15253D02*
D03*
X16900Y13297D02*
D03*
X21400Y15000D02*
D03*
X19400Y14400D02*
D03*
X30845Y4515D02*
D03*
X30550Y9950D02*
D03*
X30845Y8600D02*
D03*
Y6600D02*
D03*
X7050Y23800D02*
D03*
X4900Y20650D02*
D03*
X5650Y18350D02*
D03*
X5000Y16650D02*
D03*
X9673Y20150D02*
D03*
X20850Y12300D02*
D03*
X14516Y19450D02*
D03*
X14300Y19074D02*
D03*
X18950Y9000D02*
D03*
X20150Y8650D02*
D03*
X20064Y9195D02*
D03*
X18850Y8100D02*
D03*
X25500Y10450D02*
D03*
Y9592D02*
D03*
Y7848D02*
D03*
Y8284D02*
D03*
Y8720D02*
D03*
Y9156D02*
D03*
Y10900D02*
D03*
X18650Y12850D02*
D03*
X16240Y11700D02*
D03*
X16043Y12345D02*
D03*
X17327Y12550D02*
D03*
X22300Y23550D02*
D03*
X25800Y20550D02*
D03*
X24450Y21000D02*
D03*
X27100Y4114D02*
D03*
X25550D02*
D03*
M02*
