G04*
G04 #@! TF.GenerationSoftware,Altium Limited,Altium Designer,18.1.9 (240)*
G04*
G04 Layer_Physical_Order=1*
G04 Layer_Color=255*
%FSLAX24Y24*%
%MOIN*%
G70*
G01*
G75*
%ADD15C,0.0100*%
%ADD17C,0.0200*%
%ADD18C,0.0060*%
%ADD21C,0.0050*%
%ADD24R,0.0386X0.0366*%
%ADD25R,0.0748X0.0945*%
%ADD26R,0.0866X0.0394*%
%ADD27R,0.0866X0.1378*%
%ADD28R,0.0433X0.0236*%
%ADD29O,0.0236X0.0709*%
%ADD30O,0.0709X0.0110*%
%ADD31O,0.0110X0.0709*%
%ADD32R,0.0087X0.0787*%
%ADD33R,0.0787X0.0087*%
%ADD34O,0.0787X0.0087*%
%ADD35C,0.0591*%
%ADD36R,0.0366X0.0386*%
%ADD37R,0.0492X0.0276*%
%ADD38R,0.0610X0.0157*%
%ADD39R,0.0748X0.0709*%
%ADD40R,0.0579X0.0457*%
%ADD41R,0.0394X0.0327*%
%ADD42R,0.0457X0.0579*%
%ADD43R,0.0709X0.1024*%
%ADD70C,0.0300*%
%ADD71C,0.0150*%
%ADD72C,0.0600*%
%ADD73R,0.0591X0.0591*%
%ADD74R,0.0591X0.0315*%
%ADD75C,0.0197*%
%ADD76R,0.0591X0.0591*%
%ADD77C,0.1575*%
%ADD78C,0.0394*%
G36*
X39250Y29152D02*
X39200Y29142D01*
X39176Y29199D01*
X39113Y29282D01*
X39030Y29345D01*
X38934Y29385D01*
X38831Y29399D01*
X38728Y29385D01*
X38632Y29345D01*
X38549Y29282D01*
X38486Y29199D01*
X38446Y29103D01*
X38432Y29000D01*
X38446Y28897D01*
X38486Y28801D01*
X38549Y28718D01*
X38632Y28655D01*
X38728Y28615D01*
X38831Y28601D01*
X38934Y28615D01*
X39030Y28655D01*
X39113Y28718D01*
X39176Y28801D01*
X39200Y28858D01*
X39250Y28848D01*
Y26790D01*
X39200Y26780D01*
X39176Y26837D01*
X39113Y26920D01*
X39030Y26983D01*
X38934Y27023D01*
X38831Y27036D01*
X38728Y27023D01*
X38632Y26983D01*
X38549Y26920D01*
X38486Y26837D01*
X38446Y26741D01*
X38432Y26638D01*
X38446Y26535D01*
X38486Y26438D01*
X38549Y26356D01*
X38624Y26299D01*
X38619Y26267D01*
X38610Y26249D01*
X37871D01*
X37862Y26267D01*
X37858Y26299D01*
X37932Y26356D01*
X37995Y26438D01*
X38035Y26535D01*
X38049Y26638D01*
X38035Y26741D01*
X37995Y26837D01*
X37932Y26920D01*
X37849Y26983D01*
X37753Y27023D01*
X37650Y27036D01*
X37547Y27023D01*
X37451Y26983D01*
X37368Y26920D01*
X37305Y26837D01*
X37286Y26791D01*
X36443D01*
Y26982D01*
X35857D01*
Y26852D01*
X35593D01*
Y26982D01*
X35007D01*
Y26852D01*
X34499D01*
X34440Y26840D01*
X34391Y26807D01*
X33337Y25753D01*
X33200D01*
Y26623D01*
X33179Y26643D01*
Y26881D01*
X33162Y26966D01*
X33114Y27039D01*
X33042Y27087D01*
X32957Y27104D01*
X32872Y27087D01*
X32799Y27039D01*
X32751Y26966D01*
X32734Y26881D01*
Y26728D01*
X32679D01*
Y26881D01*
X32662Y26966D01*
X32614Y27039D01*
X32542Y27087D01*
X32457Y27104D01*
X32372Y27087D01*
X32299Y27039D01*
X32251Y26966D01*
X32234Y26881D01*
Y26728D01*
X32179D01*
Y26881D01*
X32162Y26966D01*
X32114Y27039D01*
X32042Y27087D01*
X31957Y27104D01*
X31872Y27087D01*
X31799Y27039D01*
X31751Y26966D01*
X31734Y26881D01*
Y26728D01*
X31679D01*
Y26881D01*
X31662Y26966D01*
X31614Y27039D01*
X31542Y27087D01*
X31457Y27104D01*
X31372Y27087D01*
X31299Y27039D01*
X31251Y26966D01*
X31234Y26881D01*
Y26728D01*
X31179D01*
Y26881D01*
X31162Y26966D01*
X31114Y27039D01*
X31110Y27041D01*
Y27557D01*
X31098Y27615D01*
X31065Y27665D01*
X30214Y28516D01*
X30164Y28549D01*
X30106Y28560D01*
X26843D01*
Y28691D01*
X26257D01*
Y28560D01*
X25888D01*
Y28735D01*
X25671D01*
X25650Y28766D01*
X25458Y28958D01*
X25409Y28991D01*
X25350Y29003D01*
X24400D01*
X24341Y28991D01*
X24292Y28958D01*
X23934Y28600D01*
X23843Y28691D01*
X22796Y28696D01*
Y28735D01*
X22104Y28735D01*
X22100Y28700D01*
X22100Y28700D01*
X22100Y28687D01*
Y28642D01*
X22083Y28639D01*
X22034Y28605D01*
X21942Y28514D01*
X21909Y28464D01*
X21897Y28405D01*
Y27100D01*
X21909Y27041D01*
X21942Y26992D01*
X22353Y26581D01*
X22403Y26548D01*
X22461Y26536D01*
X22689D01*
Y26396D01*
X23255D01*
Y26396D01*
X23295D01*
Y26396D01*
X23861D01*
Y26547D01*
X24289D01*
Y26437D01*
X24882D01*
Y26550D01*
X25218D01*
Y26437D01*
X25362D01*
Y25775D01*
Y24957D01*
X25303Y24912D01*
X25255Y24850D01*
X25225Y24777D01*
X25215Y24700D01*
X25225Y24623D01*
X25255Y24550D01*
X25303Y24488D01*
X25365Y24441D01*
X25437Y24411D01*
X25515Y24401D01*
X25592Y24411D01*
X25664Y24441D01*
X25726Y24488D01*
X25774Y24550D01*
X25804Y24623D01*
X25814Y24700D01*
X25804Y24777D01*
X25774Y24850D01*
X25726Y24912D01*
X25668Y24957D01*
Y25429D01*
X25690Y25447D01*
X29250D01*
Y24937D01*
X29223Y24908D01*
Y24598D01*
X29173D01*
Y24548D01*
X28880D01*
X28883Y24520D01*
X28913Y24448D01*
X28961Y24386D01*
X29023Y24339D01*
X29095Y24309D01*
X29162Y24300D01*
X29185Y24272D01*
X29188Y24266D01*
X29179Y24246D01*
X22993D01*
X22935Y24235D01*
X22885Y24202D01*
X22500Y23816D01*
X22054D01*
X22049Y23822D01*
X22039Y23899D01*
X22009Y23971D01*
X21962Y24033D01*
X21900Y24081D01*
X21827Y24111D01*
X21800Y24115D01*
Y23822D01*
X21750D01*
Y23772D01*
X21457D01*
Y23691D01*
X21132D01*
Y23772D01*
X20546D01*
Y23588D01*
X20839D01*
Y23488D01*
X20546D01*
Y23255D01*
X20546D01*
Y23236D01*
X20508Y23186D01*
X18874D01*
X13030Y29030D01*
X12948Y29086D01*
X12850Y29105D01*
X1000D01*
X902Y29086D01*
X820Y29030D01*
X570Y28780D01*
X514Y28698D01*
X495Y28600D01*
Y25550D01*
X514Y25452D01*
X570Y25370D01*
X970Y24970D01*
X1052Y24915D01*
X1105Y24904D01*
Y24755D01*
X1895D01*
Y25545D01*
Y26124D01*
X1899Y26150D01*
X1895Y26176D01*
Y26997D01*
X12274D01*
X18150Y21121D01*
X18200Y21088D01*
X18258Y21076D01*
X19643D01*
X19674Y21038D01*
X19673Y21033D01*
X19685Y20972D01*
X19711Y20934D01*
X19685Y20896D01*
X19673Y20836D01*
X19685Y20775D01*
X19711Y20737D01*
X19685Y20699D01*
X19673Y20639D01*
X19674Y20634D01*
X19643Y20595D01*
X17931D01*
X17872Y20583D01*
X17823Y20550D01*
X17123Y19851D01*
X17050Y19861D01*
X16995Y19853D01*
X16992Y19857D01*
X16971Y19901D01*
X17009Y19950D01*
X17039Y20023D01*
X17049Y20100D01*
X17039Y20177D01*
X17009Y20250D01*
X16962Y20312D01*
X16900Y20359D01*
X16827Y20389D01*
X16750Y20399D01*
X16673Y20389D01*
X16600Y20359D01*
X16595Y20355D01*
X16339D01*
X16242Y20336D01*
X16200Y20308D01*
X16150Y20334D01*
Y20782D01*
X15232Y21700D01*
X13782D01*
Y23546D01*
X13810D01*
Y24132D01*
X13244D01*
Y24132D01*
X13204D01*
Y24132D01*
X12637D01*
Y23546D01*
X12768D01*
Y23089D01*
X12721Y23070D01*
X12691Y23100D01*
X12298D01*
X12298Y23100D01*
X12252Y23108D01*
X12179Y23182D01*
Y23546D01*
X12207D01*
Y24132D01*
X12179D01*
Y24413D01*
X12207D01*
Y24998D01*
X11641D01*
Y24998D01*
X11601D01*
Y24998D01*
X11035D01*
Y24639D01*
X10671D01*
X10604Y24706D01*
X10615Y24662D01*
X10604Y24655D01*
Y24998D01*
X10474D01*
Y25225D01*
X10604D01*
Y25811D01*
X10038D01*
Y25811D01*
X9998D01*
Y25811D01*
X9432D01*
Y25225D01*
X9562D01*
Y24998D01*
X9432D01*
Y24858D01*
X9054D01*
Y24998D01*
X8488D01*
Y24998D01*
X8448D01*
Y24998D01*
X7882D01*
Y24902D01*
X7832Y24881D01*
X6512Y26201D01*
X6463Y26234D01*
X6404Y26245D01*
X3543D01*
X3484Y26234D01*
X3434Y26201D01*
X542Y23308D01*
X509Y23259D01*
X497Y23200D01*
Y21117D01*
X499Y21109D01*
X497Y20970D01*
X459Y20937D01*
X450Y20938D01*
X373Y20928D01*
X300Y20898D01*
X238Y20851D01*
X191Y20789D01*
X161Y20716D01*
X151Y20639D01*
X161Y20561D01*
X191Y20489D01*
X238Y20427D01*
X297Y20382D01*
Y9650D01*
X309Y9591D01*
X342Y9542D01*
X1842Y8042D01*
X1891Y8009D01*
X1950Y7997D01*
X6423D01*
X6481Y8009D01*
X6531Y8042D01*
X7584Y9095D01*
X7940D01*
X7942Y9094D01*
Y9043D01*
X7914D01*
Y8457D01*
X8480D01*
Y8457D01*
X8520D01*
Y8457D01*
X8753D01*
Y8750D01*
X8853D01*
Y8457D01*
X9037D01*
Y8750D01*
X9087D01*
Y8800D01*
X9380D01*
X9376Y8827D01*
X9349Y8894D01*
X9368Y8943D01*
X9368Y8944D01*
X9689D01*
X9787Y8963D01*
X9869Y9018D01*
X10581Y9729D01*
X10589Y9720D01*
X14564D01*
Y10944D01*
X14364D01*
Y12540D01*
X14381Y12560D01*
X14640D01*
Y12853D01*
Y13146D01*
X14555D01*
Y13440D01*
X14636D01*
Y13733D01*
Y14026D01*
X14452D01*
Y13733D01*
X14352D01*
Y14026D01*
X14352Y14026D01*
X14352D01*
Y14243D01*
X14362Y14254D01*
X16746D01*
X16750Y14250D01*
Y14683D01*
X17124D01*
X17178Y14641D01*
X17251Y14611D01*
X17258Y14610D01*
X17295Y14573D01*
Y8823D01*
X17245Y8808D01*
X17230Y8830D01*
X16783Y9277D01*
X16701Y9332D01*
X16603Y9352D01*
X11399D01*
X11393Y9356D01*
X11321Y9386D01*
X11244Y9396D01*
X11166Y9386D01*
X11094Y9356D01*
X11032Y9309D01*
X10984Y9247D01*
X10955Y9174D01*
X10944Y9097D01*
X10955Y9019D01*
X10984Y8947D01*
X11032Y8885D01*
X11094Y8838D01*
X11166Y8808D01*
X11244Y8798D01*
X11321Y8808D01*
X11393Y8838D01*
X11399Y8842D01*
X16497D01*
X16795Y8544D01*
Y8343D01*
X16357D01*
Y8314D01*
X16277D01*
Y8492D01*
X16084D01*
X16058Y8510D01*
X15961Y8529D01*
X15863Y8510D01*
X15837Y8492D01*
X15644D01*
Y8491D01*
X15175D01*
Y8492D01*
X14542D01*
Y8102D01*
X14449Y8009D01*
X14446Y8009D01*
X14110D01*
Y8109D01*
X14402D01*
Y8294D01*
X13817D01*
Y8212D01*
X13529D01*
Y8343D01*
X13287D01*
Y8059D01*
X13187D01*
Y8343D01*
X12944D01*
Y8340D01*
X12942Y8339D01*
X12894Y8321D01*
X12827Y8349D01*
X12800Y8352D01*
Y8059D01*
X12700D01*
Y8352D01*
X12673Y8349D01*
X12607Y8322D01*
X12557Y8341D01*
Y8356D01*
X12314D01*
Y8073D01*
X12264D01*
Y8023D01*
X11971D01*
Y7790D01*
X11971D01*
Y7750D01*
X11971D01*
Y7606D01*
X11664D01*
Y7827D01*
Y8528D01*
X10586D01*
X10554Y8578D01*
X10562Y8638D01*
X10551Y8715D01*
X10521Y8788D01*
X10474Y8850D01*
X10412Y8897D01*
X10340Y8927D01*
X10262Y8937D01*
X10185Y8927D01*
X10112Y8897D01*
X10050Y8850D01*
X10003Y8788D01*
X9973Y8715D01*
X9963Y8638D01*
X9973Y8560D01*
X9972Y8343D01*
X9969D01*
Y7776D01*
X9969Y7776D01*
Y7736D01*
X9969D01*
X9969Y7726D01*
Y7218D01*
X9963Y7169D01*
X9973Y7092D01*
X10003Y7019D01*
X10050Y6957D01*
X10112Y6910D01*
X10185Y6880D01*
X10212Y6876D01*
Y7169D01*
X10312D01*
Y6876D01*
X10340Y6880D01*
X10412Y6910D01*
X10474Y6957D01*
X10521Y7019D01*
X10551Y7092D01*
X10562Y7169D01*
X10605Y7219D01*
X10886D01*
Y7170D01*
X11664D01*
Y7300D01*
X11971D01*
Y7184D01*
X12557D01*
Y7300D01*
X12944D01*
Y7170D01*
X13045D01*
X13056Y7143D01*
Y6803D01*
X12096D01*
X12038Y6791D01*
X11988Y6758D01*
X11930Y6700D01*
X11560D01*
X11555Y6737D01*
X11525Y6809D01*
X11478Y6871D01*
X11416Y6919D01*
X11343Y6949D01*
X11266Y6959D01*
X11188Y6949D01*
X11116Y6919D01*
X11054Y6871D01*
X11007Y6809D01*
X10977Y6737D01*
X10972Y6700D01*
X10910D01*
X10859Y6650D01*
X10860Y6564D01*
X10825Y6528D01*
X10696D01*
X10669Y6594D01*
X10621Y6656D01*
X10559Y6704D01*
X10487Y6734D01*
X10459Y6738D01*
Y6445D01*
X10359D01*
Y6738D01*
X10332Y6734D01*
X10260Y6704D01*
X10198Y6656D01*
X10150Y6594D01*
X10148Y6590D01*
X9721D01*
X9719Y6594D01*
X9671Y6656D01*
X9609Y6704D01*
X9537Y6734D01*
X9459Y6744D01*
X9382Y6734D01*
X9310Y6704D01*
X9248Y6656D01*
X9200Y6594D01*
X9198Y6590D01*
X8922D01*
X8912Y6579D01*
X8891Y6600D01*
X7248D01*
X7023Y6375D01*
X6665Y6017D01*
Y5699D01*
X6645Y5601D01*
Y3900D01*
X6665Y3802D01*
X6720Y3720D01*
X8770Y1670D01*
X8852Y1615D01*
X8950Y1595D01*
X37377D01*
X37407Y1545D01*
X37395Y1522D01*
X37344Y1355D01*
X37327Y1181D01*
X37344Y1007D01*
X37395Y840D01*
X37477Y686D01*
X37588Y551D01*
X37724Y440D01*
X37878Y357D01*
X38045Y307D01*
X38219Y289D01*
X38393Y307D01*
X38560Y357D01*
X38714Y440D01*
X38849Y551D01*
X38960Y686D01*
X39043Y840D01*
X39093Y1007D01*
X39111Y1181D01*
X39093Y1355D01*
X39043Y1522D01*
X38960Y1676D01*
X38849Y1812D01*
X38714Y1923D01*
X38625Y1971D01*
X38622Y2020D01*
X38649Y2038D01*
X39204Y2593D01*
X39250Y2574D01*
Y100D01*
X39200Y50D01*
X17250Y100D01*
X50D01*
Y32100D01*
X100Y32200D01*
X150Y32250D01*
X39250D01*
Y29152D01*
D02*
G37*
G36*
X30804Y27493D02*
Y27041D01*
X30799Y27039D01*
X30751Y26966D01*
X30734Y26881D01*
Y26728D01*
X30679D01*
Y26881D01*
X30662Y26966D01*
X30614Y27039D01*
X30542Y27087D01*
X30457Y27104D01*
X30372Y27087D01*
X30299Y27039D01*
X30251Y26966D01*
X30234Y26881D01*
Y26728D01*
X30179D01*
Y26881D01*
X30162Y26966D01*
X30114Y27039D01*
X30042Y27087D01*
X29957Y27104D01*
X29872Y27087D01*
X29799Y27039D01*
X29751Y26966D01*
X29734Y26881D01*
Y26728D01*
X29679D01*
Y26881D01*
X29662Y26966D01*
X29614Y27039D01*
X29542Y27087D01*
X29457Y27104D01*
X29372Y27087D01*
X29299Y27039D01*
X29251Y26966D01*
X29238Y26900D01*
X28700D01*
Y26982D01*
X28114D01*
Y26954D01*
X27850D01*
Y26982D01*
X27264D01*
Y26954D01*
X27185D01*
X27177Y26959D01*
X27105Y26989D01*
X27028Y26999D01*
X26950Y26989D01*
X26878Y26959D01*
X26816Y26912D01*
X26768Y26850D01*
X26738Y26777D01*
X26728Y26700D01*
X26738Y26623D01*
X26768Y26550D01*
X26816Y26488D01*
X26878Y26441D01*
X26950Y26411D01*
X27028Y26401D01*
X27105Y26411D01*
X27177Y26441D01*
X27181Y26444D01*
X27236D01*
X27264Y26416D01*
Y26376D01*
X27264Y26366D01*
Y26143D01*
X27557D01*
Y26093D01*
X27607D01*
Y25809D01*
X27850D01*
X27850Y25809D01*
Y25809D01*
X27900Y25820D01*
X27923Y25811D01*
X27982Y25803D01*
X27979Y25753D01*
X25753D01*
X25668Y25839D01*
Y26437D01*
X25811D01*
Y26963D01*
X25420D01*
X25413Y27013D01*
X25996Y27596D01*
X26257D01*
Y27518D01*
X26843D01*
Y28084D01*
X26843D01*
Y28124D01*
X26843D01*
Y28255D01*
X30043D01*
X30804Y27493D01*
D02*
G37*
G36*
X39250Y26486D02*
Y9331D01*
X39200Y9310D01*
X39124Y9387D01*
X39041Y9442D01*
X38944Y9461D01*
X38843D01*
Y9489D01*
X38805D01*
Y9700D01*
X38786Y9798D01*
X38730Y9880D01*
X37953Y10657D01*
X37974Y10707D01*
X38150D01*
Y11000D01*
Y11293D01*
X37927D01*
X37917Y11293D01*
X37877D01*
X37849Y11335D01*
Y12206D01*
X37829Y12304D01*
X37774Y12387D01*
X37548Y12612D01*
X37553Y12650D01*
X37540Y12754D01*
X37499Y12852D01*
X37435Y12935D01*
X37352Y12999D01*
X37254Y13040D01*
X37150Y13053D01*
X37046Y13040D01*
X36948Y12999D01*
X36865Y12935D01*
X36801Y12852D01*
X36760Y12754D01*
X36751Y12681D01*
X36698Y12663D01*
X34305Y15056D01*
Y18707D01*
X34286Y18804D01*
X34230Y18887D01*
X31897Y21220D01*
X31896Y21227D01*
X31866Y21300D01*
X31818Y21362D01*
X31756Y21409D01*
X31684Y21439D01*
X31607Y21449D01*
X31529Y21439D01*
X31457Y21409D01*
X31395Y21362D01*
X31347Y21300D01*
X31317Y21227D01*
X31307Y21150D01*
X31317Y21073D01*
X31347Y21000D01*
X31395Y20938D01*
X31457Y20891D01*
X31529Y20861D01*
X31536Y20860D01*
X33795Y18601D01*
Y14950D01*
X33814Y14852D01*
X33870Y14770D01*
X37301Y11339D01*
X37311Y11293D01*
X37311D01*
Y10707D01*
X37339D01*
Y10656D01*
X37358Y10559D01*
X37413Y10476D01*
X38295Y9594D01*
Y9489D01*
X38257D01*
Y9461D01*
X37943D01*
Y9489D01*
X37357D01*
Y9461D01*
X37136D01*
X37014Y9583D01*
Y10052D01*
X35948D01*
Y9662D01*
X34675D01*
X34652Y9639D01*
X33586D01*
X33530Y9583D01*
X33287D01*
X33259Y9650D01*
X33212Y9712D01*
X33150Y9759D01*
X33077Y9789D01*
X33000Y9799D01*
X32923Y9789D01*
X32850Y9759D01*
X32788Y9712D01*
X32741Y9650D01*
X32713Y9583D01*
X32337D01*
X32309Y9650D01*
X32262Y9712D01*
X32200Y9759D01*
X32127Y9789D01*
X32050Y9799D01*
X31973Y9789D01*
X31900Y9759D01*
X31838Y9712D01*
X31791Y9650D01*
X31763Y9583D01*
X31309D01*
X31290Y9629D01*
X31780Y10120D01*
X32364Y10704D01*
X33111Y10704D01*
X33667D01*
X33677Y10704D01*
X33717D01*
X33727Y10704D01*
X34283D01*
Y10844D01*
X35071D01*
Y10607D01*
X35722D01*
X35728Y10607D01*
X35772D01*
X35778Y10607D01*
X36050D01*
Y10997D01*
Y11386D01*
X35778D01*
X35772Y11386D01*
X35728D01*
X35722Y11386D01*
X35071D01*
Y11150D01*
X34283D01*
Y11290D01*
X33727D01*
X33717Y11290D01*
X33677D01*
X33667Y11290D01*
X33102D01*
X33049Y11290D01*
X33038Y11300D01*
Y11300D01*
X32995Y11316D01*
X32802Y11509D01*
Y13762D01*
X32830Y13790D01*
X32870D01*
X32880Y13790D01*
X33436D01*
Y14376D01*
X33306D01*
Y14939D01*
X33486D01*
Y15525D01*
X32930D01*
X32920Y15525D01*
X32880D01*
X32870Y15525D01*
X32314D01*
Y15165D01*
X30992Y13844D01*
X30976Y13820D01*
X30950Y13809D01*
X30888Y13762D01*
X30841Y13700D01*
X30811Y13627D01*
X30801Y13550D01*
X30811Y13473D01*
X30841Y13400D01*
X30888Y13338D01*
X30950Y13291D01*
X31023Y13261D01*
X31100Y13251D01*
X31177Y13261D01*
X31250Y13291D01*
X31312Y13338D01*
X31359Y13400D01*
X31389Y13473D01*
X31399Y13550D01*
X31389Y13627D01*
X31359Y13700D01*
X31325Y13744D01*
X32520Y14939D01*
X32870D01*
X32880Y14939D01*
X32920D01*
X32930Y14939D01*
X33000D01*
Y14376D01*
X32880D01*
X32870Y14376D01*
X32830D01*
X32820Y14376D01*
X32264D01*
Y13790D01*
X32292D01*
Y11821D01*
X32264Y11809D01*
X32264D01*
X32202Y11748D01*
X31835D01*
X31780Y11830D01*
X30384Y13227D01*
Y13932D01*
X30428Y13954D01*
X30446Y13941D01*
X30518Y13911D01*
X30595Y13901D01*
X30673Y13911D01*
X30745Y13941D01*
X30807Y13988D01*
X30855Y14050D01*
X30884Y14123D01*
X30895Y14200D01*
X30884Y14277D01*
X30855Y14350D01*
X30823Y14391D01*
X32520Y16088D01*
X32870D01*
X32880Y16088D01*
X32920D01*
X32930Y16088D01*
X33486D01*
Y16674D01*
X33356D01*
Y17237D01*
X33486D01*
Y17823D01*
X32930D01*
X32920Y17823D01*
X32880D01*
X32870Y17823D01*
X32314D01*
Y17785D01*
X30384D01*
Y21202D01*
X30448Y21214D01*
X30530Y21270D01*
X31080Y21820D01*
X31135Y21902D01*
X31155Y22000D01*
Y22346D01*
X32154Y23345D01*
X34095D01*
X34100Y23341D01*
X34173Y23311D01*
X34250Y23301D01*
X34327Y23311D01*
X34400Y23341D01*
X34462Y23388D01*
X34509Y23450D01*
X34539Y23523D01*
X34549Y23600D01*
X34539Y23677D01*
X34513Y23741D01*
X34533Y23791D01*
X35665D01*
X35684Y23745D01*
X35270Y23330D01*
X35215Y23248D01*
X35195Y23150D01*
Y23028D01*
X35061D01*
Y22372D01*
X35061D01*
Y22328D01*
X35061D01*
Y22254D01*
X34901D01*
X34803Y22235D01*
X34721Y22179D01*
X34589Y22048D01*
X34534Y21965D01*
X34514Y21868D01*
Y20431D01*
X34534Y20333D01*
X34589Y20250D01*
X34690Y20150D01*
X34772Y20095D01*
X34870Y20075D01*
X35157D01*
Y20047D01*
X35743D01*
Y20075D01*
X36307D01*
Y20047D01*
X36893D01*
Y20603D01*
X36893Y20613D01*
Y20653D01*
X36935Y20682D01*
X37410D01*
X37419Y20671D01*
X37419Y20671D01*
X37400Y20647D01*
Y20330D01*
Y20037D01*
X37427Y20041D01*
X37431Y20042D01*
X37457Y20047D01*
X37457Y20047D01*
X37700D01*
Y20330D01*
X37750D01*
Y20380D01*
X38043D01*
Y20603D01*
X38043Y20613D01*
Y20653D01*
X38085Y20682D01*
X38295D01*
Y20156D01*
X37188Y19048D01*
X37150Y19053D01*
X37046Y19040D01*
X36948Y18999D01*
X36865Y18935D01*
X36801Y18852D01*
X36760Y18754D01*
X36747Y18650D01*
X36760Y18546D01*
X36801Y18448D01*
X36865Y18365D01*
X36948Y18301D01*
X37046Y18260D01*
X37150Y18247D01*
X37254Y18260D01*
X37352Y18301D01*
X37435Y18365D01*
X37499Y18448D01*
X37540Y18546D01*
X37553Y18650D01*
X37548Y18688D01*
X38730Y19870D01*
X38786Y19952D01*
X38805Y20050D01*
Y20800D01*
X38786Y20898D01*
X38730Y20980D01*
X38594Y21117D01*
X38511Y21172D01*
X38414Y21191D01*
X38043D01*
Y21220D01*
X37457D01*
Y21191D01*
X36893D01*
Y21220D01*
X36307D01*
Y20663D01*
X36307Y20653D01*
Y20613D01*
X36265Y20585D01*
X35850D01*
Y23190D01*
X36094Y23433D01*
X37051D01*
X37091Y23416D01*
X37103Y23386D01*
X37113Y23335D01*
X37157Y23270D01*
X37223Y23226D01*
X37300Y23210D01*
X37378Y23226D01*
X37443Y23270D01*
X37487Y23335D01*
X37503Y23413D01*
X37493Y23461D01*
X37489Y23509D01*
X37489Y23509D01*
X37489Y23509D01*
Y23765D01*
Y24021D01*
Y24277D01*
Y24533D01*
Y24662D01*
X37084D01*
Y24762D01*
X37489D01*
Y24891D01*
X37489Y24891D01*
X37493Y24939D01*
X37503Y24987D01*
X37487Y25065D01*
X37443Y25130D01*
X37378Y25174D01*
X37300Y25190D01*
X37223Y25174D01*
X37157Y25130D01*
X37113Y25065D01*
X37098Y24987D01*
X37107Y24941D01*
X37071Y24891D01*
X36721D01*
X36696Y24924D01*
X36634Y24971D01*
X36561Y25001D01*
X36534Y25005D01*
Y24712D01*
X36484D01*
Y24662D01*
X36191D01*
X36195Y24634D01*
X36225Y24562D01*
X36272Y24500D01*
X36334Y24453D01*
X36388Y24430D01*
X36378Y24380D01*
X34356D01*
X34346Y24430D01*
X34400Y24453D01*
X34405Y24457D01*
X34769D01*
X34867Y24476D01*
X34950Y24532D01*
X36227Y25809D01*
X36443D01*
Y26376D01*
X36443D01*
Y26416D01*
X36443D01*
Y26485D01*
X37286D01*
X37305Y26438D01*
X37368Y26356D01*
X37451Y26293D01*
X37547Y26253D01*
X37650Y26239D01*
X37655Y26240D01*
X37693Y26207D01*
Y25340D01*
X37752D01*
Y25055D01*
X38542D01*
Y25340D01*
X38641D01*
Y26235D01*
X38681Y26272D01*
X38728Y26253D01*
X38831Y26239D01*
X38934Y26253D01*
X39030Y26293D01*
X39113Y26356D01*
X39176Y26438D01*
X39200Y26495D01*
X39250Y26486D01*
D02*
G37*
G36*
X29250Y26330D02*
Y25753D01*
X28043D01*
X28038Y25803D01*
X28066Y25809D01*
X28114Y25809D01*
X28114Y25809D01*
X28114Y25809D01*
X28357D01*
Y26093D01*
X28407D01*
Y26143D01*
X28700D01*
X28700Y26376D01*
X28744Y26390D01*
X29238D01*
X29250Y26330D01*
D02*
G37*
G36*
X5110Y25297D02*
X5200D01*
Y24769D01*
X5110D01*
Y24629D01*
X4885D01*
Y24769D01*
X4319D01*
Y24769D01*
X4279D01*
Y24769D01*
X3713D01*
Y24629D01*
X3578D01*
X3520Y24618D01*
X3470Y24584D01*
X3192Y24306D01*
X3159Y24256D01*
X3147Y24198D01*
Y22769D01*
X3101Y22749D01*
X3100Y22750D01*
X2635D01*
X2598Y22800D01*
X2605Y22850D01*
X2595Y22927D01*
X2565Y23000D01*
X2517Y23062D01*
X2455Y23109D01*
X2383Y23139D01*
X2306Y23149D01*
X2228Y23139D01*
X2156Y23109D01*
X2094Y23062D01*
X2046Y23000D01*
X2016Y22927D01*
X2006Y22850D01*
X2013Y22800D01*
X1976Y22750D01*
X1005D01*
X1005Y22750D01*
X1003Y22796D01*
Y23037D01*
X3403Y25437D01*
X3713D01*
Y25297D01*
X4279D01*
Y25297D01*
X4319D01*
Y25297D01*
X4885D01*
Y25437D01*
X5110D01*
Y25297D01*
D02*
G37*
G36*
X34230Y26149D02*
Y25031D01*
X34222Y25008D01*
X34173Y25001D01*
X34100Y24971D01*
X34038Y24924D01*
X33991Y24862D01*
X33961Y24789D01*
X33951Y24712D01*
X33961Y24634D01*
X33991Y24562D01*
X34038Y24500D01*
X34100Y24453D01*
X34154Y24430D01*
X34144Y24380D01*
X33563D01*
X33453Y24491D01*
Y25003D01*
X33441Y25062D01*
X33408Y25111D01*
X33309Y25210D01*
X33260Y25243D01*
X33201Y25255D01*
X33200D01*
Y25447D01*
X33400D01*
X33459Y25459D01*
X33508Y25492D01*
X34184Y26168D01*
X34230Y26149D01*
D02*
G37*
G36*
X5110Y24183D02*
X5200D01*
Y23655D01*
X5110D01*
Y23515D01*
X4885D01*
Y23655D01*
X4319D01*
Y23655D01*
X4279D01*
Y23655D01*
X3778D01*
Y24183D01*
X4279D01*
Y24183D01*
X4319D01*
Y24183D01*
X4885D01*
Y24323D01*
X5110D01*
Y24183D01*
D02*
G37*
G36*
X5110Y23070D02*
X5200D01*
Y22542D01*
X5110D01*
Y22402D01*
X4885D01*
Y22542D01*
X4319D01*
Y22542D01*
X4279D01*
Y22542D01*
X3778D01*
Y22928D01*
X3919Y23070D01*
X4279D01*
Y23070D01*
X4319D01*
Y23070D01*
X4885D01*
Y23210D01*
X5110D01*
Y23070D01*
D02*
G37*
G36*
X7447Y23837D02*
Y23085D01*
X7401Y23065D01*
X6408Y24058D01*
X6361Y24090D01*
Y24187D01*
X6433Y24217D01*
X6495Y24265D01*
X6543Y24327D01*
X6573Y24399D01*
X6583Y24476D01*
X6573Y24554D01*
X6543Y24626D01*
X6495Y24688D01*
X6433Y24736D01*
X6361Y24765D01*
Y24858D01*
X6407Y24877D01*
X7447Y23837D01*
D02*
G37*
G36*
X29887Y23691D02*
X29855Y23665D01*
X29807Y23603D01*
X29777Y23531D01*
X29773Y23504D01*
X30066D01*
Y23454D01*
X30116D01*
Y23161D01*
X30300D01*
Y23454D01*
X30400D01*
Y23161D01*
X30633D01*
Y23161D01*
X30674D01*
Y23161D01*
X31042D01*
Y22980D01*
X31025Y22937D01*
X30720Y22631D01*
X30665Y22550D01*
X30071D01*
X30003Y22559D01*
X29935Y22550D01*
X28924D01*
X28932Y21727D01*
X28842Y21637D01*
X28809Y21587D01*
X28797Y21529D01*
X28787Y21518D01*
X27895D01*
X27868Y21568D01*
X27875Y21578D01*
X27887Y21639D01*
Y22237D01*
X27875Y22298D01*
X27841Y22349D01*
X27790Y22383D01*
X27729Y22395D01*
X27669Y22383D01*
X27631Y22358D01*
X27593Y22383D01*
X27532Y22395D01*
X27472Y22383D01*
X27434Y22358D01*
X27396Y22383D01*
X27335Y22395D01*
X27275Y22383D01*
X27237Y22358D01*
X27199Y22383D01*
X27139Y22395D01*
X27078Y22383D01*
X27040Y22358D01*
X27002Y22383D01*
X26942Y22395D01*
X26881Y22383D01*
X26843Y22358D01*
X26805Y22383D01*
X26745Y22395D01*
X26684Y22383D01*
X26646Y22358D01*
X26609Y22383D01*
X26548Y22395D01*
X26488Y22383D01*
X26450Y22358D01*
X26412Y22383D01*
X26351Y22395D01*
X26291Y22383D01*
X26253Y22358D01*
X26215Y22383D01*
X26154Y22395D01*
X26094Y22383D01*
X26056Y22358D01*
X26018Y22383D01*
X25957Y22395D01*
X25897Y22383D01*
X25859Y22358D01*
X25821Y22383D01*
X25761Y22395D01*
X25742Y22411D01*
Y22648D01*
X25893D01*
Y23214D01*
X25931Y23244D01*
X25962Y23248D01*
X26034Y23278D01*
X26096Y23326D01*
X26143Y23388D01*
X26173Y23460D01*
X26177Y23488D01*
X25884D01*
Y23588D01*
X26177D01*
X26173Y23615D01*
X26143Y23687D01*
X26137Y23696D01*
X26159Y23741D01*
X29871D01*
X29887Y23691D01*
D02*
G37*
G36*
X25307Y23255D02*
X25307Y23214D01*
X25307D01*
X25307Y23214D01*
Y22648D01*
X25385D01*
Y22411D01*
X25367Y22395D01*
X25306Y22383D01*
X25269Y22358D01*
X25231Y22383D01*
X25170Y22395D01*
X25110Y22383D01*
X25072Y22358D01*
X25034Y22383D01*
X24973Y22395D01*
X24913Y22383D01*
X24875Y22358D01*
X24837Y22383D01*
X24776Y22395D01*
X24716Y22383D01*
X24678Y22358D01*
X24640Y22383D01*
X24580Y22395D01*
X24519Y22383D01*
X24481Y22358D01*
X24443Y22383D01*
X24383Y22395D01*
X24322Y22383D01*
X24284Y22358D01*
X24246Y22383D01*
X24186Y22395D01*
X24125Y22383D01*
X24087Y22358D01*
X24049Y22383D01*
X23989Y22395D01*
X23928Y22383D01*
X23891Y22358D01*
X23853Y22383D01*
X23792Y22395D01*
X23732Y22383D01*
X23694Y22358D01*
X23656Y22383D01*
X23595Y22395D01*
X23577Y22411D01*
Y22564D01*
X23693D01*
Y23130D01*
X23693D01*
Y23170D01*
X23693D01*
Y23301D01*
X25297D01*
X25307Y23255D01*
D02*
G37*
G36*
X7247Y22787D02*
Y22085D01*
X7201Y22065D01*
X6408Y22858D01*
X6361Y22890D01*
Y23073D01*
X6433Y23103D01*
X6495Y23151D01*
X6543Y23213D01*
X6573Y23285D01*
X6583Y23362D01*
X6580Y23383D01*
X6627Y23406D01*
X7247Y22787D01*
D02*
G37*
G36*
X5110Y21956D02*
X5200D01*
Y21428D01*
X5110D01*
Y21288D01*
X4885D01*
Y21428D01*
X4319D01*
Y21428D01*
X4279D01*
Y21428D01*
X3878D01*
X3846Y21478D01*
X3853Y21515D01*
Y21801D01*
X4008Y21956D01*
X4279D01*
Y21956D01*
X4319D01*
Y21956D01*
X4885D01*
Y22096D01*
X5110D01*
Y21956D01*
D02*
G37*
G36*
X11646Y22950D02*
X11660Y22950D01*
X11717Y22936D01*
X11744Y22896D01*
X12298Y22341D01*
Y21700D01*
X11600D01*
X11550Y21750D01*
X11517Y21717D01*
X11471Y21736D01*
Y22950D01*
X11646D01*
X11646Y22950D01*
D02*
G37*
G36*
X18588Y22751D02*
X18671Y22696D01*
X18769Y22676D01*
X20546D01*
Y22648D01*
X20661D01*
Y21938D01*
Y21518D01*
X20525D01*
X20525Y21408D01*
X20475Y21379D01*
X20430Y21388D01*
X19832D01*
X19805Y21382D01*
X18322D01*
X12446Y27258D01*
X12396Y27291D01*
X12338Y27303D01*
X2082D01*
X2043Y27329D01*
Y27847D01*
X12475D01*
X18530Y21792D01*
X18580Y21759D01*
X18638Y21747D01*
X19643D01*
X19688Y21688D01*
X19750Y21641D01*
X19823Y21611D01*
X19900Y21601D01*
X19977Y21611D01*
X20050Y21641D01*
X20112Y21688D01*
X20159Y21750D01*
X20189Y21823D01*
X20199Y21900D01*
X20189Y21977D01*
X20159Y22050D01*
X20112Y22112D01*
X20050Y22159D01*
X19977Y22189D01*
X19900Y22199D01*
X19823Y22189D01*
X19750Y22159D01*
X19688Y22112D01*
X19643Y22053D01*
X18701D01*
X12646Y28108D01*
X12597Y28141D01*
X12538Y28153D01*
X1980D01*
X1947Y28147D01*
X1944Y28147D01*
X1904Y28170D01*
X1901Y28174D01*
X1895Y28183D01*
Y28595D01*
X12744D01*
X18588Y22751D01*
D02*
G37*
G36*
X11165Y21385D02*
X11123Y21345D01*
X11096Y21347D01*
X11059Y21389D01*
X11068Y21450D01*
X11057Y21527D01*
X11027Y21600D01*
X10980Y21662D01*
X10918Y21709D01*
X10846Y21739D01*
X10768Y21749D01*
X10691Y21739D01*
X10618Y21709D01*
X10556Y21662D01*
X10509Y21600D01*
X10479Y21527D01*
X10473Y21480D01*
X10386Y21393D01*
X10170D01*
X10170Y21393D01*
X10130D01*
Y21393D01*
X10120Y21393D01*
X9564D01*
X9553Y21438D01*
Y22037D01*
X10880Y23364D01*
X10913Y23413D01*
X11165D01*
Y21385D01*
D02*
G37*
G36*
X7012Y21821D02*
Y21199D01*
X6966Y21179D01*
X6388Y21758D01*
X6361Y21776D01*
Y21959D01*
X6433Y21989D01*
X6495Y22037D01*
X6543Y22099D01*
X6573Y22171D01*
X6575Y22188D01*
X6628Y22206D01*
X7012Y21821D01*
D02*
G37*
G36*
X5110Y20842D02*
X5200D01*
Y20314D01*
X5110D01*
Y20174D01*
X4885D01*
Y20314D01*
X4319D01*
Y20314D01*
X4279D01*
Y20314D01*
X3778D01*
Y20842D01*
X4279D01*
Y20842D01*
X4319D01*
Y20842D01*
X4885D01*
Y20982D01*
X5110D01*
Y20842D01*
D02*
G37*
G36*
X5110Y19728D02*
X5200D01*
Y19200D01*
X5110D01*
Y19060D01*
X4885D01*
Y19200D01*
X4319D01*
Y19200D01*
X4279D01*
Y19200D01*
X3895D01*
X3875Y19246D01*
X4104Y19475D01*
X4137Y19525D01*
X4149Y19583D01*
Y19728D01*
X4279D01*
Y19728D01*
X4319D01*
Y19728D01*
X4885D01*
Y19868D01*
X5110D01*
Y19728D01*
D02*
G37*
G36*
X19674Y20250D02*
X19673Y20245D01*
X19685Y20185D01*
X19711Y20147D01*
X19685Y20109D01*
X19673Y20048D01*
X19685Y19988D01*
X19711Y19950D01*
X19685Y19912D01*
X19673Y19851D01*
X19685Y19791D01*
X19711Y19753D01*
X19685Y19715D01*
X19673Y19655D01*
X19685Y19594D01*
X19711Y19556D01*
X19685Y19518D01*
X19673Y19458D01*
X19685Y19397D01*
X19711Y19359D01*
X19685Y19321D01*
X19673Y19261D01*
X19685Y19200D01*
X19711Y19162D01*
X19685Y19125D01*
X19673Y19064D01*
X19658Y19046D01*
X19186D01*
Y19160D01*
X18630D01*
X18620Y19160D01*
X18580D01*
X18570Y19160D01*
X18347D01*
Y18867D01*
Y18574D01*
X18570D01*
X18580Y18574D01*
X18620D01*
X18630Y18574D01*
X19186D01*
Y18689D01*
X19658D01*
X19673Y18670D01*
X19685Y18610D01*
X19711Y18572D01*
X19685Y18534D01*
X19673Y18473D01*
X19685Y18413D01*
X19711Y18375D01*
X19685Y18337D01*
X19673Y18277D01*
X19685Y18216D01*
X19711Y18178D01*
X19685Y18140D01*
X19673Y18080D01*
X19685Y18019D01*
X19711Y17981D01*
X19685Y17943D01*
X19673Y17883D01*
X19685Y17822D01*
X19711Y17785D01*
X19685Y17747D01*
X19673Y17686D01*
X19685Y17626D01*
X19711Y17588D01*
X19685Y17550D01*
X19673Y17489D01*
X19685Y17429D01*
X19711Y17391D01*
X19685Y17353D01*
X19673Y17292D01*
X19685Y17232D01*
X19711Y17194D01*
X19685Y17156D01*
X19673Y17096D01*
X19658Y17077D01*
X19212D01*
X19211Y17079D01*
X19186Y17096D01*
Y17192D01*
X19186Y17192D01*
X19186D01*
X19201Y17237D01*
X19209Y17241D01*
X19271Y17288D01*
X19319Y17350D01*
X19349Y17423D01*
X19359Y17500D01*
X19349Y17577D01*
X19319Y17650D01*
X19271Y17712D01*
X19209Y17759D01*
X19137Y17789D01*
X19059Y17799D01*
X18982Y17789D01*
X18910Y17759D01*
X18848Y17712D01*
X18803Y17653D01*
X18692D01*
X17686Y18658D01*
X17637Y18691D01*
X17542Y18786D01*
Y19017D01*
X16186Y19015D01*
X16150Y19065D01*
Y19550D01*
X16445Y19845D01*
X16595D01*
X16600Y19841D01*
X16673Y19811D01*
X16750Y19801D01*
X16805Y19808D01*
X16808Y19805D01*
X16829Y19761D01*
X16791Y19711D01*
X16761Y19639D01*
X16751Y19561D01*
X16761Y19484D01*
X16791Y19412D01*
X16838Y19350D01*
X16900Y19302D01*
X16973Y19272D01*
X17050Y19262D01*
X17127Y19272D01*
X17200Y19302D01*
X17262Y19350D01*
X17309Y19412D01*
X17339Y19484D01*
X17349Y19561D01*
X17340Y19635D01*
X17994Y20289D01*
X19643D01*
X19674Y20250D01*
D02*
G37*
G36*
X13347Y20193D02*
X14207Y19332D01*
Y19117D01*
X14245D01*
Y18950D01*
X14246Y18948D01*
X14148Y18850D01*
X12992D01*
Y18952D01*
X12880Y19064D01*
Y19509D01*
X12890Y19558D01*
Y19988D01*
X12948Y20033D01*
X12996Y20095D01*
X13026Y20168D01*
X13036Y20242D01*
X13047Y20252D01*
X13082Y20276D01*
X13291D01*
X13347Y20193D01*
D02*
G37*
G36*
X7683Y24597D02*
X7733Y24564D01*
X7791Y24553D01*
X7882D01*
Y24413D01*
X8448D01*
Y24413D01*
X8488D01*
Y24413D01*
X9054D01*
Y24553D01*
X9432D01*
Y24182D01*
X9432Y24132D01*
X9432Y24132D01*
X9432Y24132D01*
Y23546D01*
X9562D01*
Y23339D01*
X8892Y22669D01*
X8859Y22619D01*
X8847Y22561D01*
Y20708D01*
X8859Y20649D01*
X8892Y20600D01*
X9498Y19993D01*
X9548Y19960D01*
X9606Y19949D01*
X9641D01*
Y19064D01*
X10590D01*
Y18887D01*
X10556Y18862D01*
X10514Y18807D01*
X9304D01*
X9248Y18818D01*
X8943D01*
X8895Y18828D01*
X8511D01*
X8161Y19177D01*
X8158Y19182D01*
X7924Y19416D01*
X7919Y19419D01*
X7753Y19585D01*
Y23900D01*
X7741Y23959D01*
X7708Y24008D01*
X6508Y25208D01*
X6459Y25241D01*
X6400Y25253D01*
X6361D01*
Y25301D01*
X6433Y25331D01*
X6495Y25378D01*
X6543Y25440D01*
X6573Y25513D01*
X6583Y25590D01*
X6577Y25633D01*
X6624Y25656D01*
X7683Y24597D01*
D02*
G37*
G36*
X5110Y18614D02*
X5200D01*
Y18086D01*
X5110D01*
Y17916D01*
X4885D01*
Y18086D01*
X4319D01*
Y18086D01*
X4279D01*
Y18086D01*
X3982D01*
X3963Y18133D01*
X4104Y18274D01*
X4137Y18323D01*
X4149Y18382D01*
Y18614D01*
X4279D01*
Y18614D01*
X4319D01*
Y18614D01*
X4885D01*
Y18754D01*
X5110D01*
Y18614D01*
D02*
G37*
G36*
X14686Y18320D02*
Y17841D01*
X14116D01*
Y18286D01*
X14152Y18321D01*
X14686Y18320D01*
D02*
G37*
G36*
X5110Y17501D02*
X5200D01*
Y16973D01*
X5110D01*
Y16833D01*
X4885D01*
Y16973D01*
X4319D01*
Y16973D01*
X4279D01*
Y16973D01*
X3778D01*
Y17454D01*
X3825Y17501D01*
X4279D01*
Y17501D01*
X4319D01*
Y17501D01*
X4885D01*
Y17610D01*
X5110D01*
Y17501D01*
D02*
G37*
G36*
X32314Y17237D02*
X32870D01*
X32880Y17237D01*
X32920D01*
X32930Y17237D01*
X33050D01*
Y16674D01*
X32930D01*
X32920Y16674D01*
X32880D01*
X32870Y16674D01*
X32314D01*
Y16314D01*
X30487Y14488D01*
X30477Y14472D01*
X30446Y14459D01*
X30428Y14446D01*
X30384Y14468D01*
Y17275D01*
X32314D01*
Y17237D01*
D02*
G37*
G36*
X5110Y16387D02*
X5200D01*
Y15859D01*
X5110D01*
Y15719D01*
X4885D01*
Y15859D01*
X4319D01*
Y15859D01*
X4279D01*
Y15859D01*
X3778D01*
Y16387D01*
X4279D01*
Y16387D01*
X4319D01*
Y16387D01*
X4885D01*
Y16527D01*
X5110D01*
Y16387D01*
D02*
G37*
G36*
X5110Y15273D02*
X5200D01*
Y14745D01*
X5110D01*
Y14605D01*
X4885D01*
Y14745D01*
X4319D01*
Y14745D01*
X4279D01*
Y14745D01*
X3778D01*
Y15273D01*
X4279D01*
Y15273D01*
X4319D01*
Y15273D01*
X4885D01*
Y15413D01*
X5110D01*
Y15273D01*
D02*
G37*
G36*
X16061Y15357D02*
X16079D01*
X16104Y15307D01*
X16084Y15281D01*
X16054Y15209D01*
X16051Y15182D01*
X16344D01*
Y15132D01*
X16394D01*
Y14839D01*
X16421Y14842D01*
X16493Y14872D01*
X16550Y14916D01*
X16600Y14905D01*
Y14502D01*
X16606Y14496D01*
X16586Y14450D01*
X12915D01*
Y14759D01*
X13044Y14888D01*
X13044Y14888D01*
X13083Y14946D01*
X13096Y15015D01*
Y15281D01*
X13318D01*
X13359Y15260D01*
X13364Y15250D01*
X13411Y15188D01*
X13473Y15141D01*
X13545Y15111D01*
X13573Y15107D01*
Y15400D01*
X13623D01*
Y15450D01*
X13916D01*
X13912Y15477D01*
X13898Y15510D01*
X13932Y15560D01*
X16061D01*
Y15357D01*
D02*
G37*
G36*
X18347Y15297D02*
X18580D01*
Y15297D01*
X18620D01*
Y15297D01*
X19186D01*
Y15298D01*
X19233Y15338D01*
X19269Y15334D01*
X19288Y15309D01*
X19350Y15261D01*
X19423Y15232D01*
X19500Y15221D01*
X19577Y15232D01*
X19622Y15250D01*
X19676Y15231D01*
X19689Y15193D01*
X19685Y15188D01*
X19673Y15127D01*
X19685Y15066D01*
X19711Y15029D01*
X19685Y14991D01*
X19673Y14930D01*
X19685Y14870D01*
X19711Y14832D01*
X19685Y14794D01*
X19673Y14733D01*
X19674Y14728D01*
X19643Y14689D01*
X19183D01*
Y14829D01*
X18617D01*
Y14829D01*
X18577D01*
Y14829D01*
X18014D01*
Y15297D01*
X18247D01*
Y15590D01*
X18347D01*
Y15297D01*
D02*
G37*
G36*
X9380Y15281D02*
X9641D01*
Y14882D01*
X9631Y14833D01*
Y14356D01*
X8853D01*
X8837Y14372D01*
X7747D01*
Y15143D01*
X8170Y15566D01*
X8898D01*
X8946Y15576D01*
X9380D01*
Y15281D01*
D02*
G37*
G36*
X5110Y14159D02*
X5200D01*
Y13631D01*
X5110D01*
Y13491D01*
X4885D01*
Y13631D01*
X4319D01*
Y13631D01*
X4279D01*
Y13631D01*
X3778D01*
Y14159D01*
X4279D01*
Y14159D01*
X4319D01*
Y14159D01*
X4885D01*
Y14299D01*
X5110D01*
Y14159D01*
D02*
G37*
G36*
X28436Y13447D02*
X28797Y13087D01*
Y11480D01*
X28657D01*
Y10979D01*
X28611Y10960D01*
X28595Y10976D01*
X27941D01*
X28639Y10278D01*
X28634Y10253D01*
X28579Y10237D01*
X27292Y11525D01*
Y12807D01*
X27402D01*
X27435Y12769D01*
X27430Y12729D01*
X27440Y12652D01*
X27470Y12579D01*
X27517Y12517D01*
X27579Y12470D01*
X27652Y12440D01*
X27729Y12430D01*
X27807Y12440D01*
X27879Y12470D01*
X27941Y12517D01*
X27988Y12579D01*
X28018Y12652D01*
X28029Y12729D01*
X28018Y12807D01*
X27988Y12879D01*
X27941Y12941D01*
X27882Y12986D01*
Y13306D01*
X27887Y13332D01*
Y13448D01*
X28350D01*
X28350Y13448D01*
X28373Y13448D01*
X28397Y13473D01*
X28436Y13447D01*
D02*
G37*
G36*
X11414Y13637D02*
X11447Y13588D01*
X11693Y13342D01*
X11743Y13309D01*
Y13145D01*
X11743Y13144D01*
X11570D01*
Y13144D01*
X11530D01*
Y13144D01*
X10964D01*
Y13112D01*
X10961Y13114D01*
X10964Y13144D01*
X10794D01*
X10768Y13148D01*
X10743Y13144D01*
X10503D01*
Y13257D01*
X10904Y13658D01*
X11393D01*
X11414Y13637D01*
D02*
G37*
G36*
X5110Y13046D02*
X5200D01*
Y12518D01*
X5110D01*
Y12378D01*
X4885D01*
Y12518D01*
X4319D01*
Y12518D01*
X4279D01*
Y12518D01*
X3778D01*
Y12917D01*
X3816Y12942D01*
X3919Y13046D01*
X4279D01*
Y13046D01*
X4319D01*
Y13046D01*
X4885D01*
Y13186D01*
X5110D01*
Y13046D01*
D02*
G37*
G36*
X9600Y13400D02*
X10167D01*
X10203Y13350D01*
X10197Y13320D01*
Y10772D01*
X10209Y10713D01*
X10210Y10711D01*
Y10336D01*
X10210D01*
Y10296D01*
X10210D01*
Y10190D01*
X9454Y10171D01*
X9418Y10206D01*
Y10692D01*
X9356D01*
Y11052D01*
X9337Y11150D01*
X9281Y11232D01*
X9136Y11377D01*
Y11593D01*
X9108D01*
Y11819D01*
X9333Y12044D01*
X9389Y12127D01*
X9408Y12225D01*
Y12560D01*
X9436D01*
Y12598D01*
X9595D01*
X9600Y12594D01*
X9673Y12564D01*
X9750Y12554D01*
X9827Y12564D01*
X9900Y12594D01*
X9962Y12641D01*
X10009Y12703D01*
X10039Y12776D01*
X10049Y12853D01*
X10039Y12931D01*
X10009Y13003D01*
X9962Y13065D01*
X9900Y13112D01*
X9827Y13142D01*
X9750Y13153D01*
X9673Y13142D01*
X9600Y13112D01*
X9595Y13108D01*
X9436D01*
Y13146D01*
X9408D01*
Y13407D01*
X9436D01*
Y13445D01*
X9600D01*
Y13400D01*
D02*
G37*
G36*
X26986Y11461D02*
X26997Y11403D01*
X27030Y11353D01*
X27046Y11338D01*
X27030Y11290D01*
X27023Y11289D01*
X26950Y11259D01*
X26888Y11212D01*
X26841Y11150D01*
X26811Y11077D01*
X26801Y11000D01*
X26811Y10923D01*
X26841Y10850D01*
X26888Y10788D01*
X26925Y10760D01*
X26928Y10742D01*
X26921Y10701D01*
X26871Y10662D01*
X26823Y10600D01*
X26793Y10527D01*
X26783Y10450D01*
X26793Y10373D01*
X26823Y10300D01*
X26871Y10238D01*
X26933Y10191D01*
X27005Y10161D01*
X27082Y10151D01*
X27160Y10161D01*
X27232Y10191D01*
X27294Y10238D01*
X27297Y10242D01*
X27532D01*
X27988Y9786D01*
X27986Y9780D01*
X27967Y9737D01*
X27900Y9709D01*
X27838Y9662D01*
X27791Y9600D01*
X27761Y9527D01*
X27755Y9485D01*
X27744Y9438D01*
X27744D01*
X27744Y9438D01*
Y9308D01*
X27375D01*
Y9438D01*
X27375D01*
X27374Y9439D01*
X27375Y9450D01*
X26789D01*
X26791Y9439D01*
X26789Y9438D01*
X26789D01*
Y9205D01*
X27082D01*
Y9105D01*
X26789D01*
Y9071D01*
X26751Y9039D01*
X26743Y9041D01*
X26624D01*
Y9460D01*
X26303D01*
Y9489D01*
X26291Y9548D01*
X26258Y9598D01*
X25520Y10336D01*
Y12643D01*
X25570Y12667D01*
X25605Y12641D01*
X25677Y12611D01*
X25754Y12601D01*
X25832Y12611D01*
X25904Y12641D01*
X25966Y12688D01*
X26014Y12750D01*
X26037Y12807D01*
X26255D01*
Y12364D01*
X26255Y12355D01*
Y12314D01*
X26255Y12305D01*
Y12081D01*
X26548D01*
X26841D01*
Y12305D01*
X26841Y12314D01*
Y12355D01*
X26841Y12364D01*
Y12807D01*
X26986D01*
Y11461D01*
D02*
G37*
G36*
X24688Y12788D02*
X24750Y12741D01*
X24823Y12711D01*
X24900Y12701D01*
X24967Y12709D01*
X25017Y12680D01*
Y11013D01*
X25014Y10997D01*
Y10330D01*
X24637Y9953D01*
X23550D01*
Y10551D01*
X23449Y10652D01*
X23461Y10703D01*
X23524Y10711D01*
X23597Y10741D01*
X23659Y10788D01*
X23706Y10850D01*
X23736Y10923D01*
X23746Y11000D01*
X23736Y11077D01*
X23706Y11150D01*
X23659Y11212D01*
X23597Y11259D01*
X23524Y11289D01*
X23447Y11299D01*
X23382Y11291D01*
X23361Y11338D01*
X23362Y11338D01*
X23409Y11400D01*
X23439Y11473D01*
X23449Y11550D01*
X23439Y11627D01*
X23409Y11700D01*
X23362Y11762D01*
X23300Y11809D01*
X23237Y11835D01*
X23222Y11861D01*
X23213Y11891D01*
X23239Y11954D01*
X23249Y12031D01*
X23239Y12109D01*
X23209Y12181D01*
X23162Y12243D01*
X23100Y12291D01*
X23027Y12321D01*
X22955Y12330D01*
X22947Y12335D01*
X22920Y12377D01*
X22939Y12423D01*
X22949Y12500D01*
X22939Y12577D01*
X22909Y12650D01*
X22862Y12712D01*
X22803Y12757D01*
X22803Y12762D01*
X22832Y12807D01*
X23707D01*
Y12364D01*
X23707Y12355D01*
Y12314D01*
X23707Y12305D01*
Y12081D01*
X24000D01*
X24293D01*
Y12305D01*
X24293Y12314D01*
Y12355D01*
X24293Y12364D01*
Y12807D01*
X24674D01*
X24688Y12788D01*
D02*
G37*
G36*
X5110Y11932D02*
X5200D01*
Y11404D01*
X5110D01*
Y11264D01*
X4885D01*
Y11404D01*
X4319D01*
Y11404D01*
X4279D01*
Y11404D01*
X4149D01*
Y11533D01*
X4149Y11583D01*
X4149Y11583D01*
Y11886D01*
X4195Y11932D01*
X4279D01*
Y11932D01*
X4319D01*
Y11932D01*
X4885D01*
Y12072D01*
X5110D01*
Y11932D01*
D02*
G37*
G36*
X31275Y11614D02*
X31269Y11600D01*
X31143Y11474D01*
X30557D01*
Y11350D01*
X30193D01*
Y11480D01*
X29607D01*
Y11350D01*
X29243D01*
Y11480D01*
X29103D01*
Y13150D01*
X29101Y13161D01*
X29142Y13211D01*
X29679D01*
X31275Y11614D01*
D02*
G37*
G36*
X20440Y14140D02*
X20522Y14084D01*
X20620Y14065D01*
X20634Y14068D01*
X20649Y14053D01*
X20675D01*
X20702Y14003D01*
X20693Y13991D01*
X20681Y13930D01*
Y13332D01*
X20693Y13271D01*
X20728Y13220D01*
X20779Y13186D01*
X20839Y13174D01*
X20900Y13186D01*
X20938Y13211D01*
X20976Y13186D01*
X21036Y13174D01*
X21097Y13186D01*
X21135Y13211D01*
X21173Y13186D01*
X21233Y13174D01*
X21294Y13186D01*
X21332Y13211D01*
X21369Y13186D01*
X21430Y13174D01*
X21490Y13186D01*
X21528Y13211D01*
X21566Y13186D01*
X21627Y13174D01*
X21632Y13175D01*
X21671Y13143D01*
Y13037D01*
X20642Y12008D01*
X20609Y11959D01*
X20597Y11900D01*
Y11574D01*
X20457D01*
Y11444D01*
X20091D01*
X20032Y11432D01*
X19983Y11399D01*
X19687Y11103D01*
X19468D01*
Y11188D01*
X18776D01*
Y10712D01*
X19468D01*
Y10797D01*
X19750D01*
X19809Y10809D01*
X19858Y10842D01*
X20154Y11138D01*
X20457D01*
Y11018D01*
X20457Y11008D01*
Y10968D01*
X20457Y10958D01*
Y10735D01*
X20750D01*
X21043D01*
Y10958D01*
X21043Y10968D01*
Y11008D01*
X21043Y11018D01*
Y11574D01*
X20903D01*
Y11837D01*
X21751Y12685D01*
X21797Y12665D01*
Y10613D01*
X21137Y9953D01*
X20856D01*
X20846Y10003D01*
X20900Y10025D01*
X20962Y10073D01*
X21009Y10135D01*
X21039Y10207D01*
X21043Y10235D01*
X20457D01*
X20461Y10207D01*
X20491Y10135D01*
X20538Y10073D01*
X20600Y10025D01*
X20654Y10003D01*
X20644Y9953D01*
X19615D01*
X19600Y9983D01*
X19596Y10003D01*
X19640Y10060D01*
X19669Y10133D01*
X19673Y10160D01*
X19087D01*
X19091Y10133D01*
X19121Y10060D01*
X19169Y9998D01*
X19231Y9951D01*
X19303Y9921D01*
X19367Y9912D01*
X19384Y9878D01*
X19386Y9861D01*
X19242Y9717D01*
X19209Y9667D01*
X19197Y9609D01*
Y9460D01*
X18473D01*
Y10327D01*
X18484Y10338D01*
Y10814D01*
X17805D01*
Y11086D01*
X18052D01*
X18138Y11069D01*
X18224Y11086D01*
X18484D01*
Y11562D01*
X18393D01*
Y12000D01*
X19100Y12708D01*
Y12892D01*
X19136Y12945D01*
X19155Y13042D01*
Y13257D01*
X19183D01*
Y13295D01*
X19200D01*
X19298Y13314D01*
X19380Y13370D01*
X19580Y13570D01*
X19635Y13652D01*
X19655Y13750D01*
Y14145D01*
X19704Y14153D01*
X20431D01*
X20440Y14140D01*
D02*
G37*
G36*
X13843Y12423D02*
X13855Y12418D01*
Y10944D01*
X13006D01*
Y12423D01*
X13843D01*
D02*
G37*
G36*
X5110Y10818D02*
X5200D01*
Y10290D01*
X5110D01*
Y10150D01*
X4885D01*
Y10290D01*
X4319D01*
Y10290D01*
X4279D01*
Y10290D01*
X3713D01*
Y10290D01*
X3663Y10291D01*
X3653Y10298D01*
Y10786D01*
X3690Y10820D01*
X3713Y10818D01*
X4279D01*
Y10818D01*
X4319D01*
Y10818D01*
X4885D01*
Y10958D01*
X5110D01*
Y10818D01*
D02*
G37*
G36*
X10556Y12637D02*
X10618Y12589D01*
X10691Y12559D01*
X10768Y12549D01*
X10846Y12559D01*
X10914Y12587D01*
X10942Y12578D01*
X10964Y12567D01*
Y12559D01*
X10989D01*
Y12298D01*
X10961D01*
Y11712D01*
X10989D01*
Y11629D01*
X10984Y11623D01*
X10955Y11551D01*
X10944Y11474D01*
X10955Y11396D01*
X10984Y11324D01*
X11032Y11262D01*
X11094Y11214D01*
X11166Y11184D01*
X11244Y11174D01*
X11321Y11184D01*
X11393Y11214D01*
X11455Y11262D01*
X11503Y11324D01*
X11533Y11396D01*
X11543Y11474D01*
X11533Y11551D01*
X11503Y11623D01*
X11499Y11629D01*
Y11673D01*
X11527Y11712D01*
X11567D01*
Y11712D01*
X12133D01*
Y12298D01*
Y12555D01*
X12136Y12559D01*
X12280D01*
X12329Y12552D01*
X12378Y12559D01*
X12484D01*
X12497Y12546D01*
Y11895D01*
X11945Y11343D01*
X11912Y11293D01*
X11900Y11235D01*
Y10902D01*
X10796D01*
X10797Y10773D01*
X10796Y10773D01*
Y10902D01*
X10503D01*
Y12624D01*
X10553Y12641D01*
X10556Y12637D01*
D02*
G37*
G36*
X30557Y10908D02*
X30557Y10908D01*
Y10868D01*
X30557D01*
X30557Y10858D01*
Y10301D01*
X30557Y10301D01*
X30557D01*
X30555Y10252D01*
X30551Y10222D01*
X30561Y10145D01*
X30591Y10073D01*
X30638Y10011D01*
X30700Y9963D01*
X30773Y9933D01*
X30799Y9930D01*
X30817Y9877D01*
X30720Y9780D01*
X30665Y9698D01*
X30645Y9600D01*
Y9438D01*
X30286D01*
X30262Y9461D01*
X29284Y9438D01*
X29144D01*
Y9609D01*
X29132Y9667D01*
X29099Y9717D01*
X28972Y9844D01*
X28990Y9897D01*
X29027Y9902D01*
X29100Y9932D01*
X29162Y9979D01*
X29209Y10041D01*
X29239Y10113D01*
X29243Y10141D01*
X28950D01*
Y10241D01*
X29243D01*
X29241Y10258D01*
X29243Y10308D01*
X29243Y10308D01*
X29243Y10308D01*
Y10438D01*
X29607D01*
Y10308D01*
X29607Y10308D01*
X29609Y10258D01*
X29607Y10241D01*
X30193D01*
X30191Y10258D01*
X30193Y10308D01*
X30193Y10308D01*
X30193Y10308D01*
Y10541D01*
X29900D01*
Y10641D01*
X30193D01*
Y10874D01*
X30193D01*
Y10914D01*
X30193D01*
Y11044D01*
X30557D01*
Y10908D01*
D02*
G37*
G36*
X5110Y9704D02*
X5200D01*
Y9176D01*
X5110D01*
Y9036D01*
X4885D01*
Y9176D01*
X4319D01*
Y9176D01*
X4279D01*
Y9176D01*
X4200D01*
Y9679D01*
X4225Y9704D01*
X4279D01*
Y9704D01*
X4319D01*
Y9704D01*
X4885D01*
Y9844D01*
X5110D01*
Y9704D01*
D02*
G37*
G36*
X25676Y9208D02*
Y8315D01*
X25631Y8303D01*
X25126D01*
X25010Y8419D01*
Y9397D01*
X25487D01*
X25676Y9208D01*
D02*
G37*
G36*
X1203Y20198D02*
X1156Y20179D01*
X1074Y20115D01*
X1010Y20033D01*
X970Y19937D01*
X957Y19833D01*
X970Y19730D01*
X1010Y19634D01*
X1074Y19551D01*
X1156Y19488D01*
X1252Y19448D01*
X1356Y19435D01*
Y19232D01*
X1252Y19218D01*
X1156Y19179D01*
X1074Y19115D01*
X1010Y19033D01*
X970Y18937D01*
X957Y18833D01*
X970Y18730D01*
X1010Y18634D01*
X1074Y18551D01*
X1156Y18488D01*
X1252Y18448D01*
X1356Y18435D01*
Y18372D01*
X1247Y18264D01*
X1214Y18214D01*
X1212Y18202D01*
X1156Y18179D01*
X1074Y18115D01*
X1010Y18033D01*
X970Y17937D01*
X957Y17833D01*
X970Y17730D01*
X1010Y17634D01*
X1074Y17551D01*
X1156Y17488D01*
X1252Y17448D01*
X1356Y17435D01*
Y17232D01*
X1252Y17218D01*
X1156Y17179D01*
X1074Y17115D01*
X1010Y17033D01*
X970Y16937D01*
X957Y16833D01*
X970Y16730D01*
X1010Y16634D01*
X1074Y16551D01*
X1156Y16488D01*
X1252Y16448D01*
X1356Y16435D01*
Y16232D01*
X1252Y16218D01*
X1156Y16179D01*
X1074Y16115D01*
X1010Y16033D01*
X970Y15937D01*
X957Y15833D01*
X970Y15730D01*
X1010Y15634D01*
X1074Y15551D01*
X1156Y15488D01*
X1252Y15448D01*
X1356Y15435D01*
Y15288D01*
X1291Y15224D01*
X1252Y15218D01*
X1156Y15179D01*
X1074Y15115D01*
X1010Y15033D01*
X970Y14937D01*
X957Y14833D01*
X970Y14730D01*
X1010Y14634D01*
X1074Y14551D01*
X1156Y14488D01*
X1252Y14448D01*
X1356Y14435D01*
Y14372D01*
X1247Y14264D01*
X1214Y14214D01*
X1212Y14202D01*
X1156Y14179D01*
X1074Y14115D01*
X1010Y14033D01*
X970Y13937D01*
X957Y13833D01*
X970Y13730D01*
X1010Y13634D01*
X1074Y13551D01*
X1156Y13488D01*
X1252Y13448D01*
X1356Y13435D01*
Y13232D01*
X1252Y13218D01*
X1156Y13179D01*
X1074Y13115D01*
X1010Y13033D01*
X970Y12937D01*
X957Y12833D01*
X970Y12730D01*
X1010Y12634D01*
X1074Y12551D01*
X1156Y12488D01*
X1252Y12448D01*
X1356Y12435D01*
Y12232D01*
X1252Y12218D01*
X1156Y12179D01*
X1074Y12115D01*
X1010Y12033D01*
X970Y11937D01*
X957Y11833D01*
X970Y11730D01*
X1010Y11634D01*
X1074Y11551D01*
X1156Y11488D01*
X1252Y11448D01*
X1356Y11435D01*
X1459Y11448D01*
X1555Y11488D01*
X1637Y11551D01*
X1701Y11634D01*
X1741Y11730D01*
X1754Y11833D01*
X1957D01*
X1970Y11730D01*
X2010Y11634D01*
X2074Y11551D01*
X2156Y11488D01*
X2252Y11448D01*
X2356Y11435D01*
X2459Y11448D01*
X2555Y11488D01*
X2637Y11551D01*
X2701Y11634D01*
X2720Y11680D01*
X2953D01*
X3097Y11537D01*
Y10047D01*
X3109Y9988D01*
X3142Y9939D01*
X3686Y9395D01*
Y9204D01*
X3713Y9176D01*
Y8590D01*
X4279D01*
Y8590D01*
X4319D01*
Y8590D01*
X4885D01*
Y8730D01*
X5110D01*
Y8590D01*
X5666D01*
X5676Y8590D01*
X5676Y8590D01*
X5716D01*
Y8590D01*
X5726Y8590D01*
X6200D01*
Y8376D01*
X6224Y8353D01*
X6209Y8303D01*
X2013D01*
X603Y9713D01*
Y20348D01*
X1203D01*
Y20198D01*
D02*
G37*
G36*
X38257Y8350D02*
X38550D01*
Y8300D01*
X38600D01*
Y8007D01*
X38627Y8011D01*
X38700Y8041D01*
X38745Y8076D01*
X38795Y8054D01*
Y7446D01*
X38745Y7424D01*
X38700Y7459D01*
X38627Y7489D01*
X38550Y7499D01*
X38473Y7489D01*
X38400Y7459D01*
X38338Y7412D01*
X38291Y7350D01*
X38261Y7277D01*
X38251Y7200D01*
X38257Y7151D01*
Y7056D01*
X37943D01*
Y7151D01*
X37949Y7200D01*
X37939Y7277D01*
X37909Y7350D01*
X37862Y7412D01*
X37800Y7459D01*
X37727Y7489D01*
X37650Y7499D01*
X37573Y7489D01*
X37500Y7459D01*
X37438Y7412D01*
X37391Y7350D01*
X37361Y7277D01*
X37351Y7200D01*
X37357Y7151D01*
Y6620D01*
X37357D01*
Y6602D01*
X37352Y6575D01*
X37321Y6547D01*
X37249Y6532D01*
X37167Y6477D01*
X37134Y6445D01*
X36805D01*
Y6800D01*
X36786Y6898D01*
X36730Y6980D01*
X36592Y7118D01*
X36510Y7173D01*
X36412Y7193D01*
X35801D01*
X35704Y7173D01*
X35678Y7156D01*
X35485D01*
Y7150D01*
X35015D01*
Y7156D01*
X34467D01*
X34450Y7173D01*
X34382Y7156D01*
X34340Y7113D01*
Y6562D01*
X34290Y6535D01*
X34203Y6552D01*
X33331D01*
X33293Y6580D01*
Y6620D01*
X33293D01*
Y7186D01*
X33293Y7186D01*
X33291Y7236D01*
X33299Y7303D01*
X33289Y7381D01*
X33259Y7453D01*
X33212Y7515D01*
X33150Y7562D01*
X33077Y7592D01*
X33000Y7603D01*
X32923Y7592D01*
X32850Y7562D01*
X32788Y7515D01*
X32741Y7453D01*
X32711Y7381D01*
X32701Y7303D01*
X32709Y7236D01*
X32707Y7186D01*
X32707Y7186D01*
X32707Y7186D01*
Y7056D01*
X32343D01*
Y7186D01*
X32343D01*
X32341Y7236D01*
X32349Y7303D01*
X32339Y7381D01*
Y8059D01*
X32344Y8061D01*
X34652D01*
X34692Y8102D01*
X35948D01*
Y7994D01*
X36481D01*
Y7894D01*
X35948D01*
Y7648D01*
X36153D01*
X36189Y7598D01*
X36188Y7594D01*
X36774D01*
X36774Y7598D01*
X36809Y7648D01*
X37014D01*
Y7795D01*
X37053Y7803D01*
X37103Y7836D01*
X37355Y8089D01*
X37421Y8084D01*
X37438Y8062D01*
X37500Y8015D01*
X37573Y7985D01*
X37600Y7981D01*
Y8274D01*
X37650D01*
Y8324D01*
X37943D01*
Y8447D01*
X38257D01*
Y8350D01*
D02*
G37*
G36*
X30607Y8265D02*
X31193D01*
Y7605D01*
X28246D01*
X28227Y7651D01*
X28677Y8102D01*
X28704Y8101D01*
X28738Y8092D01*
X28779Y8038D01*
X28841Y7991D01*
X28914Y7961D01*
X28941Y7957D01*
Y8250D01*
X29041D01*
Y7957D01*
X29069Y7961D01*
X29141Y7991D01*
X29203Y8038D01*
X29250Y8100D01*
X29280Y8173D01*
X29291Y8250D01*
X29286Y8288D01*
X29321Y8327D01*
X29653D01*
X29653Y8265D01*
X29653Y8265D01*
X29661Y8219D01*
X29663Y8203D01*
X29667Y8173D01*
X29697Y8100D01*
X29745Y8038D01*
X29807Y7991D01*
X29879Y7961D01*
X29907Y7957D01*
Y8250D01*
X29957D01*
Y8300D01*
X30260D01*
X30284Y8327D01*
X30545D01*
X30607Y8265D01*
D02*
G37*
G36*
X26866Y7497D02*
X26467Y7098D01*
X26434Y7103D01*
X26331Y7089D01*
X26234Y7049D01*
X26195Y7019D01*
X25672D01*
X25633Y7049D01*
X25537Y7089D01*
X25434Y7103D01*
X25331Y7089D01*
X25234Y7049D01*
X25152Y6986D01*
X25088Y6903D01*
X25049Y6807D01*
X25035Y6704D01*
X25049Y6601D01*
X25088Y6505D01*
X25152Y6422D01*
X25215Y6374D01*
Y6034D01*
X25152Y5986D01*
X25088Y5903D01*
X25049Y5807D01*
X25035Y5704D01*
X25049Y5601D01*
X25088Y5505D01*
X25152Y5422D01*
X25215Y5374D01*
Y5334D01*
X25236Y5355D01*
X25244D01*
X25331Y5319D01*
X25434Y5305D01*
X25537Y5319D01*
X25623Y5355D01*
X26244D01*
X26331Y5319D01*
X26434Y5305D01*
X26537Y5319D01*
X26623Y5355D01*
X27244D01*
X27331Y5319D01*
X27434Y5305D01*
X27537Y5319D01*
X27623Y5355D01*
X28244D01*
X28331Y5319D01*
X28434Y5305D01*
X28537Y5319D01*
X28623Y5355D01*
X28695D01*
Y5319D01*
X28714Y5221D01*
X28770Y5139D01*
X28859Y5049D01*
X28840Y5003D01*
X25263D01*
X24603Y5663D01*
Y6821D01*
X25329Y7547D01*
X26846D01*
X26866Y7497D01*
D02*
G37*
G36*
X20480Y8325D02*
X20490Y8315D01*
X21470D01*
X21823Y7963D01*
X21807Y7919D01*
X20342Y6454D01*
X20309Y6405D01*
X20297Y6346D01*
Y4114D01*
X20251Y4095D01*
X20168Y4032D01*
X20105Y3949D01*
X20065Y3853D01*
X20051Y3750D01*
X20065Y3647D01*
X20105Y3551D01*
X20168Y3468D01*
X20251Y3405D01*
X20347Y3365D01*
X20423Y3355D01*
X20419Y3305D01*
X19599D01*
X19584Y3325D01*
X19602Y3385D01*
X19649Y3405D01*
X19732Y3468D01*
X19795Y3551D01*
X19835Y3647D01*
X19842Y3700D01*
X19450D01*
Y3750D01*
X19400D01*
Y4142D01*
X19347Y4135D01*
X19296Y4114D01*
X19255Y4142D01*
Y6824D01*
X19236Y6922D01*
X19180Y7004D01*
X19084Y7101D01*
X19103Y7147D01*
X20143D01*
X20188Y7088D01*
X20250Y7041D01*
X20323Y7011D01*
X20400Y7001D01*
X20477Y7011D01*
X20550Y7041D01*
X20612Y7088D01*
X20659Y7150D01*
X20689Y7223D01*
X20699Y7300D01*
X20689Y7377D01*
X20659Y7450D01*
X20612Y7512D01*
X20550Y7559D01*
X20477Y7589D01*
X20400Y7599D01*
X20323Y7589D01*
X20250Y7559D01*
X20188Y7512D01*
X20143Y7453D01*
X18963D01*
Y8228D01*
X18922Y8269D01*
X18941Y8315D01*
X19824D01*
Y9613D01*
X19858Y9647D01*
X20480D01*
Y8325D01*
D02*
G37*
G36*
X16357Y7503D02*
X16650D01*
Y7403D01*
X16357D01*
Y7219D01*
X16650D01*
Y7169D01*
X16700D01*
Y6876D01*
X16727Y6880D01*
X16754Y6891D01*
X16795Y6863D01*
Y6507D01*
X16732Y6444D01*
X16302D01*
X16296Y6450D01*
Y6629D01*
X15517D01*
Y6453D01*
X15350D01*
X15302Y6444D01*
X15253Y6444D01*
X15253Y6444D01*
X15253Y6444D01*
X14667D01*
Y6314D01*
X14402D01*
Y6444D01*
X14262D01*
Y6847D01*
X14650D01*
X14709Y6859D01*
X14758Y6892D01*
X14966Y7100D01*
X15000Y7150D01*
X15011Y7208D01*
Y7292D01*
X15961D01*
Y7242D01*
X16011D01*
Y6949D01*
X16038Y6953D01*
X16110Y6983D01*
X16172Y7030D01*
X16220Y7092D01*
X16250Y7164D01*
X16260Y7242D01*
X16258Y7260D01*
X16277Y7308D01*
X16277D01*
Y7552D01*
X16294Y7559D01*
X16357D01*
Y7503D01*
D02*
G37*
G36*
X31757Y6620D02*
X31757D01*
Y6580D01*
X31757D01*
Y6014D01*
X31795D01*
Y5906D01*
X31635Y5746D01*
X31577Y5758D01*
X31559Y5800D01*
X31512Y5862D01*
X31450Y5909D01*
X31377Y5939D01*
X31300Y5949D01*
X31223Y5939D01*
X31150Y5909D01*
X31145Y5905D01*
X30991D01*
X30893Y5885D01*
X30810Y5830D01*
X30377Y5397D01*
X29849D01*
X29845Y5400D01*
X29832D01*
Y6305D01*
X29829Y6309D01*
Y7095D01*
X31757D01*
Y6620D01*
D02*
G37*
G36*
X39250Y6000D02*
Y4569D01*
X38805D01*
Y6014D01*
X39236D01*
X39250Y6000D01*
D02*
G37*
G36*
X33033Y5855D02*
X32991Y5800D01*
X32961Y5727D01*
X32951Y5650D01*
X32961Y5573D01*
X32991Y5500D01*
X33038Y5438D01*
X33100Y5391D01*
X33173Y5361D01*
X33250Y5351D01*
X33327Y5361D01*
X33400Y5391D01*
X33405Y5395D01*
X37903D01*
X38001Y5415D01*
X38083Y5470D01*
X38249Y5635D01*
X38295Y5616D01*
Y4569D01*
X38257D01*
Y4541D01*
X37943D01*
Y4569D01*
X37357D01*
Y4541D01*
X37206D01*
X37014Y4733D01*
Y5202D01*
X35948D01*
Y4798D01*
X35939Y4789D01*
X34652D01*
X34416Y4838D01*
X34383Y4806D01*
X34340Y4789D01*
X33586D01*
Y4393D01*
X33540Y4374D01*
X33530Y4383D01*
X33448Y4439D01*
X33350Y4458D01*
X33293D01*
Y4486D01*
X32707D01*
Y4458D01*
X32343D01*
Y4486D01*
X31757D01*
Y4458D01*
X31753D01*
X31656Y4439D01*
X31573Y4383D01*
X31451Y4262D01*
X31405Y4281D01*
Y4794D01*
X32230Y5620D01*
X32285Y5702D01*
X32296Y5755D01*
X32310Y5800D01*
X32415Y5905D01*
X33021D01*
X33033Y5855D01*
D02*
G37*
G36*
X18745Y6718D02*
Y4145D01*
X18055D01*
Y3355D01*
X18195D01*
Y3000D01*
X18214Y2902D01*
X18270Y2820D01*
X18620Y2470D01*
X18702Y2415D01*
X18800Y2395D01*
X31005D01*
X31103Y2415D01*
X31186Y2470D01*
X31730Y3014D01*
X31746Y3037D01*
X31802Y3032D01*
X31838Y2985D01*
X31900Y2938D01*
X31973Y2908D01*
X32000Y2904D01*
Y3197D01*
X32050D01*
Y3247D01*
X32343D01*
X32341Y3264D01*
X32343Y3314D01*
X32343Y3314D01*
X32343Y3314D01*
Y3444D01*
X32707D01*
Y3314D01*
X32707Y3314D01*
X32709Y3264D01*
X32707Y3247D01*
X33293D01*
X33291Y3264D01*
X33293Y3314D01*
X33293Y3314D01*
X33293Y3314D01*
Y3547D01*
X33000D01*
Y3647D01*
X33293D01*
Y3829D01*
X33343Y3850D01*
X33373Y3820D01*
X33456Y3765D01*
X33553Y3745D01*
X33586D01*
Y3211D01*
X34383D01*
Y2900D01*
X35948D01*
Y2798D01*
X36153D01*
X36189Y2748D01*
X36188Y2744D01*
X36774D01*
X36774Y2748D01*
X36809Y2798D01*
X37014D01*
Y2873D01*
X37030Y2916D01*
X37065Y2942D01*
X37079Y2944D01*
X37123Y2953D01*
X37127Y2956D01*
X38845D01*
X38831Y3198D01*
X38845Y3187D01*
Y2956D01*
X38363Y2473D01*
X37789D01*
X37692Y2454D01*
X37609Y2399D01*
X37315Y2105D01*
X9056D01*
X7155Y4006D01*
Y5100D01*
X7183Y5113D01*
X7205Y5114D01*
X7248Y5059D01*
X7310Y5011D01*
X7382Y4981D01*
X7459Y4971D01*
X7537Y4981D01*
X7609Y5011D01*
X7671Y5059D01*
X7703Y5100D01*
X9686D01*
X9709Y5056D01*
X9706Y5050D01*
X9694Y4992D01*
Y3753D01*
X9706Y3695D01*
X9739Y3645D01*
X9895Y3489D01*
X9945Y3456D01*
X10003Y3444D01*
X10009D01*
X10009Y3325D01*
X10105D01*
X10136Y3294D01*
X11582D01*
Y3363D01*
X11621Y3371D01*
X11670Y3404D01*
X11758Y3492D01*
X11791Y3541D01*
X11803Y3600D01*
Y4150D01*
X11791Y4209D01*
X11758Y4258D01*
X11648Y4368D01*
X11598Y4402D01*
X11582Y4405D01*
Y4478D01*
X10717D01*
X10709Y4487D01*
X10699Y4565D01*
X10669Y4637D01*
X10621Y4699D01*
X10559Y4747D01*
X10487Y4776D01*
X10409Y4787D01*
X10390Y4784D01*
X10352Y4817D01*
X10343Y5236D01*
X10378Y5271D01*
X10702D01*
X10715Y5284D01*
X11113D01*
X11127Y5240D01*
X11134Y5208D01*
X11167Y5158D01*
X11347Y4979D01*
X11396Y4945D01*
X11455Y4934D01*
X13103D01*
X13161Y4945D01*
X13211Y4979D01*
X13380Y5148D01*
X13413Y5197D01*
X13425Y5256D01*
Y5272D01*
X13565D01*
Y5838D01*
X13565D01*
Y5878D01*
X13565D01*
Y6444D01*
X13552D01*
Y6497D01*
X13793D01*
X13800Y6487D01*
X13817Y6444D01*
X13817D01*
Y5887D01*
X13817Y5878D01*
Y5837D01*
X13817Y5828D01*
Y5604D01*
X14110D01*
Y5504D01*
X13817D01*
Y5320D01*
X14402D01*
Y5401D01*
X14667D01*
Y5320D01*
X15253D01*
Y5504D01*
X14960D01*
Y5604D01*
X15253D01*
Y5828D01*
X15253Y5837D01*
Y5878D01*
X15253Y5887D01*
Y6016D01*
X15502D01*
X15517Y5968D01*
Y5928D01*
X15517D01*
X15517Y5922D01*
Y5271D01*
X16211D01*
X16258Y5270D01*
X16258D01*
Y4671D01*
X15517D01*
Y4496D01*
X15457D01*
X15409Y4486D01*
X14667D01*
Y4356D01*
X14402D01*
Y4488D01*
X14261D01*
X14251Y4540D01*
X14218Y4589D01*
X14099Y4708D01*
X14049Y4741D01*
X13991Y4753D01*
X12950D01*
X12891Y4741D01*
X12842Y4708D01*
X12612Y4478D01*
X12052D01*
Y4042D01*
X12600D01*
Y3760D01*
X12570Y3730D01*
X12052D01*
Y3294D01*
X12685D01*
Y3412D01*
X12920Y3648D01*
X12923Y3647D01*
X13259D01*
Y3547D01*
X12967D01*
Y3363D01*
X13552D01*
Y3444D01*
X13817D01*
Y3363D01*
X14402D01*
Y3444D01*
X14667D01*
Y3363D01*
X15253D01*
Y3547D01*
X14960D01*
Y3647D01*
X15253D01*
Y3880D01*
X15253D01*
Y3920D01*
X15253D01*
Y4050D01*
X15482D01*
X15517Y4015D01*
Y3970D01*
X15517D01*
Y3314D01*
X16296D01*
Y3342D01*
X16517D01*
Y3314D01*
X17102D01*
Y3342D01*
X17350D01*
X17448Y3361D01*
X17530Y3417D01*
X17585Y3499D01*
X17605Y3597D01*
Y5951D01*
X17730Y6077D01*
X17786Y6159D01*
X17805Y6257D01*
Y7593D01*
X17851Y7612D01*
X18745Y6718D01*
D02*
G37*
G36*
X26159Y4020D02*
X26105Y3949D01*
X26065Y3853D01*
X26051Y3750D01*
X26065Y3647D01*
X26105Y3551D01*
X26168Y3468D01*
X26195Y3447D01*
Y2905D01*
X24181D01*
X24162Y2951D01*
X24505Y3295D01*
X24561Y3378D01*
X24580Y3475D01*
Y3870D01*
X24781Y4070D01*
X25142D01*
X25159Y4020D01*
X25105Y3949D01*
X25065Y3853D01*
X25051Y3750D01*
X25065Y3647D01*
X25105Y3551D01*
X25168Y3468D01*
X25251Y3405D01*
X25347Y3365D01*
X25450Y3351D01*
X25553Y3365D01*
X25649Y3405D01*
X25732Y3468D01*
X25795Y3551D01*
X25835Y3647D01*
X25849Y3750D01*
X25835Y3853D01*
X25795Y3949D01*
X25741Y4020D01*
X25758Y4070D01*
X26142D01*
X26159Y4020D01*
D02*
G37*
G36*
X23311Y8261D02*
X24704D01*
X24704Y8261D01*
Y8261D01*
X24750Y8247D01*
X24955Y8042D01*
X24985Y8022D01*
X24997Y7963D01*
X24142Y7108D01*
X24109Y7059D01*
X24097Y7000D01*
Y5450D01*
X24109Y5391D01*
X24142Y5342D01*
X24398Y5086D01*
X24433Y5050D01*
Y4980D01*
X24433Y4980D01*
X24433D01*
X24433Y4495D01*
X24429Y4440D01*
X24145Y4155D01*
X24090Y4073D01*
X24070Y3975D01*
Y3581D01*
X23794Y3305D01*
X23481D01*
X23477Y3355D01*
X23553Y3365D01*
X23649Y3405D01*
X23732Y3468D01*
X23795Y3551D01*
X23835Y3647D01*
X23849Y3750D01*
X23835Y3853D01*
X23795Y3949D01*
X23732Y4032D01*
X23649Y4095D01*
X23603Y4114D01*
Y4250D01*
X23591Y4309D01*
X23558Y4358D01*
X21803Y6113D01*
Y6627D01*
X23113Y7937D01*
X23146Y7987D01*
X23148Y7995D01*
X23148Y7996D01*
X23160Y8055D01*
Y8118D01*
X23307Y8265D01*
X23311Y8261D01*
D02*
G37*
G36*
X22700Y4550D02*
X22909D01*
X22909Y4550D01*
Y4550D01*
X22952Y4532D01*
X23297Y4187D01*
Y4114D01*
X23251Y4095D01*
X23168Y4032D01*
X23105Y3949D01*
X23065Y3853D01*
X23051Y3750D01*
X23065Y3647D01*
X23105Y3551D01*
X23168Y3468D01*
X23251Y3405D01*
X23347Y3365D01*
X23423Y3355D01*
X23419Y3305D01*
X22480D01*
X22477Y3355D01*
X22553Y3365D01*
X22649Y3405D01*
X22732Y3468D01*
X22795Y3551D01*
X22835Y3647D01*
X22849Y3750D01*
X22835Y3853D01*
X22795Y3949D01*
X22732Y4032D01*
X22649Y4095D01*
X22603Y4114D01*
Y4576D01*
X22653Y4597D01*
X22700Y4550D01*
D02*
G37*
G36*
X22297Y4537D02*
Y4114D01*
X22251Y4095D01*
X22168Y4032D01*
X22105Y3949D01*
X22065Y3853D01*
X22051Y3750D01*
X22065Y3647D01*
X22105Y3551D01*
X22168Y3468D01*
X22251Y3405D01*
X22347Y3365D01*
X22423Y3355D01*
X22420Y3305D01*
X21481D01*
X21477Y3355D01*
X21553Y3365D01*
X21649Y3405D01*
X21732Y3468D01*
X21795Y3551D01*
X21835Y3647D01*
X21849Y3750D01*
X21835Y3853D01*
X21795Y3949D01*
X21732Y4032D01*
X21649Y4095D01*
X21603Y4114D01*
Y4600D01*
X22234D01*
X22297Y4537D01*
D02*
G37*
G36*
X21259Y5051D02*
X21297Y5024D01*
Y4114D01*
X21251Y4095D01*
X21168Y4032D01*
X21105Y3949D01*
X21065Y3853D01*
X21051Y3750D01*
X21065Y3647D01*
X21105Y3551D01*
X21168Y3468D01*
X21251Y3405D01*
X21347Y3365D01*
X21423Y3355D01*
X21419Y3305D01*
X20480D01*
X20477Y3355D01*
X20553Y3365D01*
X20649Y3405D01*
X20732Y3468D01*
X20795Y3551D01*
X20835Y3647D01*
X20849Y3750D01*
X20835Y3853D01*
X20795Y3949D01*
X20732Y4032D01*
X20649Y4095D01*
X20603Y4114D01*
Y5087D01*
X21223D01*
X21259Y5051D01*
D02*
G37*
%LPC*%
G36*
X38169Y32011D02*
X37995Y31993D01*
X37828Y31943D01*
X37673Y31860D01*
X37538Y31749D01*
X37427Y31614D01*
X37345Y31460D01*
X37294Y31293D01*
X37277Y31119D01*
X37294Y30945D01*
X37345Y30778D01*
X37427Y30624D01*
X37538Y30488D01*
X37673Y30377D01*
X37828Y30295D01*
X37995Y30244D01*
X38169Y30227D01*
X38343Y30244D01*
X38510Y30295D01*
X38664Y30377D01*
X38799Y30488D01*
X38910Y30624D01*
X38993Y30778D01*
X39043Y30945D01*
X39061Y31119D01*
X39043Y31293D01*
X38993Y31460D01*
X38910Y31614D01*
X38799Y31749D01*
X38664Y31860D01*
X38510Y31943D01*
X38343Y31993D01*
X38169Y32011D01*
D02*
G37*
G36*
X1181Y31961D02*
X1007Y31943D01*
X840Y31893D01*
X686Y31810D01*
X551Y31699D01*
X440Y31564D01*
X357Y31410D01*
X307Y31243D01*
X289Y31069D01*
X307Y30895D01*
X357Y30728D01*
X440Y30573D01*
X551Y30438D01*
X686Y30327D01*
X840Y30245D01*
X1007Y30194D01*
X1181Y30177D01*
X1355Y30194D01*
X1522Y30245D01*
X1676Y30327D01*
X1812Y30438D01*
X1923Y30573D01*
X2005Y30728D01*
X2056Y30895D01*
X2073Y31069D01*
X2056Y31243D01*
X2005Y31410D01*
X1923Y31564D01*
X1812Y31699D01*
X1676Y31810D01*
X1522Y31893D01*
X1355Y31943D01*
X1181Y31961D01*
D02*
G37*
G36*
X37700Y29893D02*
Y29650D01*
X37943D01*
X37939Y29677D01*
X37909Y29750D01*
X37862Y29812D01*
X37800Y29859D01*
X37727Y29889D01*
X37700Y29893D01*
D02*
G37*
G36*
X37600D02*
X37573Y29889D01*
X37500Y29859D01*
X37438Y29812D01*
X37391Y29750D01*
X37361Y29677D01*
X37357Y29650D01*
X37600D01*
Y29893D01*
D02*
G37*
G36*
X37943Y29550D02*
X37357D01*
X37361Y29523D01*
X37391Y29450D01*
X37435Y29393D01*
X37438Y29384D01*
X37431Y29331D01*
X37368Y29282D01*
X37305Y29199D01*
X37265Y29103D01*
X37258Y29050D01*
X37650D01*
X38042D01*
X38035Y29103D01*
X37995Y29199D01*
X37932Y29282D01*
X37869Y29331D01*
X37862Y29384D01*
X37865Y29393D01*
X37909Y29450D01*
X37939Y29523D01*
X37943Y29550D01*
D02*
G37*
G36*
X38042Y28950D02*
X37700D01*
Y28608D01*
X37753Y28615D01*
X37849Y28655D01*
X37932Y28718D01*
X37995Y28801D01*
X38035Y28897D01*
X38042Y28950D01*
D02*
G37*
G36*
X37600D02*
X37258D01*
X37265Y28897D01*
X37305Y28801D01*
X37368Y28718D01*
X37451Y28655D01*
X37547Y28615D01*
X37600Y28608D01*
Y28950D01*
D02*
G37*
G36*
X20793Y28691D02*
X20207D01*
Y28134D01*
X20207Y28124D01*
Y28084D01*
X20207Y28074D01*
Y27518D01*
X20347D01*
Y27413D01*
X19342Y26408D01*
X19309Y26359D01*
X19297Y26300D01*
Y23857D01*
X19238Y23812D01*
X19191Y23750D01*
X19161Y23677D01*
X19151Y23600D01*
X19161Y23523D01*
X19191Y23450D01*
X19238Y23388D01*
X19300Y23341D01*
X19373Y23311D01*
X19450Y23301D01*
X19527Y23311D01*
X19600Y23341D01*
X19662Y23388D01*
X19709Y23450D01*
X19739Y23523D01*
X19749Y23600D01*
X19739Y23677D01*
X19709Y23750D01*
X19662Y23812D01*
X19603Y23857D01*
Y26237D01*
X20608Y27242D01*
X20641Y27291D01*
X20653Y27350D01*
Y27518D01*
X20793D01*
Y28074D01*
X20793Y28084D01*
Y28124D01*
X20793Y28134D01*
Y28255D01*
X21118D01*
X21120Y28253D01*
Y27885D01*
X21812D01*
Y28361D01*
X21444D01*
X21290Y28516D01*
X21240Y28549D01*
X21181Y28560D01*
X20793D01*
Y28691D01*
D02*
G37*
G36*
X18356Y27743D02*
Y27500D01*
X18598D01*
X18595Y27527D01*
X18565Y27600D01*
X18517Y27662D01*
X18455Y27709D01*
X18383Y27739D01*
X18356Y27743D01*
D02*
G37*
G36*
X18256D02*
X18228Y27739D01*
X18156Y27709D01*
X18094Y27662D01*
X18046Y27600D01*
X18016Y27527D01*
X18013Y27500D01*
X18256D01*
Y27743D01*
D02*
G37*
G36*
X17548Y27706D02*
Y27463D01*
X17791D01*
X17787Y27491D01*
X17757Y27563D01*
X17710Y27625D01*
X17648Y27673D01*
X17576Y27703D01*
X17548Y27706D01*
D02*
G37*
G36*
X17448D02*
X17421Y27703D01*
X17348Y27673D01*
X17286Y27625D01*
X17239Y27563D01*
X17209Y27491D01*
X17205Y27463D01*
X17448D01*
Y27706D01*
D02*
G37*
G36*
X16741D02*
Y27463D01*
X16984D01*
X16980Y27491D01*
X16950Y27563D01*
X16902Y27625D01*
X16840Y27673D01*
X16768Y27703D01*
X16741Y27706D01*
D02*
G37*
G36*
X16641D02*
X16613Y27703D01*
X16541Y27673D01*
X16479Y27625D01*
X16431Y27563D01*
X16401Y27491D01*
X16398Y27463D01*
X16641D01*
Y27706D01*
D02*
G37*
G36*
X18598Y27400D02*
X18356D01*
Y27157D01*
X18383Y27161D01*
X18455Y27191D01*
X18517Y27238D01*
X18565Y27300D01*
X18595Y27373D01*
X18598Y27400D01*
D02*
G37*
G36*
X18256D02*
X18013D01*
X18016Y27373D01*
X18046Y27300D01*
X18094Y27238D01*
X18156Y27191D01*
X18228Y27161D01*
X18256Y27157D01*
Y27400D01*
D02*
G37*
G36*
X17791Y27363D02*
X17548D01*
Y27121D01*
X17576Y27124D01*
X17648Y27154D01*
X17710Y27202D01*
X17757Y27264D01*
X17787Y27336D01*
X17791Y27363D01*
D02*
G37*
G36*
X17448D02*
X17205D01*
X17209Y27336D01*
X17239Y27264D01*
X17286Y27202D01*
X17348Y27154D01*
X17421Y27124D01*
X17448Y27121D01*
Y27363D01*
D02*
G37*
G36*
X16984D02*
X16741D01*
Y27121D01*
X16768Y27124D01*
X16840Y27154D01*
X16902Y27202D01*
X16950Y27264D01*
X16980Y27336D01*
X16984Y27363D01*
D02*
G37*
G36*
X16641D02*
X16398D01*
X16401Y27336D01*
X16431Y27264D01*
X16479Y27202D01*
X16541Y27154D01*
X16613Y27124D01*
X16641Y27121D01*
Y27363D01*
D02*
G37*
G36*
X18356Y26970D02*
Y26728D01*
X18598D01*
X18595Y26755D01*
X18565Y26827D01*
X18517Y26889D01*
X18455Y26937D01*
X18383Y26967D01*
X18356Y26970D01*
D02*
G37*
G36*
X18256D02*
X18228Y26967D01*
X18156Y26937D01*
X18094Y26889D01*
X18046Y26827D01*
X18016Y26755D01*
X18013Y26728D01*
X18256D01*
Y26970D01*
D02*
G37*
G36*
X17548D02*
Y26728D01*
X17791D01*
X17787Y26755D01*
X17757Y26827D01*
X17710Y26889D01*
X17648Y26937D01*
X17576Y26967D01*
X17548Y26970D01*
D02*
G37*
G36*
X17448D02*
X17421Y26967D01*
X17348Y26937D01*
X17286Y26889D01*
X17239Y26827D01*
X17209Y26755D01*
X17205Y26728D01*
X17448D01*
Y26970D01*
D02*
G37*
G36*
X16741D02*
Y26728D01*
X16984D01*
X16980Y26755D01*
X16950Y26827D01*
X16902Y26889D01*
X16840Y26937D01*
X16768Y26967D01*
X16741Y26970D01*
D02*
G37*
G36*
X16641D02*
X16613Y26967D01*
X16541Y26937D01*
X16479Y26889D01*
X16431Y26827D01*
X16401Y26755D01*
X16398Y26728D01*
X16641D01*
Y26970D01*
D02*
G37*
G36*
X18598Y26628D02*
X18356D01*
Y26385D01*
X18383Y26388D01*
X18455Y26418D01*
X18517Y26466D01*
X18565Y26528D01*
X18595Y26600D01*
X18598Y26628D01*
D02*
G37*
G36*
X18256D02*
X18013D01*
X18016Y26600D01*
X18046Y26528D01*
X18094Y26466D01*
X18156Y26418D01*
X18228Y26388D01*
X18256Y26385D01*
Y26628D01*
D02*
G37*
G36*
X17791D02*
X17548D01*
Y26385D01*
X17576Y26388D01*
X17648Y26418D01*
X17710Y26466D01*
X17757Y26528D01*
X17787Y26600D01*
X17791Y26628D01*
D02*
G37*
G36*
X17448D02*
X17205D01*
X17209Y26600D01*
X17239Y26528D01*
X17286Y26466D01*
X17348Y26418D01*
X17421Y26388D01*
X17448Y26385D01*
Y26628D01*
D02*
G37*
G36*
X16984D02*
X16741D01*
Y26385D01*
X16768Y26388D01*
X16840Y26418D01*
X16902Y26466D01*
X16950Y26528D01*
X16980Y26600D01*
X16984Y26628D01*
D02*
G37*
G36*
X16641D02*
X16398D01*
X16401Y26600D01*
X16431Y26528D01*
X16479Y26466D01*
X16541Y26418D01*
X16613Y26388D01*
X16641Y26385D01*
Y26628D01*
D02*
G37*
G36*
X8297Y26243D02*
Y26000D01*
X8540D01*
X8536Y26027D01*
X8506Y26100D01*
X8459Y26162D01*
X8397Y26209D01*
X8324Y26239D01*
X8297Y26243D01*
D02*
G37*
G36*
X8197D02*
X8169Y26239D01*
X8097Y26209D01*
X8035Y26162D01*
X7988Y26100D01*
X7958Y26027D01*
X7954Y26000D01*
X8197D01*
Y26243D01*
D02*
G37*
G36*
X8540Y25900D02*
X8297D01*
Y25657D01*
X8324Y25661D01*
X8397Y25691D01*
X8459Y25738D01*
X8506Y25800D01*
X8536Y25873D01*
X8540Y25900D01*
D02*
G37*
G36*
X8197D02*
X7954D01*
X7958Y25873D01*
X7988Y25800D01*
X8035Y25738D01*
X8097Y25691D01*
X8169Y25661D01*
X8197Y25657D01*
Y25900D01*
D02*
G37*
G36*
X21700Y25693D02*
Y25450D01*
X21943D01*
X21939Y25477D01*
X21909Y25550D01*
X21862Y25612D01*
X21800Y25659D01*
X21727Y25689D01*
X21700Y25693D01*
D02*
G37*
G36*
X21600D02*
X21573Y25689D01*
X21500Y25659D01*
X21438Y25612D01*
X21391Y25550D01*
X21361Y25477D01*
X21357Y25450D01*
X21600D01*
Y25693D01*
D02*
G37*
G36*
X21943Y25350D02*
X21700D01*
Y25107D01*
X21727Y25111D01*
X21800Y25141D01*
X21862Y25188D01*
X21909Y25250D01*
X21939Y25323D01*
X21943Y25350D01*
D02*
G37*
G36*
X21600D02*
X21357D01*
X21361Y25323D01*
X21391Y25250D01*
X21438Y25188D01*
X21500Y25141D01*
X21573Y25111D01*
X21600Y25107D01*
Y25350D01*
D02*
G37*
G36*
X29123Y24891D02*
X29095Y24887D01*
X29023Y24857D01*
X28961Y24810D01*
X28913Y24748D01*
X28883Y24675D01*
X28880Y24648D01*
X29123D01*
Y24891D01*
D02*
G37*
G36*
X21700Y24115D02*
X21673Y24111D01*
X21600Y24081D01*
X21538Y24033D01*
X21491Y23971D01*
X21461Y23899D01*
X21457Y23872D01*
X21700D01*
Y24115D01*
D02*
G37*
G36*
X20889D02*
Y23872D01*
X21132D01*
X21129Y23899D01*
X21099Y23971D01*
X21051Y24033D01*
X20989Y24081D01*
X20917Y24111D01*
X20889Y24115D01*
D02*
G37*
G36*
X20789D02*
X20762Y24111D01*
X20690Y24081D01*
X20628Y24033D01*
X20580Y23971D01*
X20550Y23899D01*
X20547Y23872D01*
X20789D01*
Y24115D01*
D02*
G37*
G36*
X14830Y23159D02*
Y22916D01*
X15073D01*
X15069Y22944D01*
X15039Y23016D01*
X14992Y23078D01*
X14930Y23126D01*
X14857Y23156D01*
X14830Y23159D01*
D02*
G37*
G36*
X14730D02*
X14702Y23156D01*
X14630Y23126D01*
X14568Y23078D01*
X14521Y23016D01*
X14491Y22944D01*
X14487Y22916D01*
X14730D01*
Y23159D01*
D02*
G37*
G36*
X15073Y22816D02*
X14830D01*
Y22574D01*
X14857Y22577D01*
X14930Y22607D01*
X14992Y22655D01*
X15039Y22717D01*
X15069Y22789D01*
X15073Y22816D01*
D02*
G37*
G36*
X14730D02*
X14487D01*
X14491Y22789D01*
X14521Y22717D01*
X14568Y22655D01*
X14630Y22607D01*
X14702Y22577D01*
X14730Y22574D01*
Y22816D01*
D02*
G37*
G36*
X14736Y14026D02*
Y13783D01*
X14979D01*
X14976Y13811D01*
X14946Y13883D01*
X14898Y13945D01*
X14836Y13993D01*
X14764Y14023D01*
X14736Y14026D01*
D02*
G37*
G36*
X14979Y13683D02*
X14736D01*
Y13441D01*
X14764Y13444D01*
X14836Y13474D01*
X14898Y13522D01*
X14946Y13584D01*
X14976Y13656D01*
X14979Y13683D01*
D02*
G37*
G36*
X14740Y13146D02*
Y12903D01*
X14982D01*
X14979Y12931D01*
X14949Y13003D01*
X14901Y13065D01*
X14839Y13112D01*
X14767Y13142D01*
X14740Y13146D01*
D02*
G37*
G36*
X14982Y12803D02*
X14740D01*
Y12560D01*
X14767Y12564D01*
X14839Y12594D01*
X14901Y12641D01*
X14949Y12703D01*
X14979Y12776D01*
X14982Y12803D01*
D02*
G37*
G36*
X16600Y11966D02*
Y11723D01*
X16843D01*
X16839Y11751D01*
X16809Y11823D01*
X16762Y11885D01*
X16700Y11933D01*
X16627Y11963D01*
X16600Y11966D01*
D02*
G37*
G36*
X16500D02*
X16473Y11963D01*
X16400Y11933D01*
X16338Y11885D01*
X16291Y11823D01*
X16261Y11751D01*
X16257Y11723D01*
X16500D01*
Y11966D01*
D02*
G37*
G36*
X16843Y11623D02*
X16600D01*
Y11381D01*
X16627Y11384D01*
X16700Y11414D01*
X16762Y11462D01*
X16809Y11524D01*
X16839Y11596D01*
X16843Y11623D01*
D02*
G37*
G36*
X16500D02*
X16257D01*
X16261Y11596D01*
X16291Y11524D01*
X16338Y11462D01*
X16400Y11414D01*
X16473Y11384D01*
X16500Y11381D01*
Y11623D01*
D02*
G37*
G36*
X15300Y13599D02*
X15223Y13589D01*
X15150Y13559D01*
X15088Y13512D01*
X15041Y13450D01*
X15011Y13377D01*
X15001Y13300D01*
X15011Y13223D01*
X15041Y13150D01*
X15088Y13088D01*
X15147Y13043D01*
Y10944D01*
X14836D01*
Y9720D01*
X15745D01*
Y10944D01*
X15453D01*
Y13043D01*
X15512Y13088D01*
X15559Y13150D01*
X15589Y13223D01*
X15599Y13300D01*
X15589Y13377D01*
X15559Y13450D01*
X15512Y13512D01*
X15450Y13559D01*
X15377Y13589D01*
X15300Y13599D01*
D02*
G37*
G36*
X9380Y8700D02*
X9137D01*
Y8457D01*
X9165Y8461D01*
X9237Y8491D01*
X9299Y8538D01*
X9347Y8600D01*
X9376Y8673D01*
X9380Y8700D01*
D02*
G37*
G36*
X14160Y8636D02*
Y8394D01*
X14402D01*
X14399Y8421D01*
X14369Y8493D01*
X14321Y8555D01*
X14259Y8603D01*
X14187Y8633D01*
X14160Y8636D01*
D02*
G37*
G36*
X14060D02*
X14032Y8633D01*
X13960Y8603D01*
X13898Y8555D01*
X13850Y8493D01*
X13820Y8421D01*
X13817Y8394D01*
X14060D01*
Y8636D01*
D02*
G37*
G36*
X12214Y8356D02*
X11971D01*
Y8123D01*
X12214D01*
Y8356D01*
D02*
G37*
G36*
X5050Y6997D02*
Y6754D01*
X5293D01*
X5289Y6782D01*
X5259Y6854D01*
X5212Y6916D01*
X5150Y6963D01*
X5077Y6993D01*
X5050Y6997D01*
D02*
G37*
G36*
X4950D02*
X4923Y6993D01*
X4850Y6963D01*
X4788Y6916D01*
X4741Y6854D01*
X4711Y6782D01*
X4707Y6754D01*
X4950D01*
Y6997D01*
D02*
G37*
G36*
X4300D02*
Y6754D01*
X4543D01*
X4539Y6782D01*
X4509Y6854D01*
X4462Y6916D01*
X4400Y6963D01*
X4327Y6993D01*
X4300Y6997D01*
D02*
G37*
G36*
X4200D02*
X4173Y6993D01*
X4100Y6963D01*
X4038Y6916D01*
X3991Y6854D01*
X3961Y6782D01*
X3957Y6754D01*
X4200D01*
Y6997D01*
D02*
G37*
G36*
X3550D02*
Y6754D01*
X3793D01*
X3789Y6782D01*
X3759Y6854D01*
X3712Y6916D01*
X3650Y6963D01*
X3577Y6993D01*
X3550Y6997D01*
D02*
G37*
G36*
X3450D02*
X3423Y6993D01*
X3350Y6963D01*
X3288Y6916D01*
X3241Y6854D01*
X3211Y6782D01*
X3207Y6754D01*
X3450D01*
Y6997D01*
D02*
G37*
G36*
X5293Y6654D02*
X5050D01*
Y6411D01*
X5077Y6415D01*
X5150Y6445D01*
X5212Y6492D01*
X5259Y6554D01*
X5289Y6627D01*
X5293Y6654D01*
D02*
G37*
G36*
X4950D02*
X4707D01*
X4711Y6627D01*
X4741Y6554D01*
X4788Y6492D01*
X4850Y6445D01*
X4923Y6415D01*
X4950Y6411D01*
Y6654D01*
D02*
G37*
G36*
X4543D02*
X4300D01*
Y6411D01*
X4327Y6415D01*
X4400Y6445D01*
X4462Y6492D01*
X4509Y6554D01*
X4539Y6627D01*
X4543Y6654D01*
D02*
G37*
G36*
X4200D02*
X3957D01*
X3961Y6627D01*
X3991Y6554D01*
X4038Y6492D01*
X4100Y6445D01*
X4173Y6415D01*
X4200Y6411D01*
Y6654D01*
D02*
G37*
G36*
X3793D02*
X3550D01*
Y6411D01*
X3577Y6415D01*
X3650Y6445D01*
X3712Y6492D01*
X3759Y6554D01*
X3789Y6627D01*
X3793Y6654D01*
D02*
G37*
G36*
X3450D02*
X3207D01*
X3211Y6627D01*
X3241Y6554D01*
X3288Y6492D01*
X3350Y6445D01*
X3423Y6415D01*
X3450Y6411D01*
Y6654D01*
D02*
G37*
G36*
X5050Y6343D02*
Y6100D01*
X5293D01*
X5289Y6127D01*
X5259Y6200D01*
X5212Y6262D01*
X5150Y6309D01*
X5077Y6339D01*
X5050Y6343D01*
D02*
G37*
G36*
X4950D02*
X4923Y6339D01*
X4850Y6309D01*
X4788Y6262D01*
X4741Y6200D01*
X4711Y6127D01*
X4707Y6100D01*
X4950D01*
Y6343D01*
D02*
G37*
G36*
X4300D02*
Y6100D01*
X4543D01*
X4539Y6127D01*
X4509Y6200D01*
X4462Y6262D01*
X4400Y6309D01*
X4327Y6339D01*
X4300Y6343D01*
D02*
G37*
G36*
X4200D02*
X4173Y6339D01*
X4100Y6309D01*
X4038Y6262D01*
X3991Y6200D01*
X3961Y6127D01*
X3957Y6100D01*
X4200D01*
Y6343D01*
D02*
G37*
G36*
X3550D02*
Y6100D01*
X3793D01*
X3789Y6127D01*
X3759Y6200D01*
X3712Y6262D01*
X3650Y6309D01*
X3577Y6339D01*
X3550Y6343D01*
D02*
G37*
G36*
X3450D02*
X3423Y6339D01*
X3350Y6309D01*
X3288Y6262D01*
X3241Y6200D01*
X3211Y6127D01*
X3207Y6100D01*
X3450D01*
Y6343D01*
D02*
G37*
G36*
X5293Y6000D02*
X5050D01*
Y5757D01*
X5077Y5761D01*
X5150Y5791D01*
X5212Y5838D01*
X5259Y5900D01*
X5289Y5973D01*
X5293Y6000D01*
D02*
G37*
G36*
X4950D02*
X4707D01*
X4711Y5973D01*
X4741Y5900D01*
X4788Y5838D01*
X4850Y5791D01*
X4923Y5761D01*
X4950Y5757D01*
Y6000D01*
D02*
G37*
G36*
X4543D02*
X4300D01*
Y5757D01*
X4327Y5761D01*
X4400Y5791D01*
X4462Y5838D01*
X4509Y5900D01*
X4539Y5973D01*
X4543Y6000D01*
D02*
G37*
G36*
X4200D02*
X3957D01*
X3961Y5973D01*
X3991Y5900D01*
X4038Y5838D01*
X4100Y5791D01*
X4173Y5761D01*
X4200Y5757D01*
Y6000D01*
D02*
G37*
G36*
X3793D02*
X3550D01*
Y5757D01*
X3577Y5761D01*
X3650Y5791D01*
X3712Y5838D01*
X3759Y5900D01*
X3789Y5973D01*
X3793Y6000D01*
D02*
G37*
G36*
X3450D02*
X3207D01*
X3211Y5973D01*
X3241Y5900D01*
X3288Y5838D01*
X3350Y5791D01*
X3423Y5761D01*
X3450Y5757D01*
Y6000D01*
D02*
G37*
G36*
X1181Y2073D02*
X1007Y2056D01*
X840Y2005D01*
X686Y1923D01*
X551Y1812D01*
X440Y1676D01*
X357Y1522D01*
X307Y1355D01*
X289Y1181D01*
X307Y1007D01*
X357Y840D01*
X440Y686D01*
X551Y551D01*
X686Y440D01*
X840Y357D01*
X1007Y307D01*
X1181Y289D01*
X1355Y307D01*
X1522Y357D01*
X1676Y440D01*
X1812Y551D01*
X1923Y686D01*
X2005Y840D01*
X2056Y1007D01*
X2073Y1181D01*
X2056Y1355D01*
X2005Y1522D01*
X1923Y1676D01*
X1812Y1812D01*
X1676Y1923D01*
X1522Y2005D01*
X1355Y2056D01*
X1181Y2073D01*
D02*
G37*
G36*
X26300Y27292D02*
Y27049D01*
X26543D01*
X26539Y27077D01*
X26509Y27149D01*
X26462Y27211D01*
X26400Y27259D01*
X26327Y27289D01*
X26300Y27292D01*
D02*
G37*
G36*
X26200D02*
X26173Y27289D01*
X26100Y27259D01*
X26038Y27211D01*
X25991Y27149D01*
X25961Y27077D01*
X25957Y27049D01*
X26200D01*
Y27292D01*
D02*
G37*
G36*
X26543Y26949D02*
X26300D01*
Y26707D01*
X26327Y26710D01*
X26400Y26740D01*
X26462Y26788D01*
X26509Y26850D01*
X26539Y26922D01*
X26543Y26949D01*
D02*
G37*
G36*
X26200D02*
X25957D01*
X25961Y26922D01*
X25991Y26850D01*
X26038Y26788D01*
X26100Y26740D01*
X26173Y26710D01*
X26200Y26707D01*
Y26949D01*
D02*
G37*
G36*
X27507Y26043D02*
X27264D01*
Y25809D01*
X27507D01*
Y26043D01*
D02*
G37*
G36*
X36434Y25005D02*
X36406Y25001D01*
X36334Y24971D01*
X36272Y24924D01*
X36225Y24862D01*
X36195Y24789D01*
X36191Y24762D01*
X36434D01*
Y25005D01*
D02*
G37*
G36*
X33050Y22703D02*
Y22461D01*
X33293D01*
X33289Y22488D01*
X33260Y22560D01*
X33212Y22622D01*
X33150Y22670D01*
X33078Y22700D01*
X33050Y22703D01*
D02*
G37*
G36*
X32950D02*
X32923Y22700D01*
X32851Y22670D01*
X32789Y22622D01*
X32741Y22560D01*
X32711Y22488D01*
X32707Y22461D01*
X32950D01*
Y22703D01*
D02*
G37*
G36*
X38542Y23345D02*
X37752D01*
Y23060D01*
X37693D01*
Y22151D01*
X38641D01*
Y23060D01*
X38542D01*
Y23345D01*
D02*
G37*
G36*
X33293Y22361D02*
X33050D01*
Y22118D01*
X33078Y22121D01*
X33150Y22151D01*
X33212Y22199D01*
X33260Y22261D01*
X33289Y22333D01*
X33293Y22361D01*
D02*
G37*
G36*
X32950D02*
X32707D01*
X32711Y22333D01*
X32741Y22261D01*
X32789Y22199D01*
X32851Y22151D01*
X32923Y22121D01*
X32950Y22118D01*
Y22361D01*
D02*
G37*
G36*
X37300Y20623D02*
X37273Y20619D01*
X37200Y20589D01*
X37138Y20542D01*
X37091Y20480D01*
X37061Y20408D01*
X37057Y20380D01*
X37300D01*
Y20623D01*
D02*
G37*
G36*
X38043Y20280D02*
X37800D01*
Y20047D01*
X38043D01*
Y20280D01*
D02*
G37*
G36*
X37300D02*
X37057D01*
X37061Y20253D01*
X37091Y20180D01*
X37138Y20118D01*
X37200Y20071D01*
X37273Y20041D01*
X37300Y20037D01*
Y20280D01*
D02*
G37*
G36*
X31256Y19793D02*
Y19550D01*
X31499D01*
X31495Y19577D01*
X31465Y19650D01*
X31418Y19712D01*
X31356Y19759D01*
X31283Y19789D01*
X31256Y19793D01*
D02*
G37*
G36*
X31156D02*
X31128Y19789D01*
X31056Y19759D01*
X30994Y19712D01*
X30947Y19650D01*
X30917Y19577D01*
X30913Y19550D01*
X31156D01*
Y19793D01*
D02*
G37*
G36*
X31499Y19450D02*
X31256D01*
Y19207D01*
X31283Y19211D01*
X31356Y19241D01*
X31418Y19288D01*
X31465Y19350D01*
X31495Y19423D01*
X31499Y19450D01*
D02*
G37*
G36*
X31156D02*
X30913D01*
X30917Y19423D01*
X30947Y19350D01*
X30994Y19288D01*
X31056Y19241D01*
X31128Y19211D01*
X31156Y19207D01*
Y19450D01*
D02*
G37*
G36*
X37100Y18047D02*
X37046Y18040D01*
X36948Y17999D01*
X36865Y17935D01*
X36858Y17927D01*
X36827Y17939D01*
X36800Y17943D01*
Y17650D01*
Y17357D01*
X36827Y17361D01*
X36858Y17373D01*
X36865Y17365D01*
X36948Y17301D01*
X37046Y17260D01*
X37100Y17253D01*
Y17650D01*
X37150D01*
D01*
X37100D01*
Y18047D01*
D02*
G37*
G36*
X37200D02*
Y17700D01*
X37547D01*
X37540Y17754D01*
X37499Y17852D01*
X37435Y17935D01*
X37352Y17999D01*
X37254Y18040D01*
X37200Y18047D01*
D02*
G37*
G36*
X36700Y17943D02*
X36673Y17939D01*
X36600Y17909D01*
X36538Y17862D01*
X36491Y17800D01*
X36461Y17727D01*
X36457Y17700D01*
X36700D01*
Y17943D01*
D02*
G37*
G36*
Y17600D02*
X36457D01*
X36461Y17573D01*
X36491Y17500D01*
X36538Y17438D01*
X36600Y17391D01*
X36673Y17361D01*
X36700Y17357D01*
Y17600D01*
D02*
G37*
G36*
X37547D02*
X37200D01*
Y17253D01*
X37254Y17260D01*
X37352Y17301D01*
X37435Y17365D01*
X37499Y17448D01*
X37540Y17546D01*
X37547Y17600D01*
D02*
G37*
G36*
X38341Y17243D02*
Y17000D01*
X38584D01*
X38580Y17027D01*
X38550Y17100D01*
X38502Y17162D01*
X38440Y17209D01*
X38368Y17239D01*
X38341Y17243D01*
D02*
G37*
G36*
X38241D02*
X38213Y17239D01*
X38141Y17209D01*
X38079Y17162D01*
X38031Y17100D01*
X38001Y17027D01*
X37998Y17000D01*
X38241D01*
Y17243D01*
D02*
G37*
G36*
X38584Y16900D02*
X38341D01*
Y16657D01*
X38368Y16661D01*
X38440Y16691D01*
X38502Y16738D01*
X38550Y16800D01*
X38580Y16873D01*
X38584Y16900D01*
D02*
G37*
G36*
X38241D02*
X37998D01*
X38001Y16873D01*
X38031Y16800D01*
X38079Y16738D01*
X38141Y16691D01*
X38213Y16661D01*
X38241Y16657D01*
Y16900D01*
D02*
G37*
G36*
X38400Y15943D02*
Y15700D01*
X38643D01*
X38639Y15727D01*
X38609Y15800D01*
X38562Y15862D01*
X38500Y15909D01*
X38427Y15939D01*
X38400Y15943D01*
D02*
G37*
G36*
X38300D02*
X38273Y15939D01*
X38200Y15909D01*
X38138Y15862D01*
X38091Y15800D01*
X38061Y15727D01*
X38057Y15700D01*
X38300D01*
Y15943D01*
D02*
G37*
G36*
X38643Y15600D02*
X38400D01*
Y15357D01*
X38427Y15361D01*
X38500Y15391D01*
X38562Y15438D01*
X38609Y15500D01*
X38639Y15573D01*
X38643Y15600D01*
D02*
G37*
G36*
X38300D02*
X38057D01*
X38061Y15573D01*
X38091Y15500D01*
X38138Y15438D01*
X38200Y15391D01*
X38273Y15361D01*
X38300Y15357D01*
Y15600D01*
D02*
G37*
G36*
X37100Y15047D02*
X37046Y15040D01*
X36948Y14999D01*
X36865Y14935D01*
X36858Y14927D01*
X36827Y14939D01*
X36800Y14943D01*
Y14650D01*
Y14357D01*
X36827Y14361D01*
X36858Y14373D01*
X36865Y14365D01*
X36948Y14301D01*
X37046Y14260D01*
X37100Y14253D01*
Y14650D01*
Y15047D01*
D02*
G37*
G36*
X37200D02*
Y14700D01*
X37547D01*
X37540Y14754D01*
X37499Y14852D01*
X37435Y14935D01*
X37352Y14999D01*
X37254Y15040D01*
X37200Y15047D01*
D02*
G37*
G36*
X36700Y14943D02*
X36673Y14939D01*
X36600Y14909D01*
X36538Y14862D01*
X36491Y14800D01*
X36461Y14727D01*
X36457Y14700D01*
X36700D01*
Y14943D01*
D02*
G37*
G36*
Y14600D02*
X36457D01*
X36461Y14573D01*
X36491Y14500D01*
X36538Y14438D01*
X36600Y14391D01*
X36673Y14361D01*
X36700Y14357D01*
Y14600D01*
D02*
G37*
G36*
X37547D02*
X37200D01*
Y14253D01*
X37254Y14260D01*
X37352Y14301D01*
X37435Y14365D01*
X37499Y14448D01*
X37540Y14546D01*
X37547Y14600D01*
D02*
G37*
G36*
X37150Y14053D02*
X37046Y14040D01*
X36948Y13999D01*
X36865Y13935D01*
X36801Y13852D01*
X36760Y13754D01*
X36747Y13650D01*
X36760Y13546D01*
X36801Y13448D01*
X36865Y13365D01*
X36948Y13301D01*
X37046Y13260D01*
X37150Y13247D01*
X37254Y13260D01*
X37352Y13301D01*
X37435Y13365D01*
X37499Y13448D01*
X37540Y13546D01*
X37553Y13650D01*
X37540Y13754D01*
X37499Y13852D01*
X37435Y13935D01*
X37352Y13999D01*
X37254Y14040D01*
X37150Y14053D01*
D02*
G37*
G36*
X34333Y13081D02*
Y12838D01*
X34576D01*
X34572Y12866D01*
X34542Y12938D01*
X34495Y13000D01*
X34433Y13048D01*
X34361Y13077D01*
X34333Y13081D01*
D02*
G37*
G36*
X34233D02*
X34206Y13077D01*
X34133Y13048D01*
X34071Y13000D01*
X34024Y12938D01*
X33994Y12866D01*
X33990Y12838D01*
X34233D01*
Y13081D01*
D02*
G37*
G36*
X31852Y13022D02*
Y12779D01*
X32095D01*
X32091Y12807D01*
X32062Y12879D01*
X32014Y12941D01*
X31952Y12988D01*
X31880Y13018D01*
X31852Y13022D01*
D02*
G37*
G36*
X31752D02*
X31725Y13018D01*
X31653Y12988D01*
X31591Y12941D01*
X31543Y12879D01*
X31513Y12807D01*
X31509Y12779D01*
X31752D01*
Y13022D01*
D02*
G37*
G36*
X34576Y12738D02*
X34333D01*
Y12495D01*
X34361Y12499D01*
X34433Y12529D01*
X34495Y12577D01*
X34542Y12639D01*
X34572Y12711D01*
X34576Y12738D01*
D02*
G37*
G36*
X34233D02*
X33990D01*
X33994Y12711D01*
X34024Y12639D01*
X34071Y12577D01*
X34133Y12529D01*
X34206Y12499D01*
X34233Y12495D01*
Y12738D01*
D02*
G37*
G36*
X32095Y12679D02*
X31852D01*
Y12436D01*
X31880Y12440D01*
X31952Y12470D01*
X32014Y12517D01*
X32062Y12579D01*
X32091Y12652D01*
X32095Y12679D01*
D02*
G37*
G36*
X31752D02*
X31509D01*
X31513Y12652D01*
X31543Y12579D01*
X31591Y12517D01*
X31653Y12470D01*
X31725Y12440D01*
X31752Y12436D01*
Y12679D01*
D02*
G37*
G36*
X38483Y11293D02*
X38483Y11293D01*
X38250D01*
Y11000D01*
Y10707D01*
X38483D01*
X38483Y10707D01*
X38533Y10709D01*
X38550Y10707D01*
Y11000D01*
Y11293D01*
X38533Y11291D01*
X38483Y11293D01*
X38483Y11293D01*
D02*
G37*
G36*
X38650Y11293D02*
Y11050D01*
X38893D01*
X38889Y11077D01*
X38859Y11150D01*
X38812Y11212D01*
X38750Y11259D01*
X38677Y11289D01*
X38650Y11293D01*
D02*
G37*
G36*
X36550Y11290D02*
Y11047D01*
X36793D01*
X36789Y11074D01*
X36759Y11147D01*
X36712Y11209D01*
X36650Y11256D01*
X36577Y11286D01*
X36550Y11290D01*
D02*
G37*
G36*
X38893Y10950D02*
X38650D01*
Y10707D01*
X38677Y10711D01*
X38750Y10741D01*
X38812Y10788D01*
X38859Y10850D01*
X38889Y10923D01*
X38893Y10950D01*
D02*
G37*
G36*
X36793Y10947D02*
X36550D01*
Y10704D01*
X36577Y10708D01*
X36650Y10738D01*
X36712Y10785D01*
X36759Y10847D01*
X36789Y10919D01*
X36793Y10947D01*
D02*
G37*
G36*
X36150Y11386D02*
Y10997D01*
Y10607D01*
X36428D01*
Y10669D01*
X36450Y10688D01*
Y10997D01*
Y11306D01*
X36428Y11325D01*
Y11386D01*
X36150D01*
D02*
G37*
G36*
X34280Y10454D02*
Y10211D01*
X34523D01*
X34519Y10238D01*
X34490Y10310D01*
X34442Y10373D01*
X34380Y10420D01*
X34308Y10450D01*
X34280Y10454D01*
D02*
G37*
G36*
X34180D02*
X34153Y10450D01*
X34081Y10420D01*
X34019Y10373D01*
X33971Y10310D01*
X33941Y10238D01*
X33937Y10211D01*
X34180D01*
Y10454D01*
D02*
G37*
G36*
X34523Y10111D02*
X34280D01*
Y9868D01*
X34308Y9872D01*
X34380Y9901D01*
X34442Y9949D01*
X34490Y10011D01*
X34519Y10083D01*
X34523Y10111D01*
D02*
G37*
G36*
X34180D02*
X33937D01*
X33941Y10083D01*
X33971Y10011D01*
X34019Y9949D01*
X34081Y9901D01*
X34153Y9872D01*
X34180Y9868D01*
Y10111D01*
D02*
G37*
G36*
X28700Y26043D02*
X28457D01*
Y25809D01*
X28700D01*
Y26043D01*
D02*
G37*
G36*
X2615Y24383D02*
Y24140D01*
X2858D01*
X2854Y24167D01*
X2824Y24239D01*
X2777Y24301D01*
X2715Y24349D01*
X2642Y24379D01*
X2615Y24383D01*
D02*
G37*
G36*
X2515D02*
X2487Y24379D01*
X2415Y24349D01*
X2353Y24301D01*
X2306Y24239D01*
X2276Y24167D01*
X2272Y24140D01*
X2515D01*
Y24383D01*
D02*
G37*
G36*
X2858Y24040D02*
X2615D01*
Y23797D01*
X2642Y23801D01*
X2715Y23830D01*
X2777Y23878D01*
X2824Y23940D01*
X2854Y24012D01*
X2858Y24040D01*
D02*
G37*
G36*
X2515D02*
X2272D01*
X2276Y24012D01*
X2306Y23940D01*
X2353Y23878D01*
X2415Y23830D01*
X2487Y23801D01*
X2515Y23797D01*
Y24040D01*
D02*
G37*
G36*
X30016Y23404D02*
X29773D01*
X29777Y23376D01*
X29807Y23304D01*
X29855Y23242D01*
X29917Y23194D01*
X29989Y23164D01*
X30016Y23161D01*
Y23404D01*
D02*
G37*
G36*
X28350Y23143D02*
Y22900D01*
X28593D01*
X28589Y22927D01*
X28559Y23000D01*
X28512Y23062D01*
X28450Y23109D01*
X28377Y23139D01*
X28350Y23143D01*
D02*
G37*
G36*
X28250D02*
X28223Y23139D01*
X28150Y23109D01*
X28088Y23062D01*
X28041Y23000D01*
X28011Y22927D01*
X28007Y22900D01*
X28250D01*
Y23143D01*
D02*
G37*
G36*
X28593Y22800D02*
X28350D01*
Y22557D01*
X28377Y22561D01*
X28450Y22591D01*
X28512Y22638D01*
X28559Y22700D01*
X28589Y22773D01*
X28593Y22800D01*
D02*
G37*
G36*
X28250D02*
X28007D01*
X28011Y22773D01*
X28041Y22700D01*
X28088Y22638D01*
X28150Y22591D01*
X28223Y22561D01*
X28250Y22557D01*
Y22800D01*
D02*
G37*
G36*
X24500Y23114D02*
Y22871D01*
X24743D01*
X24739Y22898D01*
X24709Y22970D01*
X24662Y23032D01*
X24600Y23080D01*
X24527Y23110D01*
X24500Y23114D01*
D02*
G37*
G36*
X24400D02*
X24373Y23110D01*
X24300Y23080D01*
X24238Y23032D01*
X24191Y22970D01*
X24161Y22898D01*
X24157Y22871D01*
X24400D01*
Y23114D01*
D02*
G37*
G36*
X24743Y22771D02*
X24500D01*
Y22528D01*
X24527Y22532D01*
X24600Y22561D01*
X24662Y22609D01*
X24709Y22671D01*
X24739Y22743D01*
X24743Y22771D01*
D02*
G37*
G36*
X24400D02*
X24157D01*
X24161Y22743D01*
X24191Y22671D01*
X24238Y22609D01*
X24300Y22561D01*
X24373Y22532D01*
X24400Y22528D01*
Y22771D01*
D02*
G37*
G36*
X11874Y22552D02*
Y22310D01*
X12117D01*
X12113Y22337D01*
X12083Y22409D01*
X12036Y22471D01*
X11974Y22519D01*
X11902Y22549D01*
X11874Y22552D01*
D02*
G37*
G36*
X11774D02*
X11747Y22549D01*
X11674Y22519D01*
X11612Y22471D01*
X11565Y22409D01*
X11535Y22337D01*
X11531Y22310D01*
X11774D01*
Y22552D01*
D02*
G37*
G36*
X12117Y22210D02*
X11874D01*
Y21967D01*
X11902Y21970D01*
X11974Y22000D01*
X12036Y22048D01*
X12083Y22110D01*
X12113Y22182D01*
X12117Y22210D01*
D02*
G37*
G36*
X11774D02*
X11531D01*
X11535Y22182D01*
X11565Y22110D01*
X11612Y22048D01*
X11674Y22000D01*
X11747Y21970D01*
X11774Y21967D01*
Y22210D01*
D02*
G37*
G36*
X10408Y22552D02*
Y22310D01*
X10651D01*
X10647Y22337D01*
X10617Y22409D01*
X10570Y22471D01*
X10508Y22519D01*
X10435Y22549D01*
X10408Y22552D01*
D02*
G37*
G36*
X10308D02*
X10280Y22549D01*
X10208Y22519D01*
X10146Y22471D01*
X10099Y22409D01*
X10069Y22337D01*
X10065Y22310D01*
X10308D01*
Y22552D01*
D02*
G37*
G36*
X10651Y22210D02*
X10408D01*
Y21967D01*
X10435Y21970D01*
X10508Y22000D01*
X10570Y22048D01*
X10617Y22110D01*
X10647Y22182D01*
X10651Y22210D01*
D02*
G37*
G36*
X10308D02*
X10065D01*
X10069Y22182D01*
X10099Y22110D01*
X10146Y22048D01*
X10208Y22000D01*
X10280Y21970D01*
X10308Y21967D01*
Y22210D01*
D02*
G37*
G36*
X17963Y19160D02*
X17935Y19156D01*
X17863Y19126D01*
X17801Y19079D01*
X17753Y19017D01*
X17724Y18945D01*
X17720Y18917D01*
X17963D01*
Y19160D01*
D02*
G37*
G36*
Y18817D02*
X17720D01*
X17724Y18790D01*
X17753Y18717D01*
X17801Y18655D01*
X17863Y18608D01*
X17935Y18578D01*
X17963Y18574D01*
Y18817D01*
D02*
G37*
G36*
X18247Y19160D02*
X18063D01*
Y18867D01*
Y18574D01*
X18247D01*
Y18867D01*
Y19160D01*
D02*
G37*
G36*
X13523Y19593D02*
Y19350D01*
X13766D01*
X13762Y19377D01*
X13732Y19450D01*
X13685Y19512D01*
X13623Y19559D01*
X13551Y19589D01*
X13523Y19593D01*
D02*
G37*
G36*
X13423D02*
X13396Y19589D01*
X13323Y19559D01*
X13261Y19512D01*
X13214Y19450D01*
X13184Y19377D01*
X13180Y19350D01*
X13423D01*
Y19593D01*
D02*
G37*
G36*
X13766Y19250D02*
X13523D01*
Y19007D01*
X13551Y19011D01*
X13623Y19041D01*
X13685Y19088D01*
X13732Y19150D01*
X13762Y19223D01*
X13766Y19250D01*
D02*
G37*
G36*
X13423D02*
X13180D01*
X13184Y19223D01*
X13214Y19150D01*
X13261Y19088D01*
X13323Y19041D01*
X13396Y19011D01*
X13423Y19007D01*
Y19250D01*
D02*
G37*
G36*
X8297Y22694D02*
Y22452D01*
X8540D01*
X8536Y22479D01*
X8506Y22551D01*
X8459Y22613D01*
X8397Y22661D01*
X8324Y22691D01*
X8297Y22694D01*
D02*
G37*
G36*
X8197D02*
X8169Y22691D01*
X8097Y22661D01*
X8035Y22613D01*
X7988Y22551D01*
X7958Y22479D01*
X7954Y22452D01*
X8197D01*
Y22694D01*
D02*
G37*
G36*
X8540Y22352D02*
X8297D01*
Y22109D01*
X8324Y22112D01*
X8397Y22142D01*
X8459Y22190D01*
X8506Y22252D01*
X8536Y22324D01*
X8540Y22352D01*
D02*
G37*
G36*
X8197D02*
X7954D01*
X7958Y22324D01*
X7988Y22252D01*
X8035Y22190D01*
X8097Y22142D01*
X8169Y22112D01*
X8197Y22109D01*
Y22352D01*
D02*
G37*
G36*
X31319Y16799D02*
Y16557D01*
X31562D01*
X31558Y16584D01*
X31528Y16656D01*
X31481Y16718D01*
X31419Y16766D01*
X31347Y16796D01*
X31319Y16799D01*
D02*
G37*
G36*
X31219D02*
X31192Y16796D01*
X31119Y16766D01*
X31057Y16718D01*
X31010Y16656D01*
X30980Y16584D01*
X30976Y16557D01*
X31219D01*
Y16799D01*
D02*
G37*
G36*
X31562Y16457D02*
X31319D01*
Y16214D01*
X31347Y16217D01*
X31419Y16247D01*
X31481Y16295D01*
X31528Y16357D01*
X31558Y16429D01*
X31562Y16457D01*
D02*
G37*
G36*
X31219D02*
X30976D01*
X30980Y16429D01*
X31010Y16357D01*
X31057Y16295D01*
X31119Y16247D01*
X31192Y16217D01*
X31219Y16214D01*
Y16457D01*
D02*
G37*
G36*
X13916Y15350D02*
X13673D01*
Y15107D01*
X13700Y15111D01*
X13773Y15141D01*
X13835Y15188D01*
X13882Y15250D01*
X13912Y15323D01*
X13916Y15350D01*
D02*
G37*
G36*
X14808Y15193D02*
Y14950D01*
X15051D01*
X15047Y14977D01*
X15017Y15050D01*
X14970Y15112D01*
X14908Y15159D01*
X14836Y15189D01*
X14808Y15193D01*
D02*
G37*
G36*
X14708D02*
X14681Y15189D01*
X14608Y15159D01*
X14546Y15112D01*
X14499Y15050D01*
X14469Y14977D01*
X14465Y14950D01*
X14708D01*
Y15193D01*
D02*
G37*
G36*
X16294Y15082D02*
X16051D01*
X16054Y15054D01*
X16084Y14982D01*
X16132Y14920D01*
X16194Y14872D01*
X16266Y14842D01*
X16294Y14839D01*
Y15082D01*
D02*
G37*
G36*
X15051Y14850D02*
X14808D01*
Y14607D01*
X14836Y14611D01*
X14908Y14641D01*
X14970Y14688D01*
X15017Y14750D01*
X15047Y14823D01*
X15051Y14850D01*
D02*
G37*
G36*
X14708D02*
X14465D01*
X14469Y14823D01*
X14499Y14750D01*
X14546Y14688D01*
X14608Y14641D01*
X14681Y14611D01*
X14708Y14607D01*
Y14850D01*
D02*
G37*
G36*
X8653Y15229D02*
Y14987D01*
X8896D01*
X8893Y15014D01*
X8863Y15086D01*
X8815Y15148D01*
X8753Y15196D01*
X8681Y15226D01*
X8653Y15229D01*
D02*
G37*
G36*
X8553D02*
X8526Y15226D01*
X8454Y15196D01*
X8392Y15148D01*
X8344Y15086D01*
X8314Y15014D01*
X8310Y14987D01*
X8553D01*
Y15229D01*
D02*
G37*
G36*
X8896Y14887D02*
X8653D01*
Y14644D01*
X8681Y14647D01*
X8753Y14677D01*
X8815Y14725D01*
X8863Y14787D01*
X8893Y14859D01*
X8896Y14887D01*
D02*
G37*
G36*
X8553D02*
X8310D01*
X8314Y14859D01*
X8344Y14787D01*
X8392Y14725D01*
X8454Y14677D01*
X8526Y14647D01*
X8553Y14644D01*
Y14887D01*
D02*
G37*
G36*
X28400Y12443D02*
Y12200D01*
X28643D01*
X28639Y12227D01*
X28609Y12300D01*
X28562Y12362D01*
X28500Y12409D01*
X28427Y12439D01*
X28400Y12443D01*
D02*
G37*
G36*
X28300D02*
X28273Y12439D01*
X28200Y12409D01*
X28138Y12362D01*
X28091Y12300D01*
X28061Y12227D01*
X28057Y12200D01*
X28300D01*
Y12443D01*
D02*
G37*
G36*
X28643Y12100D02*
X28400D01*
Y11857D01*
X28427Y11861D01*
X28500Y11891D01*
X28562Y11938D01*
X28609Y12000D01*
X28639Y12073D01*
X28643Y12100D01*
D02*
G37*
G36*
X28300D02*
X28057D01*
X28061Y12073D01*
X28091Y12000D01*
X28138Y11938D01*
X28200Y11891D01*
X28273Y11861D01*
X28300Y11857D01*
Y12100D01*
D02*
G37*
G36*
X9789Y11518D02*
Y11275D01*
X10032D01*
X10028Y11303D01*
X9998Y11375D01*
X9950Y11437D01*
X9888Y11485D01*
X9816Y11515D01*
X9789Y11518D01*
D02*
G37*
G36*
X9689D02*
X9661Y11515D01*
X9589Y11485D01*
X9527Y11437D01*
X9479Y11375D01*
X9449Y11303D01*
X9446Y11275D01*
X9689D01*
Y11518D01*
D02*
G37*
G36*
X10032Y11175D02*
X9789D01*
Y10933D01*
X9816Y10936D01*
X9888Y10966D01*
X9950Y11014D01*
X9998Y11076D01*
X10028Y11148D01*
X10032Y11175D01*
D02*
G37*
G36*
X9689D02*
X9446D01*
X9449Y11148D01*
X9479Y11076D01*
X9527Y11014D01*
X9589Y10966D01*
X9661Y10936D01*
X9689Y10933D01*
Y11175D01*
D02*
G37*
G36*
X26841Y11981D02*
X26548D01*
X26255D01*
Y11800D01*
X26841D01*
Y11981D01*
D02*
G37*
G36*
X26841Y11700D02*
X26598D01*
Y11457D01*
X26626Y11461D01*
X26698Y11491D01*
X26760Y11538D01*
X26807Y11600D01*
X26837Y11673D01*
X26841Y11700D01*
D02*
G37*
G36*
X26498D02*
X26255D01*
X26259Y11673D01*
X26289Y11600D01*
X26336Y11538D01*
X26398Y11491D01*
X26471Y11461D01*
X26498Y11457D01*
Y11700D01*
D02*
G37*
G36*
X26189Y11081D02*
Y10838D01*
X26432D01*
X26428Y10866D01*
X26398Y10938D01*
X26351Y11000D01*
X26289Y11048D01*
X26216Y11077D01*
X26189Y11081D01*
D02*
G37*
G36*
X26089D02*
X26061Y11077D01*
X25989Y11048D01*
X25927Y11000D01*
X25880Y10938D01*
X25850Y10866D01*
X25846Y10838D01*
X26089D01*
Y11081D01*
D02*
G37*
G36*
X26432Y10738D02*
X26189D01*
Y10495D01*
X26216Y10499D01*
X26289Y10529D01*
X26351Y10577D01*
X26398Y10639D01*
X26428Y10711D01*
X26432Y10738D01*
D02*
G37*
G36*
X26089D02*
X25846D01*
X25850Y10711D01*
X25880Y10639D01*
X25927Y10577D01*
X25989Y10529D01*
X26061Y10499D01*
X26089Y10495D01*
Y10738D01*
D02*
G37*
G36*
X27132Y9793D02*
Y9550D01*
X27375D01*
X27371Y9577D01*
X27342Y9650D01*
X27294Y9712D01*
X27232Y9759D01*
X27160Y9789D01*
X27132Y9793D01*
D02*
G37*
G36*
X27032D02*
X27005Y9789D01*
X26933Y9759D01*
X26871Y9712D01*
X26823Y9650D01*
X26793Y9577D01*
X26789Y9550D01*
X27032D01*
Y9793D01*
D02*
G37*
G36*
X24293Y11981D02*
X24000D01*
X23707D01*
Y11750D01*
X24293D01*
Y11981D01*
D02*
G37*
G36*
X24293Y11650D02*
X24050D01*
Y11407D01*
X24077Y11411D01*
X24150Y11441D01*
X24212Y11488D01*
X24259Y11550D01*
X24289Y11623D01*
X24293Y11650D01*
D02*
G37*
G36*
X23950D02*
X23707D01*
X23711Y11623D01*
X23741Y11550D01*
X23788Y11488D01*
X23850Y11441D01*
X23923Y11411D01*
X23950Y11407D01*
Y11650D01*
D02*
G37*
G36*
X29929Y12443D02*
Y12200D01*
X30172D01*
X30168Y12227D01*
X30138Y12300D01*
X30091Y12362D01*
X30029Y12409D01*
X29957Y12439D01*
X29929Y12443D01*
D02*
G37*
G36*
X29829D02*
X29802Y12439D01*
X29729Y12409D01*
X29667Y12362D01*
X29620Y12300D01*
X29590Y12227D01*
X29586Y12200D01*
X29829D01*
Y12443D01*
D02*
G37*
G36*
X30172Y12100D02*
X29929D01*
Y11857D01*
X29957Y11861D01*
X30029Y11891D01*
X30091Y11938D01*
X30138Y12000D01*
X30168Y12073D01*
X30172Y12100D01*
D02*
G37*
G36*
X29829D02*
X29586D01*
X29590Y12073D01*
X29620Y12000D01*
X29667Y11938D01*
X29729Y11891D01*
X29802Y11861D01*
X29829Y11857D01*
Y12100D01*
D02*
G37*
G36*
X19723Y12670D02*
Y12427D01*
X19966D01*
X19963Y12455D01*
X19933Y12527D01*
X19885Y12589D01*
X19823Y12637D01*
X19751Y12667D01*
X19723Y12670D01*
D02*
G37*
G36*
X19623D02*
X19596Y12667D01*
X19524Y12637D01*
X19462Y12589D01*
X19414Y12527D01*
X19384Y12455D01*
X19381Y12427D01*
X19623D01*
Y12670D01*
D02*
G37*
G36*
X19966Y12327D02*
X19723D01*
Y12084D01*
X19751Y12088D01*
X19823Y12118D01*
X19885Y12166D01*
X19933Y12228D01*
X19963Y12300D01*
X19966Y12327D01*
D02*
G37*
G36*
X19623D02*
X19381D01*
X19384Y12300D01*
X19414Y12228D01*
X19462Y12166D01*
X19524Y12118D01*
X19596Y12088D01*
X19623Y12084D01*
Y12327D01*
D02*
G37*
G36*
X21043Y10635D02*
X20750D01*
X20457D01*
Y10401D01*
X20457Y10401D01*
X20459Y10351D01*
X20457Y10335D01*
X21043D01*
X21041Y10351D01*
X21043Y10401D01*
X21043Y10401D01*
X21043Y10401D01*
Y10635D01*
D02*
G37*
G36*
X19430Y10503D02*
Y10260D01*
X19673D01*
X19669Y10288D01*
X19640Y10360D01*
X19592Y10422D01*
X19530Y10469D01*
X19458Y10499D01*
X19430Y10503D01*
D02*
G37*
G36*
X19330D02*
X19303Y10499D01*
X19231Y10469D01*
X19169Y10422D01*
X19121Y10360D01*
X19091Y10288D01*
X19087Y10260D01*
X19330D01*
Y10503D01*
D02*
G37*
G36*
X13396Y11981D02*
X13318Y11971D01*
X13246Y11941D01*
X13184Y11893D01*
X13136Y11831D01*
X13106Y11759D01*
X13096Y11682D01*
X13106Y11604D01*
X13136Y11532D01*
X13184Y11470D01*
X13246Y11422D01*
X13318Y11393D01*
X13396Y11382D01*
X13473Y11393D01*
X13545Y11422D01*
X13607Y11470D01*
X13655Y11532D01*
X13685Y11604D01*
X13695Y11682D01*
X13685Y11759D01*
X13655Y11831D01*
X13607Y11893D01*
X13545Y11941D01*
X13473Y11971D01*
X13396Y11981D01*
D02*
G37*
G36*
X30193Y10141D02*
X29950D01*
Y9898D01*
X29977Y9902D01*
X30050Y9932D01*
X30112Y9979D01*
X30159Y10041D01*
X30189Y10113D01*
X30193Y10141D01*
D02*
G37*
G36*
X29850D02*
X29607D01*
X29611Y10113D01*
X29641Y10041D01*
X29688Y9979D01*
X29750Y9932D01*
X29823Y9902D01*
X29850Y9898D01*
Y10141D01*
D02*
G37*
G36*
X2751Y11229D02*
X2406D01*
Y10883D01*
X2751D01*
Y11229D01*
D02*
G37*
G36*
X1406Y11225D02*
Y10883D01*
X1748D01*
X1741Y10937D01*
X1701Y11033D01*
X1637Y11115D01*
X1555Y11179D01*
X1459Y11218D01*
X1406Y11225D01*
D02*
G37*
G36*
X1306D02*
X1252Y11218D01*
X1156Y11179D01*
X1074Y11115D01*
X1010Y11033D01*
X970Y10937D01*
X963Y10883D01*
X1306D01*
Y11225D01*
D02*
G37*
G36*
X2306Y11229D02*
X1960D01*
Y10883D01*
X2306D01*
Y11229D01*
D02*
G37*
G36*
X1748Y10783D02*
X1406D01*
Y10441D01*
X1459Y10448D01*
X1555Y10488D01*
X1637Y10551D01*
X1701Y10634D01*
X1741Y10730D01*
X1748Y10783D01*
D02*
G37*
G36*
X1306D02*
X963D01*
X970Y10730D01*
X1010Y10634D01*
X1074Y10551D01*
X1156Y10488D01*
X1252Y10448D01*
X1306Y10441D01*
Y10783D01*
D02*
G37*
G36*
X2751D02*
X2406D01*
Y10438D01*
X2751D01*
Y10783D01*
D02*
G37*
G36*
X2306D02*
X1960D01*
Y10438D01*
X2306D01*
Y10783D01*
D02*
G37*
G36*
X2615Y9471D02*
Y9228D01*
X2858D01*
X2854Y9256D01*
X2824Y9328D01*
X2777Y9390D01*
X2715Y9438D01*
X2642Y9468D01*
X2615Y9471D01*
D02*
G37*
G36*
X2515D02*
X2487Y9468D01*
X2415Y9438D01*
X2353Y9390D01*
X2306Y9328D01*
X2276Y9256D01*
X2272Y9228D01*
X2515D01*
Y9471D01*
D02*
G37*
G36*
X2858Y9128D02*
X2615D01*
Y8886D01*
X2642Y8889D01*
X2715Y8919D01*
X2777Y8967D01*
X2824Y9029D01*
X2854Y9101D01*
X2858Y9128D01*
D02*
G37*
G36*
X2515D02*
X2272D01*
X2276Y9101D01*
X2306Y9029D01*
X2353Y8967D01*
X2415Y8919D01*
X2487Y8889D01*
X2515Y8886D01*
Y9128D01*
D02*
G37*
G36*
X38500Y8250D02*
X38257D01*
X38261Y8223D01*
X38291Y8150D01*
X38338Y8088D01*
X38400Y8041D01*
X38473Y8011D01*
X38500Y8007D01*
Y8250D01*
D02*
G37*
G36*
X37943Y8224D02*
X37700D01*
Y7981D01*
X37727Y7985D01*
X37800Y8015D01*
X37862Y8062D01*
X37909Y8124D01*
X37939Y8197D01*
X37943Y8224D01*
D02*
G37*
G36*
X36774Y7494D02*
X36531D01*
Y7252D01*
X36559Y7255D01*
X36631Y7285D01*
X36693Y7333D01*
X36740Y7395D01*
X36770Y7467D01*
X36774Y7494D01*
D02*
G37*
G36*
X36431D02*
X36188D01*
X36192Y7467D01*
X36222Y7395D01*
X36269Y7333D01*
X36331Y7285D01*
X36404Y7255D01*
X36431Y7252D01*
Y7494D01*
D02*
G37*
G36*
X30250Y8200D02*
X30007D01*
Y7957D01*
X30034Y7961D01*
X30106Y7991D01*
X30168Y8038D01*
X30216Y8100D01*
X30246Y8173D01*
X30250Y8200D01*
D02*
G37*
G36*
X19874Y5754D02*
Y5511D01*
X20117D01*
X20113Y5539D01*
X20083Y5611D01*
X20036Y5673D01*
X19974Y5720D01*
X19902Y5750D01*
X19874Y5754D01*
D02*
G37*
G36*
X19774D02*
X19747Y5750D01*
X19674Y5720D01*
X19612Y5673D01*
X19565Y5611D01*
X19535Y5539D01*
X19531Y5511D01*
X19774D01*
Y5754D01*
D02*
G37*
G36*
X20117Y5411D02*
X19874D01*
Y5168D01*
X19902Y5172D01*
X19974Y5202D01*
X20036Y5249D01*
X20083Y5311D01*
X20113Y5384D01*
X20117Y5411D01*
D02*
G37*
G36*
X19774D02*
X19531D01*
X19535Y5384D01*
X19565Y5311D01*
X19612Y5249D01*
X19674Y5202D01*
X19747Y5172D01*
X19774Y5168D01*
Y5411D01*
D02*
G37*
G36*
X19500Y4142D02*
Y3800D01*
X19842D01*
X19835Y3853D01*
X19795Y3949D01*
X19732Y4032D01*
X19649Y4095D01*
X19553Y4135D01*
X19500Y4142D01*
D02*
G37*
G36*
X15911Y7192D02*
X15668D01*
X15671Y7164D01*
X15701Y7092D01*
X15749Y7030D01*
X15811Y6983D01*
X15883Y6953D01*
X15911Y6949D01*
Y7192D01*
D02*
G37*
G36*
X16600Y7119D02*
X16357D01*
X16361Y7092D01*
X16391Y7019D01*
X16438Y6957D01*
X16500Y6910D01*
X16573Y6880D01*
X16600Y6876D01*
Y7119D01*
D02*
G37*
G36*
X32570Y5342D02*
Y5099D01*
X32813D01*
X32809Y5126D01*
X32780Y5199D01*
X32732Y5261D01*
X32670Y5308D01*
X32598Y5338D01*
X32570Y5342D01*
D02*
G37*
G36*
X32470D02*
X32443Y5338D01*
X32371Y5308D01*
X32309Y5261D01*
X32261Y5199D01*
X32231Y5126D01*
X32227Y5099D01*
X32470D01*
Y5342D01*
D02*
G37*
G36*
X32813Y4999D02*
X32570D01*
Y4756D01*
X32598Y4760D01*
X32670Y4790D01*
X32732Y4837D01*
X32780Y4899D01*
X32809Y4971D01*
X32813Y4999D01*
D02*
G37*
G36*
X32470D02*
X32227D01*
X32231Y4971D01*
X32261Y4899D01*
X32309Y4837D01*
X32371Y4790D01*
X32443Y4760D01*
X32470Y4756D01*
Y4999D01*
D02*
G37*
G36*
X18213Y5754D02*
Y5511D01*
X18455D01*
X18452Y5539D01*
X18422Y5611D01*
X18374Y5673D01*
X18312Y5720D01*
X18240Y5750D01*
X18213Y5754D01*
D02*
G37*
G36*
X18113D02*
X18085Y5750D01*
X18013Y5720D01*
X17951Y5673D01*
X17903Y5611D01*
X17873Y5539D01*
X17870Y5511D01*
X18113D01*
Y5754D01*
D02*
G37*
G36*
X18455Y5411D02*
X18213D01*
Y5168D01*
X18240Y5172D01*
X18312Y5202D01*
X18374Y5249D01*
X18422Y5311D01*
X18452Y5384D01*
X18455Y5411D01*
D02*
G37*
G36*
X18113D02*
X17870D01*
X17873Y5384D01*
X17903Y5311D01*
X17951Y5249D01*
X18013Y5202D01*
X18085Y5172D01*
X18113Y5168D01*
Y5411D01*
D02*
G37*
G36*
X15252Y5220D02*
X15010D01*
Y4977D01*
X15037Y4981D01*
X15109Y5011D01*
X15171Y5059D01*
X15219Y5121D01*
X15249Y5193D01*
X15252Y5220D01*
D02*
G37*
G36*
X14910D02*
X14667D01*
X14670Y5193D01*
X14700Y5121D01*
X14748Y5059D01*
X14810Y5011D01*
X14882Y4981D01*
X14910Y4977D01*
Y5220D01*
D02*
G37*
G36*
X14402D02*
X14160D01*
Y4977D01*
X14187Y4981D01*
X14259Y5011D01*
X14321Y5059D01*
X14369Y5121D01*
X14399Y5193D01*
X14402Y5220D01*
D02*
G37*
G36*
X14060D02*
X13817D01*
X13820Y5193D01*
X13850Y5121D01*
X13898Y5059D01*
X13960Y5011D01*
X14032Y4981D01*
X14060Y4977D01*
Y5220D01*
D02*
G37*
G36*
X8530Y4293D02*
Y4050D01*
X8773D01*
X8769Y4077D01*
X8739Y4150D01*
X8692Y4212D01*
X8630Y4259D01*
X8557Y4289D01*
X8530Y4293D01*
D02*
G37*
G36*
X8430D02*
X8402Y4289D01*
X8330Y4259D01*
X8268Y4212D01*
X8221Y4150D01*
X8191Y4077D01*
X8187Y4050D01*
X8430D01*
Y4293D01*
D02*
G37*
G36*
X8773Y3950D02*
X8530D01*
Y3707D01*
X8557Y3711D01*
X8630Y3741D01*
X8692Y3788D01*
X8739Y3850D01*
X8769Y3923D01*
X8773Y3950D01*
D02*
G37*
G36*
X8430D02*
X8187D01*
X8191Y3923D01*
X8221Y3850D01*
X8268Y3788D01*
X8330Y3741D01*
X8402Y3711D01*
X8430Y3707D01*
Y3950D01*
D02*
G37*
G36*
X15252Y3263D02*
X15010D01*
Y3020D01*
X15037Y3024D01*
X15109Y3053D01*
X15171Y3101D01*
X15219Y3163D01*
X15249Y3235D01*
X15252Y3263D01*
D02*
G37*
G36*
X14910D02*
X14667D01*
X14670Y3235D01*
X14700Y3163D01*
X14748Y3101D01*
X14810Y3053D01*
X14882Y3024D01*
X14910Y3020D01*
Y3263D01*
D02*
G37*
G36*
X14402D02*
X14160D01*
Y3020D01*
X14187Y3024D01*
X14259Y3053D01*
X14321Y3101D01*
X14369Y3163D01*
X14399Y3235D01*
X14402Y3263D01*
D02*
G37*
G36*
X14060D02*
X13817D01*
X13820Y3235D01*
X13850Y3163D01*
X13898Y3101D01*
X13960Y3053D01*
X14032Y3024D01*
X14060Y3020D01*
Y3263D01*
D02*
G37*
G36*
X13552D02*
X13309D01*
Y3020D01*
X13337Y3024D01*
X13409Y3053D01*
X13471Y3101D01*
X13519Y3163D01*
X13549Y3235D01*
X13552Y3263D01*
D02*
G37*
G36*
X13209D02*
X12967D01*
X12970Y3235D01*
X13000Y3163D01*
X13048Y3101D01*
X13110Y3053D01*
X13182Y3024D01*
X13209Y3020D01*
Y3263D01*
D02*
G37*
G36*
X33293Y3147D02*
X33050D01*
Y2904D01*
X33077Y2908D01*
X33150Y2938D01*
X33212Y2985D01*
X33259Y3047D01*
X33289Y3119D01*
X33293Y3147D01*
D02*
G37*
G36*
X32950D02*
X32707D01*
X32711Y3119D01*
X32741Y3047D01*
X32788Y2985D01*
X32850Y2938D01*
X32923Y2908D01*
X32950Y2904D01*
Y3147D01*
D02*
G37*
G36*
X32343D02*
X32100D01*
Y2904D01*
X32127Y2908D01*
X32200Y2938D01*
X32262Y2985D01*
X32309Y3047D01*
X32339Y3119D01*
X32343Y3147D01*
D02*
G37*
G36*
X36774Y2644D02*
X36531D01*
Y2402D01*
X36559Y2405D01*
X36631Y2435D01*
X36693Y2483D01*
X36740Y2545D01*
X36770Y2617D01*
X36774Y2644D01*
D02*
G37*
G36*
X36431D02*
X36188D01*
X36192Y2617D01*
X36222Y2545D01*
X36269Y2483D01*
X36331Y2435D01*
X36404Y2405D01*
X36431Y2402D01*
Y2644D01*
D02*
G37*
G36*
X23252Y6375D02*
Y6132D01*
X23494D01*
X23491Y6159D01*
X23461Y6231D01*
X23413Y6294D01*
X23351Y6341D01*
X23279Y6371D01*
X23252Y6375D01*
D02*
G37*
G36*
X23152D02*
X23124Y6371D01*
X23052Y6341D01*
X22990Y6294D01*
X22942Y6231D01*
X22912Y6159D01*
X22909Y6132D01*
X23152D01*
Y6375D01*
D02*
G37*
G36*
X23494Y6032D02*
X23252D01*
Y5789D01*
X23279Y5793D01*
X23351Y5822D01*
X23413Y5870D01*
X23461Y5932D01*
X23491Y6004D01*
X23494Y6032D01*
D02*
G37*
G36*
X23152D02*
X22909D01*
X22912Y6004D01*
X22942Y5932D01*
X22990Y5870D01*
X23052Y5822D01*
X23124Y5793D01*
X23152Y5789D01*
Y6032D01*
D02*
G37*
%LPD*%
D15*
X12368Y6375D02*
X12393Y6350D01*
X12775D01*
X12964Y6161D01*
X13272D01*
Y5256D02*
Y5555D01*
X13103Y5087D02*
X13272Y5256D01*
X11455Y5087D02*
X13103D01*
X11275Y5267D02*
X11455Y5087D01*
X11275Y5267D02*
Y5618D01*
X11266Y5627D02*
X11275Y5618D01*
X27557Y26093D02*
X28407D01*
X23166Y23500D02*
X23450D01*
X36994Y7944D02*
X37550Y8500D01*
X37065Y3094D02*
X37650Y3680D01*
X27434Y5704D02*
X28434Y5701D01*
X25434Y5700D02*
X26600D01*
X8247Y12553D02*
X8547Y12853D01*
X5999Y18867D02*
X6283D01*
X10409Y6161D02*
X10624Y6375D01*
X26600Y5700D02*
X27434Y5704D01*
X28450Y3796D02*
Y4150D01*
X28000Y4600D02*
X28450Y4150D01*
X25100Y4600D02*
X28000D01*
X9200Y22350D02*
X10321Y23471D01*
X9200Y20791D02*
Y22350D01*
X10321Y23471D02*
Y23839D01*
X10177Y19558D02*
Y20096D01*
X17700Y15650D02*
X18236D01*
X16950D02*
X17700D01*
X12750Y8059D02*
X13237D01*
X12314D02*
X12750D01*
X16809Y4850D02*
Y5554D01*
Y4203D02*
Y4850D01*
X30003Y14350D02*
Y14635D01*
X30003Y15404D02*
Y15688D01*
X30003Y16467D02*
Y16751D01*
Y18584D02*
Y18868D01*
Y20700D02*
Y20985D01*
Y21975D02*
Y22260D01*
X30066Y23454D02*
X30350D01*
X29173Y24598D02*
X29457D01*
X25516Y23454D02*
X25600Y23538D01*
X23400Y23454D02*
X25516D01*
X20839Y23538D02*
X21750D01*
X25600D02*
X25884D01*
X21750D02*
Y23822D01*
X20839Y23538D02*
Y23822D01*
X18013Y18867D02*
X18297D01*
X18013Y16899D02*
X18297D01*
X18294Y13266D02*
Y13550D01*
X14402Y12856D02*
X14406Y12853D01*
X14402Y12856D02*
Y13733D01*
X14686D01*
X14406Y12853D02*
X14690D01*
X5999Y8883D02*
X6283D01*
X5999Y9997D02*
X6283D01*
X5999Y11111D02*
X6283D01*
X5999Y12225D02*
X6283D01*
X5999Y13338D02*
X6283D01*
X5999Y14452D02*
X6283D01*
X5999Y15566D02*
X6283D01*
X6000Y16650D02*
X6284D01*
X5999Y17794D02*
X6283D01*
X5999Y20021D02*
X6283D01*
X5999Y21135D02*
X6283D01*
X5999Y22249D02*
X6283D01*
X5999Y23362D02*
X6283D01*
X5999Y24476D02*
X6283D01*
X5999Y25590D02*
X6283D01*
X1500Y28150D02*
Y28434D01*
X1356Y21447D02*
Y21731D01*
X8263Y12853D02*
X8547D01*
X8247Y11300D02*
Y12553D01*
X8547Y12853D02*
Y13700D01*
X8263D02*
X8547D01*
X7963Y11300D02*
X8247D01*
X8803Y8750D02*
X9087D01*
X10409Y6161D02*
Y6445D01*
X10624Y6375D02*
X11266D01*
X9459Y6161D02*
X10409D01*
X7459Y5270D02*
Y5554D01*
X9459Y6161D02*
Y6445D01*
X14960Y3313D02*
Y3597D01*
X14110Y3313D02*
Y3597D01*
X13259Y3313D02*
Y3597D01*
X10982Y3886D02*
X11266D01*
X10409Y4203D02*
Y4487D01*
X14960Y5270D02*
Y5554D01*
X14110Y5270D02*
Y5554D01*
X11266Y6375D02*
Y6659D01*
X10262Y7169D02*
Y7453D01*
X13237Y8059D02*
X14110D01*
Y8344D01*
X15961Y7242D02*
Y7526D01*
X16650Y7169D02*
Y7453D01*
X18264Y9155D02*
X18436D01*
X18703Y8888D01*
X19350D01*
X18266Y8550D02*
X18550D01*
X18264Y8548D02*
X18266Y8550D01*
X21900Y8400D02*
Y8547D01*
X20450Y6346D02*
X22350Y8246D01*
X20942Y6555D02*
X22600Y8213D01*
X21300Y6630D02*
X22807Y8137D01*
X21650Y6691D02*
X23005Y8045D01*
Y8052D01*
X20750Y10285D02*
Y10685D01*
X29900Y10191D02*
Y10591D01*
X28950Y10191D02*
Y10591D01*
X33000Y6903D02*
Y7303D01*
X32050Y6903D02*
Y7303D01*
X33000Y3197D02*
Y3597D01*
X32050Y3197D02*
Y3597D01*
X36481Y2694D02*
Y3094D01*
Y7544D02*
Y7944D01*
X36100Y10997D02*
X36500D01*
X38200Y11000D02*
X38600D01*
X36750Y14650D02*
X37150D01*
X36750Y17650D02*
X37150D01*
X35450Y20936D02*
Y21336D01*
X37350Y20330D02*
X37750D01*
X36484Y24712D02*
X37084D01*
X34700Y26093D02*
X35300D01*
X37650Y29000D02*
Y29600D01*
X13622Y15713D02*
X16280D01*
X16344Y15132D02*
Y15650D01*
X15961Y7900D02*
X16121D01*
X16650Y8059D02*
X16791D01*
X18900Y7300D02*
X20400D01*
X17921Y8279D02*
X18900Y7300D01*
X24900Y13000D02*
X24973Y13073D01*
X21430Y21300D02*
Y21938D01*
X24776Y14130D02*
X24900Y14254D01*
X23450Y3750D02*
Y4250D01*
X21650Y6050D02*
X23450Y4250D01*
X21650Y6050D02*
Y6691D01*
X14272Y17097D02*
X14663Y17488D01*
X13622Y17097D02*
X14272D01*
X14663Y17488D02*
X15238D01*
X15300Y10342D02*
Y13300D01*
X15291Y10332D02*
X15300Y10342D01*
X11950Y13927D02*
Y14833D01*
X11949Y14833D02*
X11950Y14833D01*
X11801Y13450D02*
X12264D01*
X11556Y13696D02*
X11801Y13450D01*
X11556Y13696D02*
Y14747D01*
X11559Y14750D01*
X12264Y13450D02*
X12650Y13064D01*
X11559Y14750D02*
Y14833D01*
X11162Y14132D02*
Y14833D01*
X10350Y13320D02*
X11162Y14132D01*
X12650Y11832D02*
Y13064D01*
X12853Y10619D02*
Y13437D01*
X12343Y13947D02*
X12853Y13437D01*
X1684Y27705D02*
X1980Y28000D01*
X12538D01*
X1355Y27705D02*
X1684D01*
X1000Y27350D02*
X1355Y27705D01*
X12538Y28000D02*
X18638Y21900D01*
X20500Y27350D02*
Y27801D01*
X19450Y26300D02*
X20500Y27350D01*
X22461Y26689D02*
X22972D01*
X22142Y28497D02*
X22450D01*
X22050Y28405D02*
X22142Y28497D01*
X22050Y27100D02*
Y28405D01*
Y27100D02*
X22461Y26689D01*
X13622Y16900D02*
X14950D01*
X15200Y17150D01*
X13622Y18475D02*
X15238Y18472D01*
X15155Y17688D02*
X16017Y18550D01*
X15238Y17488D02*
X16100Y18350D01*
X17328D01*
X16017Y18550D02*
X17578D01*
X17328Y18350D02*
X17650Y18028D01*
X17578Y18550D02*
X18628Y17500D01*
X17650Y16675D02*
Y18028D01*
X17050Y19561D02*
X17931Y20442D01*
X20131D01*
X26040Y20242D02*
X27092D01*
X23697Y17899D02*
X26040Y20242D01*
X27095Y20245D02*
X28438D01*
X27092Y20242D02*
X27095D01*
X27092D02*
X27095Y20245D01*
X23697Y17150D02*
Y17899D01*
X26742Y20442D02*
X28438D01*
X26739Y20439D02*
X26742D01*
X26225D02*
X26739D01*
X26742Y20442D01*
X26222Y20436D02*
X26225Y20439D01*
X25894Y20436D02*
X26222D01*
X23350Y17892D02*
X25894Y20436D01*
X23350Y16300D02*
Y17892D01*
X26139Y20639D02*
X28438D01*
X26136Y20636D02*
X26139D01*
X25734D02*
X26136D01*
X26139Y20639D01*
X23000Y17902D02*
X25734Y20636D01*
X23000Y15719D02*
Y17902D01*
X22650Y17900D02*
X23804Y19054D01*
X22650Y17622D02*
Y17900D01*
Y15050D02*
Y17622D01*
X24992Y20242D02*
X25586Y20836D01*
X22850Y11931D02*
X22950Y12031D01*
X22850Y10350D02*
Y11931D01*
X22650Y10450D02*
Y12500D01*
X22150Y10484D02*
Y12717D01*
X21950Y10550D02*
Y12800D01*
X25586Y20836D02*
X28438D01*
X23050Y11450D02*
X23150Y11550D01*
X23350Y11000D02*
X23447D01*
X23250Y10900D02*
X23350Y11000D01*
X23050Y10260D02*
Y11450D01*
X23250Y10148D02*
Y10900D01*
X23005Y9903D02*
X23250Y10148D01*
X23005Y8612D02*
Y9903D01*
X22805Y10015D02*
X23050Y10260D01*
X22805Y8530D02*
Y10015D01*
X22600Y10100D02*
X22850Y10350D01*
X22600Y8213D02*
Y10100D01*
X22350Y10150D02*
X22650Y10450D01*
X22417Y12984D02*
Y13631D01*
X21900Y10217D02*
X22159Y10476D01*
X22150Y12717D02*
X22417Y12984D01*
X22150Y10484D02*
X22159Y10476D01*
X21605Y9155D02*
X21900D01*
Y10217D01*
X21200Y9800D02*
X21950Y10550D01*
X24325Y8888D02*
X25063Y8150D01*
X25167Y10267D02*
Y10994D01*
X24700Y9800D02*
X25167Y10267D01*
X23550Y9800D02*
X24700D01*
X25170Y10997D02*
Y13631D01*
X25167Y10994D02*
Y10997D01*
Y10994D02*
X25170Y10997D01*
X25367Y10272D02*
Y13631D01*
Y10272D02*
X26150Y9489D01*
X23205Y9455D02*
X23550Y9800D01*
X24000Y11700D02*
Y12031D01*
X25754Y12900D02*
X25761Y12906D01*
X26150Y8950D02*
Y9489D01*
X25550Y9550D02*
X26150Y8950D01*
Y8888D02*
Y8950D01*
X23600Y9300D02*
X23850Y9550D01*
X25550D01*
X27137Y10395D02*
X27595D01*
X27082Y10450D02*
X27137Y10395D01*
X27595D02*
X28194Y9797D01*
X28194D01*
X28397Y8320D02*
Y9594D01*
X27977Y7900D02*
X28397Y8320D01*
X28194Y9797D02*
X28397Y9594D01*
X25266Y7700D02*
X28059D01*
X24450Y6884D02*
X25266Y7700D01*
X24450Y5600D02*
Y6884D01*
X25200Y4850D02*
X29000D01*
X24450Y5600D02*
X25200Y4850D01*
X29000D02*
X29450Y4400D01*
X24250Y5450D02*
X25100Y4600D01*
X20942Y5658D02*
Y6555D01*
Y5658D02*
X21450Y5150D01*
X21300Y5750D02*
Y6630D01*
Y5750D02*
X22450Y4600D01*
Y3750D02*
Y4600D01*
X20450Y3750D02*
Y6346D01*
X21450Y3750D02*
Y5150D01*
X22350Y8246D02*
Y10150D01*
X25690Y25600D02*
X33400D01*
X25515Y25775D02*
X25690Y25600D01*
X33300Y24427D02*
Y25003D01*
X33201Y25102D02*
X33300Y25003D01*
X31552Y25102D02*
X33201D01*
X31457Y25007D02*
X31552Y25102D01*
X22020Y22614D02*
X22608Y23201D01*
X22217Y22482D02*
X22808Y23072D01*
X22217Y21938D02*
Y22482D01*
X22020Y21938D02*
Y22614D01*
X22608Y23708D02*
X22993Y24093D01*
X22608Y23201D02*
Y23708D01*
X22993Y24093D02*
X29843D01*
X22808Y23608D02*
X23093Y23893D01*
X22808Y23072D02*
Y23608D01*
X23093Y23893D02*
X30250D01*
X29957Y24207D02*
Y24598D01*
X29843Y24093D02*
X29957Y24207D01*
X30457Y24100D02*
Y24457D01*
X30250Y23893D02*
X30457Y24100D01*
X30957Y23454D02*
Y24598D01*
X30457Y24482D02*
Y24598D01*
X21233Y22414D02*
X21750Y22931D01*
X21233Y21938D02*
Y22414D01*
X35300Y26699D02*
X35300Y26699D01*
X36150D01*
X15350Y6300D02*
X15906D01*
X15210Y6161D02*
X15350Y6300D01*
X14960Y6161D02*
X15210D01*
X8473Y5600D02*
X8522Y5550D01*
X9847Y4992D02*
X10409Y5554D01*
X9847Y3753D02*
Y4992D01*
Y3753D02*
X10003Y3597D01*
X10899Y5696D02*
Y5896D01*
X10758Y5554D02*
X10899Y5696D01*
X10409Y5554D02*
X10758D01*
X12150Y19558D02*
Y20337D01*
X12920Y20775D02*
Y23839D01*
X12737Y20592D02*
X12920Y20775D01*
X12404Y20592D02*
X12737D01*
X12150Y20337D02*
X12404Y20592D01*
X9715Y23276D02*
Y23839D01*
X9000Y22561D02*
X9715Y23276D01*
X9000Y20708D02*
Y22561D01*
X10321Y23839D02*
Y24099D01*
X9715Y24706D02*
X10321Y24099D01*
X10321Y24706D02*
X10772Y24255D01*
Y23472D02*
Y24255D01*
X9400Y22100D02*
X10772Y23472D01*
X9400Y20874D02*
Y22100D01*
X1000Y26650D02*
X1500Y26150D01*
X1000Y26650D02*
Y27350D01*
X7450Y13303D02*
X8350Y14204D01*
X7450Y10726D02*
Y13303D01*
Y10726D02*
X7702Y10474D01*
X7999D01*
X5625Y18350D02*
X7030D01*
X5400Y18575D02*
X5625Y18350D01*
X7030D02*
X7889Y17491D01*
X8898D01*
X5393Y24157D02*
Y24476D01*
Y24157D02*
X5600Y23950D01*
X6300D02*
X7400Y22850D01*
X5600Y23950D02*
X6300D01*
X7600Y19522D02*
Y23900D01*
X6400Y25100D02*
X7600Y23900D01*
X8050Y19072D02*
X8447Y18675D01*
X8050Y19072D02*
Y19073D01*
X7816Y19308D02*
X8050Y19073D01*
X7814Y19308D02*
X7816D01*
X7600Y19522D02*
X7814Y19308D01*
X7850Y18989D02*
X8364Y18475D01*
X7850Y18989D02*
Y18991D01*
X7733Y19108D02*
X7850Y18991D01*
X7731Y19108D02*
X7733D01*
X7400Y19439D02*
X7731Y19108D01*
X7400Y19439D02*
Y22850D01*
X8278Y18278D02*
X8898D01*
X7650Y18906D02*
X8278Y18278D01*
X7650Y18906D02*
Y18908D01*
X7648D02*
X7650D01*
X7165Y19391D02*
X7648Y18908D01*
X7165Y19391D02*
Y21885D01*
X6300Y22750D02*
X7165Y21885D01*
X8192Y18081D02*
X8898D01*
X6965Y19308D02*
X8192Y18081D01*
X8109Y17881D02*
X8898D01*
X6765Y19225D02*
X8109Y17881D01*
X8447Y18675D02*
X8895D01*
X6965Y19308D02*
Y20964D01*
X6279Y21650D02*
X6965Y20964D01*
X5650Y21650D02*
X6279D01*
X5700Y22750D02*
X6300D01*
X8364Y18475D02*
X8898D01*
X5393Y21907D02*
X5650Y21650D01*
X6765Y19225D02*
Y20264D01*
X6479Y20550D02*
X6765Y20264D01*
X5600Y20550D02*
X6479D01*
X5400Y20750D02*
X5600Y20550D01*
X5636Y19400D02*
X6308D01*
X5393Y19643D02*
X5636Y19400D01*
X6308D02*
X8020Y17688D01*
X5400Y18575D02*
Y18900D01*
X7155Y15333D02*
X7934Y16113D01*
X7155Y14872D02*
Y15333D01*
X7934Y16113D02*
X8898D01*
X7800Y16310D02*
X8898D01*
X7657Y16307D02*
X7800D01*
X6955Y15605D02*
X7657Y16307D01*
X6955Y14955D02*
Y15605D01*
X7594Y14644D02*
Y15206D01*
X7365Y14415D02*
X7594Y14644D01*
Y15206D02*
X8107Y15719D01*
X8898D01*
X7365Y13717D02*
Y14415D01*
X6765Y11383D02*
X6930Y11547D01*
X6765Y9781D02*
Y11383D01*
X6377Y9393D02*
X6765Y9781D01*
X7200Y13551D02*
X7365Y13717D01*
X7200Y12782D02*
Y13551D01*
X6930Y12512D02*
X7200Y12782D01*
X6930Y11547D02*
Y12512D01*
X5542Y9393D02*
X6377D01*
X5393Y8883D02*
Y9244D01*
X5542Y9393D01*
X6500Y10669D02*
Y11400D01*
X6365Y10534D02*
X6500Y10669D01*
X5584Y10534D02*
X6365D01*
X5393Y9997D02*
Y10343D01*
X5584Y10534D01*
X6500Y11400D02*
X6730Y11630D01*
X7000Y13634D02*
X7165Y13800D01*
X7000Y12865D02*
Y13634D01*
X6730Y12595D02*
X7000Y12865D01*
X6730Y11630D02*
Y12595D01*
X7165Y14586D02*
X7355Y14775D01*
X7165Y13800D02*
Y14586D01*
X6511Y12658D02*
X6800Y12947D01*
X6511Y11788D02*
Y12658D01*
X6373Y11650D02*
X6511Y11788D01*
X6965Y14683D02*
X7155Y14872D01*
X6965Y13883D02*
Y14683D01*
X6800Y13717D02*
X6965Y13883D01*
X6800Y12947D02*
Y13717D01*
X6730Y15013D02*
Y15771D01*
X6558Y14842D02*
X6730Y15013D01*
Y15771D02*
X7457Y16507D01*
X7126Y16897D02*
X8898D01*
X5900Y17097D02*
X8898D01*
X7457Y16507D02*
X8898D01*
X6530Y15096D02*
Y15880D01*
X7347Y16703D01*
X8898D01*
X7965Y15861D02*
X8020Y15916D01*
X7965Y15861D02*
X7965D01*
X7355Y15251D02*
X7965Y15861D01*
X8020Y15916D02*
X8898D01*
X7355Y14775D02*
Y15251D01*
X6765Y14766D02*
X6955Y14955D01*
X6558Y14128D02*
Y14842D01*
X6384Y14950D02*
X6530Y15096D01*
X5536Y14950D02*
X6384D01*
X5393Y14807D02*
X5536Y14950D01*
X6363Y16134D02*
X7126Y16897D01*
X5543Y16134D02*
X6363D01*
X5393Y15984D02*
X5543Y16134D01*
X6765Y13965D02*
Y14766D01*
X6600Y13800D02*
X6765Y13965D01*
X6600Y13030D02*
Y13800D01*
X5550Y11650D02*
X6373D01*
X5393Y11493D02*
X5550Y11650D01*
X6320Y12750D02*
X6600Y13030D01*
X5559Y12750D02*
X6320D01*
X5393Y12584D02*
X5559Y12750D01*
X5393Y12225D02*
Y12584D01*
X6330Y13900D02*
X6558Y14128D01*
X5393Y15566D02*
Y15984D01*
X5503Y17094D02*
X5900D01*
X5393Y16984D02*
X5503Y17094D01*
X5393Y16680D02*
Y16984D01*
X7791Y24706D02*
X8165D01*
X6404Y26093D02*
X7791Y24706D01*
X3543Y26093D02*
X6404D01*
X650Y23200D02*
X3543Y26093D01*
X1801Y19649D02*
Y20249D01*
X850Y21200D02*
X1801Y20249D01*
X1588Y18388D02*
X2540D01*
X1356Y18156D02*
X1588Y18388D01*
X1356Y17833D02*
Y18156D01*
X1706Y17350D02*
X2502D01*
X1356Y16999D02*
X1706Y17350D01*
X1356Y16833D02*
Y16999D01*
X1608Y15324D02*
X2476D01*
X1356Y15071D02*
X1608Y15324D01*
X1356Y14833D02*
Y15071D01*
X3708Y13050D02*
X3996Y13338D01*
X3143Y13050D02*
X3708D01*
X2714Y13479D02*
X3143Y13050D01*
X2717Y12833D02*
X3996Y11554D01*
X2356Y12833D02*
X2717D01*
X3996Y11111D02*
Y11554D01*
X3250Y10047D02*
Y11600D01*
X3017Y11833D02*
X3250Y11600D01*
X2356Y11833D02*
X3017D01*
X3250Y10047D02*
X3996Y9301D01*
X2882Y12300D02*
X3500Y11682D01*
Y10200D02*
Y11682D01*
X1700Y12300D02*
X2882D01*
X3500Y10200D02*
X3703Y9997D01*
X3578Y24476D02*
X3996D01*
X3300Y24198D02*
X3578Y24476D01*
X3300Y21681D02*
Y24198D01*
X3996Y22160D02*
Y22249D01*
X3700Y21864D02*
X3996Y22160D01*
X3700Y21515D02*
Y21864D01*
X3063Y20878D02*
X3700Y21515D01*
X3603Y21135D02*
X3996D01*
X3263Y20795D02*
X3603Y21135D01*
X3263Y20404D02*
Y20795D01*
Y20404D02*
X3401Y20266D01*
Y19400D02*
Y20266D01*
X2329Y15833D02*
X3055Y16559D01*
X2329Y15833D02*
X2356D01*
X2523Y16310D02*
X2855Y16642D01*
X1832Y16310D02*
X2523D01*
X2855Y16642D02*
Y17105D01*
X3901Y17794D02*
X3996D01*
X3055Y16947D02*
X3901Y17794D01*
X3055Y16559D02*
Y16947D01*
X1356Y15833D02*
X1832Y16310D01*
X2855Y17105D02*
X3663Y17913D01*
Y18049D01*
X3996Y18382D01*
X2356Y16850D02*
Y16918D01*
Y16833D02*
Y16850D01*
X3463Y18025D02*
Y19050D01*
X2356Y16918D02*
X3463Y18025D01*
Y19050D02*
X3996Y19583D01*
X3263Y18111D02*
Y19263D01*
X2502Y17350D02*
X3263Y18111D01*
X2476Y15324D02*
X2801Y15649D01*
Y15651D02*
X3830Y16680D01*
X2801Y15649D02*
Y15651D01*
X3830Y16680D02*
X3996D01*
X3702Y14452D02*
X3996D01*
X3638Y14388D02*
X3702Y14452D01*
X1588Y14388D02*
X3638D01*
X2710Y13479D02*
X2714D01*
X2356Y13833D02*
X2710Y13479D01*
X3686Y12225D02*
X3996D01*
X2632Y13279D02*
X3686Y12225D01*
X3703Y9997D02*
X3996D01*
X1356Y14156D02*
X1588Y14388D01*
X1356Y13833D02*
Y14156D01*
Y11956D02*
X1700Y12300D01*
X1356Y11833D02*
Y11956D01*
X1634Y13279D02*
X2632D01*
X1356Y13000D02*
X1634Y13279D01*
X1356Y12833D02*
Y13000D01*
X3996Y8883D02*
Y9301D01*
X13622Y17688D02*
X15155D01*
X12935Y16703D02*
X13622D01*
X12457Y20245D02*
X12737D01*
X12343Y20131D02*
X12457Y20245D01*
X12343Y19558D02*
Y20131D01*
X12737Y19558D02*
Y20245D01*
X12935Y17294D02*
X13622D01*
X13623Y15400D02*
Y15713D01*
X13622Y15713D02*
X13623Y15713D01*
X1550Y19398D02*
X1801Y19649D01*
X1550Y19028D02*
Y19398D01*
X1356Y18833D02*
X1550Y19028D01*
X15350Y20006D02*
Y20400D01*
X14500Y20006D02*
Y20400D01*
X16280Y15713D02*
X16344Y15650D01*
X18236D02*
X18297Y15590D01*
X31100Y13550D02*
Y13735D01*
X32597Y15232D01*
X30595Y14200D02*
Y14380D01*
X32597Y16381D01*
X24973Y13073D02*
Y13631D01*
X24776D02*
Y14130D01*
X25515Y24700D02*
Y25775D01*
X25564Y13631D02*
Y14317D01*
X25761Y12906D02*
Y13631D01*
X23804Y19054D02*
X24992Y20242D01*
X23007Y8055D02*
Y8610D01*
X23005Y8612D02*
X23007Y8610D01*
X23005Y8052D02*
X23007Y8055D01*
X22807Y8137D02*
Y8527D01*
X22805Y8530D02*
X22807Y8527D01*
X28597Y8237D02*
Y9677D01*
X27273Y11000D02*
X28597Y9677D01*
X27100Y11000D02*
X27273D01*
X27139Y11461D02*
X28991Y9609D01*
Y9155D02*
Y9609D01*
X26548Y11750D02*
Y12031D01*
X28438Y14340D02*
X28850Y13927D01*
X27729Y12729D02*
Y13631D01*
X23205Y8695D02*
Y9455D01*
Y8695D02*
X23352Y8548D01*
X23600D01*
X26150Y8888D02*
X26743D01*
X23600Y9155D02*
Y9300D01*
X24325Y8888D02*
X24536D01*
X23939D02*
X24325D01*
X23600Y8548D02*
X23939Y8888D01*
X17921Y8279D02*
Y9400D01*
X18138Y9616D01*
Y10576D01*
X30850Y10222D02*
Y10585D01*
X30294Y9155D02*
X30900Y8548D01*
X27139Y11461D02*
Y13631D01*
X28059Y7700D02*
X28597Y8237D01*
X29450Y3750D02*
Y4400D01*
X25150Y7900D02*
X27977D01*
X24250Y7000D02*
X25150Y7900D01*
X24250Y5450D02*
Y7000D01*
X28438Y21033D02*
X28883D01*
X28950Y21100D01*
Y21529D01*
X29397Y21975D01*
X14500Y20006D02*
X15350D01*
X18638Y21900D02*
X19900D01*
X19450Y23600D02*
Y26300D01*
X1500Y27150D02*
X12338D01*
X18258Y21229D01*
X20131D01*
X19500Y15521D02*
X20131D01*
X19250D02*
X19500D01*
X27783Y14317D02*
X28950Y13150D01*
X27117Y14317D02*
X27783D01*
X15778Y16111D02*
X20131D01*
X22217Y13067D02*
Y13631D01*
X21338Y8888D02*
X21605Y9155D01*
X20964Y8888D02*
X21338D01*
X21950Y12800D02*
X22217Y13067D01*
X19541Y9800D02*
X21200D01*
X19350Y9609D02*
X19541Y9800D01*
X19350Y8888D02*
Y9609D01*
X21824Y12974D02*
Y13631D01*
X20750Y11900D02*
X21824Y12974D01*
X20750Y11291D02*
Y11900D01*
X20091Y11291D02*
X20750D01*
X19750Y10950D02*
X20091Y11291D01*
X19122Y10950D02*
X19750D01*
X18900Y14536D02*
X20131D01*
X12540Y14833D02*
Y15521D01*
X11275Y7498D02*
X11320Y7453D01*
X12314D01*
X14858Y7208D02*
Y7526D01*
X14650Y7000D02*
X14858Y7208D01*
X13359Y7000D02*
X14650D01*
X13237Y7123D02*
X13359Y7000D01*
X13237Y7123D02*
Y7453D01*
X12314D02*
X13237D01*
X11004Y6001D02*
X11527D01*
X11632Y5895D01*
Y5718D02*
Y5895D01*
Y5718D02*
X12050Y5300D01*
X12633D01*
X12750Y5417D01*
Y5950D01*
X12699Y6001D02*
X12750Y5950D01*
X12368Y6001D02*
X12699D01*
X14110Y6161D02*
Y6440D01*
X13900Y6650D02*
X14110Y6440D01*
X12096Y6650D02*
X13900D01*
X11924Y6478D02*
X12096Y6650D01*
X11924Y5776D02*
Y6478D01*
Y5776D02*
X12073Y5627D01*
X12368D01*
X25515Y25775D02*
Y26700D01*
X33400Y25600D02*
X34499Y26699D01*
X35300D01*
X36150Y26699D02*
X36211Y26638D01*
X37650D01*
X26942Y13631D02*
Y14142D01*
X27117Y14317D01*
X28950Y11197D02*
Y13150D01*
X19200Y15571D02*
X19250Y15521D01*
X18903Y15590D02*
X18922Y15571D01*
X19200D01*
X18628Y17500D02*
X19059D01*
X9972Y20301D02*
X10177Y20096D01*
X9689Y20301D02*
X9972D01*
X9200Y20791D02*
X9689Y20301D01*
X9606Y20101D02*
X9889D01*
X9000Y20708D02*
X9606Y20101D01*
X9977Y19561D02*
Y20014D01*
X9400Y20874D02*
X9772Y20501D01*
X10055D01*
X10377Y20179D01*
Y19667D02*
Y20179D01*
X10371Y19661D02*
X10377Y19667D01*
X10371Y19561D02*
Y19661D01*
X9889Y20101D02*
X9977Y20014D01*
X11318Y20532D02*
Y23839D01*
Y20532D02*
X11556Y20294D01*
Y19558D02*
Y20294D01*
X10371Y19561D02*
X10374Y19558D01*
X9977Y19561D02*
X9981Y19558D01*
X10321Y24706D02*
X10321Y24706D01*
X10321Y24706D02*
Y25518D01*
X8771Y24706D02*
X9715D01*
X9715Y24706D02*
X9715Y24706D01*
X9715Y24706D02*
Y25518D01*
X11318Y23839D02*
Y24706D01*
X20131Y16308D02*
X20942D01*
X18013Y16311D02*
X19545D01*
X17650Y16675D02*
X18013Y16311D01*
X19545D02*
X19738Y16505D01*
X13622Y15913D02*
X15580D01*
X15778Y16111D01*
X19738Y16505D02*
X20131D01*
X450Y9650D02*
Y20639D01*
X2306Y22338D02*
Y22850D01*
X450Y9650D02*
X1950Y8150D01*
X6423D01*
X7999Y9726D01*
X8020Y17688D02*
X8898D01*
X4600Y17763D02*
X5391D01*
X5506Y17294D02*
X8898D01*
X9784Y14284D02*
Y14833D01*
X9704Y14204D02*
X9784Y14284D01*
X8350Y14204D02*
X9704D01*
X12053Y11235D02*
X12650Y11832D01*
X12343Y13947D02*
Y14833D01*
X10350Y10772D02*
Y13320D01*
Y10772D02*
X10503Y10619D01*
X12053D02*
Y11235D01*
X10503Y10619D02*
X10503Y10619D01*
X11253D01*
X33300Y24427D02*
X33500Y24227D01*
X36900D01*
X32106Y23944D02*
X37084D01*
X31957Y24093D02*
X32106Y23944D01*
X31957Y24093D02*
Y24598D01*
X31457D02*
Y25007D01*
X35450Y20330D02*
X35450Y20330D01*
X13540Y16313D02*
X15282D01*
X15497Y16113D02*
X16009Y16625D01*
X13623Y16113D02*
X15497D01*
X13622Y16113D02*
X13623Y16113D01*
X15282Y16313D02*
X15650Y16681D01*
Y17350D01*
X15900Y17600D01*
X16344D01*
X16009Y16625D02*
X16344D01*
X8353Y10474D02*
X9101Y9726D01*
X7999Y10474D02*
X8353D01*
X650Y21117D02*
Y23200D01*
Y21117D02*
X1356Y20412D01*
Y19833D02*
Y20412D01*
X850Y21200D02*
Y23100D01*
X1356Y22338D02*
X2306D01*
Y21731D02*
X2356Y21681D01*
Y19833D02*
Y21681D01*
X3340Y25590D02*
X3996D01*
X850Y23100D02*
X3340Y25590D01*
X2663Y21044D02*
X3300Y21681D01*
X2663Y20156D02*
Y21044D01*
Y20156D02*
X2801Y20018D01*
Y19649D02*
Y20018D01*
X3201Y19483D02*
Y20183D01*
X3001Y19566D02*
Y20101D01*
X3063Y20321D02*
Y20878D01*
Y20321D02*
X3201Y20183D01*
X2863Y20238D02*
Y20961D01*
Y20238D02*
X3001Y20101D01*
X2356Y19204D02*
X2801Y19649D01*
X2356Y18833D02*
Y19204D01*
X3063Y18541D02*
Y19345D01*
X3263Y19263D02*
X3401Y19400D01*
X3063Y19345D02*
X3201Y19483D01*
X2863Y19428D02*
X3001Y19566D01*
X2863Y18711D02*
Y19428D01*
X3500Y22866D02*
X3996Y23362D01*
X3500Y21598D02*
Y22866D01*
X2863Y20961D02*
X3500Y21598D01*
X2540Y18388D02*
X2863Y18711D01*
X2356Y17833D02*
X3063Y18541D01*
X3996Y18382D02*
Y18907D01*
Y19583D02*
Y20021D01*
X2356Y14833D02*
X3088Y15566D01*
X3996D01*
X5393Y11111D02*
Y11493D01*
X5600Y13900D02*
X6330D01*
X5393Y13693D02*
X5600Y13900D01*
X5393Y13338D02*
Y13693D01*
X5393Y14452D02*
Y14807D01*
X5393Y17407D02*
X5506Y17294D01*
X5393Y17407D02*
Y17794D01*
X5393Y18907D02*
X5400Y18900D01*
X5393Y19643D02*
Y20021D01*
X5400Y20750D02*
Y21128D01*
X5393Y21135D02*
X5400Y21128D01*
X5393Y21907D02*
Y22249D01*
X5391Y23059D02*
X5700Y22750D01*
X5391Y23059D02*
Y23360D01*
X5393Y23362D01*
X5550Y25100D02*
X6400D01*
X5393Y25257D02*
X5550Y25100D01*
X5393Y25257D02*
Y25590D01*
X4602Y8883D02*
X5393D01*
X4602Y9997D02*
X5393D01*
X4602Y11111D02*
X5393D01*
X4602Y12225D02*
X5393D01*
X4602Y13338D02*
X5393D01*
X4602Y14452D02*
X5393D01*
X4602Y15566D02*
X5393D01*
X4602Y16680D02*
X5393D01*
X4602Y18907D02*
X5393D01*
X4602Y20021D02*
X5393D01*
X4602Y21135D02*
X5393D01*
X4602Y22249D02*
X5393D01*
X4602Y23362D02*
X5393D01*
X4602Y24476D02*
X5393D01*
Y25590D02*
X5393Y25590D01*
X4602Y25590D02*
X5393D01*
X26498Y27749D02*
X26550Y27801D01*
X25542Y27749D02*
X26498D01*
X23498D02*
X23550Y27801D01*
X22450Y27749D02*
X23498D01*
X21181Y28407D02*
X21466Y28123D01*
X20500Y28407D02*
X21181D01*
X25542Y28497D02*
Y28658D01*
X25350Y28850D02*
X25542Y28658D01*
X24400Y28850D02*
X25350D01*
X23957Y28407D02*
X24400Y28850D01*
X23550Y28407D02*
X23957D01*
X24558Y26728D02*
X24585Y26700D01*
X24558Y26728D02*
Y28123D01*
X23578Y26689D02*
X23589Y26700D01*
X24585D01*
X26550Y28407D02*
X30106D01*
X30957Y27557D01*
Y26645D02*
Y27557D01*
X30903Y23400D02*
X30957Y23454D01*
X29397Y15688D02*
Y15962D01*
X28854Y16505D02*
X29397Y15962D01*
X28438Y16505D02*
X28854D01*
X33203Y16381D02*
Y17530D01*
X33153Y15182D02*
X33203Y15232D01*
X33153Y14083D02*
Y15182D01*
X34000Y10997D02*
X35399D01*
X14858Y8202D02*
Y8274D01*
X14110Y7453D02*
X14858Y8202D01*
X10899Y5896D02*
X11004Y6001D01*
X9459Y5554D02*
X10409D01*
X9455Y5550D02*
X9459Y5554D01*
X8522Y5550D02*
X9455D01*
X10803Y3512D02*
X11266D01*
X10718Y3597D02*
X10803Y3512D01*
X10409Y3597D02*
X10718D01*
X10003D02*
X10409D01*
X14110Y6161D02*
X14960D01*
X14110Y4203D02*
Y4481D01*
X13991Y4600D02*
X14110Y4481D01*
X12950Y4600D02*
X13991D01*
X12610Y4260D02*
X12950Y4600D01*
X12368Y4260D02*
X12610D01*
X14960Y4203D02*
X15317D01*
X15457Y4343D01*
X15906D01*
X14110Y4203D02*
X14960D01*
X12569Y3512D02*
X13259Y4203D01*
X12368Y3512D02*
X12569D01*
X11266Y4260D02*
X11540D01*
X11650Y4150D01*
Y3600D02*
Y4150D01*
X11562Y3512D02*
X11650Y3600D01*
X11266Y3512D02*
X11562D01*
X14110Y5554D02*
X14960D01*
X13259Y3597D02*
X13259Y3597D01*
X14110D01*
X14960D01*
X25063Y8150D02*
X27638D01*
X28037Y8548D01*
X26743Y8888D02*
X27082Y8548D01*
X29900Y11197D02*
X30844D01*
X30850Y11191D01*
X28950Y11197D02*
X29900D01*
X28950Y10591D02*
X29900D01*
X27082Y9155D02*
X28037D01*
X29946D02*
X30294D01*
X28991D02*
X29946D01*
Y8261D02*
X29957Y8250D01*
X29946Y8261D02*
Y8548D01*
X28991Y8250D02*
Y8548D01*
X27082Y9155D02*
Y9500D01*
X28037Y9437D02*
X28050Y9450D01*
X28037Y9155D02*
Y9437D01*
X28991Y8548D02*
X29946D01*
X33000Y9155D02*
Y9500D01*
X32050Y9155D02*
Y9500D01*
Y9155D02*
X33000D01*
X32050Y3597D02*
X33000D01*
X37650Y3350D02*
Y3680D01*
X38550Y3350D02*
Y3680D01*
X37650D02*
X38550D01*
X36481Y3094D02*
X37065D01*
X32050Y6903D02*
X33000D01*
X37650D02*
X38550D01*
X35801Y6564D02*
X36050D01*
X37650Y6903D02*
Y7200D01*
X38550Y6903D02*
Y7200D01*
X37650Y8274D02*
Y8600D01*
X38550Y8300D02*
Y8600D01*
X37650D02*
X38550D01*
X36481Y7944D02*
X36994D01*
X-2150Y600D02*
X-1950Y0D01*
X-1750Y600D01*
X-1950Y32283D02*
X-1750Y31683D01*
X-2150D02*
X-1950Y32283D01*
Y0D02*
Y14472D01*
Y17491D02*
Y32283D01*
X-2050Y0D02*
X-200D01*
X-2050Y32283D02*
X-200D01*
X0Y-1600D02*
X600Y-1400D01*
X0Y-1600D02*
X600Y-1800D01*
X38770D02*
X39370Y-1600D01*
X38770Y-1400D02*
X39370Y-1600D01*
X0D02*
X17766D01*
X21285D02*
X39370D01*
X0Y-1700D02*
Y-200D01*
X39370Y-1700D02*
Y-200D01*
D17*
X0Y0D02*
Y32283D01*
Y0D02*
X39370D01*
X0Y32283D02*
X39370D01*
Y0D02*
Y32283D01*
D18*
X-2090Y14632D02*
X-2190Y14732D01*
Y14932D01*
X-2090Y15032D01*
X-1990D01*
X-1890Y14932D01*
X-1790Y15032D01*
X-1690D01*
X-1590Y14932D01*
Y14732D01*
X-1690Y14632D01*
X-1790D01*
X-1890Y14732D01*
X-1990Y14632D01*
X-2090D01*
X-1890Y14732D02*
Y14932D01*
X-1590Y15632D02*
Y15232D01*
X-1990Y15632D01*
X-2090D01*
X-2190Y15532D01*
Y15332D01*
X-2090Y15232D01*
X-1590Y15832D02*
X-1690D01*
Y15932D01*
X-1590D01*
Y15832D01*
X-2090Y16332D02*
X-2190Y16432D01*
Y16632D01*
X-2090Y16731D01*
X-1690D01*
X-1590Y16632D01*
Y16432D01*
X-1690Y16332D01*
X-2090D01*
Y16931D02*
X-2190Y17031D01*
Y17231D01*
X-2090Y17331D01*
X-1690D01*
X-1590Y17231D01*
Y17031D01*
X-1690Y16931D01*
X-2090D01*
X17926Y-1960D02*
X18125D01*
X18026D01*
Y-1360D01*
X17926Y-1460D01*
X18425D02*
X18525Y-1360D01*
X18725D01*
X18825Y-1460D01*
Y-1860D01*
X18725Y-1960D01*
X18525D01*
X18425Y-1860D01*
Y-1460D01*
X19025D02*
X19125Y-1360D01*
X19325D01*
X19425Y-1460D01*
Y-1860D01*
X19325Y-1960D01*
X19125D01*
X19025Y-1860D01*
Y-1460D01*
X19625Y-1960D02*
Y-1860D01*
X19725D01*
Y-1960D01*
X19625D01*
X20125Y-1460D02*
X20225Y-1360D01*
X20425D01*
X20525Y-1460D01*
Y-1860D01*
X20425Y-1960D01*
X20225D01*
X20125Y-1860D01*
Y-1460D01*
X20725D02*
X20825Y-1360D01*
X21025D01*
X21125Y-1460D01*
Y-1860D01*
X21025Y-1960D01*
X20825D01*
X20725Y-1860D01*
Y-1460D01*
D21*
X38361Y25222D02*
Y25402D01*
X37921Y25222D02*
Y25402D01*
Y25222D02*
X38361D01*
X37921Y25402D02*
X38361D01*
Y22998D02*
Y23178D01*
X37921Y22998D02*
Y23178D01*
Y22998D02*
X38361D01*
X37921Y23178D02*
X38361D01*
D24*
X14110Y7453D02*
D03*
Y8059D02*
D03*
X12264Y7467D02*
D03*
Y8073D02*
D03*
X14110Y4205D02*
D03*
Y3599D02*
D03*
X13259Y4203D02*
D03*
Y3597D02*
D03*
X14960Y6161D02*
D03*
Y5554D02*
D03*
X13272Y6161D02*
D03*
Y5555D02*
D03*
X10409Y6161D02*
D03*
Y5554D02*
D03*
Y3597D02*
D03*
Y4203D02*
D03*
X38550Y6297D02*
D03*
Y6903D02*
D03*
X37650Y6297D02*
D03*
Y6903D02*
D03*
X33000Y6297D02*
D03*
Y6903D02*
D03*
X32050Y6297D02*
D03*
Y6903D02*
D03*
X11253Y10619D02*
D03*
Y10012D02*
D03*
X30900Y9155D02*
D03*
Y8548D02*
D03*
X23600Y8548D02*
D03*
Y9155D02*
D03*
X28991Y9155D02*
D03*
Y8548D02*
D03*
X29946Y9155D02*
D03*
Y8548D02*
D03*
X27082Y9155D02*
D03*
Y8548D02*
D03*
X28037Y9155D02*
D03*
Y8548D02*
D03*
X10503Y10619D02*
D03*
Y10012D02*
D03*
X20500Y28407D02*
D03*
Y27801D02*
D03*
X23550Y27801D02*
D03*
Y28407D02*
D03*
X26550Y28407D02*
D03*
Y27801D02*
D03*
X30850Y11191D02*
D03*
Y10585D02*
D03*
X36150Y26093D02*
D03*
Y26699D02*
D03*
X2306Y22338D02*
D03*
Y21731D02*
D03*
X36600Y20936D02*
D03*
Y20330D02*
D03*
X16650Y7453D02*
D03*
Y8059D02*
D03*
X10262Y7453D02*
D03*
Y8059D02*
D03*
X13237Y8059D02*
D03*
Y7453D02*
D03*
X33000Y9155D02*
D03*
Y8548D02*
D03*
X32050Y9155D02*
D03*
Y8548D02*
D03*
X37650Y8600D02*
D03*
Y9206D02*
D03*
X38550Y8600D02*
D03*
Y9206D02*
D03*
X33000Y3597D02*
D03*
Y4203D02*
D03*
X32050Y3597D02*
D03*
Y4203D02*
D03*
X37650Y3680D02*
D03*
Y4286D02*
D03*
X38550Y3680D02*
D03*
Y4286D02*
D03*
X16809Y4203D02*
D03*
Y3597D02*
D03*
X14960Y3597D02*
D03*
Y4203D02*
D03*
X16809Y5554D02*
D03*
Y6161D02*
D03*
X14110Y5554D02*
D03*
Y6161D02*
D03*
X9459Y6161D02*
D03*
Y5554D02*
D03*
X7459D02*
D03*
Y6161D02*
D03*
X37750Y20330D02*
D03*
Y20936D02*
D03*
X35450Y20936D02*
D03*
Y20330D02*
D03*
X27557Y26699D02*
D03*
Y26093D02*
D03*
X28407Y26699D02*
D03*
Y26093D02*
D03*
X20839Y23538D02*
D03*
Y22931D02*
D03*
X23400Y23454D02*
D03*
Y22847D02*
D03*
X24000Y12031D02*
D03*
Y12638D02*
D03*
X25600Y23538D02*
D03*
Y22931D02*
D03*
X26548Y12031D02*
D03*
Y12638D02*
D03*
X29900Y10591D02*
D03*
Y11197D02*
D03*
X28950Y10591D02*
D03*
Y11197D02*
D03*
X20750Y11291D02*
D03*
Y10685D02*
D03*
X21750Y23538D02*
D03*
Y22931D02*
D03*
X35300Y26093D02*
D03*
Y26699D02*
D03*
X21900Y8547D02*
D03*
Y9153D02*
D03*
X18264Y8548D02*
D03*
Y9155D02*
D03*
X12853Y10619D02*
D03*
Y10012D02*
D03*
X12053Y10619D02*
D03*
Y10012D02*
D03*
X15350Y19400D02*
D03*
Y20006D02*
D03*
X14500Y19400D02*
D03*
Y20006D02*
D03*
X1356Y21731D02*
D03*
Y22338D02*
D03*
D25*
X24536Y8888D02*
D03*
X26150D02*
D03*
X20964Y8888D02*
D03*
X19350D02*
D03*
D26*
X36481Y7944D02*
D03*
Y8850D02*
D03*
Y9756D02*
D03*
Y3094D02*
D03*
Y4000D02*
D03*
Y4906D02*
D03*
D27*
X34119Y8850D02*
D03*
Y4000D02*
D03*
D28*
X35801Y6190D02*
D03*
Y6564D02*
D03*
Y6938D02*
D03*
X34699D02*
D03*
Y6190D02*
D03*
X15961Y7526D02*
D03*
Y7900D02*
D03*
Y8274D02*
D03*
X14858D02*
D03*
Y7526D02*
D03*
X11266Y4260D02*
D03*
Y3886D02*
D03*
Y3512D02*
D03*
X12368D02*
D03*
Y4260D02*
D03*
Y5627D02*
D03*
Y6001D02*
D03*
Y6375D02*
D03*
X11266D02*
D03*
Y5627D02*
D03*
X7999Y10474D02*
D03*
Y10100D02*
D03*
Y9726D02*
D03*
X9101D02*
D03*
Y10474D02*
D03*
D29*
X29457Y24598D02*
D03*
X29957D02*
D03*
X30457D02*
D03*
X30957D02*
D03*
X31457D02*
D03*
X31957D02*
D03*
X32457D02*
D03*
X32957D02*
D03*
X29457Y26645D02*
D03*
X29957D02*
D03*
X30457D02*
D03*
X30957D02*
D03*
X31457D02*
D03*
X31957D02*
D03*
X32457D02*
D03*
X32957D02*
D03*
D30*
X20131Y14340D02*
D03*
Y14536D02*
D03*
Y14733D02*
D03*
Y14930D02*
D03*
Y15127D02*
D03*
Y15324D02*
D03*
Y15521D02*
D03*
Y15718D02*
D03*
Y15914D02*
D03*
Y16111D02*
D03*
Y16308D02*
D03*
Y16505D02*
D03*
Y16702D02*
D03*
Y16899D02*
D03*
Y17096D02*
D03*
Y17292D02*
D03*
Y17489D02*
D03*
Y17686D02*
D03*
Y17883D02*
D03*
Y18080D02*
D03*
Y18277D02*
D03*
Y18473D02*
D03*
Y18670D02*
D03*
Y18867D02*
D03*
Y19064D02*
D03*
Y19261D02*
D03*
Y19458D02*
D03*
Y19655D02*
D03*
Y19851D02*
D03*
Y20048D02*
D03*
Y20245D02*
D03*
Y20442D02*
D03*
Y20639D02*
D03*
Y20836D02*
D03*
Y21033D02*
D03*
Y21229D02*
D03*
X28438D02*
D03*
Y21033D02*
D03*
Y20836D02*
D03*
Y20639D02*
D03*
Y20442D02*
D03*
Y20245D02*
D03*
Y20048D02*
D03*
Y19851D02*
D03*
Y19655D02*
D03*
Y19458D02*
D03*
Y19261D02*
D03*
Y19064D02*
D03*
Y18867D02*
D03*
Y18670D02*
D03*
Y18473D02*
D03*
Y18277D02*
D03*
Y18080D02*
D03*
Y17883D02*
D03*
Y17686D02*
D03*
Y17489D02*
D03*
Y17292D02*
D03*
Y17096D02*
D03*
Y16899D02*
D03*
Y16702D02*
D03*
Y16505D02*
D03*
Y16308D02*
D03*
Y16111D02*
D03*
Y15914D02*
D03*
Y15718D02*
D03*
Y15521D02*
D03*
Y15324D02*
D03*
Y15127D02*
D03*
Y14930D02*
D03*
Y14733D02*
D03*
Y14536D02*
D03*
Y14340D02*
D03*
D31*
X20839Y21938D02*
D03*
X21036D02*
D03*
X21233D02*
D03*
X21430D02*
D03*
X21627D02*
D03*
X21824D02*
D03*
X22020D02*
D03*
X22217D02*
D03*
X22414D02*
D03*
X22611D02*
D03*
X22808D02*
D03*
X23005D02*
D03*
X23202D02*
D03*
X23398D02*
D03*
X23595D02*
D03*
X23792D02*
D03*
X23989D02*
D03*
X24186D02*
D03*
X24383D02*
D03*
X24580D02*
D03*
X24776D02*
D03*
X24973D02*
D03*
X25170D02*
D03*
X25367D02*
D03*
X25564D02*
D03*
X25761D02*
D03*
X25957D02*
D03*
X26154D02*
D03*
X26351D02*
D03*
X26548D02*
D03*
X26745D02*
D03*
X26942D02*
D03*
X27139D02*
D03*
X27335D02*
D03*
X27532D02*
D03*
X27729D02*
D03*
Y13631D02*
D03*
X27532D02*
D03*
X27335D02*
D03*
X27139D02*
D03*
X26942D02*
D03*
X26745D02*
D03*
X26548D02*
D03*
X26351D02*
D03*
X26154D02*
D03*
X25957D02*
D03*
X25761D02*
D03*
X25564D02*
D03*
X25367D02*
D03*
X25170D02*
D03*
X24973D02*
D03*
X24776D02*
D03*
X24580D02*
D03*
X24383D02*
D03*
X24186D02*
D03*
X23989D02*
D03*
X23792D02*
D03*
X23595D02*
D03*
X23398D02*
D03*
X23202D02*
D03*
X23005D02*
D03*
X22808D02*
D03*
X22611D02*
D03*
X22414D02*
D03*
X22217D02*
D03*
X22020D02*
D03*
X21824D02*
D03*
X21627D02*
D03*
X21430D02*
D03*
X21233D02*
D03*
X21036D02*
D03*
X20839D02*
D03*
D32*
X9784Y19558D02*
D03*
X9981D02*
D03*
X10178D02*
D03*
X10374D02*
D03*
X10571D02*
D03*
X10768D02*
D03*
X10965D02*
D03*
X11162D02*
D03*
X11359D02*
D03*
X11556D02*
D03*
X11752D02*
D03*
X11949D02*
D03*
X12146D02*
D03*
X12343D02*
D03*
X12540D02*
D03*
X12737D02*
D03*
Y14833D02*
D03*
X12540D02*
D03*
X12343D02*
D03*
X12146D02*
D03*
X11949D02*
D03*
X11752D02*
D03*
X11556D02*
D03*
X11359D02*
D03*
X11162D02*
D03*
X10965D02*
D03*
X10768D02*
D03*
X10571D02*
D03*
X10374D02*
D03*
X10178D02*
D03*
X9981D02*
D03*
X9784D02*
D03*
D33*
X13622Y18672D02*
D03*
Y18475D02*
D03*
Y18278D02*
D03*
Y18081D02*
D03*
Y17885D02*
D03*
Y17688D02*
D03*
Y17491D02*
D03*
Y17294D02*
D03*
Y17097D02*
D03*
Y16900D02*
D03*
Y16703D02*
D03*
Y16507D02*
D03*
Y16310D02*
D03*
Y16113D02*
D03*
Y15916D02*
D03*
Y15719D02*
D03*
X8898D02*
D03*
Y15916D02*
D03*
Y16113D02*
D03*
Y16310D02*
D03*
Y16507D02*
D03*
Y16703D02*
D03*
Y16900D02*
D03*
Y17097D02*
D03*
Y17294D02*
D03*
Y17491D02*
D03*
Y17688D02*
D03*
Y17885D02*
D03*
Y18081D02*
D03*
Y18278D02*
D03*
Y18475D02*
D03*
D34*
Y18672D02*
D03*
D35*
X37650Y26638D02*
D03*
X38831D02*
D03*
X37650Y29000D02*
D03*
X38831D02*
D03*
X29434Y5704D02*
D03*
X28434Y6704D02*
D03*
Y5704D02*
D03*
X27434Y6704D02*
D03*
Y5704D02*
D03*
X26434Y6704D02*
D03*
Y5704D02*
D03*
X25434Y6704D02*
D03*
Y5704D02*
D03*
X25450Y3750D02*
D03*
X26450D02*
D03*
X27450D02*
D03*
X28450D02*
D03*
X29450D02*
D03*
X23450D02*
D03*
X22450D02*
D03*
X21450D02*
D03*
X20450D02*
D03*
X19450D02*
D03*
X1500Y26150D02*
D03*
Y27150D02*
D03*
Y28150D02*
D03*
X1356Y19833D02*
D03*
X2356D02*
D03*
X1356Y18833D02*
D03*
X2356D02*
D03*
X1356Y17833D02*
D03*
X2356D02*
D03*
X1356Y16833D02*
D03*
X2356D02*
D03*
X1356Y15833D02*
D03*
X2356D02*
D03*
X1356Y14833D02*
D03*
X2356D02*
D03*
X1356Y13833D02*
D03*
X2356D02*
D03*
X1356Y12833D02*
D03*
X2356D02*
D03*
X1356Y11833D02*
D03*
X2356D02*
D03*
X1356Y10833D02*
D03*
D36*
X22972Y26689D02*
D03*
X23578D02*
D03*
X30003Y15688D02*
D03*
X29397D02*
D03*
X18297Y15590D02*
D03*
X18903D02*
D03*
X33394Y10997D02*
D03*
X34000D02*
D03*
X32547Y14083D02*
D03*
X33153D02*
D03*
X32597Y17530D02*
D03*
X33203D02*
D03*
X18294Y14536D02*
D03*
X18900D02*
D03*
X3996Y23362D02*
D03*
X4602D02*
D03*
X3996Y24476D02*
D03*
X4602D02*
D03*
X3996Y22249D02*
D03*
X4602D02*
D03*
X3996Y21135D02*
D03*
X4602D02*
D03*
X3996Y18907D02*
D03*
X4602D02*
D03*
X3996Y20021D02*
D03*
X4602D02*
D03*
X3996Y17794D02*
D03*
X4602D02*
D03*
X16344Y16625D02*
D03*
X16950D02*
D03*
X3996Y16680D02*
D03*
X4602D02*
D03*
X3996Y14452D02*
D03*
X4602D02*
D03*
X16950Y17600D02*
D03*
X16344D02*
D03*
X3996Y15566D02*
D03*
X4602D02*
D03*
X3996Y13338D02*
D03*
X4602D02*
D03*
X3996Y12225D02*
D03*
X4602D02*
D03*
X3996Y9997D02*
D03*
X4602D02*
D03*
X3996Y11111D02*
D03*
X4602D02*
D03*
X3996Y8883D02*
D03*
X4602D02*
D03*
X8165Y24706D02*
D03*
X8771D02*
D03*
X13527Y23839D02*
D03*
X12920D02*
D03*
X10321D02*
D03*
X9715D02*
D03*
X9715Y24706D02*
D03*
X10321D02*
D03*
X16344Y15650D02*
D03*
X16950D02*
D03*
X33203Y15232D02*
D03*
X32597D02*
D03*
X33203Y16381D02*
D03*
X32597D02*
D03*
X38200Y11000D02*
D03*
X37594D02*
D03*
X30350Y23454D02*
D03*
X30957D02*
D03*
X30003Y20985D02*
D03*
X29397D02*
D03*
X30003Y16751D02*
D03*
X29397D02*
D03*
X30003Y18868D02*
D03*
X29397D02*
D03*
X30003Y14635D02*
D03*
X29397D02*
D03*
X18294Y13550D02*
D03*
X18900D02*
D03*
X18297Y16899D02*
D03*
X18903D02*
D03*
X18297Y18867D02*
D03*
X18903D02*
D03*
X30003Y21975D02*
D03*
X29397D02*
D03*
X5393Y25590D02*
D03*
X5999D02*
D03*
X5393Y23362D02*
D03*
X5999D02*
D03*
X5999Y24476D02*
D03*
X5393D02*
D03*
X5999Y22249D02*
D03*
X5393D02*
D03*
X8247Y11300D02*
D03*
X8853D02*
D03*
X5393Y21135D02*
D03*
X5999D02*
D03*
X5393Y18907D02*
D03*
X5999D02*
D03*
X5999Y20021D02*
D03*
X5393D02*
D03*
X5999Y17794D02*
D03*
X5393D02*
D03*
X5393Y16680D02*
D03*
X5999D02*
D03*
X5393Y14452D02*
D03*
X5999D02*
D03*
X8197Y8750D02*
D03*
X8803D02*
D03*
X5999Y15566D02*
D03*
X5393D02*
D03*
X5999Y13338D02*
D03*
X5393D02*
D03*
X5393Y12225D02*
D03*
X5999D02*
D03*
X5393Y9997D02*
D03*
X5999D02*
D03*
X5999Y11111D02*
D03*
X5393D02*
D03*
X5999Y8883D02*
D03*
X5393D02*
D03*
X13796Y13733D02*
D03*
X14402D02*
D03*
X13799Y12853D02*
D03*
X14406D02*
D03*
X9153Y13700D02*
D03*
X8547D02*
D03*
X9153Y12853D02*
D03*
X8547D02*
D03*
X9715Y25518D02*
D03*
X10321D02*
D03*
X11318Y24706D02*
D03*
X11924D02*
D03*
X11318Y23839D02*
D03*
X11924D02*
D03*
X10453Y21100D02*
D03*
X9847D02*
D03*
X11947D02*
D03*
X12553D02*
D03*
X11247Y12851D02*
D03*
X11853D02*
D03*
X11244Y12005D02*
D03*
X11850D02*
D03*
X3996Y25590D02*
D03*
X4602D02*
D03*
D37*
X22450Y27749D02*
D03*
Y28497D02*
D03*
X21466Y28123D02*
D03*
X25542Y27749D02*
D03*
Y28497D02*
D03*
X24558Y28123D02*
D03*
X18138Y11324D02*
D03*
Y10576D02*
D03*
X19122Y10950D02*
D03*
D38*
X37084Y23944D02*
D03*
Y24200D02*
D03*
Y23688D02*
D03*
Y24712D02*
D03*
Y24456D02*
D03*
D39*
X38167Y25794D02*
D03*
Y22606D02*
D03*
D40*
X11275Y7498D02*
D03*
Y8199D02*
D03*
X15906Y4343D02*
D03*
Y3642D02*
D03*
Y6300D02*
D03*
Y5600D02*
D03*
X8522Y6251D02*
D03*
Y5550D02*
D03*
X35450Y21999D02*
D03*
Y22700D02*
D03*
D41*
X24585Y26700D02*
D03*
X25515D02*
D03*
D42*
X36100Y10997D02*
D03*
X35399D02*
D03*
D43*
X14109Y10332D02*
D03*
X15291D02*
D03*
D70*
X27434Y6700D02*
X28600D01*
X7954Y6300D02*
X8522D01*
X28950Y5319D02*
Y6350D01*
Y5319D02*
X29127Y5142D01*
X30482D01*
X30991Y5650D01*
X28600Y6700D02*
X28950Y6350D01*
X25434Y6700D02*
X26430D01*
X18903Y16771D02*
X19031Y16899D01*
X27080Y7350D02*
X31300D01*
X26434Y6704D02*
X27080Y7350D01*
X26430Y6700D02*
X26434Y6704D01*
X31150Y3447D02*
Y4900D01*
X30753Y3050D02*
X31150Y3447D01*
X27246Y3050D02*
X30753D01*
X27005Y3291D02*
X27246Y3050D01*
X27005Y3291D02*
Y3995D01*
X24675Y4325D02*
X26675D01*
X34870Y20330D02*
X35450D01*
X34769Y20431D02*
X34870Y20330D01*
X34769Y20431D02*
Y21868D01*
X34901Y21999D01*
X35450D01*
X35988Y23688D02*
X37084D01*
X35450Y23150D02*
X35988Y23688D01*
X35450Y22700D02*
Y23150D01*
X15961Y8059D02*
X16650D01*
X15961D02*
Y8274D01*
Y7900D02*
Y8059D01*
X16791D02*
X17050Y7800D01*
X16809Y6161D02*
X17050Y6401D01*
X16248Y5600D02*
X16809Y6161D01*
X15906Y5600D02*
X16248D01*
X17050Y6401D02*
Y7800D01*
X10453Y21100D02*
X10803Y21450D01*
X17050Y8259D02*
Y8650D01*
Y8259D02*
X17550Y7759D01*
Y6257D02*
Y7759D01*
X17350Y6057D02*
X17550Y6257D01*
Y8274D02*
X19000Y6824D01*
X17550Y8274D02*
Y14678D01*
X16603Y9097D02*
X17050Y8650D01*
X17328Y14900D02*
X17550Y14678D01*
X19000Y3509D02*
Y6824D01*
X13796Y12853D02*
Y13733D01*
Y12853D02*
X14109Y12540D01*
X11853Y12848D02*
X12326D01*
X26450Y2650D02*
X31005D01*
X18800D02*
X26450D01*
Y3750D01*
X11244Y9097D02*
X16603D01*
X23900Y3050D02*
X24325Y3475D01*
X19459Y3050D02*
X23900D01*
X24325Y3475D02*
Y3975D01*
X24675Y4325D01*
X19000Y3509D02*
X19459Y3050D01*
X31150Y4900D02*
X32050Y5800D01*
X18450Y3000D02*
X18800Y2650D01*
X18450Y3000D02*
Y3750D01*
X31005Y2650D02*
X31550Y3195D01*
X38468Y2218D02*
X39100Y2850D01*
X37789Y2218D02*
X38468D01*
X37421Y1850D02*
X37789Y2218D01*
X8950Y1850D02*
X37421D01*
X6900Y3900D02*
X8950Y1850D01*
X24433Y14900D02*
X25748D01*
X25924Y14724D01*
X25933Y14733D01*
X25924Y14724D02*
X26548Y14100D01*
X20631Y14331D02*
X21300Y15000D01*
X20620Y14320D02*
X20631Y14331D01*
X21200Y17093D02*
Y19402D01*
X21007Y16900D02*
X21200Y17093D01*
Y19402D02*
Y20939D01*
X21155Y20985D02*
X21200Y20939D01*
X20839Y21300D02*
X21155Y20985D01*
X20633Y18867D02*
X21200Y19402D01*
X29397Y17197D02*
Y18868D01*
X29730Y17530D02*
X32597D01*
X29397Y17197D02*
X29730Y17530D01*
X29397Y16751D02*
Y17197D01*
X32297Y10997D02*
X32953D01*
X33394D01*
X32547Y11403D02*
X32953Y10997D01*
X32547Y11403D02*
Y14083D01*
X31300Y7350D02*
X32050Y8100D01*
X23850Y14317D02*
X24433Y14900D01*
X37594Y11406D02*
Y12206D01*
Y11000D02*
Y11406D01*
X34050Y14950D02*
X37594Y11406D01*
X34050Y14950D02*
Y18707D01*
X10768Y21450D02*
X10803D01*
X12737Y14159D02*
X13162Y13733D01*
X13796D01*
X21155Y20985D02*
X23094D01*
X23339Y21229D02*
X23398Y21289D01*
X23094Y20985D02*
X23339Y21229D01*
X12850Y28850D02*
X18769Y22931D01*
X1000Y28850D02*
X12850D01*
X750Y28600D02*
X1000Y28850D01*
X28460Y26645D02*
X29400D01*
X28407Y26699D02*
X28460Y26645D01*
X27028Y26700D02*
X27029Y26699D01*
X27557D01*
X30900Y22451D02*
X32049Y23600D01*
X30900Y22000D02*
Y22451D01*
X30350Y21450D02*
X30900Y22000D01*
X29557Y21450D02*
X30350D01*
X23339Y21229D02*
X25479D01*
X16339Y20100D02*
X16683D01*
X15639Y19400D02*
X16339Y20100D01*
X16950Y17600D02*
Y18000D01*
X18900Y13550D02*
Y13700D01*
X32049Y23600D02*
X34250D01*
X32050Y8100D02*
Y8548D01*
X30991Y5650D02*
X31300D01*
X33250D02*
X37903D01*
X38550Y6297D01*
X39100Y2850D02*
Y4053D01*
X38867Y4286D02*
X39100Y4053D01*
X38550Y4286D02*
X38867D01*
X33553Y4000D02*
X34119D01*
X33350Y4203D02*
X33553Y4000D01*
X33000Y4203D02*
X33350D01*
X31550Y3195D02*
Y4000D01*
X31753Y4203D01*
X32050D01*
X750Y25550D02*
Y28600D01*
X1150Y25150D02*
X1500D01*
X750Y25550D02*
X1150Y25150D01*
X17350Y3597D02*
Y6057D01*
X26675Y4325D02*
X27005Y3995D01*
X34119Y4000D02*
X36481D01*
X18900Y13550D02*
X19200D01*
X19400Y13750D01*
Y14145D01*
X21300Y15000D02*
Y16608D01*
X21007Y16900D02*
X21300Y16608D01*
X25479Y21229D02*
X25564Y21314D01*
X11924Y23076D02*
Y23839D01*
Y23076D02*
X12553Y22447D01*
Y21100D02*
Y22447D01*
X18769Y22931D02*
X20839D01*
X34119Y8850D02*
X36481D01*
X31600Y10300D02*
X32297Y10997D01*
X29397Y13853D02*
Y14635D01*
Y13853D02*
X31600Y11650D01*
Y10300D02*
Y11650D01*
X30900Y9600D02*
X31600Y10300D01*
X30900Y9155D02*
Y9600D01*
X25933Y14733D02*
X27817D01*
X15350Y19400D02*
X15639D01*
X32050Y5800D02*
Y6297D01*
X18900Y13042D02*
Y13550D01*
X18138Y12280D02*
X18900Y13042D01*
X18138Y11324D02*
Y12280D01*
X18350Y14250D02*
X18900Y13700D01*
X18350Y14250D02*
Y14480D01*
X18294Y14536D02*
X18350Y14480D01*
X11350Y15571D02*
Y18675D01*
X8298Y9198D02*
X8400Y9300D01*
X8197Y9097D02*
X8298Y9198D01*
X9689D01*
X10503Y10012D01*
X8197Y8750D02*
Y9097D01*
X10262Y8059D02*
Y8638D01*
X11244Y11474D02*
Y12005D01*
X10262Y8059D02*
X10600D01*
X10740Y8199D01*
X11275D01*
X16809Y3597D02*
X17350D01*
X27550Y15000D02*
X27817Y14733D01*
X27550Y15000D02*
Y17052D01*
X27790Y17292D01*
X29397Y18868D02*
Y20985D01*
X31607Y21150D02*
X34050Y18707D01*
X6900Y3900D02*
Y5601D01*
X7459Y6161D01*
X29397Y21290D02*
X29557Y21450D01*
X29397Y20985D02*
Y21290D01*
X34250Y24712D02*
X34769D01*
X36150Y26093D01*
X13527Y20373D02*
X14500Y19400D01*
X13527Y20373D02*
Y23839D01*
X11924Y23839D02*
Y24706D01*
X10768Y18650D02*
X10772Y15688D01*
Y19358D02*
Y19465D01*
X10768Y19468D02*
X10772Y19465D01*
X11947Y20844D02*
Y21100D01*
X12553Y21045D02*
Y21100D01*
X11853Y12848D02*
Y12851D01*
Y12008D02*
Y12848D01*
X13796Y12853D02*
X13799D01*
X13259D02*
X13796D01*
X9153D02*
X9750D01*
X10768Y12848D02*
X10771Y12851D01*
X11247D01*
X11244Y12848D02*
X11247Y12851D01*
X11850Y12005D02*
X11853Y12008D01*
X11244Y12005D02*
Y12848D01*
X14109Y10332D02*
Y12540D01*
X9750Y13700D02*
X10178Y14128D01*
X9153Y12225D02*
Y12853D01*
X8853Y11925D02*
X9153Y12225D01*
X8853Y11300D02*
Y11925D01*
X9153Y12853D02*
Y13700D01*
X9750D01*
X9101Y10474D02*
Y11052D01*
X8853Y11300D02*
X9101Y11052D01*
X36600Y20936D02*
X38414D01*
X38550Y20800D01*
Y20050D02*
Y20800D01*
X37150Y18650D02*
X38550Y20050D01*
X35450Y20330D02*
X36600D01*
X16950Y16625D02*
X16950Y16625D01*
X16950Y16625D02*
Y17600D01*
X14500Y19400D02*
X15350D01*
X14500Y18950D02*
Y19400D01*
X7999Y10100D02*
X8247D01*
X8400Y9947D01*
Y9300D02*
Y9947D01*
X27557Y26699D02*
X28407D01*
X33650Y8850D02*
X34119D01*
X12853Y10012D02*
X13346D01*
X13666Y10332D01*
X14109D01*
X12053Y10012D02*
X12053Y10012D01*
X12853D01*
X11253Y10012D02*
X12053D01*
X11253Y10012D02*
X11253Y10012D01*
X10503Y10012D02*
X11253D01*
X7814Y6161D02*
X7954Y6300D01*
X7459Y6161D02*
X7814D01*
X15906Y3642D02*
X15951Y3597D01*
X16809D01*
X25564Y22895D02*
X25600Y22931D01*
X29004Y19261D02*
X29397Y18868D01*
X29298Y14733D02*
X29397Y14635D01*
X23989Y12649D02*
X24000Y12638D01*
X32050Y4203D02*
X33000D01*
X31702Y8548D02*
X32050D01*
X31100Y9150D02*
X31702Y8548D01*
X30905Y9150D02*
X31100D01*
X30900Y9155D02*
X30905Y9150D01*
X32050Y8548D02*
X33000D01*
X33348D02*
X33650Y8850D01*
X33000Y8548D02*
X33348D01*
X38550Y4286D02*
Y6297D01*
X39050Y6797D01*
Y9100D01*
X38944Y9206D02*
X39050Y9100D01*
X38550Y9206D02*
X38944D01*
X37594Y10656D02*
Y11000D01*
X38550Y9206D02*
Y9700D01*
X37594Y10656D02*
X38550Y9700D01*
X34310Y6190D02*
X34699D01*
X34203Y6297D02*
X34310Y6190D01*
X33000Y6297D02*
X34203D01*
X32050D02*
X33000D01*
X36550Y6190D02*
Y6800D01*
X36412Y6938D02*
X36550Y6800D01*
X35801Y6938D02*
X36412D01*
X36550Y6190D02*
X37240D01*
X35801D02*
X36550D01*
X37347Y6297D02*
X37650D01*
X37240Y6190D02*
X37347Y6297D01*
X36481Y4906D02*
X37100Y4286D01*
X37650D01*
X38550D01*
X37650Y6297D02*
X38550D01*
X37650Y9206D02*
X38550D01*
X36481Y9756D02*
X37030Y9206D01*
X37650D01*
X37150Y12650D02*
X37594Y12206D01*
D71*
X19586Y14331D02*
X20631D01*
X11946Y18793D02*
Y20438D01*
X10961Y19558D02*
Y20014D01*
X9861Y21114D02*
X10961Y20014D01*
X10969Y14377D02*
Y14833D01*
X10968D02*
Y14987D01*
X11350Y18675D02*
X11827D01*
X11752Y20650D02*
X11947Y20844D01*
X10453Y20916D02*
Y21100D01*
X11359Y19558D02*
Y19696D01*
Y19100D02*
Y19558D01*
X10570Y15486D02*
X10772Y15688D01*
X11500Y15519D02*
X11824Y15843D01*
X11359Y15378D02*
X11500Y15519D01*
X11119D02*
X11500D01*
X11359Y14833D02*
Y15378D01*
X10841Y14250D02*
X10969Y14377D01*
X10505Y14250D02*
X10841D01*
X10378Y14377D02*
X10505Y14250D01*
X20631Y14331D02*
X23769D01*
X20839Y21300D02*
Y21938D01*
X20131Y18867D02*
X20633D01*
X28856Y17292D02*
X29397Y16751D01*
X28438Y17292D02*
X28856D01*
X23989Y13631D02*
X24001Y14159D01*
X23850Y14317D02*
X24001Y14159D01*
X19400Y14145D02*
X19586Y14331D01*
X12737Y14159D02*
Y14833D01*
X11946Y20438D02*
X12553Y21045D01*
X12543Y19046D02*
X12918Y18672D01*
X12543Y19046D02*
Y19554D01*
X12918Y18672D02*
X13622D01*
X26548Y13631D02*
Y14100D01*
X20131Y16899D02*
X20523D01*
X20525Y16900D02*
X21007D01*
X25479Y21229D02*
X28438D01*
X23398Y21289D02*
Y21938D01*
X25564Y21314D02*
Y21938D01*
X27817Y14733D02*
X28438D01*
X18903Y18867D02*
X20131D01*
X11824Y15843D02*
X12660D01*
X12918Y15585D01*
Y15015D02*
Y15585D01*
X12737Y14833D02*
X12918Y15015D01*
X28438Y14733D02*
X29298D01*
X27790Y17292D02*
X28438D01*
X10768Y18650D02*
Y19468D01*
X11752Y19558D02*
Y20650D01*
Y19102D02*
Y19558D01*
X11650Y19000D02*
X11752Y19102D01*
X10453Y20916D02*
X11355Y20014D01*
X11359Y19100D02*
X11459Y19000D01*
X11650D01*
X11355Y19696D02*
Y20014D01*
X11827Y18675D02*
X11946Y18793D01*
X11165Y18815D02*
X11306Y18675D01*
X10178Y14833D02*
Y15378D01*
X10286Y15486D01*
X10571Y14833D02*
Y15379D01*
X10286Y15486D02*
X10570D01*
X10768Y14833D02*
X10772Y15688D01*
X10178Y14128D02*
Y14833D01*
X10378Y14377D02*
Y14633D01*
X10969Y15369D02*
X11119Y15519D01*
X10969Y14987D02*
Y15369D01*
X14222Y18672D02*
X14500Y18950D01*
X13622Y18672D02*
X14222D01*
X11165Y18815D02*
Y19554D01*
X10965Y19558D02*
X11162D01*
X19031Y16899D02*
X20131D01*
X20839Y21938D02*
Y22821D01*
X23398Y21938D02*
Y22808D01*
X25564Y21938D02*
Y22895D01*
X28438Y19261D02*
X29004D01*
X26548Y12638D02*
Y13631D01*
X23989Y12649D02*
Y13631D01*
D72*
X37150Y12650D02*
D03*
Y13650D02*
D03*
Y14650D02*
D03*
Y17650D02*
D03*
Y18650D02*
D03*
D73*
X29434Y6704D02*
D03*
X30450Y3750D02*
D03*
X18450D02*
D03*
D74*
X38147Y25312D02*
D03*
Y23088D02*
D03*
D75*
X37300Y23413D02*
D03*
Y24987D02*
D03*
D76*
X1500Y25150D02*
D03*
X2356Y10833D02*
D03*
D77*
X1181Y31069D02*
D03*
X38169Y31119D02*
D03*
X38219Y1181D02*
D03*
X1181D02*
D03*
D78*
X13396Y11682D02*
D03*
X24450Y22821D02*
D03*
X34230Y10161D02*
D03*
X32520Y5049D02*
D03*
X27934Y5702D02*
D03*
X26950Y5702D02*
D03*
X25950Y5700D02*
D03*
X28300Y22850D02*
D03*
X26250Y26999D02*
D03*
X2565Y9178D02*
D03*
X8247Y25950D02*
D03*
X2565Y24090D02*
D03*
X13473Y19300D02*
D03*
X11824Y22260D02*
D03*
X10358D02*
D03*
X8247Y22402D02*
D03*
X14780Y22866D02*
D03*
X21650Y25400D02*
D03*
X34283Y12788D02*
D03*
X19824Y5461D02*
D03*
X23202Y6082D02*
D03*
X18163Y5461D02*
D03*
X8480Y4000D02*
D03*
X9739Y11225D02*
D03*
X8603Y14937D02*
D03*
X14758Y14900D02*
D03*
X16550Y11673D02*
D03*
X19380Y10210D02*
D03*
X19673Y12377D02*
D03*
X26139Y10788D02*
D03*
X28350Y12150D02*
D03*
X29879D02*
D03*
X31802Y12729D02*
D03*
X31269Y16507D02*
D03*
X38350Y15650D02*
D03*
X38291Y16950D02*
D03*
X33000Y22411D02*
D03*
X31206Y19500D02*
D03*
X18306Y26678D02*
D03*
X17498D02*
D03*
X16691D02*
D03*
X18306Y27450D02*
D03*
X17498Y27413D02*
D03*
X16691D02*
D03*
X5000Y6050D02*
D03*
X4250D02*
D03*
X3500D02*
D03*
X5000Y6704D02*
D03*
X4250D02*
D03*
X3500D02*
D03*
X30003Y14350D02*
D03*
X30003Y15404D02*
D03*
X30003Y16467D02*
D03*
Y18584D02*
D03*
Y20700D02*
D03*
Y22260D02*
D03*
X30066Y23454D02*
D03*
X29173Y24598D02*
D03*
X28000Y26100D02*
D03*
X25884Y23538D02*
D03*
X23166Y23500D02*
D03*
X21750Y23822D02*
D03*
X20839D02*
D03*
X18013Y18867D02*
D03*
Y16899D02*
D03*
X18294Y13266D02*
D03*
X14686Y13733D02*
D03*
X14690Y12853D02*
D03*
X6283Y8883D02*
D03*
X6283Y9997D02*
D03*
X6283Y11111D02*
D03*
X6283Y12225D02*
D03*
X6283Y13338D02*
D03*
X6283Y14452D02*
D03*
X6283Y15566D02*
D03*
X6284Y16650D02*
D03*
X6283Y17794D02*
D03*
X6283Y18867D02*
D03*
X6283Y20021D02*
D03*
X6283Y21135D02*
D03*
X6283Y22249D02*
D03*
X6283Y23362D02*
D03*
X6283Y24476D02*
D03*
X6283Y25590D02*
D03*
X1500Y28434D02*
D03*
X1356Y21447D02*
D03*
X8263Y12853D02*
D03*
Y13700D02*
D03*
X7963Y11300D02*
D03*
X9087Y8750D02*
D03*
X10409Y6445D02*
D03*
X7459Y5270D02*
D03*
X9459Y6445D02*
D03*
X14960Y3313D02*
D03*
X14110D02*
D03*
X13259D02*
D03*
X10982Y3886D02*
D03*
X10409Y4487D02*
D03*
X16809Y4850D02*
D03*
X14960Y5270D02*
D03*
X14110D02*
D03*
X11266Y6659D02*
D03*
X12750Y8059D02*
D03*
X10262Y7169D02*
D03*
X14110Y8344D02*
D03*
X15961Y7242D02*
D03*
X16650Y7169D02*
D03*
X18550Y8550D02*
D03*
X21900Y8400D02*
D03*
X20750Y10285D02*
D03*
X29900Y10191D02*
D03*
X28950D02*
D03*
X33000Y7303D02*
D03*
X32050D02*
D03*
X33000Y3197D02*
D03*
X32050D02*
D03*
X36481Y2694D02*
D03*
Y7544D02*
D03*
X36500Y10997D02*
D03*
X38600Y11000D02*
D03*
X36750Y14650D02*
D03*
Y17650D02*
D03*
X35450Y21336D02*
D03*
X37350Y20330D02*
D03*
X36484Y24712D02*
D03*
X34700Y26093D02*
D03*
X37650Y29600D02*
D03*
X16344Y15132D02*
D03*
X24900Y13000D02*
D03*
X21430Y21300D02*
D03*
X24900Y14254D02*
D03*
X10768Y21450D02*
D03*
X15300Y13300D02*
D03*
X11950Y13927D02*
D03*
X12329Y12851D02*
D03*
X19900Y21900D02*
D03*
X27028Y26700D02*
D03*
X17328Y14900D02*
D03*
X15200Y17150D02*
D03*
X16750Y20100D02*
D03*
X15238Y18472D02*
D03*
X16950Y18000D02*
D03*
X17050Y19561D02*
D03*
X23697Y17150D02*
D03*
X22950Y12031D02*
D03*
X23350Y16300D02*
D03*
X23000Y15719D02*
D03*
X23150Y11550D02*
D03*
X23447Y11000D02*
D03*
X22650Y15050D02*
D03*
Y12500D02*
D03*
X24000Y11700D02*
D03*
X25754Y12900D02*
D03*
X31300Y5650D02*
D03*
X33250D02*
D03*
X27082Y10450D02*
D03*
X12935Y16703D02*
D03*
X12737Y20245D02*
D03*
X12935Y17294D02*
D03*
X13623Y15400D02*
D03*
X14500Y20400D02*
D03*
X15350D02*
D03*
X17700Y15650D02*
D03*
X31100Y13550D02*
D03*
X30595Y14200D02*
D03*
X25515Y24700D02*
D03*
X25564Y14317D02*
D03*
X27100Y11000D02*
D03*
X26548Y11750D02*
D03*
X28850Y13927D02*
D03*
X27729Y12729D02*
D03*
X20400Y7300D02*
D03*
X30850Y10222D02*
D03*
X19450Y23600D02*
D03*
X19500Y15521D02*
D03*
X12540D02*
D03*
X10262Y8638D02*
D03*
X11244Y9097D02*
D03*
Y11474D02*
D03*
X31607Y21150D02*
D03*
X34250Y23600D02*
D03*
Y24712D02*
D03*
X10768Y18650D02*
D03*
X20942Y16308D02*
D03*
X19059Y17500D02*
D03*
X450Y20639D02*
D03*
X2306Y22850D02*
D03*
X9750Y12853D02*
D03*
X13259D02*
D03*
X10768Y12848D02*
D03*
X27082Y9500D02*
D03*
X28050Y9450D02*
D03*
X28991Y8250D02*
D03*
X29957D02*
D03*
X32050Y9500D02*
D03*
X33000D02*
D03*
X38550Y3350D02*
D03*
X37650D02*
D03*
X36050Y6564D02*
D03*
X38550Y7200D02*
D03*
X37650D02*
D03*
Y8274D02*
D03*
X38550Y8300D02*
D03*
M02*
