G04*
G04 #@! TF.GenerationSoftware,Altium Limited,Altium Designer,18.1.9 (240)*
G04*
G04 Layer_Color=2752767*
%FSLAX24Y24*%
%MOIN*%
G70*
G01*
G75*
%ADD14C,0.0100*%
%ADD15C,0.0060*%
%ADD47C,0.0020*%
%ADD48C,0.0027*%
D14*
X27559Y0D02*
Y17717D01*
X0D02*
X27559D01*
X0Y0D02*
X27559D01*
X0D02*
Y17717D01*
X-900Y600D02*
X-700Y0D01*
X-500Y600D01*
X-700Y17717D02*
X-500Y17117D01*
X-900D02*
X-700Y17717D01*
Y0D02*
Y7189D01*
Y10208D02*
Y17717D01*
X-800Y0D02*
X-150D01*
X-800Y17717D02*
X-150D01*
X0Y-700D02*
X600Y-500D01*
X0Y-700D02*
X600Y-900D01*
X26959D02*
X27559Y-700D01*
X26959Y-500D02*
X27559Y-700D01*
X0D02*
X12110D01*
X15129D02*
X27559D01*
X0Y-800D02*
Y-150D01*
X27559Y-800D02*
Y-150D01*
D15*
X-340Y7649D02*
X-940D01*
X-640Y7349D01*
Y7749D01*
X-940Y8348D02*
Y7949D01*
X-640D01*
X-740Y8148D01*
Y8248D01*
X-640Y8348D01*
X-440D01*
X-340Y8248D01*
Y8048D01*
X-440Y7949D01*
X-340Y8548D02*
X-440D01*
Y8648D01*
X-340D01*
Y8548D01*
X-840Y9048D02*
X-940Y9148D01*
Y9348D01*
X-840Y9448D01*
X-440D01*
X-340Y9348D01*
Y9148D01*
X-440Y9048D01*
X-840D01*
Y9648D02*
X-940Y9748D01*
Y9948D01*
X-840Y10048D01*
X-440D01*
X-340Y9948D01*
Y9748D01*
X-440Y9648D01*
X-840D01*
X12270Y-460D02*
X12670D01*
Y-560D01*
X12270Y-960D01*
Y-1060D01*
X12870Y-560D02*
X12970Y-460D01*
X13170D01*
X13270Y-560D01*
Y-960D01*
X13170Y-1060D01*
X12970D01*
X12870Y-960D01*
Y-560D01*
X13470Y-1060D02*
Y-960D01*
X13570D01*
Y-1060D01*
X13470D01*
X13969Y-560D02*
X14069Y-460D01*
X14269D01*
X14369Y-560D01*
Y-960D01*
X14269Y-1060D01*
X14069D01*
X13969Y-960D01*
Y-560D01*
X14569D02*
X14669Y-460D01*
X14869D01*
X14969Y-560D01*
Y-960D01*
X14869Y-1060D01*
X14669D01*
X14569Y-960D01*
Y-560D01*
D47*
X10220Y4008D02*
Y4168D01*
X10380D01*
Y4008D01*
X10220D01*
Y5008D02*
Y5168D01*
X10380D01*
Y5008D01*
X10220D01*
Y6008D02*
Y6168D01*
X10380D01*
Y6008D01*
X10220D01*
Y7008D02*
Y7168D01*
X10380D01*
Y7008D01*
X10220D01*
Y8008D02*
Y8168D01*
X10380D01*
Y8008D01*
X10220D01*
Y9008D02*
Y9168D01*
X10380D01*
Y9008D01*
X10220D01*
Y10008D02*
Y10168D01*
X10380D01*
Y10008D01*
X10220D01*
Y11008D02*
Y11168D01*
X10380D01*
Y11008D01*
X10220D01*
X2570Y4020D02*
Y4180D01*
X2730D01*
Y4020D01*
X2570D01*
Y5020D02*
Y5180D01*
X2730D01*
Y5020D01*
X2570D01*
Y7020D02*
Y7180D01*
X2730D01*
Y7020D01*
X2570D01*
Y8020D02*
Y8180D01*
X2730D01*
Y8020D01*
X2570D01*
Y9020D02*
Y9180D01*
X2730D01*
Y9020D01*
X2570D01*
Y10020D02*
Y10180D01*
X2730D01*
Y10020D01*
X2570D01*
Y11020D02*
Y11180D01*
X2730D01*
Y11020D01*
X2570D01*
Y12020D02*
Y12180D01*
X2730D01*
Y12020D01*
X2570D01*
Y13020D02*
Y13180D01*
X2730D01*
Y13020D01*
X2570D01*
Y6020D02*
Y6180D01*
X2730D01*
Y6020D01*
X2570D01*
X12420Y10020D02*
Y10180D01*
X12580D01*
Y10020D01*
X12420D01*
X13420D02*
Y10180D01*
X13580D01*
Y10020D01*
X13420D01*
X12420Y9020D02*
Y9180D01*
X12580D01*
Y9020D01*
X12420D01*
X13420D02*
Y9180D01*
X13580D01*
Y9020D01*
X13420D01*
X12420Y8020D02*
Y8180D01*
X12580D01*
Y8020D01*
X12420D01*
X13420D02*
Y8180D01*
X13580D01*
Y8020D01*
X13420D01*
X12420Y7020D02*
Y7180D01*
X12580D01*
Y7020D01*
X12420D01*
X13420D02*
Y7180D01*
X13580D01*
Y7020D01*
X13420D01*
X24403Y4370D02*
X24323Y4530D01*
X24483D01*
X24403Y4370D01*
X25200Y4720D02*
X25120Y4880D01*
X25280D01*
X25200Y4720D01*
X24150Y11000D02*
X24070Y11160D01*
X24230D01*
X24150Y11000D01*
X22400Y16520D02*
X22320Y16680D01*
X22480D01*
X22400Y16520D01*
X20354D02*
X20274Y16680D01*
X20434D01*
X20354Y16520D01*
X22400Y15668D02*
X22320Y15828D01*
X22480D01*
X22400Y15668D01*
X20354D02*
X20274Y15828D01*
X20434D01*
X20354Y15668D01*
X24004Y5857D02*
X23924Y6017D01*
X24084D01*
X24004Y5857D01*
Y7512D02*
X23924Y7672D01*
X24084D01*
X24004Y7512D01*
Y6714D02*
X23924Y6874D01*
X24084D01*
X24004Y6714D01*
X22650Y10294D02*
X22570Y10454D01*
X22730D01*
X22650Y10294D01*
X21100Y10264D02*
X21020Y10424D01*
X21180D01*
X21100Y10264D01*
X15191Y2230D02*
X15111Y2390D01*
X15271D01*
X15191Y2230D01*
X13809D02*
X13729Y2390D01*
X13889D01*
X13809Y2230D01*
X12426D02*
X12346Y2390D01*
X12506D01*
X12426Y2230D01*
X11044D02*
X10964Y2390D01*
X11124D01*
X11044Y2230D01*
X20720D02*
X20640Y2390D01*
X20800D01*
X20720Y2230D01*
X19338D02*
X19258Y2390D01*
X19418D01*
X19338Y2230D01*
X17955D02*
X17875Y2390D01*
X18035D01*
X17955Y2230D01*
X16573D02*
X16493Y2390D01*
X16653D01*
X16573Y2230D01*
X12850Y5008D02*
X12770Y5168D01*
X12930D01*
X12850Y5008D01*
X11955D02*
X11875Y5168D01*
X12035D01*
X11955Y5008D01*
X9238Y5670D02*
X9158Y5830D01*
X9318D01*
X9238Y5670D01*
X8950Y6241D02*
X8870Y6401D01*
X9030D01*
X8950Y6241D01*
X7900Y5424D02*
X7820Y5584D01*
X7980D01*
X7900Y5424D01*
X7423D02*
X7343Y5584D01*
X7503D01*
X7423Y5424D01*
X9800Y4520D02*
X9720Y4680D01*
X9880D01*
X9800Y4520D01*
X5228Y13155D02*
X5148Y13315D01*
X5308D01*
X5228Y13155D01*
X5800Y11882D02*
X5720Y12042D01*
X5880D01*
X5800Y11882D01*
X4400Y11967D02*
X4320Y12127D01*
X4480D01*
X4400Y11967D01*
X3614Y11637D02*
X3534Y11797D01*
X3694D01*
X3614Y11637D01*
X10600Y3137D02*
X10520Y3297D01*
X10680D01*
X10600Y3137D01*
X9722D02*
X9642Y3297D01*
X9802D01*
X9722Y3137D01*
X8690Y4420D02*
X8610Y4580D01*
X8770D01*
X8690Y4420D01*
X6050Y4449D02*
X5970Y4609D01*
X6130D01*
X6050Y4449D01*
X5175D02*
X5095Y4609D01*
X5255D01*
X5175Y4449D01*
X4600Y5258D02*
X4520Y5418D01*
X4680D01*
X4600Y5258D01*
X3950D02*
X3870Y5418D01*
X4030D01*
X3950Y5258D01*
X8300Y12029D02*
X8220Y12189D01*
X8380D01*
X8300Y12029D01*
X11650Y9101D02*
X11570Y9261D01*
X11730D01*
X11650Y9101D01*
Y10199D02*
X11570Y10359D01*
X11730D01*
X11650Y10199D01*
X10800Y9570D02*
X10720Y9730D01*
X10880D01*
X10800Y9570D01*
Y8470D02*
X10720Y8630D01*
X10880D01*
X10800Y8470D01*
X10861Y7049D02*
X10781Y7209D01*
X10941D01*
X10861Y7049D01*
X12360Y5944D02*
X12280Y6104D01*
X12440D01*
X12360Y5944D01*
X19050Y5494D02*
X18970Y5654D01*
X19130D01*
X19050Y5494D01*
X18100D02*
X18020Y5654D01*
X18180D01*
X18100Y5494D01*
X20300Y6021D02*
X20220Y6181D01*
X20380D01*
X20300Y6021D01*
X22152Y6714D02*
X22072Y6874D01*
X22232D01*
X22152Y6714D01*
X20300D02*
X20220Y6874D01*
X20380D01*
X20300Y6714D01*
X19923Y11249D02*
X19843Y11409D01*
X20003D01*
X19923Y11249D01*
X19210D02*
X19130Y11409D01*
X19290D01*
X19210Y11249D01*
X18496D02*
X18416Y11409D01*
X18576D01*
X18496Y11249D01*
X17782D02*
X17702Y11409D01*
X17862D01*
X17782Y11249D01*
X17069D02*
X16989Y11409D01*
X17149D01*
X17069Y11249D01*
X1200Y4663D02*
X1120Y4823D01*
X1280D01*
X1200Y4663D01*
Y6013D02*
X1120Y6173D01*
X1280D01*
X1200Y6013D01*
Y7362D02*
X1120Y7522D01*
X1280D01*
X1200Y7362D01*
Y8712D02*
X1120Y8872D01*
X1280D01*
X1200Y8712D01*
Y10061D02*
X1120Y10221D01*
X1280D01*
X1200Y10061D01*
Y11411D02*
X1120Y11571D01*
X1280D01*
X1200Y11411D01*
Y12760D02*
X1120Y12920D01*
X1280D01*
X1200Y12760D01*
Y14110D02*
X1120Y14270D01*
X1280D01*
X1200Y14110D01*
X26600Y4757D02*
X26520Y4917D01*
X26680D01*
X26600Y4757D01*
Y6107D02*
X26520Y6267D01*
X26680D01*
X26600Y6107D01*
Y7457D02*
X26520Y7617D01*
X26680D01*
X26600Y7457D01*
Y8807D02*
X26520Y8967D01*
X26680D01*
X26600Y8807D01*
Y10157D02*
X26520Y10317D01*
X26680D01*
X26600Y10157D01*
Y11506D02*
X26520Y11666D01*
X26680D01*
X26600Y11506D01*
Y12856D02*
X26520Y13016D01*
X26680D01*
X26600Y12856D01*
Y14206D02*
X26520Y14366D01*
X26680D01*
X26600Y14206D01*
X17926Y720D02*
X17846Y880D01*
X18006D01*
X17926Y720D01*
X19308D02*
X19228Y880D01*
X19388D01*
X19308Y720D01*
X20690D02*
X20610Y880D01*
X20770D01*
X20690Y720D01*
X22073D02*
X21993Y880D01*
X22153D01*
X22073Y720D01*
X12397D02*
X12317Y880D01*
X12477D01*
X12397Y720D01*
X13779D02*
X13699Y880D01*
X13859D01*
X13779Y720D01*
X15161D02*
X15081Y880D01*
X15241D01*
X15161Y720D01*
X16544D02*
X16464Y880D01*
X16624D01*
X16544Y720D01*
X3950Y1120D02*
X3870Y1280D01*
X4030D01*
X3950Y1120D01*
X5308D02*
X5228Y1280D01*
X5388D01*
X5308Y1120D01*
X6665D02*
X6585Y1280D01*
X6745D01*
X6665Y1120D01*
X8023D02*
X7943Y1280D01*
X8103D01*
X8023Y1120D01*
X3950Y2070D02*
X3870Y2230D01*
X4030D01*
X3950Y2070D01*
X5308D02*
X5228Y2230D01*
X5388D01*
X5308Y2070D01*
X6665D02*
X6585Y2230D01*
X6745D01*
X6665Y2070D01*
X8023D02*
X7943Y2230D01*
X8103D01*
X8023Y2070D01*
X12284Y15668D02*
X12204Y15828D01*
X12364D01*
X12284Y15668D01*
X14330D02*
X14250Y15828D01*
X14410D01*
X14330Y15668D01*
X16376D02*
X16296Y15828D01*
X16456D01*
X16376Y15668D01*
X18423D02*
X18343Y15828D01*
X18503D01*
X18423Y15668D01*
X12284Y16520D02*
X12204Y16680D01*
X12364D01*
X12284Y16520D01*
X14330D02*
X14250Y16680D01*
X14410D01*
X14330Y16520D01*
X16376D02*
X16296Y16680D01*
X16456D01*
X16376Y16520D01*
X18423D02*
X18343Y16680D01*
X18503D01*
X18423Y16520D01*
X4100Y15520D02*
X4020Y15680D01*
X4180D01*
X4100Y15520D01*
X6146D02*
X6066Y15680D01*
X6226D01*
X6146Y15520D01*
X8192D02*
X8112Y15680D01*
X8272D01*
X8192Y15520D01*
X10238D02*
X10158Y15680D01*
X10318D01*
X10238Y15520D01*
Y16470D02*
X10158Y16630D01*
X10318D01*
X10238Y16470D01*
X8192D02*
X8112Y16630D01*
X8272D01*
X8192Y16470D01*
X6146D02*
X6066Y16630D01*
X6226D01*
X6146Y16470D01*
X4100D02*
X4020Y16630D01*
X4180D01*
X4100Y16470D01*
X15759Y7354D02*
X15679Y7514D01*
X15839D01*
X15759Y7354D01*
X15817Y8708D02*
X15737Y8868D01*
X15897D01*
X15817Y8708D01*
X16250D02*
X16170Y8868D01*
X16330D01*
X16250Y8708D01*
X15800Y8113D02*
X15720Y8273D01*
X15880D01*
X15800Y8113D01*
X16250Y8101D02*
X16170Y8261D01*
X16330D01*
X16250Y8101D01*
X14400Y12170D02*
X14320Y12330D01*
X14480D01*
X14400Y12170D01*
X19897Y12535D02*
X19817Y12695D01*
X19977D01*
X19897Y12535D01*
X18350D02*
X18270Y12695D01*
X18430D01*
X18350Y12535D01*
X13500Y11249D02*
X13420Y11409D01*
X13580D01*
X13500Y11249D01*
X16355D02*
X16275Y11409D01*
X16435D01*
X16355Y11249D01*
X14927D02*
X14847Y11409D01*
X15007D01*
X14927Y11249D01*
X14214D02*
X14134Y11409D01*
X14294D01*
X14214Y11249D01*
X15375Y8113D02*
X15295Y8273D01*
X15455D01*
X15375Y8113D01*
X14950D02*
X14870Y8273D01*
X15030D01*
X14950Y8113D01*
X15383Y8708D02*
X15303Y8868D01*
X15463D01*
X15383Y8708D01*
X14950D02*
X14870Y8868D01*
X15030D01*
X14950Y8708D01*
X14600Y7008D02*
X14520Y7168D01*
X14680D01*
X14600Y7008D01*
Y8008D02*
X14520Y8168D01*
X14680D01*
X14600Y8008D01*
Y9008D02*
X14520Y9168D01*
X14680D01*
X14600Y9008D01*
Y10008D02*
X14520Y10168D01*
X14680D01*
X14600Y10008D01*
X19200Y4473D02*
X19120Y4633D01*
X19280D01*
X19200Y4473D01*
X18199Y4069D02*
X18119Y4229D01*
X18279D01*
X18199Y4069D01*
X25687Y9257D02*
X25607Y9417D01*
X25767D01*
X25687Y9257D01*
Y10134D02*
X25607Y10294D01*
X25767D01*
X25687Y10134D01*
Y11011D02*
X25607Y11171D01*
X25767D01*
X25687Y11011D01*
Y11888D02*
X25607Y12048D01*
X25767D01*
X25687Y11888D01*
X25285Y12270D02*
X25205Y12430D01*
X25365D01*
X25285Y12270D01*
X25679Y5170D02*
X25599Y5330D01*
X25759D01*
X25679Y5170D01*
Y6062D02*
X25599Y6222D01*
X25759D01*
X25679Y6062D01*
X25687Y6902D02*
X25607Y7062D01*
X25767D01*
X25687Y6902D01*
X18759Y12128D02*
X18679Y12288D01*
X18839D01*
X18759Y12128D01*
X19600Y12141D02*
X19520Y12301D01*
X19680D01*
X19600Y12141D01*
X19200Y12535D02*
X19120Y12695D01*
X19280D01*
X19200Y12535D01*
X15375Y12156D02*
X15295Y12316D01*
X15455D01*
X15375Y12156D01*
X14035Y12495D02*
X13955Y12655D01*
X14115D01*
X14035Y12495D01*
X14900Y12522D02*
X14820Y12682D01*
X14980D01*
X14900Y12522D01*
X17570Y7384D02*
X17490Y7544D01*
X17650D01*
X17570Y7384D01*
X19954Y7385D02*
X19873Y7545D01*
X20034D01*
X19954Y7385D01*
X19150Y7384D02*
X19070Y7544D01*
X19230D01*
X19150Y7384D01*
X18343Y7385D02*
X18263Y7545D01*
X18423D01*
X18343Y7385D01*
X15754Y9890D02*
X15674Y10050D01*
X15834D01*
X15754Y9890D01*
X18750Y9070D02*
X18670Y9230D01*
X18830D01*
X18750Y9070D01*
X19650Y8738D02*
X19570Y8898D01*
X19730D01*
X19650Y8738D01*
X18750D02*
X18670Y8898D01*
X18830D01*
X18750Y8738D01*
X17850D02*
X17770Y8898D01*
X17930D01*
X17850Y8738D01*
X19650Y9070D02*
X19570Y9230D01*
X19730D01*
X19650Y9070D01*
X17850D02*
X17770Y9230D01*
X17930D01*
X17850Y9070D01*
X7423Y5857D02*
X7343Y6017D01*
X7503D01*
X7423Y5857D01*
X8204Y6844D02*
X8124Y7004D01*
X8284D01*
X8204Y6844D01*
X13350Y3320D02*
X13270Y3480D01*
X13430D01*
X13350Y3320D01*
X5550Y8270D02*
X5470Y8430D01*
X5630D01*
X5550Y8270D01*
X13500Y6485D02*
X13420Y6645D01*
X13580D01*
X13500Y6485D01*
Y10555D02*
X13420Y10715D01*
X13580D01*
X13500Y10555D01*
X14185Y10020D02*
X14105Y10180D01*
X14265D01*
X14185Y10020D01*
Y9020D02*
X14105Y9180D01*
X14265D01*
X14185Y9020D01*
Y8020D02*
X14105Y8180D01*
X14265D01*
X14185Y8020D01*
Y7020D02*
X14105Y7180D01*
X14265D01*
X14185Y7020D01*
X13320Y5008D02*
X13240Y5168D01*
X13400D01*
X13320Y5008D01*
X12410D02*
X12330Y5168D01*
X12490D01*
X12410Y5008D01*
X11500D02*
X11420Y5168D01*
X11580D01*
X11500Y5008D01*
X7750Y10681D02*
X7670Y10841D01*
X7830D01*
X7750Y10681D01*
X18750Y4920D02*
X18670Y5080D01*
X18830D01*
X18750Y4920D01*
X19600Y4920D02*
X19520Y5080D01*
X19680D01*
X19600Y4920D01*
X16880Y5027D02*
X16800Y5187D01*
X16960D01*
X16880Y5027D01*
X16050Y5057D02*
X15970Y5217D01*
X16130D01*
X16050Y5057D01*
X15140Y5057D02*
X15060Y5217D01*
X15220D01*
X15140Y5057D01*
X14230D02*
X14150Y5217D01*
X14310D01*
X14230Y5057D01*
X15595Y4473D02*
X15515Y4633D01*
X15675D01*
X15595Y4473D01*
X14700Y4473D02*
X14620Y4633D01*
X14780D01*
X14700Y4473D01*
X17174Y12100D02*
X17094Y12260D01*
X17254D01*
X17174Y12100D01*
X9600Y12535D02*
X9520Y12695D01*
X9680D01*
X9600Y12535D01*
X9100Y12020D02*
X9020Y12180D01*
X9180D01*
X9100Y12020D01*
D48*
X2049Y1969D02*
G03*
X2049Y1969I-80J0D01*
G01*
Y15748D02*
G03*
X2049Y15748I-80J0D01*
G01*
X25671Y1969D02*
G03*
X25671Y1969I-80J0D01*
G01*
Y15748D02*
G03*
X25671Y15748I-80J0D01*
G01*
M02*
