M48
;Layer_Color=9474304
;FILE_FORMAT=2:4
INCH,LZ
;TYPE=PLATED
T1F00S00C0.0120
T2F00S00C0.0354
T3F00S00C0.1378
%
T01
X00395Y0012
Y00215
Y005338
X0012Y004743
Y006093
Y007442
Y008792
Y010141
Y011491
Y01284
Y01419
X0041Y0156
X0044Y012047
X003614Y011717
X0058Y011962
X005228Y013235
X006146Y0156
X008192
X010238
X012284Y015748
X01433
X016376
X018423
X01835Y012615
X018759Y012208
X0192Y012615
X019897Y012615
X0196Y012221
X019923Y011329
X01921
X018496
X017782
X017069
X016355
X014927
X014214
X0135
Y010635
X014185Y0101
X0146Y010088
Y009088
X014185Y0091
Y0081
X0146Y008088
X01495Y008193
X015375
X0158
X01625Y008181
X01625Y008788
X015817
X015383
X01495
X015754Y00997
X015759Y007434
X0146Y007088
X014185Y0071
X0135Y006565
X01332Y005088
X01285
X01241
X011955
X0115
X01236Y006024
X010861Y007129
X0108Y00855
Y00965
X01165Y009181
Y010279
X0091Y0121
X0083Y012109
X0096Y012615
X00775Y010761
X008204Y006924
X00895Y006321
X009238Y00575
X0079Y005504
X007423
Y005937
X00869Y0045
X0098Y0046
X009722Y003217
X0106
X011044Y00231
X012426
X013809
X015191
X016573
X017955
X019338
X019308Y0008
X017926
X016544
X015161
X013779
X012397
X01335Y0034
X0147Y004553
X015595Y004553
X01605Y005137
X01688Y005107
X0181Y005574
X01905
X01875Y005
X0196Y005
X0192Y004553
X018199Y004149
X018343Y007465
X01757Y007464
X01915
X019954Y007465
X01965Y008818
Y00915
X01875
Y008818
X01785
Y00915
X017174Y01218
X015375Y012236
X0149Y012602
X0144Y01225
X014035Y012575
X01423Y005137
X01514
X00605Y004529
X005175
X0046Y005338
X005308Y00215
Y0012
X006665
Y00215
X008023
Y0012
X00555Y00835
X0203Y006794
Y006101
X022152Y006794
X024004
Y007592
Y005937
X025679Y006142
X025687Y006982
X0266Y007537
Y006187
Y004837
X025679Y00525
X0252Y0048
X024403Y00445
X02072Y00231
X02069Y0008
X022073
X02265Y010374
X0211Y010344
X02415Y01108
X025687Y011091
Y010214
Y009337
X0266Y008887
Y010237
Y011586
X025687Y011968
X025285Y01235
X0266Y012936
Y014286
X0224Y015748
X020354
Y0166
X0224
X018423
X016376
X01433
X012284
X010238Y01655
X008192
X006146
X0041
T02
X00265Y0041
Y0051
Y0061
Y0071
Y0081
Y0091
Y0101
Y0111
Y0121
Y0131
X0103Y011088
Y010088
Y009088
Y008088
Y007088
Y006088
Y005088
Y004088
X0125Y0071
Y0081
Y0091
Y0101
X0135
Y0091
Y0081
Y0071
T03
X001969Y001969
Y015748
X025591
Y001969
M30
